%TF.GenerationSoftware,KiCad,Pcbnew,9.0.4*%
%TF.CreationDate,2025-10-07T22:20:51-05:00*%
%TF.ProjectId,RFSA3713-EVAL,52465341-3337-4313-932d-4556414c2e6b,rev?*%
%TF.SameCoordinates,Original*%
%TF.FileFunction,Paste,Top*%
%TF.FilePolarity,Positive*%
%FSLAX46Y46*%
G04 Gerber Fmt 4.6, Leading zero omitted, Abs format (unit mm)*
G04 Created by KiCad (PCBNEW 9.0.4) date 2025-10-07 22:20:51*
%MOMM*%
%LPD*%
G01*
G04 APERTURE LIST*
G04 Aperture macros list*
%AMRoundRect*
0 Rectangle with rounded corners*
0 $1 Rounding radius*
0 $2 $3 $4 $5 $6 $7 $8 $9 X,Y pos of 4 corners*
0 Add a 4 corners polygon primitive as box body*
4,1,4,$2,$3,$4,$5,$6,$7,$8,$9,$2,$3,0*
0 Add four circle primitives for the rounded corners*
1,1,$1+$1,$2,$3*
1,1,$1+$1,$4,$5*
1,1,$1+$1,$6,$7*
1,1,$1+$1,$8,$9*
0 Add four rect primitives between the rounded corners*
20,1,$1+$1,$2,$3,$4,$5,0*
20,1,$1+$1,$4,$5,$6,$7,0*
20,1,$1+$1,$6,$7,$8,$9,0*
20,1,$1+$1,$8,$9,$2,$3,0*%
G04 Aperture macros list end*
%ADD10RoundRect,0.135000X-0.135000X-0.185000X0.135000X-0.185000X0.135000X0.185000X-0.135000X0.185000X0*%
%ADD11RoundRect,0.140000X0.170000X-0.140000X0.170000X0.140000X-0.170000X0.140000X-0.170000X-0.140000X0*%
%ADD12R,5.080000X1.500000*%
%ADD13RoundRect,0.140000X-0.140000X-0.170000X0.140000X-0.170000X0.140000X0.170000X-0.140000X0.170000X0*%
%ADD14RoundRect,0.250000X0.375000X1.000000X-0.375000X1.000000X-0.375000X-1.000000X0.375000X-1.000000X0*%
%ADD15RoundRect,0.135000X0.185000X-0.135000X0.185000X0.135000X-0.185000X0.135000X-0.185000X-0.135000X0*%
%ADD16R,0.850000X0.300000*%
%ADD17R,0.300000X0.850000*%
%ADD18R,1.700000X1.700000*%
%ADD19RoundRect,0.140000X-0.170000X0.140000X-0.170000X-0.140000X0.170000X-0.140000X0.170000X0.140000X0*%
G04 APERTURE END LIST*
D10*
%TO.C,R3*%
X205140000Y-59420000D03*
X206160000Y-59420000D03*
%TD*%
D11*
%TO.C,C2*%
X194860000Y-56120000D03*
X194860000Y-55160000D03*
%TD*%
D12*
%TO.C,J1*%
X177082500Y-61910000D03*
X177082500Y-66160000D03*
X177082500Y-57660000D03*
%TD*%
D13*
%TO.C,C3*%
X198750000Y-57460000D03*
X199710000Y-57460000D03*
%TD*%
D14*
%TO.C,SW1*%
X188740000Y-48090000D03*
X186240000Y-48090000D03*
X183740000Y-48090000D03*
%TD*%
%TO.C,SW3*%
X199320000Y-48020000D03*
X196820000Y-48020000D03*
X194320000Y-48020000D03*
%TD*%
D15*
%TO.C,R2*%
X198790000Y-56520000D03*
X198790000Y-55500000D03*
%TD*%
D12*
%TO.C,J2*%
X224607500Y-61910000D03*
X224607500Y-57660000D03*
X224607500Y-66160000D03*
%TD*%
%TO.C,J5*%
X224607500Y-77270000D03*
X224607500Y-73020000D03*
X224607500Y-81520000D03*
%TD*%
D16*
%TO.C,AT1*%
X196850000Y-60410000D03*
X196850000Y-60910000D03*
X196850000Y-61410000D03*
X196850000Y-61910000D03*
D17*
X197550000Y-62610000D03*
X198050000Y-62610000D03*
X198550000Y-62610000D03*
X199050000Y-62610000D03*
D16*
X199750000Y-61910000D03*
X199750000Y-61410000D03*
X199750000Y-60910000D03*
X199750000Y-60410000D03*
D17*
X199050000Y-59710000D03*
X198550000Y-59710000D03*
X198050000Y-59710000D03*
X197550000Y-59710000D03*
D18*
X198300000Y-61160000D03*
%TD*%
D12*
%TO.C,J4*%
X177082500Y-77270000D03*
X177082500Y-81520000D03*
X177082500Y-73020000D03*
%TD*%
D10*
%TO.C,R1*%
X201950000Y-58500000D03*
X202970000Y-58500000D03*
%TD*%
D11*
%TO.C,C1*%
X193760000Y-56130000D03*
X193760000Y-55170000D03*
%TD*%
D14*
%TO.C,SW2*%
X210000000Y-48020000D03*
X207500000Y-48020000D03*
X205000000Y-48020000D03*
%TD*%
D11*
%TO.C,C4*%
X200940000Y-59430000D03*
X200940000Y-58470000D03*
%TD*%
D19*
%TO.C,C5*%
X204140000Y-58470000D03*
X204140000Y-59430000D03*
%TD*%
M02*
