M48
; DRILL file {KiCad 9.0.4} date 2025-10-07T22:21:20-0500
; FORMAT={-:-/ absolute / metric / decimal}
; #@! TF.CreationDate,2025-10-07T22:21:20-05:00
; #@! TF.GenerationSoftware,Kicad,Pcbnew,9.0.4
; #@! TF.FileFunction,Plated,1,2,PTH
FMAT,2
METRIC
; #@! TA.AperFunction,Plated,PTH,ViaDrill
T1C0.152
; #@! TA.AperFunction,Plated,PTH,ViaDrill
T2C0.203
; #@! TA.AperFunction,Plated,PTH,ViaDrill
T3C0.300
; #@! TA.AperFunction,Plated,PTH,ComponentDrill
T4C0.800
%
G90
G05
T1
X196.8Y-61.4
X197.55Y-62.55
X198.05Y-62.55
X198.55Y-62.55
X199.05Y-62.55
X199.8Y-60.9
X199.8Y-61.4
T2
X197.792Y-60.652
X197.792Y-61.16
X197.792Y-61.668
X198.3Y-60.652
X198.3Y-61.16
X198.3Y-61.668
X198.808Y-60.652
X198.808Y-61.16
X198.808Y-61.668
T3
X175.5Y-66.2
X175.5Y-73.0
X175.5Y-81.4
X175.582Y-57.66
X176.25Y-66.2
X176.25Y-73.0
X176.25Y-81.4
X176.332Y-57.66
X177.0Y-66.2
X177.0Y-73.0
X177.0Y-81.4
X177.082Y-57.66
X177.75Y-66.2
X177.75Y-73.0
X177.75Y-81.4
X177.832Y-57.66
X178.5Y-66.2
X178.5Y-73.0
X178.5Y-81.4
X178.582Y-57.66
X181.074Y-63.05
X181.104Y-60.8
X181.346Y-76.0
X181.346Y-78.4
X182.09Y-63.05
X182.12Y-60.8
X182.362Y-76.0
X182.362Y-78.4
X183.106Y-63.05
X183.136Y-60.8
X183.378Y-76.0
X183.378Y-78.4
X183.74Y-48.09
X184.122Y-63.05
X184.152Y-60.8
X184.394Y-76.0
X184.394Y-78.4
X185.138Y-63.05
X185.168Y-60.8
X185.41Y-76.0
X185.41Y-78.4
X186.154Y-63.05
X186.184Y-60.8
X186.426Y-76.0
X186.426Y-78.4
X187.17Y-63.05
X187.2Y-60.8
X187.442Y-76.0
X187.442Y-78.4
X188.186Y-63.05
X188.216Y-60.8
X188.458Y-76.0
X188.458Y-78.4
X189.202Y-63.05
X189.232Y-60.8
X189.474Y-76.0
X189.474Y-78.4
X190.218Y-63.05
X190.248Y-60.8
X190.49Y-76.0
X190.49Y-78.4
X191.234Y-63.05
X191.264Y-60.8
X191.506Y-76.0
X191.506Y-78.4
X192.25Y-63.05
X192.28Y-60.8
X192.522Y-76.0
X192.522Y-78.4
X193.266Y-63.05
X193.296Y-60.8
X193.538Y-76.0
X193.538Y-78.4
X193.76Y-56.13
X194.282Y-63.05
X194.32Y-48.02
X194.554Y-76.0
X194.554Y-78.4
X194.86Y-56.12
X195.298Y-63.05
X195.57Y-76.0
X195.57Y-78.4
X196.586Y-76.0
X196.586Y-78.4
X197.602Y-76.0
X197.602Y-78.4
X198.618Y-76.0
X198.618Y-78.4
X199.634Y-76.0
X199.634Y-78.4
X199.71Y-57.46
X200.65Y-76.0
X200.65Y-78.4
X200.94Y-59.43
X201.666Y-76.0
X201.666Y-78.4
X201.892Y-63.05
X202.682Y-76.0
X202.682Y-78.4
X202.908Y-63.05
X203.698Y-76.0
X203.698Y-78.4
X203.924Y-63.05
X204.14Y-58.47
X204.714Y-76.0
X204.714Y-78.4
X204.94Y-63.05
X205.0Y-48.02
X205.018Y-60.8
X205.73Y-76.0
X205.73Y-78.4
X205.956Y-63.05
X206.034Y-60.8
X206.746Y-76.0
X206.746Y-78.4
X206.972Y-63.05
X207.05Y-60.8
X207.762Y-76.0
X207.762Y-78.4
X207.988Y-63.05
X208.066Y-60.8
X208.778Y-76.0
X208.778Y-78.4
X209.004Y-63.05
X209.082Y-60.8
X209.794Y-76.0
X209.794Y-78.4
X210.02Y-63.05
X210.098Y-60.8
X210.81Y-76.0
X210.81Y-78.4
X211.036Y-63.05
X211.114Y-60.8
X211.826Y-76.0
X211.826Y-78.4
X212.052Y-63.05
X212.13Y-60.8
X212.842Y-76.0
X212.842Y-78.4
X213.068Y-63.05
X213.146Y-60.8
X213.858Y-76.0
X213.858Y-78.4
X214.084Y-63.05
X214.162Y-60.8
X214.874Y-76.0
X214.874Y-78.4
X215.1Y-63.05
X215.178Y-60.8
X215.89Y-76.0
X215.89Y-78.4
X216.116Y-63.05
X216.194Y-60.8
X216.906Y-76.0
X216.906Y-78.4
X217.132Y-63.05
X217.21Y-60.8
X217.922Y-76.0
X217.922Y-78.4
X218.148Y-63.05
X218.226Y-60.8
X218.938Y-76.0
X218.938Y-78.4
X219.164Y-63.05
X219.242Y-60.8
X219.954Y-76.0
X219.954Y-78.4
X220.18Y-63.05
X223.1Y-57.6
X223.1Y-66.2
X223.1Y-73.0
X223.1Y-81.6
X223.85Y-57.6
X223.85Y-66.2
X223.85Y-73.0
X223.85Y-81.6
X224.6Y-57.6
X224.6Y-66.2
X224.6Y-73.0
X224.6Y-81.6
X225.35Y-57.6
X225.35Y-66.2
X225.35Y-73.0
X225.35Y-81.6
X226.1Y-57.6
X226.1Y-66.2
X226.1Y-73.0
X226.1Y-81.6
T4
X216.75Y-43.895
X216.75Y-45.895
X218.75Y-43.895
X218.75Y-45.895
X220.75Y-43.895
X220.75Y-45.895
X222.75Y-43.895
X222.75Y-45.895
X224.75Y-43.895
X224.75Y-45.895
M30
