%TF.GenerationSoftware,KiCad,Pcbnew,9.0.4*%
%TF.CreationDate,2025-09-30T16:29:37-05:00*%
%TF.ProjectId,QPA9122S-EVAL,51504139-3132-4325-932d-4556414c2e6b,rev?*%
%TF.SameCoordinates,Original*%
%TF.FileFunction,Copper,L1,Top*%
%TF.FilePolarity,Positive*%
%FSLAX46Y46*%
G04 Gerber Fmt 4.6, Leading zero omitted, Abs format (unit mm)*
G04 Created by KiCad (PCBNEW 9.0.4) date 2025-09-30 16:29:37*
%MOMM*%
%LPD*%
G01*
G04 APERTURE LIST*
G04 Aperture macros list*
%AMRoundRect*
0 Rectangle with rounded corners*
0 $1 Rounding radius*
0 $2 $3 $4 $5 $6 $7 $8 $9 X,Y pos of 4 corners*
0 Add a 4 corners polygon primitive as box body*
4,1,4,$2,$3,$4,$5,$6,$7,$8,$9,$2,$3,0*
0 Add four circle primitives for the rounded corners*
1,1,$1+$1,$2,$3*
1,1,$1+$1,$4,$5*
1,1,$1+$1,$6,$7*
1,1,$1+$1,$8,$9*
0 Add four rect primitives between the rounded corners*
20,1,$1+$1,$2,$3,$4,$5,0*
20,1,$1+$1,$4,$5,$6,$7,0*
20,1,$1+$1,$6,$7,$8,$9,0*
20,1,$1+$1,$8,$9,$2,$3,0*%
G04 Aperture macros list end*
%TA.AperFunction,SMDPad,CuDef*%
%ADD10RoundRect,0.140000X-0.140000X-0.170000X0.140000X-0.170000X0.140000X0.170000X-0.140000X0.170000X0*%
%TD*%
%TA.AperFunction,ComponentPad*%
%ADD11R,0.850000X0.850000*%
%TD*%
%TA.AperFunction,ComponentPad*%
%ADD12C,0.850000*%
%TD*%
%TA.AperFunction,SMDPad,CuDef*%
%ADD13RoundRect,0.135000X0.185000X-0.135000X0.185000X0.135000X-0.185000X0.135000X-0.185000X-0.135000X0*%
%TD*%
%TA.AperFunction,SMDPad,CuDef*%
%ADD14RoundRect,0.140000X0.140000X0.170000X-0.140000X0.170000X-0.140000X-0.170000X0.140000X-0.170000X0*%
%TD*%
%TA.AperFunction,SMDPad,CuDef*%
%ADD15R,5.080000X1.500000*%
%TD*%
%TA.AperFunction,SMDPad,CuDef*%
%ADD16RoundRect,0.147500X0.172500X-0.147500X0.172500X0.147500X-0.172500X0.147500X-0.172500X-0.147500X0*%
%TD*%
%TA.AperFunction,SMDPad,CuDef*%
%ADD17RoundRect,0.135000X-0.185000X0.135000X-0.185000X-0.135000X0.185000X-0.135000X0.185000X0.135000X0*%
%TD*%
%TA.AperFunction,SMDPad,CuDef*%
%ADD18R,0.300000X0.250000*%
%TD*%
%TA.AperFunction,SMDPad,CuDef*%
%ADD19R,0.250000X0.300000*%
%TD*%
%TA.AperFunction,SMDPad,CuDef*%
%ADD20R,1.700000X1.700000*%
%TD*%
%TA.AperFunction,ViaPad*%
%ADD21C,0.600000*%
%TD*%
%TA.AperFunction,Conductor*%
%ADD22C,0.200000*%
%TD*%
%TA.AperFunction,Conductor*%
%ADD23C,0.995680*%
%TD*%
G04 APERTURE END LIST*
D10*
%TO.P,C14,1*%
%TO.N,VCC*%
X122865000Y-89535000D03*
%TO.P,C14,2*%
%TO.N,GND*%
X123825000Y-89535000D03*
%TD*%
%TO.P,C13,1*%
%TO.N,VCC*%
X122865000Y-88200000D03*
%TO.P,C13,2*%
%TO.N,GND*%
X123825000Y-88200000D03*
%TD*%
D11*
%TO.P,J4,1,Pin_1*%
%TO.N,GND*%
X114880000Y-102480000D03*
D12*
%TO.P,J4,2,Pin_2*%
%TO.N,VCC1*%
X115880000Y-102480000D03*
%TD*%
D13*
%TO.P,R9,1*%
%TO.N,VCC1*%
X116205000Y-97665000D03*
%TO.P,R9,2*%
%TO.N,Net-(IC1-VCC1{slash}VCC2)*%
X116205000Y-96645000D03*
%TD*%
D14*
%TO.P,C12,1*%
%TO.N,VCC1*%
X115923000Y-100330000D03*
%TO.P,C12,2*%
%TO.N,GND*%
X114963000Y-100330000D03*
%TD*%
D11*
%TO.P,J3,1,Pin_1*%
%TO.N,GND*%
X122210000Y-83010000D03*
D12*
%TO.P,J3,2,Pin_2*%
%TO.N,VCC*%
X123210000Y-83010000D03*
%TD*%
D11*
%TO.P,J5,1,Pin_1*%
%TO.N,GND*%
X113850000Y-83070000D03*
D12*
%TO.P,J5,2,Pin_2*%
%TO.N,V_PD*%
X114850000Y-83070000D03*
%TD*%
D15*
%TO.P,J2,1,In*%
%TO.N,Net-(J2-In)*%
X145197500Y-93890000D03*
%TO.P,J2,2,Ext*%
%TO.N,GND*%
X145197500Y-89640000D03*
X145197500Y-98140000D03*
%TD*%
D16*
%TO.P,L10,1,1*%
%TO.N,Net-(IC1-RFOUT{slash}VCC3_1)*%
X122555000Y-93980000D03*
%TO.P,L10,2,2*%
%TO.N,VCC*%
X122555000Y-93010000D03*
%TD*%
D10*
%TO.P,C9,1*%
%TO.N,Net-(J1-In)*%
X115245000Y-93980000D03*
%TO.P,C9,2*%
%TO.N,Net-(IC1-RFIN)*%
X116205000Y-93980000D03*
%TD*%
%TO.P,C10,1*%
%TO.N,Net-(IC1-RFOUT{slash}VCC3_1)*%
X123472000Y-93980000D03*
%TO.P,C10,2*%
%TO.N,Net-(J2-In)*%
X124432000Y-93980000D03*
%TD*%
D17*
%TO.P,R4,1*%
%TO.N,VCC*%
X120170000Y-89660000D03*
%TO.P,R4,2*%
%TO.N,Net-(IC1-VBIAS)*%
X120170000Y-90680000D03*
%TD*%
D15*
%TO.P,J7,1,In*%
%TO.N,Net-(J6-In)*%
X93380000Y-108040000D03*
%TO.P,J7,2,Ext*%
%TO.N,GND*%
X93380000Y-112290000D03*
X93380000Y-103790000D03*
%TD*%
%TO.P,J1,1,In*%
%TO.N,Net-(J1-In)*%
X92982500Y-93960000D03*
%TO.P,J1,2,Ext*%
%TO.N,GND*%
X92982500Y-98210000D03*
X92982500Y-89710000D03*
%TD*%
D18*
%TO.P,IC1,1,NC_1*%
%TO.N,GND*%
X118036700Y-93489000D03*
%TO.P,IC1,2,RFIN*%
%TO.N,Net-(IC1-RFIN)*%
X118036700Y-93989000D03*
%TO.P,IC1,3,NC_2*%
%TO.N,GND*%
X118036700Y-94489000D03*
%TO.P,IC1,4,VCC1/VCC2*%
%TO.N,Net-(IC1-VCC1{slash}VCC2)*%
X118036700Y-94989000D03*
D19*
%TO.P,IC1,5,NC_3*%
%TO.N,GND*%
X118556700Y-95509000D03*
%TO.P,IC1,6,NC_4*%
X119056700Y-95509000D03*
%TO.P,IC1,7,NC_5*%
X119556700Y-95509000D03*
%TO.P,IC1,8,NC_6*%
X120056700Y-95509000D03*
D18*
%TO.P,IC1,9,NC_7*%
X120576700Y-94989000D03*
%TO.P,IC1,10,RFOUT/VCC3_1*%
%TO.N,Net-(IC1-RFOUT{slash}VCC3_1)*%
X120576700Y-94489000D03*
%TO.P,IC1,11,RFOUT/VCC3_2*%
X120576700Y-93989000D03*
%TO.P,IC1,12,NC_8*%
%TO.N,GND*%
X120576700Y-93489000D03*
D19*
%TO.P,IC1,13,VBIAS*%
%TO.N,Net-(IC1-VBIAS)*%
X120056700Y-92969000D03*
%TO.P,IC1,14,NC_9*%
%TO.N,GND*%
X119556700Y-92969000D03*
%TO.P,IC1,15,NC_10*%
X119056700Y-92969000D03*
%TO.P,IC1,16,VPD*%
%TO.N,Net-(IC1-VPD)*%
X118556700Y-92969000D03*
D20*
%TO.P,IC1,17,GND*%
%TO.N,GND*%
X119306700Y-94239000D03*
%TD*%
D10*
%TO.P,C22,1*%
%TO.N,VCC*%
X120805000Y-88265000D03*
%TO.P,C22,2*%
%TO.N,GND*%
X121765000Y-88265000D03*
%TD*%
%TO.P,C17,1*%
%TO.N,GND*%
X118900000Y-88265000D03*
%TO.P,C17,2*%
%TO.N,VCC*%
X119860000Y-88265000D03*
%TD*%
D15*
%TO.P,J6,1,In*%
%TO.N,Net-(J6-In)*%
X145137500Y-108090000D03*
%TO.P,J6,2,Ext*%
%TO.N,GND*%
X145137500Y-103840000D03*
X145137500Y-112340000D03*
%TD*%
D14*
%TO.P,C11,1*%
%TO.N,VCC1*%
X115895000Y-99060000D03*
%TO.P,C11,2*%
%TO.N,GND*%
X114935000Y-99060000D03*
%TD*%
D17*
%TO.P,R6,1*%
%TO.N,V_PD*%
X118110000Y-90295000D03*
%TO.P,R6,2*%
%TO.N,Net-(IC1-VPD)*%
X118110000Y-91315000D03*
%TD*%
D21*
%TO.N,GND*%
X135614000Y-106324000D03*
X114998000Y-109890000D03*
X133328000Y-109880000D03*
X126746000Y-92202000D03*
X122618000Y-106334000D03*
X104521000Y-95758000D03*
X135509000Y-95758000D03*
X127232000Y-109880000D03*
X134366000Y-92202000D03*
X133223000Y-95758000D03*
X102997000Y-92202000D03*
X118832850Y-93765150D03*
X105854000Y-106334000D03*
X104521000Y-92202000D03*
X105854000Y-109890000D03*
X110617000Y-92202000D03*
X112712000Y-106334000D03*
X129032000Y-92202000D03*
X123825000Y-89535000D03*
X118046000Y-106334000D03*
X137795000Y-95758000D03*
X111188000Y-106334000D03*
X102740000Y-109890000D03*
X131804000Y-106324000D03*
X134090000Y-109880000D03*
X130280000Y-106324000D03*
X136652000Y-92202000D03*
X130556000Y-92202000D03*
X133328000Y-106324000D03*
X128651000Y-95758000D03*
X118900000Y-88265000D03*
X96139000Y-95758000D03*
X140843000Y-95758000D03*
X105283000Y-95758000D03*
X109093000Y-95758000D03*
X109664000Y-106334000D03*
X124946000Y-109880000D03*
X140948000Y-109880000D03*
X140948000Y-106324000D03*
X136376000Y-109880000D03*
X101216000Y-106334000D03*
X113474000Y-109890000D03*
X136376000Y-106324000D03*
X131318000Y-92202000D03*
X138176000Y-92202000D03*
X108140000Y-109890000D03*
X119785350Y-94717650D03*
X121094000Y-106334000D03*
X116522000Y-109890000D03*
X132461000Y-95758000D03*
X130937000Y-95758000D03*
X137900000Y-109880000D03*
X92357500Y-89730000D03*
X99949000Y-92202000D03*
X118808000Y-109890000D03*
X122618000Y-109890000D03*
X111379000Y-95758000D03*
X100711000Y-92202000D03*
X115760000Y-106334000D03*
X99949000Y-95758000D03*
X141710000Y-109880000D03*
X109855000Y-95758000D03*
X106045000Y-95758000D03*
X133985000Y-95758000D03*
X99187000Y-92202000D03*
X129518000Y-109880000D03*
X116522000Y-106334000D03*
X145297500Y-112320000D03*
X99692000Y-106334000D03*
X130175000Y-95758000D03*
X129518000Y-106324000D03*
X100711000Y-95758000D03*
X102235000Y-92202000D03*
X106616000Y-106334000D03*
X105092000Y-106334000D03*
X100454000Y-109890000D03*
X111188000Y-109890000D03*
X101978000Y-109890000D03*
X135614000Y-109880000D03*
X138938000Y-92202000D03*
X121856000Y-106334000D03*
X114935000Y-99060000D03*
X114236000Y-106334000D03*
X121856000Y-109890000D03*
X124841000Y-95758000D03*
X141224000Y-92202000D03*
X100454000Y-106334000D03*
X145197500Y-89640000D03*
X92357500Y-98230000D03*
X124184000Y-109880000D03*
X145297500Y-103820000D03*
X114998000Y-106334000D03*
X137138000Y-109880000D03*
X127127000Y-95758000D03*
X114427000Y-95758000D03*
X99692000Y-109890000D03*
X120332000Y-109890000D03*
X136271000Y-95758000D03*
X107378000Y-106334000D03*
X119570000Y-106334000D03*
X98930000Y-109890000D03*
X139424000Y-106324000D03*
X133604000Y-92202000D03*
X99187000Y-95758000D03*
X126470000Y-106324000D03*
X145197500Y-98140000D03*
X112712000Y-109890000D03*
X114427000Y-92202000D03*
X124079000Y-95758000D03*
X128270000Y-92202000D03*
X120332000Y-106334000D03*
X125222000Y-92202000D03*
X131042000Y-106324000D03*
X123317000Y-95758000D03*
X139700000Y-92202000D03*
X96139000Y-92202000D03*
X140186000Y-106324000D03*
X104330000Y-109890000D03*
X106807000Y-92202000D03*
X113665000Y-92202000D03*
X127994000Y-106324000D03*
X96901000Y-92202000D03*
X108140000Y-106334000D03*
X108331000Y-92202000D03*
X128756000Y-109880000D03*
X132566000Y-106324000D03*
X102235000Y-95758000D03*
X137414000Y-92202000D03*
X102740000Y-106334000D03*
X112903000Y-95758000D03*
X137900000Y-106324000D03*
X119306700Y-94239000D03*
X138557000Y-95758000D03*
X108902000Y-109890000D03*
X127994000Y-109880000D03*
X98425000Y-95758000D03*
X129413000Y-95758000D03*
X127232000Y-106324000D03*
X110426000Y-106334000D03*
X131804000Y-109880000D03*
X135890000Y-92202000D03*
X118774350Y-94771350D03*
X109855000Y-92202000D03*
X113665000Y-95758000D03*
X111950000Y-106334000D03*
X132080000Y-92202000D03*
X124946000Y-106324000D03*
X115760000Y-109890000D03*
X140186000Y-109880000D03*
X119790350Y-93755350D03*
X111379000Y-92202000D03*
X101978000Y-106334000D03*
X111950000Y-109890000D03*
X96901000Y-95758000D03*
X125603000Y-95758000D03*
X134852000Y-109880000D03*
X123825000Y-88200000D03*
X108331000Y-95758000D03*
X140081000Y-95758000D03*
X121765000Y-88265000D03*
X131042000Y-109880000D03*
X124460000Y-92202000D03*
X97663000Y-92202000D03*
X104330000Y-106334000D03*
X139319000Y-95758000D03*
X103502000Y-109890000D03*
X141710000Y-106324000D03*
X107569000Y-95758000D03*
X114963000Y-100330000D03*
X93380000Y-103790000D03*
X140462000Y-92202000D03*
X110426000Y-109890000D03*
X98930000Y-106334000D03*
X117284000Y-106334000D03*
X128756000Y-106324000D03*
X102997000Y-95758000D03*
X106045000Y-92202000D03*
X101216000Y-109890000D03*
X110617000Y-95758000D03*
X125708000Y-106324000D03*
X141605000Y-95758000D03*
X139424000Y-109880000D03*
X138662000Y-109880000D03*
X117284000Y-109890000D03*
X101473000Y-92202000D03*
X134747000Y-95758000D03*
X134852000Y-106324000D03*
X123422000Y-106324000D03*
X137138000Y-106324000D03*
X97663000Y-95758000D03*
X101473000Y-95758000D03*
X138662000Y-106324000D03*
X126365000Y-95758000D03*
X132566000Y-109880000D03*
X103759000Y-95758000D03*
X113474000Y-106334000D03*
X109664000Y-109890000D03*
X93380000Y-112290000D03*
X127889000Y-95758000D03*
X103759000Y-92202000D03*
X114236000Y-109890000D03*
X98425000Y-92202000D03*
X112141000Y-95758000D03*
X125984000Y-92202000D03*
X123422000Y-109880000D03*
X125708000Y-109880000D03*
X118808000Y-106334000D03*
X109093000Y-92202000D03*
X118046000Y-109890000D03*
X108902000Y-106334000D03*
X107569000Y-92202000D03*
X105092000Y-109890000D03*
X112903000Y-92202000D03*
X129794000Y-92202000D03*
X134090000Y-106324000D03*
X106807000Y-95758000D03*
X132842000Y-92202000D03*
X107378000Y-109890000D03*
X135128000Y-92202000D03*
X98110000Y-106340000D03*
X131699000Y-95758000D03*
X119570000Y-109890000D03*
X121094000Y-109890000D03*
X130280000Y-109880000D03*
X124184000Y-106324000D03*
X98110000Y-109896000D03*
X112141000Y-92202000D03*
X137033000Y-95758000D03*
X105283000Y-92202000D03*
X127508000Y-92202000D03*
X126470000Y-109880000D03*
X103502000Y-106334000D03*
X106616000Y-109890000D03*
%TD*%
D22*
%TO.N,Net-(IC1-RFIN)*%
X118027700Y-93980000D02*
X118036700Y-93989000D01*
X116205000Y-93980000D02*
X118027700Y-93980000D01*
D23*
%TO.N,Net-(J1-In)*%
X115245000Y-93980000D02*
X92357500Y-93980000D01*
D22*
%TO.N,Net-(IC1-RFOUT{slash}VCC3_1)*%
X120576700Y-94489000D02*
X120576700Y-93989000D01*
X122546000Y-93989000D02*
X122555000Y-93980000D01*
X120576700Y-93989000D02*
X122546000Y-93989000D01*
X122555000Y-93980000D02*
X123472000Y-93980000D01*
D23*
%TO.N,Net-(J2-In)*%
X124432000Y-93980000D02*
X147320000Y-93980000D01*
D22*
%TO.N,GND*%
X118036700Y-93489000D02*
X118556700Y-93489000D01*
X119556700Y-93989000D02*
X119306700Y-94239000D01*
X120056700Y-95509000D02*
X120056700Y-94989000D01*
X119056700Y-94489000D02*
X119306700Y-94239000D01*
X118556700Y-95509000D02*
X118556700Y-94989000D01*
X120056700Y-93489000D02*
X119790350Y-93755350D01*
X119056700Y-95509000D02*
X119056700Y-94489000D01*
X118774350Y-94771350D02*
X119306700Y-94239000D01*
X119790350Y-93755350D02*
X119306700Y-94239000D01*
X119556700Y-95509000D02*
X119556700Y-94489000D01*
X119785350Y-94717650D02*
X119306700Y-94239000D01*
X118556700Y-94989000D02*
X118774350Y-94771350D01*
X118556700Y-93489000D02*
X118832850Y-93765150D01*
X120576700Y-94989000D02*
X120056700Y-94989000D01*
X119056700Y-93989000D02*
X119306700Y-94239000D01*
X119056700Y-92969000D02*
X119056700Y-93989000D01*
X120056700Y-94989000D02*
X119785350Y-94717650D01*
X120576700Y-93489000D02*
X120056700Y-93489000D01*
X118832850Y-93765150D02*
X119306700Y-94239000D01*
X118036700Y-94489000D02*
X119056700Y-94489000D01*
X119556700Y-92969000D02*
X119556700Y-93989000D01*
X119556700Y-94489000D02*
X119306700Y-94239000D01*
%TO.N,VCC1*%
X115895000Y-99060000D02*
X115895000Y-100302000D01*
X115923000Y-102437000D02*
X115880000Y-102480000D01*
X116205000Y-98750000D02*
X115895000Y-99060000D01*
X115895000Y-100302000D02*
X115923000Y-100330000D01*
X115880000Y-100373000D02*
X115923000Y-100330000D01*
X116205000Y-97665000D02*
X116205000Y-98750000D01*
X115923000Y-100330000D02*
X115923000Y-102437000D01*
%TO.N,VCC*%
X122865000Y-89535000D02*
X122865000Y-88200000D01*
X123210000Y-83010000D02*
X123210000Y-87855000D01*
X120805000Y-88265000D02*
X119860000Y-88265000D01*
X123210000Y-87855000D02*
X122865000Y-88200000D01*
X120170000Y-89660000D02*
X120170000Y-88575000D01*
X120170000Y-88575000D02*
X119860000Y-88265000D01*
X120170000Y-89660000D02*
X122740000Y-89660000D01*
X122740000Y-89660000D02*
X122865000Y-89535000D01*
X122555000Y-89845000D02*
X122865000Y-89535000D01*
X122555000Y-93010000D02*
X122555000Y-89845000D01*
%TO.N,Net-(IC1-VPD)*%
X118110000Y-91315000D02*
X118110000Y-92522300D01*
X118110000Y-92522300D02*
X118556700Y-92969000D01*
%TO.N,Net-(IC1-VCC1{slash}VCC2)*%
X116380700Y-96645000D02*
X118036700Y-94989000D01*
X116205000Y-96645000D02*
X116380700Y-96645000D01*
%TO.N,Net-(IC1-VBIAS)*%
X120170000Y-92855700D02*
X120056700Y-92969000D01*
X120170000Y-90680000D02*
X120170000Y-92855700D01*
%TO.N,V_PD*%
X114850000Y-87035000D02*
X118110000Y-90295000D01*
X114850000Y-83070000D02*
X114850000Y-87035000D01*
D23*
%TO.N,Net-(J6-In)*%
X145297500Y-108070000D02*
X93410000Y-108070000D01*
D22*
X93410000Y-108070000D02*
X93380000Y-108040000D01*
%TD*%
%TA.AperFunction,Conductor*%
%TO.N,GND*%
G36*
X115360639Y-95015685D02*
G01*
X115406394Y-95068489D01*
X115417600Y-95120000D01*
X115417600Y-96259302D01*
X115415048Y-96277230D01*
X115413154Y-96292209D01*
X115412927Y-96293031D01*
X115379371Y-96408534D01*
X115378664Y-96417512D01*
X115375528Y-96428907D01*
X115338758Y-96488319D01*
X115275705Y-96518420D01*
X115255974Y-96520000D01*
X95780400Y-96520000D01*
X95713361Y-96500315D01*
X95667606Y-96447511D01*
X95656400Y-96396000D01*
X95656400Y-95288871D01*
X95676085Y-95221832D01*
X95728889Y-95176077D01*
X95737068Y-95172689D01*
X95768699Y-95160891D01*
X95768699Y-95160890D01*
X95768704Y-95160889D01*
X95885761Y-95073261D01*
X95906402Y-95045688D01*
X95962336Y-95003818D01*
X96005668Y-94996000D01*
X115293600Y-94996000D01*
X115360639Y-95015685D01*
G37*
%TD.AperFunction*%
%TD*%
%TA.AperFunction,Conductor*%
%TO.N,GND*%
G36*
X142311116Y-91459685D02*
G01*
X142356871Y-91512489D01*
X142368077Y-91564000D01*
X142368077Y-92659394D01*
X142361019Y-92683428D01*
X142358025Y-92708301D01*
X142349725Y-92721892D01*
X142348392Y-92726433D01*
X142344208Y-92730926D01*
X142339631Y-92738423D01*
X142330215Y-92749807D01*
X142294239Y-92776739D01*
X142206611Y-92893796D01*
X142202900Y-92903744D01*
X142190259Y-92919029D01*
X142132364Y-92958143D01*
X142094705Y-92964000D01*
X124000877Y-92964000D01*
X123933838Y-92944315D01*
X123888083Y-92891511D01*
X123876877Y-92840000D01*
X123876877Y-91564000D01*
X123896562Y-91496961D01*
X123949366Y-91451206D01*
X124000877Y-91440000D01*
X142244077Y-91440000D01*
X142311116Y-91459685D01*
G37*
%TD.AperFunction*%
%TD*%
%TA.AperFunction,Conductor*%
%TO.N,GND*%
G36*
X142128835Y-105555685D02*
G01*
X142174590Y-105608489D01*
X142185796Y-105660000D01*
X142185796Y-106936000D01*
X142166111Y-107003039D01*
X142113307Y-107048794D01*
X142061796Y-107060000D01*
X97078596Y-107060000D01*
X97011557Y-107040315D01*
X96965802Y-106987511D01*
X96954596Y-106936000D01*
X96954596Y-105660000D01*
X96974281Y-105592961D01*
X97027085Y-105547206D01*
X97078596Y-105536000D01*
X142061796Y-105536000D01*
X142128835Y-105555685D01*
G37*
%TD.AperFunction*%
%TD*%
%TA.AperFunction,Conductor*%
%TO.N,GND*%
G36*
X142233839Y-95015685D02*
G01*
X142279594Y-95068489D01*
X142290800Y-95120000D01*
X142290800Y-96396000D01*
X142271115Y-96463039D01*
X142218311Y-96508794D01*
X142166800Y-96520000D01*
X122653600Y-96520000D01*
X122586561Y-96500315D01*
X122540806Y-96447511D01*
X122529600Y-96396000D01*
X122529600Y-95120000D01*
X122549285Y-95052961D01*
X122602089Y-95007206D01*
X122653600Y-94996000D01*
X142166800Y-94996000D01*
X142233839Y-95015685D01*
G37*
%TD.AperFunction*%
%TD*%
%TA.AperFunction,Conductor*%
%TO.N,GND*%
G36*
X142116030Y-109099685D02*
G01*
X142161785Y-109152489D01*
X142172991Y-109204000D01*
X142172991Y-110480000D01*
X142153306Y-110547039D01*
X142100502Y-110592794D01*
X142048991Y-110604000D01*
X97034991Y-110604000D01*
X96967952Y-110584315D01*
X96922197Y-110531511D01*
X96910991Y-110480000D01*
X96910991Y-109204000D01*
X96930676Y-109136961D01*
X96983480Y-109091206D01*
X97034991Y-109080000D01*
X142048991Y-109080000D01*
X142116030Y-109099685D01*
G37*
%TD.AperFunction*%
%TD*%
%TA.AperFunction,Conductor*%
%TO.N,GND*%
G36*
X115437916Y-91459685D02*
G01*
X115483671Y-91512489D01*
X115494877Y-91564000D01*
X115494877Y-92840000D01*
X115475192Y-92907039D01*
X115422388Y-92952794D01*
X115370877Y-92964000D01*
X96035611Y-92964000D01*
X95968572Y-92944315D01*
X95936344Y-92914310D01*
X95885762Y-92846740D01*
X95876758Y-92840000D01*
X95768704Y-92759111D01*
X95768701Y-92759109D01*
X95763539Y-92757184D01*
X95707607Y-92715311D01*
X95683193Y-92649845D01*
X95682877Y-92641004D01*
X95682877Y-91564000D01*
X95702562Y-91496961D01*
X95755366Y-91451206D01*
X95806877Y-91440000D01*
X115370877Y-91440000D01*
X115437916Y-91459685D01*
G37*
%TD.AperFunction*%
%TD*%
M02*
