%TF.GenerationSoftware,KiCad,Pcbnew,9.0.4*%
%TF.CreationDate,2025-09-30T16:29:38-05:00*%
%TF.ProjectId,QPA9122S-EVAL,51504139-3132-4325-932d-4556414c2e6b,rev?*%
%TF.SameCoordinates,Original*%
%TF.FileFunction,Copper,L2,Bot*%
%TF.FilePolarity,Positive*%
%FSLAX46Y46*%
G04 Gerber Fmt 4.6, Leading zero omitted, Abs format (unit mm)*
G04 Created by KiCad (PCBNEW 9.0.4) date 2025-09-30 16:29:38*
%MOMM*%
%LPD*%
G01*
G04 APERTURE LIST*
%TA.AperFunction,Conductor*%
%ADD10C,0.200000*%
%TD*%
%TA.AperFunction,ComponentPad*%
%ADD11R,0.850000X0.850000*%
%TD*%
%TA.AperFunction,ComponentPad*%
%ADD12C,0.850000*%
%TD*%
%TA.AperFunction,SMDPad,CuDef*%
%ADD13R,5.080000X1.500000*%
%TD*%
%TA.AperFunction,ViaPad*%
%ADD14C,0.600000*%
%TD*%
G04 APERTURE END LIST*
%TO.N,GND*%
D10*
X90805000Y-82042000D02*
X147574000Y-82042000D01*
X147574000Y-113310000D01*
X90805000Y-113310000D01*
X90805000Y-82042000D01*
%TD*%
D11*
%TO.P,J4,1,Pin_1*%
%TO.N,GND*%
X114880000Y-102480000D03*
D12*
%TO.P,J4,2,Pin_2*%
%TO.N,VCC1*%
X115880000Y-102480000D03*
%TD*%
D11*
%TO.P,J3,1,Pin_1*%
%TO.N,GND*%
X122210000Y-83010000D03*
D12*
%TO.P,J3,2,Pin_2*%
%TO.N,VCC*%
X123210000Y-83010000D03*
%TD*%
D11*
%TO.P,J5,1,Pin_1*%
%TO.N,GND*%
X113850000Y-83070000D03*
D12*
%TO.P,J5,2,Pin_2*%
%TO.N,V_PD*%
X114850000Y-83070000D03*
%TD*%
D13*
%TO.P,J2,2,Ext*%
%TO.N,GND*%
X145197500Y-89640000D03*
X145197500Y-98140000D03*
%TD*%
%TO.P,J7,2,Ext*%
%TO.N,GND*%
X93380000Y-112290000D03*
X93380000Y-103790000D03*
%TD*%
%TO.P,J1,2,Ext*%
%TO.N,GND*%
X92982500Y-98210000D03*
X92982500Y-89710000D03*
%TD*%
%TO.P,J6,2,Ext*%
%TO.N,GND*%
X145137500Y-103840000D03*
X145137500Y-112340000D03*
%TD*%
D14*
%TO.N,GND*%
X135614000Y-106324000D03*
X114998000Y-109890000D03*
X133328000Y-109880000D03*
X126746000Y-92202000D03*
X122618000Y-106334000D03*
X104521000Y-95758000D03*
X135509000Y-95758000D03*
X127232000Y-109880000D03*
X134366000Y-92202000D03*
X133223000Y-95758000D03*
X102997000Y-92202000D03*
X118832850Y-93765150D03*
X105854000Y-106334000D03*
X104521000Y-92202000D03*
X105854000Y-109890000D03*
X110617000Y-92202000D03*
X112712000Y-106334000D03*
X129032000Y-92202000D03*
X123825000Y-89535000D03*
X118046000Y-106334000D03*
X137795000Y-95758000D03*
X111188000Y-106334000D03*
X102740000Y-109890000D03*
X131804000Y-106324000D03*
X134090000Y-109880000D03*
X130280000Y-106324000D03*
X136652000Y-92202000D03*
X130556000Y-92202000D03*
X133328000Y-106324000D03*
X128651000Y-95758000D03*
X118900000Y-88265000D03*
X96139000Y-95758000D03*
X140843000Y-95758000D03*
X105283000Y-95758000D03*
X109093000Y-95758000D03*
X109664000Y-106334000D03*
X124946000Y-109880000D03*
X140948000Y-109880000D03*
X140948000Y-106324000D03*
X136376000Y-109880000D03*
X101216000Y-106334000D03*
X113474000Y-109890000D03*
X136376000Y-106324000D03*
X131318000Y-92202000D03*
X138176000Y-92202000D03*
X108140000Y-109890000D03*
X119785350Y-94717650D03*
X121094000Y-106334000D03*
X116522000Y-109890000D03*
X132461000Y-95758000D03*
X130937000Y-95758000D03*
X137900000Y-109880000D03*
X92357500Y-89730000D03*
X99949000Y-92202000D03*
X118808000Y-109890000D03*
X122618000Y-109890000D03*
X111379000Y-95758000D03*
X100711000Y-92202000D03*
X115760000Y-106334000D03*
X99949000Y-95758000D03*
X141710000Y-109880000D03*
X109855000Y-95758000D03*
X106045000Y-95758000D03*
X133985000Y-95758000D03*
X99187000Y-92202000D03*
X129518000Y-109880000D03*
X116522000Y-106334000D03*
X145297500Y-112320000D03*
X99692000Y-106334000D03*
X130175000Y-95758000D03*
X129518000Y-106324000D03*
X100711000Y-95758000D03*
X102235000Y-92202000D03*
X106616000Y-106334000D03*
X105092000Y-106334000D03*
X100454000Y-109890000D03*
X111188000Y-109890000D03*
X101978000Y-109890000D03*
X135614000Y-109880000D03*
X138938000Y-92202000D03*
X121856000Y-106334000D03*
X114935000Y-99060000D03*
X114236000Y-106334000D03*
X121856000Y-109890000D03*
X124841000Y-95758000D03*
X141224000Y-92202000D03*
X100454000Y-106334000D03*
X145197500Y-89640000D03*
X92357500Y-98230000D03*
X124184000Y-109880000D03*
X145297500Y-103820000D03*
X114998000Y-106334000D03*
X137138000Y-109880000D03*
X127127000Y-95758000D03*
X114427000Y-95758000D03*
X99692000Y-109890000D03*
X120332000Y-109890000D03*
X136271000Y-95758000D03*
X107378000Y-106334000D03*
X119570000Y-106334000D03*
X98930000Y-109890000D03*
X139424000Y-106324000D03*
X133604000Y-92202000D03*
X99187000Y-95758000D03*
X126470000Y-106324000D03*
X145197500Y-98140000D03*
X112712000Y-109890000D03*
X114427000Y-92202000D03*
X124079000Y-95758000D03*
X128270000Y-92202000D03*
X120332000Y-106334000D03*
X125222000Y-92202000D03*
X131042000Y-106324000D03*
X123317000Y-95758000D03*
X139700000Y-92202000D03*
X96139000Y-92202000D03*
X140186000Y-106324000D03*
X104330000Y-109890000D03*
X106807000Y-92202000D03*
X113665000Y-92202000D03*
X127994000Y-106324000D03*
X96901000Y-92202000D03*
X108140000Y-106334000D03*
X108331000Y-92202000D03*
X128756000Y-109880000D03*
X132566000Y-106324000D03*
X102235000Y-95758000D03*
X137414000Y-92202000D03*
X102740000Y-106334000D03*
X112903000Y-95758000D03*
X137900000Y-106324000D03*
X119306700Y-94239000D03*
X138557000Y-95758000D03*
X108902000Y-109890000D03*
X127994000Y-109880000D03*
X98425000Y-95758000D03*
X129413000Y-95758000D03*
X127232000Y-106324000D03*
X110426000Y-106334000D03*
X131804000Y-109880000D03*
X135890000Y-92202000D03*
X118774350Y-94771350D03*
X109855000Y-92202000D03*
X113665000Y-95758000D03*
X111950000Y-106334000D03*
X132080000Y-92202000D03*
X124946000Y-106324000D03*
X115760000Y-109890000D03*
X140186000Y-109880000D03*
X119790350Y-93755350D03*
X111379000Y-92202000D03*
X101978000Y-106334000D03*
X111950000Y-109890000D03*
X96901000Y-95758000D03*
X125603000Y-95758000D03*
X134852000Y-109880000D03*
X123825000Y-88200000D03*
X108331000Y-95758000D03*
X140081000Y-95758000D03*
X121765000Y-88265000D03*
X131042000Y-109880000D03*
X124460000Y-92202000D03*
X97663000Y-92202000D03*
X104330000Y-106334000D03*
X139319000Y-95758000D03*
X103502000Y-109890000D03*
X141710000Y-106324000D03*
X107569000Y-95758000D03*
X114963000Y-100330000D03*
X93380000Y-103790000D03*
X140462000Y-92202000D03*
X110426000Y-109890000D03*
X98930000Y-106334000D03*
X117284000Y-106334000D03*
X128756000Y-106324000D03*
X102997000Y-95758000D03*
X106045000Y-92202000D03*
X101216000Y-109890000D03*
X110617000Y-95758000D03*
X125708000Y-106324000D03*
X141605000Y-95758000D03*
X139424000Y-109880000D03*
X138662000Y-109880000D03*
X117284000Y-109890000D03*
X101473000Y-92202000D03*
X134747000Y-95758000D03*
X134852000Y-106324000D03*
X123422000Y-106324000D03*
X137138000Y-106324000D03*
X97663000Y-95758000D03*
X101473000Y-95758000D03*
X138662000Y-106324000D03*
X126365000Y-95758000D03*
X132566000Y-109880000D03*
X103759000Y-95758000D03*
X113474000Y-106334000D03*
X109664000Y-109890000D03*
X93380000Y-112290000D03*
X127889000Y-95758000D03*
X103759000Y-92202000D03*
X114236000Y-109890000D03*
X98425000Y-92202000D03*
X112141000Y-95758000D03*
X125984000Y-92202000D03*
X123422000Y-109880000D03*
X125708000Y-109880000D03*
X118808000Y-106334000D03*
X109093000Y-92202000D03*
X118046000Y-109890000D03*
X108902000Y-106334000D03*
X107569000Y-92202000D03*
X105092000Y-109890000D03*
X112903000Y-92202000D03*
X129794000Y-92202000D03*
X134090000Y-106324000D03*
X106807000Y-95758000D03*
X132842000Y-92202000D03*
X107378000Y-109890000D03*
X135128000Y-92202000D03*
X98110000Y-106340000D03*
X131699000Y-95758000D03*
X119570000Y-109890000D03*
X121094000Y-109890000D03*
X130280000Y-109880000D03*
X124184000Y-106324000D03*
X98110000Y-109896000D03*
X112141000Y-92202000D03*
X137033000Y-95758000D03*
X105283000Y-92202000D03*
X127508000Y-92202000D03*
X126470000Y-109880000D03*
X103502000Y-106334000D03*
X106616000Y-109890000D03*
%TD*%
%TA.AperFunction,Conductor*%
%TO.N,GND*%
G36*
X113090655Y-82061685D02*
G01*
X113136410Y-82114489D01*
X113146354Y-82183647D01*
X113117329Y-82247203D01*
X113097927Y-82265267D01*
X113067808Y-82287813D01*
X112981649Y-82402906D01*
X112981645Y-82402913D01*
X112931403Y-82537620D01*
X112931401Y-82537627D01*
X112925000Y-82597155D01*
X112925000Y-82820000D01*
X113726000Y-82820000D01*
X113769461Y-82832761D01*
X113708386Y-82858060D01*
X113638060Y-82928386D01*
X113600000Y-83020272D01*
X113600000Y-83119728D01*
X113638060Y-83211614D01*
X113708386Y-83281940D01*
X113800272Y-83320000D01*
X113899728Y-83320000D01*
X113951805Y-83298429D01*
X113960065Y-83339952D01*
X113960068Y-83339962D01*
X114029829Y-83508382D01*
X114029836Y-83508394D01*
X114079102Y-83582125D01*
X114099980Y-83648802D01*
X114100000Y-83651016D01*
X114100000Y-83995000D01*
X114322828Y-83995000D01*
X114322844Y-83994999D01*
X114382372Y-83988598D01*
X114382376Y-83988597D01*
X114477088Y-83953272D01*
X114546780Y-83948288D01*
X114567872Y-83954892D01*
X114580042Y-83959933D01*
X114580046Y-83959933D01*
X114580047Y-83959934D01*
X114758843Y-83995500D01*
X114758846Y-83995500D01*
X114941156Y-83995500D01*
X115061445Y-83971572D01*
X115119958Y-83959933D01*
X115264814Y-83899932D01*
X115288387Y-83890168D01*
X115288391Y-83890166D01*
X115378187Y-83830166D01*
X115439972Y-83788883D01*
X115568883Y-83659972D01*
X115647456Y-83542379D01*
X115670166Y-83508391D01*
X115670168Y-83508387D01*
X115680748Y-83482844D01*
X121285000Y-83482844D01*
X121291401Y-83542372D01*
X121291403Y-83542379D01*
X121341645Y-83677086D01*
X121341649Y-83677093D01*
X121427809Y-83792187D01*
X121427812Y-83792190D01*
X121542906Y-83878350D01*
X121542913Y-83878354D01*
X121677620Y-83928596D01*
X121677627Y-83928598D01*
X121737155Y-83934999D01*
X121737172Y-83935000D01*
X121960000Y-83935000D01*
X121960000Y-83260000D01*
X121285000Y-83260000D01*
X121285000Y-83482844D01*
X115680748Y-83482844D01*
X115739931Y-83339962D01*
X115739933Y-83339958D01*
X115775500Y-83161154D01*
X115775500Y-82978846D01*
X115775500Y-82978843D01*
X115739934Y-82800047D01*
X115739933Y-82800046D01*
X115739933Y-82800042D01*
X115723347Y-82760000D01*
X115670168Y-82631612D01*
X115670166Y-82631608D01*
X115568886Y-82480032D01*
X115568880Y-82480024D01*
X115439974Y-82351118D01*
X115390352Y-82317962D01*
X115317227Y-82269101D01*
X115272422Y-82215491D01*
X115263715Y-82146166D01*
X115293869Y-82083138D01*
X115353312Y-82046418D01*
X115386118Y-82042000D01*
X121319187Y-82042000D01*
X121386226Y-82061685D01*
X121431981Y-82114489D01*
X121441925Y-82183647D01*
X121418453Y-82240311D01*
X121341649Y-82342906D01*
X121341645Y-82342913D01*
X121291403Y-82477620D01*
X121291401Y-82477627D01*
X121285000Y-82537155D01*
X121285000Y-82760000D01*
X122086000Y-82760000D01*
X122129461Y-82772761D01*
X122068386Y-82798060D01*
X121998060Y-82868386D01*
X121960000Y-82960272D01*
X121960000Y-83059728D01*
X121998060Y-83151614D01*
X122068386Y-83221940D01*
X122160272Y-83260000D01*
X122259728Y-83260000D01*
X122311805Y-83238429D01*
X122320065Y-83279952D01*
X122320068Y-83279962D01*
X122389829Y-83448382D01*
X122389836Y-83448394D01*
X122439102Y-83522125D01*
X122459980Y-83588802D01*
X122460000Y-83591016D01*
X122460000Y-83935000D01*
X122682828Y-83935000D01*
X122682844Y-83934999D01*
X122742372Y-83928598D01*
X122742376Y-83928597D01*
X122837088Y-83893272D01*
X122906780Y-83888288D01*
X122927872Y-83894892D01*
X122940042Y-83899933D01*
X122940046Y-83899933D01*
X122940047Y-83899934D01*
X123118843Y-83935500D01*
X123118846Y-83935500D01*
X123301156Y-83935500D01*
X123421445Y-83911572D01*
X123479958Y-83899933D01*
X123648389Y-83830167D01*
X123648391Y-83830166D01*
X123723672Y-83779864D01*
X123799972Y-83728883D01*
X123928883Y-83599972D01*
X123990075Y-83508391D01*
X124030166Y-83448391D01*
X124030168Y-83448387D01*
X124099931Y-83279962D01*
X124099933Y-83279958D01*
X124127278Y-83142489D01*
X124135500Y-83101156D01*
X124135500Y-82918843D01*
X124099934Y-82740047D01*
X124099933Y-82740046D01*
X124099933Y-82740042D01*
X124055020Y-82631611D01*
X124030168Y-82571612D01*
X124030166Y-82571608D01*
X123928886Y-82420032D01*
X123928880Y-82420024D01*
X123799974Y-82291118D01*
X123784240Y-82280605D01*
X123767024Y-82269102D01*
X123722220Y-82215491D01*
X123713512Y-82146166D01*
X123743666Y-82083138D01*
X123803108Y-82046419D01*
X123835915Y-82042000D01*
X147450000Y-82042000D01*
X147517039Y-82061685D01*
X147562794Y-82114489D01*
X147574000Y-82166000D01*
X147574000Y-88266000D01*
X147554315Y-88333039D01*
X147501511Y-88378794D01*
X147450000Y-88390000D01*
X145447500Y-88390000D01*
X145447500Y-90890000D01*
X147450000Y-90890000D01*
X147517039Y-90909685D01*
X147562794Y-90962489D01*
X147574000Y-91014000D01*
X147574000Y-96766000D01*
X147554315Y-96833039D01*
X147501511Y-96878794D01*
X147450000Y-96890000D01*
X145447500Y-96890000D01*
X145447500Y-99390000D01*
X147450000Y-99390000D01*
X147517039Y-99409685D01*
X147562794Y-99462489D01*
X147574000Y-99514000D01*
X147574000Y-102466000D01*
X147554315Y-102533039D01*
X147501511Y-102578794D01*
X147450000Y-102590000D01*
X145387500Y-102590000D01*
X145387500Y-105090000D01*
X147450000Y-105090000D01*
X147517039Y-105109685D01*
X147562794Y-105162489D01*
X147574000Y-105214000D01*
X147574000Y-110966000D01*
X147554315Y-111033039D01*
X147501511Y-111078794D01*
X147450000Y-111090000D01*
X145387500Y-111090000D01*
X145387500Y-112216000D01*
X145367815Y-112283039D01*
X145315011Y-112328794D01*
X145263500Y-112340000D01*
X145137500Y-112340000D01*
X145137500Y-112466000D01*
X145117815Y-112533039D01*
X145065011Y-112578794D01*
X145013500Y-112590000D01*
X142097500Y-112590000D01*
X142097500Y-113137828D01*
X142103563Y-113194224D01*
X142091157Y-113262984D01*
X142043546Y-113314121D01*
X141980749Y-113331478D01*
X96443671Y-113506346D01*
X96376557Y-113486919D01*
X96330599Y-113434291D01*
X96320390Y-113365171D01*
X96343930Y-113308034D01*
X96363352Y-113282090D01*
X96363354Y-113282086D01*
X96413596Y-113147379D01*
X96413598Y-113147372D01*
X96419999Y-113087844D01*
X96420000Y-113087827D01*
X96420000Y-112540000D01*
X93504000Y-112540000D01*
X93436961Y-112520315D01*
X93391206Y-112467511D01*
X93380000Y-112416000D01*
X93380000Y-112290000D01*
X93254000Y-112290000D01*
X93186961Y-112270315D01*
X93141206Y-112217511D01*
X93130000Y-112166000D01*
X93130000Y-112040000D01*
X93630000Y-112040000D01*
X96420000Y-112040000D01*
X96420000Y-111542155D01*
X142097500Y-111542155D01*
X142097500Y-112090000D01*
X144887500Y-112090000D01*
X144887500Y-111090000D01*
X142549655Y-111090000D01*
X142490127Y-111096401D01*
X142490120Y-111096403D01*
X142355413Y-111146645D01*
X142355406Y-111146649D01*
X142240312Y-111232809D01*
X142240309Y-111232812D01*
X142154149Y-111347906D01*
X142154145Y-111347913D01*
X142103903Y-111482620D01*
X142103901Y-111482627D01*
X142097500Y-111542155D01*
X96420000Y-111542155D01*
X96420000Y-111492172D01*
X96419999Y-111492155D01*
X96413598Y-111432627D01*
X96413596Y-111432620D01*
X96363354Y-111297913D01*
X96363350Y-111297906D01*
X96277190Y-111182812D01*
X96277187Y-111182809D01*
X96162093Y-111096649D01*
X96162086Y-111096645D01*
X96027379Y-111046403D01*
X96027372Y-111046401D01*
X95967844Y-111040000D01*
X93630000Y-111040000D01*
X93630000Y-112040000D01*
X93130000Y-112040000D01*
X93130000Y-111040000D01*
X90929000Y-111040000D01*
X90861961Y-111020315D01*
X90816206Y-110967511D01*
X90805000Y-110916000D01*
X90805000Y-105164000D01*
X90824685Y-105096961D01*
X90877489Y-105051206D01*
X90929000Y-105040000D01*
X93130000Y-105040000D01*
X93630000Y-105040000D01*
X95967828Y-105040000D01*
X95967844Y-105039999D01*
X96027372Y-105033598D01*
X96027379Y-105033596D01*
X96162086Y-104983354D01*
X96162093Y-104983350D01*
X96277187Y-104897190D01*
X96277190Y-104897187D01*
X96363350Y-104782093D01*
X96363354Y-104782086D01*
X96413596Y-104647379D01*
X96413598Y-104647372D01*
X96414623Y-104637844D01*
X142097500Y-104637844D01*
X142103901Y-104697372D01*
X142103903Y-104697379D01*
X142154145Y-104832086D01*
X142154149Y-104832093D01*
X142240309Y-104947187D01*
X142240312Y-104947190D01*
X142355406Y-105033350D01*
X142355413Y-105033354D01*
X142490120Y-105083596D01*
X142490127Y-105083598D01*
X142549655Y-105089999D01*
X142549672Y-105090000D01*
X144887500Y-105090000D01*
X144887500Y-104090000D01*
X142097500Y-104090000D01*
X142097500Y-104637844D01*
X96414623Y-104637844D01*
X96419999Y-104587844D01*
X96420000Y-104587827D01*
X96420000Y-104040000D01*
X93630000Y-104040000D01*
X93630000Y-105040000D01*
X93130000Y-105040000D01*
X93130000Y-103540000D01*
X93630000Y-103540000D01*
X96420000Y-103540000D01*
X96420000Y-102992172D01*
X96419999Y-102992155D01*
X96415772Y-102952844D01*
X113955000Y-102952844D01*
X113961401Y-103012372D01*
X113961403Y-103012379D01*
X114011645Y-103147086D01*
X114011649Y-103147093D01*
X114097809Y-103262187D01*
X114097812Y-103262190D01*
X114212906Y-103348350D01*
X114212913Y-103348354D01*
X114347620Y-103398596D01*
X114347627Y-103398598D01*
X114407155Y-103404999D01*
X114407172Y-103405000D01*
X114630000Y-103405000D01*
X114630000Y-102730000D01*
X113955000Y-102730000D01*
X113955000Y-102952844D01*
X96415772Y-102952844D01*
X96413598Y-102932627D01*
X96413596Y-102932620D01*
X96363354Y-102797913D01*
X96363350Y-102797906D01*
X96329695Y-102752949D01*
X96277190Y-102682812D01*
X96277187Y-102682809D01*
X96162093Y-102596649D01*
X96162086Y-102596645D01*
X96027379Y-102546403D01*
X96027372Y-102546401D01*
X95967844Y-102540000D01*
X93630000Y-102540000D01*
X93630000Y-103540000D01*
X93130000Y-103540000D01*
X93130000Y-102540000D01*
X90929000Y-102540000D01*
X90920314Y-102537449D01*
X90911353Y-102538738D01*
X90887312Y-102527759D01*
X90861961Y-102520315D01*
X90856033Y-102513474D01*
X90847797Y-102509713D01*
X90833507Y-102487478D01*
X90816206Y-102467511D01*
X90813918Y-102456996D01*
X90810023Y-102450935D01*
X90807052Y-102430272D01*
X114630000Y-102430272D01*
X114630000Y-102529728D01*
X114668060Y-102621614D01*
X114738386Y-102691940D01*
X114830272Y-102730000D01*
X114929728Y-102730000D01*
X114981805Y-102708429D01*
X114990065Y-102749952D01*
X114990068Y-102749962D01*
X115059829Y-102918382D01*
X115059831Y-102918385D01*
X115059833Y-102918389D01*
X115102755Y-102982627D01*
X115109102Y-102992125D01*
X115129980Y-103058802D01*
X115130000Y-103061016D01*
X115130000Y-103405000D01*
X115352828Y-103405000D01*
X115352844Y-103404999D01*
X115412372Y-103398598D01*
X115412376Y-103398597D01*
X115507088Y-103363272D01*
X115576780Y-103358288D01*
X115597872Y-103364892D01*
X115610042Y-103369933D01*
X115610046Y-103369933D01*
X115610047Y-103369934D01*
X115788843Y-103405500D01*
X115788846Y-103405500D01*
X115971156Y-103405500D01*
X116091445Y-103381572D01*
X116149958Y-103369933D01*
X116318389Y-103300167D01*
X116318391Y-103300166D01*
X116393672Y-103249864D01*
X116469972Y-103198883D01*
X116598883Y-103069972D01*
X116617470Y-103042155D01*
X142097500Y-103042155D01*
X142097500Y-103590000D01*
X144887500Y-103590000D01*
X144887500Y-102590000D01*
X142549655Y-102590000D01*
X142490127Y-102596401D01*
X142490120Y-102596403D01*
X142355413Y-102646645D01*
X142355406Y-102646649D01*
X142240312Y-102732809D01*
X142240309Y-102732812D01*
X142154149Y-102847906D01*
X142154145Y-102847913D01*
X142103903Y-102982620D01*
X142103901Y-102982627D01*
X142097500Y-103042155D01*
X116617470Y-103042155D01*
X116650867Y-102992172D01*
X116665709Y-102969960D01*
X116677145Y-102952844D01*
X116700167Y-102918389D01*
X116769933Y-102749958D01*
X116800429Y-102596649D01*
X116805500Y-102571156D01*
X116805500Y-102388843D01*
X116769934Y-102210047D01*
X116769933Y-102210046D01*
X116769933Y-102210042D01*
X116769931Y-102210037D01*
X116700168Y-102041612D01*
X116700166Y-102041608D01*
X116598886Y-101890032D01*
X116598880Y-101890024D01*
X116469975Y-101761119D01*
X116469967Y-101761113D01*
X116318391Y-101659833D01*
X116318387Y-101659831D01*
X116149962Y-101590068D01*
X116149952Y-101590065D01*
X115971156Y-101554500D01*
X115971154Y-101554500D01*
X115788846Y-101554500D01*
X115788844Y-101554500D01*
X115610048Y-101590065D01*
X115610037Y-101590068D01*
X115597867Y-101595109D01*
X115528398Y-101602573D01*
X115507089Y-101596727D01*
X115412380Y-101561403D01*
X115412372Y-101561401D01*
X115352844Y-101555000D01*
X115130000Y-101555000D01*
X115130000Y-101898983D01*
X115110315Y-101966022D01*
X115109103Y-101967873D01*
X115059830Y-102041614D01*
X114990068Y-102210037D01*
X114990065Y-102210047D01*
X114981805Y-102251570D01*
X114929728Y-102230000D01*
X114830272Y-102230000D01*
X114738386Y-102268060D01*
X114668060Y-102338386D01*
X114630000Y-102430272D01*
X90807052Y-102430272D01*
X90805000Y-102416000D01*
X90805000Y-102007155D01*
X113955000Y-102007155D01*
X113955000Y-102230000D01*
X114630000Y-102230000D01*
X114630000Y-101555000D01*
X114407155Y-101555000D01*
X114347627Y-101561401D01*
X114347620Y-101561403D01*
X114212913Y-101611645D01*
X114212906Y-101611649D01*
X114097812Y-101697809D01*
X114097809Y-101697812D01*
X114011649Y-101812906D01*
X114011645Y-101812913D01*
X113961403Y-101947620D01*
X113961401Y-101947627D01*
X113955000Y-102007155D01*
X90805000Y-102007155D01*
X90805000Y-99584000D01*
X90824685Y-99516961D01*
X90877489Y-99471206D01*
X90929000Y-99460000D01*
X92732500Y-99460000D01*
X93232500Y-99460000D01*
X95570328Y-99460000D01*
X95570344Y-99459999D01*
X95629872Y-99453598D01*
X95629879Y-99453596D01*
X95764586Y-99403354D01*
X95764593Y-99403350D01*
X95879687Y-99317190D01*
X95879690Y-99317187D01*
X95965850Y-99202093D01*
X95965854Y-99202086D01*
X96016096Y-99067379D01*
X96016098Y-99067372D01*
X96022499Y-99007844D01*
X96022500Y-99007827D01*
X96022500Y-98937844D01*
X142157500Y-98937844D01*
X142163901Y-98997372D01*
X142163903Y-98997379D01*
X142214145Y-99132086D01*
X142214149Y-99132093D01*
X142300309Y-99247187D01*
X142300312Y-99247190D01*
X142415406Y-99333350D01*
X142415413Y-99333354D01*
X142550120Y-99383596D01*
X142550127Y-99383598D01*
X142609655Y-99389999D01*
X142609672Y-99390000D01*
X144947500Y-99390000D01*
X144947500Y-98390000D01*
X142157500Y-98390000D01*
X142157500Y-98937844D01*
X96022500Y-98937844D01*
X96022500Y-98460000D01*
X93232500Y-98460000D01*
X93232500Y-99460000D01*
X92732500Y-99460000D01*
X92732500Y-97960000D01*
X93232500Y-97960000D01*
X96022500Y-97960000D01*
X96022500Y-97412172D01*
X96022498Y-97412153D01*
X96016099Y-97352631D01*
X96016096Y-97352620D01*
X96012193Y-97342155D01*
X142157500Y-97342155D01*
X142157500Y-97890000D01*
X144947500Y-97890000D01*
X144947500Y-96890000D01*
X142609655Y-96890000D01*
X142550127Y-96896401D01*
X142550120Y-96896403D01*
X142415413Y-96946645D01*
X142415406Y-96946649D01*
X142300312Y-97032809D01*
X142300309Y-97032812D01*
X142214149Y-97147906D01*
X142214145Y-97147913D01*
X142163903Y-97282620D01*
X142163901Y-97282627D01*
X142157500Y-97342155D01*
X96012193Y-97342155D01*
X95965854Y-97217913D01*
X95965850Y-97217906D01*
X95879690Y-97102812D01*
X95879687Y-97102809D01*
X95764593Y-97016649D01*
X95764586Y-97016645D01*
X95629879Y-96966403D01*
X95629872Y-96966401D01*
X95570344Y-96960000D01*
X93232500Y-96960000D01*
X93232500Y-97960000D01*
X92732500Y-97960000D01*
X92732500Y-96960000D01*
X90929000Y-96960000D01*
X90861961Y-96940315D01*
X90816206Y-96887511D01*
X90805000Y-96836000D01*
X90805000Y-91084000D01*
X90824685Y-91016961D01*
X90877489Y-90971206D01*
X90929000Y-90960000D01*
X92732500Y-90960000D01*
X93232500Y-90960000D01*
X95570328Y-90960000D01*
X95570344Y-90959999D01*
X95629872Y-90953598D01*
X95629879Y-90953596D01*
X95764586Y-90903354D01*
X95764593Y-90903350D01*
X95879687Y-90817190D01*
X95879690Y-90817187D01*
X95965850Y-90702093D01*
X95965854Y-90702086D01*
X96016096Y-90567379D01*
X96016098Y-90567372D01*
X96022499Y-90507844D01*
X96022500Y-90507827D01*
X96022500Y-90437844D01*
X142157500Y-90437844D01*
X142163901Y-90497372D01*
X142163903Y-90497379D01*
X142214145Y-90632086D01*
X142214149Y-90632093D01*
X142300309Y-90747187D01*
X142300312Y-90747190D01*
X142415406Y-90833350D01*
X142415413Y-90833354D01*
X142550120Y-90883596D01*
X142550127Y-90883598D01*
X142609655Y-90889999D01*
X142609672Y-90890000D01*
X144947500Y-90890000D01*
X144947500Y-89890000D01*
X142157500Y-89890000D01*
X142157500Y-90437844D01*
X96022500Y-90437844D01*
X96022500Y-89960000D01*
X93232500Y-89960000D01*
X93232500Y-90960000D01*
X92732500Y-90960000D01*
X92732500Y-89460000D01*
X93232500Y-89460000D01*
X96022500Y-89460000D01*
X96022500Y-88912172D01*
X96022498Y-88912153D01*
X96016099Y-88852631D01*
X96016096Y-88852620D01*
X96012193Y-88842155D01*
X142157500Y-88842155D01*
X142157500Y-89390000D01*
X144947500Y-89390000D01*
X144947500Y-88390000D01*
X142609655Y-88390000D01*
X142550127Y-88396401D01*
X142550120Y-88396403D01*
X142415413Y-88446645D01*
X142415406Y-88446649D01*
X142300312Y-88532809D01*
X142300309Y-88532812D01*
X142214149Y-88647906D01*
X142214145Y-88647913D01*
X142163903Y-88782620D01*
X142163901Y-88782627D01*
X142157500Y-88842155D01*
X96012193Y-88842155D01*
X95965854Y-88717913D01*
X95965850Y-88717906D01*
X95879690Y-88602812D01*
X95879687Y-88602809D01*
X95764593Y-88516649D01*
X95764586Y-88516645D01*
X95629879Y-88466403D01*
X95629872Y-88466401D01*
X95570344Y-88460000D01*
X93232500Y-88460000D01*
X93232500Y-89460000D01*
X92732500Y-89460000D01*
X92732500Y-88460000D01*
X90929000Y-88460000D01*
X90861961Y-88440315D01*
X90816206Y-88387511D01*
X90805000Y-88336000D01*
X90805000Y-83542844D01*
X112925000Y-83542844D01*
X112931401Y-83602372D01*
X112931403Y-83602379D01*
X112981645Y-83737086D01*
X112981649Y-83737093D01*
X113067809Y-83852187D01*
X113067812Y-83852190D01*
X113182906Y-83938350D01*
X113182913Y-83938354D01*
X113317620Y-83988596D01*
X113317627Y-83988598D01*
X113377155Y-83994999D01*
X113377172Y-83995000D01*
X113600000Y-83995000D01*
X113600000Y-83320000D01*
X112925000Y-83320000D01*
X112925000Y-83542844D01*
X90805000Y-83542844D01*
X90805000Y-82166000D01*
X90824685Y-82098961D01*
X90877489Y-82053206D01*
X90929000Y-82042000D01*
X113023616Y-82042000D01*
X113090655Y-82061685D01*
G37*
%TD.AperFunction*%
%TD*%
M02*
