M48
; DRILL file {KiCad 9.0.4} date 2025-09-30T16:26:36-0500
; FORMAT={-:-/ absolute / inch / decimal}
; #@! TF.CreationDate,2025-09-30T16:26:36-05:00
; #@! TF.GenerationSoftware,Kicad,Pcbnew,9.0.4
; #@! TF.FileFunction,MixedPlating,1,2
FMAT,2
INCH
; #@! TA.AperFunction,Plated,PTH,ViaDrill
T1C0.0118
; #@! TA.AperFunction,Plated,PTH,ComponentDrill
T2C0.0197
%
G90
G05
T1
X3.6361Y-3.5327
X3.6361Y-3.8673
X3.6764Y-4.0862
X3.6764Y-4.4209
X3.785Y-3.63
X3.785Y-3.77
X3.815Y-3.63
X3.815Y-3.77
X3.845Y-3.63
X3.845Y-3.77
X3.8626Y-4.1866
X3.8626Y-4.3266
X3.875Y-3.63
X3.875Y-3.77
X3.8949Y-4.1864
X3.8949Y-4.3264
X3.905Y-3.63
X3.905Y-3.77
X3.9249Y-4.1864
X3.9249Y-4.3264
X3.935Y-3.63
X3.935Y-3.77
X3.9549Y-4.1864
X3.9549Y-4.3264
X3.965Y-3.63
X3.965Y-3.77
X3.9849Y-4.1864
X3.9849Y-4.3264
X3.995Y-3.63
X3.995Y-3.77
X4.0149Y-4.1864
X4.0149Y-4.3264
X4.025Y-3.63
X4.025Y-3.77
X4.0449Y-4.1864
X4.0449Y-4.3264
X4.055Y-3.63
X4.055Y-3.77
X4.0749Y-4.1864
X4.0749Y-4.3264
X4.085Y-3.63
X4.085Y-3.77
X4.1075Y-4.1864
X4.1075Y-4.3264
X4.115Y-3.63
X4.115Y-3.77
X4.1375Y-4.1864
X4.1375Y-4.3264
X4.145Y-3.63
X4.145Y-3.77
X4.1675Y-4.1864
X4.1675Y-4.3264
X4.175Y-3.63
X4.175Y-3.77
X4.1975Y-4.1864
X4.1975Y-4.3264
X4.205Y-3.63
X4.205Y-3.77
X4.2275Y-4.1864
X4.2275Y-4.3264
X4.235Y-3.63
X4.235Y-3.77
X4.2575Y-4.1864
X4.2575Y-4.3264
X4.265Y-3.63
X4.265Y-3.77
X4.2875Y-4.1864
X4.2875Y-4.3264
X4.295Y-3.63
X4.295Y-3.77
X4.3175Y-4.1864
X4.3175Y-4.3264
X4.325Y-3.63
X4.325Y-3.77
X4.3475Y-4.1864
X4.3475Y-4.3264
X4.355Y-3.63
X4.355Y-3.77
X4.3775Y-4.1864
X4.3775Y-4.3264
X4.385Y-3.63
X4.385Y-3.77
X4.4075Y-4.1864
X4.4075Y-4.3264
X4.415Y-3.63
X4.415Y-3.77
X4.4375Y-4.1864
X4.4375Y-4.3264
X4.445Y-3.63
X4.445Y-3.77
X4.4675Y-4.1864
X4.4675Y-4.3264
X4.475Y-3.63
X4.475Y-3.77
X4.4975Y-4.1864
X4.4975Y-4.3264
X4.505Y-3.63
X4.505Y-3.77
X4.525Y-3.9
X4.5261Y-3.95
X4.5275Y-4.1864
X4.5275Y-4.3264
X4.5575Y-4.1864
X4.5575Y-4.3264
X4.5875Y-4.1864
X4.5875Y-4.3264
X4.6175Y-4.1864
X4.6175Y-4.3264
X4.6475Y-4.1864
X4.6475Y-4.3264
X4.6762Y-3.7312
X4.6775Y-4.1864
X4.6775Y-4.3264
X4.6785Y-3.6915
X4.6811Y-3.475
X4.6971Y-3.7102
X4.7075Y-4.1864
X4.7075Y-4.3264
X4.716Y-3.729
X4.7162Y-3.6912
X4.7375Y-4.1864
X4.7375Y-4.3264
X4.7675Y-4.1864
X4.7675Y-4.3264
X4.7939Y-3.475
X4.7975Y-4.1864
X4.7975Y-4.3264
X4.8275Y-4.1864
X4.8275Y-4.3264
X4.855Y-3.77
X4.8591Y-4.186
X4.8591Y-4.326
X4.875Y-3.4724
X4.875Y-3.525
X4.885Y-3.77
X4.8891Y-4.186
X4.8891Y-4.326
X4.9Y-3.63
X4.915Y-3.77
X4.9191Y-4.186
X4.9191Y-4.326
X4.93Y-3.63
X4.945Y-3.77
X4.9491Y-4.186
X4.9491Y-4.326
X4.96Y-3.63
X4.975Y-3.77
X4.9791Y-4.186
X4.9791Y-4.326
X4.99Y-3.63
X5.005Y-3.77
X5.0091Y-4.186
X5.0091Y-4.326
X5.02Y-3.63
X5.035Y-3.77
X5.0391Y-4.186
X5.0391Y-4.326
X5.05Y-3.63
X5.065Y-3.77
X5.0691Y-4.186
X5.0691Y-4.326
X5.08Y-3.63
X5.095Y-3.77
X5.0991Y-4.186
X5.0991Y-4.326
X5.11Y-3.63
X5.125Y-3.77
X5.1291Y-4.186
X5.1291Y-4.326
X5.14Y-3.63
X5.155Y-3.77
X5.1591Y-4.186
X5.1591Y-4.326
X5.17Y-3.63
X5.185Y-3.77
X5.1891Y-4.186
X5.1891Y-4.326
X5.2Y-3.63
X5.215Y-3.77
X5.2191Y-4.186
X5.2191Y-4.326
X5.23Y-3.63
X5.245Y-3.77
X5.2491Y-4.186
X5.2491Y-4.326
X5.26Y-3.63
X5.275Y-3.77
X5.2791Y-4.186
X5.2791Y-4.326
X5.29Y-3.63
X5.305Y-3.77
X5.3091Y-4.186
X5.3091Y-4.326
X5.32Y-3.63
X5.335Y-3.77
X5.3391Y-4.186
X5.3391Y-4.326
X5.35Y-3.63
X5.365Y-3.77
X5.3691Y-4.186
X5.3691Y-4.326
X5.38Y-3.63
X5.395Y-3.77
X5.3991Y-4.186
X5.3991Y-4.326
X5.41Y-3.63
X5.425Y-3.77
X5.4291Y-4.186
X5.4291Y-4.326
X5.44Y-3.63
X5.455Y-3.77
X5.4591Y-4.186
X5.4591Y-4.326
X5.47Y-3.63
X5.485Y-3.77
X5.4891Y-4.186
X5.4891Y-4.326
X5.5Y-3.63
X5.515Y-3.77
X5.5191Y-4.186
X5.5191Y-4.326
X5.53Y-3.63
X5.545Y-3.77
X5.5491Y-4.186
X5.5491Y-4.326
X5.56Y-3.63
X5.575Y-3.77
X5.5791Y-4.186
X5.5791Y-4.326
X5.7164Y-3.5291
X5.7164Y-3.8638
X5.7204Y-4.0874
X5.7204Y-4.422
T2
X4.4823Y-3.2705
X4.5217Y-3.2705
X4.5228Y-4.0346
X4.5622Y-4.0346
X4.8114Y-3.2681
X4.8508Y-3.2681
M30
