%TF.GenerationSoftware,KiCad,Pcbnew,9.0.4*%
%TF.CreationDate,2025-09-30T16:29:38-05:00*%
%TF.ProjectId,QPA9122S-EVAL,51504139-3132-4325-932d-4556414c2e6b,rev?*%
%TF.SameCoordinates,Original*%
%TF.FileFunction,Soldermask,Top*%
%TF.FilePolarity,Negative*%
%FSLAX46Y46*%
G04 Gerber Fmt 4.6, Leading zero omitted, Abs format (unit mm)*
G04 Created by KiCad (PCBNEW 9.0.4) date 2025-09-30 16:29:38*
%MOMM*%
%LPD*%
G01*
G04 APERTURE LIST*
G04 Aperture macros list*
%AMRoundRect*
0 Rectangle with rounded corners*
0 $1 Rounding radius*
0 $2 $3 $4 $5 $6 $7 $8 $9 X,Y pos of 4 corners*
0 Add a 4 corners polygon primitive as box body*
4,1,4,$2,$3,$4,$5,$6,$7,$8,$9,$2,$3,0*
0 Add four circle primitives for the rounded corners*
1,1,$1+$1,$2,$3*
1,1,$1+$1,$4,$5*
1,1,$1+$1,$6,$7*
1,1,$1+$1,$8,$9*
0 Add four rect primitives between the rounded corners*
20,1,$1+$1,$2,$3,$4,$5,0*
20,1,$1+$1,$4,$5,$6,$7,0*
20,1,$1+$1,$6,$7,$8,$9,0*
20,1,$1+$1,$8,$9,$2,$3,0*%
G04 Aperture macros list end*
%ADD10RoundRect,0.140000X-0.140000X-0.170000X0.140000X-0.170000X0.140000X0.170000X-0.140000X0.170000X0*%
%ADD11R,0.850000X0.850000*%
%ADD12C,0.850000*%
%ADD13RoundRect,0.135000X0.185000X-0.135000X0.185000X0.135000X-0.185000X0.135000X-0.185000X-0.135000X0*%
%ADD14RoundRect,0.140000X0.140000X0.170000X-0.140000X0.170000X-0.140000X-0.170000X0.140000X-0.170000X0*%
%ADD15R,5.080000X1.500000*%
%ADD16RoundRect,0.147500X0.172500X-0.147500X0.172500X0.147500X-0.172500X0.147500X-0.172500X-0.147500X0*%
%ADD17RoundRect,0.135000X-0.185000X0.135000X-0.185000X-0.135000X0.185000X-0.135000X0.185000X0.135000X0*%
%ADD18R,0.300000X0.250000*%
%ADD19R,0.250000X0.300000*%
%ADD20R,1.700000X1.700000*%
G04 APERTURE END LIST*
D10*
%TO.C,C14*%
X122865000Y-89535000D03*
X123825000Y-89535000D03*
%TD*%
%TO.C,C13*%
X122865000Y-88200000D03*
X123825000Y-88200000D03*
%TD*%
D11*
%TO.C,J4*%
X114880000Y-102480000D03*
D12*
X115880000Y-102480000D03*
%TD*%
D13*
%TO.C,R9*%
X116205000Y-97665000D03*
X116205000Y-96645000D03*
%TD*%
D14*
%TO.C,C12*%
X115923000Y-100330000D03*
X114963000Y-100330000D03*
%TD*%
D11*
%TO.C,J3*%
X122210000Y-83010000D03*
D12*
X123210000Y-83010000D03*
%TD*%
D11*
%TO.C,J5*%
X113850000Y-83070000D03*
D12*
X114850000Y-83070000D03*
%TD*%
D15*
%TO.C,J2*%
X145197500Y-93890000D03*
X145197500Y-89640000D03*
X145197500Y-98140000D03*
%TD*%
D16*
%TO.C,L10*%
X122555000Y-93980000D03*
X122555000Y-93010000D03*
%TD*%
D10*
%TO.C,C9*%
X115245000Y-93980000D03*
X116205000Y-93980000D03*
%TD*%
%TO.C,C10*%
X123472000Y-93980000D03*
X124432000Y-93980000D03*
%TD*%
D17*
%TO.C,R4*%
X120170000Y-89660000D03*
X120170000Y-90680000D03*
%TD*%
D15*
%TO.C,J7*%
X93380000Y-108040000D03*
X93380000Y-112290000D03*
X93380000Y-103790000D03*
%TD*%
%TO.C,J1*%
X92982500Y-93960000D03*
X92982500Y-98210000D03*
X92982500Y-89710000D03*
%TD*%
D18*
%TO.C,IC1*%
X118036700Y-93489000D03*
X118036700Y-93989000D03*
X118036700Y-94489000D03*
X118036700Y-94989000D03*
D19*
X118556700Y-95509000D03*
X119056700Y-95509000D03*
X119556700Y-95509000D03*
X120056700Y-95509000D03*
D18*
X120576700Y-94989000D03*
X120576700Y-94489000D03*
X120576700Y-93989000D03*
X120576700Y-93489000D03*
D19*
X120056700Y-92969000D03*
X119556700Y-92969000D03*
X119056700Y-92969000D03*
X118556700Y-92969000D03*
D20*
X119306700Y-94239000D03*
%TD*%
D10*
%TO.C,C22*%
X120805000Y-88265000D03*
X121765000Y-88265000D03*
%TD*%
%TO.C,C17*%
X118900000Y-88265000D03*
X119860000Y-88265000D03*
%TD*%
D15*
%TO.C,J6*%
X145137500Y-108090000D03*
X145137500Y-103840000D03*
X145137500Y-112340000D03*
%TD*%
D14*
%TO.C,C11*%
X115895000Y-99060000D03*
X114935000Y-99060000D03*
%TD*%
D17*
%TO.C,R6*%
X118110000Y-90295000D03*
X118110000Y-91315000D03*
%TD*%
M02*
