%TF.GenerationSoftware,KiCad,Pcbnew,9.0.4*%
%TF.CreationDate,2025-11-03T21:40:55-06:00*%
%TF.ProjectId,TX_Board,54585f42-6f61-4726-942e-6b696361645f,rev?*%
%TF.SameCoordinates,Original*%
%TF.FileFunction,Drillmap*%
%TF.FilePolarity,Positive*%
%FSLAX45Y45*%
G04 Gerber Fmt 4.5, Leading zero omitted, Abs format (unit mm)*
G04 Created by KiCad (PCBNEW 9.0.4) date 2025-11-03 21:40:55*
%MOMM*%
%LPD*%
G01*
G04 APERTURE LIST*
%ADD10C,0.050000*%
%ADD11C,0.200000*%
%ADD12C,0.100000*%
G04 APERTURE END LIST*
D10*
X8196000Y-3000000D02*
X23030300Y-3000000D01*
X23030300Y-12875000D01*
X8196000Y-12875000D01*
X8196000Y-3000000D01*
D11*
D12*
X8301250Y-8365700D02*
X8331250Y-8395700D01*
X8331250Y-8365700D02*
X8301250Y-8395700D01*
X8303800Y-7497400D02*
X8333800Y-7527400D01*
X8333800Y-7497400D02*
X8303800Y-7527400D01*
X8386250Y-8365700D02*
X8416250Y-8395700D01*
X8416250Y-8365700D02*
X8386250Y-8395700D01*
X8388800Y-7497400D02*
X8418800Y-7527400D01*
X8418800Y-7497400D02*
X8388800Y-7527400D01*
X8471250Y-8365700D02*
X8501250Y-8395700D01*
X8501250Y-8365700D02*
X8471250Y-8395700D01*
X8473800Y-7497400D02*
X8503800Y-7527400D01*
X8503800Y-7497400D02*
X8473800Y-7527400D01*
X8556250Y-8365700D02*
X8586250Y-8395700D01*
X8586250Y-8365700D02*
X8556250Y-8395700D01*
X8558800Y-7497400D02*
X8588800Y-7527400D01*
X8588800Y-7497400D02*
X8558800Y-7527400D01*
X8641250Y-8365700D02*
X8671250Y-8395700D01*
X8671250Y-8365700D02*
X8641250Y-8395700D01*
X8643800Y-7497400D02*
X8673800Y-7527400D01*
X8673800Y-7497400D02*
X8643800Y-7527400D01*
X9025000Y-10325000D02*
X9055000Y-10355000D01*
X9055000Y-10325000D02*
X9025000Y-10355000D01*
X9025000Y-10405000D02*
X9055000Y-10435000D01*
X9055000Y-10405000D02*
X9025000Y-10435000D01*
X9025000Y-10485000D02*
X9055000Y-10515000D01*
X9055000Y-10485000D02*
X9025000Y-10515000D01*
X9025000Y-10565000D02*
X9055000Y-10595000D01*
X9055000Y-10565000D02*
X9025000Y-10595000D01*
X9105000Y-10325000D02*
X9135000Y-10355000D01*
X9135000Y-10325000D02*
X9105000Y-10355000D01*
X9105000Y-10405000D02*
X9135000Y-10435000D01*
X9135000Y-10405000D02*
X9105000Y-10435000D01*
X9105000Y-10485000D02*
X9135000Y-10515000D01*
X9135000Y-10485000D02*
X9105000Y-10515000D01*
X9105000Y-10565000D02*
X9135000Y-10595000D01*
X9135000Y-10565000D02*
X9105000Y-10595000D01*
X9160000Y-9060000D02*
X9190000Y-9090000D01*
X9190000Y-9060000D02*
X9160000Y-9090000D01*
X9215000Y-10695000D02*
X9245000Y-10725000D01*
X9245000Y-10695000D02*
X9215000Y-10725000D01*
X9275000Y-11880000D02*
X9305000Y-11910000D01*
X9305000Y-11880000D02*
X9275000Y-11910000D01*
X9327500Y-11300000D02*
X9357500Y-11330000D01*
X9357500Y-11300000D02*
X9327500Y-11330000D01*
X9352500Y-4115698D02*
X9382500Y-4145698D01*
X9382500Y-4115698D02*
X9352500Y-4145698D01*
X9352500Y-4263111D02*
X9382500Y-4293111D01*
X9382500Y-4263111D02*
X9352500Y-4293111D01*
X9352500Y-4410523D02*
X9382500Y-4440523D01*
X9382500Y-4410523D02*
X9352500Y-4440523D01*
X9352500Y-4557936D02*
X9382500Y-4587936D01*
X9382500Y-4557936D02*
X9352500Y-4587936D01*
X9352500Y-4705349D02*
X9382500Y-4735349D01*
X9382500Y-4705349D02*
X9352500Y-4735349D01*
X9352500Y-4852762D02*
X9382500Y-4882762D01*
X9382500Y-4852762D02*
X9352500Y-4882762D01*
X9352500Y-5000174D02*
X9382500Y-5030174D01*
X9382500Y-5000174D02*
X9352500Y-5030174D01*
X9357500Y-5147587D02*
X9387500Y-5177587D01*
X9387500Y-5147587D02*
X9357500Y-5177587D01*
X9357500Y-5295000D02*
X9387500Y-5325000D01*
X9387500Y-5295000D02*
X9357500Y-5325000D01*
X9385000Y-9660000D02*
X9415000Y-9690000D01*
X9415000Y-9660000D02*
X9385000Y-9690000D01*
X9411000Y-12067500D02*
X9441000Y-12097500D01*
X9441000Y-12067500D02*
X9411000Y-12097500D01*
X9475000Y-10345000D02*
X9505000Y-10375000D01*
X9505000Y-10345000D02*
X9475000Y-10375000D01*
X9512500Y-5295000D02*
X9542500Y-5325000D01*
X9542500Y-5295000D02*
X9512500Y-5325000D01*
X11030000Y-4247000D02*
X11060000Y-4277000D01*
X11060000Y-4247000D02*
X11030000Y-4277000D01*
X11032000Y-4497000D02*
X11062000Y-4527000D01*
X11062000Y-4497000D02*
X11032000Y-4527000D01*
X11032000Y-4622000D02*
X11062000Y-4652000D01*
X11062000Y-4622000D02*
X11032000Y-4652000D01*
X12840000Y-7922500D02*
X12870000Y-7952500D01*
X12870000Y-7922500D02*
X12840000Y-7952500D01*
X14840000Y-5497500D02*
X14870000Y-5527500D01*
X14870000Y-5497500D02*
X14840000Y-5527500D01*
X14840000Y-10347500D02*
X14870000Y-10377500D01*
X14870000Y-10347500D02*
X14840000Y-10377500D01*
X16825000Y-3767500D02*
X16855000Y-3797500D01*
X16855000Y-3767500D02*
X16825000Y-3797500D01*
X16825000Y-3922500D02*
X16855000Y-3952500D01*
X16855000Y-3922500D02*
X16825000Y-3952500D01*
X16825000Y-6192500D02*
X16855000Y-6222500D01*
X16855000Y-6192500D02*
X16825000Y-6222500D01*
X16825000Y-6192500D02*
X16855000Y-6222500D01*
X16855000Y-6192500D02*
X16825000Y-6222500D01*
X16825000Y-6347500D02*
X16855000Y-6377500D01*
X16855000Y-6347500D02*
X16825000Y-6377500D01*
X16825000Y-6347500D02*
X16855000Y-6377500D01*
X16855000Y-6347500D02*
X16825000Y-6377500D01*
X16825000Y-8617500D02*
X16855000Y-8647500D01*
X16855000Y-8617500D02*
X16825000Y-8647500D01*
X16825000Y-8617500D02*
X16855000Y-8647500D01*
X16855000Y-8617500D02*
X16825000Y-8647500D01*
X16825000Y-8772500D02*
X16855000Y-8802500D01*
X16855000Y-8772500D02*
X16825000Y-8802500D01*
X16825000Y-8772500D02*
X16855000Y-8802500D01*
X16855000Y-8772500D02*
X16825000Y-8802500D01*
X16825000Y-11042500D02*
X16855000Y-11072500D01*
X16855000Y-11042500D02*
X16825000Y-11072500D01*
X16825000Y-11042500D02*
X16855000Y-11072500D01*
X16855000Y-11042500D02*
X16825000Y-11072500D01*
X16825000Y-11197500D02*
X16855000Y-11227500D01*
X16855000Y-11197500D02*
X16825000Y-11227500D01*
X16825000Y-11197500D02*
X16855000Y-11227500D01*
X16855000Y-11197500D02*
X16825000Y-11227500D01*
X16975000Y-3767500D02*
X17005000Y-3797500D01*
X17005000Y-3767500D02*
X16975000Y-3797500D01*
X16975000Y-6192500D02*
X17005000Y-6222500D01*
X17005000Y-6192500D02*
X16975000Y-6222500D01*
X16975000Y-6192500D02*
X17005000Y-6222500D01*
X17005000Y-6192500D02*
X16975000Y-6222500D01*
X16975000Y-8617500D02*
X17005000Y-8647500D01*
X17005000Y-8617500D02*
X16975000Y-8647500D01*
X16975000Y-8617500D02*
X17005000Y-8647500D01*
X17005000Y-8617500D02*
X16975000Y-8647500D01*
X16975000Y-11042500D02*
X17005000Y-11072500D01*
X17005000Y-11042500D02*
X16975000Y-11072500D01*
X16975000Y-11042500D02*
X17005000Y-11072500D01*
X17005000Y-11042500D02*
X16975000Y-11072500D01*
X17125000Y-3857500D02*
X17155000Y-3887500D01*
X17155000Y-3857500D02*
X17125000Y-3887500D01*
X17125000Y-4012500D02*
X17155000Y-4042500D01*
X17155000Y-4012500D02*
X17125000Y-4042500D01*
X17125000Y-6282500D02*
X17155000Y-6312500D01*
X17155000Y-6282500D02*
X17125000Y-6312500D01*
X17125000Y-6282500D02*
X17155000Y-6312500D01*
X17155000Y-6282500D02*
X17125000Y-6312500D01*
X17125000Y-6437500D02*
X17155000Y-6467500D01*
X17155000Y-6437500D02*
X17125000Y-6467500D01*
X17125000Y-6437500D02*
X17155000Y-6467500D01*
X17155000Y-6437500D02*
X17125000Y-6467500D01*
X17125000Y-8707500D02*
X17155000Y-8737500D01*
X17155000Y-8707500D02*
X17125000Y-8737500D01*
X17125000Y-8707500D02*
X17155000Y-8737500D01*
X17155000Y-8707500D02*
X17125000Y-8737500D01*
X17125000Y-8862500D02*
X17155000Y-8892500D01*
X17155000Y-8862500D02*
X17125000Y-8892500D01*
X17125000Y-8862500D02*
X17155000Y-8892500D01*
X17155000Y-8862500D02*
X17125000Y-8892500D01*
X17125000Y-11132500D02*
X17155000Y-11162500D01*
X17155000Y-11132500D02*
X17125000Y-11162500D01*
X17125000Y-11132500D02*
X17155000Y-11162500D01*
X17155000Y-11132500D02*
X17125000Y-11162500D01*
X17125000Y-11287500D02*
X17155000Y-11317500D01*
X17155000Y-11287500D02*
X17125000Y-11317500D01*
X17125000Y-11287500D02*
X17155000Y-11317500D01*
X17155000Y-11287500D02*
X17125000Y-11317500D01*
X17275000Y-3857500D02*
X17305000Y-3887500D01*
X17305000Y-3857500D02*
X17275000Y-3887500D01*
X17275000Y-6282500D02*
X17305000Y-6312500D01*
X17305000Y-6282500D02*
X17275000Y-6312500D01*
X17275000Y-8707500D02*
X17305000Y-8737500D01*
X17305000Y-8707500D02*
X17275000Y-8737500D01*
X17275000Y-8707500D02*
X17305000Y-8737500D01*
X17305000Y-8707500D02*
X17275000Y-8737500D01*
X17275000Y-11132500D02*
X17305000Y-11162500D01*
X17305000Y-11132500D02*
X17275000Y-11162500D01*
X17275000Y-11132500D02*
X17305000Y-11162500D01*
X17305000Y-11132500D02*
X17275000Y-11162500D01*
X17425000Y-3582500D02*
X17455000Y-3612500D01*
X17455000Y-3582500D02*
X17425000Y-3612500D01*
X17425000Y-6007500D02*
X17455000Y-6037500D01*
X17455000Y-6007500D02*
X17425000Y-6037500D01*
X17425000Y-6007500D02*
X17455000Y-6037500D01*
X17455000Y-6007500D02*
X17425000Y-6037500D01*
X17425000Y-8432500D02*
X17455000Y-8462500D01*
X17455000Y-8432500D02*
X17425000Y-8462500D01*
X17425000Y-8432500D02*
X17455000Y-8462500D01*
X17455000Y-8432500D02*
X17425000Y-8462500D01*
X17425000Y-10857500D02*
X17455000Y-10887500D01*
X17455000Y-10857500D02*
X17425000Y-10887500D01*
X17425000Y-10857500D02*
X17455000Y-10887500D01*
X17455000Y-10857500D02*
X17425000Y-10887500D01*
X17532000Y-4080000D02*
X17562000Y-4110000D01*
X17562000Y-4080000D02*
X17532000Y-4110000D01*
X17532000Y-4160000D02*
X17562000Y-4190000D01*
X17562000Y-4160000D02*
X17532000Y-4190000D01*
X17532000Y-4240000D02*
X17562000Y-4270000D01*
X17562000Y-4240000D02*
X17532000Y-4270000D01*
X17532000Y-6505000D02*
X17562000Y-6535000D01*
X17562000Y-6505000D02*
X17532000Y-6535000D01*
X17532000Y-6585000D02*
X17562000Y-6615000D01*
X17562000Y-6585000D02*
X17532000Y-6615000D01*
X17532000Y-6665000D02*
X17562000Y-6695000D01*
X17562000Y-6665000D02*
X17532000Y-6695000D01*
X17532000Y-8930000D02*
X17562000Y-8960000D01*
X17562000Y-8930000D02*
X17532000Y-8960000D01*
X17532000Y-9010000D02*
X17562000Y-9040000D01*
X17562000Y-9010000D02*
X17532000Y-9040000D01*
X17532000Y-9090000D02*
X17562000Y-9120000D01*
X17562000Y-9090000D02*
X17532000Y-9120000D01*
X17532000Y-11355000D02*
X17562000Y-11385000D01*
X17562000Y-11355000D02*
X17532000Y-11385000D01*
X17532000Y-11355000D02*
X17562000Y-11385000D01*
X17562000Y-11355000D02*
X17532000Y-11385000D01*
X17532000Y-11435000D02*
X17562000Y-11465000D01*
X17562000Y-11435000D02*
X17532000Y-11465000D01*
X17532000Y-11435000D02*
X17562000Y-11465000D01*
X17562000Y-11435000D02*
X17532000Y-11465000D01*
X17532000Y-11515000D02*
X17562000Y-11545000D01*
X17562000Y-11515000D02*
X17532000Y-11545000D01*
X17532000Y-11515000D02*
X17562000Y-11545000D01*
X17562000Y-11515000D02*
X17532000Y-11545000D01*
X17575000Y-3587500D02*
X17605000Y-3617500D01*
X17605000Y-3587500D02*
X17575000Y-3617500D01*
X17575000Y-6012500D02*
X17605000Y-6042500D01*
X17605000Y-6012500D02*
X17575000Y-6042500D01*
X17575000Y-6012500D02*
X17605000Y-6042500D01*
X17605000Y-6012500D02*
X17575000Y-6042500D01*
X17575000Y-8437500D02*
X17605000Y-8467500D01*
X17605000Y-8437500D02*
X17575000Y-8467500D01*
X17575000Y-8437500D02*
X17605000Y-8467500D01*
X17605000Y-8437500D02*
X17575000Y-8467500D01*
X17575000Y-10862500D02*
X17605000Y-10892500D01*
X17605000Y-10862500D02*
X17575000Y-10892500D01*
X17575000Y-10862500D02*
X17605000Y-10892500D01*
X17605000Y-10862500D02*
X17575000Y-10892500D01*
X17612000Y-4080000D02*
X17642000Y-4110000D01*
X17642000Y-4080000D02*
X17612000Y-4110000D01*
X17612000Y-4160000D02*
X17642000Y-4190000D01*
X17642000Y-4160000D02*
X17612000Y-4190000D01*
X17612000Y-4240000D02*
X17642000Y-4270000D01*
X17642000Y-4240000D02*
X17612000Y-4270000D01*
X17612000Y-6505000D02*
X17642000Y-6535000D01*
X17642000Y-6505000D02*
X17612000Y-6535000D01*
X17612000Y-6585000D02*
X17642000Y-6615000D01*
X17642000Y-6585000D02*
X17612000Y-6615000D01*
X17612000Y-6665000D02*
X17642000Y-6695000D01*
X17642000Y-6665000D02*
X17612000Y-6695000D01*
X17612000Y-8930000D02*
X17642000Y-8960000D01*
X17642000Y-8930000D02*
X17612000Y-8960000D01*
X17612000Y-9010000D02*
X17642000Y-9040000D01*
X17642000Y-9010000D02*
X17612000Y-9040000D01*
X17612000Y-9090000D02*
X17642000Y-9120000D01*
X17642000Y-9090000D02*
X17612000Y-9120000D01*
X17612000Y-11355000D02*
X17642000Y-11385000D01*
X17642000Y-11355000D02*
X17612000Y-11385000D01*
X17612000Y-11355000D02*
X17642000Y-11385000D01*
X17642000Y-11355000D02*
X17612000Y-11385000D01*
X17612000Y-11435000D02*
X17642000Y-11465000D01*
X17642000Y-11435000D02*
X17612000Y-11465000D01*
X17612000Y-11435000D02*
X17642000Y-11465000D01*
X17642000Y-11435000D02*
X17612000Y-11465000D01*
X17612000Y-11515000D02*
X17642000Y-11545000D01*
X17642000Y-11515000D02*
X17612000Y-11545000D01*
X17612000Y-11515000D02*
X17642000Y-11545000D01*
X17642000Y-11515000D02*
X17612000Y-11545000D01*
X17692000Y-4080000D02*
X17722000Y-4110000D01*
X17722000Y-4080000D02*
X17692000Y-4110000D01*
X17692000Y-4160000D02*
X17722000Y-4190000D01*
X17722000Y-4160000D02*
X17692000Y-4190000D01*
X17692000Y-4240000D02*
X17722000Y-4270000D01*
X17722000Y-4240000D02*
X17692000Y-4270000D01*
X17692000Y-6505000D02*
X17722000Y-6535000D01*
X17722000Y-6505000D02*
X17692000Y-6535000D01*
X17692000Y-6585000D02*
X17722000Y-6615000D01*
X17722000Y-6585000D02*
X17692000Y-6615000D01*
X17692000Y-6665000D02*
X17722000Y-6695000D01*
X17722000Y-6665000D02*
X17692000Y-6695000D01*
X17692000Y-8930000D02*
X17722000Y-8960000D01*
X17722000Y-8930000D02*
X17692000Y-8960000D01*
X17692000Y-9010000D02*
X17722000Y-9040000D01*
X17722000Y-9010000D02*
X17692000Y-9040000D01*
X17692000Y-9090000D02*
X17722000Y-9120000D01*
X17722000Y-9090000D02*
X17692000Y-9120000D01*
X17692000Y-11355000D02*
X17722000Y-11385000D01*
X17722000Y-11355000D02*
X17692000Y-11385000D01*
X17692000Y-11355000D02*
X17722000Y-11385000D01*
X17722000Y-11355000D02*
X17692000Y-11385000D01*
X17692000Y-11435000D02*
X17722000Y-11465000D01*
X17722000Y-11435000D02*
X17692000Y-11465000D01*
X17692000Y-11435000D02*
X17722000Y-11465000D01*
X17722000Y-11435000D02*
X17692000Y-11465000D01*
X17692000Y-11515000D02*
X17722000Y-11545000D01*
X17722000Y-11515000D02*
X17692000Y-11545000D01*
X17692000Y-11515000D02*
X17722000Y-11545000D01*
X17722000Y-11515000D02*
X17692000Y-11545000D01*
X17725000Y-3582500D02*
X17755000Y-3612500D01*
X17755000Y-3582500D02*
X17725000Y-3612500D01*
X17725000Y-6007500D02*
X17755000Y-6037500D01*
X17755000Y-6007500D02*
X17725000Y-6037500D01*
X17725000Y-6007500D02*
X17755000Y-6037500D01*
X17755000Y-6007500D02*
X17725000Y-6037500D01*
X17725000Y-8432500D02*
X17755000Y-8462500D01*
X17755000Y-8432500D02*
X17725000Y-8462500D01*
X17725000Y-8432500D02*
X17755000Y-8462500D01*
X17755000Y-8432500D02*
X17725000Y-8462500D01*
X17725000Y-10857500D02*
X17755000Y-10887500D01*
X17755000Y-10857500D02*
X17725000Y-10887500D01*
X17725000Y-10857500D02*
X17755000Y-10887500D01*
X17755000Y-10857500D02*
X17725000Y-10887500D01*
X18025000Y-3582500D02*
X18055000Y-3612500D01*
X18055000Y-3582500D02*
X18025000Y-3612500D01*
X18025000Y-6007500D02*
X18055000Y-6037500D01*
X18055000Y-6007500D02*
X18025000Y-6037500D01*
X18025000Y-6007500D02*
X18055000Y-6037500D01*
X18055000Y-6007500D02*
X18025000Y-6037500D01*
X18025000Y-8432500D02*
X18055000Y-8462500D01*
X18055000Y-8432500D02*
X18025000Y-8462500D01*
X18025000Y-8432500D02*
X18055000Y-8462500D01*
X18055000Y-8432500D02*
X18025000Y-8462500D01*
X18025000Y-10857500D02*
X18055000Y-10887500D01*
X18055000Y-10857500D02*
X18025000Y-10887500D01*
X18025000Y-10857500D02*
X18055000Y-10887500D01*
X18055000Y-10857500D02*
X18025000Y-10887500D01*
X18045000Y-3887500D02*
X18075000Y-3917500D01*
X18075000Y-3887500D02*
X18045000Y-3917500D01*
X18045000Y-4042500D02*
X18075000Y-4072500D01*
X18075000Y-4042500D02*
X18045000Y-4072500D01*
X18045000Y-6312500D02*
X18075000Y-6342500D01*
X18075000Y-6312500D02*
X18045000Y-6342500D01*
X18045000Y-6467500D02*
X18075000Y-6497500D01*
X18075000Y-6467500D02*
X18045000Y-6497500D01*
X18045000Y-6467500D02*
X18075000Y-6497500D01*
X18075000Y-6467500D02*
X18045000Y-6497500D01*
X18045000Y-8737500D02*
X18075000Y-8767500D01*
X18075000Y-8737500D02*
X18045000Y-8767500D01*
X18045000Y-8892500D02*
X18075000Y-8922500D01*
X18075000Y-8892500D02*
X18045000Y-8922500D01*
X18045000Y-8892500D02*
X18075000Y-8922500D01*
X18075000Y-8892500D02*
X18045000Y-8922500D01*
X18045000Y-11162500D02*
X18075000Y-11192500D01*
X18075000Y-11162500D02*
X18045000Y-11192500D01*
X18045000Y-11317500D02*
X18075000Y-11347500D01*
X18075000Y-11317500D02*
X18045000Y-11347500D01*
X18045000Y-11317500D02*
X18075000Y-11347500D01*
X18075000Y-11317500D02*
X18045000Y-11347500D01*
X18175000Y-3587500D02*
X18205000Y-3617500D01*
X18205000Y-3587500D02*
X18175000Y-3617500D01*
X18175000Y-6012500D02*
X18205000Y-6042500D01*
X18205000Y-6012500D02*
X18175000Y-6042500D01*
X18175000Y-6012500D02*
X18205000Y-6042500D01*
X18205000Y-6012500D02*
X18175000Y-6042500D01*
X18175000Y-8437500D02*
X18205000Y-8467500D01*
X18205000Y-8437500D02*
X18175000Y-8467500D01*
X18175000Y-8437500D02*
X18205000Y-8467500D01*
X18205000Y-8437500D02*
X18175000Y-8467500D01*
X18175000Y-10862500D02*
X18205000Y-10892500D01*
X18205000Y-10862500D02*
X18175000Y-10892500D01*
X18175000Y-10862500D02*
X18205000Y-10892500D01*
X18205000Y-10862500D02*
X18175000Y-10892500D01*
X18195000Y-4042500D02*
X18225000Y-4072500D01*
X18225000Y-4042500D02*
X18195000Y-4072500D01*
X18195000Y-6467500D02*
X18225000Y-6497500D01*
X18225000Y-6467500D02*
X18195000Y-6497500D01*
X18195000Y-6467500D02*
X18225000Y-6497500D01*
X18225000Y-6467500D02*
X18195000Y-6497500D01*
X18195000Y-8892500D02*
X18225000Y-8922500D01*
X18225000Y-8892500D02*
X18195000Y-8922500D01*
X18195000Y-8892500D02*
X18225000Y-8922500D01*
X18225000Y-8892500D02*
X18195000Y-8922500D01*
X18195000Y-11317500D02*
X18225000Y-11347500D01*
X18225000Y-11317500D02*
X18195000Y-11347500D01*
X18195000Y-11317500D02*
X18225000Y-11347500D01*
X18225000Y-11317500D02*
X18195000Y-11347500D01*
X18325000Y-3582500D02*
X18355000Y-3612500D01*
X18355000Y-3582500D02*
X18325000Y-3612500D01*
X18325000Y-6007500D02*
X18355000Y-6037500D01*
X18355000Y-6007500D02*
X18325000Y-6037500D01*
X18325000Y-6007500D02*
X18355000Y-6037500D01*
X18355000Y-6007500D02*
X18325000Y-6037500D01*
X18325000Y-8432500D02*
X18355000Y-8462500D01*
X18355000Y-8432500D02*
X18325000Y-8462500D01*
X18325000Y-8432500D02*
X18355000Y-8462500D01*
X18355000Y-8432500D02*
X18325000Y-8462500D01*
X18325000Y-10857500D02*
X18355000Y-10887500D01*
X18355000Y-10857500D02*
X18325000Y-10887500D01*
X18325000Y-10857500D02*
X18355000Y-10887500D01*
X18355000Y-10857500D02*
X18325000Y-10887500D01*
X18475000Y-3587500D02*
X18505000Y-3617500D01*
X18505000Y-3587500D02*
X18475000Y-3617500D01*
X18475000Y-6012500D02*
X18505000Y-6042500D01*
X18505000Y-6012500D02*
X18475000Y-6042500D01*
X18475000Y-6012500D02*
X18505000Y-6042500D01*
X18505000Y-6012500D02*
X18475000Y-6042500D01*
X18475000Y-8437500D02*
X18505000Y-8467500D01*
X18505000Y-8437500D02*
X18475000Y-8467500D01*
X18475000Y-8437500D02*
X18505000Y-8467500D01*
X18505000Y-8437500D02*
X18475000Y-8467500D01*
X18475000Y-10862500D02*
X18505000Y-10892500D01*
X18505000Y-10862500D02*
X18475000Y-10892500D01*
X18475000Y-10862500D02*
X18505000Y-10892500D01*
X18505000Y-10862500D02*
X18475000Y-10892500D01*
X19075000Y-3897500D02*
X19105000Y-3927500D01*
X19105000Y-3897500D02*
X19075000Y-3927500D01*
X19075000Y-4052500D02*
X19105000Y-4082500D01*
X19105000Y-4052500D02*
X19075000Y-4082500D01*
X19075000Y-6322500D02*
X19105000Y-6352500D01*
X19105000Y-6322500D02*
X19075000Y-6352500D01*
X19075000Y-6322500D02*
X19105000Y-6352500D01*
X19105000Y-6322500D02*
X19075000Y-6352500D01*
X19075000Y-6477500D02*
X19105000Y-6507500D01*
X19105000Y-6477500D02*
X19075000Y-6507500D01*
X19075000Y-6477500D02*
X19105000Y-6507500D01*
X19105000Y-6477500D02*
X19075000Y-6507500D01*
X19075000Y-8747500D02*
X19105000Y-8777500D01*
X19105000Y-8747500D02*
X19075000Y-8777500D01*
X19075000Y-8747500D02*
X19105000Y-8777500D01*
X19105000Y-8747500D02*
X19075000Y-8777500D01*
X19075000Y-8902500D02*
X19105000Y-8932500D01*
X19105000Y-8902500D02*
X19075000Y-8932500D01*
X19075000Y-8902500D02*
X19105000Y-8932500D01*
X19105000Y-8902500D02*
X19075000Y-8932500D01*
X19075000Y-11172500D02*
X19105000Y-11202500D01*
X19105000Y-11172500D02*
X19075000Y-11202500D01*
X19075000Y-11172500D02*
X19105000Y-11202500D01*
X19105000Y-11172500D02*
X19075000Y-11202500D01*
X19075000Y-11327500D02*
X19105000Y-11357500D01*
X19105000Y-11327500D02*
X19075000Y-11357500D01*
X19075000Y-11327500D02*
X19105000Y-11357500D01*
X19105000Y-11327500D02*
X19075000Y-11357500D01*
X19225000Y-3897500D02*
X19255000Y-3927500D01*
X19255000Y-3897500D02*
X19225000Y-3927500D01*
X19225000Y-6322500D02*
X19255000Y-6352500D01*
X19255000Y-6322500D02*
X19225000Y-6352500D01*
X19225000Y-6322500D02*
X19255000Y-6352500D01*
X19255000Y-6322500D02*
X19225000Y-6352500D01*
X19225000Y-8747500D02*
X19255000Y-8777500D01*
X19255000Y-8747500D02*
X19225000Y-8777500D01*
X19225000Y-8747500D02*
X19255000Y-8777500D01*
X19255000Y-8747500D02*
X19225000Y-8777500D01*
X19225000Y-11172500D02*
X19255000Y-11202500D01*
X19255000Y-11172500D02*
X19225000Y-11202500D01*
X19225000Y-11172500D02*
X19255000Y-11202500D01*
X19255000Y-11172500D02*
X19225000Y-11202500D01*
X19471065Y-4120000D02*
X19501065Y-4150000D01*
X19501065Y-4120000D02*
X19471065Y-4150000D01*
X19471065Y-4200000D02*
X19501065Y-4230000D01*
X19501065Y-4200000D02*
X19471065Y-4230000D01*
X19471065Y-6545000D02*
X19501065Y-6575000D01*
X19501065Y-6545000D02*
X19471065Y-6575000D01*
X19471065Y-6545000D02*
X19501065Y-6575000D01*
X19501065Y-6545000D02*
X19471065Y-6575000D01*
X19471065Y-6625000D02*
X19501065Y-6655000D01*
X19501065Y-6625000D02*
X19471065Y-6655000D01*
X19471065Y-6625000D02*
X19501065Y-6655000D01*
X19501065Y-6625000D02*
X19471065Y-6655000D01*
X19471065Y-8970000D02*
X19501065Y-9000000D01*
X19501065Y-8970000D02*
X19471065Y-9000000D01*
X19471065Y-8970000D02*
X19501065Y-9000000D01*
X19501065Y-8970000D02*
X19471065Y-9000000D01*
X19471065Y-9050000D02*
X19501065Y-9080000D01*
X19501065Y-9050000D02*
X19471065Y-9080000D01*
X19471065Y-9050000D02*
X19501065Y-9080000D01*
X19501065Y-9050000D02*
X19471065Y-9080000D01*
X19471065Y-11395000D02*
X19501065Y-11425000D01*
X19501065Y-11395000D02*
X19471065Y-11425000D01*
X19471065Y-11395000D02*
X19501065Y-11425000D01*
X19501065Y-11395000D02*
X19471065Y-11425000D01*
X19471065Y-11475000D02*
X19501065Y-11505000D01*
X19501065Y-11475000D02*
X19471065Y-11505000D01*
X19471065Y-11475000D02*
X19501065Y-11505000D01*
X19501065Y-11475000D02*
X19471065Y-11505000D01*
X19525000Y-3652500D02*
X19555000Y-3682500D01*
X19555000Y-3652500D02*
X19525000Y-3682500D01*
X19525000Y-6077500D02*
X19555000Y-6107500D01*
X19555000Y-6077500D02*
X19525000Y-6107500D01*
X19525000Y-6077500D02*
X19555000Y-6107500D01*
X19555000Y-6077500D02*
X19525000Y-6107500D01*
X19525000Y-8502500D02*
X19555000Y-8532500D01*
X19555000Y-8502500D02*
X19525000Y-8532500D01*
X19525000Y-8502500D02*
X19555000Y-8532500D01*
X19555000Y-8502500D02*
X19525000Y-8532500D01*
X19525000Y-10927500D02*
X19555000Y-10957500D01*
X19555000Y-10927500D02*
X19525000Y-10957500D01*
X19525000Y-10927500D02*
X19555000Y-10957500D01*
X19555000Y-10927500D02*
X19525000Y-10957500D01*
X19551065Y-4120000D02*
X19581065Y-4150000D01*
X19581065Y-4120000D02*
X19551065Y-4150000D01*
X19551065Y-4200000D02*
X19581065Y-4230000D01*
X19581065Y-4200000D02*
X19551065Y-4230000D01*
X19551065Y-6545000D02*
X19581065Y-6575000D01*
X19581065Y-6545000D02*
X19551065Y-6575000D01*
X19551065Y-6545000D02*
X19581065Y-6575000D01*
X19581065Y-6545000D02*
X19551065Y-6575000D01*
X19551065Y-6625000D02*
X19581065Y-6655000D01*
X19581065Y-6625000D02*
X19551065Y-6655000D01*
X19551065Y-6625000D02*
X19581065Y-6655000D01*
X19581065Y-6625000D02*
X19551065Y-6655000D01*
X19551065Y-8970000D02*
X19581065Y-9000000D01*
X19581065Y-8970000D02*
X19551065Y-9000000D01*
X19551065Y-8970000D02*
X19581065Y-9000000D01*
X19581065Y-8970000D02*
X19551065Y-9000000D01*
X19551065Y-9050000D02*
X19581065Y-9080000D01*
X19581065Y-9050000D02*
X19551065Y-9080000D01*
X19551065Y-9050000D02*
X19581065Y-9080000D01*
X19581065Y-9050000D02*
X19551065Y-9080000D01*
X19551065Y-11395000D02*
X19581065Y-11425000D01*
X19581065Y-11395000D02*
X19551065Y-11425000D01*
X19551065Y-11395000D02*
X19581065Y-11425000D01*
X19581065Y-11395000D02*
X19551065Y-11425000D01*
X19551065Y-11475000D02*
X19581065Y-11505000D01*
X19581065Y-11475000D02*
X19551065Y-11505000D01*
X19551065Y-11475000D02*
X19581065Y-11505000D01*
X19581065Y-11475000D02*
X19551065Y-11505000D01*
X19675000Y-3657500D02*
X19705000Y-3687500D01*
X19705000Y-3657500D02*
X19675000Y-3687500D01*
X19675000Y-6082500D02*
X19705000Y-6112500D01*
X19705000Y-6082500D02*
X19675000Y-6112500D01*
X19675000Y-6082500D02*
X19705000Y-6112500D01*
X19705000Y-6082500D02*
X19675000Y-6112500D01*
X19675000Y-8507500D02*
X19705000Y-8537500D01*
X19705000Y-8507500D02*
X19675000Y-8537500D01*
X19675000Y-8507500D02*
X19705000Y-8537500D01*
X19705000Y-8507500D02*
X19675000Y-8537500D01*
X19675000Y-10932500D02*
X19705000Y-10962500D01*
X19705000Y-10932500D02*
X19675000Y-10962500D01*
X19675000Y-10932500D02*
X19705000Y-10962500D01*
X19705000Y-10932500D02*
X19675000Y-10962500D01*
X19825000Y-3652500D02*
X19855000Y-3682500D01*
X19855000Y-3652500D02*
X19825000Y-3682500D01*
X19825000Y-6077500D02*
X19855000Y-6107500D01*
X19855000Y-6077500D02*
X19825000Y-6107500D01*
X19825000Y-6077500D02*
X19855000Y-6107500D01*
X19855000Y-6077500D02*
X19825000Y-6107500D01*
X19825000Y-8502500D02*
X19855000Y-8532500D01*
X19855000Y-8502500D02*
X19825000Y-8532500D01*
X19825000Y-8502500D02*
X19855000Y-8532500D01*
X19855000Y-8502500D02*
X19825000Y-8532500D01*
X19825000Y-10927500D02*
X19855000Y-10957500D01*
X19855000Y-10927500D02*
X19825000Y-10957500D01*
X19825000Y-10927500D02*
X19855000Y-10957500D01*
X19855000Y-10927500D02*
X19825000Y-10957500D01*
X20125000Y-3652500D02*
X20155000Y-3682500D01*
X20155000Y-3652500D02*
X20125000Y-3682500D01*
X20125000Y-6077500D02*
X20155000Y-6107500D01*
X20155000Y-6077500D02*
X20125000Y-6107500D01*
X20125000Y-6077500D02*
X20155000Y-6107500D01*
X20155000Y-6077500D02*
X20125000Y-6107500D01*
X20125000Y-8502500D02*
X20155000Y-8532500D01*
X20155000Y-8502500D02*
X20125000Y-8532500D01*
X20125000Y-8502500D02*
X20155000Y-8532500D01*
X20155000Y-8502500D02*
X20125000Y-8532500D01*
X20125000Y-10927500D02*
X20155000Y-10957500D01*
X20155000Y-10927500D02*
X20125000Y-10957500D01*
X20125000Y-10927500D02*
X20155000Y-10957500D01*
X20155000Y-10927500D02*
X20125000Y-10957500D01*
X20275000Y-3657500D02*
X20305000Y-3687500D01*
X20305000Y-3657500D02*
X20275000Y-3687500D01*
X20275000Y-6082500D02*
X20305000Y-6112500D01*
X20305000Y-6082500D02*
X20275000Y-6112500D01*
X20275000Y-6082500D02*
X20305000Y-6112500D01*
X20305000Y-6082500D02*
X20275000Y-6112500D01*
X20275000Y-8507500D02*
X20305000Y-8537500D01*
X20305000Y-8507500D02*
X20275000Y-8537500D01*
X20275000Y-8507500D02*
X20305000Y-8537500D01*
X20305000Y-8507500D02*
X20275000Y-8537500D01*
X20275000Y-10932500D02*
X20305000Y-10962500D01*
X20305000Y-10932500D02*
X20275000Y-10962500D01*
X20275000Y-10932500D02*
X20305000Y-10962500D01*
X20305000Y-10932500D02*
X20275000Y-10962500D01*
X20816000Y-3777500D02*
X20846000Y-3807500D01*
X20846000Y-3777500D02*
X20816000Y-3807500D01*
X20816000Y-6202500D02*
X20846000Y-6232500D01*
X20846000Y-6202500D02*
X20816000Y-6232500D01*
X20816000Y-6202500D02*
X20846000Y-6232500D01*
X20846000Y-6202500D02*
X20816000Y-6232500D01*
X20816000Y-8627500D02*
X20846000Y-8657500D01*
X20846000Y-8627500D02*
X20816000Y-8657500D01*
X20816000Y-8627500D02*
X20846000Y-8657500D01*
X20846000Y-8627500D02*
X20816000Y-8657500D01*
X20816000Y-11052500D02*
X20846000Y-11082500D01*
X20846000Y-11052500D02*
X20816000Y-11082500D01*
X20816000Y-11052500D02*
X20846000Y-11082500D01*
X20846000Y-11052500D02*
X20816000Y-11082500D01*
X20965000Y-4587500D02*
X20995000Y-4617500D01*
X20995000Y-4587500D02*
X20965000Y-4617500D01*
X20965000Y-4742500D02*
X20995000Y-4772500D01*
X20995000Y-4742500D02*
X20965000Y-4772500D01*
X20965000Y-7012500D02*
X20995000Y-7042500D01*
X20995000Y-7012500D02*
X20965000Y-7042500D01*
X20965000Y-7012500D02*
X20995000Y-7042500D01*
X20995000Y-7012500D02*
X20965000Y-7042500D01*
X20965000Y-7167500D02*
X20995000Y-7197500D01*
X20995000Y-7167500D02*
X20965000Y-7197500D01*
X20965000Y-7167500D02*
X20995000Y-7197500D01*
X20995000Y-7167500D02*
X20965000Y-7197500D01*
X20965000Y-9437500D02*
X20995000Y-9467500D01*
X20995000Y-9437500D02*
X20965000Y-9467500D01*
X20965000Y-9437500D02*
X20995000Y-9467500D01*
X20995000Y-9437500D02*
X20965000Y-9467500D01*
X20965000Y-9592500D02*
X20995000Y-9622500D01*
X20995000Y-9592500D02*
X20965000Y-9622500D01*
X20965000Y-9592500D02*
X20995000Y-9622500D01*
X20995000Y-9592500D02*
X20965000Y-9622500D01*
X20965000Y-11862500D02*
X20995000Y-11892500D01*
X20995000Y-11862500D02*
X20965000Y-11892500D01*
X20965000Y-11862500D02*
X20995000Y-11892500D01*
X20995000Y-11862500D02*
X20965000Y-11892500D01*
X20965000Y-12017500D02*
X20995000Y-12047500D01*
X20995000Y-12017500D02*
X20965000Y-12047500D01*
X20965000Y-12017500D02*
X20995000Y-12047500D01*
X20995000Y-12017500D02*
X20965000Y-12047500D01*
X20966000Y-3777500D02*
X20996000Y-3807500D01*
X20996000Y-3777500D02*
X20966000Y-3807500D01*
X20966000Y-6202500D02*
X20996000Y-6232500D01*
X20996000Y-6202500D02*
X20966000Y-6232500D01*
X20966000Y-6202500D02*
X20996000Y-6232500D01*
X20996000Y-6202500D02*
X20966000Y-6232500D01*
X20966000Y-8627500D02*
X20996000Y-8657500D01*
X20996000Y-8627500D02*
X20966000Y-8657500D01*
X20966000Y-8627500D02*
X20996000Y-8657500D01*
X20996000Y-8627500D02*
X20966000Y-8657500D01*
X20966000Y-11052500D02*
X20996000Y-11082500D01*
X20996000Y-11052500D02*
X20966000Y-11082500D01*
X20966000Y-11052500D02*
X20996000Y-11082500D01*
X20996000Y-11052500D02*
X20966000Y-11082500D01*
X21114000Y-3772500D02*
X21144000Y-3802500D01*
X21144000Y-3772500D02*
X21114000Y-3802500D01*
X21114000Y-6197500D02*
X21144000Y-6227500D01*
X21144000Y-6197500D02*
X21114000Y-6227500D01*
X21114000Y-6197500D02*
X21144000Y-6227500D01*
X21144000Y-6197500D02*
X21114000Y-6227500D01*
X21114000Y-8622500D02*
X21144000Y-8652500D01*
X21144000Y-8622500D02*
X21114000Y-8652500D01*
X21114000Y-8622500D02*
X21144000Y-8652500D01*
X21144000Y-8622500D02*
X21114000Y-8652500D01*
X21114000Y-11047500D02*
X21144000Y-11077500D01*
X21144000Y-11047500D02*
X21114000Y-11077500D01*
X21114000Y-11047500D02*
X21144000Y-11077500D01*
X21144000Y-11047500D02*
X21114000Y-11077500D01*
X21115000Y-4587500D02*
X21145000Y-4617500D01*
X21145000Y-4587500D02*
X21115000Y-4617500D01*
X21115000Y-7012500D02*
X21145000Y-7042500D01*
X21145000Y-7012500D02*
X21115000Y-7042500D01*
X21115000Y-7012500D02*
X21145000Y-7042500D01*
X21145000Y-7012500D02*
X21115000Y-7042500D01*
X21115000Y-9437500D02*
X21145000Y-9467500D01*
X21145000Y-9437500D02*
X21115000Y-9467500D01*
X21115000Y-9437500D02*
X21145000Y-9467500D01*
X21145000Y-9437500D02*
X21115000Y-9467500D01*
X21115000Y-11862500D02*
X21145000Y-11892500D01*
X21145000Y-11862500D02*
X21115000Y-11892500D01*
X21115000Y-11862500D02*
X21145000Y-11892500D01*
X21145000Y-11862500D02*
X21115000Y-11892500D01*
X21265000Y-4747500D02*
X21295000Y-4777500D01*
X21295000Y-4747500D02*
X21265000Y-4777500D01*
X21265000Y-7172500D02*
X21295000Y-7202500D01*
X21295000Y-7172500D02*
X21265000Y-7202500D01*
X21265000Y-9597500D02*
X21295000Y-9627500D01*
X21295000Y-9597500D02*
X21265000Y-9627500D01*
X21265000Y-12022500D02*
X21295000Y-12052500D01*
X21295000Y-12022500D02*
X21265000Y-12052500D01*
X21265000Y-12022500D02*
X21295000Y-12052500D01*
X21295000Y-12022500D02*
X21265000Y-12052500D01*
X21320000Y-3891000D02*
X21350000Y-3921000D01*
X21350000Y-3891000D02*
X21320000Y-3921000D01*
X21320000Y-6316000D02*
X21350000Y-6346000D01*
X21350000Y-6316000D02*
X21320000Y-6346000D01*
X21320000Y-6316000D02*
X21350000Y-6346000D01*
X21350000Y-6316000D02*
X21320000Y-6346000D01*
X21320000Y-8741000D02*
X21350000Y-8771000D01*
X21350000Y-8741000D02*
X21320000Y-8771000D01*
X21320000Y-8741000D02*
X21350000Y-8771000D01*
X21350000Y-8741000D02*
X21320000Y-8771000D01*
X21320000Y-11166000D02*
X21350000Y-11196000D01*
X21350000Y-11166000D02*
X21320000Y-11196000D01*
X21320000Y-11166000D02*
X21350000Y-11196000D01*
X21350000Y-11166000D02*
X21320000Y-11196000D01*
X21402000Y-4220000D02*
X21432000Y-4250000D01*
X21432000Y-4220000D02*
X21402000Y-4250000D01*
X21402000Y-4300000D02*
X21432000Y-4330000D01*
X21432000Y-4300000D02*
X21402000Y-4330000D01*
X21402000Y-6645000D02*
X21432000Y-6675000D01*
X21432000Y-6645000D02*
X21402000Y-6675000D01*
X21402000Y-6645000D02*
X21432000Y-6675000D01*
X21432000Y-6645000D02*
X21402000Y-6675000D01*
X21402000Y-6725000D02*
X21432000Y-6755000D01*
X21432000Y-6725000D02*
X21402000Y-6755000D01*
X21402000Y-6725000D02*
X21432000Y-6755000D01*
X21432000Y-6725000D02*
X21402000Y-6755000D01*
X21402000Y-9070000D02*
X21432000Y-9100000D01*
X21432000Y-9070000D02*
X21402000Y-9100000D01*
X21402000Y-9070000D02*
X21432000Y-9100000D01*
X21432000Y-9070000D02*
X21402000Y-9100000D01*
X21402000Y-9150000D02*
X21432000Y-9180000D01*
X21432000Y-9150000D02*
X21402000Y-9180000D01*
X21402000Y-9150000D02*
X21432000Y-9180000D01*
X21432000Y-9150000D02*
X21402000Y-9180000D01*
X21402000Y-11495000D02*
X21432000Y-11525000D01*
X21432000Y-11495000D02*
X21402000Y-11525000D01*
X21402000Y-11495000D02*
X21432000Y-11525000D01*
X21432000Y-11495000D02*
X21402000Y-11525000D01*
X21402000Y-11575000D02*
X21432000Y-11605000D01*
X21432000Y-11575000D02*
X21402000Y-11605000D01*
X21402000Y-11575000D02*
X21432000Y-11605000D01*
X21432000Y-11575000D02*
X21402000Y-11605000D01*
X21470000Y-3435000D02*
X21500000Y-3465000D01*
X21500000Y-3435000D02*
X21470000Y-3465000D01*
X21470000Y-5860000D02*
X21500000Y-5890000D01*
X21500000Y-5860000D02*
X21470000Y-5890000D01*
X21470000Y-5860000D02*
X21500000Y-5890000D01*
X21500000Y-5860000D02*
X21470000Y-5890000D01*
X21470000Y-8285000D02*
X21500000Y-8315000D01*
X21500000Y-8285000D02*
X21470000Y-8315000D01*
X21470000Y-8285000D02*
X21500000Y-8315000D01*
X21500000Y-8285000D02*
X21470000Y-8315000D01*
X21470000Y-10710000D02*
X21500000Y-10740000D01*
X21500000Y-10710000D02*
X21470000Y-10740000D01*
X21470000Y-10710000D02*
X21500000Y-10740000D01*
X21500000Y-10710000D02*
X21470000Y-10740000D01*
X21482000Y-4220000D02*
X21512000Y-4250000D01*
X21512000Y-4220000D02*
X21482000Y-4250000D01*
X21482000Y-4300000D02*
X21512000Y-4330000D01*
X21512000Y-4300000D02*
X21482000Y-4330000D01*
X21482000Y-6645000D02*
X21512000Y-6675000D01*
X21512000Y-6645000D02*
X21482000Y-6675000D01*
X21482000Y-6645000D02*
X21512000Y-6675000D01*
X21512000Y-6645000D02*
X21482000Y-6675000D01*
X21482000Y-6725000D02*
X21512000Y-6755000D01*
X21512000Y-6725000D02*
X21482000Y-6755000D01*
X21482000Y-6725000D02*
X21512000Y-6755000D01*
X21512000Y-6725000D02*
X21482000Y-6755000D01*
X21482000Y-9070000D02*
X21512000Y-9100000D01*
X21512000Y-9070000D02*
X21482000Y-9100000D01*
X21482000Y-9070000D02*
X21512000Y-9100000D01*
X21512000Y-9070000D02*
X21482000Y-9100000D01*
X21482000Y-9150000D02*
X21512000Y-9180000D01*
X21512000Y-9150000D02*
X21482000Y-9180000D01*
X21482000Y-9150000D02*
X21512000Y-9180000D01*
X21512000Y-9150000D02*
X21482000Y-9180000D01*
X21482000Y-11495000D02*
X21512000Y-11525000D01*
X21512000Y-11495000D02*
X21482000Y-11525000D01*
X21482000Y-11495000D02*
X21512000Y-11525000D01*
X21512000Y-11495000D02*
X21482000Y-11525000D01*
X21482000Y-11575000D02*
X21512000Y-11605000D01*
X21512000Y-11575000D02*
X21482000Y-11605000D01*
X21482000Y-11575000D02*
X21512000Y-11605000D01*
X21512000Y-11575000D02*
X21482000Y-11605000D01*
X21620000Y-3891000D02*
X21650000Y-3921000D01*
X21650000Y-3891000D02*
X21620000Y-3921000D01*
X21620000Y-6316000D02*
X21650000Y-6346000D01*
X21650000Y-6316000D02*
X21620000Y-6346000D01*
X21620000Y-6316000D02*
X21650000Y-6346000D01*
X21650000Y-6316000D02*
X21620000Y-6346000D01*
X21620000Y-8741000D02*
X21650000Y-8771000D01*
X21650000Y-8741000D02*
X21620000Y-8771000D01*
X21620000Y-8741000D02*
X21650000Y-8771000D01*
X21650000Y-8741000D02*
X21620000Y-8771000D01*
X21620000Y-11166000D02*
X21650000Y-11196000D01*
X21650000Y-11166000D02*
X21620000Y-11196000D01*
X21620000Y-11166000D02*
X21650000Y-11196000D01*
X21650000Y-11166000D02*
X21620000Y-11196000D01*
X21840000Y-3707500D02*
X21870000Y-3737500D01*
X21870000Y-3707500D02*
X21840000Y-3737500D01*
X21840000Y-6132500D02*
X21870000Y-6162500D01*
X21870000Y-6132500D02*
X21840000Y-6162500D01*
X21840000Y-6132500D02*
X21870000Y-6162500D01*
X21870000Y-6132500D02*
X21840000Y-6162500D01*
X21840000Y-8557500D02*
X21870000Y-8587500D01*
X21870000Y-8557500D02*
X21840000Y-8587500D01*
X21840000Y-8557500D02*
X21870000Y-8587500D01*
X21870000Y-8557500D02*
X21840000Y-8587500D01*
X21840000Y-10982500D02*
X21870000Y-11012500D01*
X21870000Y-10982500D02*
X21840000Y-11012500D01*
X21840000Y-10982500D02*
X21870000Y-11012500D01*
X21870000Y-10982500D02*
X21840000Y-11012500D01*
X21990000Y-3712500D02*
X22020000Y-3742500D01*
X22020000Y-3712500D02*
X21990000Y-3742500D01*
X21990000Y-6137500D02*
X22020000Y-6167500D01*
X22020000Y-6137500D02*
X21990000Y-6167500D01*
X21990000Y-6137500D02*
X22020000Y-6167500D01*
X22020000Y-6137500D02*
X21990000Y-6167500D01*
X21990000Y-8562500D02*
X22020000Y-8592500D01*
X22020000Y-8562500D02*
X21990000Y-8592500D01*
X21990000Y-8562500D02*
X22020000Y-8592500D01*
X22020000Y-8562500D02*
X21990000Y-8592500D01*
X21990000Y-10987500D02*
X22020000Y-11017500D01*
X22020000Y-10987500D02*
X21990000Y-11017500D01*
X21990000Y-10987500D02*
X22020000Y-11017500D01*
X22020000Y-10987500D02*
X21990000Y-11017500D01*
X22140000Y-3712500D02*
X22170000Y-3742500D01*
X22170000Y-3712500D02*
X22140000Y-3742500D01*
X22140000Y-6137500D02*
X22170000Y-6167500D01*
X22170000Y-6137500D02*
X22140000Y-6167500D01*
X22140000Y-6137500D02*
X22170000Y-6167500D01*
X22170000Y-6137500D02*
X22140000Y-6167500D01*
X22140000Y-8562500D02*
X22170000Y-8592500D01*
X22170000Y-8562500D02*
X22140000Y-8592500D01*
X22140000Y-8562500D02*
X22170000Y-8592500D01*
X22170000Y-8562500D02*
X22140000Y-8592500D01*
X22140000Y-10987500D02*
X22170000Y-11017500D01*
X22170000Y-10987500D02*
X22140000Y-11017500D01*
X22140000Y-10987500D02*
X22170000Y-11017500D01*
X22170000Y-10987500D02*
X22140000Y-11017500D01*
X22555000Y-4710000D02*
X22585000Y-4740000D01*
X22585000Y-4710000D02*
X22555000Y-4740000D01*
X22555000Y-7135000D02*
X22585000Y-7165000D01*
X22585000Y-7135000D02*
X22555000Y-7165000D01*
X22555000Y-7135000D02*
X22585000Y-7165000D01*
X22585000Y-7135000D02*
X22555000Y-7165000D01*
X22555000Y-9560000D02*
X22585000Y-9590000D01*
X22585000Y-9560000D02*
X22555000Y-9590000D01*
X22555000Y-9560000D02*
X22585000Y-9590000D01*
X22585000Y-9560000D02*
X22555000Y-9590000D01*
X22555000Y-11985000D02*
X22585000Y-12015000D01*
X22585000Y-11985000D02*
X22555000Y-12015000D01*
X22555000Y-11985000D02*
X22585000Y-12015000D01*
X22585000Y-11985000D02*
X22555000Y-12015000D01*
X22556000Y-3860000D02*
X22586000Y-3890000D01*
X22586000Y-3860000D02*
X22556000Y-3890000D01*
X22556000Y-6285000D02*
X22586000Y-6315000D01*
X22586000Y-6285000D02*
X22556000Y-6315000D01*
X22556000Y-6285000D02*
X22586000Y-6315000D01*
X22586000Y-6285000D02*
X22556000Y-6315000D01*
X22556000Y-8710000D02*
X22586000Y-8740000D01*
X22586000Y-8710000D02*
X22556000Y-8740000D01*
X22556000Y-8710000D02*
X22586000Y-8740000D01*
X22586000Y-8710000D02*
X22556000Y-8740000D01*
X22556000Y-11135000D02*
X22586000Y-11165000D01*
X22586000Y-11135000D02*
X22556000Y-11165000D01*
X22556000Y-11135000D02*
X22586000Y-11165000D01*
X22586000Y-11135000D02*
X22556000Y-11165000D01*
X22640000Y-4710000D02*
X22670000Y-4740000D01*
X22670000Y-4710000D02*
X22640000Y-4740000D01*
X22640000Y-7135000D02*
X22670000Y-7165000D01*
X22670000Y-7135000D02*
X22640000Y-7165000D01*
X22640000Y-7135000D02*
X22670000Y-7165000D01*
X22670000Y-7135000D02*
X22640000Y-7165000D01*
X22640000Y-9560000D02*
X22670000Y-9590000D01*
X22670000Y-9560000D02*
X22640000Y-9590000D01*
X22640000Y-9560000D02*
X22670000Y-9590000D01*
X22670000Y-9560000D02*
X22640000Y-9590000D01*
X22640000Y-11985000D02*
X22670000Y-12015000D01*
X22670000Y-11985000D02*
X22640000Y-12015000D01*
X22640000Y-11985000D02*
X22670000Y-12015000D01*
X22670000Y-11985000D02*
X22640000Y-12015000D01*
X22641000Y-3860000D02*
X22671000Y-3890000D01*
X22671000Y-3860000D02*
X22641000Y-3890000D01*
X22641000Y-6285000D02*
X22671000Y-6315000D01*
X22671000Y-6285000D02*
X22641000Y-6315000D01*
X22641000Y-6285000D02*
X22671000Y-6315000D01*
X22671000Y-6285000D02*
X22641000Y-6315000D01*
X22641000Y-8710000D02*
X22671000Y-8740000D01*
X22671000Y-8710000D02*
X22641000Y-8740000D01*
X22641000Y-8710000D02*
X22671000Y-8740000D01*
X22671000Y-8710000D02*
X22641000Y-8740000D01*
X22641000Y-11135000D02*
X22671000Y-11165000D01*
X22671000Y-11135000D02*
X22641000Y-11165000D01*
X22641000Y-11135000D02*
X22671000Y-11165000D01*
X22671000Y-11135000D02*
X22641000Y-11165000D01*
X22725000Y-4710000D02*
X22755000Y-4740000D01*
X22755000Y-4710000D02*
X22725000Y-4740000D01*
X22725000Y-7135000D02*
X22755000Y-7165000D01*
X22755000Y-7135000D02*
X22725000Y-7165000D01*
X22725000Y-7135000D02*
X22755000Y-7165000D01*
X22755000Y-7135000D02*
X22725000Y-7165000D01*
X22725000Y-9560000D02*
X22755000Y-9590000D01*
X22755000Y-9560000D02*
X22725000Y-9590000D01*
X22725000Y-9560000D02*
X22755000Y-9590000D01*
X22755000Y-9560000D02*
X22725000Y-9590000D01*
X22725000Y-11985000D02*
X22755000Y-12015000D01*
X22755000Y-11985000D02*
X22725000Y-12015000D01*
X22725000Y-11985000D02*
X22755000Y-12015000D01*
X22755000Y-11985000D02*
X22725000Y-12015000D01*
X22726000Y-3860000D02*
X22756000Y-3890000D01*
X22756000Y-3860000D02*
X22726000Y-3890000D01*
X22726000Y-6285000D02*
X22756000Y-6315000D01*
X22756000Y-6285000D02*
X22726000Y-6315000D01*
X22726000Y-6285000D02*
X22756000Y-6315000D01*
X22756000Y-6285000D02*
X22726000Y-6315000D01*
X22726000Y-8710000D02*
X22756000Y-8740000D01*
X22756000Y-8710000D02*
X22726000Y-8740000D01*
X22726000Y-8710000D02*
X22756000Y-8740000D01*
X22756000Y-8710000D02*
X22726000Y-8740000D01*
X22726000Y-11135000D02*
X22756000Y-11165000D01*
X22756000Y-11135000D02*
X22726000Y-11165000D01*
X22726000Y-11135000D02*
X22756000Y-11165000D01*
X22756000Y-11135000D02*
X22726000Y-11165000D01*
X22810000Y-4710000D02*
X22840000Y-4740000D01*
X22840000Y-4710000D02*
X22810000Y-4740000D01*
X22810000Y-7135000D02*
X22840000Y-7165000D01*
X22840000Y-7135000D02*
X22810000Y-7165000D01*
X22810000Y-7135000D02*
X22840000Y-7165000D01*
X22840000Y-7135000D02*
X22810000Y-7165000D01*
X22810000Y-9560000D02*
X22840000Y-9590000D01*
X22840000Y-9560000D02*
X22810000Y-9590000D01*
X22810000Y-9560000D02*
X22840000Y-9590000D01*
X22840000Y-9560000D02*
X22810000Y-9590000D01*
X22810000Y-11985000D02*
X22840000Y-12015000D01*
X22840000Y-11985000D02*
X22810000Y-12015000D01*
X22810000Y-11985000D02*
X22840000Y-12015000D01*
X22840000Y-11985000D02*
X22810000Y-12015000D01*
X22811000Y-3860000D02*
X22841000Y-3890000D01*
X22841000Y-3860000D02*
X22811000Y-3890000D01*
X22811000Y-6285000D02*
X22841000Y-6315000D01*
X22841000Y-6285000D02*
X22811000Y-6315000D01*
X22811000Y-6285000D02*
X22841000Y-6315000D01*
X22841000Y-6285000D02*
X22811000Y-6315000D01*
X22811000Y-8710000D02*
X22841000Y-8740000D01*
X22841000Y-8710000D02*
X22811000Y-8740000D01*
X22811000Y-8710000D02*
X22841000Y-8740000D01*
X22841000Y-8710000D02*
X22811000Y-8740000D01*
X22811000Y-11135000D02*
X22841000Y-11165000D01*
X22841000Y-11135000D02*
X22811000Y-11165000D01*
X22811000Y-11135000D02*
X22841000Y-11165000D01*
X22841000Y-11135000D02*
X22811000Y-11165000D01*
X22895000Y-4710000D02*
X22925000Y-4740000D01*
X22925000Y-4710000D02*
X22895000Y-4740000D01*
X22895000Y-7135000D02*
X22925000Y-7165000D01*
X22925000Y-7135000D02*
X22895000Y-7165000D01*
X22895000Y-7135000D02*
X22925000Y-7165000D01*
X22925000Y-7135000D02*
X22895000Y-7165000D01*
X22895000Y-9560000D02*
X22925000Y-9590000D01*
X22925000Y-9560000D02*
X22895000Y-9590000D01*
X22895000Y-9560000D02*
X22925000Y-9590000D01*
X22925000Y-9560000D02*
X22895000Y-9590000D01*
X22895000Y-11985000D02*
X22925000Y-12015000D01*
X22925000Y-11985000D02*
X22895000Y-12015000D01*
X22895000Y-11985000D02*
X22925000Y-12015000D01*
X22925000Y-11985000D02*
X22895000Y-12015000D01*
X22896000Y-3860000D02*
X22926000Y-3890000D01*
X22926000Y-3860000D02*
X22896000Y-3890000D01*
X22896000Y-6285000D02*
X22926000Y-6315000D01*
X22926000Y-6285000D02*
X22896000Y-6315000D01*
X22896000Y-6285000D02*
X22926000Y-6315000D01*
X22926000Y-6285000D02*
X22896000Y-6315000D01*
X22896000Y-8710000D02*
X22926000Y-8740000D01*
X22926000Y-8710000D02*
X22896000Y-8740000D01*
X22896000Y-8710000D02*
X22926000Y-8740000D01*
X22926000Y-8710000D02*
X22896000Y-8740000D01*
X22896000Y-11135000D02*
X22926000Y-11165000D01*
X22926000Y-11135000D02*
X22896000Y-11165000D01*
X22896000Y-11135000D02*
X22926000Y-11165000D01*
X22926000Y-11135000D02*
X22896000Y-11165000D01*
X8543500Y-3599000D02*
G75*
G02*
X8443500Y-3599000I-50000J0D01*
G01*
X8443500Y-3599000D02*
G75*
G02*
X8543500Y-3599000I50000J0D01*
G01*
X8543500Y-3853000D02*
G75*
G02*
X8443500Y-3853000I-50000J0D01*
G01*
X8443500Y-3853000D02*
G75*
G02*
X8543500Y-3853000I50000J0D01*
G01*
X8543500Y-4107000D02*
G75*
G02*
X8443500Y-4107000I-50000J0D01*
G01*
X8443500Y-4107000D02*
G75*
G02*
X8543500Y-4107000I50000J0D01*
G01*
X8543500Y-4361000D02*
G75*
G02*
X8443500Y-4361000I-50000J0D01*
G01*
X8443500Y-4361000D02*
G75*
G02*
X8543500Y-4361000I50000J0D01*
G01*
X8543500Y-4615000D02*
G75*
G02*
X8443500Y-4615000I-50000J0D01*
G01*
X8443500Y-4615000D02*
G75*
G02*
X8543500Y-4615000I50000J0D01*
G01*
X8543500Y-4869000D02*
G75*
G02*
X8443500Y-4869000I-50000J0D01*
G01*
X8443500Y-4869000D02*
G75*
G02*
X8543500Y-4869000I50000J0D01*
G01*
X8543500Y-5123000D02*
G75*
G02*
X8443500Y-5123000I-50000J0D01*
G01*
X8443500Y-5123000D02*
G75*
G02*
X8543500Y-5123000I50000J0D01*
G01*
X8543500Y-5377000D02*
G75*
G02*
X8443500Y-5377000I-50000J0D01*
G01*
X8443500Y-5377000D02*
G75*
G02*
X8543500Y-5377000I50000J0D01*
G01*
X8570000Y-10560000D02*
G75*
G02*
X8470000Y-10560000I-50000J0D01*
G01*
X8470000Y-10560000D02*
G75*
G02*
X8570000Y-10560000I50000J0D01*
G01*
X8570000Y-10814000D02*
G75*
G02*
X8470000Y-10814000I-50000J0D01*
G01*
X8470000Y-10814000D02*
G75*
G02*
X8570000Y-10814000I50000J0D01*
G01*
X8570000Y-11068000D02*
G75*
G02*
X8470000Y-11068000I-50000J0D01*
G01*
X8470000Y-11068000D02*
G75*
G02*
X8570000Y-11068000I50000J0D01*
G01*
X8797500Y-3599000D02*
G75*
G02*
X8697500Y-3599000I-50000J0D01*
G01*
X8697500Y-3599000D02*
G75*
G02*
X8797500Y-3599000I50000J0D01*
G01*
X8797500Y-3853000D02*
G75*
G02*
X8697500Y-3853000I-50000J0D01*
G01*
X8697500Y-3853000D02*
G75*
G02*
X8797500Y-3853000I50000J0D01*
G01*
X8797500Y-4107000D02*
G75*
G02*
X8697500Y-4107000I-50000J0D01*
G01*
X8697500Y-4107000D02*
G75*
G02*
X8797500Y-4107000I50000J0D01*
G01*
X8797500Y-4361000D02*
G75*
G02*
X8697500Y-4361000I-50000J0D01*
G01*
X8697500Y-4361000D02*
G75*
G02*
X8797500Y-4361000I50000J0D01*
G01*
X8797500Y-4615000D02*
G75*
G02*
X8697500Y-4615000I-50000J0D01*
G01*
X8697500Y-4615000D02*
G75*
G02*
X8797500Y-4615000I50000J0D01*
G01*
X8797500Y-4869000D02*
G75*
G02*
X8697500Y-4869000I-50000J0D01*
G01*
X8697500Y-4869000D02*
G75*
G02*
X8797500Y-4869000I50000J0D01*
G01*
X8797500Y-5123000D02*
G75*
G02*
X8697500Y-5123000I-50000J0D01*
G01*
X8697500Y-5123000D02*
G75*
G02*
X8797500Y-5123000I50000J0D01*
G01*
X8797500Y-5377000D02*
G75*
G02*
X8697500Y-5377000I-50000J0D01*
G01*
X8697500Y-5377000D02*
G75*
G02*
X8797500Y-5377000I50000J0D01*
G01*
X9678000Y-9292000D02*
G75*
G02*
X9578000Y-9292000I-50000J0D01*
G01*
X9578000Y-9292000D02*
G75*
G02*
X9678000Y-9292000I50000J0D01*
G01*
X9678000Y-12192000D02*
G75*
G02*
X9578000Y-12192000I-50000J0D01*
G01*
X9578000Y-12192000D02*
G75*
G02*
X9678000Y-12192000I50000J0D01*
G01*
X11100000Y-3321000D02*
G75*
G02*
X11000000Y-3321000I-50000J0D01*
G01*
X11000000Y-3321000D02*
G75*
G02*
X11100000Y-3321000I50000J0D01*
G01*
X11100000Y-3575000D02*
G75*
G02*
X11000000Y-3575000I-50000J0D01*
G01*
X11000000Y-3575000D02*
G75*
G02*
X11100000Y-3575000I50000J0D01*
G01*
X11354000Y-3321000D02*
G75*
G02*
X11254000Y-3321000I-50000J0D01*
G01*
X11254000Y-3321000D02*
G75*
G02*
X11354000Y-3321000I50000J0D01*
G01*
X11354000Y-3575000D02*
G75*
G02*
X11254000Y-3575000I-50000J0D01*
G01*
X11254000Y-3575000D02*
G75*
G02*
X11354000Y-3575000I50000J0D01*
G01*
X11608000Y-3321000D02*
G75*
G02*
X11508000Y-3321000I-50000J0D01*
G01*
X11508000Y-3321000D02*
G75*
G02*
X11608000Y-3321000I50000J0D01*
G01*
X11608000Y-3575000D02*
G75*
G02*
X11508000Y-3575000I-50000J0D01*
G01*
X11508000Y-3575000D02*
G75*
G02*
X11608000Y-3575000I50000J0D01*
G01*
X11862000Y-3321000D02*
G75*
G02*
X11762000Y-3321000I-50000J0D01*
G01*
X11762000Y-3321000D02*
G75*
G02*
X11862000Y-3321000I50000J0D01*
G01*
X11862000Y-3575000D02*
G75*
G02*
X11762000Y-3575000I-50000J0D01*
G01*
X11762000Y-3575000D02*
G75*
G02*
X11862000Y-3575000I50000J0D01*
G01*
X12116000Y-3321000D02*
G75*
G02*
X12016000Y-3321000I-50000J0D01*
G01*
X12016000Y-3321000D02*
G75*
G02*
X12116000Y-3321000I50000J0D01*
G01*
X12116000Y-3575000D02*
G75*
G02*
X12016000Y-3575000I-50000J0D01*
G01*
X12016000Y-3575000D02*
G75*
G02*
X12116000Y-3575000I50000J0D01*
G01*
X12370000Y-3321000D02*
G75*
G02*
X12270000Y-3321000I-50000J0D01*
G01*
X12270000Y-3321000D02*
G75*
G02*
X12370000Y-3321000I50000J0D01*
G01*
X12370000Y-3575000D02*
G75*
G02*
X12270000Y-3575000I-50000J0D01*
G01*
X12270000Y-3575000D02*
G75*
G02*
X12370000Y-3575000I50000J0D01*
G01*
X12624000Y-3321000D02*
G75*
G02*
X12524000Y-3321000I-50000J0D01*
G01*
X12524000Y-3321000D02*
G75*
G02*
X12624000Y-3321000I50000J0D01*
G01*
X12624000Y-3575000D02*
G75*
G02*
X12524000Y-3575000I-50000J0D01*
G01*
X12524000Y-3575000D02*
G75*
G02*
X12624000Y-3575000I50000J0D01*
G01*
X12778000Y-9292000D02*
G75*
G02*
X12678000Y-9292000I-50000J0D01*
G01*
X12678000Y-9292000D02*
G75*
G02*
X12778000Y-9292000I50000J0D01*
G01*
X12778000Y-12192000D02*
G75*
G02*
X12678000Y-12192000I-50000J0D01*
G01*
X12678000Y-12192000D02*
G75*
G02*
X12778000Y-12192000I50000J0D01*
G01*
X12878000Y-3321000D02*
G75*
G02*
X12778000Y-3321000I-50000J0D01*
G01*
X12778000Y-3321000D02*
G75*
G02*
X12878000Y-3321000I50000J0D01*
G01*
X12878000Y-3575000D02*
G75*
G02*
X12778000Y-3575000I-50000J0D01*
G01*
X12778000Y-3575000D02*
G75*
G02*
X12878000Y-3575000I50000J0D01*
G01*
X13132000Y-3321000D02*
G75*
G02*
X13032000Y-3321000I-50000J0D01*
G01*
X13032000Y-3321000D02*
G75*
G02*
X13132000Y-3321000I50000J0D01*
G01*
X13132000Y-3575000D02*
G75*
G02*
X13032000Y-3575000I-50000J0D01*
G01*
X13032000Y-3575000D02*
G75*
G02*
X13132000Y-3575000I50000J0D01*
G01*
X13386000Y-3321000D02*
G75*
G02*
X13286000Y-3321000I-50000J0D01*
G01*
X13286000Y-3321000D02*
G75*
G02*
X13386000Y-3321000I50000J0D01*
G01*
X13386000Y-3575000D02*
G75*
G02*
X13286000Y-3575000I-50000J0D01*
G01*
X13286000Y-3575000D02*
G75*
G02*
X13386000Y-3575000I50000J0D01*
G01*
X13640000Y-3321000D02*
G75*
G02*
X13540000Y-3321000I-50000J0D01*
G01*
X13540000Y-3321000D02*
G75*
G02*
X13640000Y-3321000I50000J0D01*
G01*
X13640000Y-3575000D02*
G75*
G02*
X13540000Y-3575000I-50000J0D01*
G01*
X13540000Y-3575000D02*
G75*
G02*
X13640000Y-3575000I50000J0D01*
G01*
X13894000Y-3321000D02*
G75*
G02*
X13794000Y-3321000I-50000J0D01*
G01*
X13794000Y-3321000D02*
G75*
G02*
X13894000Y-3321000I50000J0D01*
G01*
X13894000Y-3575000D02*
G75*
G02*
X13794000Y-3575000I-50000J0D01*
G01*
X13794000Y-3575000D02*
G75*
G02*
X13894000Y-3575000I50000J0D01*
G01*
D11*
X8454277Y-13188984D02*
X8454277Y-12988984D01*
X8454277Y-12988984D02*
X8501896Y-12988984D01*
X8501896Y-12988984D02*
X8530467Y-12998508D01*
X8530467Y-12998508D02*
X8549515Y-13017555D01*
X8549515Y-13017555D02*
X8559039Y-13036603D01*
X8559039Y-13036603D02*
X8568563Y-13074698D01*
X8568563Y-13074698D02*
X8568563Y-13103269D01*
X8568563Y-13103269D02*
X8559039Y-13141365D01*
X8559039Y-13141365D02*
X8549515Y-13160412D01*
X8549515Y-13160412D02*
X8530467Y-13179460D01*
X8530467Y-13179460D02*
X8501896Y-13188984D01*
X8501896Y-13188984D02*
X8454277Y-13188984D01*
X8654277Y-13188984D02*
X8654277Y-13055650D01*
X8654277Y-13093746D02*
X8663801Y-13074698D01*
X8663801Y-13074698D02*
X8673324Y-13065174D01*
X8673324Y-13065174D02*
X8692372Y-13055650D01*
X8692372Y-13055650D02*
X8711420Y-13055650D01*
X8778086Y-13188984D02*
X8778086Y-13055650D01*
X8778086Y-12988984D02*
X8768563Y-12998508D01*
X8768563Y-12998508D02*
X8778086Y-13008031D01*
X8778086Y-13008031D02*
X8787610Y-12998508D01*
X8787610Y-12998508D02*
X8778086Y-12988984D01*
X8778086Y-12988984D02*
X8778086Y-13008031D01*
X8901896Y-13188984D02*
X8882848Y-13179460D01*
X8882848Y-13179460D02*
X8873324Y-13160412D01*
X8873324Y-13160412D02*
X8873324Y-12988984D01*
X9006658Y-13188984D02*
X8987610Y-13179460D01*
X8987610Y-13179460D02*
X8978086Y-13160412D01*
X8978086Y-13160412D02*
X8978086Y-12988984D01*
X9235229Y-13188984D02*
X9235229Y-12988984D01*
X9235229Y-12988984D02*
X9301896Y-13131841D01*
X9301896Y-13131841D02*
X9368563Y-12988984D01*
X9368563Y-12988984D02*
X9368563Y-13188984D01*
X9549515Y-13188984D02*
X9549515Y-13084222D01*
X9549515Y-13084222D02*
X9539991Y-13065174D01*
X9539991Y-13065174D02*
X9520944Y-13055650D01*
X9520944Y-13055650D02*
X9482848Y-13055650D01*
X9482848Y-13055650D02*
X9463801Y-13065174D01*
X9549515Y-13179460D02*
X9530467Y-13188984D01*
X9530467Y-13188984D02*
X9482848Y-13188984D01*
X9482848Y-13188984D02*
X9463801Y-13179460D01*
X9463801Y-13179460D02*
X9454277Y-13160412D01*
X9454277Y-13160412D02*
X9454277Y-13141365D01*
X9454277Y-13141365D02*
X9463801Y-13122317D01*
X9463801Y-13122317D02*
X9482848Y-13112793D01*
X9482848Y-13112793D02*
X9530467Y-13112793D01*
X9530467Y-13112793D02*
X9549515Y-13103269D01*
X9644753Y-13055650D02*
X9644753Y-13255650D01*
X9644753Y-13065174D02*
X9663801Y-13055650D01*
X9663801Y-13055650D02*
X9701896Y-13055650D01*
X9701896Y-13055650D02*
X9720944Y-13065174D01*
X9720944Y-13065174D02*
X9730467Y-13074698D01*
X9730467Y-13074698D02*
X9739991Y-13093746D01*
X9739991Y-13093746D02*
X9739991Y-13150888D01*
X9739991Y-13150888D02*
X9730467Y-13169936D01*
X9730467Y-13169936D02*
X9720944Y-13179460D01*
X9720944Y-13179460D02*
X9701896Y-13188984D01*
X9701896Y-13188984D02*
X9663801Y-13188984D01*
X9663801Y-13188984D02*
X9644753Y-13179460D01*
X9825705Y-13169936D02*
X9835229Y-13179460D01*
X9835229Y-13179460D02*
X9825705Y-13188984D01*
X9825705Y-13188984D02*
X9816182Y-13179460D01*
X9816182Y-13179460D02*
X9825705Y-13169936D01*
X9825705Y-13169936D02*
X9825705Y-13188984D01*
X9825705Y-13065174D02*
X9835229Y-13074698D01*
X9835229Y-13074698D02*
X9825705Y-13084222D01*
X9825705Y-13084222D02*
X9816182Y-13074698D01*
X9816182Y-13074698D02*
X9825705Y-13065174D01*
X9825705Y-13065174D02*
X9825705Y-13084222D01*
D12*
X8163500Y-13502500D02*
X8193500Y-13532500D01*
X8193500Y-13502500D02*
X8163500Y-13532500D01*
D11*
X8492372Y-13408984D02*
X8511420Y-13408984D01*
X8511420Y-13408984D02*
X8530467Y-13418508D01*
X8530467Y-13418508D02*
X8539991Y-13428031D01*
X8539991Y-13428031D02*
X8549515Y-13447079D01*
X8549515Y-13447079D02*
X8559039Y-13485174D01*
X8559039Y-13485174D02*
X8559039Y-13532793D01*
X8559039Y-13532793D02*
X8549515Y-13570888D01*
X8549515Y-13570888D02*
X8539991Y-13589936D01*
X8539991Y-13589936D02*
X8530467Y-13599460D01*
X8530467Y-13599460D02*
X8511420Y-13608984D01*
X8511420Y-13608984D02*
X8492372Y-13608984D01*
X8492372Y-13608984D02*
X8473324Y-13599460D01*
X8473324Y-13599460D02*
X8463801Y-13589936D01*
X8463801Y-13589936D02*
X8454277Y-13570888D01*
X8454277Y-13570888D02*
X8444753Y-13532793D01*
X8444753Y-13532793D02*
X8444753Y-13485174D01*
X8444753Y-13485174D02*
X8454277Y-13447079D01*
X8454277Y-13447079D02*
X8463801Y-13428031D01*
X8463801Y-13428031D02*
X8473324Y-13418508D01*
X8473324Y-13418508D02*
X8492372Y-13408984D01*
X8644753Y-13589936D02*
X8654277Y-13599460D01*
X8654277Y-13599460D02*
X8644753Y-13608984D01*
X8644753Y-13608984D02*
X8635229Y-13599460D01*
X8635229Y-13599460D02*
X8644753Y-13589936D01*
X8644753Y-13589936D02*
X8644753Y-13608984D01*
X8720944Y-13408984D02*
X8844753Y-13408984D01*
X8844753Y-13408984D02*
X8778086Y-13485174D01*
X8778086Y-13485174D02*
X8806658Y-13485174D01*
X8806658Y-13485174D02*
X8825705Y-13494698D01*
X8825705Y-13494698D02*
X8835229Y-13504222D01*
X8835229Y-13504222D02*
X8844753Y-13523269D01*
X8844753Y-13523269D02*
X8844753Y-13570888D01*
X8844753Y-13570888D02*
X8835229Y-13589936D01*
X8835229Y-13589936D02*
X8825705Y-13599460D01*
X8825705Y-13599460D02*
X8806658Y-13608984D01*
X8806658Y-13608984D02*
X8749515Y-13608984D01*
X8749515Y-13608984D02*
X8730467Y-13599460D01*
X8730467Y-13599460D02*
X8720944Y-13589936D01*
X8968563Y-13408984D02*
X8987610Y-13408984D01*
X8987610Y-13408984D02*
X9006658Y-13418508D01*
X9006658Y-13418508D02*
X9016182Y-13428031D01*
X9016182Y-13428031D02*
X9025705Y-13447079D01*
X9025705Y-13447079D02*
X9035229Y-13485174D01*
X9035229Y-13485174D02*
X9035229Y-13532793D01*
X9035229Y-13532793D02*
X9025705Y-13570888D01*
X9025705Y-13570888D02*
X9016182Y-13589936D01*
X9016182Y-13589936D02*
X9006658Y-13599460D01*
X9006658Y-13599460D02*
X8987610Y-13608984D01*
X8987610Y-13608984D02*
X8968563Y-13608984D01*
X8968563Y-13608984D02*
X8949515Y-13599460D01*
X8949515Y-13599460D02*
X8939991Y-13589936D01*
X8939991Y-13589936D02*
X8930467Y-13570888D01*
X8930467Y-13570888D02*
X8920944Y-13532793D01*
X8920944Y-13532793D02*
X8920944Y-13485174D01*
X8920944Y-13485174D02*
X8930467Y-13447079D01*
X8930467Y-13447079D02*
X8939991Y-13428031D01*
X8939991Y-13428031D02*
X8949515Y-13418508D01*
X8949515Y-13418508D02*
X8968563Y-13408984D01*
X9159039Y-13408984D02*
X9178086Y-13408984D01*
X9178086Y-13408984D02*
X9197134Y-13418508D01*
X9197134Y-13418508D02*
X9206658Y-13428031D01*
X9206658Y-13428031D02*
X9216182Y-13447079D01*
X9216182Y-13447079D02*
X9225705Y-13485174D01*
X9225705Y-13485174D02*
X9225705Y-13532793D01*
X9225705Y-13532793D02*
X9216182Y-13570888D01*
X9216182Y-13570888D02*
X9206658Y-13589936D01*
X9206658Y-13589936D02*
X9197134Y-13599460D01*
X9197134Y-13599460D02*
X9178086Y-13608984D01*
X9178086Y-13608984D02*
X9159039Y-13608984D01*
X9159039Y-13608984D02*
X9139991Y-13599460D01*
X9139991Y-13599460D02*
X9130467Y-13589936D01*
X9130467Y-13589936D02*
X9120944Y-13570888D01*
X9120944Y-13570888D02*
X9111420Y-13532793D01*
X9111420Y-13532793D02*
X9111420Y-13485174D01*
X9111420Y-13485174D02*
X9120944Y-13447079D01*
X9120944Y-13447079D02*
X9130467Y-13428031D01*
X9130467Y-13428031D02*
X9139991Y-13418508D01*
X9139991Y-13418508D02*
X9159039Y-13408984D01*
X9311420Y-13608984D02*
X9311420Y-13475650D01*
X9311420Y-13494698D02*
X9320944Y-13485174D01*
X9320944Y-13485174D02*
X9339991Y-13475650D01*
X9339991Y-13475650D02*
X9368563Y-13475650D01*
X9368563Y-13475650D02*
X9387610Y-13485174D01*
X9387610Y-13485174D02*
X9397134Y-13504222D01*
X9397134Y-13504222D02*
X9397134Y-13608984D01*
X9397134Y-13504222D02*
X9406658Y-13485174D01*
X9406658Y-13485174D02*
X9425705Y-13475650D01*
X9425705Y-13475650D02*
X9454277Y-13475650D01*
X9454277Y-13475650D02*
X9473325Y-13485174D01*
X9473325Y-13485174D02*
X9482848Y-13504222D01*
X9482848Y-13504222D02*
X9482848Y-13608984D01*
X9578086Y-13608984D02*
X9578086Y-13475650D01*
X9578086Y-13494698D02*
X9587610Y-13485174D01*
X9587610Y-13485174D02*
X9606658Y-13475650D01*
X9606658Y-13475650D02*
X9635229Y-13475650D01*
X9635229Y-13475650D02*
X9654277Y-13485174D01*
X9654277Y-13485174D02*
X9663801Y-13504222D01*
X9663801Y-13504222D02*
X9663801Y-13608984D01*
X9663801Y-13504222D02*
X9673325Y-13485174D01*
X9673325Y-13485174D02*
X9692372Y-13475650D01*
X9692372Y-13475650D02*
X9720944Y-13475650D01*
X9720944Y-13475650D02*
X9739991Y-13485174D01*
X9739991Y-13485174D02*
X9749515Y-13504222D01*
X9749515Y-13504222D02*
X9749515Y-13608984D01*
X10139991Y-13399460D02*
X9968563Y-13656603D01*
X10397134Y-13408984D02*
X10416182Y-13408984D01*
X10416182Y-13408984D02*
X10435229Y-13418508D01*
X10435229Y-13418508D02*
X10444753Y-13428031D01*
X10444753Y-13428031D02*
X10454277Y-13447079D01*
X10454277Y-13447079D02*
X10463801Y-13485174D01*
X10463801Y-13485174D02*
X10463801Y-13532793D01*
X10463801Y-13532793D02*
X10454277Y-13570888D01*
X10454277Y-13570888D02*
X10444753Y-13589936D01*
X10444753Y-13589936D02*
X10435229Y-13599460D01*
X10435229Y-13599460D02*
X10416182Y-13608984D01*
X10416182Y-13608984D02*
X10397134Y-13608984D01*
X10397134Y-13608984D02*
X10378087Y-13599460D01*
X10378087Y-13599460D02*
X10368563Y-13589936D01*
X10368563Y-13589936D02*
X10359039Y-13570888D01*
X10359039Y-13570888D02*
X10349515Y-13532793D01*
X10349515Y-13532793D02*
X10349515Y-13485174D01*
X10349515Y-13485174D02*
X10359039Y-13447079D01*
X10359039Y-13447079D02*
X10368563Y-13428031D01*
X10368563Y-13428031D02*
X10378087Y-13418508D01*
X10378087Y-13418508D02*
X10397134Y-13408984D01*
X10549515Y-13589936D02*
X10559039Y-13599460D01*
X10559039Y-13599460D02*
X10549515Y-13608984D01*
X10549515Y-13608984D02*
X10539991Y-13599460D01*
X10539991Y-13599460D02*
X10549515Y-13589936D01*
X10549515Y-13589936D02*
X10549515Y-13608984D01*
X10682848Y-13408984D02*
X10701896Y-13408984D01*
X10701896Y-13408984D02*
X10720944Y-13418508D01*
X10720944Y-13418508D02*
X10730468Y-13428031D01*
X10730468Y-13428031D02*
X10739991Y-13447079D01*
X10739991Y-13447079D02*
X10749515Y-13485174D01*
X10749515Y-13485174D02*
X10749515Y-13532793D01*
X10749515Y-13532793D02*
X10739991Y-13570888D01*
X10739991Y-13570888D02*
X10730468Y-13589936D01*
X10730468Y-13589936D02*
X10720944Y-13599460D01*
X10720944Y-13599460D02*
X10701896Y-13608984D01*
X10701896Y-13608984D02*
X10682848Y-13608984D01*
X10682848Y-13608984D02*
X10663801Y-13599460D01*
X10663801Y-13599460D02*
X10654277Y-13589936D01*
X10654277Y-13589936D02*
X10644753Y-13570888D01*
X10644753Y-13570888D02*
X10635229Y-13532793D01*
X10635229Y-13532793D02*
X10635229Y-13485174D01*
X10635229Y-13485174D02*
X10644753Y-13447079D01*
X10644753Y-13447079D02*
X10654277Y-13428031D01*
X10654277Y-13428031D02*
X10663801Y-13418508D01*
X10663801Y-13418508D02*
X10682848Y-13408984D01*
X10939991Y-13608984D02*
X10825706Y-13608984D01*
X10882848Y-13608984D02*
X10882848Y-13408984D01*
X10882848Y-13408984D02*
X10863801Y-13437555D01*
X10863801Y-13437555D02*
X10844753Y-13456603D01*
X10844753Y-13456603D02*
X10825706Y-13466127D01*
X11130468Y-13608984D02*
X11016182Y-13608984D01*
X11073325Y-13608984D02*
X11073325Y-13408984D01*
X11073325Y-13408984D02*
X11054277Y-13437555D01*
X11054277Y-13437555D02*
X11035229Y-13456603D01*
X11035229Y-13456603D02*
X11016182Y-13466127D01*
X11244753Y-13494698D02*
X11225706Y-13485174D01*
X11225706Y-13485174D02*
X11216182Y-13475650D01*
X11216182Y-13475650D02*
X11206658Y-13456603D01*
X11206658Y-13456603D02*
X11206658Y-13447079D01*
X11206658Y-13447079D02*
X11216182Y-13428031D01*
X11216182Y-13428031D02*
X11225706Y-13418508D01*
X11225706Y-13418508D02*
X11244753Y-13408984D01*
X11244753Y-13408984D02*
X11282848Y-13408984D01*
X11282848Y-13408984D02*
X11301896Y-13418508D01*
X11301896Y-13418508D02*
X11311420Y-13428031D01*
X11311420Y-13428031D02*
X11320944Y-13447079D01*
X11320944Y-13447079D02*
X11320944Y-13456603D01*
X11320944Y-13456603D02*
X11311420Y-13475650D01*
X11311420Y-13475650D02*
X11301896Y-13485174D01*
X11301896Y-13485174D02*
X11282848Y-13494698D01*
X11282848Y-13494698D02*
X11244753Y-13494698D01*
X11244753Y-13494698D02*
X11225706Y-13504222D01*
X11225706Y-13504222D02*
X11216182Y-13513746D01*
X11216182Y-13513746D02*
X11206658Y-13532793D01*
X11206658Y-13532793D02*
X11206658Y-13570888D01*
X11206658Y-13570888D02*
X11216182Y-13589936D01*
X11216182Y-13589936D02*
X11225706Y-13599460D01*
X11225706Y-13599460D02*
X11244753Y-13608984D01*
X11244753Y-13608984D02*
X11282848Y-13608984D01*
X11282848Y-13608984D02*
X11301896Y-13599460D01*
X11301896Y-13599460D02*
X11311420Y-13589936D01*
X11311420Y-13589936D02*
X11320944Y-13570888D01*
X11320944Y-13570888D02*
X11320944Y-13532793D01*
X11320944Y-13532793D02*
X11311420Y-13513746D01*
X11311420Y-13513746D02*
X11301896Y-13504222D01*
X11301896Y-13504222D02*
X11282848Y-13494698D01*
X11397134Y-13408984D02*
X11397134Y-13447079D01*
X11473325Y-13408984D02*
X11473325Y-13447079D01*
X11768563Y-13685174D02*
X11759039Y-13675650D01*
X11759039Y-13675650D02*
X11739991Y-13647079D01*
X11739991Y-13647079D02*
X11730468Y-13628031D01*
X11730468Y-13628031D02*
X11720944Y-13599460D01*
X11720944Y-13599460D02*
X11711420Y-13551841D01*
X11711420Y-13551841D02*
X11711420Y-13513746D01*
X11711420Y-13513746D02*
X11720944Y-13466127D01*
X11720944Y-13466127D02*
X11730468Y-13437555D01*
X11730468Y-13437555D02*
X11739991Y-13418508D01*
X11739991Y-13418508D02*
X11759039Y-13389936D01*
X11759039Y-13389936D02*
X11768563Y-13380412D01*
X11930468Y-13475650D02*
X11930468Y-13608984D01*
X11882848Y-13399460D02*
X11835229Y-13542317D01*
X11835229Y-13542317D02*
X11959039Y-13542317D01*
X12120944Y-13408984D02*
X12082848Y-13408984D01*
X12082848Y-13408984D02*
X12063801Y-13418508D01*
X12063801Y-13418508D02*
X12054277Y-13428031D01*
X12054277Y-13428031D02*
X12035229Y-13456603D01*
X12035229Y-13456603D02*
X12025706Y-13494698D01*
X12025706Y-13494698D02*
X12025706Y-13570888D01*
X12025706Y-13570888D02*
X12035229Y-13589936D01*
X12035229Y-13589936D02*
X12044753Y-13599460D01*
X12044753Y-13599460D02*
X12063801Y-13608984D01*
X12063801Y-13608984D02*
X12101896Y-13608984D01*
X12101896Y-13608984D02*
X12120944Y-13599460D01*
X12120944Y-13599460D02*
X12130468Y-13589936D01*
X12130468Y-13589936D02*
X12139991Y-13570888D01*
X12139991Y-13570888D02*
X12139991Y-13523269D01*
X12139991Y-13523269D02*
X12130468Y-13504222D01*
X12130468Y-13504222D02*
X12120944Y-13494698D01*
X12120944Y-13494698D02*
X12101896Y-13485174D01*
X12101896Y-13485174D02*
X12063801Y-13485174D01*
X12063801Y-13485174D02*
X12044753Y-13494698D01*
X12044753Y-13494698D02*
X12035229Y-13504222D01*
X12035229Y-13504222D02*
X12025706Y-13523269D01*
X12320944Y-13408984D02*
X12225706Y-13408984D01*
X12225706Y-13408984D02*
X12216182Y-13504222D01*
X12216182Y-13504222D02*
X12225706Y-13494698D01*
X12225706Y-13494698D02*
X12244753Y-13485174D01*
X12244753Y-13485174D02*
X12292372Y-13485174D01*
X12292372Y-13485174D02*
X12311420Y-13494698D01*
X12311420Y-13494698D02*
X12320944Y-13504222D01*
X12320944Y-13504222D02*
X12330468Y-13523269D01*
X12330468Y-13523269D02*
X12330468Y-13570888D01*
X12330468Y-13570888D02*
X12320944Y-13589936D01*
X12320944Y-13589936D02*
X12311420Y-13599460D01*
X12311420Y-13599460D02*
X12292372Y-13608984D01*
X12292372Y-13608984D02*
X12244753Y-13608984D01*
X12244753Y-13608984D02*
X12225706Y-13599460D01*
X12225706Y-13599460D02*
X12216182Y-13589936D01*
X12568563Y-13608984D02*
X12568563Y-13408984D01*
X12654277Y-13608984D02*
X12654277Y-13504222D01*
X12654277Y-13504222D02*
X12644753Y-13485174D01*
X12644753Y-13485174D02*
X12625706Y-13475650D01*
X12625706Y-13475650D02*
X12597134Y-13475650D01*
X12597134Y-13475650D02*
X12578087Y-13485174D01*
X12578087Y-13485174D02*
X12568563Y-13494698D01*
X12778087Y-13608984D02*
X12759039Y-13599460D01*
X12759039Y-13599460D02*
X12749515Y-13589936D01*
X12749515Y-13589936D02*
X12739991Y-13570888D01*
X12739991Y-13570888D02*
X12739991Y-13513746D01*
X12739991Y-13513746D02*
X12749515Y-13494698D01*
X12749515Y-13494698D02*
X12759039Y-13485174D01*
X12759039Y-13485174D02*
X12778087Y-13475650D01*
X12778087Y-13475650D02*
X12806658Y-13475650D01*
X12806658Y-13475650D02*
X12825706Y-13485174D01*
X12825706Y-13485174D02*
X12835230Y-13494698D01*
X12835230Y-13494698D02*
X12844753Y-13513746D01*
X12844753Y-13513746D02*
X12844753Y-13570888D01*
X12844753Y-13570888D02*
X12835230Y-13589936D01*
X12835230Y-13589936D02*
X12825706Y-13599460D01*
X12825706Y-13599460D02*
X12806658Y-13608984D01*
X12806658Y-13608984D02*
X12778087Y-13608984D01*
X12959039Y-13608984D02*
X12939991Y-13599460D01*
X12939991Y-13599460D02*
X12930468Y-13580412D01*
X12930468Y-13580412D02*
X12930468Y-13408984D01*
X13111420Y-13599460D02*
X13092372Y-13608984D01*
X13092372Y-13608984D02*
X13054277Y-13608984D01*
X13054277Y-13608984D02*
X13035230Y-13599460D01*
X13035230Y-13599460D02*
X13025706Y-13580412D01*
X13025706Y-13580412D02*
X13025706Y-13504222D01*
X13025706Y-13504222D02*
X13035230Y-13485174D01*
X13035230Y-13485174D02*
X13054277Y-13475650D01*
X13054277Y-13475650D02*
X13092372Y-13475650D01*
X13092372Y-13475650D02*
X13111420Y-13485174D01*
X13111420Y-13485174D02*
X13120944Y-13504222D01*
X13120944Y-13504222D02*
X13120944Y-13523269D01*
X13120944Y-13523269D02*
X13025706Y-13542317D01*
X13197134Y-13599460D02*
X13216182Y-13608984D01*
X13216182Y-13608984D02*
X13254277Y-13608984D01*
X13254277Y-13608984D02*
X13273325Y-13599460D01*
X13273325Y-13599460D02*
X13282849Y-13580412D01*
X13282849Y-13580412D02*
X13282849Y-13570888D01*
X13282849Y-13570888D02*
X13273325Y-13551841D01*
X13273325Y-13551841D02*
X13254277Y-13542317D01*
X13254277Y-13542317D02*
X13225706Y-13542317D01*
X13225706Y-13542317D02*
X13206658Y-13532793D01*
X13206658Y-13532793D02*
X13197134Y-13513746D01*
X13197134Y-13513746D02*
X13197134Y-13504222D01*
X13197134Y-13504222D02*
X13206658Y-13485174D01*
X13206658Y-13485174D02*
X13225706Y-13475650D01*
X13225706Y-13475650D02*
X13254277Y-13475650D01*
X13254277Y-13475650D02*
X13273325Y-13485174D01*
X13349515Y-13685174D02*
X13359039Y-13675650D01*
X13359039Y-13675650D02*
X13378087Y-13647079D01*
X13378087Y-13647079D02*
X13387611Y-13628031D01*
X13387611Y-13628031D02*
X13397134Y-13599460D01*
X13397134Y-13599460D02*
X13406658Y-13551841D01*
X13406658Y-13551841D02*
X13406658Y-13513746D01*
X13406658Y-13513746D02*
X13397134Y-13466127D01*
X13397134Y-13466127D02*
X13387611Y-13437555D01*
X13387611Y-13437555D02*
X13378087Y-13418508D01*
X13378087Y-13418508D02*
X13359039Y-13389936D01*
X13359039Y-13389936D02*
X13349515Y-13380412D01*
D12*
X8193500Y-13781500D02*
G75*
G02*
X8093500Y-13781500I-50000J0D01*
G01*
X8093500Y-13781500D02*
G75*
G02*
X8193500Y-13781500I50000J0D01*
G01*
D11*
X8559039Y-13872984D02*
X8444753Y-13872984D01*
X8501896Y-13872984D02*
X8501896Y-13672984D01*
X8501896Y-13672984D02*
X8482848Y-13701555D01*
X8482848Y-13701555D02*
X8463801Y-13720603D01*
X8463801Y-13720603D02*
X8444753Y-13730127D01*
X8644753Y-13853936D02*
X8654277Y-13863460D01*
X8654277Y-13863460D02*
X8644753Y-13872984D01*
X8644753Y-13872984D02*
X8635229Y-13863460D01*
X8635229Y-13863460D02*
X8644753Y-13853936D01*
X8644753Y-13853936D02*
X8644753Y-13872984D01*
X8778086Y-13672984D02*
X8797134Y-13672984D01*
X8797134Y-13672984D02*
X8816182Y-13682508D01*
X8816182Y-13682508D02*
X8825705Y-13692031D01*
X8825705Y-13692031D02*
X8835229Y-13711079D01*
X8835229Y-13711079D02*
X8844753Y-13749174D01*
X8844753Y-13749174D02*
X8844753Y-13796793D01*
X8844753Y-13796793D02*
X8835229Y-13834888D01*
X8835229Y-13834888D02*
X8825705Y-13853936D01*
X8825705Y-13853936D02*
X8816182Y-13863460D01*
X8816182Y-13863460D02*
X8797134Y-13872984D01*
X8797134Y-13872984D02*
X8778086Y-13872984D01*
X8778086Y-13872984D02*
X8759039Y-13863460D01*
X8759039Y-13863460D02*
X8749515Y-13853936D01*
X8749515Y-13853936D02*
X8739991Y-13834888D01*
X8739991Y-13834888D02*
X8730467Y-13796793D01*
X8730467Y-13796793D02*
X8730467Y-13749174D01*
X8730467Y-13749174D02*
X8739991Y-13711079D01*
X8739991Y-13711079D02*
X8749515Y-13692031D01*
X8749515Y-13692031D02*
X8759039Y-13682508D01*
X8759039Y-13682508D02*
X8778086Y-13672984D01*
X8968563Y-13672984D02*
X8987610Y-13672984D01*
X8987610Y-13672984D02*
X9006658Y-13682508D01*
X9006658Y-13682508D02*
X9016182Y-13692031D01*
X9016182Y-13692031D02*
X9025705Y-13711079D01*
X9025705Y-13711079D02*
X9035229Y-13749174D01*
X9035229Y-13749174D02*
X9035229Y-13796793D01*
X9035229Y-13796793D02*
X9025705Y-13834888D01*
X9025705Y-13834888D02*
X9016182Y-13853936D01*
X9016182Y-13853936D02*
X9006658Y-13863460D01*
X9006658Y-13863460D02*
X8987610Y-13872984D01*
X8987610Y-13872984D02*
X8968563Y-13872984D01*
X8968563Y-13872984D02*
X8949515Y-13863460D01*
X8949515Y-13863460D02*
X8939991Y-13853936D01*
X8939991Y-13853936D02*
X8930467Y-13834888D01*
X8930467Y-13834888D02*
X8920944Y-13796793D01*
X8920944Y-13796793D02*
X8920944Y-13749174D01*
X8920944Y-13749174D02*
X8930467Y-13711079D01*
X8930467Y-13711079D02*
X8939991Y-13692031D01*
X8939991Y-13692031D02*
X8949515Y-13682508D01*
X8949515Y-13682508D02*
X8968563Y-13672984D01*
X9159039Y-13672984D02*
X9178086Y-13672984D01*
X9178086Y-13672984D02*
X9197134Y-13682508D01*
X9197134Y-13682508D02*
X9206658Y-13692031D01*
X9206658Y-13692031D02*
X9216182Y-13711079D01*
X9216182Y-13711079D02*
X9225705Y-13749174D01*
X9225705Y-13749174D02*
X9225705Y-13796793D01*
X9225705Y-13796793D02*
X9216182Y-13834888D01*
X9216182Y-13834888D02*
X9206658Y-13853936D01*
X9206658Y-13853936D02*
X9197134Y-13863460D01*
X9197134Y-13863460D02*
X9178086Y-13872984D01*
X9178086Y-13872984D02*
X9159039Y-13872984D01*
X9159039Y-13872984D02*
X9139991Y-13863460D01*
X9139991Y-13863460D02*
X9130467Y-13853936D01*
X9130467Y-13853936D02*
X9120944Y-13834888D01*
X9120944Y-13834888D02*
X9111420Y-13796793D01*
X9111420Y-13796793D02*
X9111420Y-13749174D01*
X9111420Y-13749174D02*
X9120944Y-13711079D01*
X9120944Y-13711079D02*
X9130467Y-13692031D01*
X9130467Y-13692031D02*
X9139991Y-13682508D01*
X9139991Y-13682508D02*
X9159039Y-13672984D01*
X9311420Y-13872984D02*
X9311420Y-13739650D01*
X9311420Y-13758698D02*
X9320944Y-13749174D01*
X9320944Y-13749174D02*
X9339991Y-13739650D01*
X9339991Y-13739650D02*
X9368563Y-13739650D01*
X9368563Y-13739650D02*
X9387610Y-13749174D01*
X9387610Y-13749174D02*
X9397134Y-13768222D01*
X9397134Y-13768222D02*
X9397134Y-13872984D01*
X9397134Y-13768222D02*
X9406658Y-13749174D01*
X9406658Y-13749174D02*
X9425705Y-13739650D01*
X9425705Y-13739650D02*
X9454277Y-13739650D01*
X9454277Y-13739650D02*
X9473325Y-13749174D01*
X9473325Y-13749174D02*
X9482848Y-13768222D01*
X9482848Y-13768222D02*
X9482848Y-13872984D01*
X9578086Y-13872984D02*
X9578086Y-13739650D01*
X9578086Y-13758698D02*
X9587610Y-13749174D01*
X9587610Y-13749174D02*
X9606658Y-13739650D01*
X9606658Y-13739650D02*
X9635229Y-13739650D01*
X9635229Y-13739650D02*
X9654277Y-13749174D01*
X9654277Y-13749174D02*
X9663801Y-13768222D01*
X9663801Y-13768222D02*
X9663801Y-13872984D01*
X9663801Y-13768222D02*
X9673325Y-13749174D01*
X9673325Y-13749174D02*
X9692372Y-13739650D01*
X9692372Y-13739650D02*
X9720944Y-13739650D01*
X9720944Y-13739650D02*
X9739991Y-13749174D01*
X9739991Y-13749174D02*
X9749515Y-13768222D01*
X9749515Y-13768222D02*
X9749515Y-13872984D01*
X10139991Y-13663460D02*
X9968563Y-13920603D01*
X10397134Y-13672984D02*
X10416182Y-13672984D01*
X10416182Y-13672984D02*
X10435229Y-13682508D01*
X10435229Y-13682508D02*
X10444753Y-13692031D01*
X10444753Y-13692031D02*
X10454277Y-13711079D01*
X10454277Y-13711079D02*
X10463801Y-13749174D01*
X10463801Y-13749174D02*
X10463801Y-13796793D01*
X10463801Y-13796793D02*
X10454277Y-13834888D01*
X10454277Y-13834888D02*
X10444753Y-13853936D01*
X10444753Y-13853936D02*
X10435229Y-13863460D01*
X10435229Y-13863460D02*
X10416182Y-13872984D01*
X10416182Y-13872984D02*
X10397134Y-13872984D01*
X10397134Y-13872984D02*
X10378087Y-13863460D01*
X10378087Y-13863460D02*
X10368563Y-13853936D01*
X10368563Y-13853936D02*
X10359039Y-13834888D01*
X10359039Y-13834888D02*
X10349515Y-13796793D01*
X10349515Y-13796793D02*
X10349515Y-13749174D01*
X10349515Y-13749174D02*
X10359039Y-13711079D01*
X10359039Y-13711079D02*
X10368563Y-13692031D01*
X10368563Y-13692031D02*
X10378087Y-13682508D01*
X10378087Y-13682508D02*
X10397134Y-13672984D01*
X10549515Y-13853936D02*
X10559039Y-13863460D01*
X10559039Y-13863460D02*
X10549515Y-13872984D01*
X10549515Y-13872984D02*
X10539991Y-13863460D01*
X10539991Y-13863460D02*
X10549515Y-13853936D01*
X10549515Y-13853936D02*
X10549515Y-13872984D01*
X10682848Y-13672984D02*
X10701896Y-13672984D01*
X10701896Y-13672984D02*
X10720944Y-13682508D01*
X10720944Y-13682508D02*
X10730468Y-13692031D01*
X10730468Y-13692031D02*
X10739991Y-13711079D01*
X10739991Y-13711079D02*
X10749515Y-13749174D01*
X10749515Y-13749174D02*
X10749515Y-13796793D01*
X10749515Y-13796793D02*
X10739991Y-13834888D01*
X10739991Y-13834888D02*
X10730468Y-13853936D01*
X10730468Y-13853936D02*
X10720944Y-13863460D01*
X10720944Y-13863460D02*
X10701896Y-13872984D01*
X10701896Y-13872984D02*
X10682848Y-13872984D01*
X10682848Y-13872984D02*
X10663801Y-13863460D01*
X10663801Y-13863460D02*
X10654277Y-13853936D01*
X10654277Y-13853936D02*
X10644753Y-13834888D01*
X10644753Y-13834888D02*
X10635229Y-13796793D01*
X10635229Y-13796793D02*
X10635229Y-13749174D01*
X10635229Y-13749174D02*
X10644753Y-13711079D01*
X10644753Y-13711079D02*
X10654277Y-13692031D01*
X10654277Y-13692031D02*
X10663801Y-13682508D01*
X10663801Y-13682508D02*
X10682848Y-13672984D01*
X10816182Y-13672984D02*
X10939991Y-13672984D01*
X10939991Y-13672984D02*
X10873325Y-13749174D01*
X10873325Y-13749174D02*
X10901896Y-13749174D01*
X10901896Y-13749174D02*
X10920944Y-13758698D01*
X10920944Y-13758698D02*
X10930468Y-13768222D01*
X10930468Y-13768222D02*
X10939991Y-13787269D01*
X10939991Y-13787269D02*
X10939991Y-13834888D01*
X10939991Y-13834888D02*
X10930468Y-13853936D01*
X10930468Y-13853936D02*
X10920944Y-13863460D01*
X10920944Y-13863460D02*
X10901896Y-13872984D01*
X10901896Y-13872984D02*
X10844753Y-13872984D01*
X10844753Y-13872984D02*
X10825706Y-13863460D01*
X10825706Y-13863460D02*
X10816182Y-13853936D01*
X11035229Y-13872984D02*
X11073325Y-13872984D01*
X11073325Y-13872984D02*
X11092372Y-13863460D01*
X11092372Y-13863460D02*
X11101896Y-13853936D01*
X11101896Y-13853936D02*
X11120944Y-13825365D01*
X11120944Y-13825365D02*
X11130468Y-13787269D01*
X11130468Y-13787269D02*
X11130468Y-13711079D01*
X11130468Y-13711079D02*
X11120944Y-13692031D01*
X11120944Y-13692031D02*
X11111420Y-13682508D01*
X11111420Y-13682508D02*
X11092372Y-13672984D01*
X11092372Y-13672984D02*
X11054277Y-13672984D01*
X11054277Y-13672984D02*
X11035229Y-13682508D01*
X11035229Y-13682508D02*
X11025706Y-13692031D01*
X11025706Y-13692031D02*
X11016182Y-13711079D01*
X11016182Y-13711079D02*
X11016182Y-13758698D01*
X11016182Y-13758698D02*
X11025706Y-13777746D01*
X11025706Y-13777746D02*
X11035229Y-13787269D01*
X11035229Y-13787269D02*
X11054277Y-13796793D01*
X11054277Y-13796793D02*
X11092372Y-13796793D01*
X11092372Y-13796793D02*
X11111420Y-13787269D01*
X11111420Y-13787269D02*
X11120944Y-13777746D01*
X11120944Y-13777746D02*
X11130468Y-13758698D01*
X11301896Y-13739650D02*
X11301896Y-13872984D01*
X11254277Y-13663460D02*
X11206658Y-13806317D01*
X11206658Y-13806317D02*
X11330467Y-13806317D01*
X11397134Y-13672984D02*
X11397134Y-13711079D01*
X11473325Y-13672984D02*
X11473325Y-13711079D01*
X11768563Y-13949174D02*
X11759039Y-13939650D01*
X11759039Y-13939650D02*
X11739991Y-13911079D01*
X11739991Y-13911079D02*
X11730468Y-13892031D01*
X11730468Y-13892031D02*
X11720944Y-13863460D01*
X11720944Y-13863460D02*
X11711420Y-13815841D01*
X11711420Y-13815841D02*
X11711420Y-13777746D01*
X11711420Y-13777746D02*
X11720944Y-13730127D01*
X11720944Y-13730127D02*
X11730468Y-13701555D01*
X11730468Y-13701555D02*
X11739991Y-13682508D01*
X11739991Y-13682508D02*
X11759039Y-13653936D01*
X11759039Y-13653936D02*
X11768563Y-13644412D01*
X11930468Y-13739650D02*
X11930468Y-13872984D01*
X11882848Y-13663460D02*
X11835229Y-13806317D01*
X11835229Y-13806317D02*
X11959039Y-13806317D01*
X12016182Y-13672984D02*
X12149515Y-13672984D01*
X12149515Y-13672984D02*
X12063801Y-13872984D01*
X12378087Y-13872984D02*
X12378087Y-13672984D01*
X12463801Y-13872984D02*
X12463801Y-13768222D01*
X12463801Y-13768222D02*
X12454277Y-13749174D01*
X12454277Y-13749174D02*
X12435230Y-13739650D01*
X12435230Y-13739650D02*
X12406658Y-13739650D01*
X12406658Y-13739650D02*
X12387610Y-13749174D01*
X12387610Y-13749174D02*
X12378087Y-13758698D01*
X12587610Y-13872984D02*
X12568563Y-13863460D01*
X12568563Y-13863460D02*
X12559039Y-13853936D01*
X12559039Y-13853936D02*
X12549515Y-13834888D01*
X12549515Y-13834888D02*
X12549515Y-13777746D01*
X12549515Y-13777746D02*
X12559039Y-13758698D01*
X12559039Y-13758698D02*
X12568563Y-13749174D01*
X12568563Y-13749174D02*
X12587610Y-13739650D01*
X12587610Y-13739650D02*
X12616182Y-13739650D01*
X12616182Y-13739650D02*
X12635230Y-13749174D01*
X12635230Y-13749174D02*
X12644753Y-13758698D01*
X12644753Y-13758698D02*
X12654277Y-13777746D01*
X12654277Y-13777746D02*
X12654277Y-13834888D01*
X12654277Y-13834888D02*
X12644753Y-13853936D01*
X12644753Y-13853936D02*
X12635230Y-13863460D01*
X12635230Y-13863460D02*
X12616182Y-13872984D01*
X12616182Y-13872984D02*
X12587610Y-13872984D01*
X12768563Y-13872984D02*
X12749515Y-13863460D01*
X12749515Y-13863460D02*
X12739991Y-13844412D01*
X12739991Y-13844412D02*
X12739991Y-13672984D01*
X12920944Y-13863460D02*
X12901896Y-13872984D01*
X12901896Y-13872984D02*
X12863801Y-13872984D01*
X12863801Y-13872984D02*
X12844753Y-13863460D01*
X12844753Y-13863460D02*
X12835230Y-13844412D01*
X12835230Y-13844412D02*
X12835230Y-13768222D01*
X12835230Y-13768222D02*
X12844753Y-13749174D01*
X12844753Y-13749174D02*
X12863801Y-13739650D01*
X12863801Y-13739650D02*
X12901896Y-13739650D01*
X12901896Y-13739650D02*
X12920944Y-13749174D01*
X12920944Y-13749174D02*
X12930468Y-13768222D01*
X12930468Y-13768222D02*
X12930468Y-13787269D01*
X12930468Y-13787269D02*
X12835230Y-13806317D01*
X13006658Y-13863460D02*
X13025706Y-13872984D01*
X13025706Y-13872984D02*
X13063801Y-13872984D01*
X13063801Y-13872984D02*
X13082849Y-13863460D01*
X13082849Y-13863460D02*
X13092372Y-13844412D01*
X13092372Y-13844412D02*
X13092372Y-13834888D01*
X13092372Y-13834888D02*
X13082849Y-13815841D01*
X13082849Y-13815841D02*
X13063801Y-13806317D01*
X13063801Y-13806317D02*
X13035230Y-13806317D01*
X13035230Y-13806317D02*
X13016182Y-13796793D01*
X13016182Y-13796793D02*
X13006658Y-13777746D01*
X13006658Y-13777746D02*
X13006658Y-13768222D01*
X13006658Y-13768222D02*
X13016182Y-13749174D01*
X13016182Y-13749174D02*
X13035230Y-13739650D01*
X13035230Y-13739650D02*
X13063801Y-13739650D01*
X13063801Y-13739650D02*
X13082849Y-13749174D01*
X13159039Y-13949174D02*
X13168563Y-13939650D01*
X13168563Y-13939650D02*
X13187611Y-13911079D01*
X13187611Y-13911079D02*
X13197134Y-13892031D01*
X13197134Y-13892031D02*
X13206658Y-13863460D01*
X13206658Y-13863460D02*
X13216182Y-13815841D01*
X13216182Y-13815841D02*
X13216182Y-13777746D01*
X13216182Y-13777746D02*
X13206658Y-13730127D01*
X13206658Y-13730127D02*
X13197134Y-13701555D01*
X13197134Y-13701555D02*
X13187611Y-13682508D01*
X13187611Y-13682508D02*
X13168563Y-13653936D01*
X13168563Y-13653936D02*
X13159039Y-13644412D01*
M02*
