%TF.GenerationSoftware,KiCad,Pcbnew,9.0.4*%
%TF.CreationDate,2025-11-17T20:52:04-06:00*%
%TF.ProjectId,TX_Board,54585f42-6f61-4726-942e-6b696361645f,rev?*%
%TF.SameCoordinates,Original*%
%TF.FileFunction,Legend,Bot*%
%TF.FilePolarity,Positive*%
%FSLAX46Y46*%
G04 Gerber Fmt 4.6, Leading zero omitted, Abs format (unit mm)*
G04 Created by KiCad (PCBNEW 9.0.4) date 2025-11-17 20:52:04*
%MOMM*%
%LPD*%
G01*
G04 APERTURE LIST*
G04 Aperture macros list*
%AMRoundRect*
0 Rectangle with rounded corners*
0 $1 Rounding radius*
0 $2 $3 $4 $5 $6 $7 $8 $9 X,Y pos of 4 corners*
0 Add a 4 corners polygon primitive as box body*
4,1,4,$2,$3,$4,$5,$6,$7,$8,$9,$2,$3,0*
0 Add four circle primitives for the rounded corners*
1,1,$1+$1,$2,$3*
1,1,$1+$1,$4,$5*
1,1,$1+$1,$6,$7*
1,1,$1+$1,$8,$9*
0 Add four rect primitives between the rounded corners*
20,1,$1+$1,$2,$3,$4,$5,0*
20,1,$1+$1,$4,$5,$6,$7,0*
20,1,$1+$1,$6,$7,$8,$9,0*
20,1,$1+$1,$8,$9,$2,$3,0*%
G04 Aperture macros list end*
%ADD10C,0.100000*%
%ADD11C,0.150000*%
%ADD12RoundRect,0.268815X1.631985X-0.456985X1.631985X0.456985X-1.631985X0.456985X-1.631985X-0.456985X0*%
%ADD13RoundRect,0.050800X-0.850000X-0.850000X0.850000X-0.850000X0.850000X0.850000X-0.850000X0.850000X0*%
%ADD14RoundRect,0.050800X0.850000X-0.850000X0.850000X0.850000X-0.850000X0.850000X-0.850000X-0.850000X0*%
%ADD15C,1.801600*%
%ADD16RoundRect,0.268815X-1.631985X0.456985X-1.631985X-0.456985X1.631985X-0.456985X1.631985X0.456985X0*%
%ADD17RoundRect,0.050800X0.850000X0.850000X-0.850000X0.850000X-0.850000X-0.850000X0.850000X-0.850000X0*%
%ADD18C,4.101600*%
%ADD19C,2.101600*%
G04 APERTURE END LIST*
D10*
X87878765Y-79477104D02*
X87831146Y-79500914D01*
X87831146Y-79500914D02*
X87807336Y-79524723D01*
X87807336Y-79524723D02*
X87783527Y-79572342D01*
X87783527Y-79572342D02*
X87783527Y-79596152D01*
X87783527Y-79596152D02*
X87807336Y-79643771D01*
X87807336Y-79643771D02*
X87831146Y-79667580D01*
X87831146Y-79667580D02*
X87878765Y-79691390D01*
X87878765Y-79691390D02*
X87974003Y-79691390D01*
X87974003Y-79691390D02*
X88021622Y-79667580D01*
X88021622Y-79667580D02*
X88045431Y-79643771D01*
X88045431Y-79643771D02*
X88069241Y-79596152D01*
X88069241Y-79596152D02*
X88069241Y-79572342D01*
X88069241Y-79572342D02*
X88045431Y-79524723D01*
X88045431Y-79524723D02*
X88021622Y-79500914D01*
X88021622Y-79500914D02*
X87974003Y-79477104D01*
X87974003Y-79477104D02*
X87878765Y-79477104D01*
X87878765Y-79477104D02*
X87831146Y-79453295D01*
X87831146Y-79453295D02*
X87807336Y-79429485D01*
X87807336Y-79429485D02*
X87783527Y-79381866D01*
X87783527Y-79381866D02*
X87783527Y-79286628D01*
X87783527Y-79286628D02*
X87807336Y-79239009D01*
X87807336Y-79239009D02*
X87831146Y-79215200D01*
X87831146Y-79215200D02*
X87878765Y-79191390D01*
X87878765Y-79191390D02*
X87974003Y-79191390D01*
X87974003Y-79191390D02*
X88021622Y-79215200D01*
X88021622Y-79215200D02*
X88045431Y-79239009D01*
X88045431Y-79239009D02*
X88069241Y-79286628D01*
X88069241Y-79286628D02*
X88069241Y-79381866D01*
X88069241Y-79381866D02*
X88045431Y-79429485D01*
X88045431Y-79429485D02*
X88021622Y-79453295D01*
X88021622Y-79453295D02*
X87974003Y-79477104D01*
X88283526Y-79453295D02*
X88664479Y-79453295D01*
X88664479Y-79310438D02*
X88283526Y-79310438D01*
X88902574Y-79453295D02*
X89283527Y-79453295D01*
X89283527Y-79310438D02*
X88902574Y-79310438D01*
X89521622Y-79453295D02*
X89902575Y-79453295D01*
X89902575Y-79310438D02*
X89521622Y-79310438D01*
X90140670Y-79191390D02*
X90140670Y-79691390D01*
X90140670Y-79691390D02*
X90259718Y-79691390D01*
X90259718Y-79691390D02*
X90331146Y-79667580D01*
X90331146Y-79667580D02*
X90378765Y-79619961D01*
X90378765Y-79619961D02*
X90402575Y-79572342D01*
X90402575Y-79572342D02*
X90426384Y-79477104D01*
X90426384Y-79477104D02*
X90426384Y-79405676D01*
X90426384Y-79405676D02*
X90402575Y-79310438D01*
X90402575Y-79310438D02*
X90378765Y-79262819D01*
X90378765Y-79262819D02*
X90331146Y-79215200D01*
X90331146Y-79215200D02*
X90259718Y-79191390D01*
X90259718Y-79191390D02*
X90140670Y-79191390D01*
X90569242Y-79381866D02*
X90593051Y-79405676D01*
X90593051Y-79405676D02*
X90640670Y-79429485D01*
X90640670Y-79429485D02*
X90735908Y-79381866D01*
X90735908Y-79381866D02*
X90783527Y-79405676D01*
X90783527Y-79405676D02*
X90807337Y-79429485D01*
X90926385Y-79381866D02*
X90950194Y-79405676D01*
X90950194Y-79405676D02*
X90997813Y-79429485D01*
X90997813Y-79429485D02*
X91093051Y-79381866D01*
X91093051Y-79381866D02*
X91140670Y-79405676D01*
X91140670Y-79405676D02*
X91164480Y-79429485D01*
X91283528Y-79381866D02*
X91307337Y-79405676D01*
X91307337Y-79405676D02*
X91354956Y-79429485D01*
X91354956Y-79429485D02*
X91450194Y-79381866D01*
X91450194Y-79381866D02*
X91497813Y-79405676D01*
X91497813Y-79405676D02*
X91521623Y-79429485D01*
D11*
X115148874Y-80627889D02*
X115148874Y-82627889D01*
X115148874Y-82627889D02*
X115625064Y-82627889D01*
X115625064Y-82627889D02*
X115910779Y-82532651D01*
X115910779Y-82532651D02*
X116101255Y-82342175D01*
X116101255Y-82342175D02*
X116196493Y-82151699D01*
X116196493Y-82151699D02*
X116291731Y-81770747D01*
X116291731Y-81770747D02*
X116291731Y-81485032D01*
X116291731Y-81485032D02*
X116196493Y-81104080D01*
X116196493Y-81104080D02*
X116101255Y-80913604D01*
X116101255Y-80913604D02*
X115910779Y-80723128D01*
X115910779Y-80723128D02*
X115625064Y-80627889D01*
X115625064Y-80627889D02*
X115148874Y-80627889D01*
X117910779Y-80723128D02*
X117720303Y-80627889D01*
X117720303Y-80627889D02*
X117339350Y-80627889D01*
X117339350Y-80627889D02*
X117148874Y-80723128D01*
X117148874Y-80723128D02*
X117053636Y-80913604D01*
X117053636Y-80913604D02*
X117053636Y-81675508D01*
X117053636Y-81675508D02*
X117148874Y-81865985D01*
X117148874Y-81865985D02*
X117339350Y-81961223D01*
X117339350Y-81961223D02*
X117720303Y-81961223D01*
X117720303Y-81961223D02*
X117910779Y-81865985D01*
X117910779Y-81865985D02*
X118006017Y-81675508D01*
X118006017Y-81675508D02*
X118006017Y-81485032D01*
X118006017Y-81485032D02*
X117053636Y-81294556D01*
X118767922Y-80723128D02*
X118958398Y-80627889D01*
X118958398Y-80627889D02*
X119339350Y-80627889D01*
X119339350Y-80627889D02*
X119529827Y-80723128D01*
X119529827Y-80723128D02*
X119625065Y-80913604D01*
X119625065Y-80913604D02*
X119625065Y-81008842D01*
X119625065Y-81008842D02*
X119529827Y-81199318D01*
X119529827Y-81199318D02*
X119339350Y-81294556D01*
X119339350Y-81294556D02*
X119053636Y-81294556D01*
X119053636Y-81294556D02*
X118863160Y-81389794D01*
X118863160Y-81389794D02*
X118767922Y-81580270D01*
X118767922Y-81580270D02*
X118767922Y-81675508D01*
X118767922Y-81675508D02*
X118863160Y-81865985D01*
X118863160Y-81865985D02*
X119053636Y-81961223D01*
X119053636Y-81961223D02*
X119339350Y-81961223D01*
X119339350Y-81961223D02*
X119529827Y-81865985D01*
X120482208Y-80627889D02*
X120482208Y-81961223D01*
X120482208Y-82627889D02*
X120386970Y-82532651D01*
X120386970Y-82532651D02*
X120482208Y-82437413D01*
X120482208Y-82437413D02*
X120577446Y-82532651D01*
X120577446Y-82532651D02*
X120482208Y-82627889D01*
X120482208Y-82627889D02*
X120482208Y-82437413D01*
X122291732Y-81961223D02*
X122291732Y-80342175D01*
X122291732Y-80342175D02*
X122196494Y-80151699D01*
X122196494Y-80151699D02*
X122101256Y-80056461D01*
X122101256Y-80056461D02*
X121910779Y-79961223D01*
X121910779Y-79961223D02*
X121625065Y-79961223D01*
X121625065Y-79961223D02*
X121434589Y-80056461D01*
X122291732Y-80723128D02*
X122101256Y-80627889D01*
X122101256Y-80627889D02*
X121720303Y-80627889D01*
X121720303Y-80627889D02*
X121529827Y-80723128D01*
X121529827Y-80723128D02*
X121434589Y-80818366D01*
X121434589Y-80818366D02*
X121339351Y-81008842D01*
X121339351Y-81008842D02*
X121339351Y-81580270D01*
X121339351Y-81580270D02*
X121434589Y-81770747D01*
X121434589Y-81770747D02*
X121529827Y-81865985D01*
X121529827Y-81865985D02*
X121720303Y-81961223D01*
X121720303Y-81961223D02*
X122101256Y-81961223D01*
X122101256Y-81961223D02*
X122291732Y-81865985D01*
X123244113Y-81961223D02*
X123244113Y-80627889D01*
X123244113Y-81770747D02*
X123339351Y-81865985D01*
X123339351Y-81865985D02*
X123529827Y-81961223D01*
X123529827Y-81961223D02*
X123815542Y-81961223D01*
X123815542Y-81961223D02*
X124006018Y-81865985D01*
X124006018Y-81865985D02*
X124101256Y-81675508D01*
X124101256Y-81675508D02*
X124101256Y-80627889D01*
X125815542Y-80723128D02*
X125625066Y-80627889D01*
X125625066Y-80627889D02*
X125244113Y-80627889D01*
X125244113Y-80627889D02*
X125053637Y-80723128D01*
X125053637Y-80723128D02*
X124958399Y-80913604D01*
X124958399Y-80913604D02*
X124958399Y-81675508D01*
X124958399Y-81675508D02*
X125053637Y-81865985D01*
X125053637Y-81865985D02*
X125244113Y-81961223D01*
X125244113Y-81961223D02*
X125625066Y-81961223D01*
X125625066Y-81961223D02*
X125815542Y-81865985D01*
X125815542Y-81865985D02*
X125910780Y-81675508D01*
X125910780Y-81675508D02*
X125910780Y-81485032D01*
X125910780Y-81485032D02*
X124958399Y-81294556D01*
X127625066Y-80627889D02*
X127625066Y-82627889D01*
X127625066Y-80723128D02*
X127434590Y-80627889D01*
X127434590Y-80627889D02*
X127053637Y-80627889D01*
X127053637Y-80627889D02*
X126863161Y-80723128D01*
X126863161Y-80723128D02*
X126767923Y-80818366D01*
X126767923Y-80818366D02*
X126672685Y-81008842D01*
X126672685Y-81008842D02*
X126672685Y-81580270D01*
X126672685Y-81580270D02*
X126767923Y-81770747D01*
X126767923Y-81770747D02*
X126863161Y-81865985D01*
X126863161Y-81865985D02*
X127053637Y-81961223D01*
X127053637Y-81961223D02*
X127434590Y-81961223D01*
X127434590Y-81961223D02*
X127625066Y-81865985D01*
X130767924Y-81675508D02*
X131053638Y-81580270D01*
X131053638Y-81580270D02*
X131148876Y-81485032D01*
X131148876Y-81485032D02*
X131244114Y-81294556D01*
X131244114Y-81294556D02*
X131244114Y-81008842D01*
X131244114Y-81008842D02*
X131148876Y-80818366D01*
X131148876Y-80818366D02*
X131053638Y-80723128D01*
X131053638Y-80723128D02*
X130863162Y-80627889D01*
X130863162Y-80627889D02*
X130101257Y-80627889D01*
X130101257Y-80627889D02*
X130101257Y-82627889D01*
X130101257Y-82627889D02*
X130767924Y-82627889D01*
X130767924Y-82627889D02*
X130958400Y-82532651D01*
X130958400Y-82532651D02*
X131053638Y-82437413D01*
X131053638Y-82437413D02*
X131148876Y-82246937D01*
X131148876Y-82246937D02*
X131148876Y-82056461D01*
X131148876Y-82056461D02*
X131053638Y-81865985D01*
X131053638Y-81865985D02*
X130958400Y-81770747D01*
X130958400Y-81770747D02*
X130767924Y-81675508D01*
X130767924Y-81675508D02*
X130101257Y-81675508D01*
X131910781Y-81961223D02*
X132386971Y-80627889D01*
X132863162Y-81961223D02*
X132386971Y-80627889D01*
X132386971Y-80627889D02*
X132196495Y-80151699D01*
X132196495Y-80151699D02*
X132101257Y-80056461D01*
X132101257Y-80056461D02*
X131910781Y-79961223D01*
X133625067Y-80818366D02*
X133720305Y-80723128D01*
X133720305Y-80723128D02*
X133625067Y-80627889D01*
X133625067Y-80627889D02*
X133529829Y-80723128D01*
X133529829Y-80723128D02*
X133625067Y-80818366D01*
X133625067Y-80818366D02*
X133625067Y-80627889D01*
X133625067Y-81865985D02*
X133720305Y-81770747D01*
X133720305Y-81770747D02*
X133625067Y-81675508D01*
X133625067Y-81675508D02*
X133529829Y-81770747D01*
X133529829Y-81770747D02*
X133625067Y-81865985D01*
X133625067Y-81865985D02*
X133625067Y-81675508D01*
X115815541Y-75235732D02*
X116101255Y-75140494D01*
X116101255Y-75140494D02*
X116196493Y-75045256D01*
X116196493Y-75045256D02*
X116291731Y-74854780D01*
X116291731Y-74854780D02*
X116291731Y-74569066D01*
X116291731Y-74569066D02*
X116196493Y-74378590D01*
X116196493Y-74378590D02*
X116101255Y-74283352D01*
X116101255Y-74283352D02*
X115910779Y-74188113D01*
X115910779Y-74188113D02*
X115148874Y-74188113D01*
X115148874Y-74188113D02*
X115148874Y-76188113D01*
X115148874Y-76188113D02*
X115815541Y-76188113D01*
X115815541Y-76188113D02*
X116006017Y-76092875D01*
X116006017Y-76092875D02*
X116101255Y-75997637D01*
X116101255Y-75997637D02*
X116196493Y-75807161D01*
X116196493Y-75807161D02*
X116196493Y-75616685D01*
X116196493Y-75616685D02*
X116101255Y-75426209D01*
X116101255Y-75426209D02*
X116006017Y-75330971D01*
X116006017Y-75330971D02*
X115815541Y-75235732D01*
X115815541Y-75235732D02*
X115148874Y-75235732D01*
X117148874Y-74188113D02*
X117148874Y-75521447D01*
X117148874Y-76188113D02*
X117053636Y-76092875D01*
X117053636Y-76092875D02*
X117148874Y-75997637D01*
X117148874Y-75997637D02*
X117244112Y-76092875D01*
X117244112Y-76092875D02*
X117148874Y-76188113D01*
X117148874Y-76188113D02*
X117148874Y-75997637D01*
X118958398Y-75521447D02*
X118958398Y-73902399D01*
X118958398Y-73902399D02*
X118863160Y-73711923D01*
X118863160Y-73711923D02*
X118767922Y-73616685D01*
X118767922Y-73616685D02*
X118577445Y-73521447D01*
X118577445Y-73521447D02*
X118291731Y-73521447D01*
X118291731Y-73521447D02*
X118101255Y-73616685D01*
X118958398Y-74283352D02*
X118767922Y-74188113D01*
X118767922Y-74188113D02*
X118386969Y-74188113D01*
X118386969Y-74188113D02*
X118196493Y-74283352D01*
X118196493Y-74283352D02*
X118101255Y-74378590D01*
X118101255Y-74378590D02*
X118006017Y-74569066D01*
X118006017Y-74569066D02*
X118006017Y-75140494D01*
X118006017Y-75140494D02*
X118101255Y-75330971D01*
X118101255Y-75330971D02*
X118196493Y-75426209D01*
X118196493Y-75426209D02*
X118386969Y-75521447D01*
X118386969Y-75521447D02*
X118767922Y-75521447D01*
X118767922Y-75521447D02*
X118958398Y-75426209D01*
X121434589Y-74188113D02*
X121434589Y-76188113D01*
X121434589Y-75235732D02*
X122577446Y-75235732D01*
X122577446Y-74188113D02*
X122577446Y-76188113D01*
X123815541Y-74188113D02*
X123625065Y-74283352D01*
X123625065Y-74283352D02*
X123529827Y-74378590D01*
X123529827Y-74378590D02*
X123434589Y-74569066D01*
X123434589Y-74569066D02*
X123434589Y-75140494D01*
X123434589Y-75140494D02*
X123529827Y-75330971D01*
X123529827Y-75330971D02*
X123625065Y-75426209D01*
X123625065Y-75426209D02*
X123815541Y-75521447D01*
X123815541Y-75521447D02*
X124101256Y-75521447D01*
X124101256Y-75521447D02*
X124291732Y-75426209D01*
X124291732Y-75426209D02*
X124386970Y-75330971D01*
X124386970Y-75330971D02*
X124482208Y-75140494D01*
X124482208Y-75140494D02*
X124482208Y-74569066D01*
X124482208Y-74569066D02*
X124386970Y-74378590D01*
X124386970Y-74378590D02*
X124291732Y-74283352D01*
X124291732Y-74283352D02*
X124101256Y-74188113D01*
X124101256Y-74188113D02*
X123815541Y-74188113D01*
X125053637Y-75521447D02*
X125815541Y-75521447D01*
X125339351Y-74188113D02*
X125339351Y-75902399D01*
X125339351Y-75902399D02*
X125434589Y-76092875D01*
X125434589Y-76092875D02*
X125625065Y-76188113D01*
X125625065Y-76188113D02*
X125815541Y-76188113D01*
X126196494Y-75521447D02*
X126958398Y-75521447D01*
X126482208Y-74188113D02*
X126482208Y-75902399D01*
X126482208Y-75902399D02*
X126577446Y-76092875D01*
X126577446Y-76092875D02*
X126767922Y-76188113D01*
X126767922Y-76188113D02*
X126958398Y-76188113D01*
X114863160Y-72968225D02*
X116006017Y-72968225D01*
X115434588Y-70968225D02*
X115434588Y-72968225D01*
X116958398Y-70968225D02*
X116767922Y-71063464D01*
X116767922Y-71063464D02*
X116672684Y-71158702D01*
X116672684Y-71158702D02*
X116577446Y-71349178D01*
X116577446Y-71349178D02*
X116577446Y-71920606D01*
X116577446Y-71920606D02*
X116672684Y-72111083D01*
X116672684Y-72111083D02*
X116767922Y-72206321D01*
X116767922Y-72206321D02*
X116958398Y-72301559D01*
X116958398Y-72301559D02*
X117244113Y-72301559D01*
X117244113Y-72301559D02*
X117434589Y-72206321D01*
X117434589Y-72206321D02*
X117529827Y-72111083D01*
X117529827Y-72111083D02*
X117625065Y-71920606D01*
X117625065Y-71920606D02*
X117625065Y-71349178D01*
X117625065Y-71349178D02*
X117529827Y-71158702D01*
X117529827Y-71158702D02*
X117434589Y-71063464D01*
X117434589Y-71063464D02*
X117244113Y-70968225D01*
X117244113Y-70968225D02*
X116958398Y-70968225D01*
X118482208Y-70968225D02*
X118482208Y-72301559D01*
X118482208Y-72111083D02*
X118577446Y-72206321D01*
X118577446Y-72206321D02*
X118767922Y-72301559D01*
X118767922Y-72301559D02*
X119053637Y-72301559D01*
X119053637Y-72301559D02*
X119244113Y-72206321D01*
X119244113Y-72206321D02*
X119339351Y-72015844D01*
X119339351Y-72015844D02*
X119339351Y-70968225D01*
X119339351Y-72015844D02*
X119434589Y-72206321D01*
X119434589Y-72206321D02*
X119625065Y-72301559D01*
X119625065Y-72301559D02*
X119910779Y-72301559D01*
X119910779Y-72301559D02*
X120101256Y-72206321D01*
X120101256Y-72206321D02*
X120196494Y-72015844D01*
X120196494Y-72015844D02*
X120196494Y-70968225D01*
X121148875Y-70968225D02*
X121148875Y-72301559D01*
X121148875Y-72111083D02*
X121244113Y-72206321D01*
X121244113Y-72206321D02*
X121434589Y-72301559D01*
X121434589Y-72301559D02*
X121720304Y-72301559D01*
X121720304Y-72301559D02*
X121910780Y-72206321D01*
X121910780Y-72206321D02*
X122006018Y-72015844D01*
X122006018Y-72015844D02*
X122006018Y-70968225D01*
X122006018Y-72015844D02*
X122101256Y-72206321D01*
X122101256Y-72206321D02*
X122291732Y-72301559D01*
X122291732Y-72301559D02*
X122577446Y-72301559D01*
X122577446Y-72301559D02*
X122767923Y-72206321D01*
X122767923Y-72206321D02*
X122863161Y-72015844D01*
X122863161Y-72015844D02*
X122863161Y-70968225D01*
X123625066Y-72301559D02*
X124101256Y-70968225D01*
X124577447Y-72301559D02*
X124101256Y-70968225D01*
X124101256Y-70968225D02*
X123910780Y-70492035D01*
X123910780Y-70492035D02*
X123815542Y-70396797D01*
X123815542Y-70396797D02*
X123625066Y-70301559D01*
X126863162Y-70968225D02*
X126863162Y-72968225D01*
X126863162Y-72968225D02*
X127625067Y-72968225D01*
X127625067Y-72968225D02*
X127815543Y-72872987D01*
X127815543Y-72872987D02*
X127910781Y-72777749D01*
X127910781Y-72777749D02*
X128006019Y-72587273D01*
X128006019Y-72587273D02*
X128006019Y-72301559D01*
X128006019Y-72301559D02*
X127910781Y-72111083D01*
X127910781Y-72111083D02*
X127815543Y-72015844D01*
X127815543Y-72015844D02*
X127625067Y-71920606D01*
X127625067Y-71920606D02*
X126863162Y-71920606D01*
X128863162Y-70968225D02*
X128863162Y-72301559D01*
X128863162Y-72968225D02*
X128767924Y-72872987D01*
X128767924Y-72872987D02*
X128863162Y-72777749D01*
X128863162Y-72777749D02*
X128958400Y-72872987D01*
X128958400Y-72872987D02*
X128863162Y-72968225D01*
X128863162Y-72968225D02*
X128863162Y-72777749D01*
X130672686Y-71063464D02*
X130482210Y-70968225D01*
X130482210Y-70968225D02*
X130101257Y-70968225D01*
X130101257Y-70968225D02*
X129910781Y-71063464D01*
X129910781Y-71063464D02*
X129815543Y-71158702D01*
X129815543Y-71158702D02*
X129720305Y-71349178D01*
X129720305Y-71349178D02*
X129720305Y-71920606D01*
X129720305Y-71920606D02*
X129815543Y-72111083D01*
X129815543Y-72111083D02*
X129910781Y-72206321D01*
X129910781Y-72206321D02*
X130101257Y-72301559D01*
X130101257Y-72301559D02*
X130482210Y-72301559D01*
X130482210Y-72301559D02*
X130672686Y-72206321D01*
X131529829Y-70968225D02*
X131529829Y-72968225D01*
X131720305Y-71730130D02*
X132291734Y-70968225D01*
X132291734Y-72301559D02*
X131529829Y-71539654D01*
X133434591Y-70968225D02*
X133244115Y-71063464D01*
X133244115Y-71063464D02*
X133148877Y-71253940D01*
X133148877Y-71253940D02*
X133148877Y-72968225D01*
X134958401Y-71063464D02*
X134767925Y-70968225D01*
X134767925Y-70968225D02*
X134386972Y-70968225D01*
X134386972Y-70968225D02*
X134196496Y-71063464D01*
X134196496Y-71063464D02*
X134101258Y-71253940D01*
X134101258Y-71253940D02*
X134101258Y-72015844D01*
X134101258Y-72015844D02*
X134196496Y-72206321D01*
X134196496Y-72206321D02*
X134386972Y-72301559D01*
X134386972Y-72301559D02*
X134767925Y-72301559D01*
X134767925Y-72301559D02*
X134958401Y-72206321D01*
X134958401Y-72206321D02*
X135053639Y-72015844D01*
X135053639Y-72015844D02*
X135053639Y-71825368D01*
X135053639Y-71825368D02*
X134101258Y-71634892D01*
X138006021Y-70206321D02*
X137910782Y-70301559D01*
X137910782Y-70301559D02*
X137720306Y-70587273D01*
X137720306Y-70587273D02*
X137625068Y-70777749D01*
X137625068Y-70777749D02*
X137529830Y-71063464D01*
X137529830Y-71063464D02*
X137434592Y-71539654D01*
X137434592Y-71539654D02*
X137434592Y-71920606D01*
X137434592Y-71920606D02*
X137529830Y-72396797D01*
X137529830Y-72396797D02*
X137625068Y-72682511D01*
X137625068Y-72682511D02*
X137720306Y-72872987D01*
X137720306Y-72872987D02*
X137910782Y-73158702D01*
X137910782Y-73158702D02*
X138006021Y-73253940D01*
X139910782Y-70968225D02*
X139244115Y-71920606D01*
X138767925Y-70968225D02*
X138767925Y-72968225D01*
X138767925Y-72968225D02*
X139529830Y-72968225D01*
X139529830Y-72968225D02*
X139720306Y-72872987D01*
X139720306Y-72872987D02*
X139815544Y-72777749D01*
X139815544Y-72777749D02*
X139910782Y-72587273D01*
X139910782Y-72587273D02*
X139910782Y-72301559D01*
X139910782Y-72301559D02*
X139815544Y-72111083D01*
X139815544Y-72111083D02*
X139720306Y-72015844D01*
X139720306Y-72015844D02*
X139529830Y-71920606D01*
X139529830Y-71920606D02*
X138767925Y-71920606D01*
X140767925Y-70968225D02*
X140767925Y-72968225D01*
X141720306Y-70968225D02*
X141720306Y-72968225D01*
X141720306Y-72968225D02*
X142482211Y-72968225D01*
X142482211Y-72968225D02*
X142672687Y-72872987D01*
X142672687Y-72872987D02*
X142767925Y-72777749D01*
X142767925Y-72777749D02*
X142863163Y-72587273D01*
X142863163Y-72587273D02*
X142863163Y-72301559D01*
X142863163Y-72301559D02*
X142767925Y-72111083D01*
X142767925Y-72111083D02*
X142672687Y-72015844D01*
X142672687Y-72015844D02*
X142482211Y-71920606D01*
X142482211Y-71920606D02*
X141720306Y-71920606D01*
X143529830Y-70206321D02*
X143625068Y-70301559D01*
X143625068Y-70301559D02*
X143815544Y-70587273D01*
X143815544Y-70587273D02*
X143910782Y-70777749D01*
X143910782Y-70777749D02*
X144006020Y-71063464D01*
X144006020Y-71063464D02*
X144101258Y-71539654D01*
X144101258Y-71539654D02*
X144101258Y-71920606D01*
X144101258Y-71920606D02*
X144006020Y-72396797D01*
X144006020Y-72396797D02*
X143910782Y-72682511D01*
X143910782Y-72682511D02*
X143815544Y-72872987D01*
X143815544Y-72872987D02*
X143625068Y-73158702D01*
X143625068Y-73158702D02*
X143529830Y-73253940D01*
X115148874Y-68795956D02*
X115815541Y-68795956D01*
X116101255Y-67748337D02*
X115148874Y-67748337D01*
X115148874Y-67748337D02*
X115148874Y-69748337D01*
X115148874Y-69748337D02*
X116101255Y-69748337D01*
X118101255Y-67748337D02*
X117434588Y-68700718D01*
X116958398Y-67748337D02*
X116958398Y-69748337D01*
X116958398Y-69748337D02*
X117720303Y-69748337D01*
X117720303Y-69748337D02*
X117910779Y-69653099D01*
X117910779Y-69653099D02*
X118006017Y-69557861D01*
X118006017Y-69557861D02*
X118101255Y-69367385D01*
X118101255Y-69367385D02*
X118101255Y-69081671D01*
X118101255Y-69081671D02*
X118006017Y-68891195D01*
X118006017Y-68891195D02*
X117910779Y-68795956D01*
X117910779Y-68795956D02*
X117720303Y-68700718D01*
X117720303Y-68700718D02*
X116958398Y-68700718D01*
X118863160Y-68319766D02*
X119815541Y-68319766D01*
X118672684Y-67748337D02*
X119339350Y-69748337D01*
X119339350Y-69748337D02*
X120006017Y-67748337D01*
X120482208Y-69748337D02*
X120958398Y-67748337D01*
X120958398Y-67748337D02*
X121339351Y-69176909D01*
X121339351Y-69176909D02*
X121720303Y-67748337D01*
X121720303Y-67748337D02*
X122196494Y-69748337D01*
X115720303Y-66528449D02*
X115720303Y-65099878D01*
X115720303Y-65099878D02*
X115625064Y-64814164D01*
X115625064Y-64814164D02*
X115434588Y-64623688D01*
X115434588Y-64623688D02*
X115148874Y-64528449D01*
X115148874Y-64528449D02*
X114958398Y-64528449D01*
X117529827Y-65861783D02*
X117529827Y-64528449D01*
X116672684Y-65861783D02*
X116672684Y-64814164D01*
X116672684Y-64814164D02*
X116767922Y-64623688D01*
X116767922Y-64623688D02*
X116958398Y-64528449D01*
X116958398Y-64528449D02*
X117244113Y-64528449D01*
X117244113Y-64528449D02*
X117434589Y-64623688D01*
X117434589Y-64623688D02*
X117529827Y-64718926D01*
X118386970Y-64623688D02*
X118577446Y-64528449D01*
X118577446Y-64528449D02*
X118958398Y-64528449D01*
X118958398Y-64528449D02*
X119148875Y-64623688D01*
X119148875Y-64623688D02*
X119244113Y-64814164D01*
X119244113Y-64814164D02*
X119244113Y-64909402D01*
X119244113Y-64909402D02*
X119148875Y-65099878D01*
X119148875Y-65099878D02*
X118958398Y-65195116D01*
X118958398Y-65195116D02*
X118672684Y-65195116D01*
X118672684Y-65195116D02*
X118482208Y-65290354D01*
X118482208Y-65290354D02*
X118386970Y-65480830D01*
X118386970Y-65480830D02*
X118386970Y-65576068D01*
X118386970Y-65576068D02*
X118482208Y-65766545D01*
X118482208Y-65766545D02*
X118672684Y-65861783D01*
X118672684Y-65861783D02*
X118958398Y-65861783D01*
X118958398Y-65861783D02*
X119148875Y-65766545D01*
X120101256Y-64528449D02*
X120101256Y-66528449D01*
X120958399Y-64528449D02*
X120958399Y-65576068D01*
X120958399Y-65576068D02*
X120863161Y-65766545D01*
X120863161Y-65766545D02*
X120672685Y-65861783D01*
X120672685Y-65861783D02*
X120386970Y-65861783D01*
X120386970Y-65861783D02*
X120196494Y-65766545D01*
X120196494Y-65766545D02*
X120101256Y-65671307D01*
X122767923Y-64528449D02*
X122767923Y-65576068D01*
X122767923Y-65576068D02*
X122672685Y-65766545D01*
X122672685Y-65766545D02*
X122482209Y-65861783D01*
X122482209Y-65861783D02*
X122101256Y-65861783D01*
X122101256Y-65861783D02*
X121910780Y-65766545D01*
X122767923Y-64623688D02*
X122577447Y-64528449D01*
X122577447Y-64528449D02*
X122101256Y-64528449D01*
X122101256Y-64528449D02*
X121910780Y-64623688D01*
X121910780Y-64623688D02*
X121815542Y-64814164D01*
X121815542Y-64814164D02*
X121815542Y-65004640D01*
X121815542Y-65004640D02*
X121910780Y-65195116D01*
X121910780Y-65195116D02*
X122101256Y-65290354D01*
X122101256Y-65290354D02*
X122577447Y-65290354D01*
X122577447Y-65290354D02*
X122767923Y-65385592D01*
X123625066Y-64623688D02*
X123815542Y-64528449D01*
X123815542Y-64528449D02*
X124196494Y-64528449D01*
X124196494Y-64528449D02*
X124386971Y-64623688D01*
X124386971Y-64623688D02*
X124482209Y-64814164D01*
X124482209Y-64814164D02*
X124482209Y-64909402D01*
X124482209Y-64909402D02*
X124386971Y-65099878D01*
X124386971Y-65099878D02*
X124196494Y-65195116D01*
X124196494Y-65195116D02*
X123910780Y-65195116D01*
X123910780Y-65195116D02*
X123720304Y-65290354D01*
X123720304Y-65290354D02*
X123625066Y-65480830D01*
X123625066Y-65480830D02*
X123625066Y-65576068D01*
X123625066Y-65576068D02*
X123720304Y-65766545D01*
X123720304Y-65766545D02*
X123910780Y-65861783D01*
X123910780Y-65861783D02*
X124196494Y-65861783D01*
X124196494Y-65861783D02*
X124386971Y-65766545D01*
X125339352Y-64528449D02*
X125339352Y-66528449D01*
X126196495Y-64528449D02*
X126196495Y-65576068D01*
X126196495Y-65576068D02*
X126101257Y-65766545D01*
X126101257Y-65766545D02*
X125910781Y-65861783D01*
X125910781Y-65861783D02*
X125625066Y-65861783D01*
X125625066Y-65861783D02*
X125434590Y-65766545D01*
X125434590Y-65766545D02*
X125339352Y-65671307D01*
X128006019Y-64528449D02*
X128006019Y-65576068D01*
X128006019Y-65576068D02*
X127910781Y-65766545D01*
X127910781Y-65766545D02*
X127720305Y-65861783D01*
X127720305Y-65861783D02*
X127339352Y-65861783D01*
X127339352Y-65861783D02*
X127148876Y-65766545D01*
X128006019Y-64623688D02*
X127815543Y-64528449D01*
X127815543Y-64528449D02*
X127339352Y-64528449D01*
X127339352Y-64528449D02*
X127148876Y-64623688D01*
X127148876Y-64623688D02*
X127053638Y-64814164D01*
X127053638Y-64814164D02*
X127053638Y-65004640D01*
X127053638Y-65004640D02*
X127148876Y-65195116D01*
X127148876Y-65195116D02*
X127339352Y-65290354D01*
X127339352Y-65290354D02*
X127815543Y-65290354D01*
X127815543Y-65290354D02*
X128006019Y-65385592D01*
X116291731Y-61499038D02*
X116196493Y-61403800D01*
X116196493Y-61403800D02*
X115910779Y-61308561D01*
X115910779Y-61308561D02*
X115720303Y-61308561D01*
X115720303Y-61308561D02*
X115434588Y-61403800D01*
X115434588Y-61403800D02*
X115244112Y-61594276D01*
X115244112Y-61594276D02*
X115148874Y-61784752D01*
X115148874Y-61784752D02*
X115053636Y-62165704D01*
X115053636Y-62165704D02*
X115053636Y-62451419D01*
X115053636Y-62451419D02*
X115148874Y-62832371D01*
X115148874Y-62832371D02*
X115244112Y-63022847D01*
X115244112Y-63022847D02*
X115434588Y-63213323D01*
X115434588Y-63213323D02*
X115720303Y-63308561D01*
X115720303Y-63308561D02*
X115910779Y-63308561D01*
X115910779Y-63308561D02*
X116196493Y-63213323D01*
X116196493Y-63213323D02*
X116291731Y-63118085D01*
X117434588Y-61308561D02*
X117244112Y-61403800D01*
X117244112Y-61403800D02*
X117148874Y-61499038D01*
X117148874Y-61499038D02*
X117053636Y-61689514D01*
X117053636Y-61689514D02*
X117053636Y-62260942D01*
X117053636Y-62260942D02*
X117148874Y-62451419D01*
X117148874Y-62451419D02*
X117244112Y-62546657D01*
X117244112Y-62546657D02*
X117434588Y-62641895D01*
X117434588Y-62641895D02*
X117720303Y-62641895D01*
X117720303Y-62641895D02*
X117910779Y-62546657D01*
X117910779Y-62546657D02*
X118006017Y-62451419D01*
X118006017Y-62451419D02*
X118101255Y-62260942D01*
X118101255Y-62260942D02*
X118101255Y-61689514D01*
X118101255Y-61689514D02*
X118006017Y-61499038D01*
X118006017Y-61499038D02*
X117910779Y-61403800D01*
X117910779Y-61403800D02*
X117720303Y-61308561D01*
X117720303Y-61308561D02*
X117434588Y-61308561D01*
X118958398Y-62641895D02*
X118958398Y-61308561D01*
X118958398Y-62451419D02*
X119053636Y-62546657D01*
X119053636Y-62546657D02*
X119244112Y-62641895D01*
X119244112Y-62641895D02*
X119529827Y-62641895D01*
X119529827Y-62641895D02*
X119720303Y-62546657D01*
X119720303Y-62546657D02*
X119815541Y-62356180D01*
X119815541Y-62356180D02*
X119815541Y-61308561D01*
%LPC*%
D10*
X213720000Y-90395000D02*
X215420000Y-90395000D01*
X215420000Y-92105000D01*
X213720000Y-92105000D01*
X213720000Y-90395000D01*
G36*
X213720000Y-90395000D02*
G01*
X215420000Y-90395000D01*
X215420000Y-92105000D01*
X213720000Y-92105000D01*
X213720000Y-90395000D01*
G37*
X213720000Y-66155000D02*
X215420000Y-66155000D01*
X215420000Y-67865000D01*
X213720000Y-67865000D01*
X213720000Y-66155000D01*
G36*
X213720000Y-66155000D02*
G01*
X215420000Y-66155000D01*
X215420000Y-67865000D01*
X213720000Y-67865000D01*
X213720000Y-66155000D01*
G37*
X213720000Y-41905000D02*
X215420000Y-41905000D01*
X215420000Y-43615000D01*
X213720000Y-43615000D01*
X213720000Y-41905000D01*
G36*
X213720000Y-41905000D02*
G01*
X215420000Y-41905000D01*
X215420000Y-43615000D01*
X213720000Y-43615000D01*
X213720000Y-41905000D01*
G37*
X213720000Y-114640000D02*
X215420000Y-114640000D01*
X215420000Y-116350000D01*
X213720000Y-116350000D01*
X213720000Y-114640000D01*
G36*
X213720000Y-114640000D02*
G01*
X215420000Y-114640000D01*
X215420000Y-116350000D01*
X213720000Y-116350000D01*
X213720000Y-114640000D01*
G37*
D12*
%TO.C,J18*%
X248384500Y-88671999D03*
X248384500Y-94321999D03*
%TD*%
D13*
%TO.C,J4*%
X127280000Y-92920000D03*
%TD*%
%TO.C,J3*%
X96280000Y-121920000D03*
%TD*%
D12*
%TO.C,J21*%
X248383500Y-112922000D03*
X248383500Y-118572000D03*
%TD*%
D13*
%TO.C,J2*%
X96280000Y-92920000D03*
%TD*%
D14*
%TO.C,J25*%
X110560000Y-37500000D03*
D15*
X110560000Y-34960000D03*
X113100000Y-37500000D03*
X113100000Y-34960000D03*
X115640000Y-37500000D03*
X115640000Y-34960000D03*
X118180000Y-37500000D03*
X118180000Y-34960000D03*
X120720000Y-37500000D03*
X120720000Y-34960000D03*
X123260000Y-37500000D03*
X123260000Y-34960000D03*
X125800000Y-37500000D03*
X125800000Y-34960000D03*
X128340000Y-37500000D03*
X128340000Y-34960000D03*
X130880000Y-37500000D03*
X130880000Y-34960000D03*
X133420000Y-37500000D03*
X133420000Y-34960000D03*
X135960000Y-37500000D03*
X135960000Y-34960000D03*
X138500000Y-37500000D03*
X138500000Y-34960000D03*
X141040000Y-37500000D03*
X141040000Y-34960000D03*
X143580000Y-37500000D03*
X143580000Y-34960000D03*
%TD*%
D13*
%TO.C,J7*%
X85200000Y-105600000D03*
D15*
X85200000Y-108140000D03*
X85200000Y-110680000D03*
%TD*%
D13*
%TO.C,J5*%
X127280000Y-121920000D03*
%TD*%
D12*
%TO.C,J15*%
X248386500Y-64425000D03*
X248386500Y-70075000D03*
%TD*%
D16*
%TO.C,J1*%
X85112500Y-82200000D03*
X85112500Y-76550000D03*
%TD*%
D17*
%TO.C,J8*%
X87475000Y-53770000D03*
D15*
X84935000Y-53770000D03*
X87475000Y-51230000D03*
X84935000Y-51230000D03*
X87475000Y-48690000D03*
X84935000Y-48690000D03*
X87475000Y-46150000D03*
X84935000Y-46150000D03*
X87475000Y-43610000D03*
X84935000Y-43610000D03*
X87475000Y-41070000D03*
X84935000Y-41070000D03*
X87475000Y-38530000D03*
X84935000Y-38530000D03*
X87475000Y-35990000D03*
X84935000Y-35990000D03*
%TD*%
D12*
%TO.C,J6*%
X248387500Y-40175000D03*
X248387500Y-45825000D03*
%TD*%
D18*
X123750000Y-46000000D03*
X180390000Y-126000000D03*
D19*
X91943000Y-96955000D03*
D18*
X185370000Y-126000000D03*
D19*
X91943000Y-98267000D03*
X90906500Y-110631500D03*
D18*
X117819000Y-46000000D03*
X175720000Y-126000000D03*
%LPD*%
M02*
