%TF.GenerationSoftware,KiCad,Pcbnew,9.0.4*%
%TF.CreationDate,2025-11-03T21:40:28-06:00*%
%TF.ProjectId,TX_Board,54585f42-6f61-4726-942e-6b696361645f,rev?*%
%TF.SameCoordinates,Original*%
%TF.FileFunction,Copper,L4,Bot*%
%TF.FilePolarity,Positive*%
%FSLAX46Y46*%
G04 Gerber Fmt 4.6, Leading zero omitted, Abs format (unit mm)*
G04 Created by KiCad (PCBNEW 9.0.4) date 2025-11-03 21:40:28*
%MOMM*%
%LPD*%
G01*
G04 APERTURE LIST*
%TA.AperFunction,SMDPad,CuDef*%
%ADD10R,5.080000X1.500000*%
%TD*%
%TA.AperFunction,ComponentPad*%
%ADD11R,1.700000X1.700000*%
%TD*%
%TA.AperFunction,ComponentPad*%
%ADD12C,1.700000*%
%TD*%
%TA.AperFunction,ViaPad*%
%ADD13C,0.600000*%
%TD*%
%TA.AperFunction,Conductor*%
%ADD14C,0.200000*%
%TD*%
G04 APERTURE END LIST*
D10*
%TO.P,J24,2,Ext*%
%TO.N,GND*%
X227400000Y-111500000D03*
X227400000Y-120000000D03*
%TD*%
D11*
%TO.P,J4,1,Pin_1*%
%TO.N,unconnected-(J4-Pin_1-Pad1)*%
X127280000Y-92920000D03*
%TD*%
%TO.P,J3,1,Pin_1*%
%TO.N,unconnected-(J3-Pin_1-Pad1)*%
X96280000Y-121920000D03*
%TD*%
D10*
%TO.P,J21,2,Ext*%
%TO.N,GND*%
X227400000Y-87250000D03*
X227400000Y-95750000D03*
%TD*%
D11*
%TO.P,J6,1,Pin_1*%
%TO.N,GPIO0*%
X110500000Y-35750000D03*
D12*
%TO.P,J6,2,Pin_2*%
X110500000Y-33210000D03*
%TO.P,J6,3,Pin_3*%
%TO.N,GPIO1*%
X113040000Y-35750000D03*
%TO.P,J6,4,Pin_4*%
X113040000Y-33210000D03*
%TO.P,J6,5,Pin_5*%
%TO.N,GPIO2*%
X115580000Y-35750000D03*
%TO.P,J6,6,Pin_6*%
X115580000Y-33210000D03*
%TO.P,J6,7,Pin_7*%
%TO.N,GPIO3*%
X118120000Y-35750000D03*
%TO.P,J6,8,Pin_8*%
X118120000Y-33210000D03*
%TO.P,J6,9,Pin_9*%
%TO.N,PS_SER_IN*%
X120660000Y-35750000D03*
%TO.P,J6,10,Pin_10*%
X120660000Y-33210000D03*
%TO.P,J6,11,Pin_11*%
%TO.N,PS_CLK*%
X123200000Y-35750000D03*
%TO.P,J6,12,Pin_12*%
X123200000Y-33210000D03*
%TO.P,J6,13,Pin_13*%
%TO.N,PS_SER_OUT*%
X125740000Y-35750000D03*
%TO.P,J6,14,Pin_14*%
X125740000Y-33210000D03*
%TO.P,J6,15,Pin_15*%
%TO.N,ATTN_SI*%
X128280000Y-35750000D03*
%TO.P,J6,16,Pin_16*%
X128280000Y-33210000D03*
%TO.P,J6,17,Pin_17*%
%TO.N,ATTN_CLK*%
X130820000Y-35750000D03*
%TO.P,J6,18,Pin_18*%
X130820000Y-33210000D03*
%TO.P,J6,19,Pin_19*%
%TO.N,GND*%
X133360000Y-35750000D03*
%TO.P,J6,20,Pin_20*%
X133360000Y-33210000D03*
%TO.P,J6,21,Pin_21*%
X135900000Y-35750000D03*
%TO.P,J6,22,Pin_22*%
X135900000Y-33210000D03*
%TO.P,J6,23,Pin_23*%
X138440000Y-35750000D03*
%TO.P,J6,24,Pin_24*%
X138440000Y-33210000D03*
%TD*%
D11*
%TO.P,J2,1,Pin_1*%
%TO.N,unconnected-(J2-Pin_1-Pad1)*%
X96280000Y-92920000D03*
%TD*%
%TO.P,J7,1,Pin_1*%
%TO.N,+VDC*%
X85200000Y-105600000D03*
D12*
%TO.P,J7,2,Pin_2*%
%TO.N,GND*%
X85200000Y-108140000D03*
%TO.P,J7,3,Pin_3*%
%TO.N,-VDC*%
X85200000Y-110680000D03*
%TD*%
D11*
%TO.P,J5,1,Pin_1*%
%TO.N,unconnected-(J5-Pin_1-Pad1)*%
X127280000Y-121920000D03*
%TD*%
D10*
%TO.P,J15,2,Ext*%
%TO.N,GND*%
X227400000Y-38750000D03*
X227400000Y-47250000D03*
%TD*%
%TO.P,J1,2,Ext*%
%TO.N,GND*%
X84862500Y-83625000D03*
X84862500Y-75125000D03*
%TD*%
D11*
%TO.P,J8,1,Pin_1*%
%TO.N,ATTN_LE_4*%
X87475000Y-53770000D03*
D12*
%TO.P,J8,2,Pin_2*%
X84935000Y-53770000D03*
%TO.P,J8,3,Pin_3*%
%TO.N,ATTN_LE_3*%
X87475000Y-51230000D03*
%TO.P,J8,4,Pin_4*%
X84935000Y-51230000D03*
%TO.P,J8,5,Pin_5*%
%TO.N,ATTN_LE_2*%
X87475000Y-48690000D03*
%TO.P,J8,6,Pin_6*%
X84935000Y-48690000D03*
%TO.P,J8,7,Pin_7*%
%TO.N,ATTN_LE_1*%
X87475000Y-46150000D03*
%TO.P,J8,8,Pin_8*%
X84935000Y-46150000D03*
%TO.P,J8,9,Pin_9*%
%TO.N,PS_LE_4*%
X87475000Y-43610000D03*
%TO.P,J8,10,Pin_10*%
X84935000Y-43610000D03*
%TO.P,J8,11,Pin_11*%
%TO.N,PS_LE_3*%
X87475000Y-41070000D03*
%TO.P,J8,12,Pin_12*%
X84935000Y-41070000D03*
%TO.P,J8,13,Pin_13*%
%TO.N,PS_LE_2*%
X87475000Y-38530000D03*
%TO.P,J8,14,Pin_14*%
X84935000Y-38530000D03*
%TO.P,J8,15,Pin_15*%
%TO.N,PS_LE_1*%
X87475000Y-35990000D03*
%TO.P,J8,16,Pin_16*%
X84935000Y-35990000D03*
%TD*%
D10*
%TO.P,J18,2,Ext*%
%TO.N,GND*%
X227400000Y-63000000D03*
X227400000Y-71500000D03*
%TD*%
D13*
%TO.N,GND*%
X110470000Y-46370000D03*
X93725000Y-53100000D03*
X175900000Y-60275000D03*
X228260000Y-38750000D03*
X225710000Y-63000000D03*
X228250000Y-120000000D03*
X177070000Y-40950000D03*
X84038000Y-75124000D03*
X209810000Y-86425000D03*
X94260000Y-120825000D03*
X194860649Y-90650000D03*
X85712500Y-83807000D03*
X214970000Y-66600000D03*
X176270000Y-115300000D03*
X190900000Y-87625000D03*
X175470000Y-115300000D03*
X214170000Y-115100000D03*
X209810000Y-86425000D03*
X83188000Y-75124000D03*
X194860649Y-42150000D03*
X90400000Y-104200000D03*
X182100000Y-64825000D03*
X195660649Y-65600000D03*
X128550000Y-79375000D03*
X225700000Y-120000000D03*
X226560000Y-63000000D03*
X93725000Y-51625872D03*
X175900000Y-36025000D03*
X180600000Y-64825000D03*
X228260000Y-63000000D03*
X214170000Y-91650000D03*
X175470000Y-41750000D03*
X176270000Y-41750000D03*
X181900000Y-60275000D03*
X168400000Y-62075000D03*
X175470000Y-114500000D03*
X90400000Y-103400000D03*
X208310000Y-86425000D03*
X148550000Y-55125000D03*
X194860649Y-90650000D03*
X172900000Y-38725000D03*
X227400000Y-120000000D03*
X220050000Y-61525000D03*
X228250000Y-120000000D03*
X208310000Y-62175000D03*
X84012500Y-83807000D03*
X214970000Y-115900000D03*
X214170000Y-115900000D03*
X214970000Y-67400000D03*
X209800000Y-118775000D03*
X175900000Y-108775000D03*
X175470000Y-42550000D03*
X213350000Y-87560000D03*
X229100000Y-71500000D03*
X181900000Y-84525000D03*
X84862500Y-83807000D03*
X228260000Y-63000000D03*
X214970000Y-91650000D03*
X182100000Y-89075000D03*
X196900000Y-60975000D03*
X169900000Y-62075000D03*
X214970000Y-91650000D03*
X227410000Y-87250000D03*
X181900000Y-60275000D03*
X177070000Y-66000000D03*
X176270000Y-42550000D03*
X176270000Y-40950000D03*
X194860649Y-114100000D03*
X228250000Y-47250000D03*
X176270000Y-113700000D03*
X172900000Y-87225000D03*
X209800000Y-94525000D03*
X211300000Y-94525000D03*
X227410000Y-63000000D03*
X184900000Y-84525000D03*
X225710000Y-87250000D03*
X227410000Y-63000000D03*
X209800000Y-118775000D03*
X192400000Y-39125000D03*
X182100000Y-113325000D03*
X177070000Y-114500000D03*
X190900000Y-111875000D03*
X171400000Y-111475000D03*
X177070000Y-41750000D03*
X169900000Y-37825000D03*
X214970000Y-42350000D03*
X175470000Y-91050000D03*
X221550000Y-61525000D03*
X202900000Y-60975000D03*
X169900000Y-86325000D03*
X202900000Y-109475000D03*
X177070000Y-42550000D03*
X91200000Y-105800000D03*
X220050000Y-110025000D03*
X202900000Y-109475000D03*
X171400000Y-87225000D03*
X227400000Y-71500000D03*
X216350000Y-87560000D03*
X216350000Y-87560000D03*
X229110000Y-87250000D03*
X195660649Y-114900000D03*
X229100000Y-95750000D03*
X228250000Y-95750000D03*
X214970000Y-90850000D03*
X220050000Y-37275000D03*
X177070000Y-65200000D03*
X184900000Y-108775000D03*
X190900000Y-63375000D03*
X184900000Y-60275000D03*
X180600000Y-113325000D03*
X190900000Y-63375000D03*
X86562500Y-83807000D03*
X208310000Y-62175000D03*
X208310000Y-86425000D03*
X214170000Y-67400000D03*
X177070000Y-115300000D03*
X171400000Y-111475000D03*
X216350000Y-63310000D03*
X225710000Y-38750000D03*
X229110000Y-87250000D03*
X225710000Y-111500000D03*
X226560000Y-87250000D03*
X195660649Y-66400000D03*
X176270000Y-66000000D03*
X226550000Y-71500000D03*
X195660649Y-114100000D03*
X211300000Y-94525000D03*
X180600000Y-64825000D03*
X229110000Y-63000000D03*
X184900000Y-84525000D03*
X177070000Y-115300000D03*
X86588000Y-75124000D03*
X202900000Y-85225000D03*
X213350000Y-39060000D03*
X228250000Y-71500000D03*
X194860649Y-89850000D03*
X211300000Y-70275000D03*
X221550000Y-110025000D03*
X214970000Y-115900000D03*
X180600000Y-89075000D03*
X214170000Y-90850000D03*
X228250000Y-95750000D03*
X168400000Y-110575000D03*
X220050000Y-61525000D03*
X213350000Y-63310000D03*
X180600000Y-113325000D03*
X195660649Y-114900000D03*
X171400000Y-87225000D03*
X172900000Y-62975000D03*
X209800000Y-70275000D03*
X216350000Y-39060000D03*
X175470000Y-89450000D03*
X168400000Y-37825000D03*
X176270000Y-65200000D03*
X195660649Y-90650000D03*
X175470000Y-115300000D03*
X225710000Y-111500000D03*
X228260000Y-111500000D03*
X225700000Y-95750000D03*
X220050000Y-110025000D03*
X229110000Y-111500000D03*
X195660649Y-114100000D03*
X225700000Y-47250000D03*
X83162500Y-83807000D03*
X208310000Y-110675000D03*
X202900000Y-36725000D03*
X209810000Y-62175000D03*
X226550000Y-47250000D03*
X175470000Y-113700000D03*
X226560000Y-87250000D03*
X213350000Y-111810000D03*
X226560000Y-111500000D03*
X84888000Y-75124000D03*
X90400000Y-105000000D03*
X171400000Y-62975000D03*
X227400000Y-120000000D03*
X226560000Y-38750000D03*
X148550000Y-103625000D03*
X221550000Y-110025000D03*
X177070000Y-91050000D03*
X225700000Y-71500000D03*
X227400000Y-71500000D03*
X175900000Y-84525000D03*
X190900000Y-39125000D03*
X227400000Y-95750000D03*
X180600000Y-40575000D03*
X225710000Y-63000000D03*
X182100000Y-64825000D03*
X214170000Y-90850000D03*
X168400000Y-86325000D03*
X182100000Y-40575000D03*
X194860649Y-65600000D03*
X181900000Y-108775000D03*
X176270000Y-89450000D03*
X214970000Y-66600000D03*
X194860649Y-66400000D03*
X177070000Y-113700000D03*
X181900000Y-84525000D03*
X194860649Y-114100000D03*
X181900000Y-108775000D03*
X182100000Y-113325000D03*
X228260000Y-87250000D03*
X228250000Y-71500000D03*
X209810000Y-37925000D03*
X221550000Y-37275000D03*
X175470000Y-90250000D03*
X169900000Y-86325000D03*
X214970000Y-43150000D03*
X195660649Y-42150000D03*
X175900000Y-108775000D03*
X216350000Y-111810000D03*
X229100000Y-95750000D03*
X177070000Y-66800000D03*
X227410000Y-111500000D03*
X181900000Y-36025000D03*
X209810000Y-62175000D03*
X216350000Y-63310000D03*
X211300000Y-118775000D03*
X194860649Y-114900000D03*
X196900000Y-85225000D03*
X229100000Y-71500000D03*
X209800000Y-46025000D03*
X225700000Y-71500000D03*
X194860649Y-89850000D03*
X172900000Y-87225000D03*
X214170000Y-115100000D03*
X216350000Y-111810000D03*
X228260000Y-111500000D03*
X226550000Y-120000000D03*
X190900000Y-87625000D03*
X214170000Y-67400000D03*
X168400000Y-86325000D03*
X91200000Y-104200000D03*
X184900000Y-36025000D03*
X182100000Y-89075000D03*
X176270000Y-91050000D03*
X221550000Y-85775000D03*
X175900000Y-60275000D03*
X209800000Y-94525000D03*
X202900000Y-85225000D03*
X227410000Y-87250000D03*
X169900000Y-62075000D03*
X175900000Y-84525000D03*
X194860649Y-114900000D03*
X229110000Y-63000000D03*
X225700000Y-95750000D03*
X177070000Y-90250000D03*
X175470000Y-114500000D03*
X192400000Y-63375000D03*
X228260000Y-87250000D03*
X208310000Y-37925000D03*
X225710000Y-87250000D03*
X214170000Y-66600000D03*
X171400000Y-38725000D03*
X175470000Y-66000000D03*
X226560000Y-63000000D03*
X227400000Y-47250000D03*
X196900000Y-85225000D03*
X211300000Y-118775000D03*
X176270000Y-66800000D03*
X92900000Y-118950000D03*
X229110000Y-111500000D03*
X176270000Y-90250000D03*
X195660649Y-66400000D03*
X91200000Y-105000000D03*
X220050000Y-85775000D03*
X226550000Y-120000000D03*
X195660649Y-41350000D03*
X176270000Y-114500000D03*
X176270000Y-115300000D03*
X90400000Y-105800000D03*
X229100000Y-120000000D03*
X168400000Y-110575000D03*
X227410000Y-111500000D03*
X192400000Y-87625000D03*
X214170000Y-42350000D03*
X175470000Y-66800000D03*
X209810000Y-110675000D03*
X180600000Y-89075000D03*
X194860649Y-65600000D03*
X176270000Y-114500000D03*
X226550000Y-95750000D03*
X202900000Y-60975000D03*
X214970000Y-115100000D03*
X177070000Y-89450000D03*
X196900000Y-36725000D03*
X226550000Y-95750000D03*
X211300000Y-46025000D03*
X211300000Y-70275000D03*
X214970000Y-67400000D03*
X177070000Y-113700000D03*
X194860649Y-41350000D03*
X195660649Y-90650000D03*
X169900000Y-110575000D03*
X209810000Y-110675000D03*
X229110000Y-38750000D03*
X214170000Y-91650000D03*
X225700000Y-120000000D03*
X214170000Y-115900000D03*
X196900000Y-60975000D03*
X229100000Y-120000000D03*
X214170000Y-66600000D03*
X221550000Y-85775000D03*
X190900000Y-111875000D03*
X196900000Y-109475000D03*
X229100000Y-47250000D03*
X226560000Y-111500000D03*
X184900000Y-60275000D03*
X226550000Y-71500000D03*
X192400000Y-111875000D03*
X196900000Y-109475000D03*
X171400000Y-62975000D03*
X169900000Y-110575000D03*
X91200000Y-103400000D03*
X172900000Y-111475000D03*
X227400000Y-95750000D03*
X195660649Y-89850000D03*
X176270000Y-113700000D03*
X110470000Y-45120000D03*
X195660649Y-65600000D03*
X214970000Y-90850000D03*
X213350000Y-63310000D03*
X195660649Y-89850000D03*
X175470000Y-65200000D03*
X213350000Y-87560000D03*
X220050000Y-85775000D03*
X177070000Y-114500000D03*
X168400000Y-62075000D03*
X172900000Y-111475000D03*
X175470000Y-40950000D03*
X214170000Y-43150000D03*
X194860649Y-66400000D03*
X85738000Y-75124000D03*
X192400000Y-111875000D03*
X221550000Y-61525000D03*
X175470000Y-113700000D03*
X192400000Y-87625000D03*
X209800000Y-70275000D03*
X214970000Y-115100000D03*
X227410000Y-38750000D03*
X213350000Y-111810000D03*
X184900000Y-108775000D03*
X208310000Y-110675000D03*
X192400000Y-63375000D03*
%TO.N,VCC*%
X180600000Y-63275000D03*
X209800000Y-47575000D03*
X190900000Y-64925000D03*
X214850000Y-34500000D03*
X212800000Y-120375000D03*
X218550000Y-61475000D03*
X209800000Y-120325000D03*
X218550000Y-85725000D03*
X168400000Y-63625000D03*
X190900000Y-40675000D03*
X209800000Y-120325000D03*
X209800000Y-96075000D03*
X209800000Y-71825000D03*
X214850000Y-107250000D03*
X190900000Y-89175000D03*
X218550000Y-85725000D03*
X214850000Y-83000000D03*
X214850000Y-58750000D03*
X214850000Y-107250000D03*
X218550000Y-109975000D03*
X214850000Y-83000000D03*
X218550000Y-37225000D03*
X168400000Y-63625000D03*
X94000000Y-96750000D03*
X212800000Y-71875000D03*
X190900000Y-64925000D03*
X190900000Y-113425000D03*
X214850000Y-58750000D03*
X168400000Y-87875000D03*
X218550000Y-109975000D03*
X218550000Y-61475000D03*
X209800000Y-71825000D03*
X212800000Y-96125000D03*
X190900000Y-89175000D03*
X95275000Y-53100000D03*
X180600000Y-39025000D03*
X168400000Y-39375000D03*
X212800000Y-120375000D03*
X180600000Y-111775000D03*
X180600000Y-87525000D03*
X190900000Y-113425000D03*
X168400000Y-87875000D03*
X168400000Y-112125000D03*
X168400000Y-112125000D03*
X209800000Y-96075000D03*
X212800000Y-47625000D03*
%TO.N,VEE*%
X171400000Y-88775000D03*
X93425000Y-113150000D03*
X171400000Y-88775000D03*
X171400000Y-113025000D03*
X171400000Y-64525000D03*
X171400000Y-40275000D03*
X171400000Y-113025000D03*
X171400000Y-64525000D03*
%TO.N,Net-(IC4-PGFB)*%
X92300000Y-107100000D03*
X94900000Y-103600000D03*
%TO.N,PS_LE_4*%
X180400000Y-108725000D03*
X93675000Y-44255233D03*
X180400000Y-108725000D03*
%TO.N,PS_LE_2*%
X180400000Y-60225000D03*
X180400000Y-60225000D03*
X93675000Y-41306978D03*
%TO.N,ATTN_LE_2*%
X93675000Y-47203489D03*
X201400000Y-60925000D03*
X201400000Y-60925000D03*
%TO.N,ATTN_LE_4*%
X201400000Y-109425000D03*
X201400000Y-109425000D03*
X93675000Y-50151744D03*
%TO.N,ATTN_LE_1*%
X93675000Y-45729361D03*
X201400000Y-36675000D03*
%TO.N,ATTN_LE_3*%
X201400000Y-85175000D03*
X93675000Y-48677617D03*
X201400000Y-85175000D03*
%TO.N,PS_LE_1*%
X110450000Y-42620000D03*
X180400000Y-35975000D03*
%TO.N,PS_LE_3*%
X180400000Y-84475000D03*
X180400000Y-84475000D03*
X93675000Y-42781106D03*
%TO.N,PS_SER_IN*%
X174400000Y-84475000D03*
X174400000Y-60225000D03*
X174400000Y-108725000D03*
X174400000Y-35975000D03*
X174400000Y-108725000D03*
X174400000Y-84475000D03*
X174400000Y-60225000D03*
%TO.N,PS_CLK*%
X177400000Y-108725000D03*
X177400000Y-84475000D03*
X177400000Y-35975000D03*
X177400000Y-60225000D03*
X177400000Y-84475000D03*
X177400000Y-108725000D03*
X177400000Y-60225000D03*
%TO.N,PS_SER_OUT*%
X183400000Y-84475000D03*
X183400000Y-84475000D03*
X183400000Y-60225000D03*
X183400000Y-35975000D03*
X183400000Y-60225000D03*
X183400000Y-108725000D03*
X183400000Y-108725000D03*
%TO.N,ATTN_CLK*%
X198400000Y-85175000D03*
X198400000Y-60925000D03*
X198400000Y-109425000D03*
X198400000Y-60925000D03*
X198400000Y-109425000D03*
X198400000Y-36675000D03*
X198400000Y-85175000D03*
%TO.N,ATTN_SI*%
X195400000Y-60925000D03*
X195400000Y-109425000D03*
X195400000Y-85175000D03*
X195400000Y-109425000D03*
X195400000Y-85175000D03*
X195400000Y-60925000D03*
X195400000Y-36675000D03*
%TO.N,V_PD*%
X91750000Y-90750000D03*
X211290000Y-62125000D03*
X211290000Y-37875000D03*
X211290000Y-110625000D03*
X211290000Y-62125000D03*
X211290000Y-86375000D03*
X211290000Y-110625000D03*
X211290000Y-86375000D03*
%TD*%
D14*
%TO.N,Net-(IC4-PGFB)*%
X94900000Y-104500000D02*
X94900000Y-103600000D01*
X92300000Y-107100000D02*
X94900000Y-104500000D01*
%TO.N,PS_LE_4*%
X97718000Y-53650700D02*
X95279000Y-56089700D01*
X94677000Y-47618532D02*
X94638529Y-47657003D01*
X93675000Y-44255233D02*
X93675000Y-45128361D01*
X95078000Y-49003501D02*
X97718000Y-51643501D01*
X94076000Y-46178304D02*
X94076000Y-46201489D01*
X95279000Y-82320600D02*
X132787400Y-119829000D01*
X94677000Y-46788446D02*
X94677000Y-47618532D01*
X132787400Y-119829000D02*
X178022300Y-119829000D01*
X94276000Y-45480418D02*
X94276000Y-45978304D01*
X179373000Y-109297000D02*
X179945000Y-108725000D01*
X178022300Y-119829000D02*
X179373000Y-118478300D01*
X93923943Y-45128361D02*
X94276000Y-45480418D01*
X94076000Y-46201489D02*
X94090043Y-46201489D01*
X95279000Y-56089700D02*
X95279000Y-82320600D01*
X95078000Y-48096474D02*
X95078000Y-49003501D01*
X94090043Y-46201489D02*
X94677000Y-46788446D01*
X97718000Y-51643501D02*
X97718000Y-53650700D01*
X93675000Y-45128361D02*
X93923943Y-45128361D01*
X179373000Y-118478300D02*
X179373000Y-109297000D01*
X94638529Y-47657003D02*
X95078000Y-48096474D01*
X179945000Y-108725000D02*
X180400000Y-108725000D01*
X94276000Y-45978304D02*
X94076000Y-46178304D01*
%TO.N,PS_LE_2*%
X94677000Y-43840190D02*
X94090043Y-43253233D01*
X178571000Y-62054000D02*
X178571000Y-118146100D01*
X180400000Y-60225000D02*
X178571000Y-62054000D01*
X95479000Y-47363274D02*
X95479000Y-46456246D01*
X94276000Y-42532163D02*
X93923943Y-42180106D01*
X94677000Y-44670276D02*
X94677000Y-43840190D01*
X94638529Y-44708747D02*
X94677000Y-44670276D01*
X178571000Y-118146100D02*
X177690100Y-119027000D01*
X95880000Y-48671301D02*
X95880000Y-47764274D01*
X98520000Y-51311301D02*
X95880000Y-48671301D01*
X94090043Y-43253233D02*
X94076000Y-43253233D01*
X95078000Y-45148218D02*
X94638529Y-44708747D01*
X96081000Y-81988400D02*
X96081000Y-56421900D01*
X95880000Y-47764274D02*
X95479000Y-47363274D01*
X94276000Y-43030049D02*
X94276000Y-42532163D01*
X95078000Y-46055246D02*
X95078000Y-45148218D01*
X93675000Y-42180106D02*
X93675000Y-41306978D01*
X95479000Y-46456246D02*
X95078000Y-46055246D01*
X94076000Y-43253233D02*
X94076000Y-43230049D01*
X94076000Y-43230049D02*
X94276000Y-43030049D01*
X98520000Y-53982900D02*
X98520000Y-51311301D01*
X93923943Y-42180106D02*
X93675000Y-42180106D01*
X96081000Y-56421900D02*
X98520000Y-53982900D01*
X133119600Y-119027000D02*
X96081000Y-81988400D01*
X177690100Y-119027000D02*
X133119600Y-119027000D01*
%TO.N,ATTN_LE_2*%
X94276000Y-48926560D02*
X94076000Y-49126560D01*
X94477000Y-55757500D02*
X94477000Y-82652800D01*
X93675000Y-47203489D02*
X93675000Y-48076617D01*
X96916000Y-53318500D02*
X94477000Y-55757500D01*
X199408550Y-115557250D02*
X199408550Y-109833493D01*
X94076000Y-49149744D02*
X94090043Y-49149744D01*
X132455200Y-120631000D02*
X194334800Y-120631000D01*
X199420000Y-109822043D02*
X199411000Y-109813043D01*
X199411000Y-109813043D02*
X199411000Y-62914000D01*
X94090043Y-49149744D02*
X96916000Y-51975702D01*
X94477000Y-82652800D02*
X132455200Y-120631000D01*
X94076000Y-49126560D02*
X94076000Y-49149744D01*
X194334800Y-120631000D02*
X199408550Y-115557250D01*
X199411000Y-62914000D02*
X201400000Y-60925000D01*
X94276000Y-48428674D02*
X94276000Y-48926560D01*
X93675000Y-48076617D02*
X93923943Y-48076617D01*
X93923943Y-48076617D02*
X94276000Y-48428674D01*
X96916000Y-51975702D02*
X96916000Y-53318500D01*
%TO.N,ATTN_LE_4*%
X93675000Y-53701000D02*
X93476057Y-53701000D01*
X201400000Y-114700000D02*
X194589000Y-121511000D01*
X93476057Y-53701000D02*
X93124000Y-53348943D01*
X93675000Y-82985000D02*
X93675000Y-53701000D01*
X132201000Y-121511000D02*
X93675000Y-82985000D01*
X93675000Y-52226872D02*
X93476057Y-52226872D01*
X93476057Y-52226872D02*
X93124000Y-51874815D01*
X93124000Y-51874815D02*
X93124000Y-51376929D01*
X201400000Y-109425000D02*
X201400000Y-114700000D01*
X93124000Y-52851057D02*
X93476057Y-52499000D01*
X93124000Y-51376929D02*
X93476057Y-51024872D01*
X93675000Y-52499000D02*
X93675000Y-52226872D01*
X93675000Y-51024872D02*
X93675000Y-50151744D01*
X93124000Y-53348943D02*
X93124000Y-52851057D01*
X93476057Y-52499000D02*
X93675000Y-52499000D01*
X194589000Y-121511000D02*
X132201000Y-121511000D01*
X93476057Y-51024872D02*
X93675000Y-51024872D01*
%TO.N,ATTN_LE_1*%
X94276000Y-46954546D02*
X94276000Y-47452432D01*
X93675000Y-46602489D02*
X93923943Y-46602489D01*
X94076000Y-47652432D02*
X94076000Y-47675617D01*
X94076000Y-47675617D02*
X94090043Y-47675617D01*
X199010000Y-39065000D02*
X201400000Y-36675000D01*
X94276000Y-47452432D02*
X94076000Y-47652432D01*
X94090043Y-47675617D02*
X94677000Y-48262574D01*
X94878000Y-55923600D02*
X94878000Y-82486700D01*
X97317000Y-53484600D02*
X94878000Y-55923600D01*
X199010000Y-109664943D02*
X199010000Y-39065000D01*
X199007550Y-109667393D02*
X199010000Y-109664943D01*
X94677000Y-48262574D02*
X94677000Y-49169601D01*
X194168700Y-120230000D02*
X199007550Y-115391150D01*
X93675000Y-45729361D02*
X93675000Y-46602489D01*
X93923943Y-46602489D02*
X94276000Y-46954546D01*
X94878000Y-82486700D02*
X132621300Y-120230000D01*
X132621300Y-120230000D02*
X194168700Y-120230000D01*
X199007550Y-115391150D02*
X199007550Y-109667393D01*
X94677000Y-49169601D02*
X97317000Y-51809602D01*
X97317000Y-51809602D02*
X97317000Y-53484600D01*
%TO.N,ATTN_LE_3*%
X194422900Y-121110000D02*
X199821000Y-115711900D01*
X94076000Y-53598943D02*
X94076000Y-82818900D01*
X132367100Y-121110000D02*
X194422900Y-121110000D01*
X94076000Y-51126929D02*
X94326000Y-51376929D01*
X94326000Y-51874815D02*
X94076000Y-52124815D01*
X94076000Y-82818900D02*
X132367100Y-121110000D01*
X93923943Y-49550744D02*
X94276000Y-49902801D01*
X94326000Y-52851057D02*
X94326000Y-53348943D01*
X93675000Y-49550744D02*
X93923943Y-49550744D01*
X93675000Y-48677617D02*
X93675000Y-49550744D01*
X199821000Y-109655943D02*
X199812000Y-109646943D01*
X94326000Y-53348943D02*
X94076000Y-53598943D01*
X94276000Y-50400687D02*
X94076000Y-50600687D01*
X199812000Y-86763000D02*
X201400000Y-85175000D01*
X94076000Y-52601057D02*
X94326000Y-52851057D01*
X94276000Y-49902801D02*
X94276000Y-50400687D01*
X94076000Y-52124815D02*
X94076000Y-52601057D01*
X199812000Y-109646943D02*
X199812000Y-86763000D01*
X94326000Y-51376929D02*
X94326000Y-51874815D01*
X199821000Y-115711900D02*
X199821000Y-109655943D01*
X94076000Y-50600687D02*
X94076000Y-51126929D01*
%TO.N,PS_LE_1*%
X96482000Y-81822300D02*
X96482000Y-56588000D01*
X178170000Y-117980000D02*
X177524000Y-118626000D01*
X177524000Y-118626000D02*
X133285700Y-118626000D01*
X133285700Y-118626000D02*
X96482000Y-81822300D01*
X178170000Y-38205000D02*
X178170000Y-117980000D01*
X96482000Y-56588000D02*
X110450000Y-42620000D01*
X180400000Y-35975000D02*
X178170000Y-38205000D01*
%TO.N,PS_LE_3*%
X178972000Y-85928000D02*
X180400000Y-84500000D01*
X95680000Y-56255800D02*
X95680000Y-82154500D01*
X177856200Y-119428000D02*
X178972000Y-118312200D01*
X94090043Y-44727361D02*
X94677000Y-45314318D01*
X95680000Y-82154500D02*
X132953500Y-119428000D01*
X93675000Y-42781106D02*
X93675000Y-43654233D01*
X94677000Y-45314318D02*
X94677000Y-46144404D01*
X94638529Y-46182875D02*
X95078000Y-46622346D01*
X95078000Y-46622346D02*
X95078000Y-47529374D01*
X98119000Y-53816800D02*
X95680000Y-56255800D01*
X94677000Y-46144404D02*
X94638529Y-46182875D01*
X93675000Y-43654233D02*
X93923943Y-43654233D01*
X95479000Y-47930374D02*
X95479000Y-48837401D01*
X93923943Y-43654233D02*
X94276000Y-44006290D01*
X95078000Y-47529374D02*
X95479000Y-47930374D01*
X94076000Y-44704176D02*
X94076000Y-44727361D01*
X95479000Y-48837401D02*
X98119000Y-51477401D01*
X94076000Y-44727361D02*
X94090043Y-44727361D01*
X180400000Y-84500000D02*
X180400000Y-84475000D01*
X94276000Y-44504176D02*
X94076000Y-44704176D01*
X98119000Y-51477401D02*
X98119000Y-53816800D01*
X132953500Y-119428000D02*
X177856200Y-119428000D01*
X178972000Y-118312200D02*
X178972000Y-85928000D01*
X94276000Y-44006290D02*
X94276000Y-44504176D01*
%TO.N,PS_SER_IN*%
X174400000Y-84475000D02*
X174400000Y-108725000D01*
X159918300Y-39900000D02*
X163843300Y-35975000D01*
X163843300Y-35975000D02*
X174400000Y-35975000D01*
X174400000Y-35975000D02*
X174400000Y-60225000D01*
X124810000Y-39900000D02*
X159918300Y-39900000D01*
X120660000Y-35750000D02*
X124810000Y-39900000D01*
X174400000Y-60225000D02*
X174400000Y-84475000D01*
%TO.N,PS_CLK*%
X176799000Y-35374000D02*
X177400000Y-35975000D01*
X123200000Y-35750000D02*
X126949000Y-39499000D01*
X177730000Y-60555000D02*
X177730000Y-84145000D01*
X126949000Y-39499000D02*
X159752200Y-39499000D01*
X177750000Y-59875000D02*
X177400000Y-60225000D01*
X177400000Y-84475000D02*
X177760000Y-84835000D01*
X177400000Y-60225000D02*
X177730000Y-60555000D01*
X177750000Y-36325000D02*
X177750000Y-59875000D01*
X177400000Y-35975000D02*
X177750000Y-36325000D01*
X177730000Y-84145000D02*
X177400000Y-84475000D01*
X159752200Y-39499000D02*
X163877200Y-35374000D01*
X177760000Y-108365000D02*
X177400000Y-108725000D01*
X163877200Y-35374000D02*
X176799000Y-35374000D01*
X177760000Y-84835000D02*
X177760000Y-108365000D01*
%TO.N,PS_SER_OUT*%
X125740000Y-35750000D02*
X129088000Y-39098000D01*
X182398000Y-34973000D02*
X183400000Y-35975000D01*
X163711100Y-34973000D02*
X182398000Y-34973000D01*
X129088000Y-39098000D02*
X159586100Y-39098000D01*
X159586100Y-39098000D02*
X163711100Y-34973000D01*
X183400000Y-84475000D02*
X183400000Y-108725000D01*
X183400000Y-35975000D02*
X183400000Y-60225000D01*
X183400000Y-60225000D02*
X183400000Y-84475000D01*
%TO.N,ATTN_CLK*%
X133366000Y-38296000D02*
X159253900Y-38296000D01*
X198400000Y-60925000D02*
X198400000Y-85175000D01*
X159253900Y-38296000D02*
X163378900Y-34171000D01*
X130820000Y-35750000D02*
X133366000Y-38296000D01*
X163378900Y-34171000D02*
X195896000Y-34171000D01*
X198400000Y-109425000D02*
X198400000Y-85175000D01*
X195896000Y-34171000D02*
X198400000Y-36675000D01*
X198400000Y-36675000D02*
X198400000Y-60925000D01*
%TO.N,ATTN_SI*%
X193860000Y-86715000D02*
X193860000Y-107885000D01*
X193960000Y-59485000D02*
X195400000Y-60925000D01*
X193860000Y-107885000D02*
X195400000Y-109425000D01*
X195400000Y-60925000D02*
X194080000Y-62245000D01*
X131227000Y-38697000D02*
X159420000Y-38697000D01*
X193960000Y-38115000D02*
X193960000Y-59485000D01*
X195400000Y-85175000D02*
X193860000Y-86715000D01*
X194080000Y-62245000D02*
X194080000Y-83855000D01*
X159420000Y-38697000D02*
X163545000Y-34572000D01*
X163545000Y-34572000D02*
X193297000Y-34572000D01*
X193297000Y-34572000D02*
X195400000Y-36675000D01*
X194080000Y-83855000D02*
X195400000Y-85175000D01*
X128280000Y-35750000D02*
X131227000Y-38697000D01*
X195400000Y-36675000D02*
X193960000Y-38115000D01*
%TD*%
M02*
