%TF.GenerationSoftware,KiCad,Pcbnew,9.0.4*%
%TF.CreationDate,2025-11-03T21:40:28-06:00*%
%TF.ProjectId,TX_Board,54585f42-6f61-4726-942e-6b696361645f,rev?*%
%TF.SameCoordinates,Original*%
%TF.FileFunction,Soldermask,Bot*%
%TF.FilePolarity,Negative*%
%FSLAX46Y46*%
G04 Gerber Fmt 4.6, Leading zero omitted, Abs format (unit mm)*
G04 Created by KiCad (PCBNEW 9.0.4) date 2025-11-03 21:40:28*
%MOMM*%
%LPD*%
G01*
G04 APERTURE LIST*
G04 Aperture macros list*
%AMRoundRect*
0 Rectangle with rounded corners*
0 $1 Rounding radius*
0 $2 $3 $4 $5 $6 $7 $8 $9 X,Y pos of 4 corners*
0 Add a 4 corners polygon primitive as box body*
4,1,4,$2,$3,$4,$5,$6,$7,$8,$9,$2,$3,0*
0 Add four circle primitives for the rounded corners*
1,1,$1+$1,$2,$3*
1,1,$1+$1,$4,$5*
1,1,$1+$1,$6,$7*
1,1,$1+$1,$8,$9*
0 Add four rect primitives between the rounded corners*
20,1,$1+$1,$2,$3,$4,$5,0*
20,1,$1+$1,$4,$5,$6,$7,0*
20,1,$1+$1,$6,$7,$8,$9,0*
20,1,$1+$1,$8,$9,$2,$3,0*%
G04 Aperture macros list end*
%ADD10RoundRect,0.050800X2.540000X-0.750000X2.540000X0.750000X-2.540000X0.750000X-2.540000X-0.750000X0*%
%ADD11RoundRect,0.050800X-0.850000X-0.850000X0.850000X-0.850000X0.850000X0.850000X-0.850000X0.850000X0*%
%ADD12RoundRect,0.050800X0.850000X-0.850000X0.850000X0.850000X-0.850000X0.850000X-0.850000X-0.850000X0*%
%ADD13C,1.801600*%
%ADD14RoundRect,0.050800X-2.540000X0.750000X-2.540000X-0.750000X2.540000X-0.750000X2.540000X0.750000X0*%
%ADD15RoundRect,0.050800X0.850000X0.850000X-0.850000X0.850000X-0.850000X-0.850000X0.850000X-0.850000X0*%
G04 APERTURE END LIST*
D10*
%TO.C,J24*%
X227400000Y-111500000D03*
X227400000Y-120000000D03*
%TD*%
D11*
%TO.C,J4*%
X127280000Y-92920000D03*
%TD*%
%TO.C,J3*%
X96280000Y-121920000D03*
%TD*%
D10*
%TO.C,J21*%
X227400000Y-87250000D03*
X227400000Y-95750000D03*
%TD*%
D12*
%TO.C,J6*%
X110500000Y-35750000D03*
D13*
X110500000Y-33210000D03*
X113040000Y-35750000D03*
X113040000Y-33210000D03*
X115580000Y-35750000D03*
X115580000Y-33210000D03*
X118120000Y-35750000D03*
X118120000Y-33210000D03*
X120660000Y-35750000D03*
X120660000Y-33210000D03*
X123200000Y-35750000D03*
X123200000Y-33210000D03*
X125740000Y-35750000D03*
X125740000Y-33210000D03*
X128280000Y-35750000D03*
X128280000Y-33210000D03*
X130820000Y-35750000D03*
X130820000Y-33210000D03*
X133360000Y-35750000D03*
X133360000Y-33210000D03*
X135900000Y-35750000D03*
X135900000Y-33210000D03*
X138440000Y-35750000D03*
X138440000Y-33210000D03*
%TD*%
D11*
%TO.C,J2*%
X96280000Y-92920000D03*
%TD*%
%TO.C,J7*%
X85200000Y-105600000D03*
D13*
X85200000Y-108140000D03*
X85200000Y-110680000D03*
%TD*%
D11*
%TO.C,J5*%
X127280000Y-121920000D03*
%TD*%
D10*
%TO.C,J15*%
X227400000Y-38750000D03*
X227400000Y-47250000D03*
%TD*%
D14*
%TO.C,J1*%
X84862500Y-83625000D03*
X84862500Y-75125000D03*
%TD*%
D15*
%TO.C,J8*%
X87475000Y-53770000D03*
D13*
X84935000Y-53770000D03*
X87475000Y-51230000D03*
X84935000Y-51230000D03*
X87475000Y-48690000D03*
X84935000Y-48690000D03*
X87475000Y-46150000D03*
X84935000Y-46150000D03*
X87475000Y-43610000D03*
X84935000Y-43610000D03*
X87475000Y-41070000D03*
X84935000Y-41070000D03*
X87475000Y-38530000D03*
X84935000Y-38530000D03*
X87475000Y-35990000D03*
X84935000Y-35990000D03*
%TD*%
D10*
%TO.C,J18*%
X227400000Y-63000000D03*
X227400000Y-71500000D03*
%TD*%
M02*
