%TF.GenerationSoftware,KiCad,Pcbnew,9.0.4*%
%TF.CreationDate,2025-11-17T20:52:04-06:00*%
%TF.ProjectId,TX_Board,54585f42-6f61-4726-942e-6b696361645f,rev?*%
%TF.SameCoordinates,Original*%
%TF.FileFunction,Paste,Top*%
%TF.FilePolarity,Positive*%
%FSLAX46Y46*%
G04 Gerber Fmt 4.6, Leading zero omitted, Abs format (unit mm)*
G04 Created by KiCad (PCBNEW 9.0.4) date 2025-11-17 20:52:04*
%MOMM*%
%LPD*%
G01*
G04 APERTURE LIST*
G04 Aperture macros list*
%AMRoundRect*
0 Rectangle with rounded corners*
0 $1 Rounding radius*
0 $2 $3 $4 $5 $6 $7 $8 $9 X,Y pos of 4 corners*
0 Add a 4 corners polygon primitive as box body*
4,1,4,$2,$3,$4,$5,$6,$7,$8,$9,$2,$3,0*
0 Add four circle primitives for the rounded corners*
1,1,$1+$1,$2,$3*
1,1,$1+$1,$4,$5*
1,1,$1+$1,$6,$7*
1,1,$1+$1,$8,$9*
0 Add four rect primitives between the rounded corners*
20,1,$1+$1,$2,$3,$4,$5,0*
20,1,$1+$1,$4,$5,$6,$7,0*
20,1,$1+$1,$6,$7,$8,$9,0*
20,1,$1+$1,$8,$9,$2,$3,0*%
G04 Aperture macros list end*
%ADD10C,0.010000*%
%ADD11R,0.850000X0.300000*%
%ADD12R,0.300000X0.850000*%
%ADD13R,2.550000X2.550000*%
%ADD14RoundRect,0.225000X0.250000X-0.225000X0.250000X0.225000X-0.250000X0.225000X-0.250000X-0.225000X0*%
%ADD15RoundRect,0.225000X-0.250000X0.225000X-0.250000X-0.225000X0.250000X-0.225000X0.250000X0.225000X0*%
%ADD16RoundRect,0.140000X-0.140000X-0.170000X0.140000X-0.170000X0.140000X0.170000X-0.140000X0.170000X0*%
%ADD17RoundRect,0.200000X0.275000X-0.200000X0.275000X0.200000X-0.275000X0.200000X-0.275000X-0.200000X0*%
%ADD18RoundRect,0.147500X-0.172500X0.147500X-0.172500X-0.147500X0.172500X-0.147500X0.172500X0.147500X0*%
%ADD19RoundRect,0.200000X-0.200000X-0.275000X0.200000X-0.275000X0.200000X0.275000X-0.200000X0.275000X0*%
%ADD20R,0.400000X0.500000*%
%ADD21R,1.100000X0.700000*%
%ADD22RoundRect,0.147500X0.172500X-0.147500X0.172500X0.147500X-0.172500X0.147500X-0.172500X-0.147500X0*%
%ADD23RoundRect,0.135000X-0.185000X0.135000X-0.185000X-0.135000X0.185000X-0.135000X0.185000X0.135000X0*%
%ADD24RoundRect,0.225000X0.225000X0.250000X-0.225000X0.250000X-0.225000X-0.250000X0.225000X-0.250000X0*%
%ADD25RoundRect,0.200000X-0.275000X0.200000X-0.275000X-0.200000X0.275000X-0.200000X0.275000X0.200000X0*%
%ADD26RoundRect,0.225000X-0.225000X-0.250000X0.225000X-0.250000X0.225000X0.250000X-0.225000X0.250000X0*%
%ADD27RoundRect,0.200000X0.200000X0.275000X-0.200000X0.275000X-0.200000X-0.275000X0.200000X-0.275000X0*%
%ADD28C,2.050000*%
%ADD29R,0.800000X0.300000*%
%ADD30R,1.800000X3.400000*%
%ADD31R,2.160000X0.760000*%
%ADD32R,0.300000X0.250000*%
%ADD33R,0.250000X0.300000*%
%ADD34R,1.700000X1.700000*%
%ADD35RoundRect,0.218750X0.256250X-0.218750X0.256250X0.218750X-0.256250X0.218750X-0.256250X-0.218750X0*%
%ADD36R,1.450000X1.450000*%
%ADD37RoundRect,0.250000X-0.325000X-0.650000X0.325000X-0.650000X0.325000X0.650000X-0.325000X0.650000X0*%
%ADD38RoundRect,0.250000X0.325000X0.650000X-0.325000X0.650000X-0.325000X-0.650000X0.325000X-0.650000X0*%
%ADD39RoundRect,0.079500X0.100500X-0.079500X0.100500X0.079500X-0.100500X0.079500X-0.100500X-0.079500X0*%
%ADD40R,1.741399X0.558000*%
%ADD41R,0.600000X1.250000*%
G04 APERTURE END LIST*
D10*
%TO.C,J27*%
X233917000Y-101226999D02*
X233854000Y-101280999D01*
X233804000Y-101326999D01*
X233756000Y-101373999D01*
X233709000Y-101421999D01*
X233663000Y-101471999D01*
X233619000Y-101522999D01*
X233577000Y-101574999D01*
X233536000Y-101628999D01*
X233496000Y-101682999D01*
X233458000Y-101738999D01*
X233422000Y-101795999D01*
X233387000Y-101853999D01*
X233355000Y-101912999D01*
X233324000Y-101971999D01*
X233294000Y-102032999D01*
X233267000Y-102094999D01*
X233241000Y-102156999D01*
X233217000Y-102219999D01*
X233195000Y-102283999D01*
X233174000Y-102347999D01*
X233156000Y-102412999D01*
X233139000Y-102477999D01*
X233125000Y-102543999D01*
X233112000Y-102609999D01*
X233101000Y-102676999D01*
X233093000Y-102743999D01*
X233086000Y-102810999D01*
X233081000Y-102877999D01*
X233078000Y-102944999D01*
X233077000Y-102996999D01*
X233078000Y-103048999D01*
X233081000Y-103115999D01*
X233086000Y-103182999D01*
X233093000Y-103249999D01*
X233101000Y-103316999D01*
X233112000Y-103383999D01*
X233125000Y-103449999D01*
X233139000Y-103515999D01*
X233156000Y-103580999D01*
X233174000Y-103645999D01*
X233195000Y-103709999D01*
X233217000Y-103773999D01*
X233241000Y-103836999D01*
X233267000Y-103898999D01*
X233294000Y-103960999D01*
X233324000Y-104021999D01*
X233355000Y-104080999D01*
X233387000Y-104139999D01*
X233422000Y-104197999D01*
X233458000Y-104254999D01*
X233496000Y-104310999D01*
X233536000Y-104364999D01*
X233577000Y-104418999D01*
X233619000Y-104470999D01*
X233663000Y-104521999D01*
X233709000Y-104571999D01*
X233756000Y-104619999D01*
X233804000Y-104666999D01*
X233854000Y-104712999D01*
X233917000Y-104766999D01*
X233917000Y-106876999D01*
X231477000Y-106876999D01*
X231477000Y-99116999D01*
X233917000Y-99116999D01*
X233917000Y-101226999D01*
G36*
X233917000Y-101226999D02*
G01*
X233854000Y-101280999D01*
X233804000Y-101326999D01*
X233756000Y-101373999D01*
X233709000Y-101421999D01*
X233663000Y-101471999D01*
X233619000Y-101522999D01*
X233577000Y-101574999D01*
X233536000Y-101628999D01*
X233496000Y-101682999D01*
X233458000Y-101738999D01*
X233422000Y-101795999D01*
X233387000Y-101853999D01*
X233355000Y-101912999D01*
X233324000Y-101971999D01*
X233294000Y-102032999D01*
X233267000Y-102094999D01*
X233241000Y-102156999D01*
X233217000Y-102219999D01*
X233195000Y-102283999D01*
X233174000Y-102347999D01*
X233156000Y-102412999D01*
X233139000Y-102477999D01*
X233125000Y-102543999D01*
X233112000Y-102609999D01*
X233101000Y-102676999D01*
X233093000Y-102743999D01*
X233086000Y-102810999D01*
X233081000Y-102877999D01*
X233078000Y-102944999D01*
X233077000Y-102996999D01*
X233078000Y-103048999D01*
X233081000Y-103115999D01*
X233086000Y-103182999D01*
X233093000Y-103249999D01*
X233101000Y-103316999D01*
X233112000Y-103383999D01*
X233125000Y-103449999D01*
X233139000Y-103515999D01*
X233156000Y-103580999D01*
X233174000Y-103645999D01*
X233195000Y-103709999D01*
X233217000Y-103773999D01*
X233241000Y-103836999D01*
X233267000Y-103898999D01*
X233294000Y-103960999D01*
X233324000Y-104021999D01*
X233355000Y-104080999D01*
X233387000Y-104139999D01*
X233422000Y-104197999D01*
X233458000Y-104254999D01*
X233496000Y-104310999D01*
X233536000Y-104364999D01*
X233577000Y-104418999D01*
X233619000Y-104470999D01*
X233663000Y-104521999D01*
X233709000Y-104571999D01*
X233756000Y-104619999D01*
X233804000Y-104666999D01*
X233854000Y-104712999D01*
X233917000Y-104766999D01*
X233917000Y-106876999D01*
X231477000Y-106876999D01*
X231477000Y-99116999D01*
X233917000Y-99116999D01*
X233917000Y-101226999D01*
G37*
X239237000Y-106876999D02*
X236797000Y-106876999D01*
X236797000Y-104766999D01*
X236860000Y-104712999D01*
X236910000Y-104666999D01*
X236958000Y-104619999D01*
X237005000Y-104571999D01*
X237051000Y-104521999D01*
X237095000Y-104470999D01*
X237137000Y-104418999D01*
X237178000Y-104364999D01*
X237218000Y-104310999D01*
X237256000Y-104254999D01*
X237292000Y-104197999D01*
X237327000Y-104139999D01*
X237359000Y-104080999D01*
X237390000Y-104021999D01*
X237420000Y-103960999D01*
X237447000Y-103898999D01*
X237473000Y-103836999D01*
X237497000Y-103773999D01*
X237519000Y-103709999D01*
X237540000Y-103645999D01*
X237558000Y-103580999D01*
X237575000Y-103515999D01*
X237589000Y-103449999D01*
X237602000Y-103383999D01*
X237613000Y-103316999D01*
X237621000Y-103249999D01*
X237628000Y-103182999D01*
X237633000Y-103115999D01*
X237636000Y-103048999D01*
X237637000Y-102996999D01*
X237636000Y-102944999D01*
X237633000Y-102877999D01*
X237628000Y-102810999D01*
X237621000Y-102743999D01*
X237613000Y-102676999D01*
X237602000Y-102609999D01*
X237589000Y-102543999D01*
X237575000Y-102477999D01*
X237558000Y-102412999D01*
X237540000Y-102347999D01*
X237519000Y-102283999D01*
X237497000Y-102219999D01*
X237473000Y-102156999D01*
X237447000Y-102094999D01*
X237420000Y-102032999D01*
X237390000Y-101971999D01*
X237359000Y-101912999D01*
X237327000Y-101853999D01*
X237292000Y-101795999D01*
X237256000Y-101738999D01*
X237218000Y-101682999D01*
X237178000Y-101628999D01*
X237137000Y-101574999D01*
X237095000Y-101522999D01*
X237051000Y-101471999D01*
X237005000Y-101421999D01*
X236958000Y-101373999D01*
X236910000Y-101326999D01*
X236860000Y-101280999D01*
X236797000Y-101226999D01*
X236797000Y-99116999D01*
X239237000Y-99116999D01*
X239237000Y-106876999D01*
G36*
X239237000Y-106876999D02*
G01*
X236797000Y-106876999D01*
X236797000Y-104766999D01*
X236860000Y-104712999D01*
X236910000Y-104666999D01*
X236958000Y-104619999D01*
X237005000Y-104571999D01*
X237051000Y-104521999D01*
X237095000Y-104470999D01*
X237137000Y-104418999D01*
X237178000Y-104364999D01*
X237218000Y-104310999D01*
X237256000Y-104254999D01*
X237292000Y-104197999D01*
X237327000Y-104139999D01*
X237359000Y-104080999D01*
X237390000Y-104021999D01*
X237420000Y-103960999D01*
X237447000Y-103898999D01*
X237473000Y-103836999D01*
X237497000Y-103773999D01*
X237519000Y-103709999D01*
X237540000Y-103645999D01*
X237558000Y-103580999D01*
X237575000Y-103515999D01*
X237589000Y-103449999D01*
X237602000Y-103383999D01*
X237613000Y-103316999D01*
X237621000Y-103249999D01*
X237628000Y-103182999D01*
X237633000Y-103115999D01*
X237636000Y-103048999D01*
X237637000Y-102996999D01*
X237636000Y-102944999D01*
X237633000Y-102877999D01*
X237628000Y-102810999D01*
X237621000Y-102743999D01*
X237613000Y-102676999D01*
X237602000Y-102609999D01*
X237589000Y-102543999D01*
X237575000Y-102477999D01*
X237558000Y-102412999D01*
X237540000Y-102347999D01*
X237519000Y-102283999D01*
X237497000Y-102219999D01*
X237473000Y-102156999D01*
X237447000Y-102094999D01*
X237420000Y-102032999D01*
X237390000Y-101971999D01*
X237359000Y-101912999D01*
X237327000Y-101853999D01*
X237292000Y-101795999D01*
X237256000Y-101738999D01*
X237218000Y-101682999D01*
X237178000Y-101628999D01*
X237137000Y-101574999D01*
X237095000Y-101522999D01*
X237051000Y-101471999D01*
X237005000Y-101421999D01*
X236958000Y-101373999D01*
X236910000Y-101326999D01*
X236860000Y-101280999D01*
X236797000Y-101226999D01*
X236797000Y-99116999D01*
X239237000Y-99116999D01*
X239237000Y-106876999D01*
G37*
%TO.C,J24*%
X233920000Y-52730000D02*
X233857000Y-52784000D01*
X233807000Y-52830000D01*
X233759000Y-52877000D01*
X233712000Y-52925000D01*
X233666000Y-52975000D01*
X233622000Y-53026000D01*
X233580000Y-53078000D01*
X233539000Y-53132000D01*
X233499000Y-53186000D01*
X233461000Y-53242000D01*
X233425000Y-53299000D01*
X233390000Y-53357000D01*
X233358000Y-53416000D01*
X233327000Y-53475000D01*
X233297000Y-53536000D01*
X233270000Y-53598000D01*
X233244000Y-53660000D01*
X233220000Y-53723000D01*
X233198000Y-53787000D01*
X233177000Y-53851000D01*
X233159000Y-53916000D01*
X233142000Y-53981000D01*
X233128000Y-54047000D01*
X233115000Y-54113000D01*
X233104000Y-54180000D01*
X233096000Y-54247000D01*
X233089000Y-54314000D01*
X233084000Y-54381000D01*
X233081000Y-54448000D01*
X233080000Y-54500000D01*
X233081000Y-54552000D01*
X233084000Y-54619000D01*
X233089000Y-54686000D01*
X233096000Y-54753000D01*
X233104000Y-54820000D01*
X233115000Y-54887000D01*
X233128000Y-54953000D01*
X233142000Y-55019000D01*
X233159000Y-55084000D01*
X233177000Y-55149000D01*
X233198000Y-55213000D01*
X233220000Y-55277000D01*
X233244000Y-55340000D01*
X233270000Y-55402000D01*
X233297000Y-55464000D01*
X233327000Y-55525000D01*
X233358000Y-55584000D01*
X233390000Y-55643000D01*
X233425000Y-55701000D01*
X233461000Y-55758000D01*
X233499000Y-55814000D01*
X233539000Y-55868000D01*
X233580000Y-55922000D01*
X233622000Y-55974000D01*
X233666000Y-56025000D01*
X233712000Y-56075000D01*
X233759000Y-56123000D01*
X233807000Y-56170000D01*
X233857000Y-56216000D01*
X233920000Y-56270000D01*
X233920000Y-58380000D01*
X231480000Y-58380000D01*
X231480000Y-50620000D01*
X233920000Y-50620000D01*
X233920000Y-52730000D01*
G36*
X233920000Y-52730000D02*
G01*
X233857000Y-52784000D01*
X233807000Y-52830000D01*
X233759000Y-52877000D01*
X233712000Y-52925000D01*
X233666000Y-52975000D01*
X233622000Y-53026000D01*
X233580000Y-53078000D01*
X233539000Y-53132000D01*
X233499000Y-53186000D01*
X233461000Y-53242000D01*
X233425000Y-53299000D01*
X233390000Y-53357000D01*
X233358000Y-53416000D01*
X233327000Y-53475000D01*
X233297000Y-53536000D01*
X233270000Y-53598000D01*
X233244000Y-53660000D01*
X233220000Y-53723000D01*
X233198000Y-53787000D01*
X233177000Y-53851000D01*
X233159000Y-53916000D01*
X233142000Y-53981000D01*
X233128000Y-54047000D01*
X233115000Y-54113000D01*
X233104000Y-54180000D01*
X233096000Y-54247000D01*
X233089000Y-54314000D01*
X233084000Y-54381000D01*
X233081000Y-54448000D01*
X233080000Y-54500000D01*
X233081000Y-54552000D01*
X233084000Y-54619000D01*
X233089000Y-54686000D01*
X233096000Y-54753000D01*
X233104000Y-54820000D01*
X233115000Y-54887000D01*
X233128000Y-54953000D01*
X233142000Y-55019000D01*
X233159000Y-55084000D01*
X233177000Y-55149000D01*
X233198000Y-55213000D01*
X233220000Y-55277000D01*
X233244000Y-55340000D01*
X233270000Y-55402000D01*
X233297000Y-55464000D01*
X233327000Y-55525000D01*
X233358000Y-55584000D01*
X233390000Y-55643000D01*
X233425000Y-55701000D01*
X233461000Y-55758000D01*
X233499000Y-55814000D01*
X233539000Y-55868000D01*
X233580000Y-55922000D01*
X233622000Y-55974000D01*
X233666000Y-56025000D01*
X233712000Y-56075000D01*
X233759000Y-56123000D01*
X233807000Y-56170000D01*
X233857000Y-56216000D01*
X233920000Y-56270000D01*
X233920000Y-58380000D01*
X231480000Y-58380000D01*
X231480000Y-50620000D01*
X233920000Y-50620000D01*
X233920000Y-52730000D01*
G37*
X239240000Y-58380000D02*
X236800000Y-58380000D01*
X236800000Y-56270000D01*
X236863000Y-56216000D01*
X236913000Y-56170000D01*
X236961000Y-56123000D01*
X237008000Y-56075000D01*
X237054000Y-56025000D01*
X237098000Y-55974000D01*
X237140000Y-55922000D01*
X237181000Y-55868000D01*
X237221000Y-55814000D01*
X237259000Y-55758000D01*
X237295000Y-55701000D01*
X237330000Y-55643000D01*
X237362000Y-55584000D01*
X237393000Y-55525000D01*
X237423000Y-55464000D01*
X237450000Y-55402000D01*
X237476000Y-55340000D01*
X237500000Y-55277000D01*
X237522000Y-55213000D01*
X237543000Y-55149000D01*
X237561000Y-55084000D01*
X237578000Y-55019000D01*
X237592000Y-54953000D01*
X237605000Y-54887000D01*
X237616000Y-54820000D01*
X237624000Y-54753000D01*
X237631000Y-54686000D01*
X237636000Y-54619000D01*
X237639000Y-54552000D01*
X237640000Y-54500000D01*
X237639000Y-54448000D01*
X237636000Y-54381000D01*
X237631000Y-54314000D01*
X237624000Y-54247000D01*
X237616000Y-54180000D01*
X237605000Y-54113000D01*
X237592000Y-54047000D01*
X237578000Y-53981000D01*
X237561000Y-53916000D01*
X237543000Y-53851000D01*
X237522000Y-53787000D01*
X237500000Y-53723000D01*
X237476000Y-53660000D01*
X237450000Y-53598000D01*
X237423000Y-53536000D01*
X237393000Y-53475000D01*
X237362000Y-53416000D01*
X237330000Y-53357000D01*
X237295000Y-53299000D01*
X237259000Y-53242000D01*
X237221000Y-53186000D01*
X237181000Y-53132000D01*
X237140000Y-53078000D01*
X237098000Y-53026000D01*
X237054000Y-52975000D01*
X237008000Y-52925000D01*
X236961000Y-52877000D01*
X236913000Y-52830000D01*
X236863000Y-52784000D01*
X236800000Y-52730000D01*
X236800000Y-50620000D01*
X239240000Y-50620000D01*
X239240000Y-58380000D01*
G36*
X239240000Y-58380000D02*
G01*
X236800000Y-58380000D01*
X236800000Y-56270000D01*
X236863000Y-56216000D01*
X236913000Y-56170000D01*
X236961000Y-56123000D01*
X237008000Y-56075000D01*
X237054000Y-56025000D01*
X237098000Y-55974000D01*
X237140000Y-55922000D01*
X237181000Y-55868000D01*
X237221000Y-55814000D01*
X237259000Y-55758000D01*
X237295000Y-55701000D01*
X237330000Y-55643000D01*
X237362000Y-55584000D01*
X237393000Y-55525000D01*
X237423000Y-55464000D01*
X237450000Y-55402000D01*
X237476000Y-55340000D01*
X237500000Y-55277000D01*
X237522000Y-55213000D01*
X237543000Y-55149000D01*
X237561000Y-55084000D01*
X237578000Y-55019000D01*
X237592000Y-54953000D01*
X237605000Y-54887000D01*
X237616000Y-54820000D01*
X237624000Y-54753000D01*
X237631000Y-54686000D01*
X237636000Y-54619000D01*
X237639000Y-54552000D01*
X237640000Y-54500000D01*
X237639000Y-54448000D01*
X237636000Y-54381000D01*
X237631000Y-54314000D01*
X237624000Y-54247000D01*
X237616000Y-54180000D01*
X237605000Y-54113000D01*
X237592000Y-54047000D01*
X237578000Y-53981000D01*
X237561000Y-53916000D01*
X237543000Y-53851000D01*
X237522000Y-53787000D01*
X237500000Y-53723000D01*
X237476000Y-53660000D01*
X237450000Y-53598000D01*
X237423000Y-53536000D01*
X237393000Y-53475000D01*
X237362000Y-53416000D01*
X237330000Y-53357000D01*
X237295000Y-53299000D01*
X237259000Y-53242000D01*
X237221000Y-53186000D01*
X237181000Y-53132000D01*
X237140000Y-53078000D01*
X237098000Y-53026000D01*
X237054000Y-52975000D01*
X237008000Y-52925000D01*
X236961000Y-52877000D01*
X236913000Y-52830000D01*
X236863000Y-52784000D01*
X236800000Y-52730000D01*
X236800000Y-50620000D01*
X239240000Y-50620000D01*
X239240000Y-58380000D01*
G37*
%TO.C,J26*%
X233919000Y-76980000D02*
X233856000Y-77034000D01*
X233806000Y-77080000D01*
X233758000Y-77127000D01*
X233711000Y-77175000D01*
X233665000Y-77225000D01*
X233621000Y-77276000D01*
X233579000Y-77328000D01*
X233538000Y-77382000D01*
X233498000Y-77436000D01*
X233460000Y-77492000D01*
X233424000Y-77549000D01*
X233389000Y-77607000D01*
X233357000Y-77666000D01*
X233326000Y-77725000D01*
X233296000Y-77786000D01*
X233269000Y-77848000D01*
X233243000Y-77910000D01*
X233219000Y-77973000D01*
X233197000Y-78037000D01*
X233176000Y-78101000D01*
X233158000Y-78166000D01*
X233141000Y-78231000D01*
X233127000Y-78297000D01*
X233114000Y-78363000D01*
X233103000Y-78430000D01*
X233095000Y-78497000D01*
X233088000Y-78564000D01*
X233083000Y-78631000D01*
X233080000Y-78698000D01*
X233079000Y-78750000D01*
X233080000Y-78802000D01*
X233083000Y-78869000D01*
X233088000Y-78936000D01*
X233095000Y-79003000D01*
X233103000Y-79070000D01*
X233114000Y-79137000D01*
X233127000Y-79203000D01*
X233141000Y-79269000D01*
X233158000Y-79334000D01*
X233176000Y-79399000D01*
X233197000Y-79463000D01*
X233219000Y-79527000D01*
X233243000Y-79590000D01*
X233269000Y-79652000D01*
X233296000Y-79714000D01*
X233326000Y-79775000D01*
X233357000Y-79834000D01*
X233389000Y-79893000D01*
X233424000Y-79951000D01*
X233460000Y-80008000D01*
X233498000Y-80064000D01*
X233538000Y-80118000D01*
X233579000Y-80172000D01*
X233621000Y-80224000D01*
X233665000Y-80275000D01*
X233711000Y-80325000D01*
X233758000Y-80373000D01*
X233806000Y-80420000D01*
X233856000Y-80466000D01*
X233919000Y-80520000D01*
X233919000Y-82630000D01*
X231479000Y-82630000D01*
X231479000Y-74870000D01*
X233919000Y-74870000D01*
X233919000Y-76980000D01*
G36*
X233919000Y-76980000D02*
G01*
X233856000Y-77034000D01*
X233806000Y-77080000D01*
X233758000Y-77127000D01*
X233711000Y-77175000D01*
X233665000Y-77225000D01*
X233621000Y-77276000D01*
X233579000Y-77328000D01*
X233538000Y-77382000D01*
X233498000Y-77436000D01*
X233460000Y-77492000D01*
X233424000Y-77549000D01*
X233389000Y-77607000D01*
X233357000Y-77666000D01*
X233326000Y-77725000D01*
X233296000Y-77786000D01*
X233269000Y-77848000D01*
X233243000Y-77910000D01*
X233219000Y-77973000D01*
X233197000Y-78037000D01*
X233176000Y-78101000D01*
X233158000Y-78166000D01*
X233141000Y-78231000D01*
X233127000Y-78297000D01*
X233114000Y-78363000D01*
X233103000Y-78430000D01*
X233095000Y-78497000D01*
X233088000Y-78564000D01*
X233083000Y-78631000D01*
X233080000Y-78698000D01*
X233079000Y-78750000D01*
X233080000Y-78802000D01*
X233083000Y-78869000D01*
X233088000Y-78936000D01*
X233095000Y-79003000D01*
X233103000Y-79070000D01*
X233114000Y-79137000D01*
X233127000Y-79203000D01*
X233141000Y-79269000D01*
X233158000Y-79334000D01*
X233176000Y-79399000D01*
X233197000Y-79463000D01*
X233219000Y-79527000D01*
X233243000Y-79590000D01*
X233269000Y-79652000D01*
X233296000Y-79714000D01*
X233326000Y-79775000D01*
X233357000Y-79834000D01*
X233389000Y-79893000D01*
X233424000Y-79951000D01*
X233460000Y-80008000D01*
X233498000Y-80064000D01*
X233538000Y-80118000D01*
X233579000Y-80172000D01*
X233621000Y-80224000D01*
X233665000Y-80275000D01*
X233711000Y-80325000D01*
X233758000Y-80373000D01*
X233806000Y-80420000D01*
X233856000Y-80466000D01*
X233919000Y-80520000D01*
X233919000Y-82630000D01*
X231479000Y-82630000D01*
X231479000Y-74870000D01*
X233919000Y-74870000D01*
X233919000Y-76980000D01*
G37*
X239239000Y-82630000D02*
X236799000Y-82630000D01*
X236799000Y-80520000D01*
X236862000Y-80466000D01*
X236912000Y-80420000D01*
X236960000Y-80373000D01*
X237007000Y-80325000D01*
X237053000Y-80275000D01*
X237097000Y-80224000D01*
X237139000Y-80172000D01*
X237180000Y-80118000D01*
X237220000Y-80064000D01*
X237258000Y-80008000D01*
X237294000Y-79951000D01*
X237329000Y-79893000D01*
X237361000Y-79834000D01*
X237392000Y-79775000D01*
X237422000Y-79714000D01*
X237449000Y-79652000D01*
X237475000Y-79590000D01*
X237499000Y-79527000D01*
X237521000Y-79463000D01*
X237542000Y-79399000D01*
X237560000Y-79334000D01*
X237577000Y-79269000D01*
X237591000Y-79203000D01*
X237604000Y-79137000D01*
X237615000Y-79070000D01*
X237623000Y-79003000D01*
X237630000Y-78936000D01*
X237635000Y-78869000D01*
X237638000Y-78802000D01*
X237639000Y-78750000D01*
X237638000Y-78698000D01*
X237635000Y-78631000D01*
X237630000Y-78564000D01*
X237623000Y-78497000D01*
X237615000Y-78430000D01*
X237604000Y-78363000D01*
X237591000Y-78297000D01*
X237577000Y-78231000D01*
X237560000Y-78166000D01*
X237542000Y-78101000D01*
X237521000Y-78037000D01*
X237499000Y-77973000D01*
X237475000Y-77910000D01*
X237449000Y-77848000D01*
X237422000Y-77786000D01*
X237392000Y-77725000D01*
X237361000Y-77666000D01*
X237329000Y-77607000D01*
X237294000Y-77549000D01*
X237258000Y-77492000D01*
X237220000Y-77436000D01*
X237180000Y-77382000D01*
X237139000Y-77328000D01*
X237097000Y-77276000D01*
X237053000Y-77225000D01*
X237007000Y-77175000D01*
X236960000Y-77127000D01*
X236912000Y-77080000D01*
X236862000Y-77034000D01*
X236799000Y-76980000D01*
X236799000Y-74870000D01*
X239239000Y-74870000D01*
X239239000Y-82630000D01*
G36*
X239239000Y-82630000D02*
G01*
X236799000Y-82630000D01*
X236799000Y-80520000D01*
X236862000Y-80466000D01*
X236912000Y-80420000D01*
X236960000Y-80373000D01*
X237007000Y-80325000D01*
X237053000Y-80275000D01*
X237097000Y-80224000D01*
X237139000Y-80172000D01*
X237180000Y-80118000D01*
X237220000Y-80064000D01*
X237258000Y-80008000D01*
X237294000Y-79951000D01*
X237329000Y-79893000D01*
X237361000Y-79834000D01*
X237392000Y-79775000D01*
X237422000Y-79714000D01*
X237449000Y-79652000D01*
X237475000Y-79590000D01*
X237499000Y-79527000D01*
X237521000Y-79463000D01*
X237542000Y-79399000D01*
X237560000Y-79334000D01*
X237577000Y-79269000D01*
X237591000Y-79203000D01*
X237604000Y-79137000D01*
X237615000Y-79070000D01*
X237623000Y-79003000D01*
X237630000Y-78936000D01*
X237635000Y-78869000D01*
X237638000Y-78802000D01*
X237639000Y-78750000D01*
X237638000Y-78698000D01*
X237635000Y-78631000D01*
X237630000Y-78564000D01*
X237623000Y-78497000D01*
X237615000Y-78430000D01*
X237604000Y-78363000D01*
X237591000Y-78297000D01*
X237577000Y-78231000D01*
X237560000Y-78166000D01*
X237542000Y-78101000D01*
X237521000Y-78037000D01*
X237499000Y-77973000D01*
X237475000Y-77910000D01*
X237449000Y-77848000D01*
X237422000Y-77786000D01*
X237392000Y-77725000D01*
X237361000Y-77666000D01*
X237329000Y-77607000D01*
X237294000Y-77549000D01*
X237258000Y-77492000D01*
X237220000Y-77436000D01*
X237180000Y-77382000D01*
X237139000Y-77328000D01*
X237097000Y-77276000D01*
X237053000Y-77225000D01*
X237007000Y-77175000D01*
X236960000Y-77127000D01*
X236912000Y-77080000D01*
X236862000Y-77034000D01*
X236799000Y-76980000D01*
X236799000Y-74870000D01*
X239239000Y-74870000D01*
X239239000Y-82630000D01*
G37*
%TO.C,J28*%
X233916000Y-125477000D02*
X233853000Y-125531000D01*
X233803000Y-125577000D01*
X233755000Y-125624000D01*
X233708000Y-125672000D01*
X233662000Y-125722000D01*
X233618000Y-125773000D01*
X233576000Y-125825000D01*
X233535000Y-125879000D01*
X233495000Y-125933000D01*
X233457000Y-125989000D01*
X233421000Y-126046000D01*
X233386000Y-126104000D01*
X233354000Y-126163000D01*
X233323000Y-126222000D01*
X233293000Y-126283000D01*
X233266000Y-126345000D01*
X233240000Y-126407000D01*
X233216000Y-126470000D01*
X233194000Y-126534000D01*
X233173000Y-126598000D01*
X233155000Y-126663000D01*
X233138000Y-126728000D01*
X233124000Y-126794000D01*
X233111000Y-126860000D01*
X233100000Y-126927000D01*
X233092000Y-126994000D01*
X233085000Y-127061000D01*
X233080000Y-127128000D01*
X233077000Y-127195000D01*
X233076000Y-127247000D01*
X233077000Y-127299000D01*
X233080000Y-127366000D01*
X233085000Y-127433000D01*
X233092000Y-127500000D01*
X233100000Y-127567000D01*
X233111000Y-127634000D01*
X233124000Y-127700000D01*
X233138000Y-127766000D01*
X233155000Y-127831000D01*
X233173000Y-127896000D01*
X233194000Y-127960000D01*
X233216000Y-128024000D01*
X233240000Y-128087000D01*
X233266000Y-128149000D01*
X233293000Y-128211000D01*
X233323000Y-128272000D01*
X233354000Y-128331000D01*
X233386000Y-128390000D01*
X233421000Y-128448000D01*
X233457000Y-128505000D01*
X233495000Y-128561000D01*
X233535000Y-128615000D01*
X233576000Y-128669000D01*
X233618000Y-128721000D01*
X233662000Y-128772000D01*
X233708000Y-128822000D01*
X233755000Y-128870000D01*
X233803000Y-128917000D01*
X233853000Y-128963000D01*
X233916000Y-129017000D01*
X233916000Y-131127000D01*
X231476000Y-131127000D01*
X231476000Y-123367000D01*
X233916000Y-123367000D01*
X233916000Y-125477000D01*
G36*
X233916000Y-125477000D02*
G01*
X233853000Y-125531000D01*
X233803000Y-125577000D01*
X233755000Y-125624000D01*
X233708000Y-125672000D01*
X233662000Y-125722000D01*
X233618000Y-125773000D01*
X233576000Y-125825000D01*
X233535000Y-125879000D01*
X233495000Y-125933000D01*
X233457000Y-125989000D01*
X233421000Y-126046000D01*
X233386000Y-126104000D01*
X233354000Y-126163000D01*
X233323000Y-126222000D01*
X233293000Y-126283000D01*
X233266000Y-126345000D01*
X233240000Y-126407000D01*
X233216000Y-126470000D01*
X233194000Y-126534000D01*
X233173000Y-126598000D01*
X233155000Y-126663000D01*
X233138000Y-126728000D01*
X233124000Y-126794000D01*
X233111000Y-126860000D01*
X233100000Y-126927000D01*
X233092000Y-126994000D01*
X233085000Y-127061000D01*
X233080000Y-127128000D01*
X233077000Y-127195000D01*
X233076000Y-127247000D01*
X233077000Y-127299000D01*
X233080000Y-127366000D01*
X233085000Y-127433000D01*
X233092000Y-127500000D01*
X233100000Y-127567000D01*
X233111000Y-127634000D01*
X233124000Y-127700000D01*
X233138000Y-127766000D01*
X233155000Y-127831000D01*
X233173000Y-127896000D01*
X233194000Y-127960000D01*
X233216000Y-128024000D01*
X233240000Y-128087000D01*
X233266000Y-128149000D01*
X233293000Y-128211000D01*
X233323000Y-128272000D01*
X233354000Y-128331000D01*
X233386000Y-128390000D01*
X233421000Y-128448000D01*
X233457000Y-128505000D01*
X233495000Y-128561000D01*
X233535000Y-128615000D01*
X233576000Y-128669000D01*
X233618000Y-128721000D01*
X233662000Y-128772000D01*
X233708000Y-128822000D01*
X233755000Y-128870000D01*
X233803000Y-128917000D01*
X233853000Y-128963000D01*
X233916000Y-129017000D01*
X233916000Y-131127000D01*
X231476000Y-131127000D01*
X231476000Y-123367000D01*
X233916000Y-123367000D01*
X233916000Y-125477000D01*
G37*
X239236000Y-131127000D02*
X236796000Y-131127000D01*
X236796000Y-129017000D01*
X236859000Y-128963000D01*
X236909000Y-128917000D01*
X236957000Y-128870000D01*
X237004000Y-128822000D01*
X237050000Y-128772000D01*
X237094000Y-128721000D01*
X237136000Y-128669000D01*
X237177000Y-128615000D01*
X237217000Y-128561000D01*
X237255000Y-128505000D01*
X237291000Y-128448000D01*
X237326000Y-128390000D01*
X237358000Y-128331000D01*
X237389000Y-128272000D01*
X237419000Y-128211000D01*
X237446000Y-128149000D01*
X237472000Y-128087000D01*
X237496000Y-128024000D01*
X237518000Y-127960000D01*
X237539000Y-127896000D01*
X237557000Y-127831000D01*
X237574000Y-127766000D01*
X237588000Y-127700000D01*
X237601000Y-127634000D01*
X237612000Y-127567000D01*
X237620000Y-127500000D01*
X237627000Y-127433000D01*
X237632000Y-127366000D01*
X237635000Y-127299000D01*
X237636000Y-127247000D01*
X237635000Y-127195000D01*
X237632000Y-127128000D01*
X237627000Y-127061000D01*
X237620000Y-126994000D01*
X237612000Y-126927000D01*
X237601000Y-126860000D01*
X237588000Y-126794000D01*
X237574000Y-126728000D01*
X237557000Y-126663000D01*
X237539000Y-126598000D01*
X237518000Y-126534000D01*
X237496000Y-126470000D01*
X237472000Y-126407000D01*
X237446000Y-126345000D01*
X237419000Y-126283000D01*
X237389000Y-126222000D01*
X237358000Y-126163000D01*
X237326000Y-126104000D01*
X237291000Y-126046000D01*
X237255000Y-125989000D01*
X237217000Y-125933000D01*
X237177000Y-125879000D01*
X237136000Y-125825000D01*
X237094000Y-125773000D01*
X237050000Y-125722000D01*
X237004000Y-125672000D01*
X236957000Y-125624000D01*
X236909000Y-125577000D01*
X236859000Y-125531000D01*
X236796000Y-125477000D01*
X236796000Y-123367000D01*
X239236000Y-123367000D01*
X239236000Y-131127000D01*
G36*
X239236000Y-131127000D02*
G01*
X236796000Y-131127000D01*
X236796000Y-129017000D01*
X236859000Y-128963000D01*
X236909000Y-128917000D01*
X236957000Y-128870000D01*
X237004000Y-128822000D01*
X237050000Y-128772000D01*
X237094000Y-128721000D01*
X237136000Y-128669000D01*
X237177000Y-128615000D01*
X237217000Y-128561000D01*
X237255000Y-128505000D01*
X237291000Y-128448000D01*
X237326000Y-128390000D01*
X237358000Y-128331000D01*
X237389000Y-128272000D01*
X237419000Y-128211000D01*
X237446000Y-128149000D01*
X237472000Y-128087000D01*
X237496000Y-128024000D01*
X237518000Y-127960000D01*
X237539000Y-127896000D01*
X237557000Y-127831000D01*
X237574000Y-127766000D01*
X237588000Y-127700000D01*
X237601000Y-127634000D01*
X237612000Y-127567000D01*
X237620000Y-127500000D01*
X237627000Y-127433000D01*
X237632000Y-127366000D01*
X237635000Y-127299000D01*
X237636000Y-127247000D01*
X237635000Y-127195000D01*
X237632000Y-127128000D01*
X237627000Y-127061000D01*
X237620000Y-126994000D01*
X237612000Y-126927000D01*
X237601000Y-126860000D01*
X237588000Y-126794000D01*
X237574000Y-126728000D01*
X237557000Y-126663000D01*
X237539000Y-126598000D01*
X237518000Y-126534000D01*
X237496000Y-126470000D01*
X237472000Y-126407000D01*
X237446000Y-126345000D01*
X237419000Y-126283000D01*
X237389000Y-126222000D01*
X237358000Y-126163000D01*
X237326000Y-126104000D01*
X237291000Y-126046000D01*
X237255000Y-125989000D01*
X237217000Y-125933000D01*
X237177000Y-125879000D01*
X237136000Y-125825000D01*
X237094000Y-125773000D01*
X237050000Y-125722000D01*
X237004000Y-125672000D01*
X236957000Y-125624000D01*
X236909000Y-125577000D01*
X236859000Y-125531000D01*
X236796000Y-125477000D01*
X236796000Y-123367000D01*
X239236000Y-123367000D01*
X239236000Y-131127000D01*
G37*
%TD*%
D11*
%TO.C,IC11*%
X174317000Y-88996999D03*
X174317000Y-89496999D03*
X174317000Y-89996999D03*
X174317000Y-90496999D03*
X174317000Y-90996999D03*
X174317000Y-91496999D03*
D12*
X175017000Y-92196999D03*
X175517000Y-92196999D03*
X176017000Y-92196999D03*
X176517000Y-92196999D03*
X177017000Y-92196999D03*
X177517000Y-92196999D03*
D11*
X178217000Y-91496999D03*
X178217000Y-90996999D03*
X178217000Y-90496999D03*
X178217000Y-89996999D03*
X178217000Y-89496999D03*
X178217000Y-88996999D03*
D12*
X177517000Y-88296999D03*
X177017000Y-88296999D03*
X176517000Y-88296999D03*
X176017000Y-88296999D03*
X175517000Y-88296999D03*
X175017000Y-88296999D03*
D13*
X176267000Y-90246999D03*
%TD*%
D14*
%TO.C,C25*%
X196900000Y-38275000D03*
X196900000Y-36725000D03*
%TD*%
D15*
%TO.C,C27*%
X202900000Y-36725000D03*
X202900000Y-38275000D03*
%TD*%
%TO.C,C67*%
X180027000Y-86501999D03*
X180027000Y-88051999D03*
%TD*%
D16*
%TO.C,C28*%
X210620000Y-42500000D03*
X211580000Y-42500000D03*
%TD*%
D15*
%TO.C,C73*%
X202897000Y-85221999D03*
X202897000Y-86771999D03*
%TD*%
D17*
%TO.C,R37*%
X212799000Y-71875000D03*
X212799000Y-70225000D03*
%TD*%
D14*
%TO.C,C31*%
X216350000Y-39060000D03*
X216350000Y-37510000D03*
%TD*%
D15*
%TO.C,C107*%
X208449000Y-61835000D03*
X208449000Y-63385000D03*
%TD*%
D17*
%TO.C,R25*%
X212800000Y-47625000D03*
X212800000Y-45975000D03*
%TD*%
D18*
%TO.C,L11*%
X181237000Y-87131999D03*
X181237000Y-88101999D03*
%TD*%
D19*
%TO.C,R14*%
X93225000Y-116810000D03*
X94875000Y-116810000D03*
%TD*%
D16*
%TO.C,C35*%
X217540000Y-43000000D03*
X218500000Y-43000000D03*
%TD*%
D20*
%TO.C,J13*%
X185450000Y-42500000D03*
X187350000Y-42500000D03*
D21*
X186400000Y-41700000D03*
X186400000Y-43300000D03*
%TD*%
D15*
%TO.C,C64*%
X178897000Y-83521999D03*
X178897000Y-85071999D03*
%TD*%
D14*
%TO.C,C71*%
X196897000Y-86771999D03*
X196897000Y-85221999D03*
%TD*%
D22*
%TO.C,L19*%
X167117000Y-87131999D03*
X167117000Y-86161999D03*
%TD*%
D23*
%TO.C,R68*%
X226897000Y-96586999D03*
X226897000Y-97606999D03*
%TD*%
D14*
%TO.C,C36*%
X165899000Y-62625000D03*
X165899000Y-61075000D03*
%TD*%
D24*
%TO.C,C7*%
X91750000Y-90750000D03*
X90200000Y-90750000D03*
%TD*%
D17*
%TO.C,R44*%
X180397000Y-85121999D03*
X180397000Y-83471999D03*
%TD*%
D15*
%TO.C,C87*%
X178896000Y-107772000D03*
X178896000Y-109322000D03*
%TD*%
D14*
%TO.C,C98*%
X211326000Y-120322000D03*
X211326000Y-118772000D03*
%TD*%
D17*
%TO.C,R40*%
X214849000Y-60400000D03*
X214849000Y-58750000D03*
%TD*%
D25*
%TO.C,R57*%
X183396000Y-107722000D03*
X183396000Y-109372000D03*
%TD*%
D26*
%TO.C,C4*%
X93725000Y-51625872D03*
X95275000Y-51625872D03*
%TD*%
D25*
%TO.C,R46*%
X195397000Y-85171999D03*
X195397000Y-86821999D03*
%TD*%
D14*
%TO.C,C93*%
X192396000Y-112422000D03*
X192396000Y-110872000D03*
%TD*%
%TO.C,C63*%
X175897000Y-85071999D03*
X175897000Y-83521999D03*
%TD*%
%TO.C,C95*%
X199896000Y-111022000D03*
X199896000Y-109472000D03*
%TD*%
D11*
%TO.C,IC9*%
X174319000Y-64750000D03*
X174319000Y-65250000D03*
X174319000Y-65750000D03*
X174319000Y-66250000D03*
X174319000Y-66750000D03*
X174319000Y-67250000D03*
D12*
X175019000Y-67950000D03*
X175519000Y-67950000D03*
X176019000Y-67950000D03*
X176519000Y-67950000D03*
X177019000Y-67950000D03*
X177519000Y-67950000D03*
D11*
X178219000Y-67250000D03*
X178219000Y-66750000D03*
X178219000Y-66250000D03*
X178219000Y-65750000D03*
X178219000Y-65250000D03*
X178219000Y-64750000D03*
D12*
X177519000Y-64050000D03*
X177019000Y-64050000D03*
X176519000Y-64050000D03*
X176019000Y-64050000D03*
X175519000Y-64050000D03*
X175019000Y-64050000D03*
D13*
X176269000Y-66000000D03*
%TD*%
D14*
%TO.C,C30*%
X208920000Y-47575000D03*
X208920000Y-46025000D03*
%TD*%
D27*
%TO.C,R17*%
X93825000Y-121950000D03*
X92175000Y-121950000D03*
%TD*%
D25*
%TO.C,R58*%
X195396000Y-109422000D03*
X195396000Y-111072000D03*
%TD*%
D27*
%TO.C,R9*%
X95325000Y-44255233D03*
X93675000Y-44255233D03*
%TD*%
D17*
%TO.C,R35*%
X198399000Y-62575000D03*
X198399000Y-60925000D03*
%TD*%
D14*
%TO.C,C15*%
X168400000Y-38375000D03*
X168400000Y-36825000D03*
%TD*%
D28*
%TO.C,J27*%
X235357000Y-102996999D03*
%TD*%
D15*
%TO.C,C112*%
X210907000Y-110335000D03*
X210907000Y-111885000D03*
%TD*%
D20*
%TO.C,J12*%
X165359000Y-115249000D03*
X167259000Y-115249000D03*
D21*
X166309000Y-114449000D03*
X166309000Y-116049000D03*
%TD*%
D14*
%TO.C,C92*%
X189896000Y-112422000D03*
X189896000Y-110872000D03*
%TD*%
D15*
%TO.C,C16*%
X172900000Y-37725000D03*
X172900000Y-39275000D03*
%TD*%
D22*
%TO.C,L5*%
X191160000Y-39930000D03*
X191160000Y-38960000D03*
%TD*%
D14*
%TO.C,C38*%
X168399000Y-62625000D03*
X168399000Y-61075000D03*
%TD*%
D25*
%TO.C,R34*%
X195399000Y-60925000D03*
X195399000Y-62575000D03*
%TD*%
D14*
%TO.C,C46*%
X189899000Y-63925000D03*
X189899000Y-62375000D03*
%TD*%
D23*
%TO.C,R67*%
X226899000Y-72340000D03*
X226899000Y-73360000D03*
%TD*%
D29*
%TO.C,IC4*%
X89300000Y-103100000D03*
X89300000Y-103600000D03*
X89300000Y-104100000D03*
X89300000Y-104600000D03*
X89300000Y-105100000D03*
X89300000Y-105600000D03*
X89300000Y-106100000D03*
X92300000Y-106100000D03*
X92300000Y-105600000D03*
X92300000Y-105100000D03*
X92300000Y-104600000D03*
X92300000Y-104100000D03*
X92300000Y-103600000D03*
X92300000Y-103100000D03*
D30*
X90800000Y-104600000D03*
%TD*%
D25*
%TO.C,R19*%
X177400000Y-34975000D03*
X177400000Y-36625000D03*
%TD*%
D31*
%TO.C,HY4*%
X229996000Y-115747000D03*
X229996000Y-117017000D03*
X229996000Y-118287000D03*
X229996000Y-119557000D03*
X229996000Y-120827000D03*
X235356000Y-120827000D03*
X235356000Y-119557000D03*
X235356000Y-118287000D03*
X235356000Y-117017000D03*
X235356000Y-115747000D03*
%TD*%
D14*
%TO.C,C20*%
X182505000Y-39555000D03*
X182505000Y-38005000D03*
%TD*%
D17*
%TO.C,R59*%
X198396000Y-111072000D03*
X198396000Y-109422000D03*
%TD*%
D28*
%TO.C,J24*%
X235360000Y-54500000D03*
%TD*%
D20*
%TO.C,J22*%
X185446000Y-115247000D03*
X187346000Y-115247000D03*
D21*
X186396000Y-114447000D03*
X186396000Y-116047000D03*
%TD*%
D17*
%TO.C,R23*%
X198400000Y-38325000D03*
X198400000Y-36675000D03*
%TD*%
D22*
%TO.C,L20*%
X167116000Y-111382000D03*
X167116000Y-110412000D03*
%TD*%
%TO.C,L23*%
X209697000Y-87891999D03*
X209697000Y-86921999D03*
%TD*%
%TO.C,L28*%
X210116000Y-120582000D03*
X210116000Y-119612000D03*
%TD*%
D15*
%TO.C,C62*%
X172897000Y-86221999D03*
X172897000Y-87771999D03*
%TD*%
D14*
%TO.C,C61*%
X168397000Y-86871999D03*
X168397000Y-85321999D03*
%TD*%
D15*
%TO.C,C60*%
X170397000Y-86221999D03*
X170397000Y-87771999D03*
%TD*%
D25*
%TO.C,R33*%
X183399000Y-59225000D03*
X183399000Y-60875000D03*
%TD*%
D15*
%TO.C,C18*%
X178900000Y-35025000D03*
X178900000Y-36575000D03*
%TD*%
D32*
%TO.C,IC8*%
X213300000Y-42000000D03*
X213300000Y-42500000D03*
X213300000Y-43000000D03*
X213300000Y-43500000D03*
D33*
X213820000Y-44020000D03*
X214320000Y-44020000D03*
X214820000Y-44020000D03*
X215320000Y-44020000D03*
D32*
X215840000Y-43500000D03*
X215840000Y-43000000D03*
X215840000Y-42500000D03*
X215840000Y-42000000D03*
D33*
X215320000Y-41480000D03*
X214820000Y-41480000D03*
X214320000Y-41480000D03*
X213820000Y-41480000D03*
D34*
X214570000Y-42750000D03*
%TD*%
D27*
%TO.C,R6*%
X95325000Y-48677617D03*
X93675000Y-48677617D03*
%TD*%
D15*
%TO.C,C44*%
X180029000Y-62255000D03*
X180029000Y-63805000D03*
%TD*%
D25*
%TO.C,R30*%
X174399000Y-59225000D03*
X174399000Y-60875000D03*
%TD*%
D15*
%TO.C,C19*%
X181900000Y-35025000D03*
X181900000Y-36575000D03*
%TD*%
%TO.C,C111*%
X208446000Y-110332000D03*
X208446000Y-111882000D03*
%TD*%
D25*
%TO.C,R27*%
X214850000Y-37475000D03*
X214850000Y-39125000D03*
%TD*%
D35*
%TO.C,L2*%
X217839000Y-66077500D03*
X217839000Y-64502500D03*
%TD*%
D20*
%TO.C,J10*%
X165310000Y-66750000D03*
X167210000Y-66750000D03*
D21*
X166260000Y-65950000D03*
X166260000Y-67550000D03*
%TD*%
D25*
%TO.C,R54*%
X174396000Y-107722000D03*
X174396000Y-109372000D03*
%TD*%
D28*
%TO.C,J26*%
X235359000Y-78750000D03*
%TD*%
D11*
%TO.C,IC3*%
X147100000Y-54615000D03*
X147100000Y-55125000D03*
X147100000Y-55635000D03*
D12*
X148040000Y-56575000D03*
X148550000Y-56575000D03*
X149060000Y-56575000D03*
D11*
X150000000Y-55635000D03*
X150000000Y-55125000D03*
X150000000Y-54615000D03*
D12*
X149060000Y-53675000D03*
X148550000Y-53675000D03*
X148040000Y-53675000D03*
D36*
X148550000Y-55125000D03*
%TD*%
D20*
%TO.C,J19*%
X185447000Y-90996999D03*
X187347000Y-90996999D03*
D21*
X186397000Y-90196999D03*
X186397000Y-91796999D03*
%TD*%
D14*
%TO.C,C13*%
X165900000Y-38375000D03*
X165900000Y-36825000D03*
%TD*%
%TO.C,C82*%
X165896000Y-111122000D03*
X165896000Y-109572000D03*
%TD*%
%TO.C,C45*%
X184889000Y-60820000D03*
X184889000Y-59270000D03*
%TD*%
D27*
%TO.C,R16*%
X95255000Y-105020000D03*
X93605000Y-105020000D03*
%TD*%
D20*
%TO.C,J23*%
X204480000Y-115260000D03*
X206380000Y-115260000D03*
D21*
X205430000Y-114460000D03*
X205430000Y-116060000D03*
%TD*%
D15*
%TO.C,C37*%
X170399000Y-61975000D03*
X170399000Y-63525000D03*
%TD*%
D25*
%TO.C,R43*%
X177397000Y-83471999D03*
X177397000Y-85121999D03*
%TD*%
D31*
%TO.C,HY2*%
X229999000Y-67250000D03*
X229999000Y-68520000D03*
X229999000Y-69790000D03*
X229999000Y-71060000D03*
X229999000Y-72330000D03*
X235359000Y-72330000D03*
X235359000Y-71060000D03*
X235359000Y-69790000D03*
X235359000Y-68520000D03*
X235359000Y-67250000D03*
%TD*%
D37*
%TO.C,C3*%
X85650000Y-115200000D03*
X88600000Y-115200000D03*
%TD*%
D14*
%TO.C,C23*%
X189900000Y-39675000D03*
X189900000Y-38125000D03*
%TD*%
D35*
%TO.C,L4*%
X217836000Y-114574500D03*
X217836000Y-112999500D03*
%TD*%
D16*
%TO.C,C51*%
X210619000Y-66750000D03*
X211579000Y-66750000D03*
%TD*%
D15*
%TO.C,C88*%
X181896000Y-107772000D03*
X181896000Y-109322000D03*
%TD*%
D38*
%TO.C,C6*%
X96950000Y-101425000D03*
X94000000Y-101425000D03*
%TD*%
D14*
%TO.C,C79*%
X220037000Y-87341999D03*
X220037000Y-85791999D03*
%TD*%
%TO.C,C75*%
X211327000Y-96071999D03*
X211327000Y-94521999D03*
%TD*%
D15*
%TO.C,C109*%
X208447000Y-86081999D03*
X208447000Y-87631999D03*
%TD*%
D27*
%TO.C,R11*%
X95325000Y-41306978D03*
X93675000Y-41306978D03*
%TD*%
%TO.C,R8*%
X95325000Y-45729361D03*
X93675000Y-45729361D03*
%TD*%
D14*
%TO.C,C17*%
X175900000Y-36575000D03*
X175900000Y-35025000D03*
%TD*%
D17*
%TO.C,R56*%
X180396000Y-109372000D03*
X180396000Y-107722000D03*
%TD*%
D25*
%TO.C,R51*%
X214847000Y-85971999D03*
X214847000Y-87621999D03*
%TD*%
D11*
%TO.C,IC2*%
X147100000Y-103115000D03*
X147100000Y-103625000D03*
X147100000Y-104135000D03*
D12*
X148040000Y-105075000D03*
X148550000Y-105075000D03*
X149060000Y-105075000D03*
D11*
X150000000Y-104135000D03*
X150000000Y-103625000D03*
X150000000Y-103115000D03*
D12*
X149060000Y-102175000D03*
X148550000Y-102175000D03*
X148040000Y-102175000D03*
D36*
X148550000Y-103625000D03*
%TD*%
D38*
%TO.C,C8*%
X96950000Y-99000000D03*
X94000000Y-99000000D03*
%TD*%
D23*
%TO.C,R66*%
X226900000Y-48090000D03*
X226900000Y-49110000D03*
%TD*%
D27*
%TO.C,R3*%
X110450000Y-42620000D03*
X108800000Y-42620000D03*
%TD*%
D15*
%TO.C,C39*%
X172899000Y-61975000D03*
X172899000Y-63525000D03*
%TD*%
D14*
%TO.C,C80*%
X218547000Y-87336999D03*
X218547000Y-85786999D03*
%TD*%
D35*
%TO.C,L3*%
X217837000Y-90324499D03*
X217837000Y-88749499D03*
%TD*%
D15*
%TO.C,C105*%
X208450000Y-37585000D03*
X208450000Y-39135000D03*
%TD*%
D27*
%TO.C,R2*%
X110450000Y-44836000D03*
X108800000Y-44836000D03*
%TD*%
D17*
%TO.C,R60*%
X201396000Y-111072000D03*
X201396000Y-109422000D03*
%TD*%
D14*
%TO.C,C26*%
X199900000Y-38275000D03*
X199900000Y-36725000D03*
%TD*%
D22*
%TO.C,L26*%
X210119000Y-72085000D03*
X210119000Y-71115000D03*
%TD*%
D11*
%TO.C,AT3*%
X193807649Y-89496999D03*
X193807649Y-89996999D03*
X193807649Y-90496999D03*
X193807649Y-90996999D03*
D12*
X194507649Y-91696999D03*
X195007649Y-91696999D03*
X195507649Y-91696999D03*
X196007649Y-91696999D03*
D11*
X196707649Y-90996999D03*
X196707649Y-90496999D03*
X196707649Y-89996999D03*
X196707649Y-89496999D03*
D12*
X196007649Y-88796999D03*
X195507649Y-88796999D03*
X195007649Y-88796999D03*
X194507649Y-88796999D03*
D34*
X195257649Y-90246999D03*
%TD*%
D17*
%TO.C,R48*%
X201397000Y-86821999D03*
X201397000Y-85171999D03*
%TD*%
D14*
%TO.C,C53*%
X208919000Y-71825000D03*
X208919000Y-70275000D03*
%TD*%
D22*
%TO.C,L8*%
X191156000Y-112677000D03*
X191156000Y-111707000D03*
%TD*%
D25*
%TO.C,R42*%
X174397000Y-83471999D03*
X174397000Y-85121999D03*
%TD*%
D31*
%TO.C,HY3*%
X229997000Y-91496999D03*
X229997000Y-92766999D03*
X229997000Y-94036999D03*
X229997000Y-95306999D03*
X229997000Y-96576999D03*
X235357000Y-96576999D03*
X235357000Y-95306999D03*
X235357000Y-94036999D03*
X235357000Y-92766999D03*
X235357000Y-91496999D03*
%TD*%
D16*
%TO.C,C58*%
X217539000Y-67250000D03*
X218499000Y-67250000D03*
%TD*%
D39*
%TO.C,L31*%
X221147000Y-87346999D03*
X221147000Y-86656999D03*
%TD*%
D14*
%TO.C,C77*%
X216347000Y-87556999D03*
X216347000Y-86006999D03*
%TD*%
D19*
%TO.C,R12*%
X93625000Y-103540000D03*
X95275000Y-103540000D03*
%TD*%
D37*
%TO.C,C12*%
X94125000Y-118800000D03*
X97075000Y-118800000D03*
%TD*%
D29*
%TO.C,IC5*%
X88900000Y-117300000D03*
X88900000Y-117800000D03*
X88900000Y-118300000D03*
X88900000Y-118800000D03*
X88900000Y-119300000D03*
X88900000Y-119800000D03*
X88900000Y-120300000D03*
X91900000Y-120300000D03*
X91900000Y-119800000D03*
X91900000Y-119300000D03*
X91900000Y-118800000D03*
X91900000Y-118300000D03*
X91900000Y-117800000D03*
X91900000Y-117300000D03*
D30*
X90400000Y-118800000D03*
%TD*%
D18*
%TO.C,L12*%
X181236000Y-111382000D03*
X181236000Y-112352000D03*
%TD*%
D14*
%TO.C,C102*%
X220036000Y-111592000D03*
X220036000Y-110042000D03*
%TD*%
D17*
%TO.C,R52*%
X214847000Y-84646999D03*
X214847000Y-82996999D03*
%TD*%
D22*
%TO.C,L17*%
X167120000Y-38635000D03*
X167120000Y-37665000D03*
%TD*%
D14*
%TO.C,C40*%
X175899000Y-60825000D03*
X175899000Y-59275000D03*
%TD*%
%TO.C,C48*%
X196899000Y-62525000D03*
X196899000Y-60975000D03*
%TD*%
D23*
%TO.C,R69*%
X226896000Y-120837000D03*
X226896000Y-121857000D03*
%TD*%
D11*
%TO.C,IC13*%
X174316000Y-113247000D03*
X174316000Y-113747000D03*
X174316000Y-114247000D03*
X174316000Y-114747000D03*
X174316000Y-115247000D03*
X174316000Y-115747000D03*
D12*
X175016000Y-116447000D03*
X175516000Y-116447000D03*
X176016000Y-116447000D03*
X176516000Y-116447000D03*
X177016000Y-116447000D03*
X177516000Y-116447000D03*
D11*
X178216000Y-115747000D03*
X178216000Y-115247000D03*
X178216000Y-114747000D03*
X178216000Y-114247000D03*
X178216000Y-113747000D03*
X178216000Y-113247000D03*
D12*
X177516000Y-112547000D03*
X177016000Y-112547000D03*
X176516000Y-112547000D03*
X176016000Y-112547000D03*
X175516000Y-112547000D03*
X175016000Y-112547000D03*
D13*
X176266000Y-114497000D03*
%TD*%
D15*
%TO.C,C96*%
X202896000Y-109472000D03*
X202896000Y-111022000D03*
%TD*%
D22*
%TO.C,L6*%
X191159000Y-64180000D03*
X191159000Y-63210000D03*
%TD*%
D17*
%TO.C,R61*%
X212796000Y-120372000D03*
X212796000Y-118722000D03*
%TD*%
D22*
%TO.C,L24*%
X209696000Y-112142000D03*
X209696000Y-111172000D03*
%TD*%
D40*
%TO.C,U1*%
X106281400Y-50145000D03*
X106281400Y-48875000D03*
X106281400Y-47605000D03*
X106281400Y-46335000D03*
X106281400Y-45065000D03*
X106281400Y-43795000D03*
X106281400Y-42525000D03*
X106281400Y-41255000D03*
X99118600Y-41255000D03*
X99118600Y-42525000D03*
X99118600Y-43795000D03*
X99118600Y-45065000D03*
X99118600Y-46335000D03*
X99118600Y-47605000D03*
X99118600Y-48875000D03*
X99118600Y-50145000D03*
%TD*%
D14*
%TO.C,C70*%
X192397000Y-88171999D03*
X192397000Y-86621999D03*
%TD*%
%TO.C,C100*%
X216346000Y-111807000D03*
X216346000Y-110257000D03*
%TD*%
D15*
%TO.C,C32*%
X213350000Y-37510000D03*
X213350000Y-39060000D03*
%TD*%
D25*
%TO.C,R31*%
X177399000Y-59225000D03*
X177399000Y-60875000D03*
%TD*%
%TO.C,R26*%
X206950000Y-37535000D03*
X206950000Y-39185000D03*
%TD*%
%TO.C,R50*%
X206947000Y-86031999D03*
X206947000Y-87681999D03*
%TD*%
D14*
%TO.C,C54*%
X216349000Y-63310000D03*
X216349000Y-61760000D03*
%TD*%
D39*
%TO.C,L32*%
X221146000Y-111597000D03*
X221146000Y-110907000D03*
%TD*%
D32*
%TO.C,IC12*%
X213297000Y-90496999D03*
X213297000Y-90996999D03*
X213297000Y-91496999D03*
X213297000Y-91996999D03*
D33*
X213817000Y-92516999D03*
X214317000Y-92516999D03*
X214817000Y-92516999D03*
X215317000Y-92516999D03*
D32*
X215837000Y-91996999D03*
X215837000Y-91496999D03*
X215837000Y-90996999D03*
X215837000Y-90496999D03*
D33*
X215317000Y-89976999D03*
X214817000Y-89976999D03*
X214317000Y-89976999D03*
X213817000Y-89976999D03*
D34*
X214567000Y-91246999D03*
%TD*%
D15*
%TO.C,C42*%
X181899000Y-59275000D03*
X181899000Y-60825000D03*
%TD*%
D25*
%TO.C,R55*%
X177396000Y-107722000D03*
X177396000Y-109372000D03*
%TD*%
D39*
%TO.C,L30*%
X221149000Y-63100000D03*
X221149000Y-62410000D03*
%TD*%
D22*
%TO.C,L21*%
X209700000Y-39395000D03*
X209700000Y-38425000D03*
%TD*%
D25*
%TO.C,R18*%
X174400000Y-34975000D03*
X174400000Y-36625000D03*
%TD*%
D17*
%TO.C,R20*%
X180400000Y-36625000D03*
X180400000Y-34975000D03*
%TD*%
D38*
%TO.C,C10*%
X96390000Y-112460000D03*
X93440000Y-112460000D03*
%TD*%
D22*
%TO.C,L15*%
X171637000Y-87961999D03*
X171637000Y-86991999D03*
%TD*%
D20*
%TO.C,J11*%
X165360000Y-91000000D03*
X167260000Y-91000000D03*
D21*
X166310000Y-90200000D03*
X166310000Y-91800000D03*
%TD*%
D14*
%TO.C,C72*%
X199897000Y-86771999D03*
X199897000Y-85221999D03*
%TD*%
%TO.C,C43*%
X182504000Y-63805000D03*
X182504000Y-62255000D03*
%TD*%
D27*
%TO.C,R1*%
X110470000Y-46370000D03*
X108820000Y-46370000D03*
%TD*%
D14*
%TO.C,C94*%
X196896000Y-111022000D03*
X196896000Y-109472000D03*
%TD*%
D26*
%TO.C,C5*%
X93725000Y-53100000D03*
X95275000Y-53100000D03*
%TD*%
D11*
%TO.C,IC7*%
X174320000Y-40500000D03*
X174320000Y-41000000D03*
X174320000Y-41500000D03*
X174320000Y-42000000D03*
X174320000Y-42500000D03*
X174320000Y-43000000D03*
D12*
X175020000Y-43700000D03*
X175520000Y-43700000D03*
X176020000Y-43700000D03*
X176520000Y-43700000D03*
X177020000Y-43700000D03*
X177520000Y-43700000D03*
D11*
X178220000Y-43000000D03*
X178220000Y-42500000D03*
X178220000Y-42000000D03*
X178220000Y-41500000D03*
X178220000Y-41000000D03*
X178220000Y-40500000D03*
D12*
X177520000Y-39800000D03*
X177020000Y-39800000D03*
X176520000Y-39800000D03*
X176020000Y-39800000D03*
X175520000Y-39800000D03*
X175020000Y-39800000D03*
D13*
X176270000Y-41750000D03*
%TD*%
D28*
%TO.C,J28*%
X235356000Y-127247000D03*
%TD*%
D22*
%TO.C,L14*%
X171639000Y-63715000D03*
X171639000Y-62745000D03*
%TD*%
D38*
%TO.C,C1*%
X92200000Y-101000000D03*
X89250000Y-101000000D03*
%TD*%
D14*
%TO.C,C49*%
X199899000Y-62525000D03*
X199899000Y-60975000D03*
%TD*%
D19*
%TO.C,R13*%
X93905000Y-106480000D03*
X95555000Y-106480000D03*
%TD*%
D15*
%TO.C,C21*%
X180030000Y-38005000D03*
X180030000Y-39555000D03*
%TD*%
D16*
%TO.C,C81*%
X217537000Y-91496999D03*
X218497000Y-91496999D03*
%TD*%
D14*
%TO.C,C29*%
X211330000Y-47575000D03*
X211330000Y-46025000D03*
%TD*%
D27*
%TO.C,R10*%
X95325000Y-42781106D03*
X93675000Y-42781106D03*
%TD*%
D25*
%TO.C,R62*%
X206946000Y-110282000D03*
X206946000Y-111932000D03*
%TD*%
D14*
%TO.C,C47*%
X192399000Y-63925000D03*
X192399000Y-62375000D03*
%TD*%
D16*
%TO.C,C97*%
X210616000Y-115247000D03*
X211576000Y-115247000D03*
%TD*%
D31*
%TO.C,HY1*%
X230000000Y-43000000D03*
X230000000Y-44270000D03*
X230000000Y-45540000D03*
X230000000Y-46810000D03*
X230000000Y-48080000D03*
X235360000Y-48080000D03*
X235360000Y-46810000D03*
X235360000Y-45540000D03*
X235360000Y-44270000D03*
X235360000Y-43000000D03*
%TD*%
D15*
%TO.C,C101*%
X213346000Y-110257000D03*
X213346000Y-111807000D03*
%TD*%
%TO.C,C50*%
X202899000Y-60975000D03*
X202899000Y-62525000D03*
%TD*%
D35*
%TO.C,L1*%
X217840000Y-41827500D03*
X217840000Y-40252500D03*
%TD*%
D17*
%TO.C,R4*%
X87738000Y-106121000D03*
X87738000Y-104471000D03*
%TD*%
D24*
%TO.C,C2*%
X95550000Y-96750000D03*
X94000000Y-96750000D03*
%TD*%
D17*
%TO.C,R28*%
X214850000Y-36150000D03*
X214850000Y-34500000D03*
%TD*%
D22*
%TO.C,L25*%
X210120000Y-47835000D03*
X210120000Y-46865000D03*
%TD*%
D14*
%TO.C,C52*%
X211329000Y-71825000D03*
X211329000Y-70275000D03*
%TD*%
D22*
%TO.C,L18*%
X167119000Y-62885000D03*
X167119000Y-61915000D03*
%TD*%
D15*
%TO.C,C78*%
X213347000Y-86006999D03*
X213347000Y-87556999D03*
%TD*%
%TO.C,C85*%
X172896000Y-110472000D03*
X172896000Y-112022000D03*
%TD*%
D11*
%TO.C,AT2*%
X193809649Y-65250000D03*
X193809649Y-65750000D03*
X193809649Y-66250000D03*
X193809649Y-66750000D03*
D12*
X194509649Y-67450000D03*
X195009649Y-67450000D03*
X195509649Y-67450000D03*
X196009649Y-67450000D03*
D11*
X196709649Y-66750000D03*
X196709649Y-66250000D03*
X196709649Y-65750000D03*
X196709649Y-65250000D03*
D12*
X196009649Y-64550000D03*
X195509649Y-64550000D03*
X195009649Y-64550000D03*
X194509649Y-64550000D03*
D34*
X195259649Y-66000000D03*
%TD*%
D38*
%TO.C,C9*%
X96365000Y-114910000D03*
X93415000Y-114910000D03*
%TD*%
D15*
%TO.C,C110*%
X210908000Y-86084999D03*
X210908000Y-87634999D03*
%TD*%
D22*
%TO.C,L7*%
X191157000Y-88426999D03*
X191157000Y-87456999D03*
%TD*%
D15*
%TO.C,C83*%
X170396000Y-110472000D03*
X170396000Y-112022000D03*
%TD*%
D14*
%TO.C,C84*%
X168396000Y-111122000D03*
X168396000Y-109572000D03*
%TD*%
%TO.C,C76*%
X208917000Y-96071999D03*
X208917000Y-94521999D03*
%TD*%
%TO.C,C34*%
X218550000Y-38840000D03*
X218550000Y-37290000D03*
%TD*%
D25*
%TO.C,R39*%
X214849000Y-61725000D03*
X214849000Y-63375000D03*
%TD*%
D18*
%TO.C,L10*%
X181239000Y-62885000D03*
X181239000Y-63855000D03*
%TD*%
D32*
%TO.C,IC10*%
X213299000Y-66250000D03*
X213299000Y-66750000D03*
X213299000Y-67250000D03*
X213299000Y-67750000D03*
D33*
X213819000Y-68270000D03*
X214319000Y-68270000D03*
X214819000Y-68270000D03*
X215319000Y-68270000D03*
D32*
X215839000Y-67750000D03*
X215839000Y-67250000D03*
X215839000Y-66750000D03*
X215839000Y-66250000D03*
D33*
X215319000Y-65730000D03*
X214819000Y-65730000D03*
X214319000Y-65730000D03*
X213819000Y-65730000D03*
D34*
X214569000Y-67000000D03*
%TD*%
D15*
%TO.C,C108*%
X210910000Y-61838000D03*
X210910000Y-63388000D03*
%TD*%
D17*
%TO.C,R24*%
X201400000Y-38325000D03*
X201400000Y-36675000D03*
%TD*%
D14*
%TO.C,C89*%
X182501000Y-112302000D03*
X182501000Y-110752000D03*
%TD*%
D20*
%TO.C,J14*%
X204484000Y-42513000D03*
X206384000Y-42513000D03*
D21*
X205434000Y-41713000D03*
X205434000Y-43313000D03*
%TD*%
D17*
%TO.C,R64*%
X214846000Y-108897000D03*
X214846000Y-107247000D03*
%TD*%
D15*
%TO.C,C90*%
X180026000Y-110752000D03*
X180026000Y-112302000D03*
%TD*%
D14*
%TO.C,C56*%
X220039000Y-63095000D03*
X220039000Y-61545000D03*
%TD*%
%TO.C,C59*%
X165897000Y-86871999D03*
X165897000Y-85321999D03*
%TD*%
%TO.C,C57*%
X218549000Y-63090000D03*
X218549000Y-61540000D03*
%TD*%
D17*
%TO.C,R32*%
X180399000Y-60875000D03*
X180399000Y-59225000D03*
%TD*%
D27*
%TO.C,R5*%
X95325000Y-50151744D03*
X93675000Y-50151744D03*
%TD*%
D15*
%TO.C,C14*%
X170400000Y-37725000D03*
X170400000Y-39275000D03*
%TD*%
D14*
%TO.C,C69*%
X189897000Y-88171999D03*
X189897000Y-86621999D03*
%TD*%
D18*
%TO.C,L9*%
X181240000Y-38635000D03*
X181240000Y-39605000D03*
%TD*%
D25*
%TO.C,R45*%
X183397000Y-83471999D03*
X183397000Y-85121999D03*
%TD*%
D14*
%TO.C,C68*%
X184887000Y-85066999D03*
X184887000Y-83516999D03*
%TD*%
%TO.C,C103*%
X218546000Y-111587000D03*
X218546000Y-110037000D03*
%TD*%
D20*
%TO.C,J16*%
X185449000Y-66750000D03*
X187349000Y-66750000D03*
D21*
X186399000Y-65950000D03*
X186399000Y-67550000D03*
%TD*%
D14*
%TO.C,C86*%
X175896000Y-109322000D03*
X175896000Y-107772000D03*
%TD*%
D17*
%TO.C,R49*%
X212797000Y-96121999D03*
X212797000Y-94471999D03*
%TD*%
D25*
%TO.C,R22*%
X195400000Y-36675000D03*
X195400000Y-38325000D03*
%TD*%
D14*
%TO.C,C99*%
X208916000Y-120322000D03*
X208916000Y-118772000D03*
%TD*%
D39*
%TO.C,L29*%
X221150000Y-38850000D03*
X221150000Y-38160000D03*
%TD*%
D22*
%TO.C,L22*%
X209699000Y-63645000D03*
X209699000Y-62675000D03*
%TD*%
D20*
%TO.C,J20*%
X204481000Y-91009999D03*
X206381000Y-91009999D03*
D21*
X205431000Y-90209999D03*
X205431000Y-91809999D03*
%TD*%
D15*
%TO.C,C65*%
X181897000Y-83521999D03*
X181897000Y-85071999D03*
%TD*%
D25*
%TO.C,R38*%
X206949000Y-61785000D03*
X206949000Y-63435000D03*
%TD*%
D14*
%TO.C,C91*%
X184886000Y-109317000D03*
X184886000Y-107767000D03*
%TD*%
%TO.C,C22*%
X184890000Y-36570000D03*
X184890000Y-35020000D03*
%TD*%
%TO.C,C33*%
X220040000Y-38845000D03*
X220040000Y-37295000D03*
%TD*%
D22*
%TO.C,L16*%
X171636000Y-112212000D03*
X171636000Y-111242000D03*
%TD*%
D32*
%TO.C,IC14*%
X213296000Y-114747000D03*
X213296000Y-115247000D03*
X213296000Y-115747000D03*
X213296000Y-116247000D03*
D33*
X213816000Y-116767000D03*
X214316000Y-116767000D03*
X214816000Y-116767000D03*
X215316000Y-116767000D03*
D32*
X215836000Y-116247000D03*
X215836000Y-115747000D03*
X215836000Y-115247000D03*
X215836000Y-114747000D03*
D33*
X215316000Y-114227000D03*
X214816000Y-114227000D03*
X214316000Y-114227000D03*
X213816000Y-114227000D03*
D34*
X214566000Y-115497000D03*
%TD*%
D20*
%TO.C,J9*%
X165260000Y-42500000D03*
X167160000Y-42500000D03*
D21*
X166210000Y-41700000D03*
X166210000Y-43300000D03*
%TD*%
D25*
%TO.C,R21*%
X183400000Y-34975000D03*
X183400000Y-36625000D03*
%TD*%
D11*
%TO.C,AT4*%
X193806649Y-113747000D03*
X193806649Y-114247000D03*
X193806649Y-114747000D03*
X193806649Y-115247000D03*
D12*
X194506649Y-115947000D03*
X195006649Y-115947000D03*
X195506649Y-115947000D03*
X196006649Y-115947000D03*
D11*
X196706649Y-115247000D03*
X196706649Y-114747000D03*
X196706649Y-114247000D03*
X196706649Y-113747000D03*
D12*
X196006649Y-113047000D03*
X195506649Y-113047000D03*
X195006649Y-113047000D03*
X194506649Y-113047000D03*
D34*
X195256649Y-114497000D03*
%TD*%
D25*
%TO.C,R63*%
X214846000Y-110222000D03*
X214846000Y-111872000D03*
%TD*%
D41*
%TO.C,IC6*%
X91680000Y-95080000D03*
X92630000Y-95080000D03*
X93580000Y-95080000D03*
X93580000Y-92580000D03*
X91680000Y-92580000D03*
%TD*%
D20*
%TO.C,J17*%
X204483000Y-66763000D03*
X206383000Y-66763000D03*
D21*
X205433000Y-65963000D03*
X205433000Y-67563000D03*
%TD*%
D16*
%TO.C,C104*%
X217536000Y-115747000D03*
X218496000Y-115747000D03*
%TD*%
D15*
%TO.C,C41*%
X178899000Y-59275000D03*
X178899000Y-60825000D03*
%TD*%
D16*
%TO.C,C74*%
X210617000Y-90996999D03*
X211577000Y-90996999D03*
%TD*%
D15*
%TO.C,C106*%
X210911000Y-37588000D03*
X210911000Y-39138000D03*
%TD*%
D14*
%TO.C,C66*%
X182502000Y-88051999D03*
X182502000Y-86501999D03*
%TD*%
D22*
%TO.C,L27*%
X210117000Y-96331999D03*
X210117000Y-95361999D03*
%TD*%
D27*
%TO.C,R7*%
X95325000Y-47203489D03*
X93675000Y-47203489D03*
%TD*%
D17*
%TO.C,R36*%
X201399000Y-62575000D03*
X201399000Y-60925000D03*
%TD*%
D11*
%TO.C,IC1*%
X127100000Y-78865000D03*
X127100000Y-79375000D03*
X127100000Y-79885000D03*
D12*
X128040000Y-80825000D03*
X128550000Y-80825000D03*
X129060000Y-80825000D03*
D11*
X130000000Y-79885000D03*
X130000000Y-79375000D03*
X130000000Y-78865000D03*
D12*
X129060000Y-77925000D03*
X128550000Y-77925000D03*
X128040000Y-77925000D03*
D36*
X128550000Y-79375000D03*
%TD*%
D14*
%TO.C,C24*%
X192400000Y-39675000D03*
X192400000Y-38125000D03*
%TD*%
D17*
%TO.C,R47*%
X198397000Y-86821999D03*
X198397000Y-85171999D03*
%TD*%
D37*
%TO.C,C11*%
X94050000Y-108390000D03*
X97000000Y-108390000D03*
%TD*%
D19*
%TO.C,R15*%
X92180000Y-123420000D03*
X93830000Y-123420000D03*
%TD*%
D22*
%TO.C,L13*%
X171640000Y-39465000D03*
X171640000Y-38495000D03*
%TD*%
D15*
%TO.C,C55*%
X213349000Y-61760000D03*
X213349000Y-63310000D03*
%TD*%
D11*
%TO.C,AT1*%
X193810649Y-41000000D03*
X193810649Y-41500000D03*
X193810649Y-42000000D03*
X193810649Y-42500000D03*
D12*
X194510649Y-43200000D03*
X195010649Y-43200000D03*
X195510649Y-43200000D03*
X196010649Y-43200000D03*
D11*
X196710649Y-42500000D03*
X196710649Y-42000000D03*
X196710649Y-41500000D03*
X196710649Y-41000000D03*
D12*
X196010649Y-40300000D03*
X195510649Y-40300000D03*
X195010649Y-40300000D03*
X194510649Y-40300000D03*
D34*
X195260649Y-41750000D03*
%TD*%
M02*
