M48
; DRILL file {KiCad 9.0.4} date 2025-11-03T21:40:55-0600
; FORMAT={-:-/ absolute / metric / decimal}
; #@! TF.CreationDate,2025-11-03T21:40:55-06:00
; #@! TF.GenerationSoftware,Kicad,Pcbnew,9.0.4
; #@! TF.FileFunction,MixedPlating,1,4
FMAT,2
METRIC
; #@! TA.AperFunction,Plated,PTH,ViaDrill
T1C0.300
; #@! TA.AperFunction,Plated,PTH,ComponentDrill
T2C1.000
%
G90
G05
T1
X83.162Y-83.807
X83.188Y-75.124
X84.013Y-83.807
X84.038Y-75.124
X84.862Y-83.807
X84.888Y-75.124
X85.712Y-83.807
X85.738Y-75.124
X86.562Y-83.807
X86.588Y-75.124
X90.4Y-103.4
X90.4Y-104.2
X90.4Y-105.0
X90.4Y-105.8
X91.2Y-103.4
X91.2Y-104.2
X91.2Y-105.0
X91.2Y-105.8
X91.75Y-90.75
X92.3Y-107.1
X92.9Y-118.95
X93.425Y-113.15
X93.675Y-41.307
X93.675Y-42.781
X93.675Y-44.255
X93.675Y-45.729
X93.675Y-47.203
X93.675Y-48.678
X93.675Y-50.152
X93.725Y-51.626
X93.725Y-53.1
X94.0Y-96.75
X94.26Y-120.825
X94.9Y-103.6
X95.275Y-53.1
X110.45Y-42.62
X110.47Y-45.12
X110.47Y-46.37
X128.55Y-79.375
X148.55Y-55.125
X148.55Y-103.625
X168.4Y-37.825
X168.4Y-39.375
X168.4Y-62.075
X168.4Y-62.075
X168.4Y-63.625
X168.4Y-63.625
X168.4Y-86.325
X168.4Y-86.325
X168.4Y-87.875
X168.4Y-87.875
X168.4Y-110.575
X168.4Y-110.575
X168.4Y-112.125
X168.4Y-112.125
X169.9Y-37.825
X169.9Y-62.075
X169.9Y-62.075
X169.9Y-86.325
X169.9Y-86.325
X169.9Y-110.575
X169.9Y-110.575
X171.4Y-38.725
X171.4Y-40.275
X171.4Y-62.975
X171.4Y-62.975
X171.4Y-64.525
X171.4Y-64.525
X171.4Y-87.225
X171.4Y-87.225
X171.4Y-88.775
X171.4Y-88.775
X171.4Y-111.475
X171.4Y-111.475
X171.4Y-113.025
X171.4Y-113.025
X172.9Y-38.725
X172.9Y-62.975
X172.9Y-87.225
X172.9Y-87.225
X172.9Y-111.475
X172.9Y-111.475
X174.4Y-35.975
X174.4Y-60.225
X174.4Y-60.225
X174.4Y-84.475
X174.4Y-84.475
X174.4Y-108.725
X174.4Y-108.725
X175.47Y-40.95
X175.47Y-41.75
X175.47Y-42.55
X175.47Y-65.2
X175.47Y-66.0
X175.47Y-66.8
X175.47Y-89.45
X175.47Y-90.25
X175.47Y-91.05
X175.47Y-113.7
X175.47Y-113.7
X175.47Y-114.5
X175.47Y-114.5
X175.47Y-115.3
X175.47Y-115.3
X175.9Y-36.025
X175.9Y-60.275
X175.9Y-60.275
X175.9Y-84.525
X175.9Y-84.525
X175.9Y-108.775
X175.9Y-108.775
X176.27Y-40.95
X176.27Y-41.75
X176.27Y-42.55
X176.27Y-65.2
X176.27Y-66.0
X176.27Y-66.8
X176.27Y-89.45
X176.27Y-90.25
X176.27Y-91.05
X176.27Y-113.7
X176.27Y-113.7
X176.27Y-114.5
X176.27Y-114.5
X176.27Y-115.3
X176.27Y-115.3
X177.07Y-40.95
X177.07Y-41.75
X177.07Y-42.55
X177.07Y-65.2
X177.07Y-66.0
X177.07Y-66.8
X177.07Y-89.45
X177.07Y-90.25
X177.07Y-91.05
X177.07Y-113.7
X177.07Y-113.7
X177.07Y-114.5
X177.07Y-114.5
X177.07Y-115.3
X177.07Y-115.3
X177.4Y-35.975
X177.4Y-60.225
X177.4Y-60.225
X177.4Y-84.475
X177.4Y-84.475
X177.4Y-108.725
X177.4Y-108.725
X180.4Y-35.975
X180.4Y-60.225
X180.4Y-60.225
X180.4Y-84.475
X180.4Y-84.475
X180.4Y-108.725
X180.4Y-108.725
X180.6Y-39.025
X180.6Y-40.575
X180.6Y-63.275
X180.6Y-64.825
X180.6Y-64.825
X180.6Y-87.525
X180.6Y-89.075
X180.6Y-89.075
X180.6Y-111.775
X180.6Y-113.325
X180.6Y-113.325
X181.9Y-36.025
X181.9Y-60.275
X181.9Y-60.275
X181.9Y-84.525
X181.9Y-84.525
X181.9Y-108.775
X181.9Y-108.775
X182.1Y-40.575
X182.1Y-64.825
X182.1Y-64.825
X182.1Y-89.075
X182.1Y-89.075
X182.1Y-113.325
X182.1Y-113.325
X183.4Y-35.975
X183.4Y-60.225
X183.4Y-60.225
X183.4Y-84.475
X183.4Y-84.475
X183.4Y-108.725
X183.4Y-108.725
X184.9Y-36.025
X184.9Y-60.275
X184.9Y-60.275
X184.9Y-84.525
X184.9Y-84.525
X184.9Y-108.775
X184.9Y-108.775
X190.9Y-39.125
X190.9Y-40.675
X190.9Y-63.375
X190.9Y-63.375
X190.9Y-64.925
X190.9Y-64.925
X190.9Y-87.625
X190.9Y-87.625
X190.9Y-89.175
X190.9Y-89.175
X190.9Y-111.875
X190.9Y-111.875
X190.9Y-113.425
X190.9Y-113.425
X192.4Y-39.125
X192.4Y-63.375
X192.4Y-63.375
X192.4Y-87.625
X192.4Y-87.625
X192.4Y-111.875
X192.4Y-111.875
X194.861Y-41.35
X194.861Y-42.15
X194.861Y-65.6
X194.861Y-65.6
X194.861Y-66.4
X194.861Y-66.4
X194.861Y-89.85
X194.861Y-89.85
X194.861Y-90.65
X194.861Y-90.65
X194.861Y-114.1
X194.861Y-114.1
X194.861Y-114.9
X194.861Y-114.9
X195.4Y-36.675
X195.4Y-60.925
X195.4Y-60.925
X195.4Y-85.175
X195.4Y-85.175
X195.4Y-109.425
X195.4Y-109.425
X195.661Y-41.35
X195.661Y-42.15
X195.661Y-65.6
X195.661Y-65.6
X195.661Y-66.4
X195.661Y-66.4
X195.661Y-89.85
X195.661Y-89.85
X195.661Y-90.65
X195.661Y-90.65
X195.661Y-114.1
X195.661Y-114.1
X195.661Y-114.9
X195.661Y-114.9
X196.9Y-36.725
X196.9Y-60.975
X196.9Y-60.975
X196.9Y-85.225
X196.9Y-85.225
X196.9Y-109.475
X196.9Y-109.475
X198.4Y-36.675
X198.4Y-60.925
X198.4Y-60.925
X198.4Y-85.175
X198.4Y-85.175
X198.4Y-109.425
X198.4Y-109.425
X201.4Y-36.675
X201.4Y-60.925
X201.4Y-60.925
X201.4Y-85.175
X201.4Y-85.175
X201.4Y-109.425
X201.4Y-109.425
X202.9Y-36.725
X202.9Y-60.975
X202.9Y-60.975
X202.9Y-85.225
X202.9Y-85.225
X202.9Y-109.475
X202.9Y-109.475
X208.31Y-37.925
X208.31Y-62.175
X208.31Y-62.175
X208.31Y-86.425
X208.31Y-86.425
X208.31Y-110.675
X208.31Y-110.675
X209.8Y-46.025
X209.8Y-47.575
X209.8Y-70.275
X209.8Y-70.275
X209.8Y-71.825
X209.8Y-71.825
X209.8Y-94.525
X209.8Y-94.525
X209.8Y-96.075
X209.8Y-96.075
X209.8Y-118.775
X209.8Y-118.775
X209.8Y-120.325
X209.8Y-120.325
X209.81Y-37.925
X209.81Y-62.175
X209.81Y-62.175
X209.81Y-86.425
X209.81Y-86.425
X209.81Y-110.675
X209.81Y-110.675
X211.29Y-37.875
X211.29Y-62.125
X211.29Y-62.125
X211.29Y-86.375
X211.29Y-86.375
X211.29Y-110.625
X211.29Y-110.625
X211.3Y-46.025
X211.3Y-70.275
X211.3Y-70.275
X211.3Y-94.525
X211.3Y-94.525
X211.3Y-118.775
X211.3Y-118.775
X212.8Y-47.625
X212.8Y-71.875
X212.8Y-96.125
X212.8Y-120.375
X212.8Y-120.375
X213.35Y-39.06
X213.35Y-63.31
X213.35Y-63.31
X213.35Y-87.56
X213.35Y-87.56
X213.35Y-111.81
X213.35Y-111.81
X214.17Y-42.35
X214.17Y-43.15
X214.17Y-66.6
X214.17Y-66.6
X214.17Y-67.4
X214.17Y-67.4
X214.17Y-90.85
X214.17Y-90.85
X214.17Y-91.65
X214.17Y-91.65
X214.17Y-115.1
X214.17Y-115.1
X214.17Y-115.9
X214.17Y-115.9
X214.85Y-34.5
X214.85Y-58.75
X214.85Y-58.75
X214.85Y-83.0
X214.85Y-83.0
X214.85Y-107.25
X214.85Y-107.25
X214.97Y-42.35
X214.97Y-43.15
X214.97Y-66.6
X214.97Y-66.6
X214.97Y-67.4
X214.97Y-67.4
X214.97Y-90.85
X214.97Y-90.85
X214.97Y-91.65
X214.97Y-91.65
X214.97Y-115.1
X214.97Y-115.1
X214.97Y-115.9
X214.97Y-115.9
X216.35Y-39.06
X216.35Y-63.31
X216.35Y-63.31
X216.35Y-87.56
X216.35Y-87.56
X216.35Y-111.81
X216.35Y-111.81
X218.55Y-37.225
X218.55Y-61.475
X218.55Y-61.475
X218.55Y-85.725
X218.55Y-85.725
X218.55Y-109.975
X218.55Y-109.975
X220.05Y-37.275
X220.05Y-61.525
X220.05Y-61.525
X220.05Y-85.775
X220.05Y-85.775
X220.05Y-110.025
X220.05Y-110.025
X221.55Y-37.275
X221.55Y-61.525
X221.55Y-61.525
X221.55Y-85.775
X221.55Y-85.775
X221.55Y-110.025
X221.55Y-110.025
X225.7Y-47.25
X225.7Y-71.5
X225.7Y-71.5
X225.7Y-95.75
X225.7Y-95.75
X225.7Y-120.0
X225.7Y-120.0
X225.71Y-38.75
X225.71Y-63.0
X225.71Y-63.0
X225.71Y-87.25
X225.71Y-87.25
X225.71Y-111.5
X225.71Y-111.5
X226.55Y-47.25
X226.55Y-71.5
X226.55Y-71.5
X226.55Y-95.75
X226.55Y-95.75
X226.55Y-120.0
X226.55Y-120.0
X226.56Y-38.75
X226.56Y-63.0
X226.56Y-63.0
X226.56Y-87.25
X226.56Y-87.25
X226.56Y-111.5
X226.56Y-111.5
X227.4Y-47.25
X227.4Y-71.5
X227.4Y-71.5
X227.4Y-95.75
X227.4Y-95.75
X227.4Y-120.0
X227.4Y-120.0
X227.41Y-38.75
X227.41Y-63.0
X227.41Y-63.0
X227.41Y-87.25
X227.41Y-87.25
X227.41Y-111.5
X227.41Y-111.5
X228.25Y-47.25
X228.25Y-71.5
X228.25Y-71.5
X228.25Y-95.75
X228.25Y-95.75
X228.25Y-120.0
X228.25Y-120.0
X228.26Y-38.75
X228.26Y-63.0
X228.26Y-63.0
X228.26Y-87.25
X228.26Y-87.25
X228.26Y-111.5
X228.26Y-111.5
X229.1Y-47.25
X229.1Y-71.5
X229.1Y-71.5
X229.1Y-95.75
X229.1Y-95.75
X229.1Y-120.0
X229.1Y-120.0
X229.11Y-38.75
X229.11Y-63.0
X229.11Y-63.0
X229.11Y-87.25
X229.11Y-87.25
X229.11Y-111.5
X229.11Y-111.5
T2
X84.935Y-35.99
X84.935Y-38.53
X84.935Y-41.07
X84.935Y-43.61
X84.935Y-46.15
X84.935Y-48.69
X84.935Y-51.23
X84.935Y-53.77
X85.2Y-105.6
X85.2Y-108.14
X85.2Y-110.68
X87.475Y-35.99
X87.475Y-38.53
X87.475Y-41.07
X87.475Y-43.61
X87.475Y-46.15
X87.475Y-48.69
X87.475Y-51.23
X87.475Y-53.77
X96.28Y-92.92
X96.28Y-121.92
X110.5Y-33.21
X110.5Y-35.75
X113.04Y-33.21
X113.04Y-35.75
X115.58Y-33.21
X115.58Y-35.75
X118.12Y-33.21
X118.12Y-35.75
X120.66Y-33.21
X120.66Y-35.75
X123.2Y-33.21
X123.2Y-35.75
X125.74Y-33.21
X125.74Y-35.75
X127.28Y-92.92
X127.28Y-121.92
X128.28Y-33.21
X128.28Y-35.75
X130.82Y-33.21
X130.82Y-35.75
X133.36Y-33.21
X133.36Y-35.75
X135.9Y-33.21
X135.9Y-35.75
X138.44Y-33.21
X138.44Y-35.75
M30
