%TF.GenerationSoftware,KiCad,Pcbnew,9.0.4*%
%TF.CreationDate,2025-11-03T21:40:28-06:00*%
%TF.ProjectId,TX_Board,54585f42-6f61-4726-942e-6b696361645f,rev?*%
%TF.SameCoordinates,Original*%
%TF.FileFunction,Soldermask,Top*%
%TF.FilePolarity,Negative*%
%FSLAX46Y46*%
G04 Gerber Fmt 4.6, Leading zero omitted, Abs format (unit mm)*
G04 Created by KiCad (PCBNEW 9.0.4) date 2025-11-03 21:40:28*
%MOMM*%
%LPD*%
G01*
G04 APERTURE LIST*
G04 Aperture macros list*
%AMRoundRect*
0 Rectangle with rounded corners*
0 $1 Rounding radius*
0 $2 $3 $4 $5 $6 $7 $8 $9 X,Y pos of 4 corners*
0 Add a 4 corners polygon primitive as box body*
4,1,4,$2,$3,$4,$5,$6,$7,$8,$9,$2,$3,0*
0 Add four circle primitives for the rounded corners*
1,1,$1+$1,$2,$3*
1,1,$1+$1,$4,$5*
1,1,$1+$1,$6,$7*
1,1,$1+$1,$8,$9*
0 Add four rect primitives between the rounded corners*
20,1,$1+$1,$2,$3,$4,$5,0*
20,1,$1+$1,$4,$5,$6,$7,0*
20,1,$1+$1,$6,$7,$8,$9,0*
20,1,$1+$1,$8,$9,$2,$3,0*%
G04 Aperture macros list end*
%ADD10C,0.301600*%
%ADD11C,0.200000*%
%ADD12C,0.390000*%
%ADD13RoundRect,0.250400X0.275400X-0.250400X0.275400X0.250400X-0.275400X0.250400X-0.275400X-0.250400X0*%
%ADD14RoundRect,0.250400X-0.275400X0.250400X-0.275400X-0.250400X0.275400X-0.250400X0.275400X0.250400X0*%
%ADD15RoundRect,0.165400X-0.165400X-0.195400X0.165400X-0.195400X0.165400X0.195400X-0.165400X0.195400X0*%
%ADD16RoundRect,0.225400X-0.300400X0.225400X-0.300400X-0.225400X0.300400X-0.225400X0.300400X0.225400X0*%
%ADD17RoundRect,0.225400X0.300400X-0.225400X0.300400X0.225400X-0.300400X0.225400X-0.300400X-0.225400X0*%
%ADD18RoundRect,0.125400X-0.155400X-0.125400X0.155400X-0.125400X0.155400X0.125400X-0.155400X0.125400X0*%
%ADD19RoundRect,0.050800X0.200000X0.250000X-0.200000X0.250000X-0.200000X-0.250000X0.200000X-0.250000X0*%
%ADD20RoundRect,0.050800X0.550000X-0.350000X0.550000X0.350000X-0.550000X0.350000X-0.550000X-0.350000X0*%
%ADD21RoundRect,0.050800X2.540000X-0.750000X2.540000X0.750000X-2.540000X0.750000X-2.540000X-0.750000X0*%
%ADD22RoundRect,0.250400X0.250400X0.275400X-0.250400X0.275400X-0.250400X-0.275400X0.250400X-0.275400X0*%
%ADD23RoundRect,0.250400X-0.250400X-0.275400X0.250400X-0.275400X0.250400X0.275400X-0.250400X0.275400X0*%
%ADD24RoundRect,0.050800X0.425000X-0.150000X0.425000X0.150000X-0.425000X0.150000X-0.425000X-0.150000X0*%
%ADD25RoundRect,0.050800X-0.150000X-0.425000X0.150000X-0.425000X0.150000X0.425000X-0.150000X0.425000X0*%
%ADD26RoundRect,0.050800X-0.850000X-0.850000X0.850000X-0.850000X0.850000X0.850000X-0.850000X0.850000X0*%
%ADD27RoundRect,0.125400X0.155400X0.125400X-0.155400X0.125400X-0.155400X-0.125400X0.155400X-0.125400X0*%
%ADD28RoundRect,0.225400X0.225400X0.300400X-0.225400X0.300400X-0.225400X-0.300400X0.225400X-0.300400X0*%
%ADD29RoundRect,0.050800X0.400000X-0.150000X0.400000X0.150000X-0.400000X0.150000X-0.400000X-0.150000X0*%
%ADD30RoundRect,0.050800X-0.900000X-1.700000X0.900000X-1.700000X0.900000X1.700000X-0.900000X1.700000X0*%
%ADD31RoundRect,0.244150X0.281650X-0.244150X0.281650X0.244150X-0.281650X0.244150X-0.281650X-0.244150X0*%
%ADD32RoundRect,0.050800X0.150000X-0.125000X0.150000X0.125000X-0.150000X0.125000X-0.150000X-0.125000X0*%
%ADD33RoundRect,0.050800X-0.125000X-0.150000X0.125000X-0.150000X0.125000X0.150000X-0.125000X0.150000X0*%
%ADD34RoundRect,0.050800X-0.725000X-0.725000X0.725000X-0.725000X0.725000X0.725000X-0.725000X0.725000X0*%
%ADD35RoundRect,0.272087X-0.353713X-0.678713X0.353713X-0.678713X0.353713X0.678713X-0.353713X0.678713X0*%
%ADD36RoundRect,0.272087X0.353713X0.678713X-0.353713X0.678713X-0.353713X-0.678713X0.353713X-0.678713X0*%
%ADD37RoundRect,0.050800X-1.275000X-1.275000X1.275000X-1.275000X1.275000X1.275000X-1.275000X1.275000X0*%
%ADD38RoundRect,0.050800X0.850000X-0.850000X0.850000X0.850000X-0.850000X0.850000X-0.850000X-0.850000X0*%
%ADD39C,1.801600*%
%ADD40RoundRect,0.050800X0.870699X0.279000X-0.870699X0.279000X-0.870699X-0.279000X0.870699X-0.279000X0*%
%ADD41RoundRect,0.050800X-2.540000X0.750000X-2.540000X-0.750000X2.540000X-0.750000X2.540000X0.750000X0*%
%ADD42RoundRect,0.050800X0.850000X0.850000X-0.850000X0.850000X-0.850000X-0.850000X0.850000X-0.850000X0*%
%ADD43RoundRect,0.050800X0.300000X0.625000X-0.300000X0.625000X-0.300000X-0.625000X0.300000X-0.625000X0*%
%ADD44C,0.491600*%
G04 APERTURE END LIST*
D10*
X179035921Y-115335999D02*
X178263000Y-115251777D01*
X179036062Y-115156128D01*
X179035921Y-115335999D01*
G36*
X179035921Y-115335999D02*
G01*
X178263000Y-115251777D01*
X179036062Y-115156128D01*
X179035921Y-115335999D01*
G37*
X216270000Y-43090000D02*
X215790000Y-43004660D01*
X216270000Y-42910000D01*
X216270000Y-43090000D01*
G36*
X216270000Y-43090000D02*
G01*
X215790000Y-43004660D01*
X216270000Y-42910000D01*
X216270000Y-43090000D01*
G37*
D11*
X150909421Y-55718206D02*
X149966000Y-55641000D01*
X150910367Y-55533194D01*
X150909421Y-55718206D01*
G36*
X150909421Y-55718206D02*
G01*
X149966000Y-55641000D01*
X150910367Y-55533194D01*
X150909421Y-55718206D01*
G37*
X130888437Y-79970691D02*
X129907000Y-79894000D01*
X130889383Y-79785679D01*
X130888437Y-79970691D01*
G36*
X130888437Y-79970691D02*
G01*
X129907000Y-79894000D01*
X130889383Y-79785679D01*
X130888437Y-79970691D01*
G37*
D10*
X216270000Y-115840000D02*
X215790000Y-115754660D01*
X216270000Y-115660000D01*
X216270000Y-115840000D01*
G36*
X216270000Y-115840000D02*
G01*
X215790000Y-115754660D01*
X216270000Y-115660000D01*
X216270000Y-115840000D01*
G37*
X193900000Y-42500000D02*
X192881873Y-42591121D01*
X192881873Y-42409011D01*
X193900000Y-42500000D01*
G36*
X193900000Y-42500000D02*
G01*
X192881873Y-42591121D01*
X192881873Y-42409011D01*
X193900000Y-42500000D01*
G37*
X179035921Y-42585999D02*
X178263000Y-42501777D01*
X179036062Y-42406128D01*
X179035921Y-42585999D01*
G36*
X179035921Y-42585999D02*
G01*
X178263000Y-42501777D01*
X179036062Y-42406128D01*
X179035921Y-42585999D01*
G37*
X179035921Y-66835999D02*
X178263000Y-66751777D01*
X179036062Y-66656128D01*
X179035921Y-66835999D01*
G36*
X179035921Y-66835999D02*
G01*
X178263000Y-66751777D01*
X179036062Y-66656128D01*
X179035921Y-66835999D01*
G37*
D11*
X174152062Y-90984351D02*
X173379000Y-91080000D01*
X173379141Y-90900129D01*
X174152062Y-90984351D01*
G36*
X174152062Y-90984351D02*
G01*
X173379000Y-91080000D01*
X173379141Y-90900129D01*
X174152062Y-90984351D01*
G37*
D10*
X216270000Y-67340000D02*
X215790000Y-67254660D01*
X216270000Y-67160000D01*
X216270000Y-67340000D01*
G36*
X216270000Y-67340000D02*
G01*
X215790000Y-67254660D01*
X216270000Y-67160000D01*
X216270000Y-67340000D01*
G37*
D11*
X147247000Y-103643000D02*
X146176383Y-103701691D01*
X146177329Y-103516679D01*
X147247000Y-103643000D01*
G36*
X147247000Y-103643000D02*
G01*
X146176383Y-103701691D01*
X146177329Y-103516679D01*
X147247000Y-103643000D01*
G37*
D10*
X213353062Y-115245340D02*
X212940000Y-115340000D01*
X212940000Y-115160000D01*
X213353062Y-115245340D01*
G36*
X213353062Y-115245340D02*
G01*
X212940000Y-115340000D01*
X212940000Y-115160000D01*
X213353062Y-115245340D01*
G37*
X197564184Y-115345340D02*
X196665223Y-115256450D01*
X197564184Y-115170000D01*
X197564184Y-115345340D01*
G36*
X197564184Y-115345340D02*
G01*
X196665223Y-115256450D01*
X197564184Y-115170000D01*
X197564184Y-115345340D01*
G37*
D11*
X130878000Y-78962000D02*
X129839000Y-78865000D01*
X130882383Y-78774679D01*
X130878000Y-78962000D01*
G36*
X130878000Y-78962000D02*
G01*
X129839000Y-78865000D01*
X130882383Y-78774679D01*
X130878000Y-78962000D01*
G37*
D10*
X216270000Y-91590000D02*
X215790000Y-91504660D01*
X216270000Y-91410000D01*
X216270000Y-91590000D01*
G36*
X216270000Y-91590000D02*
G01*
X215790000Y-91504660D01*
X216270000Y-91410000D01*
X216270000Y-91590000D01*
G37*
X179035921Y-91085999D02*
X178263000Y-91001777D01*
X179036062Y-90906128D01*
X179035921Y-91085999D01*
G36*
X179035921Y-91085999D02*
G01*
X178263000Y-91001777D01*
X179036062Y-90906128D01*
X179035921Y-91085999D01*
G37*
X213353062Y-66745340D02*
X212940000Y-66840000D01*
X212940000Y-66660000D01*
X213353062Y-66745340D01*
G36*
X213353062Y-66745340D02*
G01*
X212940000Y-66840000D01*
X212940000Y-66660000D01*
X213353062Y-66745340D01*
G37*
D11*
X174418000Y-66768000D02*
X173345044Y-66817240D01*
X173345185Y-66637369D01*
X174418000Y-66768000D01*
G36*
X174418000Y-66768000D02*
G01*
X173345044Y-66817240D01*
X173345185Y-66637369D01*
X174418000Y-66768000D01*
G37*
D10*
X197564184Y-66845340D02*
X196665223Y-66756450D01*
X197564184Y-66670000D01*
X197564184Y-66845340D01*
G36*
X197564184Y-66845340D02*
G01*
X196665223Y-66756450D01*
X197564184Y-66670000D01*
X197564184Y-66845340D01*
G37*
X213353062Y-90995340D02*
X212940000Y-91090000D01*
X212940000Y-90910000D01*
X213353062Y-90995340D01*
G36*
X213353062Y-90995340D02*
G01*
X212940000Y-91090000D01*
X212940000Y-90910000D01*
X213353062Y-90995340D01*
G37*
D11*
X150845437Y-54708691D02*
X149942000Y-54616000D01*
X150846383Y-54523679D01*
X150845437Y-54708691D01*
G36*
X150845437Y-54708691D02*
G01*
X149942000Y-54616000D01*
X150846383Y-54523679D01*
X150845437Y-54708691D01*
G37*
D10*
X193900000Y-91000000D02*
X192881873Y-91091121D01*
X192881873Y-90909011D01*
X193900000Y-91000000D01*
G36*
X193900000Y-91000000D02*
G01*
X192881873Y-91091121D01*
X192881873Y-90909011D01*
X193900000Y-91000000D01*
G37*
D11*
X174152062Y-42484351D02*
X173379000Y-42580000D01*
X173379141Y-42400129D01*
X174152062Y-42484351D01*
G36*
X174152062Y-42484351D02*
G01*
X173379000Y-42580000D01*
X173379141Y-42400129D01*
X174152062Y-42484351D01*
G37*
D10*
X197564184Y-91095340D02*
X196665223Y-91006450D01*
X197564184Y-90920000D01*
X197564184Y-91095340D01*
G36*
X197564184Y-91095340D02*
G01*
X196665223Y-91006450D01*
X197564184Y-90920000D01*
X197564184Y-91095340D01*
G37*
X193900000Y-115250000D02*
X192881873Y-115341121D01*
X192881873Y-115159011D01*
X193900000Y-115250000D01*
G36*
X193900000Y-115250000D02*
G01*
X192881873Y-115341121D01*
X192881873Y-115159011D01*
X193900000Y-115250000D01*
G37*
X213353062Y-42495340D02*
X212940000Y-42590000D01*
X212940000Y-42410000D01*
X213353062Y-42495340D01*
G36*
X213353062Y-42495340D02*
G01*
X212940000Y-42590000D01*
X212940000Y-42410000D01*
X213353062Y-42495340D01*
G37*
X197564184Y-42595340D02*
X196665223Y-42506450D01*
X197564184Y-42420000D01*
X197564184Y-42595340D01*
G36*
X197564184Y-42595340D02*
G01*
X196665223Y-42506450D01*
X197564184Y-42420000D01*
X197564184Y-42595340D01*
G37*
D11*
X174152062Y-115234351D02*
X173379000Y-115330000D01*
X173379141Y-115150129D01*
X174152062Y-115234351D01*
G36*
X174152062Y-115234351D02*
G01*
X173379000Y-115330000D01*
X173379141Y-115150129D01*
X174152062Y-115234351D01*
G37*
D10*
X193900000Y-66750000D02*
X192881873Y-66841121D01*
X192881873Y-66659011D01*
X193900000Y-66750000D01*
G36*
X193900000Y-66750000D02*
G01*
X192881873Y-66841121D01*
X192881873Y-66659011D01*
X193900000Y-66750000D01*
G37*
D12*
X161652644Y-66739306D02*
G75*
G02*
X156163659Y-61189670I60956J5549606D01*
G01*
X150920903Y-55624923D02*
G75*
G02*
X156163666Y-61189670I-331903J-5564777D01*
G01*
X157068223Y-48605934D02*
G75*
G02*
X163369822Y-42519665I6089867J84D01*
G01*
X146160000Y-103610000D02*
G75*
G02*
X135644736Y-92838928I134800J10649900D01*
G01*
X157068223Y-48605934D02*
G75*
G02*
X150900000Y-54620009I-6057043J42094D01*
G01*
X161652640Y-115239311D02*
G75*
G02*
X156163654Y-109689675I60960J5549611D01*
G01*
X157068219Y-97105939D02*
G75*
G02*
X150899996Y-103120005I-6057039J42099D01*
G01*
X135640000Y-74130000D02*
G75*
G02*
X130900000Y-78870000I-4740000J0D01*
G01*
X135640000Y-74130000D02*
X135640000Y-65970000D01*
X157068219Y-97105939D02*
G75*
G02*
X163369818Y-91019671I6089871J79D01*
G01*
X150920899Y-104124928D02*
G75*
G02*
X156163661Y-109689675I-331899J-5564772D01*
G01*
X135644780Y-65891072D02*
G75*
G02*
X146160000Y-55119993I10650030J121212D01*
G01*
X130900000Y-79880000D02*
G75*
G02*
X135634803Y-84619997I-5200J-4740000D01*
G01*
D13*
%TO.C,C25*%
X196900000Y-38275000D03*
X196900000Y-36725000D03*
%TD*%
D14*
%TO.C,C27*%
X202900000Y-36725000D03*
X202900000Y-38275000D03*
%TD*%
D15*
%TO.C,C28*%
X210620000Y-42500000D03*
X211580000Y-42500000D03*
%TD*%
D13*
%TO.C,C31*%
X216350000Y-39060000D03*
X216350000Y-37510000D03*
%TD*%
D16*
%TO.C,R46*%
X195400000Y-85175000D03*
X195400000Y-86825000D03*
%TD*%
D14*
%TO.C,C37*%
X171400000Y-62975000D03*
X171400000Y-64525000D03*
%TD*%
D17*
%TO.C,R25*%
X212800000Y-47625000D03*
X212800000Y-45975000D03*
%TD*%
%TO.C,R44*%
X180400000Y-86125000D03*
X180400000Y-84475000D03*
%TD*%
D15*
%TO.C,C74*%
X210620000Y-91000000D03*
X211580000Y-91000000D03*
%TD*%
D13*
%TO.C,C54*%
X216350000Y-63310000D03*
X216350000Y-61760000D03*
%TD*%
D18*
%TO.C,R14*%
X93025000Y-117200000D03*
X93665000Y-117200000D03*
%TD*%
D15*
%TO.C,C35*%
X217540000Y-43000000D03*
X218500000Y-43000000D03*
%TD*%
D13*
%TO.C,C45*%
X184890000Y-61820000D03*
X184890000Y-60270000D03*
%TD*%
D19*
%TO.C,J13*%
X185450000Y-42500000D03*
X187350000Y-42500000D03*
D20*
X186400000Y-41700000D03*
X186400000Y-43300000D03*
%TD*%
D13*
%TO.C,C49*%
X199900000Y-62525000D03*
X199900000Y-60975000D03*
%TD*%
D21*
%TO.C,J24*%
X227400000Y-115750000D03*
X227400000Y-111500000D03*
X227400000Y-120000000D03*
%TD*%
D17*
%TO.C,R56*%
X180400000Y-110375000D03*
X180400000Y-108725000D03*
%TD*%
D22*
%TO.C,C7*%
X91750000Y-90750000D03*
X90200000Y-90750000D03*
%TD*%
D23*
%TO.C,C4*%
X93725000Y-51625872D03*
X95275000Y-51625872D03*
%TD*%
D13*
%TO.C,C30*%
X211300000Y-47575000D03*
X211300000Y-46025000D03*
%TD*%
D24*
%TO.C,AT4*%
X193810649Y-113750000D03*
X193810649Y-114250000D03*
X193810649Y-114750000D03*
X193810649Y-115250000D03*
D25*
X194510649Y-115950000D03*
X195010649Y-115950000D03*
X195510649Y-115950000D03*
X196010649Y-115950000D03*
D24*
X196710649Y-115250000D03*
X196710649Y-114750000D03*
X196710649Y-114250000D03*
X196710649Y-113750000D03*
D25*
X196010649Y-113050000D03*
X195510649Y-113050000D03*
X195010649Y-113050000D03*
X194510649Y-113050000D03*
D26*
X195260649Y-114500000D03*
%TD*%
D27*
%TO.C,R17*%
X93665000Y-120400000D03*
X93025000Y-120400000D03*
%TD*%
D28*
%TO.C,R9*%
X95325000Y-44255233D03*
X93675000Y-44255233D03*
%TD*%
D14*
%TO.C,C106*%
X208310000Y-37925000D03*
X208310000Y-39475000D03*
%TD*%
%TO.C,C62*%
X172900000Y-87225000D03*
X172900000Y-88775000D03*
%TD*%
D13*
%TO.C,C102*%
X220050000Y-111575000D03*
X220050000Y-110025000D03*
%TD*%
D15*
%TO.C,C104*%
X217540000Y-115750000D03*
X218500000Y-115750000D03*
%TD*%
D13*
%TO.C,C15*%
X169900000Y-39375000D03*
X169900000Y-37825000D03*
%TD*%
D26*
%TO.C,J4*%
X127280000Y-92920000D03*
%TD*%
D13*
%TO.C,C76*%
X211300000Y-96075000D03*
X211300000Y-94525000D03*
%TD*%
D14*
%TO.C,C88*%
X181900000Y-108775000D03*
X181900000Y-110325000D03*
%TD*%
%TO.C,C16*%
X172900000Y-38725000D03*
X172900000Y-40275000D03*
%TD*%
D13*
%TO.C,C46*%
X190900000Y-64925000D03*
X190900000Y-63375000D03*
%TD*%
%TO.C,C52*%
X209800000Y-71825000D03*
X209800000Y-70275000D03*
%TD*%
D19*
%TO.C,J10*%
X165275000Y-66750000D03*
X167175000Y-66750000D03*
D20*
X166225000Y-65950000D03*
X166225000Y-67550000D03*
%TD*%
D14*
%TO.C,C111*%
X209810000Y-110675000D03*
X209810000Y-112225000D03*
%TD*%
%TO.C,C43*%
X180600000Y-63275000D03*
X180600000Y-64825000D03*
%TD*%
D19*
%TO.C,J11*%
X165240000Y-91000000D03*
X167140000Y-91000000D03*
D20*
X166190000Y-90200000D03*
X166190000Y-91800000D03*
%TD*%
D29*
%TO.C,IC4*%
X89300000Y-103100000D03*
X89300000Y-103600000D03*
X89300000Y-104100000D03*
X89300000Y-104600000D03*
X89300000Y-105100000D03*
X89300000Y-105600000D03*
X89300000Y-106100000D03*
X92300000Y-106100000D03*
X92300000Y-105600000D03*
X92300000Y-105100000D03*
X92300000Y-104600000D03*
X92300000Y-104100000D03*
X92300000Y-103600000D03*
X92300000Y-103100000D03*
D30*
X90800000Y-104600000D03*
%TD*%
D16*
%TO.C,R19*%
X177400000Y-35975000D03*
X177400000Y-37625000D03*
%TD*%
%TO.C,R33*%
X183400000Y-60225000D03*
X183400000Y-61875000D03*
%TD*%
D14*
%TO.C,C20*%
X180600000Y-39025000D03*
X180600000Y-40575000D03*
%TD*%
D17*
%TO.C,R23*%
X198400000Y-38325000D03*
X198400000Y-36675000D03*
%TD*%
D31*
%TO.C,L3*%
X217900000Y-90337500D03*
X217900000Y-88762500D03*
%TD*%
D17*
%TO.C,R29*%
X218550000Y-38875000D03*
X218550000Y-37225000D03*
%TD*%
D14*
%TO.C,C78*%
X213350000Y-86010000D03*
X213350000Y-87560000D03*
%TD*%
%TO.C,C18*%
X178900000Y-36025000D03*
X178900000Y-37575000D03*
%TD*%
D32*
%TO.C,IC8*%
X213300000Y-42000000D03*
X213300000Y-42500000D03*
X213300000Y-43000000D03*
X213300000Y-43500000D03*
D33*
X213820000Y-44020000D03*
X214320000Y-44020000D03*
X214820000Y-44020000D03*
X215320000Y-44020000D03*
D32*
X215840000Y-43500000D03*
X215840000Y-43000000D03*
X215840000Y-42500000D03*
X215840000Y-42000000D03*
D33*
X215320000Y-41480000D03*
X214820000Y-41480000D03*
X214320000Y-41480000D03*
X213820000Y-41480000D03*
D26*
X214570000Y-42750000D03*
%TD*%
D28*
%TO.C,R6*%
X95325000Y-48677617D03*
X93675000Y-48677617D03*
%TD*%
D13*
%TO.C,C80*%
X221550000Y-87325000D03*
X221550000Y-85775000D03*
%TD*%
D32*
%TO.C,IC10*%
X213300000Y-66250000D03*
X213300000Y-66750000D03*
X213300000Y-67250000D03*
X213300000Y-67750000D03*
D33*
X213820000Y-68270000D03*
X214320000Y-68270000D03*
X214820000Y-68270000D03*
X215320000Y-68270000D03*
D32*
X215840000Y-67750000D03*
X215840000Y-67250000D03*
X215840000Y-66750000D03*
X215840000Y-66250000D03*
D33*
X215320000Y-65730000D03*
X214820000Y-65730000D03*
X214320000Y-65730000D03*
X213820000Y-65730000D03*
D26*
X214570000Y-67000000D03*
%TD*%
D14*
%TO.C,C19*%
X181900000Y-36025000D03*
X181900000Y-37575000D03*
%TD*%
D17*
%TO.C,R59*%
X198400000Y-111075000D03*
X198400000Y-109425000D03*
%TD*%
D16*
%TO.C,R27*%
X214850000Y-37475000D03*
X214850000Y-39125000D03*
%TD*%
D24*
%TO.C,IC3*%
X147100000Y-54615000D03*
X147100000Y-55125000D03*
X147100000Y-55635000D03*
D25*
X148040000Y-56575000D03*
X148550000Y-56575000D03*
X149060000Y-56575000D03*
D24*
X150000000Y-55635000D03*
X150000000Y-55125000D03*
X150000000Y-54615000D03*
D25*
X149060000Y-53675000D03*
X148550000Y-53675000D03*
X148040000Y-53675000D03*
D34*
X148550000Y-55125000D03*
%TD*%
D14*
%TO.C,C64*%
X178900000Y-84525000D03*
X178900000Y-86075000D03*
%TD*%
D13*
%TO.C,C57*%
X221550000Y-63075000D03*
X221550000Y-61525000D03*
%TD*%
%TO.C,C13*%
X168400000Y-39375000D03*
X168400000Y-37825000D03*
%TD*%
%TO.C,C72*%
X199900000Y-86775000D03*
X199900000Y-85225000D03*
%TD*%
D27*
%TO.C,R16*%
X94670000Y-104950000D03*
X94030000Y-104950000D03*
%TD*%
D26*
%TO.C,J3*%
X96280000Y-121920000D03*
%TD*%
D14*
%TO.C,C42*%
X181900000Y-60275000D03*
X181900000Y-61825000D03*
%TD*%
D35*
%TO.C,C3*%
X85650000Y-115200000D03*
X88600000Y-115200000D03*
%TD*%
D13*
%TO.C,C23*%
X190900000Y-40675000D03*
X190900000Y-39125000D03*
%TD*%
D31*
%TO.C,L2*%
X217900000Y-66087500D03*
X217900000Y-64512500D03*
%TD*%
D14*
%TO.C,C85*%
X172900000Y-111475000D03*
X172900000Y-113025000D03*
%TD*%
%TO.C,C41*%
X178900000Y-60275000D03*
X178900000Y-61825000D03*
%TD*%
D36*
%TO.C,C6*%
X96950000Y-101425000D03*
X94000000Y-101425000D03*
%TD*%
D28*
%TO.C,R11*%
X95325000Y-41306978D03*
X93675000Y-41306978D03*
%TD*%
%TO.C,R8*%
X95325000Y-45729361D03*
X93675000Y-45729361D03*
%TD*%
D13*
%TO.C,C17*%
X175900000Y-37575000D03*
X175900000Y-36025000D03*
%TD*%
D21*
%TO.C,J21*%
X227400000Y-91500000D03*
X227400000Y-87250000D03*
X227400000Y-95750000D03*
%TD*%
D24*
%TO.C,IC2*%
X147100000Y-103115000D03*
X147100000Y-103625000D03*
X147100000Y-104135000D03*
D25*
X148040000Y-105075000D03*
X148550000Y-105075000D03*
X149060000Y-105075000D03*
D24*
X150000000Y-104135000D03*
X150000000Y-103625000D03*
X150000000Y-103115000D03*
D25*
X149060000Y-102175000D03*
X148550000Y-102175000D03*
X148040000Y-102175000D03*
D34*
X148550000Y-103625000D03*
%TD*%
D14*
%TO.C,C83*%
X171400000Y-111475000D03*
X171400000Y-113025000D03*
%TD*%
D24*
%TO.C,IC13*%
X174320000Y-113250000D03*
X174320000Y-113750000D03*
X174320000Y-114250000D03*
X174320000Y-114750000D03*
X174320000Y-115250000D03*
X174320000Y-115750000D03*
D25*
X175020000Y-116450000D03*
X175520000Y-116450000D03*
X176020000Y-116450000D03*
X176520000Y-116450000D03*
X177020000Y-116450000D03*
X177520000Y-116450000D03*
D24*
X178220000Y-115750000D03*
X178220000Y-115250000D03*
X178220000Y-114750000D03*
X178220000Y-114250000D03*
X178220000Y-113750000D03*
X178220000Y-113250000D03*
D25*
X177520000Y-112550000D03*
X177020000Y-112550000D03*
X176520000Y-112550000D03*
X176020000Y-112550000D03*
X175520000Y-112550000D03*
X175020000Y-112550000D03*
D37*
X176270000Y-114500000D03*
%TD*%
D17*
%TO.C,R53*%
X218550000Y-87375000D03*
X218550000Y-85725000D03*
%TD*%
D16*
%TO.C,R51*%
X214850000Y-85975000D03*
X214850000Y-87625000D03*
%TD*%
D36*
%TO.C,C8*%
X96950000Y-99000000D03*
X94000000Y-99000000D03*
%TD*%
D38*
%TO.C,J6*%
X110500000Y-35750000D03*
D39*
X110500000Y-33210000D03*
X113040000Y-35750000D03*
X113040000Y-33210000D03*
X115580000Y-35750000D03*
X115580000Y-33210000D03*
X118120000Y-35750000D03*
X118120000Y-33210000D03*
X120660000Y-35750000D03*
X120660000Y-33210000D03*
X123200000Y-35750000D03*
X123200000Y-33210000D03*
X125740000Y-35750000D03*
X125740000Y-33210000D03*
X128280000Y-35750000D03*
X128280000Y-33210000D03*
X130820000Y-35750000D03*
X130820000Y-33210000D03*
X133360000Y-35750000D03*
X133360000Y-33210000D03*
X135900000Y-35750000D03*
X135900000Y-33210000D03*
X138440000Y-35750000D03*
X138440000Y-33210000D03*
%TD*%
D13*
%TO.C,C99*%
X211300000Y-120325000D03*
X211300000Y-118775000D03*
%TD*%
D28*
%TO.C,R3*%
X110450000Y-42620000D03*
X108800000Y-42620000D03*
%TD*%
D14*
%TO.C,C105*%
X209810000Y-37925000D03*
X209810000Y-39475000D03*
%TD*%
D28*
%TO.C,R2*%
X110450000Y-44836000D03*
X108800000Y-44836000D03*
%TD*%
D13*
%TO.C,C36*%
X168400000Y-63625000D03*
X168400000Y-62075000D03*
%TD*%
%TO.C,C91*%
X184890000Y-110320000D03*
X184890000Y-108770000D03*
%TD*%
%TO.C,C26*%
X199900000Y-38275000D03*
X199900000Y-36725000D03*
%TD*%
D19*
%TO.C,J19*%
X185450000Y-91000000D03*
X187350000Y-91000000D03*
D20*
X186400000Y-90200000D03*
X186400000Y-91800000D03*
%TD*%
D19*
%TO.C,J12*%
X165275000Y-115255000D03*
X167175000Y-115255000D03*
D20*
X166225000Y-114455000D03*
X166225000Y-116055000D03*
%TD*%
D13*
%TO.C,C100*%
X216350000Y-111810000D03*
X216350000Y-110260000D03*
%TD*%
%TO.C,C75*%
X209800000Y-96075000D03*
X209800000Y-94525000D03*
%TD*%
D26*
%TO.C,J2*%
X96280000Y-92920000D03*
%TD*%
D14*
%TO.C,C112*%
X208310000Y-110675000D03*
X208310000Y-112225000D03*
%TD*%
D18*
%TO.C,R12*%
X93425000Y-103600000D03*
X94065000Y-103600000D03*
%TD*%
D35*
%TO.C,C12*%
X94125000Y-118800000D03*
X97075000Y-118800000D03*
%TD*%
D29*
%TO.C,IC5*%
X88900000Y-117300000D03*
X88900000Y-117800000D03*
X88900000Y-118300000D03*
X88900000Y-118800000D03*
X88900000Y-119300000D03*
X88900000Y-119800000D03*
X88900000Y-120300000D03*
X91900000Y-120300000D03*
X91900000Y-119800000D03*
X91900000Y-119300000D03*
X91900000Y-118800000D03*
X91900000Y-118300000D03*
X91900000Y-117800000D03*
X91900000Y-117300000D03*
D30*
X90400000Y-118800000D03*
%TD*%
D13*
%TO.C,C59*%
X168400000Y-87875000D03*
X168400000Y-86325000D03*
%TD*%
%TO.C,C71*%
X196900000Y-86775000D03*
X196900000Y-85225000D03*
%TD*%
D24*
%TO.C,IC11*%
X174320000Y-89000000D03*
X174320000Y-89500000D03*
X174320000Y-90000000D03*
X174320000Y-90500000D03*
X174320000Y-91000000D03*
X174320000Y-91500000D03*
D25*
X175020000Y-92200000D03*
X175520000Y-92200000D03*
X176020000Y-92200000D03*
X176520000Y-92200000D03*
X177020000Y-92200000D03*
X177520000Y-92200000D03*
D24*
X178220000Y-91500000D03*
X178220000Y-91000000D03*
X178220000Y-90500000D03*
X178220000Y-90000000D03*
X178220000Y-89500000D03*
X178220000Y-89000000D03*
D25*
X177520000Y-88300000D03*
X177020000Y-88300000D03*
X176520000Y-88300000D03*
X176020000Y-88300000D03*
X175520000Y-88300000D03*
X175020000Y-88300000D03*
D37*
X176270000Y-90250000D03*
%TD*%
D13*
%TO.C,C53*%
X211300000Y-71825000D03*
X211300000Y-70275000D03*
%TD*%
%TO.C,C44*%
X182100000Y-64825000D03*
X182100000Y-63275000D03*
%TD*%
D14*
%TO.C,C87*%
X178900000Y-108775000D03*
X178900000Y-110325000D03*
%TD*%
D13*
%TO.C,C98*%
X209800000Y-120325000D03*
X209800000Y-118775000D03*
%TD*%
D26*
%TO.C,J7*%
X85200000Y-105600000D03*
D39*
X85200000Y-108140000D03*
X85200000Y-110680000D03*
%TD*%
D26*
%TO.C,J5*%
X127280000Y-121920000D03*
%TD*%
D17*
%TO.C,R61*%
X212800000Y-120375000D03*
X212800000Y-118725000D03*
%TD*%
D32*
%TO.C,IC12*%
X213300000Y-90500000D03*
X213300000Y-91000000D03*
X213300000Y-91500000D03*
X213300000Y-92000000D03*
D33*
X213820000Y-92520000D03*
X214320000Y-92520000D03*
X214820000Y-92520000D03*
X215320000Y-92520000D03*
D32*
X215840000Y-92000000D03*
X215840000Y-91500000D03*
X215840000Y-91000000D03*
X215840000Y-90500000D03*
D33*
X215320000Y-89980000D03*
X214820000Y-89980000D03*
X214320000Y-89980000D03*
X213820000Y-89980000D03*
D26*
X214570000Y-91250000D03*
%TD*%
D19*
%TO.C,J22*%
X185450000Y-115250000D03*
X187350000Y-115250000D03*
D20*
X186400000Y-114450000D03*
X186400000Y-116050000D03*
%TD*%
D14*
%TO.C,C50*%
X202900000Y-60975000D03*
X202900000Y-62525000D03*
%TD*%
D16*
%TO.C,R30*%
X174400000Y-60225000D03*
X174400000Y-61875000D03*
%TD*%
D17*
%TO.C,R49*%
X212800000Y-96125000D03*
X212800000Y-94475000D03*
%TD*%
D16*
%TO.C,R57*%
X183400000Y-108725000D03*
X183400000Y-110375000D03*
%TD*%
D14*
%TO.C,C73*%
X202900000Y-85225000D03*
X202900000Y-86775000D03*
%TD*%
D40*
%TO.C,U1*%
X106281400Y-50145000D03*
X106281400Y-48875000D03*
X106281400Y-47605000D03*
X106281400Y-46335000D03*
X106281400Y-45065000D03*
X106281400Y-43795000D03*
X106281400Y-42525000D03*
X106281400Y-41255000D03*
X99118600Y-41255000D03*
X99118600Y-42525000D03*
X99118600Y-43795000D03*
X99118600Y-45065000D03*
X99118600Y-46335000D03*
X99118600Y-47605000D03*
X99118600Y-48875000D03*
X99118600Y-50145000D03*
%TD*%
D16*
%TO.C,R43*%
X177400000Y-84475000D03*
X177400000Y-86125000D03*
%TD*%
D21*
%TO.C,J15*%
X227400000Y-43000000D03*
X227400000Y-38750000D03*
X227400000Y-47250000D03*
%TD*%
D14*
%TO.C,C32*%
X213350000Y-37510000D03*
X213350000Y-39060000D03*
%TD*%
D17*
%TO.C,R65*%
X218550000Y-111625000D03*
X218550000Y-109975000D03*
%TD*%
D16*
%TO.C,R26*%
X211290000Y-37875000D03*
X211290000Y-39525000D03*
%TD*%
D17*
%TO.C,R41*%
X218550000Y-63125000D03*
X218550000Y-61475000D03*
%TD*%
D41*
%TO.C,J1*%
X84862500Y-79375000D03*
X84862500Y-83625000D03*
X84862500Y-75125000D03*
%TD*%
D13*
%TO.C,C103*%
X221550000Y-111575000D03*
X221550000Y-110025000D03*
%TD*%
D19*
%TO.C,J17*%
X204480000Y-66760000D03*
X206380000Y-66760000D03*
D20*
X205430000Y-65960000D03*
X205430000Y-67560000D03*
%TD*%
D16*
%TO.C,R18*%
X174400000Y-35975000D03*
X174400000Y-37625000D03*
%TD*%
D17*
%TO.C,R20*%
X180400000Y-37625000D03*
X180400000Y-35975000D03*
%TD*%
D16*
%TO.C,R38*%
X211290000Y-62125000D03*
X211290000Y-63775000D03*
%TD*%
D36*
%TO.C,C10*%
X96375000Y-113150000D03*
X93425000Y-113150000D03*
%TD*%
D17*
%TO.C,R35*%
X198400000Y-62575000D03*
X198400000Y-60925000D03*
%TD*%
D13*
%TO.C,C70*%
X192400000Y-89175000D03*
X192400000Y-87625000D03*
%TD*%
D14*
%TO.C,C89*%
X180600000Y-111775000D03*
X180600000Y-113325000D03*
%TD*%
D28*
%TO.C,R1*%
X110470000Y-46370000D03*
X108820000Y-46370000D03*
%TD*%
D23*
%TO.C,C5*%
X93725000Y-53100000D03*
X95275000Y-53100000D03*
%TD*%
D24*
%TO.C,IC7*%
X174320000Y-40500000D03*
X174320000Y-41000000D03*
X174320000Y-41500000D03*
X174320000Y-42000000D03*
X174320000Y-42500000D03*
X174320000Y-43000000D03*
D25*
X175020000Y-43700000D03*
X175520000Y-43700000D03*
X176020000Y-43700000D03*
X176520000Y-43700000D03*
X177020000Y-43700000D03*
X177520000Y-43700000D03*
D24*
X178220000Y-43000000D03*
X178220000Y-42500000D03*
X178220000Y-42000000D03*
X178220000Y-41500000D03*
X178220000Y-41000000D03*
X178220000Y-40500000D03*
D25*
X177520000Y-39800000D03*
X177020000Y-39800000D03*
X176520000Y-39800000D03*
X176020000Y-39800000D03*
X175520000Y-39800000D03*
X175020000Y-39800000D03*
D37*
X176270000Y-41750000D03*
%TD*%
D16*
%TO.C,R58*%
X195400000Y-109425000D03*
X195400000Y-111075000D03*
%TD*%
D13*
%TO.C,C56*%
X220050000Y-63075000D03*
X220050000Y-61525000D03*
%TD*%
D16*
%TO.C,R39*%
X214850000Y-61725000D03*
X214850000Y-63375000D03*
%TD*%
D19*
%TO.C,J20*%
X204480000Y-91010000D03*
X206380000Y-91010000D03*
D20*
X205430000Y-90210000D03*
X205430000Y-91810000D03*
%TD*%
D36*
%TO.C,C1*%
X92200000Y-101000000D03*
X89250000Y-101000000D03*
%TD*%
D13*
%TO.C,C69*%
X190900000Y-89175000D03*
X190900000Y-87625000D03*
%TD*%
D19*
%TO.C,J16*%
X185450000Y-66750000D03*
X187350000Y-66750000D03*
D20*
X186400000Y-65950000D03*
X186400000Y-67550000D03*
%TD*%
D27*
%TO.C,R13*%
X95320000Y-105700000D03*
X94680000Y-105700000D03*
%TD*%
D13*
%TO.C,C21*%
X182100000Y-40575000D03*
X182100000Y-39025000D03*
%TD*%
%TO.C,C29*%
X209800000Y-47575000D03*
X209800000Y-46025000D03*
%TD*%
D28*
%TO.C,R10*%
X95325000Y-42781106D03*
X93675000Y-42781106D03*
%TD*%
D14*
%TO.C,C109*%
X209810000Y-86425000D03*
X209810000Y-87975000D03*
%TD*%
%TO.C,C55*%
X213350000Y-61760000D03*
X213350000Y-63310000D03*
%TD*%
D24*
%TO.C,AT2*%
X193810649Y-65250000D03*
X193810649Y-65750000D03*
X193810649Y-66250000D03*
X193810649Y-66750000D03*
D25*
X194510649Y-67450000D03*
X195010649Y-67450000D03*
X195510649Y-67450000D03*
X196010649Y-67450000D03*
D24*
X196710649Y-66750000D03*
X196710649Y-66250000D03*
X196710649Y-65750000D03*
X196710649Y-65250000D03*
D25*
X196010649Y-64550000D03*
X195510649Y-64550000D03*
X195010649Y-64550000D03*
X194510649Y-64550000D03*
D26*
X195260649Y-66000000D03*
%TD*%
D31*
%TO.C,L1*%
X217900000Y-41837500D03*
X217900000Y-40262500D03*
%TD*%
%TO.C,L4*%
X217900000Y-114587500D03*
X217900000Y-113012500D03*
%TD*%
D13*
%TO.C,C67*%
X182100000Y-89075000D03*
X182100000Y-87525000D03*
%TD*%
D17*
%TO.C,R4*%
X87738000Y-106121000D03*
X87738000Y-104471000D03*
%TD*%
D22*
%TO.C,C2*%
X95550000Y-96750000D03*
X94000000Y-96750000D03*
%TD*%
D13*
%TO.C,C90*%
X182100000Y-113325000D03*
X182100000Y-111775000D03*
%TD*%
D17*
%TO.C,R28*%
X214850000Y-36150000D03*
X214850000Y-34500000D03*
%TD*%
D13*
%TO.C,C40*%
X175900000Y-61825000D03*
X175900000Y-60275000D03*
%TD*%
%TO.C,C38*%
X169900000Y-63625000D03*
X169900000Y-62075000D03*
%TD*%
D16*
%TO.C,R42*%
X174400000Y-84475000D03*
X174400000Y-86125000D03*
%TD*%
D17*
%TO.C,R47*%
X198400000Y-86825000D03*
X198400000Y-85175000D03*
%TD*%
D13*
%TO.C,C79*%
X220050000Y-87325000D03*
X220050000Y-85775000D03*
%TD*%
%TO.C,C63*%
X175900000Y-86075000D03*
X175900000Y-84525000D03*
%TD*%
D16*
%TO.C,R55*%
X177400000Y-108725000D03*
X177400000Y-110375000D03*
%TD*%
D17*
%TO.C,R60*%
X201400000Y-111075000D03*
X201400000Y-109425000D03*
%TD*%
D19*
%TO.C,J23*%
X204480000Y-115260000D03*
X206380000Y-115260000D03*
D20*
X205430000Y-114460000D03*
X205430000Y-116060000D03*
%TD*%
D36*
%TO.C,C9*%
X96350000Y-115600000D03*
X93400000Y-115600000D03*
%TD*%
D16*
%TO.C,R45*%
X183400000Y-84475000D03*
X183400000Y-86125000D03*
%TD*%
%TO.C,R31*%
X177400000Y-60225000D03*
X177400000Y-61875000D03*
%TD*%
D13*
%TO.C,C34*%
X221550000Y-38825000D03*
X221550000Y-37275000D03*
%TD*%
D42*
%TO.C,J8*%
X87475000Y-53770000D03*
D39*
X84935000Y-53770000D03*
X87475000Y-51230000D03*
X84935000Y-51230000D03*
X87475000Y-48690000D03*
X84935000Y-48690000D03*
X87475000Y-46150000D03*
X84935000Y-46150000D03*
X87475000Y-43610000D03*
X84935000Y-43610000D03*
X87475000Y-41070000D03*
X84935000Y-41070000D03*
X87475000Y-38530000D03*
X84935000Y-38530000D03*
X87475000Y-35990000D03*
X84935000Y-35990000D03*
%TD*%
D17*
%TO.C,R24*%
X201400000Y-38325000D03*
X201400000Y-36675000D03*
%TD*%
D19*
%TO.C,J14*%
X204480000Y-42510000D03*
X206380000Y-42510000D03*
D20*
X205430000Y-41710000D03*
X205430000Y-43310000D03*
%TD*%
D15*
%TO.C,C51*%
X210620000Y-66750000D03*
X211580000Y-66750000D03*
%TD*%
D24*
%TO.C,IC9*%
X174320000Y-64750000D03*
X174320000Y-65250000D03*
X174320000Y-65750000D03*
X174320000Y-66250000D03*
X174320000Y-66750000D03*
X174320000Y-67250000D03*
D25*
X175020000Y-67950000D03*
X175520000Y-67950000D03*
X176020000Y-67950000D03*
X176520000Y-67950000D03*
X177020000Y-67950000D03*
X177520000Y-67950000D03*
D24*
X178220000Y-67250000D03*
X178220000Y-66750000D03*
X178220000Y-66250000D03*
X178220000Y-65750000D03*
X178220000Y-65250000D03*
X178220000Y-64750000D03*
D25*
X177520000Y-64050000D03*
X177020000Y-64050000D03*
X176520000Y-64050000D03*
X176020000Y-64050000D03*
X175520000Y-64050000D03*
X175020000Y-64050000D03*
D37*
X176270000Y-66000000D03*
%TD*%
D17*
%TO.C,R36*%
X201400000Y-62575000D03*
X201400000Y-60925000D03*
%TD*%
D28*
%TO.C,R5*%
X95325000Y-50151744D03*
X93675000Y-50151744D03*
%TD*%
D14*
%TO.C,C14*%
X171400000Y-38725000D03*
X171400000Y-40275000D03*
%TD*%
D21*
%TO.C,J18*%
X227400000Y-67250000D03*
X227400000Y-63000000D03*
X227400000Y-71500000D03*
%TD*%
D24*
%TO.C,AT3*%
X193810649Y-89500000D03*
X193810649Y-90000000D03*
X193810649Y-90500000D03*
X193810649Y-91000000D03*
D25*
X194510649Y-91700000D03*
X195010649Y-91700000D03*
X195510649Y-91700000D03*
X196010649Y-91700000D03*
D24*
X196710649Y-91000000D03*
X196710649Y-90500000D03*
X196710649Y-90000000D03*
X196710649Y-89500000D03*
D25*
X196010649Y-88800000D03*
X195510649Y-88800000D03*
X195010649Y-88800000D03*
X194510649Y-88800000D03*
D26*
X195260649Y-90250000D03*
%TD*%
D14*
%TO.C,C65*%
X181900000Y-84525000D03*
X181900000Y-86075000D03*
%TD*%
D17*
%TO.C,R48*%
X201400000Y-86825000D03*
X201400000Y-85175000D03*
%TD*%
D13*
%TO.C,C68*%
X184890000Y-86070000D03*
X184890000Y-84520000D03*
%TD*%
%TO.C,C93*%
X192399000Y-113331000D03*
X192399000Y-111781000D03*
%TD*%
D16*
%TO.C,R22*%
X195400000Y-36675000D03*
X195400000Y-38325000D03*
%TD*%
D14*
%TO.C,C96*%
X202900000Y-109475000D03*
X202900000Y-111025000D03*
%TD*%
D17*
%TO.C,R32*%
X180400000Y-61875000D03*
X180400000Y-60225000D03*
%TD*%
D14*
%TO.C,C101*%
X213350000Y-110260000D03*
X213350000Y-111810000D03*
%TD*%
%TO.C,C108*%
X208310000Y-62175000D03*
X208310000Y-63725000D03*
%TD*%
D17*
%TO.C,R40*%
X214850000Y-60400000D03*
X214850000Y-58750000D03*
%TD*%
D16*
%TO.C,R62*%
X211290000Y-110625000D03*
X211290000Y-112275000D03*
%TD*%
D13*
%TO.C,C95*%
X199900000Y-111025000D03*
X199900000Y-109475000D03*
%TD*%
%TO.C,C22*%
X184890000Y-37570000D03*
X184890000Y-36020000D03*
%TD*%
%TO.C,C33*%
X220050000Y-38825000D03*
X220050000Y-37275000D03*
%TD*%
D15*
%TO.C,C81*%
X217540000Y-91500000D03*
X218500000Y-91500000D03*
%TD*%
D16*
%TO.C,R54*%
X174400000Y-108725000D03*
X174400000Y-110375000D03*
%TD*%
D13*
%TO.C,C94*%
X196900000Y-111025000D03*
X196900000Y-109475000D03*
%TD*%
%TO.C,C47*%
X192400000Y-64925000D03*
X192400000Y-63375000D03*
%TD*%
D19*
%TO.C,J9*%
X165260000Y-42500000D03*
X167160000Y-42500000D03*
D20*
X166210000Y-41700000D03*
X166210000Y-43300000D03*
%TD*%
D16*
%TO.C,R21*%
X183400000Y-35975000D03*
X183400000Y-37625000D03*
%TD*%
%TO.C,R34*%
X195400000Y-60925000D03*
X195400000Y-62575000D03*
%TD*%
D13*
%TO.C,C77*%
X216350000Y-87560000D03*
X216350000Y-86010000D03*
%TD*%
D43*
%TO.C,IC6*%
X91680000Y-95080000D03*
X92630000Y-95080000D03*
X93580000Y-95080000D03*
X93580000Y-92580000D03*
X91680000Y-92580000D03*
%TD*%
D13*
%TO.C,C86*%
X175900000Y-110325000D03*
X175900000Y-108775000D03*
%TD*%
D32*
%TO.C,IC14*%
X213300000Y-114750000D03*
X213300000Y-115250000D03*
X213300000Y-115750000D03*
X213300000Y-116250000D03*
D33*
X213820000Y-116770000D03*
X214320000Y-116770000D03*
X214820000Y-116770000D03*
X215320000Y-116770000D03*
D32*
X215840000Y-116250000D03*
X215840000Y-115750000D03*
X215840000Y-115250000D03*
X215840000Y-114750000D03*
D33*
X215320000Y-114230000D03*
X214820000Y-114230000D03*
X214320000Y-114230000D03*
X213820000Y-114230000D03*
D26*
X214570000Y-115500000D03*
%TD*%
D14*
%TO.C,C39*%
X172900000Y-62975000D03*
X172900000Y-64525000D03*
%TD*%
D17*
%TO.C,R64*%
X214850000Y-108900000D03*
X214850000Y-107250000D03*
%TD*%
D15*
%TO.C,C58*%
X217540000Y-67250000D03*
X218500000Y-67250000D03*
%TD*%
%TO.C,C97*%
X210620000Y-115250000D03*
X211580000Y-115250000D03*
%TD*%
D13*
%TO.C,C84*%
X169900000Y-112125000D03*
X169900000Y-110575000D03*
%TD*%
D14*
%TO.C,C66*%
X180600000Y-87525000D03*
X180600000Y-89075000D03*
%TD*%
D13*
%TO.C,C48*%
X196900000Y-62525000D03*
X196900000Y-60975000D03*
%TD*%
%TO.C,C61*%
X169900000Y-87875000D03*
X169900000Y-86325000D03*
%TD*%
D14*
%TO.C,C107*%
X209810000Y-62175000D03*
X209810000Y-63725000D03*
%TD*%
D17*
%TO.C,R52*%
X214850000Y-84650000D03*
X214850000Y-83000000D03*
%TD*%
D16*
%TO.C,R63*%
X214850000Y-110225000D03*
X214850000Y-111875000D03*
%TD*%
D14*
%TO.C,C60*%
X171400000Y-87225000D03*
X171400000Y-88775000D03*
%TD*%
D28*
%TO.C,R7*%
X95325000Y-47203489D03*
X93675000Y-47203489D03*
%TD*%
D24*
%TO.C,IC1*%
X127100000Y-78865000D03*
X127100000Y-79375000D03*
X127100000Y-79885000D03*
D25*
X128040000Y-80825000D03*
X128550000Y-80825000D03*
X129060000Y-80825000D03*
D24*
X130000000Y-79885000D03*
X130000000Y-79375000D03*
X130000000Y-78865000D03*
D25*
X129060000Y-77925000D03*
X128550000Y-77925000D03*
X128040000Y-77925000D03*
D34*
X128550000Y-79375000D03*
%TD*%
D14*
%TO.C,C110*%
X208310000Y-86425000D03*
X208310000Y-87975000D03*
%TD*%
D13*
%TO.C,C24*%
X192400000Y-40675000D03*
X192400000Y-39125000D03*
%TD*%
D16*
%TO.C,R50*%
X211290000Y-86375000D03*
X211290000Y-88025000D03*
%TD*%
D35*
%TO.C,C11*%
X93800000Y-107200000D03*
X96750000Y-107200000D03*
%TD*%
D18*
%TO.C,R15*%
X93025000Y-121200000D03*
X93665000Y-121200000D03*
%TD*%
D13*
%TO.C,C82*%
X168400000Y-112125000D03*
X168400000Y-110575000D03*
%TD*%
%TO.C,C92*%
X190899000Y-113331000D03*
X190899000Y-111781000D03*
%TD*%
D17*
%TO.C,R37*%
X212800000Y-71875000D03*
X212800000Y-70225000D03*
%TD*%
D24*
%TO.C,AT1*%
X193810649Y-41000000D03*
X193810649Y-41500000D03*
X193810649Y-42000000D03*
X193810649Y-42500000D03*
D25*
X194510649Y-43200000D03*
X195010649Y-43200000D03*
X195510649Y-43200000D03*
X196010649Y-43200000D03*
D24*
X196710649Y-42500000D03*
X196710649Y-42000000D03*
X196710649Y-41500000D03*
X196710649Y-41000000D03*
D25*
X196010649Y-40300000D03*
X195510649Y-40300000D03*
X195010649Y-40300000D03*
X194510649Y-40300000D03*
D26*
X195260649Y-41750000D03*
%TD*%
D44*
X217540000Y-91500000D02*
X216310000Y-91500000D01*
X217540000Y-91500000D02*
X216310000Y-91500000D01*
X217540000Y-115750000D02*
X216310000Y-115750000D01*
X217540000Y-115750000D02*
X216310000Y-115750000D01*
D12*
X84862500Y-79375000D02*
X126279000Y-79375000D01*
X135644780Y-84678928D02*
X135644780Y-92838928D01*
X167341066Y-42490592D02*
X173329408Y-42490592D01*
X167341658Y-66730000D02*
X173330000Y-66730000D01*
D44*
X187350000Y-42500000D02*
X192830000Y-42500000D01*
X204480000Y-42510000D02*
X197600000Y-42510000D01*
X187350000Y-66750000D02*
X192830000Y-66750000D01*
X187350000Y-66750000D02*
X192830000Y-66750000D01*
X204480000Y-66760000D02*
X197600000Y-66760000D01*
X204480000Y-66760000D02*
X197600000Y-66760000D01*
X167140000Y-91000000D02*
X173320000Y-91000000D01*
X167175000Y-115255000D02*
X173497000Y-115255000D01*
X187350000Y-91000000D02*
X192830000Y-91000000D01*
X187350000Y-91000000D02*
X192830000Y-91000000D01*
X204480000Y-91010000D02*
X197600000Y-91010000D01*
X204480000Y-91010000D02*
X197600000Y-91010000D01*
X211580000Y-91000000D02*
X212890000Y-91000000D01*
X211580000Y-91000000D02*
X212890000Y-91000000D01*
X211580000Y-115250000D02*
X212890000Y-115250000D01*
X211580000Y-115250000D02*
X212890000Y-115250000D01*
X204480000Y-115260000D02*
X197600000Y-115260000D01*
X204480000Y-115260000D02*
X197600000Y-115260000D01*
X187350000Y-115250000D02*
X192830000Y-115250000D01*
X187350000Y-115250000D02*
X192830000Y-115250000D01*
X217540000Y-43000000D02*
X216310000Y-43000000D01*
X217540000Y-67250000D02*
X216310000Y-67250000D01*
X217540000Y-67250000D02*
X216310000Y-67250000D01*
X206380000Y-42510000D02*
X210610000Y-42510000D01*
X227400000Y-43000000D02*
X218500000Y-43000000D01*
X211580000Y-42500000D02*
X212890000Y-42500000D01*
X211580000Y-66750000D02*
X212890000Y-66750000D01*
X211580000Y-66750000D02*
X212890000Y-66750000D01*
X206380000Y-66760000D02*
X210610000Y-66760000D01*
X206380000Y-66760000D02*
X210610000Y-66760000D01*
X227400000Y-67250000D02*
X218500000Y-67250000D01*
X227400000Y-67250000D02*
X218500000Y-67250000D01*
X206380000Y-91010000D02*
X210610000Y-91010000D01*
X206380000Y-91010000D02*
X210610000Y-91010000D01*
X227400000Y-91500000D02*
X218500000Y-91500000D01*
X227400000Y-91500000D02*
X218500000Y-91500000D01*
X206380000Y-115260000D02*
X210610000Y-115260000D01*
X206380000Y-115260000D02*
X210610000Y-115260000D01*
X227400000Y-115750000D02*
X218500000Y-115750000D01*
X227400000Y-115750000D02*
X218500000Y-115750000D01*
D12*
X165266725Y-115246725D02*
X161627980Y-115246725D01*
X165220330Y-91019671D02*
X163369818Y-91019671D01*
X165220334Y-42519666D02*
X163369822Y-42519666D01*
X165266725Y-66746725D02*
X161627980Y-66746725D01*
D44*
X185450000Y-42500000D02*
X179044937Y-42500000D01*
X185450000Y-66750000D02*
X179044937Y-66750000D01*
X185450000Y-66750000D02*
X179044937Y-66750000D01*
X185450000Y-91000000D02*
X179044937Y-91000000D01*
X185450000Y-91000000D02*
X179044937Y-91000000D01*
X185450000Y-115250000D02*
X179044937Y-115250000D01*
X185450000Y-115250000D02*
X179044937Y-115250000D01*
M02*
