M48
; DRILL file {KiCad 9.0.4} date 2025-11-17T20:52:12-0600
; FORMAT={-:-/ absolute / metric / decimal}
; #@! TF.CreationDate,2025-11-17T20:52:12-06:00
; #@! TF.GenerationSoftware,Kicad,Pcbnew,9.0.4
; #@! TF.FileFunction,MixedPlating,1,4
FMAT,2
METRIC
; #@! TA.AperFunction,Plated,PTH,ViaDrill
T1C0.300
; #@! TA.AperFunction,Plated,PTH,ComponentDrill
T2C1.000
%
G90
G05
T1
X84.15Y-76.5
X84.15Y-82.25
X85.0Y-76.5
X85.0Y-82.25
X85.608Y-33.428
X85.608Y-56.288
X85.608Y-58.828
X85.608Y-61.368
X85.608Y-63.908
X85.608Y-66.448
X85.608Y-68.988
X85.608Y-71.528
X85.608Y-86.768
X85.608Y-89.308
X85.608Y-91.848
X85.608Y-94.388
X85.608Y-96.928
X85.608Y-99.468
X85.608Y-102.008
X85.608Y-117.248
X85.608Y-119.788
X85.608Y-122.328
X85.608Y-124.868
X85.608Y-127.408
X85.608Y-129.948
X85.85Y-76.5
X85.85Y-82.25
X88.147Y-33.428
X88.147Y-56.288
X88.147Y-58.828
X88.147Y-61.368
X88.147Y-63.908
X88.147Y-66.448
X88.147Y-68.988
X88.147Y-71.528
X88.147Y-86.768
X88.147Y-89.308
X88.147Y-91.848
X88.147Y-94.388
X88.147Y-96.928
X88.147Y-122.328
X88.147Y-124.868
X88.147Y-127.408
X88.147Y-129.948
X89.45Y-75.62
X89.45Y-78.12
X89.45Y-80.62
X89.45Y-83.12
X90.4Y-104.2
X90.4Y-105.0
X90.688Y-33.428
X90.688Y-35.968
X90.688Y-53.748
X90.688Y-114.708
X90.688Y-124.868
X90.688Y-127.408
X90.688Y-129.948
X90.906Y-110.631
X91.2Y-104.2
X91.2Y-105.0
X91.943Y-96.955
X91.943Y-98.267
X91.95Y-75.62
X91.95Y-78.12
X91.95Y-80.62
X91.95Y-83.12
X92.3Y-107.1
X92.343Y-41.307
X92.343Y-42.781
X92.343Y-44.27
X92.343Y-45.76
X92.343Y-47.203
X92.343Y-48.678
X92.343Y-50.152
X92.9Y-118.95
X93.227Y-33.428
X93.227Y-35.968
X93.227Y-86.768
X93.227Y-89.308
X93.227Y-127.408
X93.227Y-129.948
X93.8Y-120.56
X95.275Y-53.1
X95.767Y-33.428
X95.767Y-35.968
X95.767Y-89.308
X95.767Y-127.408
X95.767Y-129.948
X96.35Y-103.53
X98.307Y-33.428
X98.307Y-35.968
X98.307Y-58.828
X98.307Y-61.368
X98.307Y-63.908
X98.307Y-66.448
X98.307Y-68.988
X98.307Y-71.528
X98.307Y-74.068
X98.307Y-94.388
X98.307Y-96.928
X98.307Y-104.548
X98.307Y-112.168
X98.307Y-114.708
X98.307Y-124.868
X98.307Y-127.408
X98.307Y-129.948
X99.45Y-75.82
X99.45Y-78.12
X99.45Y-80.62
X99.45Y-83.12
X99.72Y-91.12
X100.847Y-33.428
X100.847Y-35.968
X100.847Y-41.048
X100.847Y-43.588
X100.847Y-48.668
X100.847Y-56.288
X100.847Y-58.828
X100.847Y-61.368
X100.847Y-63.908
X100.847Y-66.448
X100.847Y-68.988
X100.847Y-71.528
X100.847Y-74.068
X100.847Y-94.388
X100.847Y-96.928
X100.847Y-99.468
X100.847Y-102.008
X100.847Y-104.548
X100.847Y-107.088
X100.847Y-109.628
X100.847Y-112.168
X100.847Y-114.708
X100.847Y-117.248
X100.847Y-119.788
X100.847Y-122.328
X100.847Y-124.868
X100.847Y-127.408
X100.847Y-129.948
X101.95Y-75.82
X101.95Y-78.12
X101.95Y-80.62
X101.95Y-83.12
X103.387Y-33.428
X103.387Y-35.968
X103.387Y-41.048
X103.387Y-46.128
X103.387Y-53.748
X103.387Y-56.288
X103.387Y-58.828
X103.387Y-61.368
X103.387Y-63.908
X103.387Y-66.448
X103.387Y-68.988
X103.387Y-71.528
X103.387Y-74.068
X103.387Y-86.768
X103.387Y-96.928
X103.387Y-99.468
X103.387Y-102.008
X103.387Y-104.548
X103.387Y-107.088
X103.387Y-109.628
X103.387Y-112.168
X103.387Y-114.708
X103.387Y-117.248
X103.387Y-119.788
X103.387Y-122.328
X103.387Y-124.868
X103.387Y-127.408
X103.387Y-129.948
X104.45Y-75.82
X104.45Y-78.12
X104.45Y-80.62
X104.45Y-83.12
X105.927Y-33.428
X105.927Y-35.968
X105.927Y-53.748
X105.927Y-56.288
X105.927Y-58.828
X105.927Y-61.368
X105.927Y-63.908
X105.927Y-66.448
X105.927Y-68.988
X105.927Y-71.528
X105.927Y-74.068
X105.927Y-86.768
X105.927Y-89.308
X105.927Y-99.468
X105.927Y-102.008
X105.927Y-104.548
X105.927Y-107.088
X105.927Y-109.628
X105.927Y-112.168
X105.927Y-114.708
X105.927Y-117.248
X105.927Y-119.788
X105.927Y-122.328
X105.927Y-124.868
X105.927Y-127.408
X105.927Y-129.948
X106.95Y-75.82
X106.95Y-78.12
X106.95Y-80.62
X106.95Y-83.12
X108.468Y-33.428
X108.468Y-35.968
X108.468Y-38.508
X108.468Y-53.748
X108.468Y-56.288
X108.468Y-58.828
X108.468Y-61.368
X108.468Y-63.908
X108.468Y-66.448
X108.468Y-68.988
X108.468Y-71.528
X108.468Y-74.068
X108.468Y-86.768
X108.468Y-89.308
X108.468Y-91.848
X108.468Y-102.008
X108.468Y-104.548
X108.468Y-107.088
X108.468Y-109.628
X108.468Y-112.168
X108.468Y-114.708
X108.468Y-117.248
X108.468Y-119.788
X108.468Y-122.328
X108.468Y-124.868
X108.468Y-127.408
X108.468Y-129.948
X109.45Y-75.82
X109.45Y-78.12
X109.45Y-80.62
X109.45Y-83.12
X110.45Y-42.62
X111.007Y-51.208
X111.007Y-53.748
X111.007Y-56.288
X111.007Y-58.828
X111.007Y-61.368
X111.007Y-63.908
X111.007Y-66.448
X111.007Y-68.988
X111.007Y-71.528
X111.007Y-74.068
X111.007Y-86.768
X111.007Y-89.308
X111.007Y-91.848
X111.007Y-94.388
X111.007Y-104.548
X111.007Y-107.088
X111.007Y-109.628
X111.007Y-112.168
X111.007Y-114.708
X111.007Y-117.248
X111.007Y-119.788
X111.007Y-122.328
X111.007Y-124.868
X111.007Y-127.408
X111.007Y-129.948
X111.63Y-44.1
X111.95Y-75.82
X111.95Y-78.12
X111.95Y-80.62
X111.95Y-83.12
X112.123Y-39.954
X113.547Y-48.668
X113.547Y-51.208
X113.547Y-53.748
X113.547Y-56.288
X113.547Y-58.828
X113.547Y-61.368
X113.547Y-63.908
X113.547Y-66.448
X113.547Y-68.988
X113.547Y-71.528
X113.547Y-74.068
X113.547Y-86.768
X113.547Y-89.308
X113.547Y-91.848
X113.547Y-94.388
X113.547Y-96.928
X113.547Y-107.088
X113.547Y-109.628
X113.547Y-112.168
X113.547Y-114.708
X113.547Y-117.248
X113.547Y-119.788
X113.547Y-122.328
X113.547Y-124.868
X113.547Y-127.408
X113.547Y-129.948
X114.45Y-75.82
X114.45Y-78.12
X114.45Y-80.62
X114.45Y-83.12
X116.087Y-48.668
X116.087Y-51.208
X116.087Y-53.748
X116.087Y-56.288
X116.087Y-58.828
X116.087Y-61.368
X116.087Y-63.908
X116.087Y-66.448
X116.087Y-68.988
X116.087Y-71.528
X116.087Y-74.068
X116.087Y-86.768
X116.087Y-89.308
X116.087Y-91.848
X116.087Y-94.388
X116.087Y-96.928
X116.087Y-99.468
X116.087Y-109.628
X116.087Y-112.168
X116.087Y-114.708
X116.087Y-117.248
X116.087Y-119.788
X116.087Y-122.328
X116.087Y-124.868
X116.087Y-127.408
X116.087Y-129.948
X116.95Y-75.82
X116.95Y-78.12
X116.95Y-80.62
X116.95Y-83.12
X117.819Y-46.0
X118.627Y-48.668
X118.627Y-51.208
X118.627Y-53.748
X118.627Y-56.288
X118.627Y-58.828
X118.627Y-61.368
X118.627Y-63.908
X118.627Y-66.448
X118.627Y-68.988
X118.627Y-71.528
X118.627Y-74.068
X118.627Y-86.768
X118.627Y-89.308
X118.627Y-91.848
X118.627Y-94.388
X118.627Y-96.928
X118.627Y-99.468
X118.627Y-102.008
X118.627Y-112.168
X118.627Y-114.708
X118.627Y-117.248
X118.627Y-119.788
X118.627Y-122.328
X118.627Y-124.868
X118.627Y-127.408
X118.627Y-129.948
X119.45Y-75.82
X119.45Y-78.12
X119.45Y-80.62
X119.45Y-83.12
X121.167Y-43.588
X121.167Y-48.668
X121.167Y-51.208
X121.167Y-53.748
X121.167Y-56.288
X121.167Y-58.828
X121.167Y-61.368
X121.167Y-63.908
X121.167Y-66.448
X121.167Y-68.988
X121.167Y-71.528
X121.167Y-74.068
X121.167Y-86.768
X121.167Y-89.308
X121.167Y-91.848
X121.167Y-94.388
X121.167Y-96.928
X121.167Y-99.468
X121.167Y-102.008
X121.167Y-104.548
X121.167Y-114.708
X121.167Y-117.248
X121.167Y-119.788
X121.167Y-122.328
X121.167Y-124.868
X121.167Y-127.408
X121.167Y-129.948
X121.95Y-75.82
X121.95Y-78.12
X121.95Y-80.62
X121.95Y-83.12
X123.707Y-43.588
X123.707Y-48.668
X123.707Y-51.208
X123.707Y-53.748
X123.707Y-56.288
X123.707Y-58.828
X123.707Y-61.368
X123.707Y-63.908
X123.707Y-66.448
X123.707Y-68.988
X123.707Y-71.528
X123.707Y-74.068
X123.707Y-86.768
X123.707Y-89.308
X123.707Y-91.848
X123.707Y-94.388
X123.707Y-96.928
X123.707Y-99.468
X123.707Y-102.008
X123.707Y-104.548
X123.707Y-107.088
X123.707Y-117.248
X123.707Y-119.788
X123.707Y-122.328
X123.707Y-124.868
X123.707Y-127.408
X123.707Y-129.948
X123.75Y-46.0
X124.45Y-75.82
X124.45Y-78.12
X124.45Y-80.62
X124.45Y-83.12
X126.247Y-43.588
X126.247Y-46.128
X126.247Y-48.668
X126.247Y-51.208
X126.247Y-53.748
X126.247Y-56.288
X126.247Y-58.828
X126.247Y-61.368
X126.247Y-63.908
X126.247Y-66.448
X126.247Y-68.988
X126.247Y-71.528
X126.247Y-74.068
X126.247Y-76.608
X126.247Y-81.688
X126.247Y-84.228
X126.247Y-86.768
X126.247Y-89.308
X126.247Y-96.928
X126.247Y-99.468
X126.247Y-102.008
X126.247Y-104.548
X126.247Y-107.088
X126.247Y-109.628
X126.247Y-119.788
X126.247Y-124.868
X126.247Y-127.408
X126.247Y-129.948
X128.55Y-79.375
X128.787Y-43.588
X128.787Y-46.128
X128.787Y-48.668
X128.787Y-51.208
X128.787Y-53.748
X128.787Y-56.288
X128.787Y-58.828
X128.787Y-61.368
X128.787Y-63.908
X128.787Y-66.448
X128.787Y-68.988
X128.787Y-71.528
X128.787Y-74.068
X128.787Y-76.608
X128.787Y-84.228
X128.787Y-86.768
X128.787Y-89.308
X128.787Y-96.928
X128.787Y-99.468
X128.787Y-102.008
X128.787Y-104.548
X128.787Y-107.088
X128.787Y-109.628
X128.787Y-112.168
X128.787Y-124.868
X128.787Y-127.408
X128.787Y-129.948
X131.327Y-43.588
X131.327Y-46.128
X131.327Y-48.668
X131.327Y-51.208
X131.327Y-53.748
X131.327Y-104.548
X131.327Y-107.088
X131.327Y-109.628
X131.327Y-112.168
X131.327Y-114.708
X131.327Y-124.868
X131.327Y-127.408
X131.327Y-129.948
X131.907Y-61.868
X131.907Y-64.368
X131.907Y-66.868
X131.907Y-69.368
X131.907Y-71.868
X131.907Y-74.368
X131.907Y-76.868
X131.907Y-81.868
X131.907Y-84.368
X131.907Y-86.868
X131.907Y-89.368
X131.907Y-91.868
X131.907Y-94.368
X131.907Y-96.868
X131.907Y-99.409
X131.907Y-101.909
X131.916Y-56.773
X131.916Y-59.273
X133.868Y-43.588
X133.868Y-46.128
X133.868Y-48.668
X133.868Y-51.208
X133.868Y-53.748
X133.868Y-76.608
X133.868Y-104.548
X133.868Y-107.088
X133.868Y-109.628
X133.868Y-112.168
X133.868Y-114.708
X133.868Y-117.248
X133.868Y-124.868
X133.868Y-127.408
X133.868Y-129.948
X134.407Y-61.868
X134.407Y-64.368
X134.407Y-66.868
X134.407Y-69.368
X134.407Y-71.868
X134.407Y-74.368
X134.407Y-79.368
X134.407Y-84.368
X134.407Y-86.868
X134.407Y-89.368
X134.407Y-91.868
X134.407Y-94.368
X134.407Y-96.868
X134.407Y-99.409
X134.407Y-101.909
X134.416Y-56.773
X134.416Y-59.273
X136.407Y-43.588
X136.407Y-51.208
X136.407Y-53.748
X136.407Y-104.548
X136.407Y-107.088
X136.407Y-109.628
X136.407Y-112.168
X136.407Y-124.868
X136.407Y-127.408
X136.407Y-129.948
X136.907Y-64.368
X136.907Y-66.868
X136.907Y-69.368
X136.907Y-71.868
X136.907Y-74.368
X136.907Y-76.868
X136.907Y-79.368
X136.907Y-81.868
X136.907Y-84.368
X136.907Y-86.868
X136.907Y-89.368
X136.907Y-91.868
X136.907Y-94.368
X136.907Y-99.409
X136.907Y-101.909
X136.916Y-56.773
X136.916Y-59.273
X138.947Y-43.588
X138.947Y-46.128
X138.947Y-51.208
X138.947Y-107.088
X138.947Y-109.628
X138.947Y-112.168
X138.947Y-117.248
X138.947Y-124.868
X138.947Y-127.408
X138.947Y-129.948
X139.407Y-61.868
X139.407Y-64.368
X139.407Y-66.868
X139.407Y-69.368
X139.407Y-71.868
X139.407Y-74.368
X139.407Y-76.868
X139.407Y-79.368
X139.407Y-81.868
X139.407Y-84.368
X139.407Y-86.868
X139.407Y-89.368
X139.407Y-91.868
X139.407Y-94.368
X139.407Y-96.868
X139.407Y-99.409
X139.407Y-104.409
X139.41Y-102.409
X139.416Y-54.273
X139.416Y-59.273
X139.419Y-56.273
X141.487Y-43.588
X141.487Y-46.128
X141.487Y-48.668
X141.487Y-51.208
X141.487Y-61.368
X141.487Y-63.908
X141.487Y-66.448
X141.487Y-68.988
X141.487Y-71.528
X141.487Y-74.068
X141.487Y-76.608
X141.487Y-79.148
X141.487Y-81.688
X141.487Y-84.228
X141.487Y-86.768
X141.487Y-89.308
X141.487Y-91.848
X141.487Y-94.388
X141.487Y-96.928
X141.487Y-107.088
X141.487Y-109.628
X141.487Y-112.168
X141.487Y-114.708
X141.487Y-117.248
X141.487Y-124.868
X141.487Y-127.408
X141.487Y-129.948
X141.906Y-101.409
X141.907Y-99.409
X141.907Y-104.409
X141.915Y-57.273
X141.916Y-54.273
X141.916Y-59.273
X144.028Y-43.588
X144.028Y-46.128
X144.028Y-48.668
X144.028Y-51.208
X144.028Y-61.368
X144.028Y-63.908
X144.028Y-66.448
X144.028Y-68.988
X144.028Y-71.528
X144.028Y-74.068
X144.028Y-76.608
X144.028Y-79.148
X144.028Y-81.688
X144.028Y-84.228
X144.028Y-86.768
X144.028Y-89.308
X144.028Y-91.848
X144.028Y-94.388
X144.028Y-96.928
X144.028Y-107.088
X144.028Y-109.628
X144.028Y-112.168
X144.028Y-114.708
X144.028Y-117.248
X144.028Y-124.868
X144.028Y-127.408
X144.028Y-129.948
X144.448Y-99.406
X144.448Y-101.906
X144.448Y-104.406
X144.457Y-54.27
X144.457Y-56.77
X144.457Y-59.27
X146.567Y-33.428
X146.567Y-35.968
X146.567Y-38.508
X146.567Y-43.588
X146.567Y-46.128
X146.567Y-48.668
X146.567Y-51.208
X146.567Y-58.828
X146.567Y-61.368
X146.567Y-63.908
X146.567Y-66.448
X146.567Y-68.988
X146.567Y-71.528
X146.567Y-74.068
X146.567Y-76.608
X146.567Y-79.148
X146.567Y-81.688
X146.567Y-84.228
X146.567Y-86.768
X146.567Y-89.308
X146.567Y-91.848
X146.567Y-94.388
X146.567Y-96.928
X146.567Y-99.468
X146.567Y-102.008
X146.567Y-107.088
X146.567Y-109.628
X146.567Y-112.168
X146.567Y-114.708
X146.567Y-117.248
X146.567Y-124.868
X146.567Y-127.408
X146.567Y-129.948
X148.55Y-55.125
X148.55Y-103.625
X149.107Y-33.428
X149.107Y-35.968
X149.107Y-38.508
X149.107Y-43.588
X149.107Y-46.128
X149.107Y-48.668
X149.107Y-51.208
X149.107Y-58.828
X149.107Y-61.368
X149.107Y-63.908
X149.107Y-66.448
X149.107Y-68.988
X149.107Y-71.528
X149.107Y-74.068
X149.107Y-76.608
X149.107Y-79.148
X149.107Y-81.688
X149.107Y-84.228
X149.107Y-86.768
X149.107Y-89.308
X149.107Y-91.848
X149.107Y-94.388
X149.107Y-96.928
X149.107Y-99.468
X149.107Y-107.088
X149.107Y-109.628
X149.107Y-112.168
X149.107Y-114.708
X149.107Y-117.248
X149.107Y-124.868
X149.107Y-127.408
X149.107Y-129.948
X151.647Y-33.428
X151.647Y-35.968
X151.647Y-38.508
X151.647Y-43.588
X151.647Y-71.528
X151.647Y-74.068
X151.647Y-76.608
X151.647Y-79.148
X151.647Y-81.688
X151.647Y-84.228
X151.647Y-86.768
X151.647Y-89.308
X151.647Y-124.868
X151.647Y-127.408
X151.647Y-129.948
X152.3Y-91.186
X152.3Y-93.686
X152.3Y-96.186
X152.3Y-98.686
X152.3Y-101.186
X152.3Y-106.186
X152.3Y-108.686
X152.3Y-111.186
X152.3Y-113.686
X152.3Y-116.186
X152.303Y-45.186
X152.303Y-47.686
X152.303Y-50.186
X152.303Y-52.686
X152.303Y-57.686
X152.303Y-60.186
X152.303Y-62.686
X152.303Y-65.186
X152.303Y-67.686
X154.188Y-33.428
X154.188Y-35.968
X154.188Y-38.508
X154.188Y-43.588
X154.188Y-71.528
X154.188Y-74.068
X154.188Y-76.608
X154.188Y-79.148
X154.188Y-81.688
X154.188Y-84.228
X154.188Y-86.768
X154.188Y-89.308
X154.188Y-107.088
X154.188Y-124.868
X154.188Y-127.408
X154.188Y-129.948
X154.8Y-91.186
X154.8Y-93.686
X154.8Y-96.186
X154.8Y-98.686
X154.8Y-103.686
X154.8Y-108.686
X154.8Y-111.186
X154.8Y-113.686
X154.8Y-116.186
X154.803Y-45.186
X154.803Y-47.686
X154.803Y-50.186
X154.803Y-55.186
X154.803Y-60.186
X154.803Y-62.686
X154.803Y-65.186
X154.803Y-67.686
X156.709Y-113.932
X156.712Y-65.432
X156.727Y-33.428
X156.727Y-35.968
X156.727Y-38.508
X156.727Y-71.528
X156.727Y-74.068
X156.727Y-76.608
X156.727Y-79.148
X156.727Y-81.688
X156.727Y-84.228
X156.727Y-86.768
X156.727Y-89.308
X156.727Y-124.868
X156.727Y-127.408
X156.727Y-129.948
X157.152Y-93.243
X157.155Y-44.743
X157.3Y-91.186
X157.3Y-101.186
X157.3Y-103.686
X157.3Y-106.186
X157.3Y-108.686
X157.3Y-111.186
X157.3Y-116.186
X157.303Y-52.686
X157.303Y-55.186
X157.303Y-57.686
X157.303Y-60.186
X157.303Y-62.686
X157.303Y-67.686
X158.299Y-96.185
X158.299Y-98.685
X158.302Y-47.685
X158.302Y-50.185
X159.267Y-33.428
X159.267Y-35.968
X159.267Y-71.528
X159.267Y-74.068
X159.267Y-76.608
X159.267Y-79.148
X159.267Y-81.688
X159.267Y-84.228
X159.267Y-86.768
X159.267Y-89.308
X159.267Y-124.868
X159.267Y-127.408
X159.267Y-129.948
X159.8Y-91.186
X159.8Y-93.686
X159.8Y-96.186
X159.8Y-98.686
X159.8Y-101.186
X159.8Y-103.686
X159.8Y-106.186
X159.8Y-108.686
X159.8Y-111.186
X159.8Y-113.686
X159.8Y-116.186
X159.803Y-42.686
X159.803Y-45.186
X159.803Y-47.686
X159.803Y-50.186
X159.803Y-52.686
X159.803Y-55.186
X159.803Y-57.686
X159.803Y-60.186
X159.803Y-62.686
X159.803Y-65.186
X159.803Y-67.686
X161.239Y-41.478
X161.239Y-43.978
X161.241Y-65.729
X161.241Y-68.229
X161.242Y-89.978
X161.242Y-92.478
X161.244Y-114.229
X161.244Y-116.729
X161.808Y-33.428
X161.808Y-46.128
X161.808Y-48.668
X161.808Y-51.208
X161.808Y-53.748
X161.808Y-56.288
X161.808Y-58.828
X161.808Y-61.368
X161.808Y-63.908
X161.808Y-71.528
X161.808Y-74.068
X161.808Y-76.608
X161.808Y-79.148
X161.808Y-81.688
X161.808Y-84.228
X161.808Y-86.768
X161.808Y-94.388
X161.808Y-96.928
X161.808Y-99.468
X161.808Y-102.008
X161.808Y-104.548
X161.808Y-107.088
X161.808Y-109.628
X161.808Y-112.168
X161.808Y-124.868
X161.808Y-127.408
X161.808Y-129.948
X163.739Y-41.478
X163.739Y-43.978
X164.347Y-46.128
X164.347Y-48.668
X164.347Y-51.208
X164.347Y-53.748
X164.347Y-56.288
X164.347Y-58.828
X164.347Y-61.368
X164.347Y-63.908
X164.347Y-68.988
X164.347Y-71.528
X164.347Y-74.068
X164.347Y-76.608
X164.347Y-79.148
X164.347Y-81.688
X164.347Y-84.228
X164.347Y-86.768
X164.347Y-89.308
X164.347Y-94.388
X164.347Y-96.928
X164.347Y-99.468
X164.347Y-102.008
X164.347Y-104.548
X164.347Y-107.088
X164.347Y-109.628
X164.347Y-112.168
X164.347Y-117.248
X164.347Y-124.868
X164.347Y-127.408
X164.347Y-129.948
X164.4Y-110.8
X164.44Y-38.38
X164.6Y-62.6
X164.6Y-85.6
X166.204Y-44.678
X166.887Y-46.128
X166.887Y-48.668
X166.887Y-51.208
X166.887Y-53.748
X166.887Y-56.288
X166.887Y-58.828
X166.887Y-68.988
X166.887Y-71.528
X166.887Y-74.068
X166.887Y-76.608
X166.887Y-79.148
X166.887Y-81.688
X166.887Y-94.388
X166.887Y-96.928
X166.887Y-99.468
X166.887Y-102.008
X166.887Y-104.548
X166.887Y-107.088
X166.887Y-124.868
X166.887Y-127.408
X166.887Y-129.948
X168.006Y-114.437
X168.006Y-116.037
X168.007Y-90.187
X168.007Y-91.787
X168.009Y-65.94
X168.009Y-67.54
X168.01Y-41.69
X168.01Y-43.29
X169.306Y-112.017
X169.307Y-87.767
X169.309Y-63.52
X169.31Y-39.27
X169.427Y-33.428
X169.427Y-124.868
X169.427Y-127.408
X169.427Y-129.948
X170.206Y-114.437
X170.206Y-116.037
X170.207Y-90.187
X170.207Y-91.787
X170.209Y-65.94
X170.209Y-67.54
X170.21Y-41.69
X170.21Y-43.29
X171.968Y-33.428
X171.968Y-35.968
X171.968Y-46.128
X171.968Y-48.668
X171.968Y-51.208
X171.968Y-53.748
X171.968Y-56.288
X171.968Y-58.828
X171.968Y-68.988
X171.968Y-71.528
X171.968Y-74.068
X171.968Y-76.608
X171.968Y-79.148
X171.968Y-81.688
X171.968Y-84.228
X171.968Y-94.388
X171.968Y-96.928
X171.968Y-99.468
X171.968Y-102.008
X171.968Y-104.548
X171.968Y-107.088
X171.968Y-124.868
X171.968Y-127.408
X171.968Y-129.948
X172.206Y-114.437
X172.206Y-116.037
X172.207Y-90.187
X172.207Y-91.787
X172.209Y-65.94
X172.209Y-67.54
X172.21Y-41.69
X172.21Y-43.29
X174.38Y-58.206
X174.396Y-106.722
X174.397Y-82.472
X174.4Y-33.975
X174.507Y-129.948
X175.641Y-113.872
X175.641Y-115.122
X175.642Y-89.622
X175.642Y-90.872
X175.644Y-65.375
X175.644Y-66.625
X175.645Y-41.125
X175.645Y-42.375
X175.72Y-126.0
X175.98Y-45.13
X175.98Y-47.67
X175.98Y-50.21
X175.98Y-52.75
X175.98Y-55.29
X175.98Y-69.4
X175.98Y-71.94
X175.98Y-74.48
X175.98Y-77.02
X175.98Y-79.56
X175.98Y-93.65
X175.98Y-96.19
X175.98Y-98.73
X175.98Y-101.27
X175.98Y-103.81
X176.891Y-113.872
X176.891Y-115.122
X176.892Y-89.622
X176.892Y-90.872
X176.894Y-65.375
X176.894Y-66.625
X176.895Y-41.125
X176.895Y-42.375
X177.047Y-129.948
X177.396Y-106.722
X177.397Y-82.472
X177.399Y-58.225
X177.4Y-33.975
X179.588Y-46.128
X179.588Y-48.668
X179.588Y-51.208
X179.588Y-53.748
X179.588Y-56.288
X179.588Y-68.988
X179.588Y-71.528
X179.588Y-74.068
X179.588Y-76.608
X179.588Y-79.148
X179.588Y-129.948
X179.599Y-114.523
X179.6Y-90.273
X179.602Y-66.026
X179.603Y-41.776
X179.614Y-115.968
X179.615Y-91.718
X179.617Y-67.471
X179.618Y-43.221
X180.39Y-126.0
X180.396Y-106.722
X180.397Y-82.472
X180.399Y-58.225
X180.4Y-33.975
X180.599Y-114.523
X180.6Y-90.273
X180.602Y-66.026
X180.603Y-41.776
X180.614Y-115.968
X180.615Y-91.718
X180.617Y-67.471
X180.618Y-43.221
X181.236Y-110.467
X181.237Y-86.217
X181.239Y-61.97
X181.24Y-37.72
X181.601Y-114.522
X181.602Y-90.272
X181.604Y-66.025
X181.605Y-41.775
X181.616Y-115.967
X181.617Y-91.717
X181.619Y-67.47
X181.62Y-43.22
X182.127Y-46.128
X182.127Y-48.668
X182.127Y-51.208
X182.127Y-53.748
X182.127Y-56.288
X182.127Y-68.988
X182.127Y-71.528
X182.127Y-74.068
X182.127Y-76.608
X182.127Y-79.148
X182.127Y-94.388
X182.127Y-96.928
X182.127Y-99.468
X182.127Y-102.008
X182.127Y-104.548
X182.127Y-129.948
X182.599Y-114.523
X182.6Y-90.273
X182.602Y-66.026
X182.603Y-41.776
X182.614Y-115.968
X182.615Y-91.718
X182.617Y-67.471
X182.618Y-43.221
X183.396Y-106.722
X183.397Y-82.472
X183.4Y-33.975
X183.41Y-58.214
X183.576Y-112.287
X183.577Y-88.037
X183.579Y-63.79
X183.58Y-39.54
X183.601Y-114.522
X183.602Y-90.272
X183.604Y-66.025
X183.605Y-41.775
X183.616Y-115.967
X183.617Y-91.717
X183.619Y-67.47
X183.62Y-43.22
X184.667Y-129.948
X185.37Y-126.0
X186.342Y-117.435
X186.343Y-93.185
X186.345Y-68.938
X186.346Y-44.688
X186.386Y-113.101
X186.387Y-88.851
X186.389Y-64.604
X186.39Y-40.354
X187.207Y-33.428
X187.207Y-35.968
X187.207Y-38.508
X187.207Y-46.128
X187.207Y-48.668
X187.207Y-51.208
X187.207Y-53.748
X187.207Y-56.288
X187.207Y-58.828
X187.207Y-61.368
X187.207Y-71.528
X187.207Y-74.068
X187.207Y-76.608
X187.207Y-79.148
X187.207Y-81.688
X187.207Y-84.228
X187.207Y-86.768
X187.207Y-96.928
X187.207Y-99.468
X187.207Y-102.008
X187.207Y-104.548
X187.207Y-107.088
X187.207Y-109.628
X187.207Y-129.948
X188.006Y-114.437
X188.006Y-116.037
X188.007Y-90.187
X188.007Y-91.787
X188.009Y-65.94
X188.009Y-67.54
X188.01Y-41.69
X188.01Y-43.29
X188.816Y-111.817
X188.817Y-87.567
X188.819Y-63.32
X188.82Y-39.07
X189.748Y-35.968
X189.748Y-46.128
X189.748Y-48.668
X189.748Y-51.208
X189.748Y-53.748
X189.748Y-56.288
X189.748Y-58.828
X189.748Y-68.988
X189.748Y-71.528
X189.748Y-74.068
X189.748Y-76.608
X189.748Y-79.148
X189.748Y-81.688
X189.748Y-84.228
X189.748Y-94.388
X189.748Y-96.928
X189.748Y-99.468
X189.748Y-102.008
X189.748Y-104.548
X189.748Y-107.088
X189.748Y-124.868
X189.748Y-127.408
X189.748Y-129.948
X190.005Y-114.435
X190.005Y-116.035
X190.006Y-90.185
X190.006Y-91.785
X190.008Y-65.938
X190.008Y-67.538
X190.009Y-41.688
X190.009Y-43.288
X192.007Y-116.035
X192.008Y-91.785
X192.008Y-114.435
X192.009Y-90.185
X192.01Y-67.538
X192.011Y-43.288
X192.011Y-65.938
X192.012Y-41.688
X192.287Y-46.128
X192.287Y-48.668
X192.287Y-51.208
X192.287Y-53.748
X192.287Y-56.288
X192.287Y-58.828
X192.287Y-68.988
X192.287Y-71.528
X192.287Y-74.068
X192.287Y-76.608
X192.287Y-79.148
X192.287Y-81.688
X192.287Y-84.228
X192.287Y-94.388
X192.287Y-96.928
X192.287Y-99.468
X192.287Y-102.008
X192.287Y-104.548
X192.287Y-107.088
X192.287Y-124.868
X192.287Y-127.408
X192.287Y-129.948
X193.969Y-109.418
X193.97Y-85.168
X193.972Y-60.921
X193.973Y-36.671
X194.757Y-113.997
X194.757Y-114.997
X194.758Y-89.747
X194.758Y-90.747
X194.76Y-65.5
X194.76Y-66.5
X194.761Y-41.25
X194.761Y-42.25
X194.827Y-33.428
X194.827Y-117.248
X194.827Y-124.868
X194.827Y-127.408
X194.827Y-129.948
X195.55Y-46.33
X195.55Y-48.87
X195.55Y-51.41
X195.55Y-53.95
X195.55Y-56.49
X195.55Y-70.6
X195.55Y-73.14
X195.55Y-75.68
X195.55Y-78.22
X195.55Y-80.76
X195.55Y-94.85
X195.55Y-97.39
X195.55Y-99.93
X195.55Y-102.47
X195.55Y-105.01
X195.757Y-113.997
X195.757Y-114.997
X195.758Y-89.747
X195.758Y-90.747
X195.76Y-65.5
X195.76Y-66.5
X195.761Y-41.25
X195.761Y-42.25
X197.367Y-68.988
X197.367Y-71.528
X197.367Y-74.068
X197.367Y-76.608
X197.367Y-79.148
X197.367Y-94.388
X197.367Y-96.928
X197.367Y-99.468
X197.367Y-102.008
X197.367Y-104.548
X197.367Y-124.868
X197.367Y-127.408
X197.367Y-129.948
X197.955Y-114.437
X197.955Y-116.037
X197.956Y-90.187
X197.956Y-91.787
X197.958Y-65.94
X197.958Y-67.54
X197.959Y-41.69
X197.959Y-43.29
X198.403Y-107.685
X198.404Y-83.435
X198.406Y-59.188
X198.407Y-34.938
X199.907Y-33.428
X199.907Y-46.128
X199.907Y-48.668
X199.907Y-51.208
X199.907Y-124.868
X199.907Y-127.408
X199.907Y-129.948
X199.955Y-90.185
X199.955Y-91.785
X199.957Y-65.938
X199.957Y-67.538
X199.958Y-41.688
X199.958Y-43.288
X200.054Y-114.435
X200.054Y-116.035
X201.397Y-107.627
X201.398Y-83.377
X201.4Y-59.13
X201.401Y-34.88
X201.956Y-116.035
X201.957Y-91.785
X201.957Y-114.435
X201.958Y-90.185
X201.959Y-67.538
X201.96Y-43.288
X201.96Y-65.938
X201.961Y-41.688
X202.447Y-46.128
X202.447Y-48.668
X202.447Y-51.208
X202.447Y-56.288
X202.447Y-63.908
X202.447Y-68.988
X202.447Y-71.528
X202.447Y-74.068
X202.447Y-76.608
X202.447Y-79.148
X202.447Y-81.688
X202.447Y-94.388
X202.447Y-96.928
X202.447Y-99.468
X202.447Y-102.008
X202.447Y-104.548
X202.447Y-119.788
X202.447Y-124.868
X202.447Y-127.408
X202.447Y-129.948
X203.956Y-116.033
X203.957Y-91.783
X203.957Y-114.433
X203.958Y-90.183
X203.959Y-67.536
X203.96Y-43.286
X203.96Y-65.936
X203.961Y-41.686
X204.987Y-38.508
X204.987Y-46.128
X204.987Y-48.668
X204.987Y-51.208
X204.987Y-53.748
X204.987Y-56.288
X204.987Y-58.828
X204.987Y-61.368
X204.987Y-71.528
X204.987Y-74.068
X204.987Y-76.608
X204.987Y-79.148
X204.987Y-81.688
X204.987Y-84.228
X204.987Y-86.768
X204.987Y-96.928
X204.987Y-99.468
X204.987Y-102.008
X204.987Y-104.548
X204.987Y-107.088
X204.987Y-109.628
X204.987Y-119.788
X204.987Y-122.328
X204.987Y-124.868
X204.987Y-127.408
X204.987Y-129.948
X205.448Y-113.092
X205.448Y-117.399
X205.449Y-88.842
X205.449Y-93.149
X205.451Y-64.595
X205.451Y-68.902
X205.452Y-40.345
X205.452Y-44.652
X206.946Y-109.187
X206.947Y-84.937
X206.949Y-60.69
X206.95Y-36.44
X207.454Y-114.436
X207.454Y-116.036
X207.455Y-90.186
X207.455Y-91.786
X207.457Y-65.939
X207.457Y-67.539
X207.458Y-41.689
X207.458Y-43.289
X207.528Y-33.428
X207.528Y-122.328
X207.528Y-124.868
X207.528Y-127.408
X207.528Y-129.948
X207.536Y-118.737
X207.537Y-94.487
X207.539Y-70.24
X207.54Y-45.99
X207.606Y-120.327
X207.607Y-96.077
X207.609Y-71.83
X207.61Y-47.58
X209.453Y-114.434
X209.453Y-116.034
X209.454Y-90.184
X209.454Y-91.784
X209.456Y-65.937
X209.456Y-67.537
X209.457Y-41.687
X209.457Y-43.287
X210.067Y-33.428
X210.067Y-35.968
X210.067Y-51.208
X210.067Y-53.748
X210.067Y-56.288
X210.067Y-58.828
X210.067Y-68.988
X210.067Y-74.068
X210.067Y-76.608
X210.067Y-79.148
X210.067Y-81.688
X210.067Y-84.228
X210.067Y-99.468
X210.067Y-102.008
X210.067Y-104.548
X210.067Y-107.088
X210.067Y-122.328
X210.067Y-124.868
X210.067Y-127.408
X210.067Y-129.948
X212.166Y-109.377
X212.167Y-85.127
X212.169Y-60.88
X212.17Y-36.63
X212.607Y-33.428
X212.607Y-51.208
X212.607Y-53.748
X212.607Y-56.288
X212.607Y-58.828
X212.607Y-74.068
X212.607Y-76.608
X212.607Y-79.148
X212.607Y-81.688
X212.607Y-99.468
X212.607Y-102.008
X212.607Y-104.548
X212.607Y-107.088
X212.607Y-122.328
X212.607Y-124.868
X212.607Y-127.408
X212.607Y-129.948
X213.31Y-40.25
X213.31Y-64.5
X213.31Y-88.75
X213.31Y-113.0
X214.066Y-114.997
X214.066Y-115.997
X214.067Y-90.747
X214.067Y-91.747
X214.069Y-66.5
X214.069Y-67.5
X214.07Y-42.25
X214.07Y-43.25
X215.066Y-114.997
X215.066Y-115.997
X215.067Y-90.747
X215.067Y-91.747
X215.069Y-66.5
X215.069Y-67.5
X215.07Y-42.25
X215.07Y-43.25
X215.147Y-46.128
X215.147Y-48.668
X215.147Y-51.208
X215.147Y-53.748
X215.147Y-56.288
X215.147Y-71.528
X215.147Y-74.068
X215.147Y-76.608
X215.147Y-79.148
X215.147Y-94.388
X215.147Y-96.928
X215.147Y-99.468
X215.147Y-102.008
X215.147Y-104.548
X215.147Y-119.788
X215.147Y-122.328
X215.147Y-124.868
X215.147Y-127.408
X215.147Y-129.948
X216.227Y-107.203
X216.228Y-82.953
X216.23Y-58.706
X216.231Y-34.456
X216.49Y-40.25
X216.49Y-64.5
X216.49Y-88.75
X216.49Y-113.0
X217.48Y-35.91
X217.688Y-33.428
X217.688Y-46.128
X217.688Y-48.668
X217.688Y-51.208
X217.688Y-53.748
X217.688Y-56.288
X217.688Y-58.828
X217.688Y-68.988
X217.688Y-71.528
X217.688Y-74.068
X217.688Y-76.608
X217.688Y-79.148
X217.688Y-81.688
X217.688Y-94.388
X217.688Y-96.928
X217.688Y-99.468
X217.688Y-102.008
X217.688Y-104.548
X217.688Y-107.088
X217.688Y-117.248
X217.688Y-119.788
X217.688Y-122.328
X217.688Y-124.868
X217.688Y-127.408
X217.688Y-129.948
X219.25Y-35.02
X219.681Y-114.926
X219.681Y-116.526
X219.682Y-90.676
X219.682Y-92.276
X219.684Y-66.429
X219.684Y-68.029
X219.685Y-42.179
X219.685Y-43.779
X220.227Y-33.428
X220.227Y-46.128
X220.227Y-48.668
X220.227Y-51.208
X220.227Y-53.748
X220.227Y-56.288
X220.227Y-58.828
X220.227Y-71.528
X220.227Y-74.068
X220.227Y-76.608
X220.227Y-79.148
X220.227Y-81.688
X220.227Y-84.228
X220.227Y-94.388
X220.227Y-96.928
X220.227Y-99.468
X220.227Y-102.008
X220.227Y-104.548
X220.227Y-107.088
X220.227Y-119.788
X220.227Y-122.328
X220.227Y-124.868
X220.227Y-127.408
X220.227Y-129.948
X221.515Y-110.005
X221.52Y-37.24
X221.53Y-61.535
X221.535Y-85.725
X221.68Y-114.924
X221.68Y-116.524
X221.681Y-90.674
X221.681Y-92.274
X221.683Y-66.427
X221.683Y-68.027
X221.684Y-42.177
X221.684Y-43.777
X222.767Y-33.428
X222.767Y-35.968
X222.767Y-46.128
X222.767Y-48.668
X222.767Y-51.208
X222.767Y-53.748
X222.767Y-56.288
X222.767Y-58.828
X222.767Y-71.528
X222.767Y-74.068
X222.767Y-76.608
X222.767Y-79.148
X222.767Y-81.688
X222.767Y-84.228
X222.767Y-94.388
X222.767Y-96.928
X222.767Y-99.468
X222.767Y-102.008
X222.767Y-104.548
X222.767Y-107.088
X222.767Y-119.788
X222.767Y-122.328
X222.767Y-124.868
X222.767Y-127.408
X222.767Y-129.948
X223.682Y-116.524
X223.683Y-92.274
X223.683Y-114.924
X223.684Y-90.674
X223.685Y-68.027
X223.686Y-43.777
X223.686Y-66.427
X223.687Y-42.177
X225.307Y-33.428
X225.307Y-35.968
X225.307Y-38.508
X225.307Y-46.128
X225.307Y-48.668
X225.307Y-51.208
X225.307Y-53.748
X225.307Y-56.288
X225.307Y-58.828
X225.307Y-61.368
X225.307Y-63.908
X225.307Y-71.528
X225.307Y-74.068
X225.307Y-76.608
X225.307Y-79.148
X225.307Y-81.688
X225.307Y-84.228
X225.307Y-86.768
X225.307Y-94.388
X225.307Y-96.928
X225.307Y-99.468
X225.307Y-102.008
X225.307Y-104.548
X225.307Y-107.088
X225.307Y-109.628
X225.307Y-112.168
X225.307Y-119.788
X225.307Y-122.328
X225.307Y-124.868
X225.307Y-127.408
X225.307Y-129.948
X225.678Y-114.926
X225.678Y-116.526
X225.679Y-90.676
X225.679Y-92.276
X225.681Y-66.429
X225.681Y-68.029
X225.682Y-42.179
X225.682Y-43.779
X227.847Y-33.428
X227.847Y-35.968
X227.847Y-38.508
X227.847Y-41.048
X227.847Y-46.128
X227.847Y-51.208
X227.847Y-53.748
X227.847Y-56.288
X227.847Y-58.828
X227.847Y-61.368
X227.847Y-63.908
X227.847Y-68.988
X227.847Y-76.608
X227.847Y-79.148
X227.847Y-81.688
X227.847Y-84.228
X227.847Y-86.768
X227.847Y-89.308
X227.847Y-94.388
X227.847Y-99.468
X227.847Y-102.008
X227.847Y-104.548
X227.847Y-107.088
X227.847Y-109.628
X227.847Y-112.168
X227.847Y-114.708
X227.847Y-117.248
X227.847Y-124.868
X227.847Y-127.408
X227.847Y-129.948
X230.387Y-33.428
X230.387Y-35.968
X230.387Y-38.508
X230.387Y-41.048
X230.387Y-51.208
X230.387Y-53.748
X230.387Y-56.288
X230.387Y-58.828
X230.387Y-61.368
X230.387Y-63.908
X230.387Y-74.068
X230.387Y-76.608
X230.387Y-79.148
X230.387Y-81.688
X230.387Y-84.228
X230.387Y-86.768
X230.387Y-89.308
X230.387Y-99.468
X230.387Y-102.008
X230.387Y-104.548
X230.387Y-107.088
X230.387Y-109.628
X230.387Y-112.168
X230.387Y-122.328
X230.387Y-124.868
X230.387Y-127.408
X230.387Y-129.948
X232.421Y-124.272
X232.421Y-126.272
X232.421Y-128.272
X232.421Y-130.272
X232.422Y-100.022
X232.422Y-102.022
X232.422Y-104.022
X232.422Y-106.022
X232.424Y-75.775
X232.424Y-77.775
X232.424Y-79.775
X232.424Y-81.775
X232.425Y-51.525
X232.425Y-53.525
X232.425Y-55.525
X232.425Y-57.525
X232.927Y-33.428
X232.927Y-35.968
X232.927Y-38.508
X232.927Y-41.048
X232.927Y-43.588
X232.927Y-46.128
X232.927Y-48.668
X232.927Y-61.368
X232.927Y-63.908
X232.927Y-66.448
X232.927Y-68.988
X232.927Y-71.528
X232.927Y-74.068
X232.927Y-84.228
X232.927Y-86.768
X232.927Y-89.308
X232.927Y-91.848
X232.927Y-94.388
X232.927Y-96.928
X232.927Y-109.628
X232.927Y-112.168
X232.927Y-114.708
X232.927Y-117.248
X232.927Y-119.788
X232.927Y-122.328
X234.6Y-49.85
X234.6Y-51.15
X234.6Y-52.65
X234.6Y-74.1
X234.6Y-75.4
X234.6Y-76.9
X234.6Y-98.35
X234.6Y-99.65
X234.6Y-101.15
X234.6Y-122.6
X234.6Y-123.9
X234.6Y-125.4
X235.468Y-33.428
X235.468Y-35.968
X235.468Y-38.508
X235.468Y-41.048
X235.468Y-58.828
X235.468Y-61.368
X235.468Y-63.908
X235.468Y-81.688
X235.468Y-84.228
X235.468Y-86.768
X235.468Y-89.308
X235.468Y-107.088
X235.468Y-109.628
X235.468Y-112.168
X235.468Y-129.948
X236.2Y-49.85
X236.2Y-51.15
X236.2Y-52.65
X236.2Y-74.1
X236.2Y-75.4
X236.2Y-76.9
X236.2Y-98.35
X236.2Y-99.65
X236.2Y-101.15
X236.2Y-122.6
X236.2Y-123.9
X236.2Y-125.4
X238.007Y-33.428
X238.007Y-35.968
X238.007Y-38.508
X238.007Y-46.128
X238.007Y-48.668
X238.007Y-61.368
X238.007Y-63.908
X238.007Y-71.528
X238.007Y-74.068
X238.007Y-84.228
X238.007Y-86.768
X238.007Y-94.388
X238.007Y-96.928
X238.007Y-109.628
X238.007Y-112.168
X238.007Y-119.788
X238.007Y-122.328
X238.456Y-124.247
X238.456Y-126.247
X238.456Y-128.247
X238.456Y-130.247
X238.457Y-99.997
X238.457Y-101.997
X238.457Y-103.997
X238.457Y-105.997
X238.459Y-75.75
X238.459Y-77.75
X238.459Y-79.75
X238.459Y-81.75
X238.46Y-51.5
X238.46Y-53.5
X238.46Y-55.5
X238.46Y-57.5
X238.697Y-114.924
X238.697Y-116.524
X238.698Y-90.674
X238.698Y-92.274
X238.7Y-66.427
X238.7Y-68.027
X238.701Y-42.177
X238.701Y-43.777
X240.547Y-33.428
X240.547Y-35.968
X240.547Y-38.508
X240.547Y-46.128
X240.547Y-48.668
X240.547Y-51.208
X240.547Y-53.748
X240.547Y-56.288
X240.547Y-58.828
X240.547Y-61.368
X240.547Y-63.908
X240.547Y-71.528
X240.547Y-74.068
X240.547Y-76.608
X240.547Y-79.148
X240.547Y-81.688
X240.547Y-84.228
X240.547Y-86.768
X240.547Y-94.388
X240.547Y-96.928
X240.547Y-99.468
X240.547Y-102.008
X240.547Y-104.548
X240.547Y-107.088
X240.547Y-109.628
X240.547Y-112.168
X240.547Y-119.788
X240.547Y-122.328
X240.547Y-124.868
X240.547Y-127.408
X240.547Y-129.948
X240.696Y-114.922
X240.696Y-116.522
X240.697Y-90.672
X240.697Y-92.272
X240.699Y-66.425
X240.699Y-68.025
X240.7Y-42.175
X240.7Y-43.775
X242.698Y-116.522
X242.699Y-92.272
X242.699Y-114.922
X242.7Y-90.672
X242.701Y-68.025
X242.702Y-43.775
X242.702Y-66.425
X242.703Y-42.175
X243.087Y-33.428
X243.087Y-35.968
X243.087Y-38.508
X243.087Y-46.128
X243.087Y-48.668
X243.087Y-51.208
X243.087Y-53.748
X243.087Y-56.288
X243.087Y-58.828
X243.087Y-61.368
X243.087Y-63.908
X243.087Y-71.528
X243.087Y-74.068
X243.087Y-76.608
X243.087Y-79.148
X243.087Y-81.688
X243.087Y-84.228
X243.087Y-86.768
X243.087Y-94.388
X243.087Y-96.928
X243.087Y-99.468
X243.087Y-102.008
X243.087Y-104.548
X243.087Y-107.088
X243.087Y-109.628
X243.087Y-112.168
X243.087Y-119.788
X243.087Y-122.328
X243.087Y-124.868
X243.087Y-127.408
X243.087Y-129.948
X244.694Y-114.924
X244.694Y-116.524
X244.695Y-90.674
X244.695Y-92.274
X244.697Y-66.427
X244.697Y-68.027
X244.698Y-42.177
X244.698Y-43.777
X245.627Y-33.428
X245.627Y-35.968
X245.627Y-51.208
X245.627Y-53.748
X245.627Y-56.288
X245.627Y-58.828
X245.627Y-61.368
X245.627Y-74.068
X245.627Y-76.608
X245.627Y-79.148
X245.627Y-81.688
X245.627Y-84.228
X245.627Y-99.468
X245.627Y-102.008
X245.627Y-104.548
X245.627Y-107.088
X245.627Y-109.628
X245.627Y-122.328
X245.627Y-124.868
X245.627Y-127.408
X245.627Y-129.948
X247.5Y-40.175
X247.5Y-64.5
X247.5Y-88.75
X247.5Y-113.0
X247.637Y-45.75
X247.637Y-70.075
X247.637Y-94.325
X247.637Y-118.575
X248.167Y-33.428
X248.167Y-35.968
X248.167Y-41.048
X248.167Y-51.208
X248.167Y-53.748
X248.167Y-56.288
X248.167Y-58.828
X248.167Y-61.368
X248.167Y-68.988
X248.167Y-74.068
X248.167Y-76.608
X248.167Y-79.148
X248.167Y-81.688
X248.167Y-84.228
X248.167Y-89.308
X248.167Y-99.468
X248.167Y-102.008
X248.167Y-104.548
X248.167Y-107.088
X248.167Y-109.628
X248.167Y-122.328
X248.167Y-124.868
X248.167Y-127.408
X248.167Y-129.948
X248.5Y-40.175
X248.5Y-64.5
X248.5Y-88.75
X248.5Y-113.0
X248.637Y-45.75
X248.637Y-70.075
X248.637Y-94.325
X248.637Y-118.575
X249.5Y-40.175
X249.5Y-64.5
X249.5Y-88.75
X249.5Y-113.0
X249.637Y-45.75
X249.637Y-70.075
X249.637Y-94.325
X249.637Y-118.575
T2
X84.935Y-35.99
X84.935Y-38.53
X84.935Y-41.07
X84.935Y-43.61
X84.935Y-46.15
X84.935Y-48.69
X84.935Y-51.23
X84.935Y-53.77
X85.2Y-105.6
X85.2Y-108.14
X85.2Y-110.68
X87.475Y-35.99
X87.475Y-38.53
X87.475Y-41.07
X87.475Y-43.61
X87.475Y-46.15
X87.475Y-48.69
X87.475Y-51.23
X87.475Y-53.77
X96.28Y-92.92
X96.28Y-121.92
X110.56Y-34.96
X110.56Y-37.5
X113.1Y-34.96
X113.1Y-37.5
X115.64Y-34.96
X115.64Y-37.5
X118.18Y-34.96
X118.18Y-37.5
X120.72Y-34.96
X120.72Y-37.5
X123.26Y-34.96
X123.26Y-37.5
X125.8Y-34.96
X125.8Y-37.5
X127.28Y-92.92
X127.28Y-121.92
X128.34Y-34.96
X128.34Y-37.5
X130.88Y-34.96
X130.88Y-37.5
X133.42Y-34.96
X133.42Y-37.5
X135.96Y-34.96
X135.96Y-37.5
X138.5Y-34.96
X138.5Y-37.5
X141.04Y-34.96
X141.04Y-37.5
X143.58Y-34.96
X143.58Y-37.5
M30
