%TF.GenerationSoftware,KiCad,Pcbnew,9.0.5*%
%TF.CreationDate,2025-10-11T16:20:37-05:00*%
%TF.ProjectId,MAPS-010164-TR0500 Eval Board,4d415053-2d30-4313-9031-36342d545230,rev?*%
%TF.SameCoordinates,Original*%
%TF.FileFunction,Copper,L2,Bot*%
%TF.FilePolarity,Positive*%
%FSLAX46Y46*%
G04 Gerber Fmt 4.6, Leading zero omitted, Abs format (unit mm)*
G04 Created by KiCad (PCBNEW 9.0.5) date 2025-10-11 16:20:37*
%MOMM*%
%LPD*%
G01*
G04 APERTURE LIST*
%TA.AperFunction,Conductor*%
%ADD10C,0.200000*%
%TD*%
%TA.AperFunction,SMDPad,CuDef*%
%ADD11R,1.500000X5.080000*%
%TD*%
%TA.AperFunction,ComponentPad*%
%ADD12R,1.350000X1.350000*%
%TD*%
%TA.AperFunction,ComponentPad*%
%ADD13C,1.350000*%
%TD*%
%TA.AperFunction,ViaPad*%
%ADD14C,0.450000*%
%TD*%
%TA.AperFunction,ViaPad*%
%ADD15C,0.600000*%
%TD*%
%TA.AperFunction,ViaPad*%
%ADD16C,0.457200*%
%TD*%
G04 APERTURE END LIST*
%TO.N,GND*%
D10*
X82750000Y-43250000D02*
X128500000Y-43250000D01*
X128500000Y-79250000D01*
X82750000Y-79250000D01*
X82750000Y-43250000D01*
%TD*%
D11*
%TO.P,J2,2,Ext*%
%TO.N,GND*%
X101740000Y-44822500D03*
X110240000Y-44822500D03*
%TD*%
%TO.P,J6,2,Ext*%
%TO.N,GND*%
X117580000Y-44802500D03*
X126080000Y-44802500D03*
%TD*%
D12*
%TO.P,J5,1,Pin_1*%
%TO.N,SER IN*%
X88010000Y-62360000D03*
D13*
%TO.P,J5,2,Pin_2*%
X86010000Y-62360000D03*
%TO.P,J5,3,Pin_3*%
%TO.N,CLK*%
X88010000Y-60360000D03*
%TO.P,J5,4,Pin_4*%
X86010000Y-60360000D03*
%TO.P,J5,5,Pin_5*%
%TO.N,LE*%
X88010000Y-58360000D03*
%TO.P,J5,6,Pin_6*%
X86010000Y-58360000D03*
%TO.P,J5,7,Pin_7*%
%TO.N,SER OUT*%
X88010000Y-56360000D03*
%TO.P,J5,8,Pin_8*%
X86010000Y-56360000D03*
%TD*%
D12*
%TO.P,J8,1,Pin_1*%
%TO.N,Vcc*%
X86080000Y-72550000D03*
D13*
%TO.P,J8,2,Pin_2*%
X88080000Y-72550000D03*
%TO.P,J8,3,Pin_3*%
%TO.N,GND*%
X86080000Y-74550000D03*
%TO.P,J8,4,Pin_4*%
X88080000Y-74550000D03*
%TD*%
D11*
%TO.P,J1,2,Ext*%
%TO.N,GND*%
X110240000Y-77480000D03*
X101740000Y-77480000D03*
%TD*%
%TO.P,J7,2,Ext*%
%TO.N,GND*%
X126040000Y-77390000D03*
X117540000Y-77390000D03*
%TD*%
D12*
%TO.P,J4,1,Pin_1*%
%TO.N,VEE*%
X86095800Y-67430200D03*
D13*
%TO.P,J4,2,Pin_2*%
X88095800Y-67430200D03*
%TO.P,J4,3,Pin_3*%
%TO.N,GND*%
X86095800Y-69430200D03*
%TO.P,J4,4,Pin_4*%
X88095800Y-69430200D03*
%TD*%
D12*
%TO.P,J3,1,Pin_1*%
%TO.N,Vcc*%
X88000000Y-53250000D03*
D13*
%TO.P,J3,2,Pin_2*%
X86000000Y-53250000D03*
%TO.P,J3,3,Pin_3*%
%TO.N,GND*%
X88000000Y-51250000D03*
%TO.P,J3,4,Pin_4*%
X86000000Y-51250000D03*
%TD*%
D14*
%TO.N,GND*%
X106500000Y-62820000D03*
X105490000Y-62980000D03*
X105000000Y-62580000D03*
X103100000Y-60590000D03*
X103500000Y-60100000D03*
X103110000Y-59580000D03*
X104980000Y-59080000D03*
X105510000Y-58680000D03*
X107400000Y-59590000D03*
X107000000Y-60080000D03*
X107410000Y-60580000D03*
X106990000Y-61080000D03*
X107400000Y-61600000D03*
X106980000Y-62090000D03*
D15*
X122874000Y-60611000D03*
X118091000Y-58048500D03*
X117202000Y-67827500D03*
X104049000Y-73595000D03*
X126080000Y-43802500D03*
X104010000Y-48445000D03*
X104899000Y-53779000D03*
X125541000Y-64167000D03*
X123763000Y-63278000D03*
X102271000Y-72706000D03*
X126040000Y-76390000D03*
X110608000Y-67272000D03*
X104899000Y-48445000D03*
X120758000Y-64271500D03*
X117202000Y-68716500D03*
X117202000Y-50936500D03*
X101382000Y-64705000D03*
X101343000Y-52890000D03*
X107052000Y-64605000D03*
X123763000Y-62389000D03*
X107941000Y-70828000D03*
X104049000Y-70928000D03*
X117202000Y-53603500D03*
X126430000Y-71279000D03*
X108830000Y-54628000D03*
X126430000Y-64167000D03*
X107052000Y-55517000D03*
X124652000Y-53499000D03*
X110240000Y-44822500D03*
X107941000Y-55517000D03*
X118980000Y-59826500D03*
X126430000Y-57944000D03*
X107052000Y-54628000D03*
X102271000Y-65594000D03*
X125541000Y-57944000D03*
X109719000Y-48405000D03*
X110240000Y-75480000D03*
X104938000Y-70928000D03*
X101382000Y-72706000D03*
X120758000Y-71383500D03*
X118980000Y-58048500D03*
X101343000Y-54668000D03*
X124652000Y-67723000D03*
X109719000Y-52850000D03*
X117202000Y-58048500D03*
X108830000Y-49294000D03*
X101343000Y-56446000D03*
X126430000Y-66834000D03*
X126430000Y-50832000D03*
X126430000Y-49054000D03*
X118091000Y-51825500D03*
X107052000Y-68161000D03*
X117202000Y-59826500D03*
D16*
X104742000Y-61341000D03*
D15*
X118980000Y-66049500D03*
D16*
X104742000Y-59817000D03*
D15*
X104049000Y-66483000D03*
X125541000Y-50832000D03*
X102271000Y-69150000D03*
X125541000Y-59722000D03*
X101740000Y-46822500D03*
X108830000Y-66383000D03*
X103160000Y-65594000D03*
X110608000Y-68161000D03*
X123763000Y-57055000D03*
X100180000Y-64430000D03*
X117540000Y-79390000D03*
X107052000Y-69939000D03*
X110608000Y-54628000D03*
X118091000Y-68716500D03*
X102010000Y-59930000D03*
X103121000Y-49334000D03*
X117202000Y-55381500D03*
X117202000Y-54492500D03*
X103121000Y-52001000D03*
X125541000Y-69501000D03*
X126080000Y-42802500D03*
X122874000Y-56166000D03*
X118980000Y-55381500D03*
X107941000Y-69050000D03*
X118980000Y-48269500D03*
X118980000Y-64271500D03*
X109719000Y-55517000D03*
X124652000Y-60611000D03*
X118980000Y-56270500D03*
X126430000Y-65945000D03*
X104938000Y-72706000D03*
X108830000Y-69939000D03*
X107052000Y-52850000D03*
X126430000Y-70390000D03*
X101382000Y-68261000D03*
X117202000Y-51825500D03*
X118091000Y-48269500D03*
X117202000Y-70494500D03*
X104938000Y-65594000D03*
X107052000Y-51961000D03*
X117202000Y-65160500D03*
X104049000Y-65594000D03*
X108830000Y-50183000D03*
X125541000Y-62389000D03*
X123763000Y-58833000D03*
X119869000Y-58048500D03*
D16*
X105250000Y-61849000D03*
D15*
X119869000Y-48269500D03*
X108830000Y-69050000D03*
X103160000Y-67372000D03*
X107052000Y-69050000D03*
X118980000Y-49158500D03*
X118091000Y-60715500D03*
X124652000Y-49054000D03*
X110608000Y-66383000D03*
X124652000Y-55277000D03*
X122874000Y-61500000D03*
X102271000Y-66483000D03*
X126430000Y-55277000D03*
D16*
X105758000Y-61849000D03*
D15*
X120758000Y-58048500D03*
X117202000Y-72272500D03*
X107941000Y-68161000D03*
X122874000Y-71279000D03*
X118980000Y-65160500D03*
X120758000Y-74050500D03*
X126430000Y-67723000D03*
X101343000Y-57335000D03*
X118091000Y-66049500D03*
X124652000Y-52610000D03*
X110240000Y-43822500D03*
X110608000Y-70828000D03*
X117202000Y-56270500D03*
X118091000Y-74050500D03*
X110240000Y-77480000D03*
X119869000Y-56270500D03*
X120758000Y-55381500D03*
X126430000Y-61500000D03*
X122874000Y-65945000D03*
X101740000Y-78480000D03*
X110608000Y-55517000D03*
X117202000Y-63382500D03*
X101382000Y-71817000D03*
D16*
X105758000Y-60833000D03*
D15*
X101740000Y-79480000D03*
D16*
X105250000Y-61341000D03*
D15*
X102232000Y-52890000D03*
X107941000Y-67272000D03*
X126430000Y-73057000D03*
X120758000Y-56270500D03*
X118091000Y-64271500D03*
X126430000Y-72168000D03*
X108830000Y-67272000D03*
X110608000Y-48405000D03*
D16*
X104234000Y-60833000D03*
D15*
X118980000Y-68716500D03*
X110240000Y-78480000D03*
X107941000Y-51072000D03*
X104899000Y-52890000D03*
X118091000Y-49158500D03*
X118980000Y-71383500D03*
X110608000Y-49294000D03*
X101740000Y-77480000D03*
X124652000Y-73946000D03*
X109719000Y-51961000D03*
X124652000Y-70390000D03*
X126080000Y-45802500D03*
X104010000Y-51112000D03*
X108830000Y-73495000D03*
X104938000Y-71817000D03*
X126430000Y-49943000D03*
X118091000Y-72272500D03*
X101382000Y-69150000D03*
X126430000Y-58833000D03*
D16*
X105250000Y-60833000D03*
D15*
X125541000Y-56166000D03*
X123763000Y-64167000D03*
X125541000Y-52610000D03*
X126430000Y-56166000D03*
X107052000Y-72606000D03*
X124652000Y-71279000D03*
X107052000Y-50183000D03*
X126430000Y-68612000D03*
X110608000Y-56406000D03*
X118980000Y-53603500D03*
X104938000Y-68261000D03*
X102232000Y-50223000D03*
X108830000Y-71717000D03*
X110608000Y-51072000D03*
X124652000Y-65945000D03*
X109719000Y-49294000D03*
X119869000Y-72272500D03*
X107052000Y-65494000D03*
X119869000Y-74050500D03*
X122874000Y-70390000D03*
X101343000Y-53779000D03*
X117580000Y-43802500D03*
X124652000Y-72168000D03*
X108830000Y-53739000D03*
X94109200Y-64330000D03*
X125541000Y-71279000D03*
X122874000Y-51721000D03*
X118980000Y-62493500D03*
X120758000Y-61604500D03*
X107052000Y-70828000D03*
X124652000Y-68612000D03*
X118980000Y-73161500D03*
X119869000Y-49158500D03*
X125541000Y-73946000D03*
X104899000Y-51112000D03*
X101382000Y-70039000D03*
X120758000Y-50936500D03*
X118091000Y-52714500D03*
X104010000Y-49334000D03*
X101740000Y-44822500D03*
X118091000Y-57159500D03*
X103160000Y-66483000D03*
X104938000Y-70039000D03*
X118091000Y-58937500D03*
X104049000Y-68261000D03*
X109719000Y-71717000D03*
X122874000Y-54388000D03*
X102271000Y-73595000D03*
D16*
X104234000Y-59817000D03*
D15*
X123763000Y-56166000D03*
X120758000Y-52714500D03*
X119869000Y-59826500D03*
X107941000Y-64605000D03*
X125541000Y-65056000D03*
X123763000Y-54388000D03*
X122874000Y-64167000D03*
D16*
X104742000Y-61849000D03*
D15*
X117202000Y-66049500D03*
X104010000Y-50223000D03*
X95470000Y-52200000D03*
X125541000Y-67723000D03*
X108830000Y-52850000D03*
X123763000Y-57944000D03*
X104899000Y-54668000D03*
X109719000Y-56406000D03*
X110608000Y-51961000D03*
X101343000Y-52001000D03*
X109719000Y-72606000D03*
X125541000Y-65945000D03*
X109719000Y-54628000D03*
X104010000Y-57335000D03*
X102271000Y-67372000D03*
X103121000Y-55557000D03*
X101382000Y-73595000D03*
X109719000Y-69050000D03*
X118091000Y-70494500D03*
X118980000Y-70494500D03*
X125541000Y-58833000D03*
D16*
X106266000Y-61341000D03*
D15*
X108830000Y-55517000D03*
X104049000Y-71817000D03*
D16*
X106266000Y-60833000D03*
D15*
X123763000Y-49943000D03*
X126040000Y-75390000D03*
X122874000Y-65056000D03*
X102232000Y-56446000D03*
X123763000Y-65056000D03*
X125541000Y-55277000D03*
X123763000Y-55277000D03*
X117202000Y-50047500D03*
X123763000Y-48165000D03*
X109719000Y-53739000D03*
X102232000Y-49334000D03*
X118980000Y-60715500D03*
X125541000Y-48165000D03*
X110608000Y-69050000D03*
X102232000Y-52001000D03*
X120758000Y-67827500D03*
X107052000Y-56406000D03*
X125541000Y-57055000D03*
X117202000Y-71383500D03*
X122874000Y-49054000D03*
X108830000Y-68161000D03*
X125541000Y-53499000D03*
X122874000Y-73057000D03*
X107941000Y-73495000D03*
X123763000Y-59722000D03*
X101740000Y-76480000D03*
X125541000Y-73057000D03*
X107941000Y-66383000D03*
X103121000Y-54668000D03*
X124652000Y-73057000D03*
X103160000Y-68261000D03*
X126430000Y-62389000D03*
X104899000Y-55557000D03*
X120758000Y-66049500D03*
X118980000Y-61604500D03*
X125541000Y-49054000D03*
X107052000Y-71717000D03*
X117202000Y-73161500D03*
X104938000Y-69150000D03*
X118980000Y-63382500D03*
X118091000Y-61604500D03*
X126430000Y-63278000D03*
X110608000Y-57295000D03*
X104010000Y-52890000D03*
X117202000Y-62493500D03*
X110240000Y-79480000D03*
X123763000Y-61500000D03*
X119869000Y-63382500D03*
X104010000Y-55557000D03*
X123763000Y-65945000D03*
X104049000Y-69150000D03*
X117540000Y-76390000D03*
X118980000Y-52714500D03*
X119869000Y-69605500D03*
X108830000Y-65494000D03*
X102232000Y-51112000D03*
X120758000Y-73161500D03*
X103121000Y-48445000D03*
X117580000Y-46802500D03*
X119869000Y-73161500D03*
X107052000Y-66383000D03*
X107941000Y-69939000D03*
X126430000Y-65056000D03*
X120758000Y-50047500D03*
X109719000Y-67272000D03*
X100760000Y-59930200D03*
X118091000Y-50936500D03*
X107941000Y-54628000D03*
X103160000Y-73595000D03*
X104049000Y-72706000D03*
X101740000Y-45822500D03*
X126430000Y-52610000D03*
X118091000Y-69605500D03*
X123763000Y-49054000D03*
X107941000Y-51961000D03*
X118980000Y-66938500D03*
X118091000Y-65160500D03*
D16*
X104742000Y-60325000D03*
D15*
X118980000Y-69605500D03*
D16*
X106266000Y-59817000D03*
D15*
X125541000Y-51721000D03*
X104938000Y-64705000D03*
X107941000Y-71717000D03*
X122874000Y-57055000D03*
X104010000Y-54668000D03*
X124652000Y-51721000D03*
X120758000Y-60715500D03*
D16*
X104234000Y-60325000D03*
D15*
X123763000Y-72168000D03*
X104899000Y-57335000D03*
X118091000Y-59826500D03*
X103121000Y-50223000D03*
D16*
X104742000Y-60833000D03*
D15*
X120758000Y-63382500D03*
X117580000Y-42802500D03*
X110608000Y-53739000D03*
X110240000Y-46822500D03*
X109719000Y-70828000D03*
X124652000Y-57944000D03*
X126080000Y-46802500D03*
X126430000Y-54388000D03*
X110608000Y-69939000D03*
X101382000Y-65594000D03*
X119869000Y-54492500D03*
X108830000Y-64605000D03*
X125541000Y-60611000D03*
X101382000Y-70928000D03*
X102271000Y-70039000D03*
X124652000Y-58833000D03*
X119869000Y-68716500D03*
X118091000Y-63382500D03*
X118980000Y-74050500D03*
X124652000Y-54388000D03*
X107052000Y-53739000D03*
X109719000Y-73495000D03*
X109719000Y-50183000D03*
X101740000Y-75480000D03*
X109719000Y-51072000D03*
X117202000Y-52714500D03*
X108830000Y-72606000D03*
X118091000Y-55381500D03*
X126040000Y-79390000D03*
X123763000Y-51721000D03*
X118091000Y-54492500D03*
X117540000Y-77390000D03*
X119869000Y-67827500D03*
X110608000Y-72606000D03*
X103121000Y-51112000D03*
X117202000Y-61604500D03*
X125541000Y-63278000D03*
X126430000Y-73946000D03*
X120758000Y-57159500D03*
X110608000Y-73495000D03*
D16*
X105250000Y-60325000D03*
D15*
X104899000Y-56446000D03*
X122874000Y-68612000D03*
X94040000Y-60020000D03*
X110608000Y-64605000D03*
X117202000Y-57159500D03*
X103160000Y-70039000D03*
X119869000Y-61604500D03*
X123763000Y-70390000D03*
X101382000Y-66483000D03*
X110240000Y-76480000D03*
X123763000Y-73946000D03*
D16*
X104234000Y-61849000D03*
D15*
X119869000Y-53603500D03*
X117202000Y-69605500D03*
X124652000Y-57055000D03*
X120758000Y-58937500D03*
X118091000Y-53603500D03*
X122874000Y-55277000D03*
X118980000Y-57159500D03*
X118091000Y-62493500D03*
X123763000Y-66834000D03*
X103160000Y-71817000D03*
X119869000Y-60715500D03*
X126080000Y-44802500D03*
X110608000Y-50183000D03*
D16*
X105758000Y-61341000D03*
D15*
X104049000Y-70039000D03*
X104938000Y-67372000D03*
X104938000Y-66483000D03*
X108830000Y-48405000D03*
X125541000Y-68612000D03*
X101343000Y-48445000D03*
X124652000Y-49943000D03*
X124652000Y-66834000D03*
X120758000Y-65160500D03*
X122874000Y-57944000D03*
D16*
X104234000Y-61341000D03*
D15*
X119869000Y-58937500D03*
X120758000Y-72272500D03*
X107052000Y-67272000D03*
X126430000Y-48165000D03*
X122874000Y-67723000D03*
X123763000Y-73057000D03*
X104049000Y-67372000D03*
X103121000Y-53779000D03*
X110608000Y-71717000D03*
X126430000Y-57055000D03*
X123763000Y-67723000D03*
X122874000Y-52610000D03*
X93010000Y-63830000D03*
X102271000Y-71817000D03*
X124652000Y-59722000D03*
X101343000Y-49334000D03*
X122874000Y-63278000D03*
X118980000Y-51825500D03*
X109719000Y-64605000D03*
X118091000Y-50047500D03*
X124652000Y-65056000D03*
X107941000Y-48405000D03*
X126040000Y-77390000D03*
X124652000Y-62389000D03*
X102232000Y-55557000D03*
X118091000Y-71383500D03*
X107941000Y-52850000D03*
X123763000Y-69501000D03*
X124652000Y-56166000D03*
X124652000Y-63278000D03*
X102232000Y-48445000D03*
X102271000Y-70928000D03*
X102232000Y-53779000D03*
X107052000Y-51072000D03*
X108830000Y-70828000D03*
X103121000Y-57335000D03*
X94160000Y-65620000D03*
X125541000Y-54388000D03*
X119869000Y-66938500D03*
X102232000Y-54668000D03*
X103160000Y-72706000D03*
X126430000Y-53499000D03*
X123763000Y-71279000D03*
X107941000Y-65494000D03*
X119869000Y-50047500D03*
X126430000Y-69501000D03*
X107941000Y-72606000D03*
X119869000Y-51825500D03*
X123763000Y-68612000D03*
X119869000Y-71383500D03*
X103160000Y-70928000D03*
X117202000Y-66938500D03*
X103160000Y-64705000D03*
X120758000Y-68716500D03*
X107941000Y-50183000D03*
X122874000Y-59722000D03*
X107052000Y-49294000D03*
X123763000Y-53499000D03*
X126430000Y-51721000D03*
X126430000Y-60611000D03*
X119869000Y-66049500D03*
X118980000Y-50047500D03*
X110608000Y-65494000D03*
X123763000Y-60611000D03*
X102271000Y-68261000D03*
X120758000Y-49158500D03*
X104899000Y-49334000D03*
X99030000Y-64460000D03*
X101382000Y-67372000D03*
X104010000Y-53779000D03*
X124652000Y-69501000D03*
X107052000Y-73495000D03*
X101343000Y-51112000D03*
X120758000Y-48269500D03*
X117202000Y-60715500D03*
X125541000Y-61500000D03*
X92340000Y-59070000D03*
X103121000Y-56446000D03*
X101740000Y-43822500D03*
X101740000Y-42822500D03*
X117202000Y-48269500D03*
X107052000Y-57295000D03*
X120758000Y-70494500D03*
X118980000Y-58937500D03*
X103160000Y-69150000D03*
X124652000Y-50832000D03*
X109719000Y-68161000D03*
X107052000Y-48405000D03*
X104010000Y-52001000D03*
X125541000Y-70390000D03*
X101343000Y-50223000D03*
X122874000Y-72168000D03*
X117202000Y-58937500D03*
X118091000Y-67827500D03*
X107941000Y-53739000D03*
X119869000Y-50936500D03*
X108830000Y-56406000D03*
X104938000Y-73595000D03*
X118980000Y-72272500D03*
X110240000Y-42822500D03*
X108830000Y-51961000D03*
X118091000Y-66938500D03*
X120758000Y-51825500D03*
X120758000Y-53603500D03*
X104899000Y-52001000D03*
X122874000Y-73946000D03*
X104049000Y-64705000D03*
X120758000Y-54492500D03*
X118980000Y-54492500D03*
X109719000Y-57295000D03*
X117580000Y-44802500D03*
X120758000Y-62493500D03*
X108830000Y-51072000D03*
X119869000Y-52714500D03*
X107941000Y-56406000D03*
X107941000Y-57295000D03*
X120758000Y-69605500D03*
X124652000Y-48165000D03*
X126430000Y-59722000D03*
X119869000Y-64271500D03*
X107941000Y-49294000D03*
X102271000Y-64705000D03*
X109719000Y-65494000D03*
X117580000Y-45802500D03*
X117202000Y-49158500D03*
X119869000Y-57159500D03*
X123763000Y-52610000D03*
X108830000Y-57295000D03*
X117202000Y-64271500D03*
X120758000Y-66938500D03*
X117202000Y-74050500D03*
X122874000Y-62389000D03*
X104899000Y-50223000D03*
X118980000Y-67827500D03*
X118091000Y-56270500D03*
X104010000Y-56446000D03*
X122874000Y-58833000D03*
X122874000Y-66834000D03*
X101343000Y-55557000D03*
X102232000Y-57335000D03*
X110608000Y-52850000D03*
X109719000Y-66383000D03*
X122874000Y-53499000D03*
X124652000Y-64167000D03*
X124652000Y-61500000D03*
X110240000Y-45822500D03*
X103121000Y-52890000D03*
X119869000Y-55381500D03*
X122874000Y-49943000D03*
X125541000Y-66834000D03*
X122874000Y-48165000D03*
X117540000Y-78390000D03*
X119869000Y-65160500D03*
D16*
X105758000Y-60325000D03*
X105758000Y-59817000D03*
X106266000Y-60325000D03*
D15*
X117540000Y-75390000D03*
X122874000Y-69501000D03*
X123763000Y-50832000D03*
D16*
X105250000Y-59817000D03*
D15*
X122874000Y-50832000D03*
X126040000Y-78390000D03*
X119869000Y-70494500D03*
X120758000Y-59826500D03*
D16*
X106266000Y-61849000D03*
D15*
X118091000Y-73161500D03*
X125541000Y-72168000D03*
X109719000Y-69939000D03*
X125541000Y-49943000D03*
X119869000Y-62493500D03*
X118980000Y-50936500D03*
D14*
X106527600Y-58877200D03*
%TD*%
%TA.AperFunction,Conductor*%
%TO.N,GND*%
G36*
X100433039Y-43269685D02*
G01*
X100478794Y-43322489D01*
X100490000Y-43374000D01*
X100490000Y-44572500D01*
X102990000Y-44572500D01*
X102990000Y-43374000D01*
X103009685Y-43306961D01*
X103062489Y-43261206D01*
X103114000Y-43250000D01*
X108866000Y-43250000D01*
X108933039Y-43269685D01*
X108978794Y-43322489D01*
X108990000Y-43374000D01*
X108990000Y-44572500D01*
X111490000Y-44572500D01*
X111490000Y-43374000D01*
X111509685Y-43306961D01*
X111562489Y-43261206D01*
X111614000Y-43250000D01*
X116206000Y-43250000D01*
X116273039Y-43269685D01*
X116318794Y-43322489D01*
X116330000Y-43374000D01*
X116330000Y-44552500D01*
X118830000Y-44552500D01*
X118830000Y-43374000D01*
X118849685Y-43306961D01*
X118902489Y-43261206D01*
X118954000Y-43250000D01*
X124706000Y-43250000D01*
X124773039Y-43269685D01*
X124818794Y-43322489D01*
X124830000Y-43374000D01*
X124830000Y-44552500D01*
X127330000Y-44552500D01*
X127330000Y-43374000D01*
X127349685Y-43306961D01*
X127402489Y-43261206D01*
X127454000Y-43250000D01*
X128376000Y-43250000D01*
X128443039Y-43269685D01*
X128488794Y-43322489D01*
X128500000Y-43374000D01*
X128500000Y-79126000D01*
X128480315Y-79193039D01*
X128427511Y-79238794D01*
X128376000Y-79250000D01*
X127414000Y-79250000D01*
X127346961Y-79230315D01*
X127301206Y-79177511D01*
X127290000Y-79126000D01*
X127290000Y-77640000D01*
X124790000Y-77640000D01*
X124790000Y-79126000D01*
X124770315Y-79193039D01*
X124717511Y-79238794D01*
X124666000Y-79250000D01*
X118914000Y-79250000D01*
X118846961Y-79230315D01*
X118801206Y-79177511D01*
X118790000Y-79126000D01*
X118790000Y-77640000D01*
X116290000Y-77640000D01*
X116290000Y-79126000D01*
X116270315Y-79193039D01*
X116217511Y-79238794D01*
X116166000Y-79250000D01*
X111614000Y-79250000D01*
X111546961Y-79230315D01*
X111501206Y-79177511D01*
X111490000Y-79126000D01*
X111490000Y-77730000D01*
X108990000Y-77730000D01*
X108990000Y-79126000D01*
X108970315Y-79193039D01*
X108917511Y-79238794D01*
X108866000Y-79250000D01*
X103114000Y-79250000D01*
X103046961Y-79230315D01*
X103001206Y-79177511D01*
X102990000Y-79126000D01*
X102990000Y-77730000D01*
X100490000Y-77730000D01*
X100490000Y-79126000D01*
X100470315Y-79193039D01*
X100417511Y-79238794D01*
X100366000Y-79250000D01*
X82874000Y-79250000D01*
X82806961Y-79230315D01*
X82761206Y-79177511D01*
X82750000Y-79126000D01*
X82750000Y-71827135D01*
X84904500Y-71827135D01*
X84904500Y-73272870D01*
X84904501Y-73272876D01*
X84910908Y-73332483D01*
X84961202Y-73467328D01*
X84961206Y-73467335D01*
X85047452Y-73582544D01*
X85047455Y-73582547D01*
X85132938Y-73646540D01*
X85174809Y-73702473D01*
X85179793Y-73772165D01*
X85158946Y-73818690D01*
X85075051Y-73934163D01*
X84991084Y-74098956D01*
X84991083Y-74098959D01*
X84933933Y-74274852D01*
X84905000Y-74457526D01*
X84905000Y-74642473D01*
X84933933Y-74825147D01*
X84991083Y-75001040D01*
X84991084Y-75001043D01*
X85075050Y-75165834D01*
X85090015Y-75186430D01*
X85680000Y-74596445D01*
X85680000Y-74602661D01*
X85707259Y-74704394D01*
X85759920Y-74795606D01*
X85834394Y-74870080D01*
X85925606Y-74922741D01*
X86027339Y-74950000D01*
X86033553Y-74950000D01*
X85443568Y-75539983D01*
X85443568Y-75539984D01*
X85464165Y-75554949D01*
X85628956Y-75638915D01*
X85628959Y-75638916D01*
X85804852Y-75696066D01*
X85987527Y-75725000D01*
X86172473Y-75725000D01*
X86355147Y-75696066D01*
X86531040Y-75638916D01*
X86531043Y-75638915D01*
X86695836Y-75554947D01*
X86695845Y-75554942D01*
X86716430Y-75539984D01*
X86716431Y-75539983D01*
X86126448Y-74950000D01*
X86132661Y-74950000D01*
X86234394Y-74922741D01*
X86325606Y-74870080D01*
X86400080Y-74795606D01*
X86452741Y-74704394D01*
X86480000Y-74602661D01*
X86480000Y-74596447D01*
X87069983Y-75186430D01*
X87070276Y-75186408D01*
X87089729Y-75186408D01*
X87090015Y-75186430D01*
X87680000Y-74596445D01*
X87680000Y-74602661D01*
X87707259Y-74704394D01*
X87759920Y-74795606D01*
X87834394Y-74870080D01*
X87925606Y-74922741D01*
X88027339Y-74950000D01*
X88033553Y-74950000D01*
X87443568Y-75539983D01*
X87443568Y-75539984D01*
X87464165Y-75554949D01*
X87628956Y-75638915D01*
X87628959Y-75638916D01*
X87804852Y-75696066D01*
X87987527Y-75725000D01*
X88172473Y-75725000D01*
X88355147Y-75696066D01*
X88531040Y-75638916D01*
X88531043Y-75638915D01*
X88695836Y-75554947D01*
X88695845Y-75554942D01*
X88716430Y-75539984D01*
X88716431Y-75539983D01*
X88126448Y-74950000D01*
X88132661Y-74950000D01*
X88234394Y-74922741D01*
X88325606Y-74870080D01*
X88400080Y-74795606D01*
X88452741Y-74704394D01*
X88480000Y-74602661D01*
X88480000Y-74596447D01*
X89069983Y-75186430D01*
X89069984Y-75186430D01*
X89084942Y-75165845D01*
X89084947Y-75165836D01*
X89168915Y-75001043D01*
X89168916Y-75001040D01*
X89204295Y-74892155D01*
X100490000Y-74892155D01*
X100490000Y-77230000D01*
X101490000Y-77230000D01*
X101990000Y-77230000D01*
X102990000Y-77230000D01*
X102990000Y-74892172D01*
X102989999Y-74892155D01*
X108990000Y-74892155D01*
X108990000Y-77230000D01*
X109990000Y-77230000D01*
X110490000Y-77230000D01*
X111490000Y-77230000D01*
X111490000Y-74892172D01*
X111489999Y-74892155D01*
X111483598Y-74832629D01*
X111483596Y-74832618D01*
X111472234Y-74802155D01*
X116290000Y-74802155D01*
X116290000Y-77140000D01*
X117290000Y-77140000D01*
X117790000Y-77140000D01*
X118790000Y-77140000D01*
X118790000Y-74802172D01*
X118789999Y-74802155D01*
X124790000Y-74802155D01*
X124790000Y-77140000D01*
X125790000Y-77140000D01*
X126290000Y-77140000D01*
X127290000Y-77140000D01*
X127290000Y-74802172D01*
X127289999Y-74802155D01*
X127283598Y-74742627D01*
X127283596Y-74742620D01*
X127233354Y-74607913D01*
X127233350Y-74607906D01*
X127147190Y-74492812D01*
X127147187Y-74492809D01*
X127032093Y-74406649D01*
X127032086Y-74406645D01*
X126897379Y-74356403D01*
X126897372Y-74356401D01*
X126837844Y-74350000D01*
X126290000Y-74350000D01*
X126290000Y-77140000D01*
X125790000Y-77140000D01*
X125790000Y-74350000D01*
X125242155Y-74350000D01*
X125182627Y-74356401D01*
X125182620Y-74356403D01*
X125047913Y-74406645D01*
X125047906Y-74406649D01*
X124932812Y-74492809D01*
X124932809Y-74492812D01*
X124846649Y-74607906D01*
X124846645Y-74607913D01*
X124796403Y-74742620D01*
X124796401Y-74742627D01*
X124790000Y-74802155D01*
X118789999Y-74802155D01*
X118783598Y-74742627D01*
X118783596Y-74742620D01*
X118733354Y-74607913D01*
X118733350Y-74607906D01*
X118647190Y-74492812D01*
X118647187Y-74492809D01*
X118532093Y-74406649D01*
X118532086Y-74406645D01*
X118397379Y-74356403D01*
X118397372Y-74356401D01*
X118337844Y-74350000D01*
X117790000Y-74350000D01*
X117790000Y-77140000D01*
X117290000Y-77140000D01*
X117290000Y-74350000D01*
X116742155Y-74350000D01*
X116682627Y-74356401D01*
X116682620Y-74356403D01*
X116547913Y-74406645D01*
X116547906Y-74406649D01*
X116432812Y-74492809D01*
X116432809Y-74492812D01*
X116346649Y-74607906D01*
X116346645Y-74607913D01*
X116296403Y-74742620D01*
X116296401Y-74742627D01*
X116290000Y-74802155D01*
X111472234Y-74802155D01*
X111433354Y-74697913D01*
X111433350Y-74697906D01*
X111347190Y-74582812D01*
X111347187Y-74582809D01*
X111232093Y-74496649D01*
X111232086Y-74496645D01*
X111097379Y-74446403D01*
X111097372Y-74446401D01*
X111037844Y-74440000D01*
X110490000Y-74440000D01*
X110490000Y-77230000D01*
X109990000Y-77230000D01*
X109990000Y-74440000D01*
X109442155Y-74440000D01*
X109382627Y-74446401D01*
X109382620Y-74446403D01*
X109247913Y-74496645D01*
X109247906Y-74496649D01*
X109132812Y-74582809D01*
X109132809Y-74582812D01*
X109046649Y-74697906D01*
X109046645Y-74697913D01*
X108996403Y-74832620D01*
X108996401Y-74832627D01*
X108990000Y-74892155D01*
X102989999Y-74892155D01*
X102983598Y-74832627D01*
X102983596Y-74832620D01*
X102933354Y-74697913D01*
X102933350Y-74697906D01*
X102847190Y-74582812D01*
X102847187Y-74582809D01*
X102732093Y-74496649D01*
X102732086Y-74496645D01*
X102597379Y-74446403D01*
X102597372Y-74446401D01*
X102537844Y-74440000D01*
X101990000Y-74440000D01*
X101990000Y-77230000D01*
X101490000Y-77230000D01*
X101490000Y-74440000D01*
X100942155Y-74440000D01*
X100882627Y-74446401D01*
X100882620Y-74446403D01*
X100747913Y-74496645D01*
X100747906Y-74496649D01*
X100632812Y-74582809D01*
X100632809Y-74582812D01*
X100546649Y-74697906D01*
X100546645Y-74697913D01*
X100496403Y-74832620D01*
X100496401Y-74832627D01*
X100490000Y-74892155D01*
X89204295Y-74892155D01*
X89217819Y-74850533D01*
X89217819Y-74850532D01*
X89226066Y-74825149D01*
X89255000Y-74642473D01*
X89255000Y-74457526D01*
X89226066Y-74274852D01*
X89168916Y-74098959D01*
X89168915Y-74098956D01*
X89084949Y-73934165D01*
X89069983Y-73913568D01*
X88480000Y-74503551D01*
X88480000Y-74497339D01*
X88452741Y-74395606D01*
X88400080Y-74304394D01*
X88325606Y-74229920D01*
X88234394Y-74177259D01*
X88132661Y-74150000D01*
X88126446Y-74150000D01*
X88740675Y-73535771D01*
X88771165Y-73500836D01*
X88845787Y-73446621D01*
X88976621Y-73315787D01*
X89085378Y-73166096D01*
X89169379Y-73001235D01*
X89226555Y-72825264D01*
X89255500Y-72642514D01*
X89255500Y-72457486D01*
X89226555Y-72274736D01*
X89169379Y-72098765D01*
X89169379Y-72098764D01*
X89085377Y-71933903D01*
X88976621Y-71784213D01*
X88845787Y-71653379D01*
X88696096Y-71544622D01*
X88642778Y-71517455D01*
X88531235Y-71460620D01*
X88531232Y-71460619D01*
X88355265Y-71403445D01*
X88212972Y-71380908D01*
X88172514Y-71374500D01*
X87987486Y-71374500D01*
X87947028Y-71380908D01*
X87804734Y-71403445D01*
X87628767Y-71460619D01*
X87628764Y-71460620D01*
X87463900Y-71544624D01*
X87348392Y-71628545D01*
X87282586Y-71652025D01*
X87214532Y-71636199D01*
X87176241Y-71602539D01*
X87132884Y-71544622D01*
X87112546Y-71517454D01*
X87112544Y-71517453D01*
X87112544Y-71517452D01*
X86997335Y-71431206D01*
X86997328Y-71431202D01*
X86862482Y-71380908D01*
X86862483Y-71380908D01*
X86802883Y-71374501D01*
X86802881Y-71374500D01*
X86802873Y-71374500D01*
X86802864Y-71374500D01*
X85357129Y-71374500D01*
X85357123Y-71374501D01*
X85297516Y-71380908D01*
X85162671Y-71431202D01*
X85162664Y-71431206D01*
X85047455Y-71517452D01*
X85047452Y-71517455D01*
X84961206Y-71632664D01*
X84961202Y-71632671D01*
X84910908Y-71767517D01*
X84904501Y-71827116D01*
X84904500Y-71827135D01*
X82750000Y-71827135D01*
X82750000Y-66707335D01*
X84920300Y-66707335D01*
X84920300Y-68153070D01*
X84920301Y-68153076D01*
X84926708Y-68212683D01*
X84977002Y-68347528D01*
X84977006Y-68347535D01*
X85063252Y-68462744D01*
X85063255Y-68462747D01*
X85148738Y-68526740D01*
X85190609Y-68582673D01*
X85195593Y-68652365D01*
X85174746Y-68698890D01*
X85090851Y-68814363D01*
X85006884Y-68979156D01*
X85006883Y-68979159D01*
X84949733Y-69155052D01*
X84920800Y-69337726D01*
X84920800Y-69522673D01*
X84949733Y-69705347D01*
X85006883Y-69881240D01*
X85006884Y-69881243D01*
X85090850Y-70046034D01*
X85105815Y-70066630D01*
X85695800Y-69476645D01*
X85695800Y-69482861D01*
X85723059Y-69584594D01*
X85775720Y-69675806D01*
X85850194Y-69750280D01*
X85941406Y-69802941D01*
X86043139Y-69830200D01*
X86049353Y-69830200D01*
X85459368Y-70420183D01*
X85459368Y-70420184D01*
X85479965Y-70435149D01*
X85644756Y-70519115D01*
X85644759Y-70519116D01*
X85820652Y-70576266D01*
X86003327Y-70605200D01*
X86188273Y-70605200D01*
X86370947Y-70576266D01*
X86546840Y-70519116D01*
X86546843Y-70519115D01*
X86711636Y-70435147D01*
X86711645Y-70435142D01*
X86732230Y-70420184D01*
X86732231Y-70420183D01*
X86142248Y-69830200D01*
X86148461Y-69830200D01*
X86250194Y-69802941D01*
X86341406Y-69750280D01*
X86415880Y-69675806D01*
X86468541Y-69584594D01*
X86495800Y-69482861D01*
X86495800Y-69476647D01*
X87085783Y-70066630D01*
X87086076Y-70066608D01*
X87105529Y-70066608D01*
X87105815Y-70066630D01*
X87695800Y-69476645D01*
X87695800Y-69482861D01*
X87723059Y-69584594D01*
X87775720Y-69675806D01*
X87850194Y-69750280D01*
X87941406Y-69802941D01*
X88043139Y-69830200D01*
X88049353Y-69830200D01*
X87459368Y-70420183D01*
X87459368Y-70420184D01*
X87479965Y-70435149D01*
X87644756Y-70519115D01*
X87644759Y-70519116D01*
X87820652Y-70576266D01*
X88003327Y-70605200D01*
X88188273Y-70605200D01*
X88370947Y-70576266D01*
X88546840Y-70519116D01*
X88546843Y-70519115D01*
X88711636Y-70435147D01*
X88711645Y-70435142D01*
X88732230Y-70420184D01*
X88732231Y-70420183D01*
X88142248Y-69830200D01*
X88148461Y-69830200D01*
X88250194Y-69802941D01*
X88341406Y-69750280D01*
X88415880Y-69675806D01*
X88468541Y-69584594D01*
X88495800Y-69482861D01*
X88495800Y-69476647D01*
X89085783Y-70066630D01*
X89085784Y-70066630D01*
X89100742Y-70046045D01*
X89100747Y-70046036D01*
X89184715Y-69881243D01*
X89184716Y-69881240D01*
X89241866Y-69705347D01*
X89270800Y-69522673D01*
X89270800Y-69337726D01*
X89241866Y-69155052D01*
X89184716Y-68979159D01*
X89184715Y-68979156D01*
X89100749Y-68814365D01*
X89085783Y-68793768D01*
X88495800Y-69383751D01*
X88495800Y-69377539D01*
X88468541Y-69275806D01*
X88415880Y-69184594D01*
X88341406Y-69110120D01*
X88250194Y-69057459D01*
X88148461Y-69030200D01*
X88142246Y-69030200D01*
X88756475Y-68415971D01*
X88786965Y-68381036D01*
X88861587Y-68326821D01*
X88992421Y-68195987D01*
X89101178Y-68046296D01*
X89185179Y-67881435D01*
X89242355Y-67705464D01*
X89271300Y-67522714D01*
X89271300Y-67337686D01*
X89242355Y-67154936D01*
X89185179Y-66978965D01*
X89185179Y-66978964D01*
X89101177Y-66814103D01*
X88992421Y-66664413D01*
X88861587Y-66533579D01*
X88711896Y-66424822D01*
X88658578Y-66397655D01*
X88547035Y-66340820D01*
X88547032Y-66340819D01*
X88371065Y-66283645D01*
X88228772Y-66261108D01*
X88188314Y-66254700D01*
X88003286Y-66254700D01*
X87962828Y-66261108D01*
X87820534Y-66283645D01*
X87644567Y-66340819D01*
X87644564Y-66340820D01*
X87479700Y-66424824D01*
X87364192Y-66508745D01*
X87298386Y-66532225D01*
X87230332Y-66516399D01*
X87192041Y-66482739D01*
X87148684Y-66424822D01*
X87128346Y-66397654D01*
X87128344Y-66397653D01*
X87128344Y-66397652D01*
X87013135Y-66311406D01*
X87013128Y-66311402D01*
X86878282Y-66261108D01*
X86878283Y-66261108D01*
X86818683Y-66254701D01*
X86818681Y-66254700D01*
X86818673Y-66254700D01*
X86818664Y-66254700D01*
X85372929Y-66254700D01*
X85372923Y-66254701D01*
X85313316Y-66261108D01*
X85178471Y-66311402D01*
X85178464Y-66311406D01*
X85063255Y-66397652D01*
X85063252Y-66397655D01*
X84977006Y-66512864D01*
X84977002Y-66512871D01*
X84926708Y-66647717D01*
X84920301Y-66707316D01*
X84920300Y-66707335D01*
X82750000Y-66707335D01*
X82750000Y-56267486D01*
X84834500Y-56267486D01*
X84834500Y-56452513D01*
X84863445Y-56635265D01*
X84920619Y-56811232D01*
X84920620Y-56811235D01*
X85004622Y-56976096D01*
X85113379Y-57125787D01*
X85244213Y-57256621D01*
X85248421Y-57259678D01*
X85248432Y-57259686D01*
X85291094Y-57315019D01*
X85297069Y-57384633D01*
X85264459Y-57446426D01*
X85248432Y-57460314D01*
X85244210Y-57463381D01*
X85113381Y-57594210D01*
X85113381Y-57594211D01*
X85113379Y-57594213D01*
X85079318Y-57641094D01*
X85004622Y-57743903D01*
X84920620Y-57908764D01*
X84920619Y-57908767D01*
X84863445Y-58084734D01*
X84834500Y-58267486D01*
X84834500Y-58452513D01*
X84863445Y-58635265D01*
X84920619Y-58811232D01*
X84920620Y-58811235D01*
X85004622Y-58976096D01*
X85113379Y-59125787D01*
X85244213Y-59256621D01*
X85248421Y-59259678D01*
X85248432Y-59259686D01*
X85291094Y-59315019D01*
X85297069Y-59384633D01*
X85264459Y-59446426D01*
X85248432Y-59460314D01*
X85244210Y-59463381D01*
X85113381Y-59594210D01*
X85113381Y-59594211D01*
X85113379Y-59594213D01*
X85079318Y-59641094D01*
X85004622Y-59743903D01*
X84920620Y-59908764D01*
X84920619Y-59908767D01*
X84863445Y-60084734D01*
X84834500Y-60267486D01*
X84834500Y-60452513D01*
X84863445Y-60635265D01*
X84920619Y-60811232D01*
X84920620Y-60811235D01*
X85004622Y-60976096D01*
X85113379Y-61125787D01*
X85244213Y-61256621D01*
X85248432Y-61259686D01*
X85291094Y-61315019D01*
X85297069Y-61384633D01*
X85264459Y-61446426D01*
X85248432Y-61460314D01*
X85244210Y-61463381D01*
X85113381Y-61594210D01*
X85113381Y-61594211D01*
X85113379Y-61594213D01*
X85082199Y-61637129D01*
X85004622Y-61743903D01*
X84920620Y-61908764D01*
X84920619Y-61908767D01*
X84863445Y-62084734D01*
X84834500Y-62267486D01*
X84834500Y-62452513D01*
X84863445Y-62635265D01*
X84920619Y-62811232D01*
X84920620Y-62811235D01*
X85004622Y-62976096D01*
X85113379Y-63125787D01*
X85244213Y-63256621D01*
X85393904Y-63365378D01*
X85447224Y-63392546D01*
X85558764Y-63449379D01*
X85558767Y-63449380D01*
X85646750Y-63477967D01*
X85734736Y-63506555D01*
X85917486Y-63535500D01*
X85917487Y-63535500D01*
X86102513Y-63535500D01*
X86102514Y-63535500D01*
X86285264Y-63506555D01*
X86461235Y-63449379D01*
X86626096Y-63365378D01*
X86741608Y-63281453D01*
X86807412Y-63257974D01*
X86875466Y-63273799D01*
X86913758Y-63307460D01*
X86977455Y-63392547D01*
X87092664Y-63478793D01*
X87092671Y-63478797D01*
X87227517Y-63529091D01*
X87227516Y-63529091D01*
X87234444Y-63529835D01*
X87287127Y-63535500D01*
X88732872Y-63535499D01*
X88792483Y-63529091D01*
X88927331Y-63478796D01*
X89042546Y-63392546D01*
X89128796Y-63277331D01*
X89179091Y-63142483D01*
X89185500Y-63082873D01*
X89185499Y-61637128D01*
X89179091Y-61577517D01*
X89165775Y-61541816D01*
X89128797Y-61442671D01*
X89128793Y-61442664D01*
X89042547Y-61327455D01*
X88957460Y-61263758D01*
X88915590Y-61207824D01*
X88910606Y-61138132D01*
X88931452Y-61091609D01*
X89015378Y-60976096D01*
X89099379Y-60811235D01*
X89156555Y-60635264D01*
X89185500Y-60452514D01*
X89185500Y-60267486D01*
X89156555Y-60084736D01*
X89099379Y-59908765D01*
X89099379Y-59908764D01*
X89015377Y-59743903D01*
X89009999Y-59736501D01*
X88906621Y-59594213D01*
X88775787Y-59463379D01*
X88771576Y-59460319D01*
X88728909Y-59404994D01*
X88722926Y-59335381D01*
X88755529Y-59273585D01*
X88771570Y-59259684D01*
X88775787Y-59256621D01*
X88906621Y-59125787D01*
X89015378Y-58976096D01*
X89099379Y-58811235D01*
X89156555Y-58635264D01*
X89185500Y-58452514D01*
X89185500Y-58267486D01*
X89156555Y-58084736D01*
X89099379Y-57908765D01*
X89099379Y-57908764D01*
X89015377Y-57743903D01*
X89009999Y-57736501D01*
X88906621Y-57594213D01*
X88775787Y-57463379D01*
X88771576Y-57460319D01*
X88728909Y-57404994D01*
X88722926Y-57335381D01*
X88755529Y-57273585D01*
X88771570Y-57259684D01*
X88775787Y-57256621D01*
X88906621Y-57125787D01*
X89015378Y-56976096D01*
X89099379Y-56811235D01*
X89156555Y-56635264D01*
X89185500Y-56452514D01*
X89185500Y-56267486D01*
X89156555Y-56084736D01*
X89099379Y-55908765D01*
X89099379Y-55908764D01*
X89015377Y-55743903D01*
X89009999Y-55736501D01*
X88906621Y-55594213D01*
X88775787Y-55463379D01*
X88626096Y-55354622D01*
X88461235Y-55270620D01*
X88461232Y-55270619D01*
X88285265Y-55213445D01*
X88193889Y-55198972D01*
X88102514Y-55184500D01*
X87917486Y-55184500D01*
X87856569Y-55194148D01*
X87734734Y-55213445D01*
X87558767Y-55270619D01*
X87558764Y-55270620D01*
X87393903Y-55354622D01*
X87308499Y-55416672D01*
X87244213Y-55463379D01*
X87244211Y-55463381D01*
X87244210Y-55463381D01*
X87113381Y-55594210D01*
X87110314Y-55598432D01*
X87054981Y-55641094D01*
X86985367Y-55647069D01*
X86923574Y-55614459D01*
X86909686Y-55598432D01*
X86906621Y-55594213D01*
X86775787Y-55463379D01*
X86626096Y-55354622D01*
X86461235Y-55270620D01*
X86461232Y-55270619D01*
X86285265Y-55213445D01*
X86193889Y-55198972D01*
X86102514Y-55184500D01*
X85917486Y-55184500D01*
X85856569Y-55194148D01*
X85734734Y-55213445D01*
X85558767Y-55270619D01*
X85558764Y-55270620D01*
X85393903Y-55354622D01*
X85308499Y-55416672D01*
X85244213Y-55463379D01*
X85244211Y-55463381D01*
X85244210Y-55463381D01*
X85113381Y-55594210D01*
X85113381Y-55594211D01*
X85113379Y-55594213D01*
X85079318Y-55641094D01*
X85004622Y-55743903D01*
X84920620Y-55908764D01*
X84920619Y-55908767D01*
X84863445Y-56084734D01*
X84834500Y-56267486D01*
X82750000Y-56267486D01*
X82750000Y-53157486D01*
X84824500Y-53157486D01*
X84824500Y-53342513D01*
X84853445Y-53525265D01*
X84910619Y-53701232D01*
X84910620Y-53701235D01*
X84994622Y-53866096D01*
X85103379Y-54015787D01*
X85234213Y-54146621D01*
X85383904Y-54255378D01*
X85437224Y-54282546D01*
X85548764Y-54339379D01*
X85548767Y-54339380D01*
X85636750Y-54367967D01*
X85724736Y-54396555D01*
X85907486Y-54425500D01*
X85907487Y-54425500D01*
X86092513Y-54425500D01*
X86092514Y-54425500D01*
X86275264Y-54396555D01*
X86451235Y-54339379D01*
X86616096Y-54255378D01*
X86731608Y-54171453D01*
X86797412Y-54147974D01*
X86865466Y-54163799D01*
X86903758Y-54197460D01*
X86967455Y-54282547D01*
X87082664Y-54368793D01*
X87082671Y-54368797D01*
X87217517Y-54419091D01*
X87217516Y-54419091D01*
X87224444Y-54419835D01*
X87277127Y-54425500D01*
X88722872Y-54425499D01*
X88782483Y-54419091D01*
X88917331Y-54368796D01*
X89032546Y-54282546D01*
X89118796Y-54167331D01*
X89169091Y-54032483D01*
X89175500Y-53972873D01*
X89175499Y-52527128D01*
X89169091Y-52467517D01*
X89155775Y-52431816D01*
X89118797Y-52332671D01*
X89118793Y-52332664D01*
X89032547Y-52217455D01*
X88947059Y-52153458D01*
X88905189Y-52097524D01*
X88900205Y-52027832D01*
X88921054Y-51981306D01*
X89004947Y-51865838D01*
X89088915Y-51701043D01*
X89088916Y-51701040D01*
X89146066Y-51525147D01*
X89175000Y-51342473D01*
X89175000Y-51157526D01*
X89146066Y-50974852D01*
X89088916Y-50798959D01*
X89088915Y-50798956D01*
X89004949Y-50634165D01*
X88989983Y-50613568D01*
X88400000Y-51203551D01*
X88400000Y-51197339D01*
X88372741Y-51095606D01*
X88320080Y-51004394D01*
X88245606Y-50929920D01*
X88154394Y-50877259D01*
X88052661Y-50850000D01*
X88046447Y-50850000D01*
X88636431Y-50260016D01*
X88636430Y-50260015D01*
X88615834Y-50245050D01*
X88451043Y-50161084D01*
X88451040Y-50161083D01*
X88275147Y-50103933D01*
X88092473Y-50075000D01*
X87907527Y-50075000D01*
X87724852Y-50103933D01*
X87548959Y-50161083D01*
X87548956Y-50161084D01*
X87384167Y-50245049D01*
X87363568Y-50260015D01*
X87953554Y-50850000D01*
X87947339Y-50850000D01*
X87845606Y-50877259D01*
X87754394Y-50929920D01*
X87679920Y-51004394D01*
X87627259Y-51095606D01*
X87600000Y-51197339D01*
X87600000Y-51203552D01*
X87010014Y-50613566D01*
X87009730Y-50613589D01*
X86990270Y-50613589D01*
X86989985Y-50613566D01*
X86400000Y-51203553D01*
X86400000Y-51197339D01*
X86372741Y-51095606D01*
X86320080Y-51004394D01*
X86245606Y-50929920D01*
X86154394Y-50877259D01*
X86052661Y-50850000D01*
X86046447Y-50850000D01*
X86636431Y-50260015D01*
X86615834Y-50245050D01*
X86451043Y-50161084D01*
X86451040Y-50161083D01*
X86275147Y-50103933D01*
X86092473Y-50075000D01*
X85907527Y-50075000D01*
X85724852Y-50103933D01*
X85548959Y-50161083D01*
X85548956Y-50161084D01*
X85384167Y-50245049D01*
X85363568Y-50260015D01*
X85953554Y-50850000D01*
X85947339Y-50850000D01*
X85845606Y-50877259D01*
X85754394Y-50929920D01*
X85679920Y-51004394D01*
X85627259Y-51095606D01*
X85600000Y-51197339D01*
X85600000Y-51203553D01*
X85010015Y-50613568D01*
X84995049Y-50634167D01*
X84911084Y-50798956D01*
X84911083Y-50798959D01*
X84853933Y-50974852D01*
X84825000Y-51157526D01*
X84825000Y-51342473D01*
X84853933Y-51525147D01*
X84911083Y-51701040D01*
X84911084Y-51701043D01*
X84995050Y-51865834D01*
X85010015Y-51886430D01*
X85600000Y-51296445D01*
X85600000Y-51302661D01*
X85627259Y-51404394D01*
X85679920Y-51495606D01*
X85754394Y-51570080D01*
X85845606Y-51622741D01*
X85947339Y-51650000D01*
X85953553Y-51650000D01*
X85339354Y-52264196D01*
X85308833Y-52299163D01*
X85234213Y-52353378D01*
X85103381Y-52484210D01*
X85103381Y-52484211D01*
X85103379Y-52484213D01*
X85072199Y-52527129D01*
X84994622Y-52633903D01*
X84910620Y-52798764D01*
X84910619Y-52798767D01*
X84853445Y-52974734D01*
X84824500Y-53157486D01*
X82750000Y-53157486D01*
X82750000Y-47410344D01*
X100490000Y-47410344D01*
X100496401Y-47469872D01*
X100496403Y-47469879D01*
X100546645Y-47604586D01*
X100546649Y-47604593D01*
X100632809Y-47719687D01*
X100632812Y-47719690D01*
X100747906Y-47805850D01*
X100747913Y-47805854D01*
X100882620Y-47856096D01*
X100882627Y-47856098D01*
X100942155Y-47862499D01*
X100942172Y-47862500D01*
X101490000Y-47862500D01*
X101990000Y-47862500D01*
X102537828Y-47862500D01*
X102537844Y-47862499D01*
X102597372Y-47856098D01*
X102597379Y-47856096D01*
X102732086Y-47805854D01*
X102732093Y-47805850D01*
X102847187Y-47719690D01*
X102847190Y-47719687D01*
X102933350Y-47604593D01*
X102933354Y-47604586D01*
X102983596Y-47469879D01*
X102983598Y-47469872D01*
X102989999Y-47410344D01*
X108990000Y-47410344D01*
X108996401Y-47469872D01*
X108996403Y-47469879D01*
X109046645Y-47604586D01*
X109046649Y-47604593D01*
X109132809Y-47719687D01*
X109132812Y-47719690D01*
X109247906Y-47805850D01*
X109247913Y-47805854D01*
X109382620Y-47856096D01*
X109382627Y-47856098D01*
X109442155Y-47862499D01*
X109442172Y-47862500D01*
X109990000Y-47862500D01*
X110490000Y-47862500D01*
X111037828Y-47862500D01*
X111037844Y-47862499D01*
X111097372Y-47856098D01*
X111097379Y-47856096D01*
X111232086Y-47805854D01*
X111232093Y-47805850D01*
X111347187Y-47719690D01*
X111347190Y-47719687D01*
X111433350Y-47604593D01*
X111433354Y-47604586D01*
X111483596Y-47469879D01*
X111483598Y-47469872D01*
X111489999Y-47410344D01*
X111490000Y-47410327D01*
X111490000Y-47390344D01*
X116330000Y-47390344D01*
X116336401Y-47449872D01*
X116336403Y-47449879D01*
X116386645Y-47584586D01*
X116386649Y-47584593D01*
X116472809Y-47699687D01*
X116472812Y-47699690D01*
X116587906Y-47785850D01*
X116587913Y-47785854D01*
X116722620Y-47836096D01*
X116722627Y-47836098D01*
X116782155Y-47842499D01*
X116782172Y-47842500D01*
X117330000Y-47842500D01*
X117830000Y-47842500D01*
X118377828Y-47842500D01*
X118377844Y-47842499D01*
X118437372Y-47836098D01*
X118437379Y-47836096D01*
X118572086Y-47785854D01*
X118572093Y-47785850D01*
X118687187Y-47699690D01*
X118687190Y-47699687D01*
X118773350Y-47584593D01*
X118773354Y-47584586D01*
X118823596Y-47449879D01*
X118823598Y-47449872D01*
X118829999Y-47390344D01*
X124830000Y-47390344D01*
X124836401Y-47449872D01*
X124836403Y-47449879D01*
X124886645Y-47584586D01*
X124886649Y-47584593D01*
X124972809Y-47699687D01*
X124972812Y-47699690D01*
X125087906Y-47785850D01*
X125087913Y-47785854D01*
X125222620Y-47836096D01*
X125222627Y-47836098D01*
X125282155Y-47842499D01*
X125282172Y-47842500D01*
X125830000Y-47842500D01*
X126330000Y-47842500D01*
X126877828Y-47842500D01*
X126877844Y-47842499D01*
X126937372Y-47836098D01*
X126937379Y-47836096D01*
X127072086Y-47785854D01*
X127072093Y-47785850D01*
X127187187Y-47699690D01*
X127187190Y-47699687D01*
X127273350Y-47584593D01*
X127273354Y-47584586D01*
X127323596Y-47449879D01*
X127323598Y-47449872D01*
X127329999Y-47390344D01*
X127330000Y-47390327D01*
X127330000Y-45052500D01*
X126330000Y-45052500D01*
X126330000Y-47842500D01*
X125830000Y-47842500D01*
X125830000Y-45052500D01*
X124830000Y-45052500D01*
X124830000Y-47390344D01*
X118829999Y-47390344D01*
X118830000Y-47390327D01*
X118830000Y-45052500D01*
X117830000Y-45052500D01*
X117830000Y-47842500D01*
X117330000Y-47842500D01*
X117330000Y-45052500D01*
X116330000Y-45052500D01*
X116330000Y-47390344D01*
X111490000Y-47390344D01*
X111490000Y-45072500D01*
X110490000Y-45072500D01*
X110490000Y-47862500D01*
X109990000Y-47862500D01*
X109990000Y-45072500D01*
X108990000Y-45072500D01*
X108990000Y-47410344D01*
X102989999Y-47410344D01*
X102990000Y-47410327D01*
X102990000Y-45072500D01*
X101990000Y-45072500D01*
X101990000Y-47862500D01*
X101490000Y-47862500D01*
X101490000Y-45072500D01*
X100490000Y-45072500D01*
X100490000Y-47410344D01*
X82750000Y-47410344D01*
X82750000Y-43374000D01*
X82769685Y-43306961D01*
X82822489Y-43261206D01*
X82874000Y-43250000D01*
X100366000Y-43250000D01*
X100433039Y-43269685D01*
G37*
%TD.AperFunction*%
%TD*%
M02*
