%TF.GenerationSoftware,KiCad,Pcbnew,9.0.5*%
%TF.CreationDate,2025-10-11T16:20:55-05:00*%
%TF.ProjectId,MAPS-010164-TR0500 Eval Board,4d415053-2d30-4313-9031-36342d545230,rev?*%
%TF.SameCoordinates,Original*%
%TF.FileFunction,Drillmap*%
%TF.FilePolarity,Positive*%
%FSLAX45Y45*%
G04 Gerber Fmt 4.5, Leading zero omitted, Abs format (unit mm)*
G04 Created by KiCad (PCBNEW 9.0.5) date 2025-10-11 16:20:55*
%MOMM*%
%LPD*%
G01*
G04 APERTURE LIST*
%ADD10C,0.050000*%
%ADD11C,0.200000*%
G04 APERTURE END LIST*
D10*
X8117840Y-4170680D02*
X12971540Y-4170680D01*
X12971540Y-8053680D01*
X8117840Y-8053680D01*
X8117840Y-4170680D01*
D11*
X8376117Y-8367664D02*
X8376117Y-8167664D01*
X8376117Y-8167664D02*
X8423736Y-8167664D01*
X8423736Y-8167664D02*
X8452307Y-8177188D01*
X8452307Y-8177188D02*
X8471355Y-8196235D01*
X8471355Y-8196235D02*
X8480879Y-8215283D01*
X8480879Y-8215283D02*
X8490403Y-8253378D01*
X8490403Y-8253378D02*
X8490403Y-8281949D01*
X8490403Y-8281949D02*
X8480879Y-8320045D01*
X8480879Y-8320045D02*
X8471355Y-8339092D01*
X8471355Y-8339092D02*
X8452307Y-8358140D01*
X8452307Y-8358140D02*
X8423736Y-8367664D01*
X8423736Y-8367664D02*
X8376117Y-8367664D01*
X8576117Y-8367664D02*
X8576117Y-8234330D01*
X8576117Y-8272426D02*
X8585641Y-8253378D01*
X8585641Y-8253378D02*
X8595164Y-8243854D01*
X8595164Y-8243854D02*
X8614212Y-8234330D01*
X8614212Y-8234330D02*
X8633260Y-8234330D01*
X8699926Y-8367664D02*
X8699926Y-8234330D01*
X8699926Y-8167664D02*
X8690403Y-8177188D01*
X8690403Y-8177188D02*
X8699926Y-8186711D01*
X8699926Y-8186711D02*
X8709450Y-8177188D01*
X8709450Y-8177188D02*
X8699926Y-8167664D01*
X8699926Y-8167664D02*
X8699926Y-8186711D01*
X8823736Y-8367664D02*
X8804688Y-8358140D01*
X8804688Y-8358140D02*
X8795164Y-8339092D01*
X8795164Y-8339092D02*
X8795164Y-8167664D01*
X8928498Y-8367664D02*
X8909450Y-8358140D01*
X8909450Y-8358140D02*
X8899926Y-8339092D01*
X8899926Y-8339092D02*
X8899926Y-8167664D01*
X9157069Y-8367664D02*
X9157069Y-8167664D01*
X9157069Y-8167664D02*
X9223736Y-8310521D01*
X9223736Y-8310521D02*
X9290403Y-8167664D01*
X9290403Y-8167664D02*
X9290403Y-8367664D01*
X9471355Y-8367664D02*
X9471355Y-8262902D01*
X9471355Y-8262902D02*
X9461831Y-8243854D01*
X9461831Y-8243854D02*
X9442784Y-8234330D01*
X9442784Y-8234330D02*
X9404688Y-8234330D01*
X9404688Y-8234330D02*
X9385641Y-8243854D01*
X9471355Y-8358140D02*
X9452307Y-8367664D01*
X9452307Y-8367664D02*
X9404688Y-8367664D01*
X9404688Y-8367664D02*
X9385641Y-8358140D01*
X9385641Y-8358140D02*
X9376117Y-8339092D01*
X9376117Y-8339092D02*
X9376117Y-8320045D01*
X9376117Y-8320045D02*
X9385641Y-8300997D01*
X9385641Y-8300997D02*
X9404688Y-8291473D01*
X9404688Y-8291473D02*
X9452307Y-8291473D01*
X9452307Y-8291473D02*
X9471355Y-8281949D01*
X9566593Y-8234330D02*
X9566593Y-8434330D01*
X9566593Y-8243854D02*
X9585641Y-8234330D01*
X9585641Y-8234330D02*
X9623736Y-8234330D01*
X9623736Y-8234330D02*
X9642784Y-8243854D01*
X9642784Y-8243854D02*
X9652307Y-8253378D01*
X9652307Y-8253378D02*
X9661831Y-8272426D01*
X9661831Y-8272426D02*
X9661831Y-8329568D01*
X9661831Y-8329568D02*
X9652307Y-8348616D01*
X9652307Y-8348616D02*
X9642784Y-8358140D01*
X9642784Y-8358140D02*
X9623736Y-8367664D01*
X9623736Y-8367664D02*
X9585641Y-8367664D01*
X9585641Y-8367664D02*
X9566593Y-8358140D01*
X9747545Y-8348616D02*
X9757069Y-8358140D01*
X9757069Y-8358140D02*
X9747545Y-8367664D01*
X9747545Y-8367664D02*
X9738022Y-8358140D01*
X9738022Y-8358140D02*
X9747545Y-8348616D01*
X9747545Y-8348616D02*
X9747545Y-8367664D01*
X9747545Y-8243854D02*
X9757069Y-8253378D01*
X9757069Y-8253378D02*
X9747545Y-8262902D01*
X9747545Y-8262902D02*
X9738022Y-8253378D01*
X9738022Y-8253378D02*
X9747545Y-8243854D01*
X9747545Y-8243854D02*
X9747545Y-8262902D01*
M02*
