M48
; DRILL file {KiCad 9.0.5} date 2025-10-11T16:20:55-0500
; FORMAT={-:-/ absolute / metric / decimal}
; #@! TF.CreationDate,2025-10-11T16:20:55-05:00
; #@! TF.GenerationSoftware,Kicad,Pcbnew,9.0.5
; #@! TF.FileFunction,Plated,1,2,PTH
FMAT,2
METRIC
; #@! TA.AperFunction,Plated,PTH,ViaDrill
T1C0.200
; #@! TA.AperFunction,Plated,PTH,ViaDrill
T2C0.203
; #@! TA.AperFunction,Plated,PTH,ViaDrill
T3C0.300
; #@! TA.AperFunction,Plated,PTH,ComponentDrill
T4C0.800
%
G90
G05
T1
X103.1Y-60.59
X103.11Y-59.58
X103.5Y-60.1
X104.98Y-59.08
X105.0Y-62.58
X105.49Y-62.98
X105.51Y-58.68
X106.5Y-62.82
X106.528Y-58.877
X106.98Y-62.09
X106.99Y-61.08
X107.0Y-60.08
X107.4Y-59.59
X107.4Y-61.6
X107.41Y-60.58
T2
X104.234Y-59.817
X104.234Y-60.325
X104.234Y-60.833
X104.234Y-61.341
X104.234Y-61.849
X104.742Y-59.817
X104.742Y-60.325
X104.742Y-60.833
X104.742Y-61.341
X104.742Y-61.849
X105.25Y-59.817
X105.25Y-60.325
X105.25Y-60.833
X105.25Y-61.341
X105.25Y-61.849
X105.758Y-59.817
X105.758Y-60.325
X105.758Y-60.833
X105.758Y-61.341
X105.758Y-61.849
X106.266Y-59.817
X106.266Y-60.325
X106.266Y-60.833
X106.266Y-61.341
X106.266Y-61.849
T3
X92.34Y-59.07
X93.01Y-63.83
X94.04Y-60.02
X94.109Y-64.33
X94.16Y-65.62
X95.47Y-52.2
X99.03Y-64.46
X100.18Y-64.43
X100.76Y-59.93
X101.343Y-48.445
X101.343Y-49.334
X101.343Y-50.223
X101.343Y-51.112
X101.343Y-52.001
X101.343Y-52.89
X101.343Y-53.779
X101.343Y-54.668
X101.343Y-55.557
X101.343Y-56.446
X101.343Y-57.335
X101.382Y-64.705
X101.382Y-65.594
X101.382Y-66.483
X101.382Y-67.372
X101.382Y-68.261
X101.382Y-69.15
X101.382Y-70.039
X101.382Y-70.928
X101.382Y-71.817
X101.382Y-72.706
X101.382Y-73.595
X101.74Y-42.822
X101.74Y-43.822
X101.74Y-44.822
X101.74Y-45.822
X101.74Y-46.822
X101.74Y-75.48
X101.74Y-76.48
X101.74Y-77.48
X101.74Y-78.48
X101.74Y-79.48
X102.01Y-59.93
X102.232Y-48.445
X102.232Y-49.334
X102.232Y-50.223
X102.232Y-51.112
X102.232Y-52.001
X102.232Y-52.89
X102.232Y-53.779
X102.232Y-54.668
X102.232Y-55.557
X102.232Y-56.446
X102.232Y-57.335
X102.271Y-64.705
X102.271Y-65.594
X102.271Y-66.483
X102.271Y-67.372
X102.271Y-68.261
X102.271Y-69.15
X102.271Y-70.039
X102.271Y-70.928
X102.271Y-71.817
X102.271Y-72.706
X102.271Y-73.595
X103.121Y-48.445
X103.121Y-49.334
X103.121Y-50.223
X103.121Y-51.112
X103.121Y-52.001
X103.121Y-52.89
X103.121Y-53.779
X103.121Y-54.668
X103.121Y-55.557
X103.121Y-56.446
X103.121Y-57.335
X103.16Y-64.705
X103.16Y-65.594
X103.16Y-66.483
X103.16Y-67.372
X103.16Y-68.261
X103.16Y-69.15
X103.16Y-70.039
X103.16Y-70.928
X103.16Y-71.817
X103.16Y-72.706
X103.16Y-73.595
X104.01Y-48.445
X104.01Y-49.334
X104.01Y-50.223
X104.01Y-51.112
X104.01Y-52.001
X104.01Y-52.89
X104.01Y-53.779
X104.01Y-54.668
X104.01Y-55.557
X104.01Y-56.446
X104.01Y-57.335
X104.049Y-64.705
X104.049Y-65.594
X104.049Y-66.483
X104.049Y-67.372
X104.049Y-68.261
X104.049Y-69.15
X104.049Y-70.039
X104.049Y-70.928
X104.049Y-71.817
X104.049Y-72.706
X104.049Y-73.595
X104.899Y-48.445
X104.899Y-49.334
X104.899Y-50.223
X104.899Y-51.112
X104.899Y-52.001
X104.899Y-52.89
X104.899Y-53.779
X104.899Y-54.668
X104.899Y-55.557
X104.899Y-56.446
X104.899Y-57.335
X104.938Y-64.705
X104.938Y-65.594
X104.938Y-66.483
X104.938Y-67.372
X104.938Y-68.261
X104.938Y-69.15
X104.938Y-70.039
X104.938Y-70.928
X104.938Y-71.817
X104.938Y-72.706
X104.938Y-73.595
X107.052Y-48.405
X107.052Y-49.294
X107.052Y-50.183
X107.052Y-51.072
X107.052Y-51.961
X107.052Y-52.85
X107.052Y-53.739
X107.052Y-54.628
X107.052Y-55.517
X107.052Y-56.406
X107.052Y-57.295
X107.052Y-64.605
X107.052Y-65.494
X107.052Y-66.383
X107.052Y-67.272
X107.052Y-68.161
X107.052Y-69.05
X107.052Y-69.939
X107.052Y-70.828
X107.052Y-71.717
X107.052Y-72.606
X107.052Y-73.495
X107.941Y-48.405
X107.941Y-49.294
X107.941Y-50.183
X107.941Y-51.072
X107.941Y-51.961
X107.941Y-52.85
X107.941Y-53.739
X107.941Y-54.628
X107.941Y-55.517
X107.941Y-56.406
X107.941Y-57.295
X107.941Y-64.605
X107.941Y-65.494
X107.941Y-66.383
X107.941Y-67.272
X107.941Y-68.161
X107.941Y-69.05
X107.941Y-69.939
X107.941Y-70.828
X107.941Y-71.717
X107.941Y-72.606
X107.941Y-73.495
X108.83Y-48.405
X108.83Y-49.294
X108.83Y-50.183
X108.83Y-51.072
X108.83Y-51.961
X108.83Y-52.85
X108.83Y-53.739
X108.83Y-54.628
X108.83Y-55.517
X108.83Y-56.406
X108.83Y-57.295
X108.83Y-64.605
X108.83Y-65.494
X108.83Y-66.383
X108.83Y-67.272
X108.83Y-68.161
X108.83Y-69.05
X108.83Y-69.939
X108.83Y-70.828
X108.83Y-71.717
X108.83Y-72.606
X108.83Y-73.495
X109.719Y-48.405
X109.719Y-49.294
X109.719Y-50.183
X109.719Y-51.072
X109.719Y-51.961
X109.719Y-52.85
X109.719Y-53.739
X109.719Y-54.628
X109.719Y-55.517
X109.719Y-56.406
X109.719Y-57.295
X109.719Y-64.605
X109.719Y-65.494
X109.719Y-66.383
X109.719Y-67.272
X109.719Y-68.161
X109.719Y-69.05
X109.719Y-69.939
X109.719Y-70.828
X109.719Y-71.717
X109.719Y-72.606
X109.719Y-73.495
X110.24Y-42.822
X110.24Y-43.822
X110.24Y-44.822
X110.24Y-45.822
X110.24Y-46.822
X110.24Y-75.48
X110.24Y-76.48
X110.24Y-77.48
X110.24Y-78.48
X110.24Y-79.48
X110.608Y-48.405
X110.608Y-49.294
X110.608Y-50.183
X110.608Y-51.072
X110.608Y-51.961
X110.608Y-52.85
X110.608Y-53.739
X110.608Y-54.628
X110.608Y-55.517
X110.608Y-56.406
X110.608Y-57.295
X110.608Y-64.605
X110.608Y-65.494
X110.608Y-66.383
X110.608Y-67.272
X110.608Y-68.161
X110.608Y-69.05
X110.608Y-69.939
X110.608Y-70.828
X110.608Y-71.717
X110.608Y-72.606
X110.608Y-73.495
X117.202Y-48.27
X117.202Y-49.158
X117.202Y-50.047
X117.202Y-50.936
X117.202Y-51.825
X117.202Y-52.715
X117.202Y-53.603
X117.202Y-54.492
X117.202Y-55.381
X117.202Y-56.27
X117.202Y-57.159
X117.202Y-58.048
X117.202Y-58.938
X117.202Y-59.826
X117.202Y-60.715
X117.202Y-61.604
X117.202Y-62.493
X117.202Y-63.383
X117.202Y-64.272
X117.202Y-65.16
X117.202Y-66.049
X117.202Y-66.938
X117.202Y-67.828
X117.202Y-68.716
X117.202Y-69.605
X117.202Y-70.495
X117.202Y-71.383
X117.202Y-72.272
X117.202Y-73.162
X117.202Y-74.05
X117.54Y-75.39
X117.54Y-76.39
X117.54Y-77.39
X117.54Y-78.39
X117.54Y-79.39
X117.58Y-42.802
X117.58Y-43.802
X117.58Y-44.802
X117.58Y-45.802
X117.58Y-46.802
X118.091Y-48.27
X118.091Y-49.158
X118.091Y-50.047
X118.091Y-50.936
X118.091Y-51.825
X118.091Y-52.715
X118.091Y-53.603
X118.091Y-54.492
X118.091Y-55.381
X118.091Y-56.27
X118.091Y-57.159
X118.091Y-58.048
X118.091Y-58.938
X118.091Y-59.826
X118.091Y-60.715
X118.091Y-61.604
X118.091Y-62.493
X118.091Y-63.383
X118.091Y-64.272
X118.091Y-65.16
X118.091Y-66.049
X118.091Y-66.938
X118.091Y-67.828
X118.091Y-68.716
X118.091Y-69.605
X118.091Y-70.495
X118.091Y-71.383
X118.091Y-72.272
X118.091Y-73.162
X118.091Y-74.05
X118.98Y-48.27
X118.98Y-49.158
X118.98Y-50.047
X118.98Y-50.936
X118.98Y-51.825
X118.98Y-52.715
X118.98Y-53.603
X118.98Y-54.492
X118.98Y-55.381
X118.98Y-56.27
X118.98Y-57.159
X118.98Y-58.048
X118.98Y-58.938
X118.98Y-59.826
X118.98Y-60.715
X118.98Y-61.604
X118.98Y-62.493
X118.98Y-63.383
X118.98Y-64.272
X118.98Y-65.16
X118.98Y-66.049
X118.98Y-66.938
X118.98Y-67.828
X118.98Y-68.716
X118.98Y-69.605
X118.98Y-70.495
X118.98Y-71.383
X118.98Y-72.272
X118.98Y-73.162
X118.98Y-74.05
X119.869Y-48.27
X119.869Y-49.158
X119.869Y-50.047
X119.869Y-50.936
X119.869Y-51.825
X119.869Y-52.715
X119.869Y-53.603
X119.869Y-54.492
X119.869Y-55.381
X119.869Y-56.27
X119.869Y-57.159
X119.869Y-58.048
X119.869Y-58.938
X119.869Y-59.826
X119.869Y-60.715
X119.869Y-61.604
X119.869Y-62.493
X119.869Y-63.383
X119.869Y-64.272
X119.869Y-65.16
X119.869Y-66.049
X119.869Y-66.938
X119.869Y-67.828
X119.869Y-68.716
X119.869Y-69.605
X119.869Y-70.495
X119.869Y-71.383
X119.869Y-72.272
X119.869Y-73.162
X119.869Y-74.05
X120.758Y-48.27
X120.758Y-49.158
X120.758Y-50.047
X120.758Y-50.936
X120.758Y-51.825
X120.758Y-52.715
X120.758Y-53.603
X120.758Y-54.492
X120.758Y-55.381
X120.758Y-56.27
X120.758Y-57.159
X120.758Y-58.048
X120.758Y-58.938
X120.758Y-59.826
X120.758Y-60.715
X120.758Y-61.604
X120.758Y-62.493
X120.758Y-63.383
X120.758Y-64.272
X120.758Y-65.16
X120.758Y-66.049
X120.758Y-66.938
X120.758Y-67.828
X120.758Y-68.716
X120.758Y-69.605
X120.758Y-70.495
X120.758Y-71.383
X120.758Y-72.272
X120.758Y-73.162
X120.758Y-74.05
X122.874Y-48.165
X122.874Y-49.054
X122.874Y-49.943
X122.874Y-50.832
X122.874Y-51.721
X122.874Y-52.61
X122.874Y-53.499
X122.874Y-54.388
X122.874Y-55.277
X122.874Y-56.166
X122.874Y-57.055
X122.874Y-57.944
X122.874Y-58.833
X122.874Y-59.722
X122.874Y-60.611
X122.874Y-61.5
X122.874Y-62.389
X122.874Y-63.278
X122.874Y-64.167
X122.874Y-65.056
X122.874Y-65.945
X122.874Y-66.834
X122.874Y-67.723
X122.874Y-68.612
X122.874Y-69.501
X122.874Y-70.39
X122.874Y-71.279
X122.874Y-72.168
X122.874Y-73.057
X122.874Y-73.946
X123.763Y-48.165
X123.763Y-49.054
X123.763Y-49.943
X123.763Y-50.832
X123.763Y-51.721
X123.763Y-52.61
X123.763Y-53.499
X123.763Y-54.388
X123.763Y-55.277
X123.763Y-56.166
X123.763Y-57.055
X123.763Y-57.944
X123.763Y-58.833
X123.763Y-59.722
X123.763Y-60.611
X123.763Y-61.5
X123.763Y-62.389
X123.763Y-63.278
X123.763Y-64.167
X123.763Y-65.056
X123.763Y-65.945
X123.763Y-66.834
X123.763Y-67.723
X123.763Y-68.612
X123.763Y-69.501
X123.763Y-70.39
X123.763Y-71.279
X123.763Y-72.168
X123.763Y-73.057
X123.763Y-73.946
X124.652Y-48.165
X124.652Y-49.054
X124.652Y-49.943
X124.652Y-50.832
X124.652Y-51.721
X124.652Y-52.61
X124.652Y-53.499
X124.652Y-54.388
X124.652Y-55.277
X124.652Y-56.166
X124.652Y-57.055
X124.652Y-57.944
X124.652Y-58.833
X124.652Y-59.722
X124.652Y-60.611
X124.652Y-61.5
X124.652Y-62.389
X124.652Y-63.278
X124.652Y-64.167
X124.652Y-65.056
X124.652Y-65.945
X124.652Y-66.834
X124.652Y-67.723
X124.652Y-68.612
X124.652Y-69.501
X124.652Y-70.39
X124.652Y-71.279
X124.652Y-72.168
X124.652Y-73.057
X124.652Y-73.946
X125.541Y-48.165
X125.541Y-49.054
X125.541Y-49.943
X125.541Y-50.832
X125.541Y-51.721
X125.541Y-52.61
X125.541Y-53.499
X125.541Y-54.388
X125.541Y-55.277
X125.541Y-56.166
X125.541Y-57.055
X125.541Y-57.944
X125.541Y-58.833
X125.541Y-59.722
X125.541Y-60.611
X125.541Y-61.5
X125.541Y-62.389
X125.541Y-63.278
X125.541Y-64.167
X125.541Y-65.056
X125.541Y-65.945
X125.541Y-66.834
X125.541Y-67.723
X125.541Y-68.612
X125.541Y-69.501
X125.541Y-70.39
X125.541Y-71.279
X125.541Y-72.168
X125.541Y-73.057
X125.541Y-73.946
X126.04Y-75.39
X126.04Y-76.39
X126.04Y-77.39
X126.04Y-78.39
X126.04Y-79.39
X126.08Y-42.802
X126.08Y-43.802
X126.08Y-44.802
X126.08Y-45.802
X126.08Y-46.802
X126.43Y-48.165
X126.43Y-49.054
X126.43Y-49.943
X126.43Y-50.832
X126.43Y-51.721
X126.43Y-52.61
X126.43Y-53.499
X126.43Y-54.388
X126.43Y-55.277
X126.43Y-56.166
X126.43Y-57.055
X126.43Y-57.944
X126.43Y-58.833
X126.43Y-59.722
X126.43Y-60.611
X126.43Y-61.5
X126.43Y-62.389
X126.43Y-63.278
X126.43Y-64.167
X126.43Y-65.056
X126.43Y-65.945
X126.43Y-66.834
X126.43Y-67.723
X126.43Y-68.612
X126.43Y-69.501
X126.43Y-70.39
X126.43Y-71.279
X126.43Y-72.168
X126.43Y-73.057
X126.43Y-73.946
T4
X86.0Y-51.25
X86.0Y-53.25
X86.01Y-56.36
X86.01Y-58.36
X86.01Y-60.36
X86.01Y-62.36
X86.08Y-72.55
X86.08Y-74.55
X86.096Y-67.43
X86.096Y-69.43
X88.0Y-51.25
X88.0Y-53.25
X88.01Y-56.36
X88.01Y-58.36
X88.01Y-60.36
X88.01Y-62.36
X88.08Y-72.55
X88.08Y-74.55
X88.096Y-67.43
X88.096Y-69.43
M30
