%TF.GenerationSoftware,KiCad,Pcbnew,9.0.5*%
%TF.CreationDate,2025-10-11T16:20:37-05:00*%
%TF.ProjectId,MAPS-010164-TR0500 Eval Board,4d415053-2d30-4313-9031-36342d545230,rev?*%
%TF.SameCoordinates,Original*%
%TF.FileFunction,Paste,Top*%
%TF.FilePolarity,Positive*%
%FSLAX46Y46*%
G04 Gerber Fmt 4.6, Leading zero omitted, Abs format (unit mm)*
G04 Created by KiCad (PCBNEW 9.0.5) date 2025-10-11 16:20:37*
%MOMM*%
%LPD*%
G01*
G04 APERTURE LIST*
G04 Aperture macros list*
%AMRoundRect*
0 Rectangle with rounded corners*
0 $1 Rounding radius*
0 $2 $3 $4 $5 $6 $7 $8 $9 X,Y pos of 4 corners*
0 Add a 4 corners polygon primitive as box body*
4,1,4,$2,$3,$4,$5,$6,$7,$8,$9,$2,$3,0*
0 Add four circle primitives for the rounded corners*
1,1,$1+$1,$2,$3*
1,1,$1+$1,$4,$5*
1,1,$1+$1,$6,$7*
1,1,$1+$1,$8,$9*
0 Add four rect primitives between the rounded corners*
20,1,$1+$1,$2,$3,$4,$5,0*
20,1,$1+$1,$4,$5,$6,$7,0*
20,1,$1+$1,$6,$7,$8,$9,0*
20,1,$1+$1,$8,$9,$2,$3,0*%
G04 Aperture macros list end*
%ADD10R,1.500000X5.080000*%
%ADD11RoundRect,0.140000X-0.140000X-0.170000X0.140000X-0.170000X0.140000X0.170000X-0.140000X0.170000X0*%
%ADD12RoundRect,0.140000X-0.170000X0.140000X-0.170000X-0.140000X0.170000X-0.140000X0.170000X0.140000X0*%
%ADD13RoundRect,0.140000X0.170000X-0.140000X0.170000X0.140000X-0.170000X0.140000X-0.170000X-0.140000X0*%
%ADD14RoundRect,0.140000X0.140000X0.170000X-0.140000X0.170000X-0.140000X-0.170000X0.140000X-0.170000X0*%
%ADD15R,0.300000X0.850000*%
%ADD16R,0.850000X0.300000*%
%ADD17R,2.550000X2.550000*%
G04 APERTURE END LIST*
D10*
%TO.C,J2*%
X105990000Y-44822500D03*
X101740000Y-44822500D03*
X110240000Y-44822500D03*
%TD*%
%TO.C,J6*%
X121830000Y-44802500D03*
X117580000Y-44802500D03*
X126080000Y-44802500D03*
%TD*%
D11*
%TO.C,R4*%
X93550000Y-51270000D03*
X94510000Y-51270000D03*
%TD*%
%TO.C,C2*%
X94109200Y-64330000D03*
X95069200Y-64330000D03*
%TD*%
D12*
%TO.C,C5*%
X93010000Y-62870000D03*
X93010000Y-63830000D03*
%TD*%
D13*
%TO.C,C1*%
X102010000Y-59930000D03*
X102010000Y-58970000D03*
%TD*%
D10*
%TO.C,J1*%
X105990000Y-77480000D03*
X110240000Y-77480000D03*
X101740000Y-77480000D03*
%TD*%
D12*
%TO.C,C7*%
X92340000Y-58110000D03*
X92340000Y-59070000D03*
%TD*%
%TO.C,C10*%
X95470000Y-51240000D03*
X95470000Y-52200000D03*
%TD*%
D10*
%TO.C,J7*%
X121790000Y-77390000D03*
X126040000Y-77390000D03*
X117540000Y-77390000D03*
%TD*%
D11*
%TO.C,R3*%
X90470000Y-58130000D03*
X91430000Y-58130000D03*
%TD*%
D14*
%TO.C,R1*%
X93000000Y-61930000D03*
X92040000Y-61930000D03*
%TD*%
D13*
%TO.C,C6*%
X94040000Y-60980000D03*
X94040000Y-60020000D03*
%TD*%
%TO.C,C3*%
X100760000Y-59930200D03*
X100760000Y-58970200D03*
%TD*%
%TO.C,C8*%
X99030000Y-64460000D03*
X99030000Y-63500000D03*
%TD*%
D15*
%TO.C,IC1*%
X104000000Y-62783000D03*
X104500000Y-62783000D03*
X105000000Y-62783000D03*
X105500000Y-62783000D03*
X106000000Y-62783000D03*
X106500000Y-62783000D03*
D16*
X107200000Y-62083000D03*
X107200000Y-61583000D03*
X107200000Y-61083000D03*
X107200000Y-60583000D03*
X107200000Y-60083000D03*
X107200000Y-59583000D03*
D15*
X106500000Y-58883000D03*
X106000000Y-58883000D03*
X105500000Y-58883000D03*
X105000000Y-58883000D03*
X104500000Y-58883000D03*
X104000000Y-58883000D03*
D16*
X103300000Y-59583000D03*
X103300000Y-60083000D03*
X103300000Y-60583000D03*
X103300000Y-61083000D03*
X103300000Y-61583000D03*
X103300000Y-62083000D03*
D17*
X105250000Y-60833000D03*
%TD*%
D13*
%TO.C,C9*%
X100180000Y-64430000D03*
X100180000Y-63470000D03*
%TD*%
D11*
%TO.C,C4*%
X94160000Y-65620000D03*
X95120000Y-65620000D03*
%TD*%
%TO.C,R2*%
X92140000Y-60940000D03*
X93100000Y-60940000D03*
%TD*%
M02*
