%TF.GenerationSoftware,KiCad,Pcbnew,9.0.5*%
%TF.CreationDate,2025-10-11T16:20:55-05:00*%
%TF.ProjectId,MAPS-010164-TR0500 Eval Board,4d415053-2d30-4313-9031-36342d545230,rev?*%
%TF.SameCoordinates,Original*%
%TF.FileFunction,Drillmap*%
%TF.FilePolarity,Positive*%
%FSLAX45Y45*%
G04 Gerber Fmt 4.5, Leading zero omitted, Abs format (unit mm)*
G04 Created by KiCad (PCBNEW 9.0.5) date 2025-10-11 16:20:55*
%MOMM*%
%LPD*%
G01*
G04 APERTURE LIST*
%ADD10C,0.050000*%
%ADD11C,0.200000*%
%ADD12C,0.100000*%
G04 APERTURE END LIST*
D10*
X8117840Y-4170680D02*
X12971540Y-4170680D01*
X12971540Y-8053680D01*
X8117840Y-8053680D01*
X8117840Y-4170680D01*
D11*
D12*
X10300000Y-6049000D02*
X10320000Y-6069000D01*
X10320000Y-6049000D02*
X10300000Y-6069000D01*
X10301000Y-5948000D02*
X10321000Y-5968000D01*
X10321000Y-5948000D02*
X10301000Y-5968000D01*
X10340000Y-6000000D02*
X10360000Y-6020000D01*
X10360000Y-6000000D02*
X10340000Y-6020000D01*
X10488000Y-5898000D02*
X10508000Y-5918000D01*
X10508000Y-5898000D02*
X10488000Y-5918000D01*
X10490000Y-6248000D02*
X10510000Y-6268000D01*
X10510000Y-6248000D02*
X10490000Y-6268000D01*
X10539000Y-6288000D02*
X10559000Y-6308000D01*
X10559000Y-6288000D02*
X10539000Y-6308000D01*
X10541000Y-5858000D02*
X10561000Y-5878000D01*
X10561000Y-5858000D02*
X10541000Y-5878000D01*
X10640000Y-6272000D02*
X10660000Y-6292000D01*
X10660000Y-6272000D02*
X10640000Y-6292000D01*
X10642760Y-5877720D02*
X10662760Y-5897720D01*
X10662760Y-5877720D02*
X10642760Y-5897720D01*
X10688000Y-6199000D02*
X10708000Y-6219000D01*
X10708000Y-6199000D02*
X10688000Y-6219000D01*
X10689000Y-6098000D02*
X10709000Y-6118000D01*
X10709000Y-6098000D02*
X10689000Y-6118000D01*
X10690000Y-5998000D02*
X10710000Y-6018000D01*
X10710000Y-5998000D02*
X10690000Y-6018000D01*
X10730000Y-5949000D02*
X10750000Y-5969000D01*
X10750000Y-5949000D02*
X10730000Y-5969000D01*
X10730000Y-6150000D02*
X10750000Y-6170000D01*
X10750000Y-6150000D02*
X10730000Y-6170000D01*
X10731000Y-6048000D02*
X10751000Y-6068000D01*
X10751000Y-6048000D02*
X10731000Y-6068000D01*
X10433560Y-5981700D02*
G75*
G02*
X10413240Y-5981700I-10160J0D01*
G01*
X10413240Y-5981700D02*
G75*
G02*
X10433560Y-5981700I10160J0D01*
G01*
X10433560Y-6032500D02*
G75*
G02*
X10413240Y-6032500I-10160J0D01*
G01*
X10413240Y-6032500D02*
G75*
G02*
X10433560Y-6032500I10160J0D01*
G01*
X10433560Y-6083300D02*
G75*
G02*
X10413240Y-6083300I-10160J0D01*
G01*
X10413240Y-6083300D02*
G75*
G02*
X10433560Y-6083300I10160J0D01*
G01*
X10433560Y-6134100D02*
G75*
G02*
X10413240Y-6134100I-10160J0D01*
G01*
X10413240Y-6134100D02*
G75*
G02*
X10433560Y-6134100I10160J0D01*
G01*
X10433560Y-6184900D02*
G75*
G02*
X10413240Y-6184900I-10160J0D01*
G01*
X10413240Y-6184900D02*
G75*
G02*
X10433560Y-6184900I10160J0D01*
G01*
X10484360Y-5981700D02*
G75*
G02*
X10464040Y-5981700I-10160J0D01*
G01*
X10464040Y-5981700D02*
G75*
G02*
X10484360Y-5981700I10160J0D01*
G01*
X10484360Y-6032500D02*
G75*
G02*
X10464040Y-6032500I-10160J0D01*
G01*
X10464040Y-6032500D02*
G75*
G02*
X10484360Y-6032500I10160J0D01*
G01*
X10484360Y-6083300D02*
G75*
G02*
X10464040Y-6083300I-10160J0D01*
G01*
X10464040Y-6083300D02*
G75*
G02*
X10484360Y-6083300I10160J0D01*
G01*
X10484360Y-6134100D02*
G75*
G02*
X10464040Y-6134100I-10160J0D01*
G01*
X10464040Y-6134100D02*
G75*
G02*
X10484360Y-6134100I10160J0D01*
G01*
X10484360Y-6184900D02*
G75*
G02*
X10464040Y-6184900I-10160J0D01*
G01*
X10464040Y-6184900D02*
G75*
G02*
X10484360Y-6184900I10160J0D01*
G01*
X10535160Y-5981700D02*
G75*
G02*
X10514840Y-5981700I-10160J0D01*
G01*
X10514840Y-5981700D02*
G75*
G02*
X10535160Y-5981700I10160J0D01*
G01*
X10535160Y-6032500D02*
G75*
G02*
X10514840Y-6032500I-10160J0D01*
G01*
X10514840Y-6032500D02*
G75*
G02*
X10535160Y-6032500I10160J0D01*
G01*
X10535160Y-6083300D02*
G75*
G02*
X10514840Y-6083300I-10160J0D01*
G01*
X10514840Y-6083300D02*
G75*
G02*
X10535160Y-6083300I10160J0D01*
G01*
X10535160Y-6134100D02*
G75*
G02*
X10514840Y-6134100I-10160J0D01*
G01*
X10514840Y-6134100D02*
G75*
G02*
X10535160Y-6134100I10160J0D01*
G01*
X10535160Y-6184900D02*
G75*
G02*
X10514840Y-6184900I-10160J0D01*
G01*
X10514840Y-6184900D02*
G75*
G02*
X10535160Y-6184900I10160J0D01*
G01*
X10585960Y-5981700D02*
G75*
G02*
X10565640Y-5981700I-10160J0D01*
G01*
X10565640Y-5981700D02*
G75*
G02*
X10585960Y-5981700I10160J0D01*
G01*
X10585960Y-6032500D02*
G75*
G02*
X10565640Y-6032500I-10160J0D01*
G01*
X10565640Y-6032500D02*
G75*
G02*
X10585960Y-6032500I10160J0D01*
G01*
X10585960Y-6083300D02*
G75*
G02*
X10565640Y-6083300I-10160J0D01*
G01*
X10565640Y-6083300D02*
G75*
G02*
X10585960Y-6083300I10160J0D01*
G01*
X10585960Y-6134100D02*
G75*
G02*
X10565640Y-6134100I-10160J0D01*
G01*
X10565640Y-6134100D02*
G75*
G02*
X10585960Y-6134100I10160J0D01*
G01*
X10585960Y-6184900D02*
G75*
G02*
X10565640Y-6184900I-10160J0D01*
G01*
X10565640Y-6184900D02*
G75*
G02*
X10585960Y-6184900I10160J0D01*
G01*
X10636760Y-5981700D02*
G75*
G02*
X10616440Y-5981700I-10160J0D01*
G01*
X10616440Y-5981700D02*
G75*
G02*
X10636760Y-5981700I10160J0D01*
G01*
X10636760Y-6032500D02*
G75*
G02*
X10616440Y-6032500I-10160J0D01*
G01*
X10616440Y-6032500D02*
G75*
G02*
X10636760Y-6032500I10160J0D01*
G01*
X10636760Y-6083300D02*
G75*
G02*
X10616440Y-6083300I-10160J0D01*
G01*
X10616440Y-6083300D02*
G75*
G02*
X10636760Y-6083300I10160J0D01*
G01*
X10636760Y-6134100D02*
G75*
G02*
X10616440Y-6134100I-10160J0D01*
G01*
X10616440Y-6134100D02*
G75*
G02*
X10636760Y-6134100I10160J0D01*
G01*
X10636760Y-6184900D02*
G75*
G02*
X10616440Y-6184900I-10160J0D01*
G01*
X10616440Y-6184900D02*
G75*
G02*
X10636760Y-6184900I10160J0D01*
G01*
X9234000Y-5892000D02*
X9234000Y-5922000D01*
X9219000Y-5907000D02*
X9249000Y-5907000D01*
X9301000Y-6368000D02*
X9301000Y-6398000D01*
X9286000Y-6383000D02*
X9316000Y-6383000D01*
X9404000Y-5987000D02*
X9404000Y-6017000D01*
X9389000Y-6002000D02*
X9419000Y-6002000D01*
X9410920Y-6418000D02*
X9410920Y-6448000D01*
X9395920Y-6433000D02*
X9425920Y-6433000D01*
X9416000Y-6547000D02*
X9416000Y-6577000D01*
X9401000Y-6562000D02*
X9431000Y-6562000D01*
X9547000Y-5205000D02*
X9547000Y-5235000D01*
X9532000Y-5220000D02*
X9562000Y-5220000D01*
X9903000Y-6431000D02*
X9903000Y-6461000D01*
X9888000Y-6446000D02*
X9918000Y-6446000D01*
X10018000Y-6428000D02*
X10018000Y-6458000D01*
X10003000Y-6443000D02*
X10033000Y-6443000D01*
X10076000Y-5978020D02*
X10076000Y-6008020D01*
X10061000Y-5993020D02*
X10091000Y-5993020D01*
X10134300Y-4829500D02*
X10134300Y-4859500D01*
X10119300Y-4844500D02*
X10149300Y-4844500D01*
X10134300Y-4918400D02*
X10134300Y-4948400D01*
X10119300Y-4933400D02*
X10149300Y-4933400D01*
X10134300Y-5007300D02*
X10134300Y-5037300D01*
X10119300Y-5022300D02*
X10149300Y-5022300D01*
X10134300Y-5096200D02*
X10134300Y-5126200D01*
X10119300Y-5111200D02*
X10149300Y-5111200D01*
X10134300Y-5185100D02*
X10134300Y-5215100D01*
X10119300Y-5200100D02*
X10149300Y-5200100D01*
X10134300Y-5274000D02*
X10134300Y-5304000D01*
X10119300Y-5289000D02*
X10149300Y-5289000D01*
X10134300Y-5362900D02*
X10134300Y-5392900D01*
X10119300Y-5377900D02*
X10149300Y-5377900D01*
X10134300Y-5451800D02*
X10134300Y-5481800D01*
X10119300Y-5466800D02*
X10149300Y-5466800D01*
X10134300Y-5540700D02*
X10134300Y-5570700D01*
X10119300Y-5555700D02*
X10149300Y-5555700D01*
X10134300Y-5629600D02*
X10134300Y-5659600D01*
X10119300Y-5644600D02*
X10149300Y-5644600D01*
X10134300Y-5718500D02*
X10134300Y-5748500D01*
X10119300Y-5733500D02*
X10149300Y-5733500D01*
X10138200Y-6455500D02*
X10138200Y-6485500D01*
X10123200Y-6470500D02*
X10153200Y-6470500D01*
X10138200Y-6544400D02*
X10138200Y-6574400D01*
X10123200Y-6559400D02*
X10153200Y-6559400D01*
X10138200Y-6633300D02*
X10138200Y-6663300D01*
X10123200Y-6648300D02*
X10153200Y-6648300D01*
X10138200Y-6722200D02*
X10138200Y-6752200D01*
X10123200Y-6737200D02*
X10153200Y-6737200D01*
X10138200Y-6811100D02*
X10138200Y-6841100D01*
X10123200Y-6826100D02*
X10153200Y-6826100D01*
X10138200Y-6900000D02*
X10138200Y-6930000D01*
X10123200Y-6915000D02*
X10153200Y-6915000D01*
X10138200Y-6988900D02*
X10138200Y-7018900D01*
X10123200Y-7003900D02*
X10153200Y-7003900D01*
X10138200Y-7077800D02*
X10138200Y-7107800D01*
X10123200Y-7092800D02*
X10153200Y-7092800D01*
X10138200Y-7166700D02*
X10138200Y-7196700D01*
X10123200Y-7181700D02*
X10153200Y-7181700D01*
X10138200Y-7255600D02*
X10138200Y-7285600D01*
X10123200Y-7270600D02*
X10153200Y-7270600D01*
X10138200Y-7344500D02*
X10138200Y-7374500D01*
X10123200Y-7359500D02*
X10153200Y-7359500D01*
X10174000Y-4267250D02*
X10174000Y-4297250D01*
X10159000Y-4282250D02*
X10189000Y-4282250D01*
X10174000Y-4367250D02*
X10174000Y-4397250D01*
X10159000Y-4382250D02*
X10189000Y-4382250D01*
X10174000Y-4467250D02*
X10174000Y-4497250D01*
X10159000Y-4482250D02*
X10189000Y-4482250D01*
X10174000Y-4567250D02*
X10174000Y-4597250D01*
X10159000Y-4582250D02*
X10189000Y-4582250D01*
X10174000Y-4667250D02*
X10174000Y-4697250D01*
X10159000Y-4682250D02*
X10189000Y-4682250D01*
X10174000Y-7533000D02*
X10174000Y-7563000D01*
X10159000Y-7548000D02*
X10189000Y-7548000D01*
X10174000Y-7633000D02*
X10174000Y-7663000D01*
X10159000Y-7648000D02*
X10189000Y-7648000D01*
X10174000Y-7733000D02*
X10174000Y-7763000D01*
X10159000Y-7748000D02*
X10189000Y-7748000D01*
X10174000Y-7833000D02*
X10174000Y-7863000D01*
X10159000Y-7848000D02*
X10189000Y-7848000D01*
X10174000Y-7933000D02*
X10174000Y-7963000D01*
X10159000Y-7948000D02*
X10189000Y-7948000D01*
X10201000Y-5978000D02*
X10201000Y-6008000D01*
X10186000Y-5993000D02*
X10216000Y-5993000D01*
X10223200Y-4829500D02*
X10223200Y-4859500D01*
X10208200Y-4844500D02*
X10238200Y-4844500D01*
X10223200Y-4918400D02*
X10223200Y-4948400D01*
X10208200Y-4933400D02*
X10238200Y-4933400D01*
X10223200Y-5007300D02*
X10223200Y-5037300D01*
X10208200Y-5022300D02*
X10238200Y-5022300D01*
X10223200Y-5096200D02*
X10223200Y-5126200D01*
X10208200Y-5111200D02*
X10238200Y-5111200D01*
X10223200Y-5185100D02*
X10223200Y-5215100D01*
X10208200Y-5200100D02*
X10238200Y-5200100D01*
X10223200Y-5274000D02*
X10223200Y-5304000D01*
X10208200Y-5289000D02*
X10238200Y-5289000D01*
X10223200Y-5362900D02*
X10223200Y-5392900D01*
X10208200Y-5377900D02*
X10238200Y-5377900D01*
X10223200Y-5451800D02*
X10223200Y-5481800D01*
X10208200Y-5466800D02*
X10238200Y-5466800D01*
X10223200Y-5540700D02*
X10223200Y-5570700D01*
X10208200Y-5555700D02*
X10238200Y-5555700D01*
X10223200Y-5629600D02*
X10223200Y-5659600D01*
X10208200Y-5644600D02*
X10238200Y-5644600D01*
X10223200Y-5718500D02*
X10223200Y-5748500D01*
X10208200Y-5733500D02*
X10238200Y-5733500D01*
X10227100Y-6455500D02*
X10227100Y-6485500D01*
X10212100Y-6470500D02*
X10242100Y-6470500D01*
X10227100Y-6544400D02*
X10227100Y-6574400D01*
X10212100Y-6559400D02*
X10242100Y-6559400D01*
X10227100Y-6633300D02*
X10227100Y-6663300D01*
X10212100Y-6648300D02*
X10242100Y-6648300D01*
X10227100Y-6722200D02*
X10227100Y-6752200D01*
X10212100Y-6737200D02*
X10242100Y-6737200D01*
X10227100Y-6811100D02*
X10227100Y-6841100D01*
X10212100Y-6826100D02*
X10242100Y-6826100D01*
X10227100Y-6900000D02*
X10227100Y-6930000D01*
X10212100Y-6915000D02*
X10242100Y-6915000D01*
X10227100Y-6988900D02*
X10227100Y-7018900D01*
X10212100Y-7003900D02*
X10242100Y-7003900D01*
X10227100Y-7077800D02*
X10227100Y-7107800D01*
X10212100Y-7092800D02*
X10242100Y-7092800D01*
X10227100Y-7166700D02*
X10227100Y-7196700D01*
X10212100Y-7181700D02*
X10242100Y-7181700D01*
X10227100Y-7255600D02*
X10227100Y-7285600D01*
X10212100Y-7270600D02*
X10242100Y-7270600D01*
X10227100Y-7344500D02*
X10227100Y-7374500D01*
X10212100Y-7359500D02*
X10242100Y-7359500D01*
X10312100Y-4829500D02*
X10312100Y-4859500D01*
X10297100Y-4844500D02*
X10327100Y-4844500D01*
X10312100Y-4918400D02*
X10312100Y-4948400D01*
X10297100Y-4933400D02*
X10327100Y-4933400D01*
X10312100Y-5007300D02*
X10312100Y-5037300D01*
X10297100Y-5022300D02*
X10327100Y-5022300D01*
X10312100Y-5096200D02*
X10312100Y-5126200D01*
X10297100Y-5111200D02*
X10327100Y-5111200D01*
X10312100Y-5185100D02*
X10312100Y-5215100D01*
X10297100Y-5200100D02*
X10327100Y-5200100D01*
X10312100Y-5274000D02*
X10312100Y-5304000D01*
X10297100Y-5289000D02*
X10327100Y-5289000D01*
X10312100Y-5362900D02*
X10312100Y-5392900D01*
X10297100Y-5377900D02*
X10327100Y-5377900D01*
X10312100Y-5451800D02*
X10312100Y-5481800D01*
X10297100Y-5466800D02*
X10327100Y-5466800D01*
X10312100Y-5540700D02*
X10312100Y-5570700D01*
X10297100Y-5555700D02*
X10327100Y-5555700D01*
X10312100Y-5629600D02*
X10312100Y-5659600D01*
X10297100Y-5644600D02*
X10327100Y-5644600D01*
X10312100Y-5718500D02*
X10312100Y-5748500D01*
X10297100Y-5733500D02*
X10327100Y-5733500D01*
X10316000Y-6455500D02*
X10316000Y-6485500D01*
X10301000Y-6470500D02*
X10331000Y-6470500D01*
X10316000Y-6544400D02*
X10316000Y-6574400D01*
X10301000Y-6559400D02*
X10331000Y-6559400D01*
X10316000Y-6633300D02*
X10316000Y-6663300D01*
X10301000Y-6648300D02*
X10331000Y-6648300D01*
X10316000Y-6722200D02*
X10316000Y-6752200D01*
X10301000Y-6737200D02*
X10331000Y-6737200D01*
X10316000Y-6811100D02*
X10316000Y-6841100D01*
X10301000Y-6826100D02*
X10331000Y-6826100D01*
X10316000Y-6900000D02*
X10316000Y-6930000D01*
X10301000Y-6915000D02*
X10331000Y-6915000D01*
X10316000Y-6988900D02*
X10316000Y-7018900D01*
X10301000Y-7003900D02*
X10331000Y-7003900D01*
X10316000Y-7077800D02*
X10316000Y-7107800D01*
X10301000Y-7092800D02*
X10331000Y-7092800D01*
X10316000Y-7166700D02*
X10316000Y-7196700D01*
X10301000Y-7181700D02*
X10331000Y-7181700D01*
X10316000Y-7255600D02*
X10316000Y-7285600D01*
X10301000Y-7270600D02*
X10331000Y-7270600D01*
X10316000Y-7344500D02*
X10316000Y-7374500D01*
X10301000Y-7359500D02*
X10331000Y-7359500D01*
X10401000Y-4829500D02*
X10401000Y-4859500D01*
X10386000Y-4844500D02*
X10416000Y-4844500D01*
X10401000Y-4918400D02*
X10401000Y-4948400D01*
X10386000Y-4933400D02*
X10416000Y-4933400D01*
X10401000Y-5007300D02*
X10401000Y-5037300D01*
X10386000Y-5022300D02*
X10416000Y-5022300D01*
X10401000Y-5096200D02*
X10401000Y-5126200D01*
X10386000Y-5111200D02*
X10416000Y-5111200D01*
X10401000Y-5185100D02*
X10401000Y-5215100D01*
X10386000Y-5200100D02*
X10416000Y-5200100D01*
X10401000Y-5274000D02*
X10401000Y-5304000D01*
X10386000Y-5289000D02*
X10416000Y-5289000D01*
X10401000Y-5362900D02*
X10401000Y-5392900D01*
X10386000Y-5377900D02*
X10416000Y-5377900D01*
X10401000Y-5451800D02*
X10401000Y-5481800D01*
X10386000Y-5466800D02*
X10416000Y-5466800D01*
X10401000Y-5540700D02*
X10401000Y-5570700D01*
X10386000Y-5555700D02*
X10416000Y-5555700D01*
X10401000Y-5629600D02*
X10401000Y-5659600D01*
X10386000Y-5644600D02*
X10416000Y-5644600D01*
X10401000Y-5718500D02*
X10401000Y-5748500D01*
X10386000Y-5733500D02*
X10416000Y-5733500D01*
X10404900Y-6455500D02*
X10404900Y-6485500D01*
X10389900Y-6470500D02*
X10419900Y-6470500D01*
X10404900Y-6544400D02*
X10404900Y-6574400D01*
X10389900Y-6559400D02*
X10419900Y-6559400D01*
X10404900Y-6633300D02*
X10404900Y-6663300D01*
X10389900Y-6648300D02*
X10419900Y-6648300D01*
X10404900Y-6722200D02*
X10404900Y-6752200D01*
X10389900Y-6737200D02*
X10419900Y-6737200D01*
X10404900Y-6811100D02*
X10404900Y-6841100D01*
X10389900Y-6826100D02*
X10419900Y-6826100D01*
X10404900Y-6900000D02*
X10404900Y-6930000D01*
X10389900Y-6915000D02*
X10419900Y-6915000D01*
X10404900Y-6988900D02*
X10404900Y-7018900D01*
X10389900Y-7003900D02*
X10419900Y-7003900D01*
X10404900Y-7077800D02*
X10404900Y-7107800D01*
X10389900Y-7092800D02*
X10419900Y-7092800D01*
X10404900Y-7166700D02*
X10404900Y-7196700D01*
X10389900Y-7181700D02*
X10419900Y-7181700D01*
X10404900Y-7255600D02*
X10404900Y-7285600D01*
X10389900Y-7270600D02*
X10419900Y-7270600D01*
X10404900Y-7344500D02*
X10404900Y-7374500D01*
X10389900Y-7359500D02*
X10419900Y-7359500D01*
X10489900Y-4829500D02*
X10489900Y-4859500D01*
X10474900Y-4844500D02*
X10504900Y-4844500D01*
X10489900Y-4918400D02*
X10489900Y-4948400D01*
X10474900Y-4933400D02*
X10504900Y-4933400D01*
X10489900Y-5007300D02*
X10489900Y-5037300D01*
X10474900Y-5022300D02*
X10504900Y-5022300D01*
X10489900Y-5096200D02*
X10489900Y-5126200D01*
X10474900Y-5111200D02*
X10504900Y-5111200D01*
X10489900Y-5185100D02*
X10489900Y-5215100D01*
X10474900Y-5200100D02*
X10504900Y-5200100D01*
X10489900Y-5274000D02*
X10489900Y-5304000D01*
X10474900Y-5289000D02*
X10504900Y-5289000D01*
X10489900Y-5362900D02*
X10489900Y-5392900D01*
X10474900Y-5377900D02*
X10504900Y-5377900D01*
X10489900Y-5451800D02*
X10489900Y-5481800D01*
X10474900Y-5466800D02*
X10504900Y-5466800D01*
X10489900Y-5540700D02*
X10489900Y-5570700D01*
X10474900Y-5555700D02*
X10504900Y-5555700D01*
X10489900Y-5629600D02*
X10489900Y-5659600D01*
X10474900Y-5644600D02*
X10504900Y-5644600D01*
X10489900Y-5718500D02*
X10489900Y-5748500D01*
X10474900Y-5733500D02*
X10504900Y-5733500D01*
X10493800Y-6455500D02*
X10493800Y-6485500D01*
X10478800Y-6470500D02*
X10508800Y-6470500D01*
X10493800Y-6544400D02*
X10493800Y-6574400D01*
X10478800Y-6559400D02*
X10508800Y-6559400D01*
X10493800Y-6633300D02*
X10493800Y-6663300D01*
X10478800Y-6648300D02*
X10508800Y-6648300D01*
X10493800Y-6722200D02*
X10493800Y-6752200D01*
X10478800Y-6737200D02*
X10508800Y-6737200D01*
X10493800Y-6811100D02*
X10493800Y-6841100D01*
X10478800Y-6826100D02*
X10508800Y-6826100D01*
X10493800Y-6900000D02*
X10493800Y-6930000D01*
X10478800Y-6915000D02*
X10508800Y-6915000D01*
X10493800Y-6988900D02*
X10493800Y-7018900D01*
X10478800Y-7003900D02*
X10508800Y-7003900D01*
X10493800Y-7077800D02*
X10493800Y-7107800D01*
X10478800Y-7092800D02*
X10508800Y-7092800D01*
X10493800Y-7166700D02*
X10493800Y-7196700D01*
X10478800Y-7181700D02*
X10508800Y-7181700D01*
X10493800Y-7255600D02*
X10493800Y-7285600D01*
X10478800Y-7270600D02*
X10508800Y-7270600D01*
X10493800Y-7344500D02*
X10493800Y-7374500D01*
X10478800Y-7359500D02*
X10508800Y-7359500D01*
X10705200Y-4825500D02*
X10705200Y-4855500D01*
X10690200Y-4840500D02*
X10720200Y-4840500D01*
X10705200Y-4914400D02*
X10705200Y-4944400D01*
X10690200Y-4929400D02*
X10720200Y-4929400D01*
X10705200Y-5003300D02*
X10705200Y-5033300D01*
X10690200Y-5018300D02*
X10720200Y-5018300D01*
X10705200Y-5092200D02*
X10705200Y-5122200D01*
X10690200Y-5107200D02*
X10720200Y-5107200D01*
X10705200Y-5181100D02*
X10705200Y-5211100D01*
X10690200Y-5196100D02*
X10720200Y-5196100D01*
X10705200Y-5270000D02*
X10705200Y-5300000D01*
X10690200Y-5285000D02*
X10720200Y-5285000D01*
X10705200Y-5358900D02*
X10705200Y-5388900D01*
X10690200Y-5373900D02*
X10720200Y-5373900D01*
X10705200Y-5447800D02*
X10705200Y-5477800D01*
X10690200Y-5462800D02*
X10720200Y-5462800D01*
X10705200Y-5536700D02*
X10705200Y-5566700D01*
X10690200Y-5551700D02*
X10720200Y-5551700D01*
X10705200Y-5625600D02*
X10705200Y-5655600D01*
X10690200Y-5640600D02*
X10720200Y-5640600D01*
X10705200Y-5714500D02*
X10705200Y-5744500D01*
X10690200Y-5729500D02*
X10720200Y-5729500D01*
X10705200Y-6445500D02*
X10705200Y-6475500D01*
X10690200Y-6460500D02*
X10720200Y-6460500D01*
X10705200Y-6534400D02*
X10705200Y-6564400D01*
X10690200Y-6549400D02*
X10720200Y-6549400D01*
X10705200Y-6623300D02*
X10705200Y-6653300D01*
X10690200Y-6638300D02*
X10720200Y-6638300D01*
X10705200Y-6712200D02*
X10705200Y-6742200D01*
X10690200Y-6727200D02*
X10720200Y-6727200D01*
X10705200Y-6801100D02*
X10705200Y-6831100D01*
X10690200Y-6816100D02*
X10720200Y-6816100D01*
X10705200Y-6890000D02*
X10705200Y-6920000D01*
X10690200Y-6905000D02*
X10720200Y-6905000D01*
X10705200Y-6978900D02*
X10705200Y-7008900D01*
X10690200Y-6993900D02*
X10720200Y-6993900D01*
X10705200Y-7067800D02*
X10705200Y-7097800D01*
X10690200Y-7082800D02*
X10720200Y-7082800D01*
X10705200Y-7156700D02*
X10705200Y-7186700D01*
X10690200Y-7171700D02*
X10720200Y-7171700D01*
X10705200Y-7245600D02*
X10705200Y-7275600D01*
X10690200Y-7260600D02*
X10720200Y-7260600D01*
X10705200Y-7334500D02*
X10705200Y-7364500D01*
X10690200Y-7349500D02*
X10720200Y-7349500D01*
X10794100Y-4825500D02*
X10794100Y-4855500D01*
X10779100Y-4840500D02*
X10809100Y-4840500D01*
X10794100Y-4914400D02*
X10794100Y-4944400D01*
X10779100Y-4929400D02*
X10809100Y-4929400D01*
X10794100Y-5003300D02*
X10794100Y-5033300D01*
X10779100Y-5018300D02*
X10809100Y-5018300D01*
X10794100Y-5092200D02*
X10794100Y-5122200D01*
X10779100Y-5107200D02*
X10809100Y-5107200D01*
X10794100Y-5181100D02*
X10794100Y-5211100D01*
X10779100Y-5196100D02*
X10809100Y-5196100D01*
X10794100Y-5270000D02*
X10794100Y-5300000D01*
X10779100Y-5285000D02*
X10809100Y-5285000D01*
X10794100Y-5358900D02*
X10794100Y-5388900D01*
X10779100Y-5373900D02*
X10809100Y-5373900D01*
X10794100Y-5447800D02*
X10794100Y-5477800D01*
X10779100Y-5462800D02*
X10809100Y-5462800D01*
X10794100Y-5536700D02*
X10794100Y-5566700D01*
X10779100Y-5551700D02*
X10809100Y-5551700D01*
X10794100Y-5625600D02*
X10794100Y-5655600D01*
X10779100Y-5640600D02*
X10809100Y-5640600D01*
X10794100Y-5714500D02*
X10794100Y-5744500D01*
X10779100Y-5729500D02*
X10809100Y-5729500D01*
X10794100Y-6445500D02*
X10794100Y-6475500D01*
X10779100Y-6460500D02*
X10809100Y-6460500D01*
X10794100Y-6534400D02*
X10794100Y-6564400D01*
X10779100Y-6549400D02*
X10809100Y-6549400D01*
X10794100Y-6623300D02*
X10794100Y-6653300D01*
X10779100Y-6638300D02*
X10809100Y-6638300D01*
X10794100Y-6712200D02*
X10794100Y-6742200D01*
X10779100Y-6727200D02*
X10809100Y-6727200D01*
X10794100Y-6801100D02*
X10794100Y-6831100D01*
X10779100Y-6816100D02*
X10809100Y-6816100D01*
X10794100Y-6890000D02*
X10794100Y-6920000D01*
X10779100Y-6905000D02*
X10809100Y-6905000D01*
X10794100Y-6978900D02*
X10794100Y-7008900D01*
X10779100Y-6993900D02*
X10809100Y-6993900D01*
X10794100Y-7067800D02*
X10794100Y-7097800D01*
X10779100Y-7082800D02*
X10809100Y-7082800D01*
X10794100Y-7156700D02*
X10794100Y-7186700D01*
X10779100Y-7171700D02*
X10809100Y-7171700D01*
X10794100Y-7245600D02*
X10794100Y-7275600D01*
X10779100Y-7260600D02*
X10809100Y-7260600D01*
X10794100Y-7334500D02*
X10794100Y-7364500D01*
X10779100Y-7349500D02*
X10809100Y-7349500D01*
X10883000Y-4825500D02*
X10883000Y-4855500D01*
X10868000Y-4840500D02*
X10898000Y-4840500D01*
X10883000Y-4914400D02*
X10883000Y-4944400D01*
X10868000Y-4929400D02*
X10898000Y-4929400D01*
X10883000Y-5003300D02*
X10883000Y-5033300D01*
X10868000Y-5018300D02*
X10898000Y-5018300D01*
X10883000Y-5092200D02*
X10883000Y-5122200D01*
X10868000Y-5107200D02*
X10898000Y-5107200D01*
X10883000Y-5181100D02*
X10883000Y-5211100D01*
X10868000Y-5196100D02*
X10898000Y-5196100D01*
X10883000Y-5270000D02*
X10883000Y-5300000D01*
X10868000Y-5285000D02*
X10898000Y-5285000D01*
X10883000Y-5358900D02*
X10883000Y-5388900D01*
X10868000Y-5373900D02*
X10898000Y-5373900D01*
X10883000Y-5447800D02*
X10883000Y-5477800D01*
X10868000Y-5462800D02*
X10898000Y-5462800D01*
X10883000Y-5536700D02*
X10883000Y-5566700D01*
X10868000Y-5551700D02*
X10898000Y-5551700D01*
X10883000Y-5625600D02*
X10883000Y-5655600D01*
X10868000Y-5640600D02*
X10898000Y-5640600D01*
X10883000Y-5714500D02*
X10883000Y-5744500D01*
X10868000Y-5729500D02*
X10898000Y-5729500D01*
X10883000Y-6445500D02*
X10883000Y-6475500D01*
X10868000Y-6460500D02*
X10898000Y-6460500D01*
X10883000Y-6534400D02*
X10883000Y-6564400D01*
X10868000Y-6549400D02*
X10898000Y-6549400D01*
X10883000Y-6623300D02*
X10883000Y-6653300D01*
X10868000Y-6638300D02*
X10898000Y-6638300D01*
X10883000Y-6712200D02*
X10883000Y-6742200D01*
X10868000Y-6727200D02*
X10898000Y-6727200D01*
X10883000Y-6801100D02*
X10883000Y-6831100D01*
X10868000Y-6816100D02*
X10898000Y-6816100D01*
X10883000Y-6890000D02*
X10883000Y-6920000D01*
X10868000Y-6905000D02*
X10898000Y-6905000D01*
X10883000Y-6978900D02*
X10883000Y-7008900D01*
X10868000Y-6993900D02*
X10898000Y-6993900D01*
X10883000Y-7067800D02*
X10883000Y-7097800D01*
X10868000Y-7082800D02*
X10898000Y-7082800D01*
X10883000Y-7156700D02*
X10883000Y-7186700D01*
X10868000Y-7171700D02*
X10898000Y-7171700D01*
X10883000Y-7245600D02*
X10883000Y-7275600D01*
X10868000Y-7260600D02*
X10898000Y-7260600D01*
X10883000Y-7334500D02*
X10883000Y-7364500D01*
X10868000Y-7349500D02*
X10898000Y-7349500D01*
X10971900Y-4825500D02*
X10971900Y-4855500D01*
X10956900Y-4840500D02*
X10986900Y-4840500D01*
X10971900Y-4914400D02*
X10971900Y-4944400D01*
X10956900Y-4929400D02*
X10986900Y-4929400D01*
X10971900Y-5003300D02*
X10971900Y-5033300D01*
X10956900Y-5018300D02*
X10986900Y-5018300D01*
X10971900Y-5092200D02*
X10971900Y-5122200D01*
X10956900Y-5107200D02*
X10986900Y-5107200D01*
X10971900Y-5181100D02*
X10971900Y-5211100D01*
X10956900Y-5196100D02*
X10986900Y-5196100D01*
X10971900Y-5270000D02*
X10971900Y-5300000D01*
X10956900Y-5285000D02*
X10986900Y-5285000D01*
X10971900Y-5358900D02*
X10971900Y-5388900D01*
X10956900Y-5373900D02*
X10986900Y-5373900D01*
X10971900Y-5447800D02*
X10971900Y-5477800D01*
X10956900Y-5462800D02*
X10986900Y-5462800D01*
X10971900Y-5536700D02*
X10971900Y-5566700D01*
X10956900Y-5551700D02*
X10986900Y-5551700D01*
X10971900Y-5625600D02*
X10971900Y-5655600D01*
X10956900Y-5640600D02*
X10986900Y-5640600D01*
X10971900Y-5714500D02*
X10971900Y-5744500D01*
X10956900Y-5729500D02*
X10986900Y-5729500D01*
X10971900Y-6445500D02*
X10971900Y-6475500D01*
X10956900Y-6460500D02*
X10986900Y-6460500D01*
X10971900Y-6534400D02*
X10971900Y-6564400D01*
X10956900Y-6549400D02*
X10986900Y-6549400D01*
X10971900Y-6623300D02*
X10971900Y-6653300D01*
X10956900Y-6638300D02*
X10986900Y-6638300D01*
X10971900Y-6712200D02*
X10971900Y-6742200D01*
X10956900Y-6727200D02*
X10986900Y-6727200D01*
X10971900Y-6801100D02*
X10971900Y-6831100D01*
X10956900Y-6816100D02*
X10986900Y-6816100D01*
X10971900Y-6890000D02*
X10971900Y-6920000D01*
X10956900Y-6905000D02*
X10986900Y-6905000D01*
X10971900Y-6978900D02*
X10971900Y-7008900D01*
X10956900Y-6993900D02*
X10986900Y-6993900D01*
X10971900Y-7067800D02*
X10971900Y-7097800D01*
X10956900Y-7082800D02*
X10986900Y-7082800D01*
X10971900Y-7156700D02*
X10971900Y-7186700D01*
X10956900Y-7171700D02*
X10986900Y-7171700D01*
X10971900Y-7245600D02*
X10971900Y-7275600D01*
X10956900Y-7260600D02*
X10986900Y-7260600D01*
X10971900Y-7334500D02*
X10971900Y-7364500D01*
X10956900Y-7349500D02*
X10986900Y-7349500D01*
X11024000Y-4267250D02*
X11024000Y-4297250D01*
X11009000Y-4282250D02*
X11039000Y-4282250D01*
X11024000Y-4367250D02*
X11024000Y-4397250D01*
X11009000Y-4382250D02*
X11039000Y-4382250D01*
X11024000Y-4467250D02*
X11024000Y-4497250D01*
X11009000Y-4482250D02*
X11039000Y-4482250D01*
X11024000Y-4567250D02*
X11024000Y-4597250D01*
X11009000Y-4582250D02*
X11039000Y-4582250D01*
X11024000Y-4667250D02*
X11024000Y-4697250D01*
X11009000Y-4682250D02*
X11039000Y-4682250D01*
X11024000Y-7533000D02*
X11024000Y-7563000D01*
X11009000Y-7548000D02*
X11039000Y-7548000D01*
X11024000Y-7633000D02*
X11024000Y-7663000D01*
X11009000Y-7648000D02*
X11039000Y-7648000D01*
X11024000Y-7733000D02*
X11024000Y-7763000D01*
X11009000Y-7748000D02*
X11039000Y-7748000D01*
X11024000Y-7833000D02*
X11024000Y-7863000D01*
X11009000Y-7848000D02*
X11039000Y-7848000D01*
X11024000Y-7933000D02*
X11024000Y-7963000D01*
X11009000Y-7948000D02*
X11039000Y-7948000D01*
X11060800Y-4825500D02*
X11060800Y-4855500D01*
X11045800Y-4840500D02*
X11075800Y-4840500D01*
X11060800Y-4914400D02*
X11060800Y-4944400D01*
X11045800Y-4929400D02*
X11075800Y-4929400D01*
X11060800Y-5003300D02*
X11060800Y-5033300D01*
X11045800Y-5018300D02*
X11075800Y-5018300D01*
X11060800Y-5092200D02*
X11060800Y-5122200D01*
X11045800Y-5107200D02*
X11075800Y-5107200D01*
X11060800Y-5181100D02*
X11060800Y-5211100D01*
X11045800Y-5196100D02*
X11075800Y-5196100D01*
X11060800Y-5270000D02*
X11060800Y-5300000D01*
X11045800Y-5285000D02*
X11075800Y-5285000D01*
X11060800Y-5358900D02*
X11060800Y-5388900D01*
X11045800Y-5373900D02*
X11075800Y-5373900D01*
X11060800Y-5447800D02*
X11060800Y-5477800D01*
X11045800Y-5462800D02*
X11075800Y-5462800D01*
X11060800Y-5536700D02*
X11060800Y-5566700D01*
X11045800Y-5551700D02*
X11075800Y-5551700D01*
X11060800Y-5625600D02*
X11060800Y-5655600D01*
X11045800Y-5640600D02*
X11075800Y-5640600D01*
X11060800Y-5714500D02*
X11060800Y-5744500D01*
X11045800Y-5729500D02*
X11075800Y-5729500D01*
X11060800Y-6445500D02*
X11060800Y-6475500D01*
X11045800Y-6460500D02*
X11075800Y-6460500D01*
X11060800Y-6534400D02*
X11060800Y-6564400D01*
X11045800Y-6549400D02*
X11075800Y-6549400D01*
X11060800Y-6623300D02*
X11060800Y-6653300D01*
X11045800Y-6638300D02*
X11075800Y-6638300D01*
X11060800Y-6712200D02*
X11060800Y-6742200D01*
X11045800Y-6727200D02*
X11075800Y-6727200D01*
X11060800Y-6801100D02*
X11060800Y-6831100D01*
X11045800Y-6816100D02*
X11075800Y-6816100D01*
X11060800Y-6890000D02*
X11060800Y-6920000D01*
X11045800Y-6905000D02*
X11075800Y-6905000D01*
X11060800Y-6978900D02*
X11060800Y-7008900D01*
X11045800Y-6993900D02*
X11075800Y-6993900D01*
X11060800Y-7067800D02*
X11060800Y-7097800D01*
X11045800Y-7082800D02*
X11075800Y-7082800D01*
X11060800Y-7156700D02*
X11060800Y-7186700D01*
X11045800Y-7171700D02*
X11075800Y-7171700D01*
X11060800Y-7245600D02*
X11060800Y-7275600D01*
X11045800Y-7260600D02*
X11075800Y-7260600D01*
X11060800Y-7334500D02*
X11060800Y-7364500D01*
X11045800Y-7349500D02*
X11075800Y-7349500D01*
X11720200Y-4811950D02*
X11720200Y-4841950D01*
X11705200Y-4826950D02*
X11735200Y-4826950D01*
X11720200Y-4900850D02*
X11720200Y-4930850D01*
X11705200Y-4915850D02*
X11735200Y-4915850D01*
X11720200Y-4989750D02*
X11720200Y-5019750D01*
X11705200Y-5004750D02*
X11735200Y-5004750D01*
X11720200Y-5078650D02*
X11720200Y-5108650D01*
X11705200Y-5093650D02*
X11735200Y-5093650D01*
X11720200Y-5167550D02*
X11720200Y-5197550D01*
X11705200Y-5182550D02*
X11735200Y-5182550D01*
X11720200Y-5256450D02*
X11720200Y-5286450D01*
X11705200Y-5271450D02*
X11735200Y-5271450D01*
X11720200Y-5345350D02*
X11720200Y-5375350D01*
X11705200Y-5360350D02*
X11735200Y-5360350D01*
X11720200Y-5434250D02*
X11720200Y-5464250D01*
X11705200Y-5449250D02*
X11735200Y-5449250D01*
X11720200Y-5523150D02*
X11720200Y-5553150D01*
X11705200Y-5538150D02*
X11735200Y-5538150D01*
X11720200Y-5612050D02*
X11720200Y-5642050D01*
X11705200Y-5627050D02*
X11735200Y-5627050D01*
X11720200Y-5700950D02*
X11720200Y-5730950D01*
X11705200Y-5715950D02*
X11735200Y-5715950D01*
X11720200Y-5789850D02*
X11720200Y-5819850D01*
X11705200Y-5804850D02*
X11735200Y-5804850D01*
X11720200Y-5878750D02*
X11720200Y-5908750D01*
X11705200Y-5893750D02*
X11735200Y-5893750D01*
X11720200Y-5967650D02*
X11720200Y-5997650D01*
X11705200Y-5982650D02*
X11735200Y-5982650D01*
X11720200Y-6056550D02*
X11720200Y-6086550D01*
X11705200Y-6071550D02*
X11735200Y-6071550D01*
X11720200Y-6145450D02*
X11720200Y-6175450D01*
X11705200Y-6160450D02*
X11735200Y-6160450D01*
X11720200Y-6234350D02*
X11720200Y-6264350D01*
X11705200Y-6249350D02*
X11735200Y-6249350D01*
X11720200Y-6323250D02*
X11720200Y-6353250D01*
X11705200Y-6338250D02*
X11735200Y-6338250D01*
X11720200Y-6412150D02*
X11720200Y-6442150D01*
X11705200Y-6427150D02*
X11735200Y-6427150D01*
X11720200Y-6501050D02*
X11720200Y-6531050D01*
X11705200Y-6516050D02*
X11735200Y-6516050D01*
X11720200Y-6589950D02*
X11720200Y-6619950D01*
X11705200Y-6604950D02*
X11735200Y-6604950D01*
X11720200Y-6678850D02*
X11720200Y-6708850D01*
X11705200Y-6693850D02*
X11735200Y-6693850D01*
X11720200Y-6767750D02*
X11720200Y-6797750D01*
X11705200Y-6782750D02*
X11735200Y-6782750D01*
X11720200Y-6856650D02*
X11720200Y-6886650D01*
X11705200Y-6871650D02*
X11735200Y-6871650D01*
X11720200Y-6945550D02*
X11720200Y-6975550D01*
X11705200Y-6960550D02*
X11735200Y-6960550D01*
X11720200Y-7034450D02*
X11720200Y-7064450D01*
X11705200Y-7049450D02*
X11735200Y-7049450D01*
X11720200Y-7123350D02*
X11720200Y-7153350D01*
X11705200Y-7138350D02*
X11735200Y-7138350D01*
X11720200Y-7212250D02*
X11720200Y-7242250D01*
X11705200Y-7227250D02*
X11735200Y-7227250D01*
X11720200Y-7301150D02*
X11720200Y-7331150D01*
X11705200Y-7316150D02*
X11735200Y-7316150D01*
X11720200Y-7390050D02*
X11720200Y-7420050D01*
X11705200Y-7405050D02*
X11735200Y-7405050D01*
X11754000Y-7524000D02*
X11754000Y-7554000D01*
X11739000Y-7539000D02*
X11769000Y-7539000D01*
X11754000Y-7624000D02*
X11754000Y-7654000D01*
X11739000Y-7639000D02*
X11769000Y-7639000D01*
X11754000Y-7724000D02*
X11754000Y-7754000D01*
X11739000Y-7739000D02*
X11769000Y-7739000D01*
X11754000Y-7824000D02*
X11754000Y-7854000D01*
X11739000Y-7839000D02*
X11769000Y-7839000D01*
X11754000Y-7924000D02*
X11754000Y-7954000D01*
X11739000Y-7939000D02*
X11769000Y-7939000D01*
X11758000Y-4265250D02*
X11758000Y-4295250D01*
X11743000Y-4280250D02*
X11773000Y-4280250D01*
X11758000Y-4365250D02*
X11758000Y-4395250D01*
X11743000Y-4380250D02*
X11773000Y-4380250D01*
X11758000Y-4465250D02*
X11758000Y-4495250D01*
X11743000Y-4480250D02*
X11773000Y-4480250D01*
X11758000Y-4565250D02*
X11758000Y-4595250D01*
X11743000Y-4580250D02*
X11773000Y-4580250D01*
X11758000Y-4665250D02*
X11758000Y-4695250D01*
X11743000Y-4680250D02*
X11773000Y-4680250D01*
X11809100Y-4811950D02*
X11809100Y-4841950D01*
X11794100Y-4826950D02*
X11824100Y-4826950D01*
X11809100Y-4900850D02*
X11809100Y-4930850D01*
X11794100Y-4915850D02*
X11824100Y-4915850D01*
X11809100Y-4989750D02*
X11809100Y-5019750D01*
X11794100Y-5004750D02*
X11824100Y-5004750D01*
X11809100Y-5078650D02*
X11809100Y-5108650D01*
X11794100Y-5093650D02*
X11824100Y-5093650D01*
X11809100Y-5167550D02*
X11809100Y-5197550D01*
X11794100Y-5182550D02*
X11824100Y-5182550D01*
X11809100Y-5256450D02*
X11809100Y-5286450D01*
X11794100Y-5271450D02*
X11824100Y-5271450D01*
X11809100Y-5345350D02*
X11809100Y-5375350D01*
X11794100Y-5360350D02*
X11824100Y-5360350D01*
X11809100Y-5434250D02*
X11809100Y-5464250D01*
X11794100Y-5449250D02*
X11824100Y-5449250D01*
X11809100Y-5523150D02*
X11809100Y-5553150D01*
X11794100Y-5538150D02*
X11824100Y-5538150D01*
X11809100Y-5612050D02*
X11809100Y-5642050D01*
X11794100Y-5627050D02*
X11824100Y-5627050D01*
X11809100Y-5700950D02*
X11809100Y-5730950D01*
X11794100Y-5715950D02*
X11824100Y-5715950D01*
X11809100Y-5789850D02*
X11809100Y-5819850D01*
X11794100Y-5804850D02*
X11824100Y-5804850D01*
X11809100Y-5878750D02*
X11809100Y-5908750D01*
X11794100Y-5893750D02*
X11824100Y-5893750D01*
X11809100Y-5967650D02*
X11809100Y-5997650D01*
X11794100Y-5982650D02*
X11824100Y-5982650D01*
X11809100Y-6056550D02*
X11809100Y-6086550D01*
X11794100Y-6071550D02*
X11824100Y-6071550D01*
X11809100Y-6145450D02*
X11809100Y-6175450D01*
X11794100Y-6160450D02*
X11824100Y-6160450D01*
X11809100Y-6234350D02*
X11809100Y-6264350D01*
X11794100Y-6249350D02*
X11824100Y-6249350D01*
X11809100Y-6323250D02*
X11809100Y-6353250D01*
X11794100Y-6338250D02*
X11824100Y-6338250D01*
X11809100Y-6412150D02*
X11809100Y-6442150D01*
X11794100Y-6427150D02*
X11824100Y-6427150D01*
X11809100Y-6501050D02*
X11809100Y-6531050D01*
X11794100Y-6516050D02*
X11824100Y-6516050D01*
X11809100Y-6589950D02*
X11809100Y-6619950D01*
X11794100Y-6604950D02*
X11824100Y-6604950D01*
X11809100Y-6678850D02*
X11809100Y-6708850D01*
X11794100Y-6693850D02*
X11824100Y-6693850D01*
X11809100Y-6767750D02*
X11809100Y-6797750D01*
X11794100Y-6782750D02*
X11824100Y-6782750D01*
X11809100Y-6856650D02*
X11809100Y-6886650D01*
X11794100Y-6871650D02*
X11824100Y-6871650D01*
X11809100Y-6945550D02*
X11809100Y-6975550D01*
X11794100Y-6960550D02*
X11824100Y-6960550D01*
X11809100Y-7034450D02*
X11809100Y-7064450D01*
X11794100Y-7049450D02*
X11824100Y-7049450D01*
X11809100Y-7123350D02*
X11809100Y-7153350D01*
X11794100Y-7138350D02*
X11824100Y-7138350D01*
X11809100Y-7212250D02*
X11809100Y-7242250D01*
X11794100Y-7227250D02*
X11824100Y-7227250D01*
X11809100Y-7301150D02*
X11809100Y-7331150D01*
X11794100Y-7316150D02*
X11824100Y-7316150D01*
X11809100Y-7390050D02*
X11809100Y-7420050D01*
X11794100Y-7405050D02*
X11824100Y-7405050D01*
X11898000Y-4811950D02*
X11898000Y-4841950D01*
X11883000Y-4826950D02*
X11913000Y-4826950D01*
X11898000Y-4900850D02*
X11898000Y-4930850D01*
X11883000Y-4915850D02*
X11913000Y-4915850D01*
X11898000Y-4989750D02*
X11898000Y-5019750D01*
X11883000Y-5004750D02*
X11913000Y-5004750D01*
X11898000Y-5078650D02*
X11898000Y-5108650D01*
X11883000Y-5093650D02*
X11913000Y-5093650D01*
X11898000Y-5167550D02*
X11898000Y-5197550D01*
X11883000Y-5182550D02*
X11913000Y-5182550D01*
X11898000Y-5256450D02*
X11898000Y-5286450D01*
X11883000Y-5271450D02*
X11913000Y-5271450D01*
X11898000Y-5345350D02*
X11898000Y-5375350D01*
X11883000Y-5360350D02*
X11913000Y-5360350D01*
X11898000Y-5434250D02*
X11898000Y-5464250D01*
X11883000Y-5449250D02*
X11913000Y-5449250D01*
X11898000Y-5523150D02*
X11898000Y-5553150D01*
X11883000Y-5538150D02*
X11913000Y-5538150D01*
X11898000Y-5612050D02*
X11898000Y-5642050D01*
X11883000Y-5627050D02*
X11913000Y-5627050D01*
X11898000Y-5700950D02*
X11898000Y-5730950D01*
X11883000Y-5715950D02*
X11913000Y-5715950D01*
X11898000Y-5789850D02*
X11898000Y-5819850D01*
X11883000Y-5804850D02*
X11913000Y-5804850D01*
X11898000Y-5878750D02*
X11898000Y-5908750D01*
X11883000Y-5893750D02*
X11913000Y-5893750D01*
X11898000Y-5967650D02*
X11898000Y-5997650D01*
X11883000Y-5982650D02*
X11913000Y-5982650D01*
X11898000Y-6056550D02*
X11898000Y-6086550D01*
X11883000Y-6071550D02*
X11913000Y-6071550D01*
X11898000Y-6145450D02*
X11898000Y-6175450D01*
X11883000Y-6160450D02*
X11913000Y-6160450D01*
X11898000Y-6234350D02*
X11898000Y-6264350D01*
X11883000Y-6249350D02*
X11913000Y-6249350D01*
X11898000Y-6323250D02*
X11898000Y-6353250D01*
X11883000Y-6338250D02*
X11913000Y-6338250D01*
X11898000Y-6412150D02*
X11898000Y-6442150D01*
X11883000Y-6427150D02*
X11913000Y-6427150D01*
X11898000Y-6501050D02*
X11898000Y-6531050D01*
X11883000Y-6516050D02*
X11913000Y-6516050D01*
X11898000Y-6589950D02*
X11898000Y-6619950D01*
X11883000Y-6604950D02*
X11913000Y-6604950D01*
X11898000Y-6678850D02*
X11898000Y-6708850D01*
X11883000Y-6693850D02*
X11913000Y-6693850D01*
X11898000Y-6767750D02*
X11898000Y-6797750D01*
X11883000Y-6782750D02*
X11913000Y-6782750D01*
X11898000Y-6856650D02*
X11898000Y-6886650D01*
X11883000Y-6871650D02*
X11913000Y-6871650D01*
X11898000Y-6945550D02*
X11898000Y-6975550D01*
X11883000Y-6960550D02*
X11913000Y-6960550D01*
X11898000Y-7034450D02*
X11898000Y-7064450D01*
X11883000Y-7049450D02*
X11913000Y-7049450D01*
X11898000Y-7123350D02*
X11898000Y-7153350D01*
X11883000Y-7138350D02*
X11913000Y-7138350D01*
X11898000Y-7212250D02*
X11898000Y-7242250D01*
X11883000Y-7227250D02*
X11913000Y-7227250D01*
X11898000Y-7301150D02*
X11898000Y-7331150D01*
X11883000Y-7316150D02*
X11913000Y-7316150D01*
X11898000Y-7390050D02*
X11898000Y-7420050D01*
X11883000Y-7405050D02*
X11913000Y-7405050D01*
X11986900Y-4811950D02*
X11986900Y-4841950D01*
X11971900Y-4826950D02*
X12001900Y-4826950D01*
X11986900Y-4900850D02*
X11986900Y-4930850D01*
X11971900Y-4915850D02*
X12001900Y-4915850D01*
X11986900Y-4989750D02*
X11986900Y-5019750D01*
X11971900Y-5004750D02*
X12001900Y-5004750D01*
X11986900Y-5078650D02*
X11986900Y-5108650D01*
X11971900Y-5093650D02*
X12001900Y-5093650D01*
X11986900Y-5167550D02*
X11986900Y-5197550D01*
X11971900Y-5182550D02*
X12001900Y-5182550D01*
X11986900Y-5256450D02*
X11986900Y-5286450D01*
X11971900Y-5271450D02*
X12001900Y-5271450D01*
X11986900Y-5345350D02*
X11986900Y-5375350D01*
X11971900Y-5360350D02*
X12001900Y-5360350D01*
X11986900Y-5434250D02*
X11986900Y-5464250D01*
X11971900Y-5449250D02*
X12001900Y-5449250D01*
X11986900Y-5523150D02*
X11986900Y-5553150D01*
X11971900Y-5538150D02*
X12001900Y-5538150D01*
X11986900Y-5612050D02*
X11986900Y-5642050D01*
X11971900Y-5627050D02*
X12001900Y-5627050D01*
X11986900Y-5700950D02*
X11986900Y-5730950D01*
X11971900Y-5715950D02*
X12001900Y-5715950D01*
X11986900Y-5789850D02*
X11986900Y-5819850D01*
X11971900Y-5804850D02*
X12001900Y-5804850D01*
X11986900Y-5878750D02*
X11986900Y-5908750D01*
X11971900Y-5893750D02*
X12001900Y-5893750D01*
X11986900Y-5967650D02*
X11986900Y-5997650D01*
X11971900Y-5982650D02*
X12001900Y-5982650D01*
X11986900Y-6056550D02*
X11986900Y-6086550D01*
X11971900Y-6071550D02*
X12001900Y-6071550D01*
X11986900Y-6145450D02*
X11986900Y-6175450D01*
X11971900Y-6160450D02*
X12001900Y-6160450D01*
X11986900Y-6234350D02*
X11986900Y-6264350D01*
X11971900Y-6249350D02*
X12001900Y-6249350D01*
X11986900Y-6323250D02*
X11986900Y-6353250D01*
X11971900Y-6338250D02*
X12001900Y-6338250D01*
X11986900Y-6412150D02*
X11986900Y-6442150D01*
X11971900Y-6427150D02*
X12001900Y-6427150D01*
X11986900Y-6501050D02*
X11986900Y-6531050D01*
X11971900Y-6516050D02*
X12001900Y-6516050D01*
X11986900Y-6589950D02*
X11986900Y-6619950D01*
X11971900Y-6604950D02*
X12001900Y-6604950D01*
X11986900Y-6678850D02*
X11986900Y-6708850D01*
X11971900Y-6693850D02*
X12001900Y-6693850D01*
X11986900Y-6767750D02*
X11986900Y-6797750D01*
X11971900Y-6782750D02*
X12001900Y-6782750D01*
X11986900Y-6856650D02*
X11986900Y-6886650D01*
X11971900Y-6871650D02*
X12001900Y-6871650D01*
X11986900Y-6945550D02*
X11986900Y-6975550D01*
X11971900Y-6960550D02*
X12001900Y-6960550D01*
X11986900Y-7034450D02*
X11986900Y-7064450D01*
X11971900Y-7049450D02*
X12001900Y-7049450D01*
X11986900Y-7123350D02*
X11986900Y-7153350D01*
X11971900Y-7138350D02*
X12001900Y-7138350D01*
X11986900Y-7212250D02*
X11986900Y-7242250D01*
X11971900Y-7227250D02*
X12001900Y-7227250D01*
X11986900Y-7301150D02*
X11986900Y-7331150D01*
X11971900Y-7316150D02*
X12001900Y-7316150D01*
X11986900Y-7390050D02*
X11986900Y-7420050D01*
X11971900Y-7405050D02*
X12001900Y-7405050D01*
X12075800Y-4811950D02*
X12075800Y-4841950D01*
X12060800Y-4826950D02*
X12090800Y-4826950D01*
X12075800Y-4900850D02*
X12075800Y-4930850D01*
X12060800Y-4915850D02*
X12090800Y-4915850D01*
X12075800Y-4989750D02*
X12075800Y-5019750D01*
X12060800Y-5004750D02*
X12090800Y-5004750D01*
X12075800Y-5078650D02*
X12075800Y-5108650D01*
X12060800Y-5093650D02*
X12090800Y-5093650D01*
X12075800Y-5167550D02*
X12075800Y-5197550D01*
X12060800Y-5182550D02*
X12090800Y-5182550D01*
X12075800Y-5256450D02*
X12075800Y-5286450D01*
X12060800Y-5271450D02*
X12090800Y-5271450D01*
X12075800Y-5345350D02*
X12075800Y-5375350D01*
X12060800Y-5360350D02*
X12090800Y-5360350D01*
X12075800Y-5434250D02*
X12075800Y-5464250D01*
X12060800Y-5449250D02*
X12090800Y-5449250D01*
X12075800Y-5523150D02*
X12075800Y-5553150D01*
X12060800Y-5538150D02*
X12090800Y-5538150D01*
X12075800Y-5612050D02*
X12075800Y-5642050D01*
X12060800Y-5627050D02*
X12090800Y-5627050D01*
X12075800Y-5700950D02*
X12075800Y-5730950D01*
X12060800Y-5715950D02*
X12090800Y-5715950D01*
X12075800Y-5789850D02*
X12075800Y-5819850D01*
X12060800Y-5804850D02*
X12090800Y-5804850D01*
X12075800Y-5878750D02*
X12075800Y-5908750D01*
X12060800Y-5893750D02*
X12090800Y-5893750D01*
X12075800Y-5967650D02*
X12075800Y-5997650D01*
X12060800Y-5982650D02*
X12090800Y-5982650D01*
X12075800Y-6056550D02*
X12075800Y-6086550D01*
X12060800Y-6071550D02*
X12090800Y-6071550D01*
X12075800Y-6145450D02*
X12075800Y-6175450D01*
X12060800Y-6160450D02*
X12090800Y-6160450D01*
X12075800Y-6234350D02*
X12075800Y-6264350D01*
X12060800Y-6249350D02*
X12090800Y-6249350D01*
X12075800Y-6323250D02*
X12075800Y-6353250D01*
X12060800Y-6338250D02*
X12090800Y-6338250D01*
X12075800Y-6412150D02*
X12075800Y-6442150D01*
X12060800Y-6427150D02*
X12090800Y-6427150D01*
X12075800Y-6501050D02*
X12075800Y-6531050D01*
X12060800Y-6516050D02*
X12090800Y-6516050D01*
X12075800Y-6589950D02*
X12075800Y-6619950D01*
X12060800Y-6604950D02*
X12090800Y-6604950D01*
X12075800Y-6678850D02*
X12075800Y-6708850D01*
X12060800Y-6693850D02*
X12090800Y-6693850D01*
X12075800Y-6767750D02*
X12075800Y-6797750D01*
X12060800Y-6782750D02*
X12090800Y-6782750D01*
X12075800Y-6856650D02*
X12075800Y-6886650D01*
X12060800Y-6871650D02*
X12090800Y-6871650D01*
X12075800Y-6945550D02*
X12075800Y-6975550D01*
X12060800Y-6960550D02*
X12090800Y-6960550D01*
X12075800Y-7034450D02*
X12075800Y-7064450D01*
X12060800Y-7049450D02*
X12090800Y-7049450D01*
X12075800Y-7123350D02*
X12075800Y-7153350D01*
X12060800Y-7138350D02*
X12090800Y-7138350D01*
X12075800Y-7212250D02*
X12075800Y-7242250D01*
X12060800Y-7227250D02*
X12090800Y-7227250D01*
X12075800Y-7301150D02*
X12075800Y-7331150D01*
X12060800Y-7316150D02*
X12090800Y-7316150D01*
X12075800Y-7390050D02*
X12075800Y-7420050D01*
X12060800Y-7405050D02*
X12090800Y-7405050D01*
X12287400Y-4801500D02*
X12287400Y-4831500D01*
X12272400Y-4816500D02*
X12302400Y-4816500D01*
X12287400Y-4890400D02*
X12287400Y-4920400D01*
X12272400Y-4905400D02*
X12302400Y-4905400D01*
X12287400Y-4979300D02*
X12287400Y-5009300D01*
X12272400Y-4994300D02*
X12302400Y-4994300D01*
X12287400Y-5068200D02*
X12287400Y-5098200D01*
X12272400Y-5083200D02*
X12302400Y-5083200D01*
X12287400Y-5157100D02*
X12287400Y-5187100D01*
X12272400Y-5172100D02*
X12302400Y-5172100D01*
X12287400Y-5246000D02*
X12287400Y-5276000D01*
X12272400Y-5261000D02*
X12302400Y-5261000D01*
X12287400Y-5334900D02*
X12287400Y-5364900D01*
X12272400Y-5349900D02*
X12302400Y-5349900D01*
X12287400Y-5423800D02*
X12287400Y-5453800D01*
X12272400Y-5438800D02*
X12302400Y-5438800D01*
X12287400Y-5512700D02*
X12287400Y-5542700D01*
X12272400Y-5527700D02*
X12302400Y-5527700D01*
X12287400Y-5601600D02*
X12287400Y-5631600D01*
X12272400Y-5616600D02*
X12302400Y-5616600D01*
X12287400Y-5690500D02*
X12287400Y-5720500D01*
X12272400Y-5705500D02*
X12302400Y-5705500D01*
X12287400Y-5779400D02*
X12287400Y-5809400D01*
X12272400Y-5794400D02*
X12302400Y-5794400D01*
X12287400Y-5868300D02*
X12287400Y-5898300D01*
X12272400Y-5883300D02*
X12302400Y-5883300D01*
X12287400Y-5957200D02*
X12287400Y-5987200D01*
X12272400Y-5972200D02*
X12302400Y-5972200D01*
X12287400Y-6046100D02*
X12287400Y-6076100D01*
X12272400Y-6061100D02*
X12302400Y-6061100D01*
X12287400Y-6135000D02*
X12287400Y-6165000D01*
X12272400Y-6150000D02*
X12302400Y-6150000D01*
X12287400Y-6223900D02*
X12287400Y-6253900D01*
X12272400Y-6238900D02*
X12302400Y-6238900D01*
X12287400Y-6312800D02*
X12287400Y-6342800D01*
X12272400Y-6327800D02*
X12302400Y-6327800D01*
X12287400Y-6401700D02*
X12287400Y-6431700D01*
X12272400Y-6416700D02*
X12302400Y-6416700D01*
X12287400Y-6490600D02*
X12287400Y-6520600D01*
X12272400Y-6505600D02*
X12302400Y-6505600D01*
X12287400Y-6579500D02*
X12287400Y-6609500D01*
X12272400Y-6594500D02*
X12302400Y-6594500D01*
X12287400Y-6668400D02*
X12287400Y-6698400D01*
X12272400Y-6683400D02*
X12302400Y-6683400D01*
X12287400Y-6757300D02*
X12287400Y-6787300D01*
X12272400Y-6772300D02*
X12302400Y-6772300D01*
X12287400Y-6846200D02*
X12287400Y-6876200D01*
X12272400Y-6861200D02*
X12302400Y-6861200D01*
X12287400Y-6935100D02*
X12287400Y-6965100D01*
X12272400Y-6950100D02*
X12302400Y-6950100D01*
X12287400Y-7024000D02*
X12287400Y-7054000D01*
X12272400Y-7039000D02*
X12302400Y-7039000D01*
X12287400Y-7112900D02*
X12287400Y-7142900D01*
X12272400Y-7127900D02*
X12302400Y-7127900D01*
X12287400Y-7201800D02*
X12287400Y-7231800D01*
X12272400Y-7216800D02*
X12302400Y-7216800D01*
X12287400Y-7290700D02*
X12287400Y-7320700D01*
X12272400Y-7305700D02*
X12302400Y-7305700D01*
X12287400Y-7379600D02*
X12287400Y-7409600D01*
X12272400Y-7394600D02*
X12302400Y-7394600D01*
X12376300Y-4801500D02*
X12376300Y-4831500D01*
X12361300Y-4816500D02*
X12391300Y-4816500D01*
X12376300Y-4890400D02*
X12376300Y-4920400D01*
X12361300Y-4905400D02*
X12391300Y-4905400D01*
X12376300Y-4979300D02*
X12376300Y-5009300D01*
X12361300Y-4994300D02*
X12391300Y-4994300D01*
X12376300Y-5068200D02*
X12376300Y-5098200D01*
X12361300Y-5083200D02*
X12391300Y-5083200D01*
X12376300Y-5157100D02*
X12376300Y-5187100D01*
X12361300Y-5172100D02*
X12391300Y-5172100D01*
X12376300Y-5246000D02*
X12376300Y-5276000D01*
X12361300Y-5261000D02*
X12391300Y-5261000D01*
X12376300Y-5334900D02*
X12376300Y-5364900D01*
X12361300Y-5349900D02*
X12391300Y-5349900D01*
X12376300Y-5423800D02*
X12376300Y-5453800D01*
X12361300Y-5438800D02*
X12391300Y-5438800D01*
X12376300Y-5512700D02*
X12376300Y-5542700D01*
X12361300Y-5527700D02*
X12391300Y-5527700D01*
X12376300Y-5601600D02*
X12376300Y-5631600D01*
X12361300Y-5616600D02*
X12391300Y-5616600D01*
X12376300Y-5690500D02*
X12376300Y-5720500D01*
X12361300Y-5705500D02*
X12391300Y-5705500D01*
X12376300Y-5779400D02*
X12376300Y-5809400D01*
X12361300Y-5794400D02*
X12391300Y-5794400D01*
X12376300Y-5868300D02*
X12376300Y-5898300D01*
X12361300Y-5883300D02*
X12391300Y-5883300D01*
X12376300Y-5957200D02*
X12376300Y-5987200D01*
X12361300Y-5972200D02*
X12391300Y-5972200D01*
X12376300Y-6046100D02*
X12376300Y-6076100D01*
X12361300Y-6061100D02*
X12391300Y-6061100D01*
X12376300Y-6135000D02*
X12376300Y-6165000D01*
X12361300Y-6150000D02*
X12391300Y-6150000D01*
X12376300Y-6223900D02*
X12376300Y-6253900D01*
X12361300Y-6238900D02*
X12391300Y-6238900D01*
X12376300Y-6312800D02*
X12376300Y-6342800D01*
X12361300Y-6327800D02*
X12391300Y-6327800D01*
X12376300Y-6401700D02*
X12376300Y-6431700D01*
X12361300Y-6416700D02*
X12391300Y-6416700D01*
X12376300Y-6490600D02*
X12376300Y-6520600D01*
X12361300Y-6505600D02*
X12391300Y-6505600D01*
X12376300Y-6579500D02*
X12376300Y-6609500D01*
X12361300Y-6594500D02*
X12391300Y-6594500D01*
X12376300Y-6668400D02*
X12376300Y-6698400D01*
X12361300Y-6683400D02*
X12391300Y-6683400D01*
X12376300Y-6757300D02*
X12376300Y-6787300D01*
X12361300Y-6772300D02*
X12391300Y-6772300D01*
X12376300Y-6846200D02*
X12376300Y-6876200D01*
X12361300Y-6861200D02*
X12391300Y-6861200D01*
X12376300Y-6935100D02*
X12376300Y-6965100D01*
X12361300Y-6950100D02*
X12391300Y-6950100D01*
X12376300Y-7024000D02*
X12376300Y-7054000D01*
X12361300Y-7039000D02*
X12391300Y-7039000D01*
X12376300Y-7112900D02*
X12376300Y-7142900D01*
X12361300Y-7127900D02*
X12391300Y-7127900D01*
X12376300Y-7201800D02*
X12376300Y-7231800D01*
X12361300Y-7216800D02*
X12391300Y-7216800D01*
X12376300Y-7290700D02*
X12376300Y-7320700D01*
X12361300Y-7305700D02*
X12391300Y-7305700D01*
X12376300Y-7379600D02*
X12376300Y-7409600D01*
X12361300Y-7394600D02*
X12391300Y-7394600D01*
X12465200Y-4801500D02*
X12465200Y-4831500D01*
X12450200Y-4816500D02*
X12480200Y-4816500D01*
X12465200Y-4890400D02*
X12465200Y-4920400D01*
X12450200Y-4905400D02*
X12480200Y-4905400D01*
X12465200Y-4979300D02*
X12465200Y-5009300D01*
X12450200Y-4994300D02*
X12480200Y-4994300D01*
X12465200Y-5068200D02*
X12465200Y-5098200D01*
X12450200Y-5083200D02*
X12480200Y-5083200D01*
X12465200Y-5157100D02*
X12465200Y-5187100D01*
X12450200Y-5172100D02*
X12480200Y-5172100D01*
X12465200Y-5246000D02*
X12465200Y-5276000D01*
X12450200Y-5261000D02*
X12480200Y-5261000D01*
X12465200Y-5334900D02*
X12465200Y-5364900D01*
X12450200Y-5349900D02*
X12480200Y-5349900D01*
X12465200Y-5423800D02*
X12465200Y-5453800D01*
X12450200Y-5438800D02*
X12480200Y-5438800D01*
X12465200Y-5512700D02*
X12465200Y-5542700D01*
X12450200Y-5527700D02*
X12480200Y-5527700D01*
X12465200Y-5601600D02*
X12465200Y-5631600D01*
X12450200Y-5616600D02*
X12480200Y-5616600D01*
X12465200Y-5690500D02*
X12465200Y-5720500D01*
X12450200Y-5705500D02*
X12480200Y-5705500D01*
X12465200Y-5779400D02*
X12465200Y-5809400D01*
X12450200Y-5794400D02*
X12480200Y-5794400D01*
X12465200Y-5868300D02*
X12465200Y-5898300D01*
X12450200Y-5883300D02*
X12480200Y-5883300D01*
X12465200Y-5957200D02*
X12465200Y-5987200D01*
X12450200Y-5972200D02*
X12480200Y-5972200D01*
X12465200Y-6046100D02*
X12465200Y-6076100D01*
X12450200Y-6061100D02*
X12480200Y-6061100D01*
X12465200Y-6135000D02*
X12465200Y-6165000D01*
X12450200Y-6150000D02*
X12480200Y-6150000D01*
X12465200Y-6223900D02*
X12465200Y-6253900D01*
X12450200Y-6238900D02*
X12480200Y-6238900D01*
X12465200Y-6312800D02*
X12465200Y-6342800D01*
X12450200Y-6327800D02*
X12480200Y-6327800D01*
X12465200Y-6401700D02*
X12465200Y-6431700D01*
X12450200Y-6416700D02*
X12480200Y-6416700D01*
X12465200Y-6490600D02*
X12465200Y-6520600D01*
X12450200Y-6505600D02*
X12480200Y-6505600D01*
X12465200Y-6579500D02*
X12465200Y-6609500D01*
X12450200Y-6594500D02*
X12480200Y-6594500D01*
X12465200Y-6668400D02*
X12465200Y-6698400D01*
X12450200Y-6683400D02*
X12480200Y-6683400D01*
X12465200Y-6757300D02*
X12465200Y-6787300D01*
X12450200Y-6772300D02*
X12480200Y-6772300D01*
X12465200Y-6846200D02*
X12465200Y-6876200D01*
X12450200Y-6861200D02*
X12480200Y-6861200D01*
X12465200Y-6935100D02*
X12465200Y-6965100D01*
X12450200Y-6950100D02*
X12480200Y-6950100D01*
X12465200Y-7024000D02*
X12465200Y-7054000D01*
X12450200Y-7039000D02*
X12480200Y-7039000D01*
X12465200Y-7112900D02*
X12465200Y-7142900D01*
X12450200Y-7127900D02*
X12480200Y-7127900D01*
X12465200Y-7201800D02*
X12465200Y-7231800D01*
X12450200Y-7216800D02*
X12480200Y-7216800D01*
X12465200Y-7290700D02*
X12465200Y-7320700D01*
X12450200Y-7305700D02*
X12480200Y-7305700D01*
X12465200Y-7379600D02*
X12465200Y-7409600D01*
X12450200Y-7394600D02*
X12480200Y-7394600D01*
X12554100Y-4801500D02*
X12554100Y-4831500D01*
X12539100Y-4816500D02*
X12569100Y-4816500D01*
X12554100Y-4890400D02*
X12554100Y-4920400D01*
X12539100Y-4905400D02*
X12569100Y-4905400D01*
X12554100Y-4979300D02*
X12554100Y-5009300D01*
X12539100Y-4994300D02*
X12569100Y-4994300D01*
X12554100Y-5068200D02*
X12554100Y-5098200D01*
X12539100Y-5083200D02*
X12569100Y-5083200D01*
X12554100Y-5157100D02*
X12554100Y-5187100D01*
X12539100Y-5172100D02*
X12569100Y-5172100D01*
X12554100Y-5246000D02*
X12554100Y-5276000D01*
X12539100Y-5261000D02*
X12569100Y-5261000D01*
X12554100Y-5334900D02*
X12554100Y-5364900D01*
X12539100Y-5349900D02*
X12569100Y-5349900D01*
X12554100Y-5423800D02*
X12554100Y-5453800D01*
X12539100Y-5438800D02*
X12569100Y-5438800D01*
X12554100Y-5512700D02*
X12554100Y-5542700D01*
X12539100Y-5527700D02*
X12569100Y-5527700D01*
X12554100Y-5601600D02*
X12554100Y-5631600D01*
X12539100Y-5616600D02*
X12569100Y-5616600D01*
X12554100Y-5690500D02*
X12554100Y-5720500D01*
X12539100Y-5705500D02*
X12569100Y-5705500D01*
X12554100Y-5779400D02*
X12554100Y-5809400D01*
X12539100Y-5794400D02*
X12569100Y-5794400D01*
X12554100Y-5868300D02*
X12554100Y-5898300D01*
X12539100Y-5883300D02*
X12569100Y-5883300D01*
X12554100Y-5957200D02*
X12554100Y-5987200D01*
X12539100Y-5972200D02*
X12569100Y-5972200D01*
X12554100Y-6046100D02*
X12554100Y-6076100D01*
X12539100Y-6061100D02*
X12569100Y-6061100D01*
X12554100Y-6135000D02*
X12554100Y-6165000D01*
X12539100Y-6150000D02*
X12569100Y-6150000D01*
X12554100Y-6223900D02*
X12554100Y-6253900D01*
X12539100Y-6238900D02*
X12569100Y-6238900D01*
X12554100Y-6312800D02*
X12554100Y-6342800D01*
X12539100Y-6327800D02*
X12569100Y-6327800D01*
X12554100Y-6401700D02*
X12554100Y-6431700D01*
X12539100Y-6416700D02*
X12569100Y-6416700D01*
X12554100Y-6490600D02*
X12554100Y-6520600D01*
X12539100Y-6505600D02*
X12569100Y-6505600D01*
X12554100Y-6579500D02*
X12554100Y-6609500D01*
X12539100Y-6594500D02*
X12569100Y-6594500D01*
X12554100Y-6668400D02*
X12554100Y-6698400D01*
X12539100Y-6683400D02*
X12569100Y-6683400D01*
X12554100Y-6757300D02*
X12554100Y-6787300D01*
X12539100Y-6772300D02*
X12569100Y-6772300D01*
X12554100Y-6846200D02*
X12554100Y-6876200D01*
X12539100Y-6861200D02*
X12569100Y-6861200D01*
X12554100Y-6935100D02*
X12554100Y-6965100D01*
X12539100Y-6950100D02*
X12569100Y-6950100D01*
X12554100Y-7024000D02*
X12554100Y-7054000D01*
X12539100Y-7039000D02*
X12569100Y-7039000D01*
X12554100Y-7112900D02*
X12554100Y-7142900D01*
X12539100Y-7127900D02*
X12569100Y-7127900D01*
X12554100Y-7201800D02*
X12554100Y-7231800D01*
X12539100Y-7216800D02*
X12569100Y-7216800D01*
X12554100Y-7290700D02*
X12554100Y-7320700D01*
X12539100Y-7305700D02*
X12569100Y-7305700D01*
X12554100Y-7379600D02*
X12554100Y-7409600D01*
X12539100Y-7394600D02*
X12569100Y-7394600D01*
X12604000Y-7524000D02*
X12604000Y-7554000D01*
X12589000Y-7539000D02*
X12619000Y-7539000D01*
X12604000Y-7624000D02*
X12604000Y-7654000D01*
X12589000Y-7639000D02*
X12619000Y-7639000D01*
X12604000Y-7724000D02*
X12604000Y-7754000D01*
X12589000Y-7739000D02*
X12619000Y-7739000D01*
X12604000Y-7824000D02*
X12604000Y-7854000D01*
X12589000Y-7839000D02*
X12619000Y-7839000D01*
X12604000Y-7924000D02*
X12604000Y-7954000D01*
X12589000Y-7939000D02*
X12619000Y-7939000D01*
X12608000Y-4265250D02*
X12608000Y-4295250D01*
X12593000Y-4280250D02*
X12623000Y-4280250D01*
X12608000Y-4365250D02*
X12608000Y-4395250D01*
X12593000Y-4380250D02*
X12623000Y-4380250D01*
X12608000Y-4465250D02*
X12608000Y-4495250D01*
X12593000Y-4480250D02*
X12623000Y-4480250D01*
X12608000Y-4565250D02*
X12608000Y-4595250D01*
X12593000Y-4580250D02*
X12623000Y-4580250D01*
X12608000Y-4665250D02*
X12608000Y-4695250D01*
X12593000Y-4680250D02*
X12623000Y-4680250D01*
X12643000Y-4801500D02*
X12643000Y-4831500D01*
X12628000Y-4816500D02*
X12658000Y-4816500D01*
X12643000Y-4890400D02*
X12643000Y-4920400D01*
X12628000Y-4905400D02*
X12658000Y-4905400D01*
X12643000Y-4979300D02*
X12643000Y-5009300D01*
X12628000Y-4994300D02*
X12658000Y-4994300D01*
X12643000Y-5068200D02*
X12643000Y-5098200D01*
X12628000Y-5083200D02*
X12658000Y-5083200D01*
X12643000Y-5157100D02*
X12643000Y-5187100D01*
X12628000Y-5172100D02*
X12658000Y-5172100D01*
X12643000Y-5246000D02*
X12643000Y-5276000D01*
X12628000Y-5261000D02*
X12658000Y-5261000D01*
X12643000Y-5334900D02*
X12643000Y-5364900D01*
X12628000Y-5349900D02*
X12658000Y-5349900D01*
X12643000Y-5423800D02*
X12643000Y-5453800D01*
X12628000Y-5438800D02*
X12658000Y-5438800D01*
X12643000Y-5512700D02*
X12643000Y-5542700D01*
X12628000Y-5527700D02*
X12658000Y-5527700D01*
X12643000Y-5601600D02*
X12643000Y-5631600D01*
X12628000Y-5616600D02*
X12658000Y-5616600D01*
X12643000Y-5690500D02*
X12643000Y-5720500D01*
X12628000Y-5705500D02*
X12658000Y-5705500D01*
X12643000Y-5779400D02*
X12643000Y-5809400D01*
X12628000Y-5794400D02*
X12658000Y-5794400D01*
X12643000Y-5868300D02*
X12643000Y-5898300D01*
X12628000Y-5883300D02*
X12658000Y-5883300D01*
X12643000Y-5957200D02*
X12643000Y-5987200D01*
X12628000Y-5972200D02*
X12658000Y-5972200D01*
X12643000Y-6046100D02*
X12643000Y-6076100D01*
X12628000Y-6061100D02*
X12658000Y-6061100D01*
X12643000Y-6135000D02*
X12643000Y-6165000D01*
X12628000Y-6150000D02*
X12658000Y-6150000D01*
X12643000Y-6223900D02*
X12643000Y-6253900D01*
X12628000Y-6238900D02*
X12658000Y-6238900D01*
X12643000Y-6312800D02*
X12643000Y-6342800D01*
X12628000Y-6327800D02*
X12658000Y-6327800D01*
X12643000Y-6401700D02*
X12643000Y-6431700D01*
X12628000Y-6416700D02*
X12658000Y-6416700D01*
X12643000Y-6490600D02*
X12643000Y-6520600D01*
X12628000Y-6505600D02*
X12658000Y-6505600D01*
X12643000Y-6579500D02*
X12643000Y-6609500D01*
X12628000Y-6594500D02*
X12658000Y-6594500D01*
X12643000Y-6668400D02*
X12643000Y-6698400D01*
X12628000Y-6683400D02*
X12658000Y-6683400D01*
X12643000Y-6757300D02*
X12643000Y-6787300D01*
X12628000Y-6772300D02*
X12658000Y-6772300D01*
X12643000Y-6846200D02*
X12643000Y-6876200D01*
X12628000Y-6861200D02*
X12658000Y-6861200D01*
X12643000Y-6935100D02*
X12643000Y-6965100D01*
X12628000Y-6950100D02*
X12658000Y-6950100D01*
X12643000Y-7024000D02*
X12643000Y-7054000D01*
X12628000Y-7039000D02*
X12658000Y-7039000D01*
X12643000Y-7112900D02*
X12643000Y-7142900D01*
X12628000Y-7127900D02*
X12658000Y-7127900D01*
X12643000Y-7201800D02*
X12643000Y-7231800D01*
X12628000Y-7216800D02*
X12658000Y-7216800D01*
X12643000Y-7290700D02*
X12643000Y-7320700D01*
X12628000Y-7305700D02*
X12658000Y-7305700D01*
X12643000Y-7379600D02*
X12643000Y-7409600D01*
X12628000Y-7394600D02*
X12658000Y-7394600D01*
X8628285Y-5153285D02*
X8628285Y-5096716D01*
X8571716Y-5096716D01*
X8571716Y-5153285D01*
X8628285Y-5153285D01*
X8628285Y-5353285D02*
X8628285Y-5296716D01*
X8571716Y-5296716D01*
X8571716Y-5353285D01*
X8628285Y-5353285D01*
X8629285Y-5664284D02*
X8629285Y-5607715D01*
X8572716Y-5607715D01*
X8572716Y-5664284D01*
X8629285Y-5664284D01*
X8629285Y-5864284D02*
X8629285Y-5807715D01*
X8572716Y-5807715D01*
X8572716Y-5864284D01*
X8629285Y-5864284D01*
X8629285Y-6064284D02*
X8629285Y-6007715D01*
X8572716Y-6007715D01*
X8572716Y-6064284D01*
X8629285Y-6064284D01*
X8629285Y-6264284D02*
X8629285Y-6207715D01*
X8572716Y-6207715D01*
X8572716Y-6264284D01*
X8629285Y-6264284D01*
X8636285Y-7283284D02*
X8636285Y-7226715D01*
X8579716Y-7226715D01*
X8579716Y-7283284D01*
X8636285Y-7283284D01*
X8636285Y-7483284D02*
X8636285Y-7426715D01*
X8579716Y-7426715D01*
X8579716Y-7483284D01*
X8636285Y-7483284D01*
X8637865Y-6771304D02*
X8637865Y-6714735D01*
X8581296Y-6714735D01*
X8581296Y-6771304D01*
X8637865Y-6771304D01*
X8637865Y-6971304D02*
X8637865Y-6914735D01*
X8581296Y-6914735D01*
X8581296Y-6971304D01*
X8637865Y-6971304D01*
X8828285Y-5153285D02*
X8828285Y-5096716D01*
X8771716Y-5096716D01*
X8771716Y-5153285D01*
X8828285Y-5153285D01*
X8828285Y-5353285D02*
X8828285Y-5296716D01*
X8771716Y-5296716D01*
X8771716Y-5353285D01*
X8828285Y-5353285D01*
X8829285Y-5664284D02*
X8829285Y-5607715D01*
X8772716Y-5607715D01*
X8772716Y-5664284D01*
X8829285Y-5664284D01*
X8829285Y-5864284D02*
X8829285Y-5807715D01*
X8772716Y-5807715D01*
X8772716Y-5864284D01*
X8829285Y-5864284D01*
X8829285Y-6064284D02*
X8829285Y-6007715D01*
X8772716Y-6007715D01*
X8772716Y-6064284D01*
X8829285Y-6064284D01*
X8829285Y-6264284D02*
X8829285Y-6207715D01*
X8772716Y-6207715D01*
X8772716Y-6264284D01*
X8829285Y-6264284D01*
X8836285Y-7283284D02*
X8836285Y-7226715D01*
X8779716Y-7226715D01*
X8779716Y-7283284D01*
X8836285Y-7283284D01*
X8836285Y-7483284D02*
X8836285Y-7426715D01*
X8779716Y-7426715D01*
X8779716Y-7483284D01*
X8836285Y-7483284D01*
X8837865Y-6771304D02*
X8837865Y-6714735D01*
X8781296Y-6714735D01*
X8781296Y-6771304D01*
X8837865Y-6771304D01*
X8837865Y-6971304D02*
X8837865Y-6914735D01*
X8781296Y-6914735D01*
X8781296Y-6971304D01*
X8837865Y-6971304D01*
D11*
X8376117Y-8367664D02*
X8376117Y-8167664D01*
X8376117Y-8167664D02*
X8423736Y-8167664D01*
X8423736Y-8167664D02*
X8452307Y-8177188D01*
X8452307Y-8177188D02*
X8471355Y-8196235D01*
X8471355Y-8196235D02*
X8480879Y-8215283D01*
X8480879Y-8215283D02*
X8490403Y-8253378D01*
X8490403Y-8253378D02*
X8490403Y-8281949D01*
X8490403Y-8281949D02*
X8480879Y-8320045D01*
X8480879Y-8320045D02*
X8471355Y-8339092D01*
X8471355Y-8339092D02*
X8452307Y-8358140D01*
X8452307Y-8358140D02*
X8423736Y-8367664D01*
X8423736Y-8367664D02*
X8376117Y-8367664D01*
X8576117Y-8367664D02*
X8576117Y-8234330D01*
X8576117Y-8272426D02*
X8585641Y-8253378D01*
X8585641Y-8253378D02*
X8595164Y-8243854D01*
X8595164Y-8243854D02*
X8614212Y-8234330D01*
X8614212Y-8234330D02*
X8633260Y-8234330D01*
X8699926Y-8367664D02*
X8699926Y-8234330D01*
X8699926Y-8167664D02*
X8690403Y-8177188D01*
X8690403Y-8177188D02*
X8699926Y-8186711D01*
X8699926Y-8186711D02*
X8709450Y-8177188D01*
X8709450Y-8177188D02*
X8699926Y-8167664D01*
X8699926Y-8167664D02*
X8699926Y-8186711D01*
X8823736Y-8367664D02*
X8804688Y-8358140D01*
X8804688Y-8358140D02*
X8795164Y-8339092D01*
X8795164Y-8339092D02*
X8795164Y-8167664D01*
X8928498Y-8367664D02*
X8909450Y-8358140D01*
X8909450Y-8358140D02*
X8899926Y-8339092D01*
X8899926Y-8339092D02*
X8899926Y-8167664D01*
X9157069Y-8367664D02*
X9157069Y-8167664D01*
X9157069Y-8167664D02*
X9223736Y-8310521D01*
X9223736Y-8310521D02*
X9290403Y-8167664D01*
X9290403Y-8167664D02*
X9290403Y-8367664D01*
X9471355Y-8367664D02*
X9471355Y-8262902D01*
X9471355Y-8262902D02*
X9461831Y-8243854D01*
X9461831Y-8243854D02*
X9442784Y-8234330D01*
X9442784Y-8234330D02*
X9404688Y-8234330D01*
X9404688Y-8234330D02*
X9385641Y-8243854D01*
X9471355Y-8358140D02*
X9452307Y-8367664D01*
X9452307Y-8367664D02*
X9404688Y-8367664D01*
X9404688Y-8367664D02*
X9385641Y-8358140D01*
X9385641Y-8358140D02*
X9376117Y-8339092D01*
X9376117Y-8339092D02*
X9376117Y-8320045D01*
X9376117Y-8320045D02*
X9385641Y-8300997D01*
X9385641Y-8300997D02*
X9404688Y-8291473D01*
X9404688Y-8291473D02*
X9452307Y-8291473D01*
X9452307Y-8291473D02*
X9471355Y-8281949D01*
X9566593Y-8234330D02*
X9566593Y-8434330D01*
X9566593Y-8243854D02*
X9585641Y-8234330D01*
X9585641Y-8234330D02*
X9623736Y-8234330D01*
X9623736Y-8234330D02*
X9642784Y-8243854D01*
X9642784Y-8243854D02*
X9652307Y-8253378D01*
X9652307Y-8253378D02*
X9661831Y-8272426D01*
X9661831Y-8272426D02*
X9661831Y-8329568D01*
X9661831Y-8329568D02*
X9652307Y-8348616D01*
X9652307Y-8348616D02*
X9642784Y-8358140D01*
X9642784Y-8358140D02*
X9623736Y-8367664D01*
X9623736Y-8367664D02*
X9585641Y-8367664D01*
X9585641Y-8367664D02*
X9566593Y-8358140D01*
X9747545Y-8348616D02*
X9757069Y-8358140D01*
X9757069Y-8358140D02*
X9747545Y-8367664D01*
X9747545Y-8367664D02*
X9738022Y-8358140D01*
X9738022Y-8358140D02*
X9747545Y-8348616D01*
X9747545Y-8348616D02*
X9747545Y-8367664D01*
X9747545Y-8243854D02*
X9757069Y-8253378D01*
X9757069Y-8253378D02*
X9747545Y-8262902D01*
X9747545Y-8262902D02*
X9738022Y-8253378D01*
X9738022Y-8253378D02*
X9747545Y-8243854D01*
X9747545Y-8243854D02*
X9747545Y-8262902D01*
D12*
X8095340Y-8686180D02*
X8115340Y-8706180D01*
X8115340Y-8686180D02*
X8095340Y-8706180D01*
D11*
X8414212Y-8587664D02*
X8433260Y-8587664D01*
X8433260Y-8587664D02*
X8452307Y-8597188D01*
X8452307Y-8597188D02*
X8461831Y-8606711D01*
X8461831Y-8606711D02*
X8471355Y-8625759D01*
X8471355Y-8625759D02*
X8480879Y-8663854D01*
X8480879Y-8663854D02*
X8480879Y-8711473D01*
X8480879Y-8711473D02*
X8471355Y-8749569D01*
X8471355Y-8749569D02*
X8461831Y-8768616D01*
X8461831Y-8768616D02*
X8452307Y-8778140D01*
X8452307Y-8778140D02*
X8433260Y-8787664D01*
X8433260Y-8787664D02*
X8414212Y-8787664D01*
X8414212Y-8787664D02*
X8395164Y-8778140D01*
X8395164Y-8778140D02*
X8385641Y-8768616D01*
X8385641Y-8768616D02*
X8376117Y-8749569D01*
X8376117Y-8749569D02*
X8366593Y-8711473D01*
X8366593Y-8711473D02*
X8366593Y-8663854D01*
X8366593Y-8663854D02*
X8376117Y-8625759D01*
X8376117Y-8625759D02*
X8385641Y-8606711D01*
X8385641Y-8606711D02*
X8395164Y-8597188D01*
X8395164Y-8597188D02*
X8414212Y-8587664D01*
X8566593Y-8768616D02*
X8576117Y-8778140D01*
X8576117Y-8778140D02*
X8566593Y-8787664D01*
X8566593Y-8787664D02*
X8557069Y-8778140D01*
X8557069Y-8778140D02*
X8566593Y-8768616D01*
X8566593Y-8768616D02*
X8566593Y-8787664D01*
X8652307Y-8606711D02*
X8661831Y-8597188D01*
X8661831Y-8597188D02*
X8680879Y-8587664D01*
X8680879Y-8587664D02*
X8728498Y-8587664D01*
X8728498Y-8587664D02*
X8747545Y-8597188D01*
X8747545Y-8597188D02*
X8757069Y-8606711D01*
X8757069Y-8606711D02*
X8766593Y-8625759D01*
X8766593Y-8625759D02*
X8766593Y-8644807D01*
X8766593Y-8644807D02*
X8757069Y-8673378D01*
X8757069Y-8673378D02*
X8642784Y-8787664D01*
X8642784Y-8787664D02*
X8766593Y-8787664D01*
X8890403Y-8587664D02*
X8909450Y-8587664D01*
X8909450Y-8587664D02*
X8928498Y-8597188D01*
X8928498Y-8597188D02*
X8938022Y-8606711D01*
X8938022Y-8606711D02*
X8947545Y-8625759D01*
X8947545Y-8625759D02*
X8957069Y-8663854D01*
X8957069Y-8663854D02*
X8957069Y-8711473D01*
X8957069Y-8711473D02*
X8947545Y-8749569D01*
X8947545Y-8749569D02*
X8938022Y-8768616D01*
X8938022Y-8768616D02*
X8928498Y-8778140D01*
X8928498Y-8778140D02*
X8909450Y-8787664D01*
X8909450Y-8787664D02*
X8890403Y-8787664D01*
X8890403Y-8787664D02*
X8871355Y-8778140D01*
X8871355Y-8778140D02*
X8861831Y-8768616D01*
X8861831Y-8768616D02*
X8852307Y-8749569D01*
X8852307Y-8749569D02*
X8842784Y-8711473D01*
X8842784Y-8711473D02*
X8842784Y-8663854D01*
X8842784Y-8663854D02*
X8852307Y-8625759D01*
X8852307Y-8625759D02*
X8861831Y-8606711D01*
X8861831Y-8606711D02*
X8871355Y-8597188D01*
X8871355Y-8597188D02*
X8890403Y-8587664D01*
X9080879Y-8587664D02*
X9099926Y-8587664D01*
X9099926Y-8587664D02*
X9118974Y-8597188D01*
X9118974Y-8597188D02*
X9128498Y-8606711D01*
X9128498Y-8606711D02*
X9138022Y-8625759D01*
X9138022Y-8625759D02*
X9147545Y-8663854D01*
X9147545Y-8663854D02*
X9147545Y-8711473D01*
X9147545Y-8711473D02*
X9138022Y-8749569D01*
X9138022Y-8749569D02*
X9128498Y-8768616D01*
X9128498Y-8768616D02*
X9118974Y-8778140D01*
X9118974Y-8778140D02*
X9099926Y-8787664D01*
X9099926Y-8787664D02*
X9080879Y-8787664D01*
X9080879Y-8787664D02*
X9061831Y-8778140D01*
X9061831Y-8778140D02*
X9052307Y-8768616D01*
X9052307Y-8768616D02*
X9042784Y-8749569D01*
X9042784Y-8749569D02*
X9033260Y-8711473D01*
X9033260Y-8711473D02*
X9033260Y-8663854D01*
X9033260Y-8663854D02*
X9042784Y-8625759D01*
X9042784Y-8625759D02*
X9052307Y-8606711D01*
X9052307Y-8606711D02*
X9061831Y-8597188D01*
X9061831Y-8597188D02*
X9080879Y-8587664D01*
X9233260Y-8787664D02*
X9233260Y-8654330D01*
X9233260Y-8673378D02*
X9242784Y-8663854D01*
X9242784Y-8663854D02*
X9261831Y-8654330D01*
X9261831Y-8654330D02*
X9290403Y-8654330D01*
X9290403Y-8654330D02*
X9309450Y-8663854D01*
X9309450Y-8663854D02*
X9318974Y-8682902D01*
X9318974Y-8682902D02*
X9318974Y-8787664D01*
X9318974Y-8682902D02*
X9328498Y-8663854D01*
X9328498Y-8663854D02*
X9347545Y-8654330D01*
X9347545Y-8654330D02*
X9376117Y-8654330D01*
X9376117Y-8654330D02*
X9395165Y-8663854D01*
X9395165Y-8663854D02*
X9404688Y-8682902D01*
X9404688Y-8682902D02*
X9404688Y-8787664D01*
X9499926Y-8787664D02*
X9499926Y-8654330D01*
X9499926Y-8673378D02*
X9509450Y-8663854D01*
X9509450Y-8663854D02*
X9528498Y-8654330D01*
X9528498Y-8654330D02*
X9557069Y-8654330D01*
X9557069Y-8654330D02*
X9576117Y-8663854D01*
X9576117Y-8663854D02*
X9585641Y-8682902D01*
X9585641Y-8682902D02*
X9585641Y-8787664D01*
X9585641Y-8682902D02*
X9595165Y-8663854D01*
X9595165Y-8663854D02*
X9614212Y-8654330D01*
X9614212Y-8654330D02*
X9642784Y-8654330D01*
X9642784Y-8654330D02*
X9661831Y-8663854D01*
X9661831Y-8663854D02*
X9671355Y-8682902D01*
X9671355Y-8682902D02*
X9671355Y-8787664D01*
X10061831Y-8578140D02*
X9890403Y-8835283D01*
X10318974Y-8587664D02*
X10338022Y-8587664D01*
X10338022Y-8587664D02*
X10357069Y-8597188D01*
X10357069Y-8597188D02*
X10366593Y-8606711D01*
X10366593Y-8606711D02*
X10376117Y-8625759D01*
X10376117Y-8625759D02*
X10385641Y-8663854D01*
X10385641Y-8663854D02*
X10385641Y-8711473D01*
X10385641Y-8711473D02*
X10376117Y-8749569D01*
X10376117Y-8749569D02*
X10366593Y-8768616D01*
X10366593Y-8768616D02*
X10357069Y-8778140D01*
X10357069Y-8778140D02*
X10338022Y-8787664D01*
X10338022Y-8787664D02*
X10318974Y-8787664D01*
X10318974Y-8787664D02*
X10299927Y-8778140D01*
X10299927Y-8778140D02*
X10290403Y-8768616D01*
X10290403Y-8768616D02*
X10280879Y-8749569D01*
X10280879Y-8749569D02*
X10271355Y-8711473D01*
X10271355Y-8711473D02*
X10271355Y-8663854D01*
X10271355Y-8663854D02*
X10280879Y-8625759D01*
X10280879Y-8625759D02*
X10290403Y-8606711D01*
X10290403Y-8606711D02*
X10299927Y-8597188D01*
X10299927Y-8597188D02*
X10318974Y-8587664D01*
X10471355Y-8768616D02*
X10480879Y-8778140D01*
X10480879Y-8778140D02*
X10471355Y-8787664D01*
X10471355Y-8787664D02*
X10461831Y-8778140D01*
X10461831Y-8778140D02*
X10471355Y-8768616D01*
X10471355Y-8768616D02*
X10471355Y-8787664D01*
X10604688Y-8587664D02*
X10623736Y-8587664D01*
X10623736Y-8587664D02*
X10642784Y-8597188D01*
X10642784Y-8597188D02*
X10652308Y-8606711D01*
X10652308Y-8606711D02*
X10661831Y-8625759D01*
X10661831Y-8625759D02*
X10671355Y-8663854D01*
X10671355Y-8663854D02*
X10671355Y-8711473D01*
X10671355Y-8711473D02*
X10661831Y-8749569D01*
X10661831Y-8749569D02*
X10652308Y-8768616D01*
X10652308Y-8768616D02*
X10642784Y-8778140D01*
X10642784Y-8778140D02*
X10623736Y-8787664D01*
X10623736Y-8787664D02*
X10604688Y-8787664D01*
X10604688Y-8787664D02*
X10585641Y-8778140D01*
X10585641Y-8778140D02*
X10576117Y-8768616D01*
X10576117Y-8768616D02*
X10566593Y-8749569D01*
X10566593Y-8749569D02*
X10557069Y-8711473D01*
X10557069Y-8711473D02*
X10557069Y-8663854D01*
X10557069Y-8663854D02*
X10566593Y-8625759D01*
X10566593Y-8625759D02*
X10576117Y-8606711D01*
X10576117Y-8606711D02*
X10585641Y-8597188D01*
X10585641Y-8597188D02*
X10604688Y-8587664D01*
X10795165Y-8587664D02*
X10814212Y-8587664D01*
X10814212Y-8587664D02*
X10833260Y-8597188D01*
X10833260Y-8597188D02*
X10842784Y-8606711D01*
X10842784Y-8606711D02*
X10852308Y-8625759D01*
X10852308Y-8625759D02*
X10861831Y-8663854D01*
X10861831Y-8663854D02*
X10861831Y-8711473D01*
X10861831Y-8711473D02*
X10852308Y-8749569D01*
X10852308Y-8749569D02*
X10842784Y-8768616D01*
X10842784Y-8768616D02*
X10833260Y-8778140D01*
X10833260Y-8778140D02*
X10814212Y-8787664D01*
X10814212Y-8787664D02*
X10795165Y-8787664D01*
X10795165Y-8787664D02*
X10776117Y-8778140D01*
X10776117Y-8778140D02*
X10766593Y-8768616D01*
X10766593Y-8768616D02*
X10757069Y-8749569D01*
X10757069Y-8749569D02*
X10747546Y-8711473D01*
X10747546Y-8711473D02*
X10747546Y-8663854D01*
X10747546Y-8663854D02*
X10757069Y-8625759D01*
X10757069Y-8625759D02*
X10766593Y-8606711D01*
X10766593Y-8606711D02*
X10776117Y-8597188D01*
X10776117Y-8597188D02*
X10795165Y-8587664D01*
X10928498Y-8587664D02*
X11061831Y-8587664D01*
X11061831Y-8587664D02*
X10976117Y-8787664D01*
X11147546Y-8787664D02*
X11185641Y-8787664D01*
X11185641Y-8787664D02*
X11204688Y-8778140D01*
X11204688Y-8778140D02*
X11214212Y-8768616D01*
X11214212Y-8768616D02*
X11233260Y-8740045D01*
X11233260Y-8740045D02*
X11242784Y-8701950D01*
X11242784Y-8701950D02*
X11242784Y-8625759D01*
X11242784Y-8625759D02*
X11233260Y-8606711D01*
X11233260Y-8606711D02*
X11223736Y-8597188D01*
X11223736Y-8597188D02*
X11204688Y-8587664D01*
X11204688Y-8587664D02*
X11166593Y-8587664D01*
X11166593Y-8587664D02*
X11147546Y-8597188D01*
X11147546Y-8597188D02*
X11138022Y-8606711D01*
X11138022Y-8606711D02*
X11128498Y-8625759D01*
X11128498Y-8625759D02*
X11128498Y-8673378D01*
X11128498Y-8673378D02*
X11138022Y-8692426D01*
X11138022Y-8692426D02*
X11147546Y-8701950D01*
X11147546Y-8701950D02*
X11166593Y-8711473D01*
X11166593Y-8711473D02*
X11204688Y-8711473D01*
X11204688Y-8711473D02*
X11223736Y-8701950D01*
X11223736Y-8701950D02*
X11233260Y-8692426D01*
X11233260Y-8692426D02*
X11242784Y-8673378D01*
X11318974Y-8587664D02*
X11318974Y-8625759D01*
X11395165Y-8587664D02*
X11395165Y-8625759D01*
X11690403Y-8863854D02*
X11680879Y-8854330D01*
X11680879Y-8854330D02*
X11661831Y-8825759D01*
X11661831Y-8825759D02*
X11652308Y-8806711D01*
X11652308Y-8806711D02*
X11642784Y-8778140D01*
X11642784Y-8778140D02*
X11633260Y-8730521D01*
X11633260Y-8730521D02*
X11633260Y-8692426D01*
X11633260Y-8692426D02*
X11642784Y-8644807D01*
X11642784Y-8644807D02*
X11652308Y-8616235D01*
X11652308Y-8616235D02*
X11661831Y-8597188D01*
X11661831Y-8597188D02*
X11680879Y-8568616D01*
X11680879Y-8568616D02*
X11690403Y-8559092D01*
X11871355Y-8787664D02*
X11757069Y-8787664D01*
X11814212Y-8787664D02*
X11814212Y-8587664D01*
X11814212Y-8587664D02*
X11795165Y-8616235D01*
X11795165Y-8616235D02*
X11776117Y-8635283D01*
X11776117Y-8635283D02*
X11757069Y-8644807D01*
X12052308Y-8587664D02*
X11957069Y-8587664D01*
X11957069Y-8587664D02*
X11947546Y-8682902D01*
X11947546Y-8682902D02*
X11957069Y-8673378D01*
X11957069Y-8673378D02*
X11976117Y-8663854D01*
X11976117Y-8663854D02*
X12023736Y-8663854D01*
X12023736Y-8663854D02*
X12042784Y-8673378D01*
X12042784Y-8673378D02*
X12052308Y-8682902D01*
X12052308Y-8682902D02*
X12061831Y-8701950D01*
X12061831Y-8701950D02*
X12061831Y-8749569D01*
X12061831Y-8749569D02*
X12052308Y-8768616D01*
X12052308Y-8768616D02*
X12042784Y-8778140D01*
X12042784Y-8778140D02*
X12023736Y-8787664D01*
X12023736Y-8787664D02*
X11976117Y-8787664D01*
X11976117Y-8787664D02*
X11957069Y-8778140D01*
X11957069Y-8778140D02*
X11947546Y-8768616D01*
X12299927Y-8787664D02*
X12299927Y-8587664D01*
X12385641Y-8787664D02*
X12385641Y-8682902D01*
X12385641Y-8682902D02*
X12376117Y-8663854D01*
X12376117Y-8663854D02*
X12357070Y-8654330D01*
X12357070Y-8654330D02*
X12328498Y-8654330D01*
X12328498Y-8654330D02*
X12309450Y-8663854D01*
X12309450Y-8663854D02*
X12299927Y-8673378D01*
X12509450Y-8787664D02*
X12490403Y-8778140D01*
X12490403Y-8778140D02*
X12480879Y-8768616D01*
X12480879Y-8768616D02*
X12471355Y-8749569D01*
X12471355Y-8749569D02*
X12471355Y-8692426D01*
X12471355Y-8692426D02*
X12480879Y-8673378D01*
X12480879Y-8673378D02*
X12490403Y-8663854D01*
X12490403Y-8663854D02*
X12509450Y-8654330D01*
X12509450Y-8654330D02*
X12538022Y-8654330D01*
X12538022Y-8654330D02*
X12557070Y-8663854D01*
X12557070Y-8663854D02*
X12566593Y-8673378D01*
X12566593Y-8673378D02*
X12576117Y-8692426D01*
X12576117Y-8692426D02*
X12576117Y-8749569D01*
X12576117Y-8749569D02*
X12566593Y-8768616D01*
X12566593Y-8768616D02*
X12557070Y-8778140D01*
X12557070Y-8778140D02*
X12538022Y-8787664D01*
X12538022Y-8787664D02*
X12509450Y-8787664D01*
X12690403Y-8787664D02*
X12671355Y-8778140D01*
X12671355Y-8778140D02*
X12661831Y-8759092D01*
X12661831Y-8759092D02*
X12661831Y-8587664D01*
X12842784Y-8778140D02*
X12823736Y-8787664D01*
X12823736Y-8787664D02*
X12785641Y-8787664D01*
X12785641Y-8787664D02*
X12766593Y-8778140D01*
X12766593Y-8778140D02*
X12757070Y-8759092D01*
X12757070Y-8759092D02*
X12757070Y-8682902D01*
X12757070Y-8682902D02*
X12766593Y-8663854D01*
X12766593Y-8663854D02*
X12785641Y-8654330D01*
X12785641Y-8654330D02*
X12823736Y-8654330D01*
X12823736Y-8654330D02*
X12842784Y-8663854D01*
X12842784Y-8663854D02*
X12852308Y-8682902D01*
X12852308Y-8682902D02*
X12852308Y-8701950D01*
X12852308Y-8701950D02*
X12757070Y-8720997D01*
X12928498Y-8778140D02*
X12947546Y-8787664D01*
X12947546Y-8787664D02*
X12985641Y-8787664D01*
X12985641Y-8787664D02*
X13004689Y-8778140D01*
X13004689Y-8778140D02*
X13014212Y-8759092D01*
X13014212Y-8759092D02*
X13014212Y-8749569D01*
X13014212Y-8749569D02*
X13004689Y-8730521D01*
X13004689Y-8730521D02*
X12985641Y-8720997D01*
X12985641Y-8720997D02*
X12957070Y-8720997D01*
X12957070Y-8720997D02*
X12938022Y-8711473D01*
X12938022Y-8711473D02*
X12928498Y-8692426D01*
X12928498Y-8692426D02*
X12928498Y-8682902D01*
X12928498Y-8682902D02*
X12938022Y-8663854D01*
X12938022Y-8663854D02*
X12957070Y-8654330D01*
X12957070Y-8654330D02*
X12985641Y-8654330D01*
X12985641Y-8654330D02*
X13004689Y-8663854D01*
X13080879Y-8863854D02*
X13090403Y-8854330D01*
X13090403Y-8854330D02*
X13109451Y-8825759D01*
X13109451Y-8825759D02*
X13118974Y-8806711D01*
X13118974Y-8806711D02*
X13128498Y-8778140D01*
X13128498Y-8778140D02*
X13138022Y-8730521D01*
X13138022Y-8730521D02*
X13138022Y-8692426D01*
X13138022Y-8692426D02*
X13128498Y-8644807D01*
X13128498Y-8644807D02*
X13118974Y-8616235D01*
X13118974Y-8616235D02*
X13109451Y-8597188D01*
X13109451Y-8597188D02*
X13090403Y-8568616D01*
X13090403Y-8568616D02*
X13080879Y-8559092D01*
D12*
X8115340Y-8960180D02*
G75*
G02*
X8095020Y-8960180I-10160J0D01*
G01*
X8095020Y-8960180D02*
G75*
G02*
X8115340Y-8960180I10160J0D01*
G01*
D11*
X8414212Y-8851664D02*
X8433260Y-8851664D01*
X8433260Y-8851664D02*
X8452307Y-8861188D01*
X8452307Y-8861188D02*
X8461831Y-8870711D01*
X8461831Y-8870711D02*
X8471355Y-8889759D01*
X8471355Y-8889759D02*
X8480879Y-8927854D01*
X8480879Y-8927854D02*
X8480879Y-8975473D01*
X8480879Y-8975473D02*
X8471355Y-9013569D01*
X8471355Y-9013569D02*
X8461831Y-9032616D01*
X8461831Y-9032616D02*
X8452307Y-9042140D01*
X8452307Y-9042140D02*
X8433260Y-9051664D01*
X8433260Y-9051664D02*
X8414212Y-9051664D01*
X8414212Y-9051664D02*
X8395164Y-9042140D01*
X8395164Y-9042140D02*
X8385641Y-9032616D01*
X8385641Y-9032616D02*
X8376117Y-9013569D01*
X8376117Y-9013569D02*
X8366593Y-8975473D01*
X8366593Y-8975473D02*
X8366593Y-8927854D01*
X8366593Y-8927854D02*
X8376117Y-8889759D01*
X8376117Y-8889759D02*
X8385641Y-8870711D01*
X8385641Y-8870711D02*
X8395164Y-8861188D01*
X8395164Y-8861188D02*
X8414212Y-8851664D01*
X8566593Y-9032616D02*
X8576117Y-9042140D01*
X8576117Y-9042140D02*
X8566593Y-9051664D01*
X8566593Y-9051664D02*
X8557069Y-9042140D01*
X8557069Y-9042140D02*
X8566593Y-9032616D01*
X8566593Y-9032616D02*
X8566593Y-9051664D01*
X8652307Y-8870711D02*
X8661831Y-8861188D01*
X8661831Y-8861188D02*
X8680879Y-8851664D01*
X8680879Y-8851664D02*
X8728498Y-8851664D01*
X8728498Y-8851664D02*
X8747545Y-8861188D01*
X8747545Y-8861188D02*
X8757069Y-8870711D01*
X8757069Y-8870711D02*
X8766593Y-8889759D01*
X8766593Y-8889759D02*
X8766593Y-8908807D01*
X8766593Y-8908807D02*
X8757069Y-8937378D01*
X8757069Y-8937378D02*
X8642784Y-9051664D01*
X8642784Y-9051664D02*
X8766593Y-9051664D01*
X8890403Y-8851664D02*
X8909450Y-8851664D01*
X8909450Y-8851664D02*
X8928498Y-8861188D01*
X8928498Y-8861188D02*
X8938022Y-8870711D01*
X8938022Y-8870711D02*
X8947545Y-8889759D01*
X8947545Y-8889759D02*
X8957069Y-8927854D01*
X8957069Y-8927854D02*
X8957069Y-8975473D01*
X8957069Y-8975473D02*
X8947545Y-9013569D01*
X8947545Y-9013569D02*
X8938022Y-9032616D01*
X8938022Y-9032616D02*
X8928498Y-9042140D01*
X8928498Y-9042140D02*
X8909450Y-9051664D01*
X8909450Y-9051664D02*
X8890403Y-9051664D01*
X8890403Y-9051664D02*
X8871355Y-9042140D01*
X8871355Y-9042140D02*
X8861831Y-9032616D01*
X8861831Y-9032616D02*
X8852307Y-9013569D01*
X8852307Y-9013569D02*
X8842784Y-8975473D01*
X8842784Y-8975473D02*
X8842784Y-8927854D01*
X8842784Y-8927854D02*
X8852307Y-8889759D01*
X8852307Y-8889759D02*
X8861831Y-8870711D01*
X8861831Y-8870711D02*
X8871355Y-8861188D01*
X8871355Y-8861188D02*
X8890403Y-8851664D01*
X9023736Y-8851664D02*
X9147545Y-8851664D01*
X9147545Y-8851664D02*
X9080879Y-8927854D01*
X9080879Y-8927854D02*
X9109450Y-8927854D01*
X9109450Y-8927854D02*
X9128498Y-8937378D01*
X9128498Y-8937378D02*
X9138022Y-8946902D01*
X9138022Y-8946902D02*
X9147545Y-8965950D01*
X9147545Y-8965950D02*
X9147545Y-9013569D01*
X9147545Y-9013569D02*
X9138022Y-9032616D01*
X9138022Y-9032616D02*
X9128498Y-9042140D01*
X9128498Y-9042140D02*
X9109450Y-9051664D01*
X9109450Y-9051664D02*
X9052307Y-9051664D01*
X9052307Y-9051664D02*
X9033260Y-9042140D01*
X9033260Y-9042140D02*
X9023736Y-9032616D01*
X9233260Y-9051664D02*
X9233260Y-8918330D01*
X9233260Y-8937378D02*
X9242784Y-8927854D01*
X9242784Y-8927854D02*
X9261831Y-8918330D01*
X9261831Y-8918330D02*
X9290403Y-8918330D01*
X9290403Y-8918330D02*
X9309450Y-8927854D01*
X9309450Y-8927854D02*
X9318974Y-8946902D01*
X9318974Y-8946902D02*
X9318974Y-9051664D01*
X9318974Y-8946902D02*
X9328498Y-8927854D01*
X9328498Y-8927854D02*
X9347545Y-8918330D01*
X9347545Y-8918330D02*
X9376117Y-8918330D01*
X9376117Y-8918330D02*
X9395165Y-8927854D01*
X9395165Y-8927854D02*
X9404688Y-8946902D01*
X9404688Y-8946902D02*
X9404688Y-9051664D01*
X9499926Y-9051664D02*
X9499926Y-8918330D01*
X9499926Y-8937378D02*
X9509450Y-8927854D01*
X9509450Y-8927854D02*
X9528498Y-8918330D01*
X9528498Y-8918330D02*
X9557069Y-8918330D01*
X9557069Y-8918330D02*
X9576117Y-8927854D01*
X9576117Y-8927854D02*
X9585641Y-8946902D01*
X9585641Y-8946902D02*
X9585641Y-9051664D01*
X9585641Y-8946902D02*
X9595165Y-8927854D01*
X9595165Y-8927854D02*
X9614212Y-8918330D01*
X9614212Y-8918330D02*
X9642784Y-8918330D01*
X9642784Y-8918330D02*
X9661831Y-8927854D01*
X9661831Y-8927854D02*
X9671355Y-8946902D01*
X9671355Y-8946902D02*
X9671355Y-9051664D01*
X10061831Y-8842140D02*
X9890403Y-9099283D01*
X10318974Y-8851664D02*
X10338022Y-8851664D01*
X10338022Y-8851664D02*
X10357069Y-8861188D01*
X10357069Y-8861188D02*
X10366593Y-8870711D01*
X10366593Y-8870711D02*
X10376117Y-8889759D01*
X10376117Y-8889759D02*
X10385641Y-8927854D01*
X10385641Y-8927854D02*
X10385641Y-8975473D01*
X10385641Y-8975473D02*
X10376117Y-9013569D01*
X10376117Y-9013569D02*
X10366593Y-9032616D01*
X10366593Y-9032616D02*
X10357069Y-9042140D01*
X10357069Y-9042140D02*
X10338022Y-9051664D01*
X10338022Y-9051664D02*
X10318974Y-9051664D01*
X10318974Y-9051664D02*
X10299927Y-9042140D01*
X10299927Y-9042140D02*
X10290403Y-9032616D01*
X10290403Y-9032616D02*
X10280879Y-9013569D01*
X10280879Y-9013569D02*
X10271355Y-8975473D01*
X10271355Y-8975473D02*
X10271355Y-8927854D01*
X10271355Y-8927854D02*
X10280879Y-8889759D01*
X10280879Y-8889759D02*
X10290403Y-8870711D01*
X10290403Y-8870711D02*
X10299927Y-8861188D01*
X10299927Y-8861188D02*
X10318974Y-8851664D01*
X10471355Y-9032616D02*
X10480879Y-9042140D01*
X10480879Y-9042140D02*
X10471355Y-9051664D01*
X10471355Y-9051664D02*
X10461831Y-9042140D01*
X10461831Y-9042140D02*
X10471355Y-9032616D01*
X10471355Y-9032616D02*
X10471355Y-9051664D01*
X10604688Y-8851664D02*
X10623736Y-8851664D01*
X10623736Y-8851664D02*
X10642784Y-8861188D01*
X10642784Y-8861188D02*
X10652308Y-8870711D01*
X10652308Y-8870711D02*
X10661831Y-8889759D01*
X10661831Y-8889759D02*
X10671355Y-8927854D01*
X10671355Y-8927854D02*
X10671355Y-8975473D01*
X10671355Y-8975473D02*
X10661831Y-9013569D01*
X10661831Y-9013569D02*
X10652308Y-9032616D01*
X10652308Y-9032616D02*
X10642784Y-9042140D01*
X10642784Y-9042140D02*
X10623736Y-9051664D01*
X10623736Y-9051664D02*
X10604688Y-9051664D01*
X10604688Y-9051664D02*
X10585641Y-9042140D01*
X10585641Y-9042140D02*
X10576117Y-9032616D01*
X10576117Y-9032616D02*
X10566593Y-9013569D01*
X10566593Y-9013569D02*
X10557069Y-8975473D01*
X10557069Y-8975473D02*
X10557069Y-8927854D01*
X10557069Y-8927854D02*
X10566593Y-8889759D01*
X10566593Y-8889759D02*
X10576117Y-8870711D01*
X10576117Y-8870711D02*
X10585641Y-8861188D01*
X10585641Y-8861188D02*
X10604688Y-8851664D01*
X10795165Y-8851664D02*
X10814212Y-8851664D01*
X10814212Y-8851664D02*
X10833260Y-8861188D01*
X10833260Y-8861188D02*
X10842784Y-8870711D01*
X10842784Y-8870711D02*
X10852308Y-8889759D01*
X10852308Y-8889759D02*
X10861831Y-8927854D01*
X10861831Y-8927854D02*
X10861831Y-8975473D01*
X10861831Y-8975473D02*
X10852308Y-9013569D01*
X10852308Y-9013569D02*
X10842784Y-9032616D01*
X10842784Y-9032616D02*
X10833260Y-9042140D01*
X10833260Y-9042140D02*
X10814212Y-9051664D01*
X10814212Y-9051664D02*
X10795165Y-9051664D01*
X10795165Y-9051664D02*
X10776117Y-9042140D01*
X10776117Y-9042140D02*
X10766593Y-9032616D01*
X10766593Y-9032616D02*
X10757069Y-9013569D01*
X10757069Y-9013569D02*
X10747546Y-8975473D01*
X10747546Y-8975473D02*
X10747546Y-8927854D01*
X10747546Y-8927854D02*
X10757069Y-8889759D01*
X10757069Y-8889759D02*
X10766593Y-8870711D01*
X10766593Y-8870711D02*
X10776117Y-8861188D01*
X10776117Y-8861188D02*
X10795165Y-8851664D01*
X10976117Y-8937378D02*
X10957069Y-8927854D01*
X10957069Y-8927854D02*
X10947546Y-8918330D01*
X10947546Y-8918330D02*
X10938022Y-8899283D01*
X10938022Y-8899283D02*
X10938022Y-8889759D01*
X10938022Y-8889759D02*
X10947546Y-8870711D01*
X10947546Y-8870711D02*
X10957069Y-8861188D01*
X10957069Y-8861188D02*
X10976117Y-8851664D01*
X10976117Y-8851664D02*
X11014212Y-8851664D01*
X11014212Y-8851664D02*
X11033260Y-8861188D01*
X11033260Y-8861188D02*
X11042784Y-8870711D01*
X11042784Y-8870711D02*
X11052308Y-8889759D01*
X11052308Y-8889759D02*
X11052308Y-8899283D01*
X11052308Y-8899283D02*
X11042784Y-8918330D01*
X11042784Y-8918330D02*
X11033260Y-8927854D01*
X11033260Y-8927854D02*
X11014212Y-8937378D01*
X11014212Y-8937378D02*
X10976117Y-8937378D01*
X10976117Y-8937378D02*
X10957069Y-8946902D01*
X10957069Y-8946902D02*
X10947546Y-8956426D01*
X10947546Y-8956426D02*
X10938022Y-8975473D01*
X10938022Y-8975473D02*
X10938022Y-9013569D01*
X10938022Y-9013569D02*
X10947546Y-9032616D01*
X10947546Y-9032616D02*
X10957069Y-9042140D01*
X10957069Y-9042140D02*
X10976117Y-9051664D01*
X10976117Y-9051664D02*
X11014212Y-9051664D01*
X11014212Y-9051664D02*
X11033260Y-9042140D01*
X11033260Y-9042140D02*
X11042784Y-9032616D01*
X11042784Y-9032616D02*
X11052308Y-9013569D01*
X11052308Y-9013569D02*
X11052308Y-8975473D01*
X11052308Y-8975473D02*
X11042784Y-8956426D01*
X11042784Y-8956426D02*
X11033260Y-8946902D01*
X11033260Y-8946902D02*
X11014212Y-8937378D01*
X11176117Y-8851664D02*
X11195165Y-8851664D01*
X11195165Y-8851664D02*
X11214212Y-8861188D01*
X11214212Y-8861188D02*
X11223736Y-8870711D01*
X11223736Y-8870711D02*
X11233260Y-8889759D01*
X11233260Y-8889759D02*
X11242784Y-8927854D01*
X11242784Y-8927854D02*
X11242784Y-8975473D01*
X11242784Y-8975473D02*
X11233260Y-9013569D01*
X11233260Y-9013569D02*
X11223736Y-9032616D01*
X11223736Y-9032616D02*
X11214212Y-9042140D01*
X11214212Y-9042140D02*
X11195165Y-9051664D01*
X11195165Y-9051664D02*
X11176117Y-9051664D01*
X11176117Y-9051664D02*
X11157069Y-9042140D01*
X11157069Y-9042140D02*
X11147546Y-9032616D01*
X11147546Y-9032616D02*
X11138022Y-9013569D01*
X11138022Y-9013569D02*
X11128498Y-8975473D01*
X11128498Y-8975473D02*
X11128498Y-8927854D01*
X11128498Y-8927854D02*
X11138022Y-8889759D01*
X11138022Y-8889759D02*
X11147546Y-8870711D01*
X11147546Y-8870711D02*
X11157069Y-8861188D01*
X11157069Y-8861188D02*
X11176117Y-8851664D01*
X11318974Y-8851664D02*
X11318974Y-8889759D01*
X11395165Y-8851664D02*
X11395165Y-8889759D01*
X11690403Y-9127854D02*
X11680879Y-9118330D01*
X11680879Y-9118330D02*
X11661831Y-9089759D01*
X11661831Y-9089759D02*
X11652308Y-9070711D01*
X11652308Y-9070711D02*
X11642784Y-9042140D01*
X11642784Y-9042140D02*
X11633260Y-8994521D01*
X11633260Y-8994521D02*
X11633260Y-8956426D01*
X11633260Y-8956426D02*
X11642784Y-8908807D01*
X11642784Y-8908807D02*
X11652308Y-8880235D01*
X11652308Y-8880235D02*
X11661831Y-8861188D01*
X11661831Y-8861188D02*
X11680879Y-8832616D01*
X11680879Y-8832616D02*
X11690403Y-8823092D01*
X11757069Y-8870711D02*
X11766593Y-8861188D01*
X11766593Y-8861188D02*
X11785641Y-8851664D01*
X11785641Y-8851664D02*
X11833260Y-8851664D01*
X11833260Y-8851664D02*
X11852308Y-8861188D01*
X11852308Y-8861188D02*
X11861831Y-8870711D01*
X11861831Y-8870711D02*
X11871355Y-8889759D01*
X11871355Y-8889759D02*
X11871355Y-8908807D01*
X11871355Y-8908807D02*
X11861831Y-8937378D01*
X11861831Y-8937378D02*
X11747546Y-9051664D01*
X11747546Y-9051664D02*
X11871355Y-9051664D01*
X12052308Y-8851664D02*
X11957069Y-8851664D01*
X11957069Y-8851664D02*
X11947546Y-8946902D01*
X11947546Y-8946902D02*
X11957069Y-8937378D01*
X11957069Y-8937378D02*
X11976117Y-8927854D01*
X11976117Y-8927854D02*
X12023736Y-8927854D01*
X12023736Y-8927854D02*
X12042784Y-8937378D01*
X12042784Y-8937378D02*
X12052308Y-8946902D01*
X12052308Y-8946902D02*
X12061831Y-8965950D01*
X12061831Y-8965950D02*
X12061831Y-9013569D01*
X12061831Y-9013569D02*
X12052308Y-9032616D01*
X12052308Y-9032616D02*
X12042784Y-9042140D01*
X12042784Y-9042140D02*
X12023736Y-9051664D01*
X12023736Y-9051664D02*
X11976117Y-9051664D01*
X11976117Y-9051664D02*
X11957069Y-9042140D01*
X11957069Y-9042140D02*
X11947546Y-9032616D01*
X12299927Y-9051664D02*
X12299927Y-8851664D01*
X12385641Y-9051664D02*
X12385641Y-8946902D01*
X12385641Y-8946902D02*
X12376117Y-8927854D01*
X12376117Y-8927854D02*
X12357070Y-8918330D01*
X12357070Y-8918330D02*
X12328498Y-8918330D01*
X12328498Y-8918330D02*
X12309450Y-8927854D01*
X12309450Y-8927854D02*
X12299927Y-8937378D01*
X12509450Y-9051664D02*
X12490403Y-9042140D01*
X12490403Y-9042140D02*
X12480879Y-9032616D01*
X12480879Y-9032616D02*
X12471355Y-9013569D01*
X12471355Y-9013569D02*
X12471355Y-8956426D01*
X12471355Y-8956426D02*
X12480879Y-8937378D01*
X12480879Y-8937378D02*
X12490403Y-8927854D01*
X12490403Y-8927854D02*
X12509450Y-8918330D01*
X12509450Y-8918330D02*
X12538022Y-8918330D01*
X12538022Y-8918330D02*
X12557070Y-8927854D01*
X12557070Y-8927854D02*
X12566593Y-8937378D01*
X12566593Y-8937378D02*
X12576117Y-8956426D01*
X12576117Y-8956426D02*
X12576117Y-9013569D01*
X12576117Y-9013569D02*
X12566593Y-9032616D01*
X12566593Y-9032616D02*
X12557070Y-9042140D01*
X12557070Y-9042140D02*
X12538022Y-9051664D01*
X12538022Y-9051664D02*
X12509450Y-9051664D01*
X12690403Y-9051664D02*
X12671355Y-9042140D01*
X12671355Y-9042140D02*
X12661831Y-9023092D01*
X12661831Y-9023092D02*
X12661831Y-8851664D01*
X12842784Y-9042140D02*
X12823736Y-9051664D01*
X12823736Y-9051664D02*
X12785641Y-9051664D01*
X12785641Y-9051664D02*
X12766593Y-9042140D01*
X12766593Y-9042140D02*
X12757070Y-9023092D01*
X12757070Y-9023092D02*
X12757070Y-8946902D01*
X12757070Y-8946902D02*
X12766593Y-8927854D01*
X12766593Y-8927854D02*
X12785641Y-8918330D01*
X12785641Y-8918330D02*
X12823736Y-8918330D01*
X12823736Y-8918330D02*
X12842784Y-8927854D01*
X12842784Y-8927854D02*
X12852308Y-8946902D01*
X12852308Y-8946902D02*
X12852308Y-8965950D01*
X12852308Y-8965950D02*
X12757070Y-8984997D01*
X12928498Y-9042140D02*
X12947546Y-9051664D01*
X12947546Y-9051664D02*
X12985641Y-9051664D01*
X12985641Y-9051664D02*
X13004689Y-9042140D01*
X13004689Y-9042140D02*
X13014212Y-9023092D01*
X13014212Y-9023092D02*
X13014212Y-9013569D01*
X13014212Y-9013569D02*
X13004689Y-8994521D01*
X13004689Y-8994521D02*
X12985641Y-8984997D01*
X12985641Y-8984997D02*
X12957070Y-8984997D01*
X12957070Y-8984997D02*
X12938022Y-8975473D01*
X12938022Y-8975473D02*
X12928498Y-8956426D01*
X12928498Y-8956426D02*
X12928498Y-8946902D01*
X12928498Y-8946902D02*
X12938022Y-8927854D01*
X12938022Y-8927854D02*
X12957070Y-8918330D01*
X12957070Y-8918330D02*
X12985641Y-8918330D01*
X12985641Y-8918330D02*
X13004689Y-8927854D01*
X13080879Y-9127854D02*
X13090403Y-9118330D01*
X13090403Y-9118330D02*
X13109451Y-9089759D01*
X13109451Y-9089759D02*
X13118974Y-9070711D01*
X13118974Y-9070711D02*
X13128498Y-9042140D01*
X13128498Y-9042140D02*
X13138022Y-8994521D01*
X13138022Y-8994521D02*
X13138022Y-8956426D01*
X13138022Y-8956426D02*
X13128498Y-8908807D01*
X13128498Y-8908807D02*
X13118974Y-8880235D01*
X13118974Y-8880235D02*
X13109451Y-8861188D01*
X13109451Y-8861188D02*
X13090403Y-8832616D01*
X13090403Y-8832616D02*
X13080879Y-8823092D01*
D12*
X8100340Y-9209180D02*
X8100340Y-9239180D01*
X8085340Y-9224180D02*
X8115340Y-9224180D01*
D11*
X8414212Y-9115664D02*
X8433260Y-9115664D01*
X8433260Y-9115664D02*
X8452307Y-9125188D01*
X8452307Y-9125188D02*
X8461831Y-9134711D01*
X8461831Y-9134711D02*
X8471355Y-9153759D01*
X8471355Y-9153759D02*
X8480879Y-9191854D01*
X8480879Y-9191854D02*
X8480879Y-9239473D01*
X8480879Y-9239473D02*
X8471355Y-9277569D01*
X8471355Y-9277569D02*
X8461831Y-9296616D01*
X8461831Y-9296616D02*
X8452307Y-9306140D01*
X8452307Y-9306140D02*
X8433260Y-9315664D01*
X8433260Y-9315664D02*
X8414212Y-9315664D01*
X8414212Y-9315664D02*
X8395164Y-9306140D01*
X8395164Y-9306140D02*
X8385641Y-9296616D01*
X8385641Y-9296616D02*
X8376117Y-9277569D01*
X8376117Y-9277569D02*
X8366593Y-9239473D01*
X8366593Y-9239473D02*
X8366593Y-9191854D01*
X8366593Y-9191854D02*
X8376117Y-9153759D01*
X8376117Y-9153759D02*
X8385641Y-9134711D01*
X8385641Y-9134711D02*
X8395164Y-9125188D01*
X8395164Y-9125188D02*
X8414212Y-9115664D01*
X8566593Y-9296616D02*
X8576117Y-9306140D01*
X8576117Y-9306140D02*
X8566593Y-9315664D01*
X8566593Y-9315664D02*
X8557069Y-9306140D01*
X8557069Y-9306140D02*
X8566593Y-9296616D01*
X8566593Y-9296616D02*
X8566593Y-9315664D01*
X8642784Y-9115664D02*
X8766593Y-9115664D01*
X8766593Y-9115664D02*
X8699926Y-9191854D01*
X8699926Y-9191854D02*
X8728498Y-9191854D01*
X8728498Y-9191854D02*
X8747545Y-9201378D01*
X8747545Y-9201378D02*
X8757069Y-9210902D01*
X8757069Y-9210902D02*
X8766593Y-9229950D01*
X8766593Y-9229950D02*
X8766593Y-9277569D01*
X8766593Y-9277569D02*
X8757069Y-9296616D01*
X8757069Y-9296616D02*
X8747545Y-9306140D01*
X8747545Y-9306140D02*
X8728498Y-9315664D01*
X8728498Y-9315664D02*
X8671355Y-9315664D01*
X8671355Y-9315664D02*
X8652307Y-9306140D01*
X8652307Y-9306140D02*
X8642784Y-9296616D01*
X8890403Y-9115664D02*
X8909450Y-9115664D01*
X8909450Y-9115664D02*
X8928498Y-9125188D01*
X8928498Y-9125188D02*
X8938022Y-9134711D01*
X8938022Y-9134711D02*
X8947545Y-9153759D01*
X8947545Y-9153759D02*
X8957069Y-9191854D01*
X8957069Y-9191854D02*
X8957069Y-9239473D01*
X8957069Y-9239473D02*
X8947545Y-9277569D01*
X8947545Y-9277569D02*
X8938022Y-9296616D01*
X8938022Y-9296616D02*
X8928498Y-9306140D01*
X8928498Y-9306140D02*
X8909450Y-9315664D01*
X8909450Y-9315664D02*
X8890403Y-9315664D01*
X8890403Y-9315664D02*
X8871355Y-9306140D01*
X8871355Y-9306140D02*
X8861831Y-9296616D01*
X8861831Y-9296616D02*
X8852307Y-9277569D01*
X8852307Y-9277569D02*
X8842784Y-9239473D01*
X8842784Y-9239473D02*
X8842784Y-9191854D01*
X8842784Y-9191854D02*
X8852307Y-9153759D01*
X8852307Y-9153759D02*
X8861831Y-9134711D01*
X8861831Y-9134711D02*
X8871355Y-9125188D01*
X8871355Y-9125188D02*
X8890403Y-9115664D01*
X9080879Y-9115664D02*
X9099926Y-9115664D01*
X9099926Y-9115664D02*
X9118974Y-9125188D01*
X9118974Y-9125188D02*
X9128498Y-9134711D01*
X9128498Y-9134711D02*
X9138022Y-9153759D01*
X9138022Y-9153759D02*
X9147545Y-9191854D01*
X9147545Y-9191854D02*
X9147545Y-9239473D01*
X9147545Y-9239473D02*
X9138022Y-9277569D01*
X9138022Y-9277569D02*
X9128498Y-9296616D01*
X9128498Y-9296616D02*
X9118974Y-9306140D01*
X9118974Y-9306140D02*
X9099926Y-9315664D01*
X9099926Y-9315664D02*
X9080879Y-9315664D01*
X9080879Y-9315664D02*
X9061831Y-9306140D01*
X9061831Y-9306140D02*
X9052307Y-9296616D01*
X9052307Y-9296616D02*
X9042784Y-9277569D01*
X9042784Y-9277569D02*
X9033260Y-9239473D01*
X9033260Y-9239473D02*
X9033260Y-9191854D01*
X9033260Y-9191854D02*
X9042784Y-9153759D01*
X9042784Y-9153759D02*
X9052307Y-9134711D01*
X9052307Y-9134711D02*
X9061831Y-9125188D01*
X9061831Y-9125188D02*
X9080879Y-9115664D01*
X9233260Y-9315664D02*
X9233260Y-9182330D01*
X9233260Y-9201378D02*
X9242784Y-9191854D01*
X9242784Y-9191854D02*
X9261831Y-9182330D01*
X9261831Y-9182330D02*
X9290403Y-9182330D01*
X9290403Y-9182330D02*
X9309450Y-9191854D01*
X9309450Y-9191854D02*
X9318974Y-9210902D01*
X9318974Y-9210902D02*
X9318974Y-9315664D01*
X9318974Y-9210902D02*
X9328498Y-9191854D01*
X9328498Y-9191854D02*
X9347545Y-9182330D01*
X9347545Y-9182330D02*
X9376117Y-9182330D01*
X9376117Y-9182330D02*
X9395165Y-9191854D01*
X9395165Y-9191854D02*
X9404688Y-9210902D01*
X9404688Y-9210902D02*
X9404688Y-9315664D01*
X9499926Y-9315664D02*
X9499926Y-9182330D01*
X9499926Y-9201378D02*
X9509450Y-9191854D01*
X9509450Y-9191854D02*
X9528498Y-9182330D01*
X9528498Y-9182330D02*
X9557069Y-9182330D01*
X9557069Y-9182330D02*
X9576117Y-9191854D01*
X9576117Y-9191854D02*
X9585641Y-9210902D01*
X9585641Y-9210902D02*
X9585641Y-9315664D01*
X9585641Y-9210902D02*
X9595165Y-9191854D01*
X9595165Y-9191854D02*
X9614212Y-9182330D01*
X9614212Y-9182330D02*
X9642784Y-9182330D01*
X9642784Y-9182330D02*
X9661831Y-9191854D01*
X9661831Y-9191854D02*
X9671355Y-9210902D01*
X9671355Y-9210902D02*
X9671355Y-9315664D01*
X10061831Y-9106140D02*
X9890403Y-9363283D01*
X10318974Y-9115664D02*
X10338022Y-9115664D01*
X10338022Y-9115664D02*
X10357069Y-9125188D01*
X10357069Y-9125188D02*
X10366593Y-9134711D01*
X10366593Y-9134711D02*
X10376117Y-9153759D01*
X10376117Y-9153759D02*
X10385641Y-9191854D01*
X10385641Y-9191854D02*
X10385641Y-9239473D01*
X10385641Y-9239473D02*
X10376117Y-9277569D01*
X10376117Y-9277569D02*
X10366593Y-9296616D01*
X10366593Y-9296616D02*
X10357069Y-9306140D01*
X10357069Y-9306140D02*
X10338022Y-9315664D01*
X10338022Y-9315664D02*
X10318974Y-9315664D01*
X10318974Y-9315664D02*
X10299927Y-9306140D01*
X10299927Y-9306140D02*
X10290403Y-9296616D01*
X10290403Y-9296616D02*
X10280879Y-9277569D01*
X10280879Y-9277569D02*
X10271355Y-9239473D01*
X10271355Y-9239473D02*
X10271355Y-9191854D01*
X10271355Y-9191854D02*
X10280879Y-9153759D01*
X10280879Y-9153759D02*
X10290403Y-9134711D01*
X10290403Y-9134711D02*
X10299927Y-9125188D01*
X10299927Y-9125188D02*
X10318974Y-9115664D01*
X10471355Y-9296616D02*
X10480879Y-9306140D01*
X10480879Y-9306140D02*
X10471355Y-9315664D01*
X10471355Y-9315664D02*
X10461831Y-9306140D01*
X10461831Y-9306140D02*
X10471355Y-9296616D01*
X10471355Y-9296616D02*
X10471355Y-9315664D01*
X10604688Y-9115664D02*
X10623736Y-9115664D01*
X10623736Y-9115664D02*
X10642784Y-9125188D01*
X10642784Y-9125188D02*
X10652308Y-9134711D01*
X10652308Y-9134711D02*
X10661831Y-9153759D01*
X10661831Y-9153759D02*
X10671355Y-9191854D01*
X10671355Y-9191854D02*
X10671355Y-9239473D01*
X10671355Y-9239473D02*
X10661831Y-9277569D01*
X10661831Y-9277569D02*
X10652308Y-9296616D01*
X10652308Y-9296616D02*
X10642784Y-9306140D01*
X10642784Y-9306140D02*
X10623736Y-9315664D01*
X10623736Y-9315664D02*
X10604688Y-9315664D01*
X10604688Y-9315664D02*
X10585641Y-9306140D01*
X10585641Y-9306140D02*
X10576117Y-9296616D01*
X10576117Y-9296616D02*
X10566593Y-9277569D01*
X10566593Y-9277569D02*
X10557069Y-9239473D01*
X10557069Y-9239473D02*
X10557069Y-9191854D01*
X10557069Y-9191854D02*
X10566593Y-9153759D01*
X10566593Y-9153759D02*
X10576117Y-9134711D01*
X10576117Y-9134711D02*
X10585641Y-9125188D01*
X10585641Y-9125188D02*
X10604688Y-9115664D01*
X10861831Y-9315664D02*
X10747546Y-9315664D01*
X10804688Y-9315664D02*
X10804688Y-9115664D01*
X10804688Y-9115664D02*
X10785641Y-9144235D01*
X10785641Y-9144235D02*
X10766593Y-9163283D01*
X10766593Y-9163283D02*
X10747546Y-9172807D01*
X11052308Y-9315664D02*
X10938022Y-9315664D01*
X10995165Y-9315664D02*
X10995165Y-9115664D01*
X10995165Y-9115664D02*
X10976117Y-9144235D01*
X10976117Y-9144235D02*
X10957069Y-9163283D01*
X10957069Y-9163283D02*
X10938022Y-9172807D01*
X11166593Y-9201378D02*
X11147546Y-9191854D01*
X11147546Y-9191854D02*
X11138022Y-9182330D01*
X11138022Y-9182330D02*
X11128498Y-9163283D01*
X11128498Y-9163283D02*
X11128498Y-9153759D01*
X11128498Y-9153759D02*
X11138022Y-9134711D01*
X11138022Y-9134711D02*
X11147546Y-9125188D01*
X11147546Y-9125188D02*
X11166593Y-9115664D01*
X11166593Y-9115664D02*
X11204688Y-9115664D01*
X11204688Y-9115664D02*
X11223736Y-9125188D01*
X11223736Y-9125188D02*
X11233260Y-9134711D01*
X11233260Y-9134711D02*
X11242784Y-9153759D01*
X11242784Y-9153759D02*
X11242784Y-9163283D01*
X11242784Y-9163283D02*
X11233260Y-9182330D01*
X11233260Y-9182330D02*
X11223736Y-9191854D01*
X11223736Y-9191854D02*
X11204688Y-9201378D01*
X11204688Y-9201378D02*
X11166593Y-9201378D01*
X11166593Y-9201378D02*
X11147546Y-9210902D01*
X11147546Y-9210902D02*
X11138022Y-9220426D01*
X11138022Y-9220426D02*
X11128498Y-9239473D01*
X11128498Y-9239473D02*
X11128498Y-9277569D01*
X11128498Y-9277569D02*
X11138022Y-9296616D01*
X11138022Y-9296616D02*
X11147546Y-9306140D01*
X11147546Y-9306140D02*
X11166593Y-9315664D01*
X11166593Y-9315664D02*
X11204688Y-9315664D01*
X11204688Y-9315664D02*
X11223736Y-9306140D01*
X11223736Y-9306140D02*
X11233260Y-9296616D01*
X11233260Y-9296616D02*
X11242784Y-9277569D01*
X11242784Y-9277569D02*
X11242784Y-9239473D01*
X11242784Y-9239473D02*
X11233260Y-9220426D01*
X11233260Y-9220426D02*
X11223736Y-9210902D01*
X11223736Y-9210902D02*
X11204688Y-9201378D01*
X11318974Y-9115664D02*
X11318974Y-9153759D01*
X11395165Y-9115664D02*
X11395165Y-9153759D01*
X11690403Y-9391854D02*
X11680879Y-9382330D01*
X11680879Y-9382330D02*
X11661831Y-9353759D01*
X11661831Y-9353759D02*
X11652308Y-9334711D01*
X11652308Y-9334711D02*
X11642784Y-9306140D01*
X11642784Y-9306140D02*
X11633260Y-9258521D01*
X11633260Y-9258521D02*
X11633260Y-9220426D01*
X11633260Y-9220426D02*
X11642784Y-9172807D01*
X11642784Y-9172807D02*
X11652308Y-9144235D01*
X11652308Y-9144235D02*
X11661831Y-9125188D01*
X11661831Y-9125188D02*
X11680879Y-9096616D01*
X11680879Y-9096616D02*
X11690403Y-9087092D01*
X11861831Y-9115664D02*
X11766593Y-9115664D01*
X11766593Y-9115664D02*
X11757069Y-9210902D01*
X11757069Y-9210902D02*
X11766593Y-9201378D01*
X11766593Y-9201378D02*
X11785641Y-9191854D01*
X11785641Y-9191854D02*
X11833260Y-9191854D01*
X11833260Y-9191854D02*
X11852308Y-9201378D01*
X11852308Y-9201378D02*
X11861831Y-9210902D01*
X11861831Y-9210902D02*
X11871355Y-9229950D01*
X11871355Y-9229950D02*
X11871355Y-9277569D01*
X11871355Y-9277569D02*
X11861831Y-9296616D01*
X11861831Y-9296616D02*
X11852308Y-9306140D01*
X11852308Y-9306140D02*
X11833260Y-9315664D01*
X11833260Y-9315664D02*
X11785641Y-9315664D01*
X11785641Y-9315664D02*
X11766593Y-9306140D01*
X11766593Y-9306140D02*
X11757069Y-9296616D01*
X11938022Y-9115664D02*
X12071355Y-9115664D01*
X12071355Y-9115664D02*
X11985641Y-9315664D01*
X12185641Y-9115664D02*
X12204689Y-9115664D01*
X12204689Y-9115664D02*
X12223736Y-9125188D01*
X12223736Y-9125188D02*
X12233260Y-9134711D01*
X12233260Y-9134711D02*
X12242784Y-9153759D01*
X12242784Y-9153759D02*
X12252308Y-9191854D01*
X12252308Y-9191854D02*
X12252308Y-9239473D01*
X12252308Y-9239473D02*
X12242784Y-9277569D01*
X12242784Y-9277569D02*
X12233260Y-9296616D01*
X12233260Y-9296616D02*
X12223736Y-9306140D01*
X12223736Y-9306140D02*
X12204689Y-9315664D01*
X12204689Y-9315664D02*
X12185641Y-9315664D01*
X12185641Y-9315664D02*
X12166593Y-9306140D01*
X12166593Y-9306140D02*
X12157069Y-9296616D01*
X12157069Y-9296616D02*
X12147546Y-9277569D01*
X12147546Y-9277569D02*
X12138022Y-9239473D01*
X12138022Y-9239473D02*
X12138022Y-9191854D01*
X12138022Y-9191854D02*
X12147546Y-9153759D01*
X12147546Y-9153759D02*
X12157069Y-9134711D01*
X12157069Y-9134711D02*
X12166593Y-9125188D01*
X12166593Y-9125188D02*
X12185641Y-9115664D01*
X12490403Y-9315664D02*
X12490403Y-9115664D01*
X12576117Y-9315664D02*
X12576117Y-9210902D01*
X12576117Y-9210902D02*
X12566593Y-9191854D01*
X12566593Y-9191854D02*
X12547546Y-9182330D01*
X12547546Y-9182330D02*
X12518974Y-9182330D01*
X12518974Y-9182330D02*
X12499927Y-9191854D01*
X12499927Y-9191854D02*
X12490403Y-9201378D01*
X12699927Y-9315664D02*
X12680879Y-9306140D01*
X12680879Y-9306140D02*
X12671355Y-9296616D01*
X12671355Y-9296616D02*
X12661831Y-9277569D01*
X12661831Y-9277569D02*
X12661831Y-9220426D01*
X12661831Y-9220426D02*
X12671355Y-9201378D01*
X12671355Y-9201378D02*
X12680879Y-9191854D01*
X12680879Y-9191854D02*
X12699927Y-9182330D01*
X12699927Y-9182330D02*
X12728498Y-9182330D01*
X12728498Y-9182330D02*
X12747546Y-9191854D01*
X12747546Y-9191854D02*
X12757070Y-9201378D01*
X12757070Y-9201378D02*
X12766593Y-9220426D01*
X12766593Y-9220426D02*
X12766593Y-9277569D01*
X12766593Y-9277569D02*
X12757070Y-9296616D01*
X12757070Y-9296616D02*
X12747546Y-9306140D01*
X12747546Y-9306140D02*
X12728498Y-9315664D01*
X12728498Y-9315664D02*
X12699927Y-9315664D01*
X12880879Y-9315664D02*
X12861831Y-9306140D01*
X12861831Y-9306140D02*
X12852308Y-9287092D01*
X12852308Y-9287092D02*
X12852308Y-9115664D01*
X13033260Y-9306140D02*
X13014212Y-9315664D01*
X13014212Y-9315664D02*
X12976117Y-9315664D01*
X12976117Y-9315664D02*
X12957070Y-9306140D01*
X12957070Y-9306140D02*
X12947546Y-9287092D01*
X12947546Y-9287092D02*
X12947546Y-9210902D01*
X12947546Y-9210902D02*
X12957070Y-9191854D01*
X12957070Y-9191854D02*
X12976117Y-9182330D01*
X12976117Y-9182330D02*
X13014212Y-9182330D01*
X13014212Y-9182330D02*
X13033260Y-9191854D01*
X13033260Y-9191854D02*
X13042784Y-9210902D01*
X13042784Y-9210902D02*
X13042784Y-9229950D01*
X13042784Y-9229950D02*
X12947546Y-9248997D01*
X13118974Y-9306140D02*
X13138022Y-9315664D01*
X13138022Y-9315664D02*
X13176117Y-9315664D01*
X13176117Y-9315664D02*
X13195165Y-9306140D01*
X13195165Y-9306140D02*
X13204689Y-9287092D01*
X13204689Y-9287092D02*
X13204689Y-9277569D01*
X13204689Y-9277569D02*
X13195165Y-9258521D01*
X13195165Y-9258521D02*
X13176117Y-9248997D01*
X13176117Y-9248997D02*
X13147546Y-9248997D01*
X13147546Y-9248997D02*
X13128498Y-9239473D01*
X13128498Y-9239473D02*
X13118974Y-9220426D01*
X13118974Y-9220426D02*
X13118974Y-9210902D01*
X13118974Y-9210902D02*
X13128498Y-9191854D01*
X13128498Y-9191854D02*
X13147546Y-9182330D01*
X13147546Y-9182330D02*
X13176117Y-9182330D01*
X13176117Y-9182330D02*
X13195165Y-9191854D01*
X13271355Y-9391854D02*
X13280879Y-9382330D01*
X13280879Y-9382330D02*
X13299927Y-9353759D01*
X13299927Y-9353759D02*
X13309451Y-9334711D01*
X13309451Y-9334711D02*
X13318974Y-9306140D01*
X13318974Y-9306140D02*
X13328498Y-9258521D01*
X13328498Y-9258521D02*
X13328498Y-9220426D01*
X13328498Y-9220426D02*
X13318974Y-9172807D01*
X13318974Y-9172807D02*
X13309451Y-9144235D01*
X13309451Y-9144235D02*
X13299927Y-9125188D01*
X13299927Y-9125188D02*
X13280879Y-9096616D01*
X13280879Y-9096616D02*
X13271355Y-9087092D01*
D12*
X8103624Y-9516465D02*
X8103624Y-9459896D01*
X8047055Y-9459896D01*
X8047055Y-9516465D01*
X8103624Y-9516465D01*
D11*
X8414212Y-9379664D02*
X8433260Y-9379664D01*
X8433260Y-9379664D02*
X8452307Y-9389188D01*
X8452307Y-9389188D02*
X8461831Y-9398711D01*
X8461831Y-9398711D02*
X8471355Y-9417759D01*
X8471355Y-9417759D02*
X8480879Y-9455854D01*
X8480879Y-9455854D02*
X8480879Y-9503473D01*
X8480879Y-9503473D02*
X8471355Y-9541569D01*
X8471355Y-9541569D02*
X8461831Y-9560616D01*
X8461831Y-9560616D02*
X8452307Y-9570140D01*
X8452307Y-9570140D02*
X8433260Y-9579664D01*
X8433260Y-9579664D02*
X8414212Y-9579664D01*
X8414212Y-9579664D02*
X8395164Y-9570140D01*
X8395164Y-9570140D02*
X8385641Y-9560616D01*
X8385641Y-9560616D02*
X8376117Y-9541569D01*
X8376117Y-9541569D02*
X8366593Y-9503473D01*
X8366593Y-9503473D02*
X8366593Y-9455854D01*
X8366593Y-9455854D02*
X8376117Y-9417759D01*
X8376117Y-9417759D02*
X8385641Y-9398711D01*
X8385641Y-9398711D02*
X8395164Y-9389188D01*
X8395164Y-9389188D02*
X8414212Y-9379664D01*
X8566593Y-9560616D02*
X8576117Y-9570140D01*
X8576117Y-9570140D02*
X8566593Y-9579664D01*
X8566593Y-9579664D02*
X8557069Y-9570140D01*
X8557069Y-9570140D02*
X8566593Y-9560616D01*
X8566593Y-9560616D02*
X8566593Y-9579664D01*
X8690403Y-9465378D02*
X8671355Y-9455854D01*
X8671355Y-9455854D02*
X8661831Y-9446330D01*
X8661831Y-9446330D02*
X8652307Y-9427283D01*
X8652307Y-9427283D02*
X8652307Y-9417759D01*
X8652307Y-9417759D02*
X8661831Y-9398711D01*
X8661831Y-9398711D02*
X8671355Y-9389188D01*
X8671355Y-9389188D02*
X8690403Y-9379664D01*
X8690403Y-9379664D02*
X8728498Y-9379664D01*
X8728498Y-9379664D02*
X8747545Y-9389188D01*
X8747545Y-9389188D02*
X8757069Y-9398711D01*
X8757069Y-9398711D02*
X8766593Y-9417759D01*
X8766593Y-9417759D02*
X8766593Y-9427283D01*
X8766593Y-9427283D02*
X8757069Y-9446330D01*
X8757069Y-9446330D02*
X8747545Y-9455854D01*
X8747545Y-9455854D02*
X8728498Y-9465378D01*
X8728498Y-9465378D02*
X8690403Y-9465378D01*
X8690403Y-9465378D02*
X8671355Y-9474902D01*
X8671355Y-9474902D02*
X8661831Y-9484426D01*
X8661831Y-9484426D02*
X8652307Y-9503473D01*
X8652307Y-9503473D02*
X8652307Y-9541569D01*
X8652307Y-9541569D02*
X8661831Y-9560616D01*
X8661831Y-9560616D02*
X8671355Y-9570140D01*
X8671355Y-9570140D02*
X8690403Y-9579664D01*
X8690403Y-9579664D02*
X8728498Y-9579664D01*
X8728498Y-9579664D02*
X8747545Y-9570140D01*
X8747545Y-9570140D02*
X8757069Y-9560616D01*
X8757069Y-9560616D02*
X8766593Y-9541569D01*
X8766593Y-9541569D02*
X8766593Y-9503473D01*
X8766593Y-9503473D02*
X8757069Y-9484426D01*
X8757069Y-9484426D02*
X8747545Y-9474902D01*
X8747545Y-9474902D02*
X8728498Y-9465378D01*
X8890403Y-9379664D02*
X8909450Y-9379664D01*
X8909450Y-9379664D02*
X8928498Y-9389188D01*
X8928498Y-9389188D02*
X8938022Y-9398711D01*
X8938022Y-9398711D02*
X8947545Y-9417759D01*
X8947545Y-9417759D02*
X8957069Y-9455854D01*
X8957069Y-9455854D02*
X8957069Y-9503473D01*
X8957069Y-9503473D02*
X8947545Y-9541569D01*
X8947545Y-9541569D02*
X8938022Y-9560616D01*
X8938022Y-9560616D02*
X8928498Y-9570140D01*
X8928498Y-9570140D02*
X8909450Y-9579664D01*
X8909450Y-9579664D02*
X8890403Y-9579664D01*
X8890403Y-9579664D02*
X8871355Y-9570140D01*
X8871355Y-9570140D02*
X8861831Y-9560616D01*
X8861831Y-9560616D02*
X8852307Y-9541569D01*
X8852307Y-9541569D02*
X8842784Y-9503473D01*
X8842784Y-9503473D02*
X8842784Y-9455854D01*
X8842784Y-9455854D02*
X8852307Y-9417759D01*
X8852307Y-9417759D02*
X8861831Y-9398711D01*
X8861831Y-9398711D02*
X8871355Y-9389188D01*
X8871355Y-9389188D02*
X8890403Y-9379664D01*
X9080879Y-9379664D02*
X9099926Y-9379664D01*
X9099926Y-9379664D02*
X9118974Y-9389188D01*
X9118974Y-9389188D02*
X9128498Y-9398711D01*
X9128498Y-9398711D02*
X9138022Y-9417759D01*
X9138022Y-9417759D02*
X9147545Y-9455854D01*
X9147545Y-9455854D02*
X9147545Y-9503473D01*
X9147545Y-9503473D02*
X9138022Y-9541569D01*
X9138022Y-9541569D02*
X9128498Y-9560616D01*
X9128498Y-9560616D02*
X9118974Y-9570140D01*
X9118974Y-9570140D02*
X9099926Y-9579664D01*
X9099926Y-9579664D02*
X9080879Y-9579664D01*
X9080879Y-9579664D02*
X9061831Y-9570140D01*
X9061831Y-9570140D02*
X9052307Y-9560616D01*
X9052307Y-9560616D02*
X9042784Y-9541569D01*
X9042784Y-9541569D02*
X9033260Y-9503473D01*
X9033260Y-9503473D02*
X9033260Y-9455854D01*
X9033260Y-9455854D02*
X9042784Y-9417759D01*
X9042784Y-9417759D02*
X9052307Y-9398711D01*
X9052307Y-9398711D02*
X9061831Y-9389188D01*
X9061831Y-9389188D02*
X9080879Y-9379664D01*
X9233260Y-9579664D02*
X9233260Y-9446330D01*
X9233260Y-9465378D02*
X9242784Y-9455854D01*
X9242784Y-9455854D02*
X9261831Y-9446330D01*
X9261831Y-9446330D02*
X9290403Y-9446330D01*
X9290403Y-9446330D02*
X9309450Y-9455854D01*
X9309450Y-9455854D02*
X9318974Y-9474902D01*
X9318974Y-9474902D02*
X9318974Y-9579664D01*
X9318974Y-9474902D02*
X9328498Y-9455854D01*
X9328498Y-9455854D02*
X9347545Y-9446330D01*
X9347545Y-9446330D02*
X9376117Y-9446330D01*
X9376117Y-9446330D02*
X9395165Y-9455854D01*
X9395165Y-9455854D02*
X9404688Y-9474902D01*
X9404688Y-9474902D02*
X9404688Y-9579664D01*
X9499926Y-9579664D02*
X9499926Y-9446330D01*
X9499926Y-9465378D02*
X9509450Y-9455854D01*
X9509450Y-9455854D02*
X9528498Y-9446330D01*
X9528498Y-9446330D02*
X9557069Y-9446330D01*
X9557069Y-9446330D02*
X9576117Y-9455854D01*
X9576117Y-9455854D02*
X9585641Y-9474902D01*
X9585641Y-9474902D02*
X9585641Y-9579664D01*
X9585641Y-9474902D02*
X9595165Y-9455854D01*
X9595165Y-9455854D02*
X9614212Y-9446330D01*
X9614212Y-9446330D02*
X9642784Y-9446330D01*
X9642784Y-9446330D02*
X9661831Y-9455854D01*
X9661831Y-9455854D02*
X9671355Y-9474902D01*
X9671355Y-9474902D02*
X9671355Y-9579664D01*
X10061831Y-9370140D02*
X9890403Y-9627283D01*
X10318974Y-9379664D02*
X10338022Y-9379664D01*
X10338022Y-9379664D02*
X10357069Y-9389188D01*
X10357069Y-9389188D02*
X10366593Y-9398711D01*
X10366593Y-9398711D02*
X10376117Y-9417759D01*
X10376117Y-9417759D02*
X10385641Y-9455854D01*
X10385641Y-9455854D02*
X10385641Y-9503473D01*
X10385641Y-9503473D02*
X10376117Y-9541569D01*
X10376117Y-9541569D02*
X10366593Y-9560616D01*
X10366593Y-9560616D02*
X10357069Y-9570140D01*
X10357069Y-9570140D02*
X10338022Y-9579664D01*
X10338022Y-9579664D02*
X10318974Y-9579664D01*
X10318974Y-9579664D02*
X10299927Y-9570140D01*
X10299927Y-9570140D02*
X10290403Y-9560616D01*
X10290403Y-9560616D02*
X10280879Y-9541569D01*
X10280879Y-9541569D02*
X10271355Y-9503473D01*
X10271355Y-9503473D02*
X10271355Y-9455854D01*
X10271355Y-9455854D02*
X10280879Y-9417759D01*
X10280879Y-9417759D02*
X10290403Y-9398711D01*
X10290403Y-9398711D02*
X10299927Y-9389188D01*
X10299927Y-9389188D02*
X10318974Y-9379664D01*
X10471355Y-9560616D02*
X10480879Y-9570140D01*
X10480879Y-9570140D02*
X10471355Y-9579664D01*
X10471355Y-9579664D02*
X10461831Y-9570140D01*
X10461831Y-9570140D02*
X10471355Y-9560616D01*
X10471355Y-9560616D02*
X10471355Y-9579664D01*
X10604688Y-9379664D02*
X10623736Y-9379664D01*
X10623736Y-9379664D02*
X10642784Y-9389188D01*
X10642784Y-9389188D02*
X10652308Y-9398711D01*
X10652308Y-9398711D02*
X10661831Y-9417759D01*
X10661831Y-9417759D02*
X10671355Y-9455854D01*
X10671355Y-9455854D02*
X10671355Y-9503473D01*
X10671355Y-9503473D02*
X10661831Y-9541569D01*
X10661831Y-9541569D02*
X10652308Y-9560616D01*
X10652308Y-9560616D02*
X10642784Y-9570140D01*
X10642784Y-9570140D02*
X10623736Y-9579664D01*
X10623736Y-9579664D02*
X10604688Y-9579664D01*
X10604688Y-9579664D02*
X10585641Y-9570140D01*
X10585641Y-9570140D02*
X10576117Y-9560616D01*
X10576117Y-9560616D02*
X10566593Y-9541569D01*
X10566593Y-9541569D02*
X10557069Y-9503473D01*
X10557069Y-9503473D02*
X10557069Y-9455854D01*
X10557069Y-9455854D02*
X10566593Y-9417759D01*
X10566593Y-9417759D02*
X10576117Y-9398711D01*
X10576117Y-9398711D02*
X10585641Y-9389188D01*
X10585641Y-9389188D02*
X10604688Y-9379664D01*
X10738022Y-9379664D02*
X10861831Y-9379664D01*
X10861831Y-9379664D02*
X10795165Y-9455854D01*
X10795165Y-9455854D02*
X10823736Y-9455854D01*
X10823736Y-9455854D02*
X10842784Y-9465378D01*
X10842784Y-9465378D02*
X10852308Y-9474902D01*
X10852308Y-9474902D02*
X10861831Y-9493950D01*
X10861831Y-9493950D02*
X10861831Y-9541569D01*
X10861831Y-9541569D02*
X10852308Y-9560616D01*
X10852308Y-9560616D02*
X10842784Y-9570140D01*
X10842784Y-9570140D02*
X10823736Y-9579664D01*
X10823736Y-9579664D02*
X10766593Y-9579664D01*
X10766593Y-9579664D02*
X10747546Y-9570140D01*
X10747546Y-9570140D02*
X10738022Y-9560616D01*
X11052308Y-9579664D02*
X10938022Y-9579664D01*
X10995165Y-9579664D02*
X10995165Y-9379664D01*
X10995165Y-9379664D02*
X10976117Y-9408235D01*
X10976117Y-9408235D02*
X10957069Y-9427283D01*
X10957069Y-9427283D02*
X10938022Y-9436807D01*
X11233260Y-9379664D02*
X11138022Y-9379664D01*
X11138022Y-9379664D02*
X11128498Y-9474902D01*
X11128498Y-9474902D02*
X11138022Y-9465378D01*
X11138022Y-9465378D02*
X11157069Y-9455854D01*
X11157069Y-9455854D02*
X11204688Y-9455854D01*
X11204688Y-9455854D02*
X11223736Y-9465378D01*
X11223736Y-9465378D02*
X11233260Y-9474902D01*
X11233260Y-9474902D02*
X11242784Y-9493950D01*
X11242784Y-9493950D02*
X11242784Y-9541569D01*
X11242784Y-9541569D02*
X11233260Y-9560616D01*
X11233260Y-9560616D02*
X11223736Y-9570140D01*
X11223736Y-9570140D02*
X11204688Y-9579664D01*
X11204688Y-9579664D02*
X11157069Y-9579664D01*
X11157069Y-9579664D02*
X11138022Y-9570140D01*
X11138022Y-9570140D02*
X11128498Y-9560616D01*
X11318974Y-9379664D02*
X11318974Y-9417759D01*
X11395165Y-9379664D02*
X11395165Y-9417759D01*
X11690403Y-9655854D02*
X11680879Y-9646330D01*
X11680879Y-9646330D02*
X11661831Y-9617759D01*
X11661831Y-9617759D02*
X11652308Y-9598711D01*
X11652308Y-9598711D02*
X11642784Y-9570140D01*
X11642784Y-9570140D02*
X11633260Y-9522521D01*
X11633260Y-9522521D02*
X11633260Y-9484426D01*
X11633260Y-9484426D02*
X11642784Y-9436807D01*
X11642784Y-9436807D02*
X11652308Y-9408235D01*
X11652308Y-9408235D02*
X11661831Y-9389188D01*
X11661831Y-9389188D02*
X11680879Y-9360616D01*
X11680879Y-9360616D02*
X11690403Y-9351092D01*
X11757069Y-9398711D02*
X11766593Y-9389188D01*
X11766593Y-9389188D02*
X11785641Y-9379664D01*
X11785641Y-9379664D02*
X11833260Y-9379664D01*
X11833260Y-9379664D02*
X11852308Y-9389188D01*
X11852308Y-9389188D02*
X11861831Y-9398711D01*
X11861831Y-9398711D02*
X11871355Y-9417759D01*
X11871355Y-9417759D02*
X11871355Y-9436807D01*
X11871355Y-9436807D02*
X11861831Y-9465378D01*
X11861831Y-9465378D02*
X11747546Y-9579664D01*
X11747546Y-9579664D02*
X11871355Y-9579664D01*
X11995165Y-9379664D02*
X12014212Y-9379664D01*
X12014212Y-9379664D02*
X12033260Y-9389188D01*
X12033260Y-9389188D02*
X12042784Y-9398711D01*
X12042784Y-9398711D02*
X12052308Y-9417759D01*
X12052308Y-9417759D02*
X12061831Y-9455854D01*
X12061831Y-9455854D02*
X12061831Y-9503473D01*
X12061831Y-9503473D02*
X12052308Y-9541569D01*
X12052308Y-9541569D02*
X12042784Y-9560616D01*
X12042784Y-9560616D02*
X12033260Y-9570140D01*
X12033260Y-9570140D02*
X12014212Y-9579664D01*
X12014212Y-9579664D02*
X11995165Y-9579664D01*
X11995165Y-9579664D02*
X11976117Y-9570140D01*
X11976117Y-9570140D02*
X11966593Y-9560616D01*
X11966593Y-9560616D02*
X11957069Y-9541569D01*
X11957069Y-9541569D02*
X11947546Y-9503473D01*
X11947546Y-9503473D02*
X11947546Y-9455854D01*
X11947546Y-9455854D02*
X11957069Y-9417759D01*
X11957069Y-9417759D02*
X11966593Y-9398711D01*
X11966593Y-9398711D02*
X11976117Y-9389188D01*
X11976117Y-9389188D02*
X11995165Y-9379664D01*
X12299927Y-9579664D02*
X12299927Y-9379664D01*
X12385641Y-9579664D02*
X12385641Y-9474902D01*
X12385641Y-9474902D02*
X12376117Y-9455854D01*
X12376117Y-9455854D02*
X12357070Y-9446330D01*
X12357070Y-9446330D02*
X12328498Y-9446330D01*
X12328498Y-9446330D02*
X12309450Y-9455854D01*
X12309450Y-9455854D02*
X12299927Y-9465378D01*
X12509450Y-9579664D02*
X12490403Y-9570140D01*
X12490403Y-9570140D02*
X12480879Y-9560616D01*
X12480879Y-9560616D02*
X12471355Y-9541569D01*
X12471355Y-9541569D02*
X12471355Y-9484426D01*
X12471355Y-9484426D02*
X12480879Y-9465378D01*
X12480879Y-9465378D02*
X12490403Y-9455854D01*
X12490403Y-9455854D02*
X12509450Y-9446330D01*
X12509450Y-9446330D02*
X12538022Y-9446330D01*
X12538022Y-9446330D02*
X12557070Y-9455854D01*
X12557070Y-9455854D02*
X12566593Y-9465378D01*
X12566593Y-9465378D02*
X12576117Y-9484426D01*
X12576117Y-9484426D02*
X12576117Y-9541569D01*
X12576117Y-9541569D02*
X12566593Y-9560616D01*
X12566593Y-9560616D02*
X12557070Y-9570140D01*
X12557070Y-9570140D02*
X12538022Y-9579664D01*
X12538022Y-9579664D02*
X12509450Y-9579664D01*
X12690403Y-9579664D02*
X12671355Y-9570140D01*
X12671355Y-9570140D02*
X12661831Y-9551092D01*
X12661831Y-9551092D02*
X12661831Y-9379664D01*
X12842784Y-9570140D02*
X12823736Y-9579664D01*
X12823736Y-9579664D02*
X12785641Y-9579664D01*
X12785641Y-9579664D02*
X12766593Y-9570140D01*
X12766593Y-9570140D02*
X12757070Y-9551092D01*
X12757070Y-9551092D02*
X12757070Y-9474902D01*
X12757070Y-9474902D02*
X12766593Y-9455854D01*
X12766593Y-9455854D02*
X12785641Y-9446330D01*
X12785641Y-9446330D02*
X12823736Y-9446330D01*
X12823736Y-9446330D02*
X12842784Y-9455854D01*
X12842784Y-9455854D02*
X12852308Y-9474902D01*
X12852308Y-9474902D02*
X12852308Y-9493950D01*
X12852308Y-9493950D02*
X12757070Y-9512997D01*
X12928498Y-9570140D02*
X12947546Y-9579664D01*
X12947546Y-9579664D02*
X12985641Y-9579664D01*
X12985641Y-9579664D02*
X13004689Y-9570140D01*
X13004689Y-9570140D02*
X13014212Y-9551092D01*
X13014212Y-9551092D02*
X13014212Y-9541569D01*
X13014212Y-9541569D02*
X13004689Y-9522521D01*
X13004689Y-9522521D02*
X12985641Y-9512997D01*
X12985641Y-9512997D02*
X12957070Y-9512997D01*
X12957070Y-9512997D02*
X12938022Y-9503473D01*
X12938022Y-9503473D02*
X12928498Y-9484426D01*
X12928498Y-9484426D02*
X12928498Y-9474902D01*
X12928498Y-9474902D02*
X12938022Y-9455854D01*
X12938022Y-9455854D02*
X12957070Y-9446330D01*
X12957070Y-9446330D02*
X12985641Y-9446330D01*
X12985641Y-9446330D02*
X13004689Y-9455854D01*
X13080879Y-9655854D02*
X13090403Y-9646330D01*
X13090403Y-9646330D02*
X13109451Y-9617759D01*
X13109451Y-9617759D02*
X13118974Y-9598711D01*
X13118974Y-9598711D02*
X13128498Y-9570140D01*
X13128498Y-9570140D02*
X13138022Y-9522521D01*
X13138022Y-9522521D02*
X13138022Y-9484426D01*
X13138022Y-9484426D02*
X13128498Y-9436807D01*
X13128498Y-9436807D02*
X13118974Y-9408235D01*
X13118974Y-9408235D02*
X13109451Y-9389188D01*
X13109451Y-9389188D02*
X13090403Y-9360616D01*
X13090403Y-9360616D02*
X13080879Y-9351092D01*
M02*
