%TF.GenerationSoftware,KiCad,Pcbnew,9.0.5*%
%TF.CreationDate,2025-10-11T16:20:37-05:00*%
%TF.ProjectId,MAPS-010164-TR0500 Eval Board,4d415053-2d30-4313-9031-36342d545230,rev?*%
%TF.SameCoordinates,Original*%
%TF.FileFunction,Legend,Top*%
%TF.FilePolarity,Positive*%
%FSLAX46Y46*%
G04 Gerber Fmt 4.6, Leading zero omitted, Abs format (unit mm)*
G04 Created by KiCad (PCBNEW 9.0.5) date 2025-10-11 16:20:37*
%MOMM*%
%LPD*%
G01*
G04 APERTURE LIST*
G04 Aperture macros list*
%AMRoundRect*
0 Rectangle with rounded corners*
0 $1 Rounding radius*
0 $2 $3 $4 $5 $6 $7 $8 $9 X,Y pos of 4 corners*
0 Add a 4 corners polygon primitive as box body*
4,1,4,$2,$3,$4,$5,$6,$7,$8,$9,$2,$3,0*
0 Add four circle primitives for the rounded corners*
1,1,$1+$1,$2,$3*
1,1,$1+$1,$4,$5*
1,1,$1+$1,$6,$7*
1,1,$1+$1,$8,$9*
0 Add four rect primitives between the rounded corners*
20,1,$1+$1,$2,$3,$4,$5,0*
20,1,$1+$1,$4,$5,$6,$7,0*
20,1,$1+$1,$6,$7,$8,$9,0*
20,1,$1+$1,$8,$9,$2,$3,0*%
G04 Aperture macros list end*
%ADD10C,0.100000*%
%ADD11C,0.150000*%
%ADD12C,0.254000*%
%ADD13C,0.120000*%
%ADD14C,0.250000*%
%ADD15R,1.500000X5.080000*%
%ADD16R,1.350000X1.350000*%
%ADD17C,1.350000*%
%ADD18RoundRect,0.140000X-0.140000X-0.170000X0.140000X-0.170000X0.140000X0.170000X-0.140000X0.170000X0*%
%ADD19RoundRect,0.140000X-0.170000X0.140000X-0.170000X-0.140000X0.170000X-0.140000X0.170000X0.140000X0*%
%ADD20RoundRect,0.140000X0.170000X-0.140000X0.170000X0.140000X-0.170000X0.140000X-0.170000X-0.140000X0*%
%ADD21RoundRect,0.140000X0.140000X0.170000X-0.140000X0.170000X-0.140000X-0.170000X0.140000X-0.170000X0*%
%ADD22R,0.300000X0.850000*%
%ADD23R,0.850000X0.300000*%
%ADD24R,2.550000X2.550000*%
G04 APERTURE END LIST*
D10*
X82177455Y-43662475D02*
X82177455Y-42662475D01*
X82177455Y-42662475D02*
X82473789Y-43376760D01*
X82473789Y-43376760D02*
X82770122Y-42662475D01*
X82770122Y-42662475D02*
X82770122Y-43662475D01*
X83151122Y-43376760D02*
X83574455Y-43376760D01*
X83066455Y-43662475D02*
X83362789Y-42662475D01*
X83362789Y-42662475D02*
X83659122Y-43662475D01*
X83955455Y-43662475D02*
X83955455Y-42662475D01*
X83955455Y-42662475D02*
X84294122Y-42662475D01*
X84294122Y-42662475D02*
X84378789Y-42710094D01*
X84378789Y-42710094D02*
X84421122Y-42757713D01*
X84421122Y-42757713D02*
X84463455Y-42852951D01*
X84463455Y-42852951D02*
X84463455Y-42995808D01*
X84463455Y-42995808D02*
X84421122Y-43091046D01*
X84421122Y-43091046D02*
X84378789Y-43138665D01*
X84378789Y-43138665D02*
X84294122Y-43186284D01*
X84294122Y-43186284D02*
X83955455Y-43186284D01*
X84802122Y-43614856D02*
X84929122Y-43662475D01*
X84929122Y-43662475D02*
X85140789Y-43662475D01*
X85140789Y-43662475D02*
X85225455Y-43614856D01*
X85225455Y-43614856D02*
X85267789Y-43567236D01*
X85267789Y-43567236D02*
X85310122Y-43471998D01*
X85310122Y-43471998D02*
X85310122Y-43376760D01*
X85310122Y-43376760D02*
X85267789Y-43281522D01*
X85267789Y-43281522D02*
X85225455Y-43233903D01*
X85225455Y-43233903D02*
X85140789Y-43186284D01*
X85140789Y-43186284D02*
X84971455Y-43138665D01*
X84971455Y-43138665D02*
X84886789Y-43091046D01*
X84886789Y-43091046D02*
X84844455Y-43043427D01*
X84844455Y-43043427D02*
X84802122Y-42948189D01*
X84802122Y-42948189D02*
X84802122Y-42852951D01*
X84802122Y-42852951D02*
X84844455Y-42757713D01*
X84844455Y-42757713D02*
X84886789Y-42710094D01*
X84886789Y-42710094D02*
X84971455Y-42662475D01*
X84971455Y-42662475D02*
X85183122Y-42662475D01*
X85183122Y-42662475D02*
X85310122Y-42710094D01*
X85691122Y-43281522D02*
X86368456Y-43281522D01*
X86961123Y-42662475D02*
X87045789Y-42662475D01*
X87045789Y-42662475D02*
X87130456Y-42710094D01*
X87130456Y-42710094D02*
X87172789Y-42757713D01*
X87172789Y-42757713D02*
X87215123Y-42852951D01*
X87215123Y-42852951D02*
X87257456Y-43043427D01*
X87257456Y-43043427D02*
X87257456Y-43281522D01*
X87257456Y-43281522D02*
X87215123Y-43471998D01*
X87215123Y-43471998D02*
X87172789Y-43567236D01*
X87172789Y-43567236D02*
X87130456Y-43614856D01*
X87130456Y-43614856D02*
X87045789Y-43662475D01*
X87045789Y-43662475D02*
X86961123Y-43662475D01*
X86961123Y-43662475D02*
X86876456Y-43614856D01*
X86876456Y-43614856D02*
X86834123Y-43567236D01*
X86834123Y-43567236D02*
X86791789Y-43471998D01*
X86791789Y-43471998D02*
X86749456Y-43281522D01*
X86749456Y-43281522D02*
X86749456Y-43043427D01*
X86749456Y-43043427D02*
X86791789Y-42852951D01*
X86791789Y-42852951D02*
X86834123Y-42757713D01*
X86834123Y-42757713D02*
X86876456Y-42710094D01*
X86876456Y-42710094D02*
X86961123Y-42662475D01*
X88104123Y-43662475D02*
X87596123Y-43662475D01*
X87850123Y-43662475D02*
X87850123Y-42662475D01*
X87850123Y-42662475D02*
X87765456Y-42805332D01*
X87765456Y-42805332D02*
X87680790Y-42900570D01*
X87680790Y-42900570D02*
X87596123Y-42948189D01*
X88654457Y-42662475D02*
X88739123Y-42662475D01*
X88739123Y-42662475D02*
X88823790Y-42710094D01*
X88823790Y-42710094D02*
X88866123Y-42757713D01*
X88866123Y-42757713D02*
X88908457Y-42852951D01*
X88908457Y-42852951D02*
X88950790Y-43043427D01*
X88950790Y-43043427D02*
X88950790Y-43281522D01*
X88950790Y-43281522D02*
X88908457Y-43471998D01*
X88908457Y-43471998D02*
X88866123Y-43567236D01*
X88866123Y-43567236D02*
X88823790Y-43614856D01*
X88823790Y-43614856D02*
X88739123Y-43662475D01*
X88739123Y-43662475D02*
X88654457Y-43662475D01*
X88654457Y-43662475D02*
X88569790Y-43614856D01*
X88569790Y-43614856D02*
X88527457Y-43567236D01*
X88527457Y-43567236D02*
X88485123Y-43471998D01*
X88485123Y-43471998D02*
X88442790Y-43281522D01*
X88442790Y-43281522D02*
X88442790Y-43043427D01*
X88442790Y-43043427D02*
X88485123Y-42852951D01*
X88485123Y-42852951D02*
X88527457Y-42757713D01*
X88527457Y-42757713D02*
X88569790Y-42710094D01*
X88569790Y-42710094D02*
X88654457Y-42662475D01*
X89797457Y-43662475D02*
X89289457Y-43662475D01*
X89543457Y-43662475D02*
X89543457Y-42662475D01*
X89543457Y-42662475D02*
X89458790Y-42805332D01*
X89458790Y-42805332D02*
X89374124Y-42900570D01*
X89374124Y-42900570D02*
X89289457Y-42948189D01*
X90559457Y-42662475D02*
X90390124Y-42662475D01*
X90390124Y-42662475D02*
X90305457Y-42710094D01*
X90305457Y-42710094D02*
X90263124Y-42757713D01*
X90263124Y-42757713D02*
X90178457Y-42900570D01*
X90178457Y-42900570D02*
X90136124Y-43091046D01*
X90136124Y-43091046D02*
X90136124Y-43471998D01*
X90136124Y-43471998D02*
X90178457Y-43567236D01*
X90178457Y-43567236D02*
X90220791Y-43614856D01*
X90220791Y-43614856D02*
X90305457Y-43662475D01*
X90305457Y-43662475D02*
X90474791Y-43662475D01*
X90474791Y-43662475D02*
X90559457Y-43614856D01*
X90559457Y-43614856D02*
X90601791Y-43567236D01*
X90601791Y-43567236D02*
X90644124Y-43471998D01*
X90644124Y-43471998D02*
X90644124Y-43233903D01*
X90644124Y-43233903D02*
X90601791Y-43138665D01*
X90601791Y-43138665D02*
X90559457Y-43091046D01*
X90559457Y-43091046D02*
X90474791Y-43043427D01*
X90474791Y-43043427D02*
X90305457Y-43043427D01*
X90305457Y-43043427D02*
X90220791Y-43091046D01*
X90220791Y-43091046D02*
X90178457Y-43138665D01*
X90178457Y-43138665D02*
X90136124Y-43233903D01*
X91406124Y-42995808D02*
X91406124Y-43662475D01*
X91194458Y-42614856D02*
X90982791Y-43329141D01*
X90982791Y-43329141D02*
X91533124Y-43329141D01*
X91871791Y-43281522D02*
X92549125Y-43281522D01*
X92845458Y-42662475D02*
X93353458Y-42662475D01*
X93099458Y-43662475D02*
X93099458Y-42662475D01*
X94157791Y-43662475D02*
X93861458Y-43186284D01*
X93649791Y-43662475D02*
X93649791Y-42662475D01*
X93649791Y-42662475D02*
X93988458Y-42662475D01*
X93988458Y-42662475D02*
X94073125Y-42710094D01*
X94073125Y-42710094D02*
X94115458Y-42757713D01*
X94115458Y-42757713D02*
X94157791Y-42852951D01*
X94157791Y-42852951D02*
X94157791Y-42995808D01*
X94157791Y-42995808D02*
X94115458Y-43091046D01*
X94115458Y-43091046D02*
X94073125Y-43138665D01*
X94073125Y-43138665D02*
X93988458Y-43186284D01*
X93988458Y-43186284D02*
X93649791Y-43186284D01*
X94708125Y-42662475D02*
X94792791Y-42662475D01*
X94792791Y-42662475D02*
X94877458Y-42710094D01*
X94877458Y-42710094D02*
X94919791Y-42757713D01*
X94919791Y-42757713D02*
X94962125Y-42852951D01*
X94962125Y-42852951D02*
X95004458Y-43043427D01*
X95004458Y-43043427D02*
X95004458Y-43281522D01*
X95004458Y-43281522D02*
X94962125Y-43471998D01*
X94962125Y-43471998D02*
X94919791Y-43567236D01*
X94919791Y-43567236D02*
X94877458Y-43614856D01*
X94877458Y-43614856D02*
X94792791Y-43662475D01*
X94792791Y-43662475D02*
X94708125Y-43662475D01*
X94708125Y-43662475D02*
X94623458Y-43614856D01*
X94623458Y-43614856D02*
X94581125Y-43567236D01*
X94581125Y-43567236D02*
X94538791Y-43471998D01*
X94538791Y-43471998D02*
X94496458Y-43281522D01*
X94496458Y-43281522D02*
X94496458Y-43043427D01*
X94496458Y-43043427D02*
X94538791Y-42852951D01*
X94538791Y-42852951D02*
X94581125Y-42757713D01*
X94581125Y-42757713D02*
X94623458Y-42710094D01*
X94623458Y-42710094D02*
X94708125Y-42662475D01*
X95808792Y-42662475D02*
X95385458Y-42662475D01*
X95385458Y-42662475D02*
X95343125Y-43138665D01*
X95343125Y-43138665D02*
X95385458Y-43091046D01*
X95385458Y-43091046D02*
X95470125Y-43043427D01*
X95470125Y-43043427D02*
X95681792Y-43043427D01*
X95681792Y-43043427D02*
X95766458Y-43091046D01*
X95766458Y-43091046D02*
X95808792Y-43138665D01*
X95808792Y-43138665D02*
X95851125Y-43233903D01*
X95851125Y-43233903D02*
X95851125Y-43471998D01*
X95851125Y-43471998D02*
X95808792Y-43567236D01*
X95808792Y-43567236D02*
X95766458Y-43614856D01*
X95766458Y-43614856D02*
X95681792Y-43662475D01*
X95681792Y-43662475D02*
X95470125Y-43662475D01*
X95470125Y-43662475D02*
X95385458Y-43614856D01*
X95385458Y-43614856D02*
X95343125Y-43567236D01*
X96401459Y-42662475D02*
X96486125Y-42662475D01*
X96486125Y-42662475D02*
X96570792Y-42710094D01*
X96570792Y-42710094D02*
X96613125Y-42757713D01*
X96613125Y-42757713D02*
X96655459Y-42852951D01*
X96655459Y-42852951D02*
X96697792Y-43043427D01*
X96697792Y-43043427D02*
X96697792Y-43281522D01*
X96697792Y-43281522D02*
X96655459Y-43471998D01*
X96655459Y-43471998D02*
X96613125Y-43567236D01*
X96613125Y-43567236D02*
X96570792Y-43614856D01*
X96570792Y-43614856D02*
X96486125Y-43662475D01*
X96486125Y-43662475D02*
X96401459Y-43662475D01*
X96401459Y-43662475D02*
X96316792Y-43614856D01*
X96316792Y-43614856D02*
X96274459Y-43567236D01*
X96274459Y-43567236D02*
X96232125Y-43471998D01*
X96232125Y-43471998D02*
X96189792Y-43281522D01*
X96189792Y-43281522D02*
X96189792Y-43043427D01*
X96189792Y-43043427D02*
X96232125Y-42852951D01*
X96232125Y-42852951D02*
X96274459Y-42757713D01*
X96274459Y-42757713D02*
X96316792Y-42710094D01*
X96316792Y-42710094D02*
X96401459Y-42662475D01*
X97248126Y-42662475D02*
X97332792Y-42662475D01*
X97332792Y-42662475D02*
X97417459Y-42710094D01*
X97417459Y-42710094D02*
X97459792Y-42757713D01*
X97459792Y-42757713D02*
X97502126Y-42852951D01*
X97502126Y-42852951D02*
X97544459Y-43043427D01*
X97544459Y-43043427D02*
X97544459Y-43281522D01*
X97544459Y-43281522D02*
X97502126Y-43471998D01*
X97502126Y-43471998D02*
X97459792Y-43567236D01*
X97459792Y-43567236D02*
X97417459Y-43614856D01*
X97417459Y-43614856D02*
X97332792Y-43662475D01*
X97332792Y-43662475D02*
X97248126Y-43662475D01*
X97248126Y-43662475D02*
X97163459Y-43614856D01*
X97163459Y-43614856D02*
X97121126Y-43567236D01*
X97121126Y-43567236D02*
X97078792Y-43471998D01*
X97078792Y-43471998D02*
X97036459Y-43281522D01*
X97036459Y-43281522D02*
X97036459Y-43043427D01*
X97036459Y-43043427D02*
X97078792Y-42852951D01*
X97078792Y-42852951D02*
X97121126Y-42757713D01*
X97121126Y-42757713D02*
X97163459Y-42710094D01*
X97163459Y-42710094D02*
X97248126Y-42662475D01*
X82177455Y-44748609D02*
X82473789Y-44748609D01*
X82600789Y-45272419D02*
X82177455Y-45272419D01*
X82177455Y-45272419D02*
X82177455Y-44272419D01*
X82177455Y-44272419D02*
X82600789Y-44272419D01*
X82854788Y-44272419D02*
X83151122Y-45272419D01*
X83151122Y-45272419D02*
X83447455Y-44272419D01*
X83701455Y-44986704D02*
X84124788Y-44986704D01*
X83616788Y-45272419D02*
X83913122Y-44272419D01*
X83913122Y-44272419D02*
X84209455Y-45272419D01*
X84929122Y-45272419D02*
X84505788Y-45272419D01*
X84505788Y-45272419D02*
X84505788Y-44272419D01*
X86199122Y-44748609D02*
X86326122Y-44796228D01*
X86326122Y-44796228D02*
X86368455Y-44843847D01*
X86368455Y-44843847D02*
X86410788Y-44939085D01*
X86410788Y-44939085D02*
X86410788Y-45081942D01*
X86410788Y-45081942D02*
X86368455Y-45177180D01*
X86368455Y-45177180D02*
X86326122Y-45224800D01*
X86326122Y-45224800D02*
X86241455Y-45272419D01*
X86241455Y-45272419D02*
X85902788Y-45272419D01*
X85902788Y-45272419D02*
X85902788Y-44272419D01*
X85902788Y-44272419D02*
X86199122Y-44272419D01*
X86199122Y-44272419D02*
X86283788Y-44320038D01*
X86283788Y-44320038D02*
X86326122Y-44367657D01*
X86326122Y-44367657D02*
X86368455Y-44462895D01*
X86368455Y-44462895D02*
X86368455Y-44558133D01*
X86368455Y-44558133D02*
X86326122Y-44653371D01*
X86326122Y-44653371D02*
X86283788Y-44700990D01*
X86283788Y-44700990D02*
X86199122Y-44748609D01*
X86199122Y-44748609D02*
X85902788Y-44748609D01*
X86961122Y-44272419D02*
X87130455Y-44272419D01*
X87130455Y-44272419D02*
X87215122Y-44320038D01*
X87215122Y-44320038D02*
X87299788Y-44415276D01*
X87299788Y-44415276D02*
X87342122Y-44605752D01*
X87342122Y-44605752D02*
X87342122Y-44939085D01*
X87342122Y-44939085D02*
X87299788Y-45129561D01*
X87299788Y-45129561D02*
X87215122Y-45224800D01*
X87215122Y-45224800D02*
X87130455Y-45272419D01*
X87130455Y-45272419D02*
X86961122Y-45272419D01*
X86961122Y-45272419D02*
X86876455Y-45224800D01*
X86876455Y-45224800D02*
X86791788Y-45129561D01*
X86791788Y-45129561D02*
X86749455Y-44939085D01*
X86749455Y-44939085D02*
X86749455Y-44605752D01*
X86749455Y-44605752D02*
X86791788Y-44415276D01*
X86791788Y-44415276D02*
X86876455Y-44320038D01*
X86876455Y-44320038D02*
X86961122Y-44272419D01*
X87680788Y-44986704D02*
X88104121Y-44986704D01*
X87596121Y-45272419D02*
X87892455Y-44272419D01*
X87892455Y-44272419D02*
X88188788Y-45272419D01*
X88993121Y-45272419D02*
X88696788Y-44796228D01*
X88485121Y-45272419D02*
X88485121Y-44272419D01*
X88485121Y-44272419D02*
X88823788Y-44272419D01*
X88823788Y-44272419D02*
X88908455Y-44320038D01*
X88908455Y-44320038D02*
X88950788Y-44367657D01*
X88950788Y-44367657D02*
X88993121Y-44462895D01*
X88993121Y-44462895D02*
X88993121Y-44605752D01*
X88993121Y-44605752D02*
X88950788Y-44700990D01*
X88950788Y-44700990D02*
X88908455Y-44748609D01*
X88908455Y-44748609D02*
X88823788Y-44796228D01*
X88823788Y-44796228D02*
X88485121Y-44796228D01*
X89374121Y-45272419D02*
X89374121Y-44272419D01*
X89374121Y-44272419D02*
X89585788Y-44272419D01*
X89585788Y-44272419D02*
X89712788Y-44320038D01*
X89712788Y-44320038D02*
X89797455Y-44415276D01*
X89797455Y-44415276D02*
X89839788Y-44510514D01*
X89839788Y-44510514D02*
X89882121Y-44700990D01*
X89882121Y-44700990D02*
X89882121Y-44843847D01*
X89882121Y-44843847D02*
X89839788Y-45034323D01*
X89839788Y-45034323D02*
X89797455Y-45129561D01*
X89797455Y-45129561D02*
X89712788Y-45224800D01*
X89712788Y-45224800D02*
X89585788Y-45272419D01*
X89585788Y-45272419D02*
X89374121Y-45272419D01*
X82655455Y-46972475D02*
X82359122Y-46496284D01*
X82147455Y-46972475D02*
X82147455Y-45972475D01*
X82147455Y-45972475D02*
X82486122Y-45972475D01*
X82486122Y-45972475D02*
X82570789Y-46020094D01*
X82570789Y-46020094D02*
X82613122Y-46067713D01*
X82613122Y-46067713D02*
X82655455Y-46162951D01*
X82655455Y-46162951D02*
X82655455Y-46305808D01*
X82655455Y-46305808D02*
X82613122Y-46401046D01*
X82613122Y-46401046D02*
X82570789Y-46448665D01*
X82570789Y-46448665D02*
X82486122Y-46496284D01*
X82486122Y-46496284D02*
X82147455Y-46496284D01*
X83036455Y-46972475D02*
X83036455Y-45972475D01*
X83967788Y-46877236D02*
X83925455Y-46924856D01*
X83925455Y-46924856D02*
X83798455Y-46972475D01*
X83798455Y-46972475D02*
X83713788Y-46972475D01*
X83713788Y-46972475D02*
X83586788Y-46924856D01*
X83586788Y-46924856D02*
X83502122Y-46829617D01*
X83502122Y-46829617D02*
X83459788Y-46734379D01*
X83459788Y-46734379D02*
X83417455Y-46543903D01*
X83417455Y-46543903D02*
X83417455Y-46401046D01*
X83417455Y-46401046D02*
X83459788Y-46210570D01*
X83459788Y-46210570D02*
X83502122Y-46115332D01*
X83502122Y-46115332D02*
X83586788Y-46020094D01*
X83586788Y-46020094D02*
X83713788Y-45972475D01*
X83713788Y-45972475D02*
X83798455Y-45972475D01*
X83798455Y-45972475D02*
X83925455Y-46020094D01*
X83925455Y-46020094D02*
X83967788Y-46067713D01*
X84348788Y-46448665D02*
X84645122Y-46448665D01*
X84772122Y-46972475D02*
X84348788Y-46972475D01*
X84348788Y-46972475D02*
X84348788Y-45972475D01*
X84348788Y-45972475D02*
X84772122Y-45972475D01*
X85830454Y-46448665D02*
X86126788Y-46448665D01*
X86253788Y-46972475D02*
X85830454Y-46972475D01*
X85830454Y-46972475D02*
X85830454Y-45972475D01*
X85830454Y-45972475D02*
X86253788Y-45972475D01*
X87142787Y-46877236D02*
X87100454Y-46924856D01*
X87100454Y-46924856D02*
X86973454Y-46972475D01*
X86973454Y-46972475D02*
X86888787Y-46972475D01*
X86888787Y-46972475D02*
X86761787Y-46924856D01*
X86761787Y-46924856D02*
X86677121Y-46829617D01*
X86677121Y-46829617D02*
X86634787Y-46734379D01*
X86634787Y-46734379D02*
X86592454Y-46543903D01*
X86592454Y-46543903D02*
X86592454Y-46401046D01*
X86592454Y-46401046D02*
X86634787Y-46210570D01*
X86634787Y-46210570D02*
X86677121Y-46115332D01*
X86677121Y-46115332D02*
X86761787Y-46020094D01*
X86761787Y-46020094D02*
X86888787Y-45972475D01*
X86888787Y-45972475D02*
X86973454Y-45972475D01*
X86973454Y-45972475D02*
X87100454Y-46020094D01*
X87100454Y-46020094D02*
X87142787Y-46067713D01*
X87523787Y-46448665D02*
X87820121Y-46448665D01*
X87947121Y-46972475D02*
X87523787Y-46972475D01*
X87523787Y-46972475D02*
X87523787Y-45972475D01*
X87523787Y-45972475D02*
X87947121Y-45972475D01*
X89513453Y-46877236D02*
X89471120Y-46924856D01*
X89471120Y-46924856D02*
X89344120Y-46972475D01*
X89344120Y-46972475D02*
X89259453Y-46972475D01*
X89259453Y-46972475D02*
X89132453Y-46924856D01*
X89132453Y-46924856D02*
X89047787Y-46829617D01*
X89047787Y-46829617D02*
X89005453Y-46734379D01*
X89005453Y-46734379D02*
X88963120Y-46543903D01*
X88963120Y-46543903D02*
X88963120Y-46401046D01*
X88963120Y-46401046D02*
X89005453Y-46210570D01*
X89005453Y-46210570D02*
X89047787Y-46115332D01*
X89047787Y-46115332D02*
X89132453Y-46020094D01*
X89132453Y-46020094D02*
X89259453Y-45972475D01*
X89259453Y-45972475D02*
X89344120Y-45972475D01*
X89344120Y-45972475D02*
X89471120Y-46020094D01*
X89471120Y-46020094D02*
X89513453Y-46067713D01*
X89852120Y-46686760D02*
X90275453Y-46686760D01*
X89767453Y-46972475D02*
X90063787Y-45972475D01*
X90063787Y-45972475D02*
X90360120Y-46972475D01*
X90656453Y-46972475D02*
X90656453Y-45972475D01*
X90656453Y-45972475D02*
X90995120Y-45972475D01*
X90995120Y-45972475D02*
X91079787Y-46020094D01*
X91079787Y-46020094D02*
X91122120Y-46067713D01*
X91122120Y-46067713D02*
X91164453Y-46162951D01*
X91164453Y-46162951D02*
X91164453Y-46305808D01*
X91164453Y-46305808D02*
X91122120Y-46401046D01*
X91122120Y-46401046D02*
X91079787Y-46448665D01*
X91079787Y-46448665D02*
X90995120Y-46496284D01*
X90995120Y-46496284D02*
X90656453Y-46496284D01*
X91503120Y-46924856D02*
X91630120Y-46972475D01*
X91630120Y-46972475D02*
X91841787Y-46972475D01*
X91841787Y-46972475D02*
X91926453Y-46924856D01*
X91926453Y-46924856D02*
X91968787Y-46877236D01*
X91968787Y-46877236D02*
X92011120Y-46781998D01*
X92011120Y-46781998D02*
X92011120Y-46686760D01*
X92011120Y-46686760D02*
X91968787Y-46591522D01*
X91968787Y-46591522D02*
X91926453Y-46543903D01*
X91926453Y-46543903D02*
X91841787Y-46496284D01*
X91841787Y-46496284D02*
X91672453Y-46448665D01*
X91672453Y-46448665D02*
X91587787Y-46401046D01*
X91587787Y-46401046D02*
X91545453Y-46353427D01*
X91545453Y-46353427D02*
X91503120Y-46258189D01*
X91503120Y-46258189D02*
X91503120Y-46162951D01*
X91503120Y-46162951D02*
X91545453Y-46067713D01*
X91545453Y-46067713D02*
X91587787Y-46020094D01*
X91587787Y-46020094D02*
X91672453Y-45972475D01*
X91672453Y-45972475D02*
X91884120Y-45972475D01*
X91884120Y-45972475D02*
X92011120Y-46020094D01*
X92265120Y-45972475D02*
X92773120Y-45972475D01*
X92519120Y-46972475D02*
X92519120Y-45972475D01*
X93238787Y-45972475D02*
X93408120Y-45972475D01*
X93408120Y-45972475D02*
X93492787Y-46020094D01*
X93492787Y-46020094D02*
X93577453Y-46115332D01*
X93577453Y-46115332D02*
X93619787Y-46305808D01*
X93619787Y-46305808D02*
X93619787Y-46639141D01*
X93619787Y-46639141D02*
X93577453Y-46829617D01*
X93577453Y-46829617D02*
X93492787Y-46924856D01*
X93492787Y-46924856D02*
X93408120Y-46972475D01*
X93408120Y-46972475D02*
X93238787Y-46972475D01*
X93238787Y-46972475D02*
X93154120Y-46924856D01*
X93154120Y-46924856D02*
X93069453Y-46829617D01*
X93069453Y-46829617D02*
X93027120Y-46639141D01*
X93027120Y-46639141D02*
X93027120Y-46305808D01*
X93027120Y-46305808D02*
X93069453Y-46115332D01*
X93069453Y-46115332D02*
X93154120Y-46020094D01*
X93154120Y-46020094D02*
X93238787Y-45972475D01*
X94000786Y-46972475D02*
X94000786Y-45972475D01*
X94000786Y-45972475D02*
X94508786Y-46972475D01*
X94508786Y-46972475D02*
X94508786Y-45972475D01*
X94932119Y-46448665D02*
X95228453Y-46448665D01*
X95355453Y-46972475D02*
X94932119Y-46972475D01*
X94932119Y-46972475D02*
X94932119Y-45972475D01*
X94932119Y-45972475D02*
X95355453Y-45972475D01*
X82020455Y-47582419D02*
X82528455Y-47582419D01*
X82274455Y-48582419D02*
X82274455Y-47582419D01*
X82824788Y-48058609D02*
X83121122Y-48058609D01*
X83248122Y-48582419D02*
X82824788Y-48582419D01*
X82824788Y-48582419D02*
X82824788Y-47582419D01*
X82824788Y-47582419D02*
X83248122Y-47582419D01*
X83586788Y-48296704D02*
X84010121Y-48296704D01*
X83502121Y-48582419D02*
X83798455Y-47582419D01*
X83798455Y-47582419D02*
X84094788Y-48582419D01*
X84391121Y-48582419D02*
X84391121Y-47582419D01*
X84391121Y-47582419D02*
X84687455Y-48296704D01*
X84687455Y-48296704D02*
X84983788Y-47582419D01*
X84983788Y-47582419D02*
X84983788Y-48582419D01*
X86380788Y-48058609D02*
X86507788Y-48106228D01*
X86507788Y-48106228D02*
X86550121Y-48153847D01*
X86550121Y-48153847D02*
X86592454Y-48249085D01*
X86592454Y-48249085D02*
X86592454Y-48391942D01*
X86592454Y-48391942D02*
X86550121Y-48487180D01*
X86550121Y-48487180D02*
X86507788Y-48534800D01*
X86507788Y-48534800D02*
X86423121Y-48582419D01*
X86423121Y-48582419D02*
X86084454Y-48582419D01*
X86084454Y-48582419D02*
X86084454Y-47582419D01*
X86084454Y-47582419D02*
X86380788Y-47582419D01*
X86380788Y-47582419D02*
X86465454Y-47630038D01*
X86465454Y-47630038D02*
X86507788Y-47677657D01*
X86507788Y-47677657D02*
X86550121Y-47772895D01*
X86550121Y-47772895D02*
X86550121Y-47868133D01*
X86550121Y-47868133D02*
X86507788Y-47963371D01*
X86507788Y-47963371D02*
X86465454Y-48010990D01*
X86465454Y-48010990D02*
X86380788Y-48058609D01*
X86380788Y-48058609D02*
X86084454Y-48058609D01*
X86973454Y-48058609D02*
X87269788Y-48058609D01*
X87396788Y-48582419D02*
X86973454Y-48582419D01*
X86973454Y-48582419D02*
X86973454Y-47582419D01*
X86973454Y-47582419D02*
X87396788Y-47582419D01*
X87735454Y-48296704D02*
X88158787Y-48296704D01*
X87650787Y-48582419D02*
X87947121Y-47582419D01*
X87947121Y-47582419D02*
X88243454Y-48582419D01*
X88539787Y-48582419D02*
X88539787Y-47582419D01*
X88539787Y-47582419D02*
X88836121Y-48296704D01*
X88836121Y-48296704D02*
X89132454Y-47582419D01*
X89132454Y-47582419D02*
X89132454Y-48582419D01*
X89852121Y-48058609D02*
X89555787Y-48058609D01*
X89555787Y-48582419D02*
X89555787Y-47582419D01*
X89555787Y-47582419D02*
X89979121Y-47582419D01*
X90487121Y-47582419D02*
X90656454Y-47582419D01*
X90656454Y-47582419D02*
X90741121Y-47630038D01*
X90741121Y-47630038D02*
X90825787Y-47725276D01*
X90825787Y-47725276D02*
X90868121Y-47915752D01*
X90868121Y-47915752D02*
X90868121Y-48249085D01*
X90868121Y-48249085D02*
X90825787Y-48439561D01*
X90825787Y-48439561D02*
X90741121Y-48534800D01*
X90741121Y-48534800D02*
X90656454Y-48582419D01*
X90656454Y-48582419D02*
X90487121Y-48582419D01*
X90487121Y-48582419D02*
X90402454Y-48534800D01*
X90402454Y-48534800D02*
X90317787Y-48439561D01*
X90317787Y-48439561D02*
X90275454Y-48249085D01*
X90275454Y-48249085D02*
X90275454Y-47915752D01*
X90275454Y-47915752D02*
X90317787Y-47725276D01*
X90317787Y-47725276D02*
X90402454Y-47630038D01*
X90402454Y-47630038D02*
X90487121Y-47582419D01*
X91757120Y-48582419D02*
X91460787Y-48106228D01*
X91249120Y-48582419D02*
X91249120Y-47582419D01*
X91249120Y-47582419D02*
X91587787Y-47582419D01*
X91587787Y-47582419D02*
X91672454Y-47630038D01*
X91672454Y-47630038D02*
X91714787Y-47677657D01*
X91714787Y-47677657D02*
X91757120Y-47772895D01*
X91757120Y-47772895D02*
X91757120Y-47915752D01*
X91757120Y-47915752D02*
X91714787Y-48010990D01*
X91714787Y-48010990D02*
X91672454Y-48058609D01*
X91672454Y-48058609D02*
X91587787Y-48106228D01*
X91587787Y-48106228D02*
X91249120Y-48106228D01*
X92138120Y-48582419D02*
X92138120Y-47582419D01*
X92138120Y-47582419D02*
X92434454Y-48296704D01*
X92434454Y-48296704D02*
X92730787Y-47582419D01*
X92730787Y-47582419D02*
X92730787Y-48582419D01*
D11*
X98776666Y-46087319D02*
X98776666Y-46801604D01*
X98776666Y-46801604D02*
X98729047Y-46944461D01*
X98729047Y-46944461D02*
X98633809Y-47039700D01*
X98633809Y-47039700D02*
X98490952Y-47087319D01*
X98490952Y-47087319D02*
X98395714Y-47087319D01*
X99205238Y-46182557D02*
X99252857Y-46134938D01*
X99252857Y-46134938D02*
X99348095Y-46087319D01*
X99348095Y-46087319D02*
X99586190Y-46087319D01*
X99586190Y-46087319D02*
X99681428Y-46134938D01*
X99681428Y-46134938D02*
X99729047Y-46182557D01*
X99729047Y-46182557D02*
X99776666Y-46277795D01*
X99776666Y-46277795D02*
X99776666Y-46373033D01*
X99776666Y-46373033D02*
X99729047Y-46515890D01*
X99729047Y-46515890D02*
X99157619Y-47087319D01*
X99157619Y-47087319D02*
X99776666Y-47087319D01*
X114878266Y-45927319D02*
X114878266Y-46641604D01*
X114878266Y-46641604D02*
X114830647Y-46784461D01*
X114830647Y-46784461D02*
X114735409Y-46879700D01*
X114735409Y-46879700D02*
X114592552Y-46927319D01*
X114592552Y-46927319D02*
X114497314Y-46927319D01*
X115783028Y-45927319D02*
X115592552Y-45927319D01*
X115592552Y-45927319D02*
X115497314Y-45974938D01*
X115497314Y-45974938D02*
X115449695Y-46022557D01*
X115449695Y-46022557D02*
X115354457Y-46165414D01*
X115354457Y-46165414D02*
X115306838Y-46355890D01*
X115306838Y-46355890D02*
X115306838Y-46736842D01*
X115306838Y-46736842D02*
X115354457Y-46832080D01*
X115354457Y-46832080D02*
X115402076Y-46879700D01*
X115402076Y-46879700D02*
X115497314Y-46927319D01*
X115497314Y-46927319D02*
X115687790Y-46927319D01*
X115687790Y-46927319D02*
X115783028Y-46879700D01*
X115783028Y-46879700D02*
X115830647Y-46832080D01*
X115830647Y-46832080D02*
X115878266Y-46736842D01*
X115878266Y-46736842D02*
X115878266Y-46498747D01*
X115878266Y-46498747D02*
X115830647Y-46403509D01*
X115830647Y-46403509D02*
X115783028Y-46355890D01*
X115783028Y-46355890D02*
X115687790Y-46308271D01*
X115687790Y-46308271D02*
X115497314Y-46308271D01*
X115497314Y-46308271D02*
X115402076Y-46355890D01*
X115402076Y-46355890D02*
X115354457Y-46403509D01*
X115354457Y-46403509D02*
X115306838Y-46498747D01*
X83116666Y-58004819D02*
X83116666Y-58719104D01*
X83116666Y-58719104D02*
X83069047Y-58861961D01*
X83069047Y-58861961D02*
X82973809Y-58957200D01*
X82973809Y-58957200D02*
X82830952Y-59004819D01*
X82830952Y-59004819D02*
X82735714Y-59004819D01*
X84069047Y-58004819D02*
X83592857Y-58004819D01*
X83592857Y-58004819D02*
X83545238Y-58481009D01*
X83545238Y-58481009D02*
X83592857Y-58433390D01*
X83592857Y-58433390D02*
X83688095Y-58385771D01*
X83688095Y-58385771D02*
X83926190Y-58385771D01*
X83926190Y-58385771D02*
X84021428Y-58433390D01*
X84021428Y-58433390D02*
X84069047Y-58481009D01*
X84069047Y-58481009D02*
X84116666Y-58576247D01*
X84116666Y-58576247D02*
X84116666Y-58814342D01*
X84116666Y-58814342D02*
X84069047Y-58909580D01*
X84069047Y-58909580D02*
X84021428Y-58957200D01*
X84021428Y-58957200D02*
X83926190Y-59004819D01*
X83926190Y-59004819D02*
X83688095Y-59004819D01*
X83688095Y-59004819D02*
X83592857Y-58957200D01*
X83592857Y-58957200D02*
X83545238Y-58909580D01*
X93863333Y-50564819D02*
X93530000Y-50088628D01*
X93291905Y-50564819D02*
X93291905Y-49564819D01*
X93291905Y-49564819D02*
X93672857Y-49564819D01*
X93672857Y-49564819D02*
X93768095Y-49612438D01*
X93768095Y-49612438D02*
X93815714Y-49660057D01*
X93815714Y-49660057D02*
X93863333Y-49755295D01*
X93863333Y-49755295D02*
X93863333Y-49898152D01*
X93863333Y-49898152D02*
X93815714Y-49993390D01*
X93815714Y-49993390D02*
X93768095Y-50041009D01*
X93768095Y-50041009D02*
X93672857Y-50088628D01*
X93672857Y-50088628D02*
X93291905Y-50088628D01*
X94720476Y-49898152D02*
X94720476Y-50564819D01*
X94482381Y-49517200D02*
X94244286Y-50231485D01*
X94244286Y-50231485D02*
X94863333Y-50231485D01*
X92453333Y-65369580D02*
X92405714Y-65417200D01*
X92405714Y-65417200D02*
X92262857Y-65464819D01*
X92262857Y-65464819D02*
X92167619Y-65464819D01*
X92167619Y-65464819D02*
X92024762Y-65417200D01*
X92024762Y-65417200D02*
X91929524Y-65321961D01*
X91929524Y-65321961D02*
X91881905Y-65226723D01*
X91881905Y-65226723D02*
X91834286Y-65036247D01*
X91834286Y-65036247D02*
X91834286Y-64893390D01*
X91834286Y-64893390D02*
X91881905Y-64702914D01*
X91881905Y-64702914D02*
X91929524Y-64607676D01*
X91929524Y-64607676D02*
X92024762Y-64512438D01*
X92024762Y-64512438D02*
X92167619Y-64464819D01*
X92167619Y-64464819D02*
X92262857Y-64464819D01*
X92262857Y-64464819D02*
X92405714Y-64512438D01*
X92405714Y-64512438D02*
X92453333Y-64560057D01*
X92834286Y-64560057D02*
X92881905Y-64512438D01*
X92881905Y-64512438D02*
X92977143Y-64464819D01*
X92977143Y-64464819D02*
X93215238Y-64464819D01*
X93215238Y-64464819D02*
X93310476Y-64512438D01*
X93310476Y-64512438D02*
X93358095Y-64560057D01*
X93358095Y-64560057D02*
X93405714Y-64655295D01*
X93405714Y-64655295D02*
X93405714Y-64750533D01*
X93405714Y-64750533D02*
X93358095Y-64893390D01*
X93358095Y-64893390D02*
X92786667Y-65464819D01*
X92786667Y-65464819D02*
X93405714Y-65464819D01*
X83416666Y-73004819D02*
X83416666Y-73719104D01*
X83416666Y-73719104D02*
X83369047Y-73861961D01*
X83369047Y-73861961D02*
X83273809Y-73957200D01*
X83273809Y-73957200D02*
X83130952Y-74004819D01*
X83130952Y-74004819D02*
X83035714Y-74004819D01*
X84035714Y-73433390D02*
X83940476Y-73385771D01*
X83940476Y-73385771D02*
X83892857Y-73338152D01*
X83892857Y-73338152D02*
X83845238Y-73242914D01*
X83845238Y-73242914D02*
X83845238Y-73195295D01*
X83845238Y-73195295D02*
X83892857Y-73100057D01*
X83892857Y-73100057D02*
X83940476Y-73052438D01*
X83940476Y-73052438D02*
X84035714Y-73004819D01*
X84035714Y-73004819D02*
X84226190Y-73004819D01*
X84226190Y-73004819D02*
X84321428Y-73052438D01*
X84321428Y-73052438D02*
X84369047Y-73100057D01*
X84369047Y-73100057D02*
X84416666Y-73195295D01*
X84416666Y-73195295D02*
X84416666Y-73242914D01*
X84416666Y-73242914D02*
X84369047Y-73338152D01*
X84369047Y-73338152D02*
X84321428Y-73385771D01*
X84321428Y-73385771D02*
X84226190Y-73433390D01*
X84226190Y-73433390D02*
X84035714Y-73433390D01*
X84035714Y-73433390D02*
X83940476Y-73481009D01*
X83940476Y-73481009D02*
X83892857Y-73528628D01*
X83892857Y-73528628D02*
X83845238Y-73623866D01*
X83845238Y-73623866D02*
X83845238Y-73814342D01*
X83845238Y-73814342D02*
X83892857Y-73909580D01*
X83892857Y-73909580D02*
X83940476Y-73957200D01*
X83940476Y-73957200D02*
X84035714Y-74004819D01*
X84035714Y-74004819D02*
X84226190Y-74004819D01*
X84226190Y-74004819D02*
X84321428Y-73957200D01*
X84321428Y-73957200D02*
X84369047Y-73909580D01*
X84369047Y-73909580D02*
X84416666Y-73814342D01*
X84416666Y-73814342D02*
X84416666Y-73623866D01*
X84416666Y-73623866D02*
X84369047Y-73528628D01*
X84369047Y-73528628D02*
X84321428Y-73481009D01*
X84321428Y-73481009D02*
X84226190Y-73433390D01*
X94333333Y-63239580D02*
X94285714Y-63287200D01*
X94285714Y-63287200D02*
X94142857Y-63334819D01*
X94142857Y-63334819D02*
X94047619Y-63334819D01*
X94047619Y-63334819D02*
X93904762Y-63287200D01*
X93904762Y-63287200D02*
X93809524Y-63191961D01*
X93809524Y-63191961D02*
X93761905Y-63096723D01*
X93761905Y-63096723D02*
X93714286Y-62906247D01*
X93714286Y-62906247D02*
X93714286Y-62763390D01*
X93714286Y-62763390D02*
X93761905Y-62572914D01*
X93761905Y-62572914D02*
X93809524Y-62477676D01*
X93809524Y-62477676D02*
X93904762Y-62382438D01*
X93904762Y-62382438D02*
X94047619Y-62334819D01*
X94047619Y-62334819D02*
X94142857Y-62334819D01*
X94142857Y-62334819D02*
X94285714Y-62382438D01*
X94285714Y-62382438D02*
X94333333Y-62430057D01*
X95238095Y-62334819D02*
X94761905Y-62334819D01*
X94761905Y-62334819D02*
X94714286Y-62811009D01*
X94714286Y-62811009D02*
X94761905Y-62763390D01*
X94761905Y-62763390D02*
X94857143Y-62715771D01*
X94857143Y-62715771D02*
X95095238Y-62715771D01*
X95095238Y-62715771D02*
X95190476Y-62763390D01*
X95190476Y-62763390D02*
X95238095Y-62811009D01*
X95238095Y-62811009D02*
X95285714Y-62906247D01*
X95285714Y-62906247D02*
X95285714Y-63144342D01*
X95285714Y-63144342D02*
X95238095Y-63239580D01*
X95238095Y-63239580D02*
X95190476Y-63287200D01*
X95190476Y-63287200D02*
X95095238Y-63334819D01*
X95095238Y-63334819D02*
X94857143Y-63334819D01*
X94857143Y-63334819D02*
X94761905Y-63287200D01*
X94761905Y-63287200D02*
X94714286Y-63239580D01*
X102569580Y-61606866D02*
X102617200Y-61654485D01*
X102617200Y-61654485D02*
X102664819Y-61797342D01*
X102664819Y-61797342D02*
X102664819Y-61892580D01*
X102664819Y-61892580D02*
X102617200Y-62035437D01*
X102617200Y-62035437D02*
X102521961Y-62130675D01*
X102521961Y-62130675D02*
X102426723Y-62178294D01*
X102426723Y-62178294D02*
X102236247Y-62225913D01*
X102236247Y-62225913D02*
X102093390Y-62225913D01*
X102093390Y-62225913D02*
X101902914Y-62178294D01*
X101902914Y-62178294D02*
X101807676Y-62130675D01*
X101807676Y-62130675D02*
X101712438Y-62035437D01*
X101712438Y-62035437D02*
X101664819Y-61892580D01*
X101664819Y-61892580D02*
X101664819Y-61797342D01*
X101664819Y-61797342D02*
X101712438Y-61654485D01*
X101712438Y-61654485D02*
X101760057Y-61606866D01*
X102664819Y-60654485D02*
X102664819Y-61225913D01*
X102664819Y-60940199D02*
X101664819Y-60940199D01*
X101664819Y-60940199D02*
X101807676Y-61035437D01*
X101807676Y-61035437D02*
X101902914Y-61130675D01*
X101902914Y-61130675D02*
X101950533Y-61225913D01*
X98776666Y-75604819D02*
X98776666Y-76319104D01*
X98776666Y-76319104D02*
X98729047Y-76461961D01*
X98729047Y-76461961D02*
X98633809Y-76557200D01*
X98633809Y-76557200D02*
X98490952Y-76604819D01*
X98490952Y-76604819D02*
X98395714Y-76604819D01*
X99776666Y-76604819D02*
X99205238Y-76604819D01*
X99490952Y-76604819D02*
X99490952Y-75604819D01*
X99490952Y-75604819D02*
X99395714Y-75747676D01*
X99395714Y-75747676D02*
X99300476Y-75842914D01*
X99300476Y-75842914D02*
X99205238Y-75890533D01*
X92613333Y-57389580D02*
X92565714Y-57437200D01*
X92565714Y-57437200D02*
X92422857Y-57484819D01*
X92422857Y-57484819D02*
X92327619Y-57484819D01*
X92327619Y-57484819D02*
X92184762Y-57437200D01*
X92184762Y-57437200D02*
X92089524Y-57341961D01*
X92089524Y-57341961D02*
X92041905Y-57246723D01*
X92041905Y-57246723D02*
X91994286Y-57056247D01*
X91994286Y-57056247D02*
X91994286Y-56913390D01*
X91994286Y-56913390D02*
X92041905Y-56722914D01*
X92041905Y-56722914D02*
X92089524Y-56627676D01*
X92089524Y-56627676D02*
X92184762Y-56532438D01*
X92184762Y-56532438D02*
X92327619Y-56484819D01*
X92327619Y-56484819D02*
X92422857Y-56484819D01*
X92422857Y-56484819D02*
X92565714Y-56532438D01*
X92565714Y-56532438D02*
X92613333Y-56580057D01*
X92946667Y-56484819D02*
X93613333Y-56484819D01*
X93613333Y-56484819D02*
X93184762Y-57484819D01*
X96989580Y-52362857D02*
X97037200Y-52410476D01*
X97037200Y-52410476D02*
X97084819Y-52553333D01*
X97084819Y-52553333D02*
X97084819Y-52648571D01*
X97084819Y-52648571D02*
X97037200Y-52791428D01*
X97037200Y-52791428D02*
X96941961Y-52886666D01*
X96941961Y-52886666D02*
X96846723Y-52934285D01*
X96846723Y-52934285D02*
X96656247Y-52981904D01*
X96656247Y-52981904D02*
X96513390Y-52981904D01*
X96513390Y-52981904D02*
X96322914Y-52934285D01*
X96322914Y-52934285D02*
X96227676Y-52886666D01*
X96227676Y-52886666D02*
X96132438Y-52791428D01*
X96132438Y-52791428D02*
X96084819Y-52648571D01*
X96084819Y-52648571D02*
X96084819Y-52553333D01*
X96084819Y-52553333D02*
X96132438Y-52410476D01*
X96132438Y-52410476D02*
X96180057Y-52362857D01*
X97084819Y-51410476D02*
X97084819Y-51981904D01*
X97084819Y-51696190D02*
X96084819Y-51696190D01*
X96084819Y-51696190D02*
X96227676Y-51791428D01*
X96227676Y-51791428D02*
X96322914Y-51886666D01*
X96322914Y-51886666D02*
X96370533Y-51981904D01*
X96084819Y-50791428D02*
X96084819Y-50696190D01*
X96084819Y-50696190D02*
X96132438Y-50600952D01*
X96132438Y-50600952D02*
X96180057Y-50553333D01*
X96180057Y-50553333D02*
X96275295Y-50505714D01*
X96275295Y-50505714D02*
X96465771Y-50458095D01*
X96465771Y-50458095D02*
X96703866Y-50458095D01*
X96703866Y-50458095D02*
X96894342Y-50505714D01*
X96894342Y-50505714D02*
X96989580Y-50553333D01*
X96989580Y-50553333D02*
X97037200Y-50600952D01*
X97037200Y-50600952D02*
X97084819Y-50696190D01*
X97084819Y-50696190D02*
X97084819Y-50791428D01*
X97084819Y-50791428D02*
X97037200Y-50886666D01*
X97037200Y-50886666D02*
X96989580Y-50934285D01*
X96989580Y-50934285D02*
X96894342Y-50981904D01*
X96894342Y-50981904D02*
X96703866Y-51029523D01*
X96703866Y-51029523D02*
X96465771Y-51029523D01*
X96465771Y-51029523D02*
X96275295Y-50981904D01*
X96275295Y-50981904D02*
X96180057Y-50934285D01*
X96180057Y-50934285D02*
X96132438Y-50886666D01*
X96132438Y-50886666D02*
X96084819Y-50791428D01*
X114499866Y-75364819D02*
X114499866Y-76079104D01*
X114499866Y-76079104D02*
X114452247Y-76221961D01*
X114452247Y-76221961D02*
X114357009Y-76317200D01*
X114357009Y-76317200D02*
X114214152Y-76364819D01*
X114214152Y-76364819D02*
X114118914Y-76364819D01*
X114880819Y-75364819D02*
X115547485Y-75364819D01*
X115547485Y-75364819D02*
X115118914Y-76364819D01*
X90493333Y-57424819D02*
X90160000Y-56948628D01*
X89921905Y-57424819D02*
X89921905Y-56424819D01*
X89921905Y-56424819D02*
X90302857Y-56424819D01*
X90302857Y-56424819D02*
X90398095Y-56472438D01*
X90398095Y-56472438D02*
X90445714Y-56520057D01*
X90445714Y-56520057D02*
X90493333Y-56615295D01*
X90493333Y-56615295D02*
X90493333Y-56758152D01*
X90493333Y-56758152D02*
X90445714Y-56853390D01*
X90445714Y-56853390D02*
X90398095Y-56901009D01*
X90398095Y-56901009D02*
X90302857Y-56948628D01*
X90302857Y-56948628D02*
X89921905Y-56948628D01*
X90826667Y-56424819D02*
X91445714Y-56424819D01*
X91445714Y-56424819D02*
X91112381Y-56805771D01*
X91112381Y-56805771D02*
X91255238Y-56805771D01*
X91255238Y-56805771D02*
X91350476Y-56853390D01*
X91350476Y-56853390D02*
X91398095Y-56901009D01*
X91398095Y-56901009D02*
X91445714Y-56996247D01*
X91445714Y-56996247D02*
X91445714Y-57234342D01*
X91445714Y-57234342D02*
X91398095Y-57329580D01*
X91398095Y-57329580D02*
X91350476Y-57377200D01*
X91350476Y-57377200D02*
X91255238Y-57424819D01*
X91255238Y-57424819D02*
X90969524Y-57424819D01*
X90969524Y-57424819D02*
X90874286Y-57377200D01*
X90874286Y-57377200D02*
X90826667Y-57329580D01*
X90663333Y-63314819D02*
X90330000Y-62838628D01*
X90091905Y-63314819D02*
X90091905Y-62314819D01*
X90091905Y-62314819D02*
X90472857Y-62314819D01*
X90472857Y-62314819D02*
X90568095Y-62362438D01*
X90568095Y-62362438D02*
X90615714Y-62410057D01*
X90615714Y-62410057D02*
X90663333Y-62505295D01*
X90663333Y-62505295D02*
X90663333Y-62648152D01*
X90663333Y-62648152D02*
X90615714Y-62743390D01*
X90615714Y-62743390D02*
X90568095Y-62791009D01*
X90568095Y-62791009D02*
X90472857Y-62838628D01*
X90472857Y-62838628D02*
X90091905Y-62838628D01*
X91615714Y-63314819D02*
X91044286Y-63314819D01*
X91330000Y-63314819D02*
X91330000Y-62314819D01*
X91330000Y-62314819D02*
X91234762Y-62457676D01*
X91234762Y-62457676D02*
X91139524Y-62552914D01*
X91139524Y-62552914D02*
X91044286Y-62600533D01*
X97283333Y-60389580D02*
X97235714Y-60437200D01*
X97235714Y-60437200D02*
X97092857Y-60484819D01*
X97092857Y-60484819D02*
X96997619Y-60484819D01*
X96997619Y-60484819D02*
X96854762Y-60437200D01*
X96854762Y-60437200D02*
X96759524Y-60341961D01*
X96759524Y-60341961D02*
X96711905Y-60246723D01*
X96711905Y-60246723D02*
X96664286Y-60056247D01*
X96664286Y-60056247D02*
X96664286Y-59913390D01*
X96664286Y-59913390D02*
X96711905Y-59722914D01*
X96711905Y-59722914D02*
X96759524Y-59627676D01*
X96759524Y-59627676D02*
X96854762Y-59532438D01*
X96854762Y-59532438D02*
X96997619Y-59484819D01*
X96997619Y-59484819D02*
X97092857Y-59484819D01*
X97092857Y-59484819D02*
X97235714Y-59532438D01*
X97235714Y-59532438D02*
X97283333Y-59580057D01*
X98140476Y-59484819D02*
X97950000Y-59484819D01*
X97950000Y-59484819D02*
X97854762Y-59532438D01*
X97854762Y-59532438D02*
X97807143Y-59580057D01*
X97807143Y-59580057D02*
X97711905Y-59722914D01*
X97711905Y-59722914D02*
X97664286Y-59913390D01*
X97664286Y-59913390D02*
X97664286Y-60294342D01*
X97664286Y-60294342D02*
X97711905Y-60389580D01*
X97711905Y-60389580D02*
X97759524Y-60437200D01*
X97759524Y-60437200D02*
X97854762Y-60484819D01*
X97854762Y-60484819D02*
X98045238Y-60484819D01*
X98045238Y-60484819D02*
X98140476Y-60437200D01*
X98140476Y-60437200D02*
X98188095Y-60389580D01*
X98188095Y-60389580D02*
X98235714Y-60294342D01*
X98235714Y-60294342D02*
X98235714Y-60056247D01*
X98235714Y-60056247D02*
X98188095Y-59961009D01*
X98188095Y-59961009D02*
X98140476Y-59913390D01*
X98140476Y-59913390D02*
X98045238Y-59865771D01*
X98045238Y-59865771D02*
X97854762Y-59865771D01*
X97854762Y-59865771D02*
X97759524Y-59913390D01*
X97759524Y-59913390D02*
X97711905Y-59961009D01*
X97711905Y-59961009D02*
X97664286Y-60056247D01*
X101139580Y-61666866D02*
X101187200Y-61714485D01*
X101187200Y-61714485D02*
X101234819Y-61857342D01*
X101234819Y-61857342D02*
X101234819Y-61952580D01*
X101234819Y-61952580D02*
X101187200Y-62095437D01*
X101187200Y-62095437D02*
X101091961Y-62190675D01*
X101091961Y-62190675D02*
X100996723Y-62238294D01*
X100996723Y-62238294D02*
X100806247Y-62285913D01*
X100806247Y-62285913D02*
X100663390Y-62285913D01*
X100663390Y-62285913D02*
X100472914Y-62238294D01*
X100472914Y-62238294D02*
X100377676Y-62190675D01*
X100377676Y-62190675D02*
X100282438Y-62095437D01*
X100282438Y-62095437D02*
X100234819Y-61952580D01*
X100234819Y-61952580D02*
X100234819Y-61857342D01*
X100234819Y-61857342D02*
X100282438Y-61714485D01*
X100282438Y-61714485D02*
X100330057Y-61666866D01*
X100234819Y-61333532D02*
X100234819Y-60714485D01*
X100234819Y-60714485D02*
X100615771Y-61047818D01*
X100615771Y-61047818D02*
X100615771Y-60904961D01*
X100615771Y-60904961D02*
X100663390Y-60809723D01*
X100663390Y-60809723D02*
X100711009Y-60762104D01*
X100711009Y-60762104D02*
X100806247Y-60714485D01*
X100806247Y-60714485D02*
X101044342Y-60714485D01*
X101044342Y-60714485D02*
X101139580Y-60762104D01*
X101139580Y-60762104D02*
X101187200Y-60809723D01*
X101187200Y-60809723D02*
X101234819Y-60904961D01*
X101234819Y-60904961D02*
X101234819Y-61190675D01*
X101234819Y-61190675D02*
X101187200Y-61285913D01*
X101187200Y-61285913D02*
X101139580Y-61333532D01*
X96983333Y-64119580D02*
X96935714Y-64167200D01*
X96935714Y-64167200D02*
X96792857Y-64214819D01*
X96792857Y-64214819D02*
X96697619Y-64214819D01*
X96697619Y-64214819D02*
X96554762Y-64167200D01*
X96554762Y-64167200D02*
X96459524Y-64071961D01*
X96459524Y-64071961D02*
X96411905Y-63976723D01*
X96411905Y-63976723D02*
X96364286Y-63786247D01*
X96364286Y-63786247D02*
X96364286Y-63643390D01*
X96364286Y-63643390D02*
X96411905Y-63452914D01*
X96411905Y-63452914D02*
X96459524Y-63357676D01*
X96459524Y-63357676D02*
X96554762Y-63262438D01*
X96554762Y-63262438D02*
X96697619Y-63214819D01*
X96697619Y-63214819D02*
X96792857Y-63214819D01*
X96792857Y-63214819D02*
X96935714Y-63262438D01*
X96935714Y-63262438D02*
X96983333Y-63310057D01*
X97554762Y-63643390D02*
X97459524Y-63595771D01*
X97459524Y-63595771D02*
X97411905Y-63548152D01*
X97411905Y-63548152D02*
X97364286Y-63452914D01*
X97364286Y-63452914D02*
X97364286Y-63405295D01*
X97364286Y-63405295D02*
X97411905Y-63310057D01*
X97411905Y-63310057D02*
X97459524Y-63262438D01*
X97459524Y-63262438D02*
X97554762Y-63214819D01*
X97554762Y-63214819D02*
X97745238Y-63214819D01*
X97745238Y-63214819D02*
X97840476Y-63262438D01*
X97840476Y-63262438D02*
X97888095Y-63310057D01*
X97888095Y-63310057D02*
X97935714Y-63405295D01*
X97935714Y-63405295D02*
X97935714Y-63452914D01*
X97935714Y-63452914D02*
X97888095Y-63548152D01*
X97888095Y-63548152D02*
X97840476Y-63595771D01*
X97840476Y-63595771D02*
X97745238Y-63643390D01*
X97745238Y-63643390D02*
X97554762Y-63643390D01*
X97554762Y-63643390D02*
X97459524Y-63691009D01*
X97459524Y-63691009D02*
X97411905Y-63738628D01*
X97411905Y-63738628D02*
X97364286Y-63833866D01*
X97364286Y-63833866D02*
X97364286Y-64024342D01*
X97364286Y-64024342D02*
X97411905Y-64119580D01*
X97411905Y-64119580D02*
X97459524Y-64167200D01*
X97459524Y-64167200D02*
X97554762Y-64214819D01*
X97554762Y-64214819D02*
X97745238Y-64214819D01*
X97745238Y-64214819D02*
X97840476Y-64167200D01*
X97840476Y-64167200D02*
X97888095Y-64119580D01*
X97888095Y-64119580D02*
X97935714Y-64024342D01*
X97935714Y-64024342D02*
X97935714Y-63833866D01*
X97935714Y-63833866D02*
X97888095Y-63738628D01*
X97888095Y-63738628D02*
X97840476Y-63691009D01*
X97840476Y-63691009D02*
X97745238Y-63643390D01*
X83326666Y-67974819D02*
X83326666Y-68689104D01*
X83326666Y-68689104D02*
X83279047Y-68831961D01*
X83279047Y-68831961D02*
X83183809Y-68927200D01*
X83183809Y-68927200D02*
X83040952Y-68974819D01*
X83040952Y-68974819D02*
X82945714Y-68974819D01*
X84231428Y-68308152D02*
X84231428Y-68974819D01*
X83993333Y-67927200D02*
X83755238Y-68641485D01*
X83755238Y-68641485D02*
X84374285Y-68641485D01*
X83106666Y-51924819D02*
X83106666Y-52639104D01*
X83106666Y-52639104D02*
X83059047Y-52781961D01*
X83059047Y-52781961D02*
X82963809Y-52877200D01*
X82963809Y-52877200D02*
X82820952Y-52924819D01*
X82820952Y-52924819D02*
X82725714Y-52924819D01*
X83487619Y-51924819D02*
X84106666Y-51924819D01*
X84106666Y-51924819D02*
X83773333Y-52305771D01*
X83773333Y-52305771D02*
X83916190Y-52305771D01*
X83916190Y-52305771D02*
X84011428Y-52353390D01*
X84011428Y-52353390D02*
X84059047Y-52401009D01*
X84059047Y-52401009D02*
X84106666Y-52496247D01*
X84106666Y-52496247D02*
X84106666Y-52734342D01*
X84106666Y-52734342D02*
X84059047Y-52829580D01*
X84059047Y-52829580D02*
X84011428Y-52877200D01*
X84011428Y-52877200D02*
X83916190Y-52924819D01*
X83916190Y-52924819D02*
X83630476Y-52924819D01*
X83630476Y-52924819D02*
X83535238Y-52877200D01*
X83535238Y-52877200D02*
X83487619Y-52829580D01*
D12*
X109744318Y-62029762D02*
X108474318Y-62029762D01*
X109623365Y-60699285D02*
X109683842Y-60759761D01*
X109683842Y-60759761D02*
X109744318Y-60941190D01*
X109744318Y-60941190D02*
X109744318Y-61062142D01*
X109744318Y-61062142D02*
X109683842Y-61243571D01*
X109683842Y-61243571D02*
X109562889Y-61364523D01*
X109562889Y-61364523D02*
X109441937Y-61425000D01*
X109441937Y-61425000D02*
X109200032Y-61485476D01*
X109200032Y-61485476D02*
X109018603Y-61485476D01*
X109018603Y-61485476D02*
X108776699Y-61425000D01*
X108776699Y-61425000D02*
X108655746Y-61364523D01*
X108655746Y-61364523D02*
X108534794Y-61243571D01*
X108534794Y-61243571D02*
X108474318Y-61062142D01*
X108474318Y-61062142D02*
X108474318Y-60941190D01*
X108474318Y-60941190D02*
X108534794Y-60759761D01*
X108534794Y-60759761D02*
X108595270Y-60699285D01*
X109744318Y-59489761D02*
X109744318Y-60215476D01*
X109744318Y-59852619D02*
X108474318Y-59852619D01*
X108474318Y-59852619D02*
X108655746Y-59973571D01*
X108655746Y-59973571D02*
X108776699Y-60094523D01*
X108776699Y-60094523D02*
X108837175Y-60215476D01*
D11*
X99453333Y-66179580D02*
X99405714Y-66227200D01*
X99405714Y-66227200D02*
X99262857Y-66274819D01*
X99262857Y-66274819D02*
X99167619Y-66274819D01*
X99167619Y-66274819D02*
X99024762Y-66227200D01*
X99024762Y-66227200D02*
X98929524Y-66131961D01*
X98929524Y-66131961D02*
X98881905Y-66036723D01*
X98881905Y-66036723D02*
X98834286Y-65846247D01*
X98834286Y-65846247D02*
X98834286Y-65703390D01*
X98834286Y-65703390D02*
X98881905Y-65512914D01*
X98881905Y-65512914D02*
X98929524Y-65417676D01*
X98929524Y-65417676D02*
X99024762Y-65322438D01*
X99024762Y-65322438D02*
X99167619Y-65274819D01*
X99167619Y-65274819D02*
X99262857Y-65274819D01*
X99262857Y-65274819D02*
X99405714Y-65322438D01*
X99405714Y-65322438D02*
X99453333Y-65370057D01*
X99929524Y-66274819D02*
X100120000Y-66274819D01*
X100120000Y-66274819D02*
X100215238Y-66227200D01*
X100215238Y-66227200D02*
X100262857Y-66179580D01*
X100262857Y-66179580D02*
X100358095Y-66036723D01*
X100358095Y-66036723D02*
X100405714Y-65846247D01*
X100405714Y-65846247D02*
X100405714Y-65465295D01*
X100405714Y-65465295D02*
X100358095Y-65370057D01*
X100358095Y-65370057D02*
X100310476Y-65322438D01*
X100310476Y-65322438D02*
X100215238Y-65274819D01*
X100215238Y-65274819D02*
X100024762Y-65274819D01*
X100024762Y-65274819D02*
X99929524Y-65322438D01*
X99929524Y-65322438D02*
X99881905Y-65370057D01*
X99881905Y-65370057D02*
X99834286Y-65465295D01*
X99834286Y-65465295D02*
X99834286Y-65703390D01*
X99834286Y-65703390D02*
X99881905Y-65798628D01*
X99881905Y-65798628D02*
X99929524Y-65846247D01*
X99929524Y-65846247D02*
X100024762Y-65893866D01*
X100024762Y-65893866D02*
X100215238Y-65893866D01*
X100215238Y-65893866D02*
X100310476Y-65846247D01*
X100310476Y-65846247D02*
X100358095Y-65798628D01*
X100358095Y-65798628D02*
X100405714Y-65703390D01*
X92443333Y-66669580D02*
X92395714Y-66717200D01*
X92395714Y-66717200D02*
X92252857Y-66764819D01*
X92252857Y-66764819D02*
X92157619Y-66764819D01*
X92157619Y-66764819D02*
X92014762Y-66717200D01*
X92014762Y-66717200D02*
X91919524Y-66621961D01*
X91919524Y-66621961D02*
X91871905Y-66526723D01*
X91871905Y-66526723D02*
X91824286Y-66336247D01*
X91824286Y-66336247D02*
X91824286Y-66193390D01*
X91824286Y-66193390D02*
X91871905Y-66002914D01*
X91871905Y-66002914D02*
X91919524Y-65907676D01*
X91919524Y-65907676D02*
X92014762Y-65812438D01*
X92014762Y-65812438D02*
X92157619Y-65764819D01*
X92157619Y-65764819D02*
X92252857Y-65764819D01*
X92252857Y-65764819D02*
X92395714Y-65812438D01*
X92395714Y-65812438D02*
X92443333Y-65860057D01*
X93300476Y-66098152D02*
X93300476Y-66764819D01*
X93062381Y-65717200D02*
X92824286Y-66431485D01*
X92824286Y-66431485D02*
X93443333Y-66431485D01*
X90423333Y-60664819D02*
X90090000Y-60188628D01*
X89851905Y-60664819D02*
X89851905Y-59664819D01*
X89851905Y-59664819D02*
X90232857Y-59664819D01*
X90232857Y-59664819D02*
X90328095Y-59712438D01*
X90328095Y-59712438D02*
X90375714Y-59760057D01*
X90375714Y-59760057D02*
X90423333Y-59855295D01*
X90423333Y-59855295D02*
X90423333Y-59998152D01*
X90423333Y-59998152D02*
X90375714Y-60093390D01*
X90375714Y-60093390D02*
X90328095Y-60141009D01*
X90328095Y-60141009D02*
X90232857Y-60188628D01*
X90232857Y-60188628D02*
X89851905Y-60188628D01*
X90804286Y-59760057D02*
X90851905Y-59712438D01*
X90851905Y-59712438D02*
X90947143Y-59664819D01*
X90947143Y-59664819D02*
X91185238Y-59664819D01*
X91185238Y-59664819D02*
X91280476Y-59712438D01*
X91280476Y-59712438D02*
X91328095Y-59760057D01*
X91328095Y-59760057D02*
X91375714Y-59855295D01*
X91375714Y-59855295D02*
X91375714Y-59950533D01*
X91375714Y-59950533D02*
X91328095Y-60093390D01*
X91328095Y-60093390D02*
X90756667Y-60664819D01*
X90756667Y-60664819D02*
X91375714Y-60664819D01*
D13*
%TO.C,J2*%
X105740000Y-48532500D02*
X106240000Y-48532500D01*
X105990000Y-48032500D02*
X105740000Y-48532500D01*
X106240000Y-48532500D02*
X105990000Y-48032500D01*
%TO.C,J6*%
X121580000Y-48512500D02*
X122080000Y-48512500D01*
X121830000Y-48012500D02*
X121580000Y-48512500D01*
X122080000Y-48512500D02*
X121830000Y-48012500D01*
%TO.C,J5*%
X84900000Y-63470000D02*
X84900000Y-55250000D01*
X87010000Y-61360000D02*
X87010000Y-63470000D01*
X87010000Y-63470000D02*
X84900000Y-63470000D01*
X89120000Y-55250000D02*
X84900000Y-55250000D01*
X89120000Y-61360000D02*
X87010000Y-61360000D01*
X89120000Y-61360000D02*
X89120000Y-55250000D01*
X89120000Y-62360000D02*
X89120000Y-63470000D01*
X89120000Y-63470000D02*
X88010000Y-63470000D01*
%TO.C,R4*%
X93922164Y-50910000D02*
X94137836Y-50910000D01*
X93922164Y-51630000D02*
X94137836Y-51630000D01*
%TO.C,C2*%
X94481364Y-63970000D02*
X94697036Y-63970000D01*
X94481364Y-64690000D02*
X94697036Y-64690000D01*
%TO.C,J8*%
X84970000Y-71440000D02*
X86080000Y-71440000D01*
X84970000Y-72550000D02*
X84970000Y-71440000D01*
X84970000Y-73550000D02*
X84970000Y-75660000D01*
X84970000Y-73550000D02*
X87080000Y-73550000D01*
X84970000Y-75660000D02*
X89190000Y-75660000D01*
X87080000Y-71440000D02*
X89190000Y-71440000D01*
X87080000Y-73550000D02*
X87080000Y-71440000D01*
X89190000Y-71440000D02*
X89190000Y-75660000D01*
%TO.C,C5*%
X92650000Y-63242164D02*
X92650000Y-63457836D01*
X93370000Y-63242164D02*
X93370000Y-63457836D01*
%TO.C,C1*%
X101650000Y-59557836D02*
X101650000Y-59342164D01*
X102370000Y-59557836D02*
X102370000Y-59342164D01*
%TO.C,J1*%
X105740000Y-73770000D02*
X105990000Y-74270000D01*
X105990000Y-74270000D02*
X106240000Y-73770000D01*
X106240000Y-73770000D02*
X105740000Y-73770000D01*
%TO.C,C7*%
X91980000Y-58482164D02*
X91980000Y-58697836D01*
X92700000Y-58482164D02*
X92700000Y-58697836D01*
%TO.C,C10*%
X95110000Y-51612164D02*
X95110000Y-51827836D01*
X95830000Y-51612164D02*
X95830000Y-51827836D01*
%TO.C,J7*%
X121540000Y-73680000D02*
X121790000Y-74180000D01*
X121790000Y-74180000D02*
X122040000Y-73680000D01*
X122040000Y-73680000D02*
X121540000Y-73680000D01*
%TO.C,R3*%
X90842164Y-57770000D02*
X91057836Y-57770000D01*
X90842164Y-58490000D02*
X91057836Y-58490000D01*
%TO.C,R1*%
X92627836Y-61570000D02*
X92412164Y-61570000D01*
X92627836Y-62290000D02*
X92412164Y-62290000D01*
%TO.C,C6*%
X93680000Y-60607836D02*
X93680000Y-60392164D01*
X94400000Y-60607836D02*
X94400000Y-60392164D01*
%TO.C,C3*%
X100400000Y-59558036D02*
X100400000Y-59342364D01*
X101120000Y-59558036D02*
X101120000Y-59342364D01*
%TO.C,C8*%
X98670000Y-64087836D02*
X98670000Y-63872164D01*
X99390000Y-64087836D02*
X99390000Y-63872164D01*
%TO.C,J4*%
X84985800Y-66320200D02*
X86095800Y-66320200D01*
X84985800Y-67430200D02*
X84985800Y-66320200D01*
X84985800Y-68430200D02*
X84985800Y-70540200D01*
X84985800Y-68430200D02*
X87095800Y-68430200D01*
X84985800Y-70540200D02*
X89205800Y-70540200D01*
X87095800Y-66320200D02*
X89205800Y-66320200D01*
X87095800Y-68430200D02*
X87095800Y-66320200D01*
X89205800Y-66320200D02*
X89205800Y-70540200D01*
%TO.C,J3*%
X84890000Y-54360000D02*
X84890000Y-50140000D01*
X87000000Y-52250000D02*
X87000000Y-54360000D01*
X87000000Y-54360000D02*
X84890000Y-54360000D01*
X89110000Y-50140000D02*
X84890000Y-50140000D01*
X89110000Y-52250000D02*
X87000000Y-52250000D01*
X89110000Y-52250000D02*
X89110000Y-50140000D01*
X89110000Y-53250000D02*
X89110000Y-54360000D01*
X89110000Y-54360000D02*
X88000000Y-54360000D01*
D14*
%TO.C,IC1*%
X103375000Y-63208000D02*
G75*
G02*
X103125000Y-63208000I-125000J0D01*
G01*
X103125000Y-63208000D02*
G75*
G02*
X103375000Y-63208000I125000J0D01*
G01*
D13*
%TO.C,C9*%
X99820000Y-64057836D02*
X99820000Y-63842164D01*
X100540000Y-64057836D02*
X100540000Y-63842164D01*
%TO.C,C4*%
X94532164Y-65260000D02*
X94747836Y-65260000D01*
X94532164Y-65980000D02*
X94747836Y-65980000D01*
%TO.C,R2*%
X92512164Y-60580000D02*
X92727836Y-60580000D01*
X92512164Y-61300000D02*
X92727836Y-61300000D01*
%TD*%
%LPC*%
D15*
%TO.C,J2*%
X105990000Y-44822500D03*
X101740000Y-44822500D03*
X110240000Y-44822500D03*
%TD*%
%TO.C,J6*%
X121830000Y-44802500D03*
X117580000Y-44802500D03*
X126080000Y-44802500D03*
%TD*%
D16*
%TO.C,J5*%
X88010000Y-62360000D03*
D17*
X86010000Y-62360000D03*
X88010000Y-60360000D03*
X86010000Y-60360000D03*
X88010000Y-58360000D03*
X86010000Y-58360000D03*
X88010000Y-56360000D03*
X86010000Y-56360000D03*
%TD*%
D18*
%TO.C,R4*%
X93550000Y-51270000D03*
X94510000Y-51270000D03*
%TD*%
%TO.C,C2*%
X94109200Y-64330000D03*
X95069200Y-64330000D03*
%TD*%
D16*
%TO.C,J8*%
X86080000Y-72550000D03*
D17*
X88080000Y-72550000D03*
X86080000Y-74550000D03*
X88080000Y-74550000D03*
%TD*%
D19*
%TO.C,C5*%
X93010000Y-62870000D03*
X93010000Y-63830000D03*
%TD*%
D20*
%TO.C,C1*%
X102010000Y-59930000D03*
X102010000Y-58970000D03*
%TD*%
D15*
%TO.C,J1*%
X105990000Y-77480000D03*
X110240000Y-77480000D03*
X101740000Y-77480000D03*
%TD*%
D19*
%TO.C,C7*%
X92340000Y-58110000D03*
X92340000Y-59070000D03*
%TD*%
%TO.C,C10*%
X95470000Y-51240000D03*
X95470000Y-52200000D03*
%TD*%
D15*
%TO.C,J7*%
X121790000Y-77390000D03*
X126040000Y-77390000D03*
X117540000Y-77390000D03*
%TD*%
D18*
%TO.C,R3*%
X90470000Y-58130000D03*
X91430000Y-58130000D03*
%TD*%
D21*
%TO.C,R1*%
X93000000Y-61930000D03*
X92040000Y-61930000D03*
%TD*%
D20*
%TO.C,C6*%
X94040000Y-60980000D03*
X94040000Y-60020000D03*
%TD*%
%TO.C,C3*%
X100760000Y-59930200D03*
X100760000Y-58970200D03*
%TD*%
%TO.C,C8*%
X99030000Y-64460000D03*
X99030000Y-63500000D03*
%TD*%
D16*
%TO.C,J4*%
X86095800Y-67430200D03*
D17*
X88095800Y-67430200D03*
X86095800Y-69430200D03*
X88095800Y-69430200D03*
%TD*%
D16*
%TO.C,J3*%
X88000000Y-53250000D03*
D17*
X86000000Y-53250000D03*
X88000000Y-51250000D03*
X86000000Y-51250000D03*
%TD*%
D22*
%TO.C,IC1*%
X104000000Y-62783000D03*
X104500000Y-62783000D03*
X105000000Y-62783000D03*
X105500000Y-62783000D03*
X106000000Y-62783000D03*
X106500000Y-62783000D03*
D23*
X107200000Y-62083000D03*
X107200000Y-61583000D03*
X107200000Y-61083000D03*
X107200000Y-60583000D03*
X107200000Y-60083000D03*
X107200000Y-59583000D03*
D22*
X106500000Y-58883000D03*
X106000000Y-58883000D03*
X105500000Y-58883000D03*
X105000000Y-58883000D03*
X104500000Y-58883000D03*
X104000000Y-58883000D03*
D23*
X103300000Y-59583000D03*
X103300000Y-60083000D03*
X103300000Y-60583000D03*
X103300000Y-61083000D03*
X103300000Y-61583000D03*
X103300000Y-62083000D03*
D24*
X105250000Y-60833000D03*
%TD*%
D20*
%TO.C,C9*%
X100180000Y-64430000D03*
X100180000Y-63470000D03*
%TD*%
D18*
%TO.C,C4*%
X94160000Y-65620000D03*
X95120000Y-65620000D03*
%TD*%
%TO.C,R2*%
X92140000Y-60940000D03*
X93100000Y-60940000D03*
%TD*%
%LPD*%
M02*
