%TF.GenerationSoftware,KiCad,Pcbnew,9.0.5*%
%TF.CreationDate,2025-10-11T16:30:22-05:00*%
%TF.ProjectId,QPA9122S-EVAL,51504139-3132-4325-932d-4556414c2e6b,rev?*%
%TF.SameCoordinates,Original*%
%TF.FileFunction,Drillmap*%
%TF.FilePolarity,Positive*%
%FSLAX45Y45*%
G04 Gerber Fmt 4.5, Leading zero omitted, Abs format (unit mm)*
G04 Created by KiCad (PCBNEW 9.0.5) date 2025-10-11 16:30:22*
%MOMM*%
%LPD*%
G01*
G04 APERTURE LIST*
%ADD10C,0.050000*%
%ADD11C,0.200000*%
G04 APERTURE END LIST*
D10*
X8978900Y-8128000D02*
X14833600Y-8128000D01*
X14833600Y-11414000D01*
X8978900Y-11414000D01*
X8978900Y-8128000D01*
D11*
X9237177Y-11727984D02*
X9237177Y-11527984D01*
X9237177Y-11527984D02*
X9284796Y-11527984D01*
X9284796Y-11527984D02*
X9313367Y-11537508D01*
X9313367Y-11537508D02*
X9332415Y-11556555D01*
X9332415Y-11556555D02*
X9341939Y-11575603D01*
X9341939Y-11575603D02*
X9351463Y-11613698D01*
X9351463Y-11613698D02*
X9351463Y-11642269D01*
X9351463Y-11642269D02*
X9341939Y-11680365D01*
X9341939Y-11680365D02*
X9332415Y-11699412D01*
X9332415Y-11699412D02*
X9313367Y-11718460D01*
X9313367Y-11718460D02*
X9284796Y-11727984D01*
X9284796Y-11727984D02*
X9237177Y-11727984D01*
X9437177Y-11727984D02*
X9437177Y-11594650D01*
X9437177Y-11632746D02*
X9446701Y-11613698D01*
X9446701Y-11613698D02*
X9456224Y-11604174D01*
X9456224Y-11604174D02*
X9475272Y-11594650D01*
X9475272Y-11594650D02*
X9494320Y-11594650D01*
X9560986Y-11727984D02*
X9560986Y-11594650D01*
X9560986Y-11527984D02*
X9551463Y-11537508D01*
X9551463Y-11537508D02*
X9560986Y-11547031D01*
X9560986Y-11547031D02*
X9570510Y-11537508D01*
X9570510Y-11537508D02*
X9560986Y-11527984D01*
X9560986Y-11527984D02*
X9560986Y-11547031D01*
X9684796Y-11727984D02*
X9665748Y-11718460D01*
X9665748Y-11718460D02*
X9656224Y-11699412D01*
X9656224Y-11699412D02*
X9656224Y-11527984D01*
X9789558Y-11727984D02*
X9770510Y-11718460D01*
X9770510Y-11718460D02*
X9760986Y-11699412D01*
X9760986Y-11699412D02*
X9760986Y-11527984D01*
X10018129Y-11727984D02*
X10018129Y-11527984D01*
X10018129Y-11527984D02*
X10084796Y-11670841D01*
X10084796Y-11670841D02*
X10151463Y-11527984D01*
X10151463Y-11527984D02*
X10151463Y-11727984D01*
X10332415Y-11727984D02*
X10332415Y-11623222D01*
X10332415Y-11623222D02*
X10322891Y-11604174D01*
X10322891Y-11604174D02*
X10303844Y-11594650D01*
X10303844Y-11594650D02*
X10265748Y-11594650D01*
X10265748Y-11594650D02*
X10246701Y-11604174D01*
X10332415Y-11718460D02*
X10313367Y-11727984D01*
X10313367Y-11727984D02*
X10265748Y-11727984D01*
X10265748Y-11727984D02*
X10246701Y-11718460D01*
X10246701Y-11718460D02*
X10237177Y-11699412D01*
X10237177Y-11699412D02*
X10237177Y-11680365D01*
X10237177Y-11680365D02*
X10246701Y-11661317D01*
X10246701Y-11661317D02*
X10265748Y-11651793D01*
X10265748Y-11651793D02*
X10313367Y-11651793D01*
X10313367Y-11651793D02*
X10332415Y-11642269D01*
X10427653Y-11594650D02*
X10427653Y-11794650D01*
X10427653Y-11604174D02*
X10446701Y-11594650D01*
X10446701Y-11594650D02*
X10484796Y-11594650D01*
X10484796Y-11594650D02*
X10503844Y-11604174D01*
X10503844Y-11604174D02*
X10513367Y-11613698D01*
X10513367Y-11613698D02*
X10522891Y-11632746D01*
X10522891Y-11632746D02*
X10522891Y-11689888D01*
X10522891Y-11689888D02*
X10513367Y-11708936D01*
X10513367Y-11708936D02*
X10503844Y-11718460D01*
X10503844Y-11718460D02*
X10484796Y-11727984D01*
X10484796Y-11727984D02*
X10446701Y-11727984D01*
X10446701Y-11727984D02*
X10427653Y-11718460D01*
X10608605Y-11708936D02*
X10618129Y-11718460D01*
X10618129Y-11718460D02*
X10608605Y-11727984D01*
X10608605Y-11727984D02*
X10599082Y-11718460D01*
X10599082Y-11718460D02*
X10608605Y-11708936D01*
X10608605Y-11708936D02*
X10608605Y-11727984D01*
X10608605Y-11604174D02*
X10618129Y-11613698D01*
X10618129Y-11613698D02*
X10608605Y-11623222D01*
X10608605Y-11623222D02*
X10599082Y-11613698D01*
X10599082Y-11613698D02*
X10608605Y-11604174D01*
X10608605Y-11604174D02*
X10608605Y-11623222D01*
M02*
