M48
; DRILL file {KiCad 9.0.5} date 2025-10-11T16:30:22-0500
; FORMAT={-:-/ absolute / metric / decimal}
; #@! TF.CreationDate,2025-10-11T16:30:22-05:00
; #@! TF.GenerationSoftware,Kicad,Pcbnew,9.0.5
; #@! TF.FileFunction,Plated,1,2,PTH
FMAT,2
METRIC
; #@! TA.AperFunction,Plated,PTH,ViaDrill
T1C0.203
; #@! TA.AperFunction,Plated,PTH,ViaDrill
T2C0.300
; #@! TA.AperFunction,Plated,PTH,ComponentDrill
T3C0.800
%
G90
G05
T1
X118.807Y-93.74
X118.807Y-94.248
X118.807Y-94.756
X119.315Y-93.74
X119.315Y-94.248
X119.315Y-94.756
X119.823Y-93.74
X119.823Y-94.248
X119.823Y-94.756
T2
X91.461Y-89.71
X91.461Y-98.21
X91.856Y-103.79
X91.856Y-112.29
X92.223Y-89.71
X92.223Y-98.21
X92.618Y-103.79
X92.618Y-112.29
X92.985Y-89.71
X92.985Y-98.21
X93.38Y-103.79
X93.38Y-112.29
X93.747Y-89.71
X93.747Y-98.21
X94.142Y-103.79
X94.142Y-112.29
X94.509Y-89.71
X94.509Y-98.21
X94.904Y-103.79
X94.904Y-112.29
X96.14Y-95.422
X96.141Y-92.538
X96.902Y-95.422
X96.903Y-92.538
X97.664Y-95.422
X97.665Y-92.538
X97.778Y-109.546
X97.79Y-106.67
X98.426Y-95.422
X98.427Y-92.538
X98.598Y-109.54
X98.61Y-106.664
X99.188Y-95.422
X99.189Y-92.538
X99.36Y-109.54
X99.372Y-106.664
X99.95Y-95.422
X99.951Y-92.538
X100.122Y-109.54
X100.134Y-106.664
X100.712Y-95.422
X100.713Y-92.538
X100.884Y-109.54
X100.896Y-106.664
X101.474Y-95.422
X101.475Y-92.538
X101.646Y-109.54
X101.658Y-106.664
X102.236Y-95.422
X102.237Y-92.538
X102.408Y-109.54
X102.42Y-106.664
X102.998Y-95.422
X102.999Y-92.538
X103.17Y-109.54
X103.182Y-106.664
X103.76Y-95.422
X103.761Y-92.538
X103.998Y-109.54
X104.01Y-106.664
X104.522Y-95.422
X104.523Y-92.538
X104.76Y-109.54
X104.772Y-106.664
X105.284Y-95.422
X105.285Y-92.538
X105.522Y-109.54
X105.534Y-106.664
X106.046Y-95.422
X106.047Y-92.538
X106.284Y-109.54
X106.296Y-106.664
X106.808Y-95.422
X106.809Y-92.538
X107.046Y-109.54
X107.058Y-106.664
X107.57Y-95.422
X107.571Y-92.538
X107.808Y-109.54
X107.82Y-106.664
X108.332Y-95.422
X108.333Y-92.538
X108.57Y-109.54
X108.582Y-106.664
X109.094Y-95.422
X109.095Y-92.538
X109.332Y-109.54
X109.344Y-106.664
X109.856Y-95.422
X109.857Y-92.538
X110.094Y-109.54
X110.106Y-106.664
X110.618Y-95.422
X110.619Y-92.538
X110.856Y-109.54
X110.868Y-106.664
X111.38Y-95.422
X111.381Y-92.538
X111.618Y-109.54
X111.63Y-106.664
X112.142Y-95.422
X112.143Y-92.538
X112.38Y-109.54
X112.392Y-106.664
X112.904Y-95.422
X112.905Y-92.538
X113.142Y-109.54
X113.154Y-106.664
X113.666Y-95.422
X113.667Y-92.538
X113.904Y-109.54
X113.916Y-106.664
X114.428Y-95.422
X114.429Y-92.538
X114.666Y-109.54
X114.678Y-106.664
X114.935Y-99.06
X114.963Y-100.33
X115.428Y-109.54
X115.44Y-106.664
X116.19Y-109.54
X116.202Y-106.664
X116.952Y-109.54
X116.964Y-106.664
X117.714Y-109.54
X117.726Y-106.664
X118.476Y-109.54
X118.488Y-106.664
X118.9Y-88.265
X119.238Y-109.54
X119.25Y-106.664
X120.0Y-109.54
X120.012Y-106.664
X120.762Y-109.54
X120.774Y-106.664
X121.524Y-109.54
X121.536Y-106.664
X121.765Y-88.265
X122.153Y-85.143
X122.286Y-109.54
X122.298Y-106.664
X123.09Y-109.53
X123.102Y-106.654
X123.323Y-95.422
X123.825Y-88.2
X123.825Y-89.535
X123.852Y-109.53
X123.864Y-106.654
X124.085Y-95.422
X124.465Y-92.538
X124.614Y-109.53
X124.626Y-106.654
X124.847Y-95.422
X125.227Y-92.538
X125.376Y-109.53
X125.388Y-106.654
X125.609Y-95.422
X125.989Y-92.538
X126.138Y-109.53
X126.15Y-106.654
X126.371Y-95.422
X126.751Y-92.538
X126.9Y-109.53
X126.912Y-106.654
X127.133Y-95.422
X127.513Y-92.538
X127.662Y-109.53
X127.674Y-106.654
X127.895Y-95.422
X128.275Y-92.538
X128.424Y-109.53
X128.436Y-106.654
X128.657Y-95.422
X129.037Y-92.538
X129.186Y-109.53
X129.198Y-106.654
X129.419Y-95.422
X129.799Y-92.538
X129.948Y-109.53
X129.96Y-106.654
X130.181Y-95.422
X130.561Y-92.538
X130.71Y-109.53
X130.722Y-106.654
X130.943Y-95.422
X131.323Y-92.538
X131.472Y-109.53
X131.484Y-106.654
X131.705Y-95.422
X132.085Y-92.538
X132.234Y-109.53
X132.246Y-106.654
X132.467Y-95.422
X132.847Y-92.538
X132.996Y-109.53
X133.008Y-106.654
X133.229Y-95.422
X133.609Y-92.538
X133.758Y-109.53
X133.77Y-106.654
X133.991Y-95.422
X134.371Y-92.538
X134.52Y-109.53
X134.532Y-106.654
X134.753Y-95.422
X135.133Y-92.538
X135.282Y-109.53
X135.294Y-106.654
X135.515Y-95.422
X135.895Y-92.538
X136.044Y-109.53
X136.056Y-106.654
X136.277Y-95.422
X136.657Y-92.538
X136.806Y-109.53
X136.818Y-106.654
X137.039Y-95.422
X137.419Y-92.538
X137.568Y-109.53
X137.58Y-106.654
X137.801Y-95.422
X138.181Y-92.538
X138.33Y-109.53
X138.342Y-106.654
X138.563Y-95.422
X138.943Y-92.538
X139.092Y-109.53
X139.104Y-106.654
X139.325Y-95.422
X139.705Y-92.538
X139.854Y-109.53
X139.866Y-106.654
X140.087Y-95.422
X140.467Y-92.538
X140.616Y-109.53
X140.628Y-106.654
X140.849Y-95.422
X141.229Y-92.538
X141.378Y-109.53
X141.39Y-106.654
X141.611Y-95.422
X143.613Y-103.84
X143.613Y-112.34
X143.673Y-89.64
X143.673Y-98.14
X144.375Y-103.84
X144.375Y-112.34
X144.435Y-89.64
X144.435Y-98.14
X145.137Y-103.84
X145.137Y-112.34
X145.197Y-89.64
X145.197Y-98.14
X145.899Y-103.84
X145.899Y-112.34
X145.959Y-89.64
X145.959Y-98.14
X146.661Y-103.84
X146.661Y-112.34
X146.721Y-89.64
X146.721Y-98.14
T3
X113.85Y-83.07
X114.88Y-102.48
X115.85Y-83.07
X116.88Y-102.48
X122.21Y-83.01
X124.21Y-83.01
M30
