M48
; DRILL file {KiCad 9.0.4} date 2025-11-04T14:45:26-0600
; FORMAT={-:-/ absolute / metric / decimal}
; #@! TF.CreationDate,2025-11-04T14:45:26-06:00
; #@! TF.GenerationSoftware,Kicad,Pcbnew,9.0.4
; #@! TF.FileFunction,MixedPlating,1,4
FMAT,2
METRIC
; #@! TA.AperFunction,Plated,PTH,ViaDrill
T1C0.300
; #@! TA.AperFunction,Plated,PTH,ComponentDrill
T2C1.000
%
G90
G05
T1
X83.162Y-83.807
X83.188Y-75.124
X84.013Y-83.807
X84.038Y-75.124
X84.862Y-83.807
X84.888Y-75.124
X85.608Y-32.515
X85.608Y-57.915
X85.608Y-60.455
X85.608Y-62.995
X85.608Y-65.535
X85.608Y-68.075
X85.608Y-70.615
X85.608Y-73.155
X85.608Y-85.855
X85.608Y-88.395
X85.608Y-90.935
X85.608Y-93.475
X85.608Y-96.015
X85.608Y-98.555
X85.608Y-101.095
X85.608Y-118.875
X85.608Y-121.415
X85.608Y-123.955
X85.608Y-126.495
X85.712Y-83.807
X85.738Y-75.124
X86.562Y-83.807
X86.588Y-75.124
X88.147Y-32.515
X88.147Y-57.915
X88.147Y-60.455
X88.147Y-62.995
X88.147Y-65.535
X88.147Y-68.075
X88.147Y-70.615
X88.147Y-73.155
X88.147Y-85.855
X88.147Y-88.395
X88.147Y-90.935
X88.147Y-111.255
X88.147Y-121.415
X88.147Y-123.955
X88.147Y-126.495
X90.4Y-103.4
X90.4Y-104.2
X90.4Y-105.0
X90.4Y-105.8
X90.688Y-32.515
X90.688Y-35.055
X90.688Y-37.595
X90.688Y-52.835
X90.688Y-55.375
X90.688Y-57.915
X90.688Y-60.455
X90.688Y-62.995
X90.688Y-65.535
X90.688Y-68.075
X90.688Y-70.615
X90.688Y-73.155
X90.688Y-75.695
X90.688Y-78.235
X90.688Y-80.775
X90.688Y-83.315
X90.688Y-85.855
X90.688Y-88.395
X90.688Y-98.555
X90.688Y-101.095
X90.688Y-113.795
X90.688Y-121.415
X90.688Y-123.955
X90.688Y-126.495
X91.2Y-103.4
X91.2Y-104.2
X91.2Y-105.0
X91.2Y-105.8
X91.75Y-90.75
X92.3Y-107.1
X92.9Y-118.95
X93.227Y-32.515
X93.227Y-35.055
X93.227Y-37.595
X93.227Y-85.855
X93.227Y-123.955
X93.227Y-126.495
X93.425Y-113.15
X93.675Y-41.307
X93.675Y-42.781
X93.675Y-44.255
X93.675Y-45.729
X93.675Y-47.203
X93.675Y-48.678
X93.675Y-50.152
X93.725Y-51.626
X93.725Y-53.1
X94.0Y-96.75
X94.26Y-120.825
X94.9Y-103.6
X95.275Y-53.1
X95.767Y-32.515
X95.767Y-35.055
X95.767Y-37.595
X95.767Y-88.395
X95.767Y-90.935
X95.767Y-111.255
X95.767Y-123.955
X95.767Y-126.495
X98.307Y-32.515
X98.307Y-35.055
X98.307Y-37.595
X98.307Y-40.135
X98.307Y-57.915
X98.307Y-60.455
X98.307Y-62.995
X98.307Y-65.535
X98.307Y-68.075
X98.307Y-70.615
X98.307Y-73.155
X98.307Y-75.695
X98.307Y-78.235
X98.307Y-80.775
X98.307Y-90.935
X98.307Y-93.475
X98.307Y-103.635
X98.307Y-106.175
X98.307Y-108.715
X98.307Y-111.255
X98.307Y-113.795
X98.307Y-116.335
X98.307Y-121.415
X98.307Y-123.955
X98.307Y-126.495
X100.847Y-32.515
X100.847Y-35.055
X100.847Y-37.595
X100.847Y-40.135
X100.847Y-42.675
X100.847Y-45.215
X100.847Y-47.755
X100.847Y-50.295
X100.847Y-55.375
X100.847Y-57.915
X100.847Y-60.455
X100.847Y-62.995
X100.847Y-65.535
X100.847Y-68.075
X100.847Y-70.615
X100.847Y-73.155
X100.847Y-75.695
X100.847Y-78.235
X100.847Y-83.315
X100.847Y-93.475
X100.847Y-96.015
X100.847Y-103.635
X100.847Y-106.175
X100.847Y-108.715
X100.847Y-111.255
X100.847Y-113.795
X100.847Y-116.335
X100.847Y-118.875
X100.847Y-121.415
X100.847Y-123.955
X100.847Y-126.495
X103.387Y-32.515
X103.387Y-35.055
X103.387Y-37.595
X103.387Y-40.135
X103.387Y-42.675
X103.387Y-45.215
X103.387Y-47.755
X103.387Y-52.835
X103.387Y-55.375
X103.387Y-57.915
X103.387Y-60.455
X103.387Y-62.995
X103.387Y-65.535
X103.387Y-68.075
X103.387Y-70.615
X103.387Y-73.155
X103.387Y-75.695
X103.387Y-80.775
X103.387Y-83.315
X103.387Y-85.855
X103.387Y-96.015
X103.387Y-98.555
X103.387Y-106.175
X103.387Y-108.715
X103.387Y-111.255
X103.387Y-113.795
X103.387Y-116.335
X103.387Y-118.875
X103.387Y-121.415
X103.387Y-123.955
X103.387Y-126.495
X105.927Y-32.515
X105.927Y-35.055
X105.927Y-40.135
X105.927Y-52.835
X105.927Y-55.375
X105.927Y-57.915
X105.927Y-60.455
X105.927Y-62.995
X105.927Y-65.535
X105.927Y-68.075
X105.927Y-70.615
X105.927Y-73.155
X105.927Y-78.235
X105.927Y-80.775
X105.927Y-83.315
X105.927Y-85.855
X105.927Y-88.395
X105.927Y-98.555
X105.927Y-101.095
X105.927Y-108.715
X105.927Y-111.255
X105.927Y-113.795
X105.927Y-116.335
X105.927Y-118.875
X105.927Y-121.415
X105.927Y-123.955
X105.927Y-126.495
X108.468Y-32.515
X108.468Y-35.055
X108.468Y-37.595
X108.468Y-47.755
X108.468Y-52.835
X108.468Y-55.375
X108.468Y-57.915
X108.468Y-60.455
X108.468Y-62.995
X108.468Y-65.535
X108.468Y-68.075
X108.468Y-70.615
X108.468Y-75.695
X108.468Y-78.235
X108.468Y-80.775
X108.468Y-83.315
X108.468Y-85.855
X108.468Y-88.395
X108.468Y-90.935
X108.468Y-101.095
X108.468Y-103.635
X108.468Y-111.255
X108.468Y-113.795
X108.468Y-116.335
X108.468Y-118.875
X108.468Y-121.415
X108.468Y-123.955
X108.468Y-126.495
X110.45Y-42.62
X110.47Y-45.12
X110.47Y-46.37
X111.007Y-50.295
X111.007Y-52.835
X111.007Y-55.375
X111.007Y-57.915
X111.007Y-60.455
X111.007Y-62.995
X111.007Y-65.535
X111.007Y-68.075
X111.007Y-73.155
X111.007Y-75.695
X111.007Y-78.235
X111.007Y-80.775
X111.007Y-83.315
X111.007Y-85.855
X111.007Y-88.395
X111.007Y-90.935
X111.007Y-93.475
X111.007Y-103.635
X111.007Y-106.175
X111.007Y-113.795
X111.007Y-116.335
X111.007Y-118.875
X111.007Y-121.415
X111.007Y-123.955
X111.007Y-126.495
X113.547Y-47.755
X113.547Y-50.295
X113.547Y-52.835
X113.547Y-55.375
X113.547Y-57.915
X113.547Y-60.455
X113.547Y-62.995
X113.547Y-65.535
X113.547Y-70.615
X113.547Y-73.155
X113.547Y-75.695
X113.547Y-78.235
X113.547Y-80.775
X113.547Y-83.315
X113.547Y-85.855
X113.547Y-88.395
X113.547Y-90.935
X113.547Y-93.475
X113.547Y-96.015
X113.547Y-106.175
X113.547Y-108.715
X113.547Y-116.335
X113.547Y-118.875
X113.547Y-121.415
X113.547Y-123.955
X113.547Y-126.495
X116.087Y-45.215
X116.087Y-47.755
X116.087Y-50.295
X116.087Y-52.835
X116.087Y-55.375
X116.087Y-57.915
X116.087Y-60.455
X116.087Y-62.995
X116.087Y-68.075
X116.087Y-70.615
X116.087Y-73.155
X116.087Y-75.695
X116.087Y-78.235
X116.087Y-80.775
X116.087Y-83.315
X116.087Y-85.855
X116.087Y-88.395
X116.087Y-90.935
X116.087Y-93.475
X116.087Y-96.015
X116.087Y-98.555
X116.087Y-108.715
X116.087Y-111.255
X116.087Y-118.875
X116.087Y-121.415
X116.087Y-123.955
X116.087Y-126.495
X118.627Y-42.675
X118.627Y-45.215
X118.627Y-47.755
X118.627Y-50.295
X118.627Y-52.835
X118.627Y-55.375
X118.627Y-57.915
X118.627Y-60.455
X118.627Y-65.535
X118.627Y-68.075
X118.627Y-70.615
X118.627Y-73.155
X118.627Y-75.695
X118.627Y-78.235
X118.627Y-80.775
X118.627Y-83.315
X118.627Y-85.855
X118.627Y-88.395
X118.627Y-90.935
X118.627Y-93.475
X118.627Y-96.015
X118.627Y-98.555
X118.627Y-101.095
X118.627Y-111.255
X118.627Y-113.795
X118.627Y-121.415
X118.627Y-123.955
X118.627Y-126.495
X121.167Y-40.135
X121.167Y-42.675
X121.167Y-45.215
X121.167Y-47.755
X121.167Y-50.295
X121.167Y-52.835
X121.167Y-55.375
X121.167Y-57.915
X121.167Y-62.995
X121.167Y-65.535
X121.167Y-68.075
X121.167Y-70.615
X121.167Y-73.155
X121.167Y-75.695
X121.167Y-78.235
X121.167Y-80.775
X121.167Y-83.315
X121.167Y-85.855
X121.167Y-88.395
X121.167Y-90.935
X121.167Y-93.475
X121.167Y-96.015
X121.167Y-98.555
X121.167Y-101.095
X121.167Y-103.635
X121.167Y-113.795
X121.167Y-116.335
X121.167Y-126.495
X123.707Y-42.675
X123.707Y-45.215
X123.707Y-47.755
X123.707Y-50.295
X123.707Y-52.835
X123.707Y-55.375
X123.707Y-60.455
X123.707Y-62.995
X123.707Y-65.535
X123.707Y-68.075
X123.707Y-70.615
X123.707Y-73.155
X123.707Y-75.695
X123.707Y-78.235
X123.707Y-80.775
X123.707Y-83.315
X123.707Y-85.855
X123.707Y-88.395
X123.707Y-90.935
X123.707Y-93.475
X123.707Y-96.015
X123.707Y-98.555
X123.707Y-101.095
X123.707Y-103.635
X123.707Y-106.175
X123.707Y-116.335
X123.707Y-118.875
X123.707Y-126.495
X126.247Y-42.675
X126.247Y-45.215
X126.247Y-47.755
X126.247Y-50.295
X126.247Y-52.835
X126.247Y-57.915
X126.247Y-60.455
X126.247Y-62.995
X126.247Y-65.535
X126.247Y-68.075
X126.247Y-70.615
X126.247Y-73.155
X126.247Y-75.695
X126.247Y-83.315
X126.247Y-85.855
X126.247Y-88.395
X126.247Y-90.935
X126.247Y-96.015
X126.247Y-98.555
X126.247Y-101.095
X126.247Y-103.635
X126.247Y-106.175
X126.247Y-108.715
X126.247Y-118.875
X126.247Y-126.495
X128.55Y-79.375
X128.787Y-42.675
X128.787Y-45.215
X128.787Y-47.755
X128.787Y-50.295
X128.787Y-55.375
X128.787Y-57.915
X128.787Y-60.455
X128.787Y-62.995
X128.787Y-65.535
X128.787Y-68.075
X128.787Y-70.615
X128.787Y-73.155
X128.787Y-75.695
X128.787Y-83.315
X128.787Y-85.855
X128.787Y-88.395
X128.787Y-90.935
X128.787Y-96.015
X128.787Y-98.555
X128.787Y-101.095
X128.787Y-103.635
X128.787Y-106.175
X128.787Y-108.715
X128.787Y-111.255
X128.787Y-126.495
X131.327Y-42.675
X131.327Y-45.215
X131.327Y-47.755
X131.327Y-52.835
X131.327Y-55.375
X131.327Y-57.915
X131.327Y-60.455
X131.327Y-62.995
X131.327Y-65.535
X131.327Y-68.075
X131.327Y-70.615
X131.327Y-73.155
X131.327Y-75.695
X131.327Y-83.315
X131.327Y-85.855
X131.327Y-88.395
X131.327Y-90.935
X131.327Y-93.475
X131.327Y-96.015
X131.327Y-98.555
X131.327Y-101.095
X131.327Y-103.635
X131.327Y-106.175
X131.327Y-108.715
X131.327Y-111.255
X131.327Y-113.795
X131.327Y-126.495
X133.868Y-42.675
X133.868Y-45.215
X133.868Y-50.295
X133.868Y-52.835
X133.868Y-55.375
X133.868Y-57.915
X133.868Y-60.455
X133.868Y-62.995
X133.868Y-65.535
X133.868Y-68.075
X133.868Y-70.615
X133.868Y-73.155
X133.868Y-75.695
X133.868Y-83.315
X133.868Y-85.855
X133.868Y-88.395
X133.868Y-90.935
X133.868Y-93.475
X133.868Y-96.015
X133.868Y-98.555
X133.868Y-101.095
X133.868Y-103.635
X133.868Y-106.175
X133.868Y-108.715
X133.868Y-111.255
X133.868Y-113.795
X133.868Y-116.335
X133.868Y-126.495
X136.407Y-42.675
X136.407Y-47.755
X136.407Y-50.295
X136.407Y-52.835
X136.407Y-55.375
X136.407Y-57.915
X136.407Y-75.695
X136.407Y-78.235
X136.407Y-80.775
X136.407Y-83.315
X136.407Y-101.095
X136.407Y-103.635
X136.407Y-106.175
X136.407Y-108.715
X136.407Y-111.255
X136.407Y-113.795
X136.407Y-116.335
X136.407Y-126.495
X138.947Y-45.215
X138.947Y-47.755
X138.947Y-50.295
X138.947Y-52.835
X138.947Y-55.375
X138.947Y-60.455
X138.947Y-62.995
X138.947Y-65.535
X138.947Y-68.075
X138.947Y-70.615
X138.947Y-73.155
X138.947Y-75.695
X138.947Y-78.235
X138.947Y-80.775
X138.947Y-83.315
X138.947Y-85.855
X138.947Y-88.395
X138.947Y-90.935
X138.947Y-93.475
X138.947Y-96.015
X138.947Y-98.555
X138.947Y-103.635
X138.947Y-106.175
X138.947Y-108.715
X138.947Y-111.255
X138.947Y-113.795
X138.947Y-116.335
X138.947Y-126.495
X141.487Y-32.515
X141.487Y-35.055
X141.487Y-42.675
X141.487Y-45.215
X141.487Y-47.755
X141.487Y-50.295
X141.487Y-52.835
X141.487Y-57.915
X141.487Y-60.455
X141.487Y-62.995
X141.487Y-65.535
X141.487Y-68.075
X141.487Y-70.615
X141.487Y-73.155
X141.487Y-75.695
X141.487Y-78.235
X141.487Y-80.775
X141.487Y-83.315
X141.487Y-85.855
X141.487Y-88.395
X141.487Y-90.935
X141.487Y-93.475
X141.487Y-96.015
X141.487Y-98.555
X141.487Y-101.095
X141.487Y-103.635
X141.487Y-106.175
X141.487Y-108.715
X141.487Y-111.255
X141.487Y-113.795
X141.487Y-116.335
X141.487Y-126.495
X144.028Y-32.515
X144.028Y-35.055
X144.028Y-42.675
X144.028Y-45.215
X144.028Y-47.755
X144.028Y-50.295
X144.028Y-52.835
X144.028Y-57.915
X144.028Y-60.455
X144.028Y-62.995
X144.028Y-65.535
X144.028Y-68.075
X144.028Y-70.615
X144.028Y-73.155
X144.028Y-75.695
X144.028Y-78.235
X144.028Y-80.775
X144.028Y-83.315
X144.028Y-85.855
X144.028Y-88.395
X144.028Y-90.935
X144.028Y-93.475
X144.028Y-96.015
X144.028Y-98.555
X144.028Y-101.095
X144.028Y-106.175
X144.028Y-108.715
X144.028Y-111.255
X144.028Y-113.795
X144.028Y-116.335
X144.028Y-126.495
X146.567Y-32.515
X146.567Y-35.055
X146.567Y-42.675
X146.567Y-45.215
X146.567Y-47.755
X146.567Y-50.295
X146.567Y-52.835
X146.567Y-57.915
X146.567Y-60.455
X146.567Y-62.995
X146.567Y-65.535
X146.567Y-68.075
X146.567Y-70.615
X146.567Y-73.155
X146.567Y-75.695
X146.567Y-78.235
X146.567Y-80.775
X146.567Y-83.315
X146.567Y-85.855
X146.567Y-88.395
X146.567Y-90.935
X146.567Y-93.475
X146.567Y-96.015
X146.567Y-98.555
X146.567Y-101.095
X146.567Y-106.175
X146.567Y-108.715
X146.567Y-111.255
X146.567Y-113.795
X146.567Y-116.335
X146.567Y-126.495
X148.55Y-55.125
X148.55Y-103.625
X149.107Y-32.515
X149.107Y-35.055
X149.107Y-42.675
X149.107Y-45.215
X149.107Y-47.755
X149.107Y-50.295
X149.107Y-57.915
X149.107Y-60.455
X149.107Y-62.995
X149.107Y-65.535
X149.107Y-68.075
X149.107Y-70.615
X149.107Y-73.155
X149.107Y-75.695
X149.107Y-78.235
X149.107Y-80.775
X149.107Y-83.315
X149.107Y-85.855
X149.107Y-88.395
X149.107Y-90.935
X149.107Y-93.475
X149.107Y-96.015
X149.107Y-98.555
X149.107Y-108.715
X149.107Y-111.255
X149.107Y-113.795
X149.107Y-116.335
X149.107Y-126.495
X151.647Y-32.515
X151.647Y-35.055
X151.647Y-42.675
X151.647Y-45.215
X151.647Y-47.755
X151.647Y-50.295
X151.647Y-52.835
X151.647Y-57.915
X151.647Y-60.455
X151.647Y-62.995
X151.647Y-65.535
X151.647Y-68.075
X151.647Y-70.615
X151.647Y-73.155
X151.647Y-75.695
X151.647Y-78.235
X151.647Y-80.775
X151.647Y-83.315
X151.647Y-85.855
X151.647Y-88.395
X151.647Y-90.935
X151.647Y-93.475
X151.647Y-96.015
X151.647Y-98.555
X151.647Y-101.095
X151.647Y-106.175
X151.647Y-108.715
X151.647Y-111.255
X151.647Y-113.795
X151.647Y-116.335
X151.647Y-126.495
X154.188Y-32.515
X154.188Y-35.055
X154.188Y-42.675
X154.188Y-45.215
X154.188Y-47.755
X154.188Y-50.295
X154.188Y-55.375
X154.188Y-60.455
X154.188Y-62.995
X154.188Y-65.535
X154.188Y-68.075
X154.188Y-70.615
X154.188Y-73.155
X154.188Y-75.695
X154.188Y-78.235
X154.188Y-80.775
X154.188Y-83.315
X154.188Y-85.855
X154.188Y-88.395
X154.188Y-90.935
X154.188Y-93.475
X154.188Y-96.015
X154.188Y-98.555
X154.188Y-101.095
X154.188Y-103.635
X154.188Y-108.715
X154.188Y-111.255
X154.188Y-113.795
X154.188Y-116.335
X154.188Y-126.495
X156.727Y-32.515
X156.727Y-35.055
X156.727Y-42.675
X156.727Y-45.215
X156.727Y-52.835
X156.727Y-55.375
X156.727Y-57.915
X156.727Y-65.535
X156.727Y-68.075
X156.727Y-70.615
X156.727Y-73.155
X156.727Y-75.695
X156.727Y-78.235
X156.727Y-80.775
X156.727Y-83.315
X156.727Y-85.855
X156.727Y-88.395
X156.727Y-90.935
X156.727Y-93.475
X156.727Y-101.095
X156.727Y-103.635
X156.727Y-106.175
X156.727Y-113.795
X156.727Y-116.335
X156.727Y-126.495
X159.267Y-32.515
X159.267Y-35.055
X159.267Y-42.675
X159.267Y-45.215
X159.267Y-47.755
X159.267Y-50.295
X159.267Y-52.835
X159.267Y-55.375
X159.267Y-57.915
X159.267Y-60.455
X159.267Y-62.995
X159.267Y-68.075
X159.267Y-70.615
X159.267Y-73.155
X159.267Y-75.695
X159.267Y-78.235
X159.267Y-80.775
X159.267Y-83.315
X159.267Y-85.855
X159.267Y-88.395
X159.267Y-90.935
X159.267Y-96.015
X159.267Y-98.555
X159.267Y-101.095
X159.267Y-103.635
X159.267Y-106.175
X159.267Y-108.715
X159.267Y-111.255
X159.267Y-116.335
X159.267Y-126.495
X161.808Y-32.515
X161.808Y-45.215
X161.808Y-47.755
X161.808Y-50.295
X161.808Y-52.835
X161.808Y-55.375
X161.808Y-57.915
X161.808Y-60.455
X161.808Y-62.995
X161.808Y-65.535
X161.808Y-68.075
X161.808Y-70.615
X161.808Y-73.155
X161.808Y-75.695
X161.808Y-78.235
X161.808Y-80.775
X161.808Y-83.315
X161.808Y-85.855
X161.808Y-88.395
X161.808Y-93.475
X161.808Y-96.015
X161.808Y-98.555
X161.808Y-101.095
X161.808Y-103.635
X161.808Y-106.175
X161.808Y-108.715
X161.808Y-111.255
X161.808Y-113.795
X161.808Y-116.335
X161.808Y-126.495
X164.347Y-32.515
X164.347Y-37.595
X164.347Y-45.215
X164.347Y-47.755
X164.347Y-50.295
X164.347Y-52.835
X164.347Y-55.375
X164.347Y-57.915
X164.347Y-60.455
X164.347Y-62.995
X164.347Y-65.535
X164.347Y-68.075
X164.347Y-70.615
X164.347Y-73.155
X164.347Y-75.695
X164.347Y-78.235
X164.347Y-80.775
X164.347Y-83.315
X164.347Y-85.855
X164.347Y-88.395
X164.347Y-93.475
X164.347Y-96.015
X164.347Y-98.555
X164.347Y-101.095
X164.347Y-103.635
X164.347Y-106.175
X164.347Y-108.715
X164.347Y-111.255
X164.347Y-113.795
X164.347Y-116.335
X164.347Y-126.495
X166.887Y-32.515
X166.887Y-37.595
X166.887Y-45.215
X166.887Y-47.755
X166.887Y-50.295
X166.887Y-52.835
X166.887Y-55.375
X166.887Y-57.915
X166.887Y-60.455
X166.887Y-62.995
X166.887Y-70.615
X166.887Y-73.155
X166.887Y-75.695
X166.887Y-78.235
X166.887Y-80.775
X166.887Y-83.315
X166.887Y-85.855
X166.887Y-88.395
X166.887Y-93.475
X166.887Y-96.015
X166.887Y-98.555
X166.887Y-101.095
X166.887Y-103.635
X166.887Y-106.175
X166.887Y-108.715
X166.887Y-111.255
X166.887Y-126.495
X168.4Y-37.825
X168.4Y-39.375
X168.4Y-62.075
X168.4Y-62.075
X168.4Y-63.625
X168.4Y-63.625
X168.4Y-86.325
X168.4Y-86.325
X168.4Y-87.875
X168.4Y-87.875
X168.4Y-110.575
X168.4Y-110.575
X168.4Y-112.125
X168.4Y-112.125
X169.427Y-32.515
X169.427Y-45.215
X169.427Y-47.755
X169.427Y-50.295
X169.427Y-52.835
X169.427Y-55.375
X169.427Y-57.915
X169.427Y-60.455
X169.427Y-68.075
X169.427Y-70.615
X169.427Y-73.155
X169.427Y-75.695
X169.427Y-78.235
X169.427Y-80.775
X169.427Y-83.315
X169.427Y-93.475
X169.427Y-96.015
X169.427Y-98.555
X169.427Y-101.095
X169.427Y-103.635
X169.427Y-106.175
X169.427Y-108.715
X169.427Y-116.335
X169.427Y-126.495
X169.9Y-37.825
X169.9Y-62.075
X169.9Y-62.075
X169.9Y-86.325
X169.9Y-86.325
X169.9Y-110.575
X169.9Y-110.575
X171.4Y-38.725
X171.4Y-40.275
X171.4Y-62.975
X171.4Y-62.975
X171.4Y-64.525
X171.4Y-64.525
X171.4Y-87.225
X171.4Y-87.225
X171.4Y-88.775
X171.4Y-88.775
X171.4Y-111.475
X171.4Y-111.475
X171.4Y-113.025
X171.4Y-113.025
X171.968Y-32.515
X171.968Y-45.215
X171.968Y-47.755
X171.968Y-50.295
X171.968Y-52.835
X171.968Y-55.375
X171.968Y-57.915
X171.968Y-60.455
X171.968Y-68.075
X171.968Y-70.615
X171.968Y-73.155
X171.968Y-75.695
X171.968Y-78.235
X171.968Y-80.775
X171.968Y-83.315
X171.968Y-93.475
X171.968Y-96.015
X171.968Y-98.555
X171.968Y-101.095
X171.968Y-103.635
X171.968Y-106.175
X171.968Y-108.715
X171.968Y-116.335
X171.968Y-126.495
X172.9Y-38.725
X172.9Y-62.975
X172.9Y-87.225
X172.9Y-87.225
X172.9Y-111.475
X172.9Y-111.475
X174.4Y-35.975
X174.4Y-60.225
X174.4Y-60.225
X174.4Y-84.475
X174.4Y-84.475
X174.4Y-108.725
X174.4Y-108.725
X174.507Y-32.515
X174.507Y-126.495
X175.47Y-40.95
X175.47Y-41.75
X175.47Y-42.55
X175.47Y-65.2
X175.47Y-66.0
X175.47Y-66.8
X175.47Y-89.45
X175.47Y-90.25
X175.47Y-91.05
X175.47Y-113.7
X175.47Y-113.7
X175.47Y-114.5
X175.47Y-114.5
X175.47Y-115.3
X175.47Y-115.3
X175.9Y-36.025
X175.9Y-60.275
X175.9Y-60.275
X175.9Y-84.525
X175.9Y-84.525
X175.9Y-108.775
X175.9Y-108.775
X176.27Y-40.95
X176.27Y-41.75
X176.27Y-42.55
X176.27Y-65.2
X176.27Y-66.0
X176.27Y-66.8
X176.27Y-89.45
X176.27Y-90.25
X176.27Y-91.05
X176.27Y-113.7
X176.27Y-113.7
X176.27Y-114.5
X176.27Y-114.5
X176.27Y-115.3
X176.27Y-115.3
X177.047Y-32.515
X177.047Y-126.495
X177.07Y-40.95
X177.07Y-41.75
X177.07Y-42.55
X177.07Y-65.2
X177.07Y-66.0
X177.07Y-66.8
X177.07Y-89.45
X177.07Y-90.25
X177.07Y-91.05
X177.07Y-113.7
X177.07Y-113.7
X177.07Y-114.5
X177.07Y-114.5
X177.07Y-115.3
X177.07Y-115.3
X177.4Y-35.975
X177.4Y-60.225
X177.4Y-60.225
X177.4Y-84.475
X177.4Y-84.475
X177.4Y-108.725
X177.4Y-108.725
X179.588Y-32.515
X179.588Y-45.215
X179.588Y-47.755
X179.588Y-50.295
X179.588Y-52.835
X179.588Y-55.375
X179.588Y-57.915
X179.588Y-68.075
X179.588Y-70.615
X179.588Y-73.155
X179.588Y-75.695
X179.588Y-78.235
X179.588Y-80.775
X179.588Y-126.495
X180.4Y-35.975
X180.4Y-60.225
X180.4Y-60.225
X180.4Y-84.475
X180.4Y-84.475
X180.4Y-108.725
X180.4Y-108.725
X180.6Y-39.025
X180.6Y-40.575
X180.6Y-63.275
X180.6Y-64.825
X180.6Y-87.525
X180.6Y-89.075
X180.6Y-89.075
X180.6Y-111.775
X180.6Y-113.325
X180.6Y-113.325
X181.9Y-36.025
X181.9Y-60.275
X181.9Y-60.275
X181.9Y-84.525
X181.9Y-84.525
X181.9Y-108.775
X181.9Y-108.775
X182.1Y-40.575
X182.1Y-64.825
X182.1Y-89.075
X182.1Y-89.075
X182.1Y-113.325
X182.1Y-113.325
X182.127Y-32.515
X182.127Y-45.215
X182.127Y-47.755
X182.127Y-50.295
X182.127Y-52.835
X182.127Y-55.375
X182.127Y-57.915
X182.127Y-68.075
X182.127Y-70.615
X182.127Y-73.155
X182.127Y-75.695
X182.127Y-78.235
X182.127Y-80.775
X182.127Y-93.475
X182.127Y-96.015
X182.127Y-98.555
X182.127Y-101.095
X182.127Y-103.635
X182.127Y-106.175
X182.127Y-116.335
X182.127Y-118.875
X182.127Y-126.495
X183.4Y-35.975
X183.4Y-60.225
X183.4Y-60.225
X183.4Y-84.475
X183.4Y-84.475
X183.4Y-108.725
X183.4Y-108.725
X184.667Y-32.515
X184.667Y-40.135
X184.667Y-45.215
X184.667Y-47.755
X184.667Y-50.295
X184.667Y-52.835
X184.667Y-55.375
X184.667Y-57.915
X184.667Y-65.535
X184.667Y-68.075
X184.667Y-70.615
X184.667Y-73.155
X184.667Y-75.695
X184.667Y-78.235
X184.667Y-80.775
X184.667Y-88.395
X184.667Y-93.475
X184.667Y-96.015
X184.667Y-98.555
X184.667Y-101.095
X184.667Y-103.635
X184.667Y-106.175
X184.667Y-113.795
X184.667Y-116.335
X184.667Y-118.875
X184.667Y-126.495
X184.9Y-36.025
X184.9Y-60.275
X184.9Y-60.275
X184.9Y-84.525
X184.9Y-84.525
X184.9Y-108.775
X184.9Y-108.775
X187.207Y-32.515
X187.207Y-37.595
X187.207Y-40.135
X187.207Y-45.215
X187.207Y-47.755
X187.207Y-50.295
X187.207Y-52.835
X187.207Y-55.375
X187.207Y-57.915
X187.207Y-60.455
X187.207Y-62.995
X187.207Y-70.615
X187.207Y-73.155
X187.207Y-75.695
X187.207Y-78.235
X187.207Y-80.775
X187.207Y-83.315
X187.207Y-85.855
X187.207Y-88.395
X187.207Y-93.475
X187.207Y-96.015
X187.207Y-98.555
X187.207Y-101.095
X187.207Y-103.635
X187.207Y-106.175
X187.207Y-108.715
X187.207Y-111.255
X187.207Y-118.875
X187.207Y-126.495
X189.748Y-32.515
X189.748Y-37.595
X189.748Y-45.215
X189.748Y-47.755
X189.748Y-50.295
X189.748Y-52.835
X189.748Y-55.375
X189.748Y-57.915
X189.748Y-60.455
X189.748Y-68.075
X189.748Y-70.615
X189.748Y-73.155
X189.748Y-75.695
X189.748Y-78.235
X189.748Y-80.775
X189.748Y-83.315
X189.748Y-85.855
X189.748Y-93.475
X189.748Y-96.015
X189.748Y-98.555
X189.748Y-101.095
X189.748Y-103.635
X189.748Y-106.175
X189.748Y-108.715
X189.748Y-116.335
X189.748Y-118.875
X189.748Y-126.495
X190.9Y-39.125
X190.9Y-40.675
X190.9Y-63.375
X190.9Y-63.375
X190.9Y-64.925
X190.9Y-64.925
X190.9Y-87.625
X190.9Y-87.625
X190.9Y-89.175
X190.9Y-89.175
X190.9Y-111.875
X190.9Y-111.875
X190.9Y-113.425
X190.9Y-113.425
X192.287Y-32.515
X192.287Y-37.595
X192.287Y-45.215
X192.287Y-47.755
X192.287Y-50.295
X192.287Y-52.835
X192.287Y-55.375
X192.287Y-57.915
X192.287Y-60.455
X192.287Y-68.075
X192.287Y-70.615
X192.287Y-73.155
X192.287Y-75.695
X192.287Y-78.235
X192.287Y-80.775
X192.287Y-83.315
X192.287Y-85.855
X192.287Y-93.475
X192.287Y-96.015
X192.287Y-98.555
X192.287Y-101.095
X192.287Y-103.635
X192.287Y-106.175
X192.287Y-108.715
X192.287Y-116.335
X192.287Y-118.875
X192.287Y-126.495
X192.4Y-39.125
X192.4Y-63.375
X192.4Y-63.375
X192.4Y-87.625
X192.4Y-87.625
X192.4Y-111.875
X192.4Y-111.875
X194.827Y-32.515
X194.827Y-93.475
X194.827Y-96.015
X194.827Y-98.555
X194.827Y-101.095
X194.827Y-103.635
X194.827Y-106.175
X194.827Y-126.495
X194.861Y-41.35
X194.861Y-42.15
X194.861Y-65.6
X194.861Y-65.6
X194.861Y-66.4
X194.861Y-66.4
X194.861Y-89.85
X194.861Y-90.65
X194.861Y-90.65
X194.861Y-114.1
X194.861Y-114.1
X194.861Y-114.9
X194.861Y-114.9
X195.4Y-36.675
X195.4Y-60.925
X195.4Y-60.925
X195.4Y-85.175
X195.4Y-109.425
X195.4Y-109.425
X195.661Y-41.35
X195.661Y-42.15
X195.661Y-65.6
X195.661Y-65.6
X195.661Y-66.4
X195.661Y-66.4
X195.661Y-89.85
X195.661Y-90.65
X195.661Y-90.65
X195.661Y-114.1
X195.661Y-114.1
X195.661Y-114.9
X195.661Y-114.9
X196.9Y-36.725
X196.9Y-60.975
X196.9Y-60.975
X196.9Y-85.225
X196.9Y-109.475
X196.9Y-109.475
X197.367Y-32.515
X197.367Y-45.215
X197.367Y-47.755
X197.367Y-50.295
X197.367Y-52.835
X197.367Y-55.375
X197.367Y-57.915
X197.367Y-68.075
X197.367Y-70.615
X197.367Y-73.155
X197.367Y-75.695
X197.367Y-78.235
X197.367Y-80.775
X197.367Y-83.315
X197.367Y-93.475
X197.367Y-96.015
X197.367Y-98.555
X197.367Y-101.095
X197.367Y-103.635
X197.367Y-106.175
X197.367Y-121.415
X197.367Y-126.495
X198.4Y-36.675
X198.4Y-60.925
X198.4Y-60.925
X198.4Y-85.175
X198.4Y-109.425
X198.4Y-109.425
X199.907Y-32.515
X199.907Y-35.055
X199.907Y-118.875
X199.907Y-121.415
X199.907Y-126.495
X201.4Y-36.675
X201.4Y-60.925
X201.4Y-60.925
X201.4Y-85.175
X201.4Y-109.425
X201.4Y-109.425
X202.447Y-32.515
X202.447Y-35.055
X202.447Y-40.135
X202.447Y-45.215
X202.447Y-47.755
X202.447Y-50.295
X202.447Y-52.835
X202.447Y-55.375
X202.447Y-57.915
X202.447Y-65.535
X202.447Y-68.075
X202.447Y-70.615
X202.447Y-73.155
X202.447Y-75.695
X202.447Y-78.235
X202.447Y-80.775
X202.447Y-83.315
X202.447Y-88.395
X202.447Y-93.475
X202.447Y-96.015
X202.447Y-98.555
X202.447Y-101.095
X202.447Y-103.635
X202.447Y-106.175
X202.447Y-113.795
X202.447Y-116.335
X202.447Y-118.875
X202.447Y-126.495
X202.9Y-36.725
X202.9Y-60.975
X202.9Y-60.975
X202.9Y-85.225
X202.9Y-109.475
X202.9Y-109.475
X204.987Y-32.515
X204.987Y-35.055
X204.987Y-37.595
X204.987Y-40.135
X204.987Y-45.215
X204.987Y-47.755
X204.987Y-50.295
X204.987Y-52.835
X204.987Y-55.375
X204.987Y-57.915
X204.987Y-60.455
X204.987Y-62.995
X204.987Y-70.615
X204.987Y-73.155
X204.987Y-75.695
X204.987Y-78.235
X204.987Y-80.775
X204.987Y-83.315
X204.987Y-85.855
X204.987Y-88.395
X204.987Y-93.475
X204.987Y-96.015
X204.987Y-98.555
X204.987Y-101.095
X204.987Y-103.635
X204.987Y-106.175
X204.987Y-108.715
X204.987Y-111.255
X204.987Y-121.415
X204.987Y-126.495
X207.528Y-32.515
X207.528Y-35.055
X207.528Y-45.215
X207.528Y-47.755
X207.528Y-50.295
X207.528Y-52.835
X207.528Y-55.375
X207.528Y-57.915
X207.528Y-60.455
X207.528Y-65.535
X207.528Y-68.075
X207.528Y-70.615
X207.528Y-73.155
X207.528Y-75.695
X207.528Y-78.235
X207.528Y-80.775
X207.528Y-83.315
X207.528Y-93.475
X207.528Y-96.015
X207.528Y-98.555
X207.528Y-101.095
X207.528Y-103.635
X207.528Y-106.175
X207.528Y-108.715
X207.528Y-113.795
X207.528Y-118.875
X207.528Y-126.495
X208.31Y-37.925
X208.31Y-62.175
X208.31Y-62.175
X208.31Y-86.425
X208.31Y-86.425
X208.31Y-110.675
X208.31Y-110.675
X209.8Y-46.025
X209.8Y-47.575
X209.8Y-70.275
X209.8Y-70.275
X209.8Y-71.825
X209.8Y-71.825
X209.8Y-94.525
X209.8Y-94.525
X209.8Y-96.075
X209.8Y-96.075
X209.8Y-118.775
X209.8Y-118.775
X209.8Y-120.325
X209.8Y-120.325
X209.81Y-37.925
X209.81Y-62.175
X209.81Y-62.175
X209.81Y-86.425
X209.81Y-86.425
X209.81Y-110.675
X209.81Y-110.675
X210.067Y-32.515
X210.067Y-35.055
X210.067Y-123.955
X210.067Y-126.495
X211.29Y-37.875
X211.29Y-62.125
X211.29Y-62.125
X211.29Y-86.375
X211.29Y-86.375
X211.29Y-110.625
X211.29Y-110.625
X211.3Y-46.025
X211.3Y-70.275
X211.3Y-70.275
X211.3Y-94.525
X211.3Y-94.525
X211.3Y-118.775
X211.3Y-118.775
X212.607Y-32.515
X212.607Y-35.055
X212.607Y-50.295
X212.607Y-52.835
X212.607Y-55.375
X212.607Y-57.915
X212.607Y-60.455
X212.607Y-75.695
X212.607Y-78.235
X212.607Y-80.775
X212.607Y-83.315
X212.607Y-98.555
X212.607Y-101.095
X212.607Y-103.635
X212.607Y-106.175
X212.607Y-108.715
X212.607Y-123.955
X212.607Y-126.495
X212.8Y-47.625
X212.8Y-71.875
X212.8Y-96.125
X212.8Y-120.375
X212.8Y-120.375
X213.35Y-39.06
X213.35Y-63.31
X213.35Y-63.31
X213.35Y-87.56
X213.35Y-87.56
X213.35Y-111.81
X213.35Y-111.81
X214.17Y-42.35
X214.17Y-43.15
X214.17Y-66.6
X214.17Y-66.6
X214.17Y-67.4
X214.17Y-67.4
X214.17Y-90.85
X214.17Y-90.85
X214.17Y-91.65
X214.17Y-91.65
X214.17Y-115.1
X214.17Y-115.1
X214.17Y-115.9
X214.17Y-115.9
X214.85Y-34.5
X214.85Y-58.75
X214.85Y-58.75
X214.85Y-83.0
X214.85Y-83.0
X214.85Y-107.25
X214.85Y-107.25
X214.97Y-42.35
X214.97Y-43.15
X214.97Y-66.6
X214.97Y-66.6
X214.97Y-67.4
X214.97Y-67.4
X214.97Y-90.85
X214.97Y-90.85
X214.97Y-91.65
X214.97Y-91.65
X214.97Y-115.1
X214.97Y-115.1
X214.97Y-115.9
X214.97Y-115.9
X215.147Y-32.515
X215.147Y-45.215
X215.147Y-47.755
X215.147Y-50.295
X215.147Y-52.835
X215.147Y-55.375
X215.147Y-70.615
X215.147Y-73.155
X215.147Y-75.695
X215.147Y-78.235
X215.147Y-80.775
X215.147Y-93.475
X215.147Y-96.015
X215.147Y-98.555
X215.147Y-101.095
X215.147Y-103.635
X215.147Y-118.875
X215.147Y-121.415
X215.147Y-123.955
X215.147Y-126.495
X216.35Y-39.06
X216.35Y-63.31
X216.35Y-63.31
X216.35Y-87.56
X216.35Y-87.56
X216.35Y-111.81
X216.35Y-111.81
X217.688Y-32.515
X217.688Y-35.055
X217.688Y-45.215
X217.688Y-47.755
X217.688Y-50.295
X217.688Y-52.835
X217.688Y-55.375
X217.688Y-57.915
X217.688Y-70.615
X217.688Y-73.155
X217.688Y-75.695
X217.688Y-78.235
X217.688Y-80.775
X217.688Y-83.315
X217.688Y-93.475
X217.688Y-96.015
X217.688Y-98.555
X217.688Y-101.095
X217.688Y-103.635
X217.688Y-106.175
X217.688Y-118.875
X217.688Y-121.415
X217.688Y-123.955
X217.688Y-126.495
X218.55Y-37.225
X218.55Y-61.475
X218.55Y-61.475
X218.55Y-85.725
X218.55Y-85.725
X218.55Y-109.975
X218.55Y-109.975
X220.05Y-37.275
X220.05Y-61.525
X220.05Y-61.525
X220.05Y-85.775
X220.05Y-85.775
X220.05Y-110.025
X220.05Y-110.025
X220.227Y-32.515
X220.227Y-35.055
X220.227Y-40.135
X220.227Y-45.215
X220.227Y-47.755
X220.227Y-50.295
X220.227Y-52.835
X220.227Y-55.375
X220.227Y-57.915
X220.227Y-65.535
X220.227Y-70.615
X220.227Y-73.155
X220.227Y-75.695
X220.227Y-78.235
X220.227Y-80.775
X220.227Y-83.315
X220.227Y-93.475
X220.227Y-96.015
X220.227Y-98.555
X220.227Y-101.095
X220.227Y-103.635
X220.227Y-106.175
X220.227Y-113.795
X220.227Y-118.875
X220.227Y-121.415
X220.227Y-123.955
X220.227Y-126.495
X221.55Y-37.275
X221.55Y-61.525
X221.55Y-61.525
X221.55Y-85.775
X221.55Y-85.775
X221.55Y-110.025
X221.55Y-110.025
X222.767Y-32.515
X222.767Y-35.055
X222.767Y-40.135
X222.767Y-45.215
X222.767Y-47.755
X222.767Y-50.295
X222.767Y-52.835
X222.767Y-55.375
X222.767Y-57.915
X222.767Y-65.535
X222.767Y-70.615
X222.767Y-73.155
X222.767Y-75.695
X222.767Y-78.235
X222.767Y-80.775
X222.767Y-83.315
X222.767Y-93.475
X222.767Y-96.015
X222.767Y-98.555
X222.767Y-101.095
X222.767Y-103.635
X222.767Y-106.175
X222.767Y-113.795
X222.767Y-118.875
X222.767Y-121.415
X222.767Y-123.955
X222.767Y-126.495
X225.307Y-32.515
X225.307Y-35.055
X225.307Y-45.215
X225.307Y-50.295
X225.307Y-52.835
X225.307Y-55.375
X225.307Y-57.915
X225.307Y-60.455
X225.307Y-65.535
X225.307Y-73.155
X225.307Y-75.695
X225.307Y-78.235
X225.307Y-80.775
X225.307Y-83.315
X225.307Y-93.475
X225.307Y-98.555
X225.307Y-101.095
X225.307Y-103.635
X225.307Y-106.175
X225.307Y-108.715
X225.307Y-113.795
X225.307Y-123.955
X225.307Y-126.495
X225.7Y-47.25
X225.7Y-71.5
X225.7Y-71.5
X225.7Y-95.75
X225.7Y-95.75
X225.7Y-120.0
X225.7Y-120.0
X225.71Y-38.75
X225.71Y-63.0
X225.71Y-63.0
X225.71Y-87.25
X225.71Y-87.25
X225.71Y-111.5
X225.71Y-111.5
X226.55Y-47.25
X226.55Y-71.5
X226.55Y-71.5
X226.55Y-95.75
X226.55Y-95.75
X226.55Y-120.0
X226.55Y-120.0
X226.56Y-38.75
X226.56Y-63.0
X226.56Y-63.0
X226.56Y-87.25
X226.56Y-87.25
X226.56Y-111.5
X226.56Y-111.5
X227.4Y-47.25
X227.4Y-71.5
X227.4Y-71.5
X227.4Y-95.75
X227.4Y-95.75
X227.4Y-120.0
X227.4Y-120.0
X227.41Y-38.75
X227.41Y-63.0
X227.41Y-63.0
X227.41Y-87.25
X227.41Y-87.25
X227.41Y-111.5
X227.41Y-111.5
X227.847Y-32.515
X227.847Y-35.055
X227.847Y-45.215
X227.847Y-50.295
X227.847Y-52.835
X227.847Y-55.375
X227.847Y-57.915
X227.847Y-60.455
X227.847Y-65.535
X227.847Y-73.155
X227.847Y-75.695
X227.847Y-78.235
X227.847Y-80.775
X227.847Y-83.315
X227.847Y-93.475
X227.847Y-98.555
X227.847Y-101.095
X227.847Y-103.635
X227.847Y-106.175
X227.847Y-108.715
X227.847Y-113.795
X227.847Y-123.955
X227.847Y-126.495
X228.25Y-47.25
X228.25Y-71.5
X228.25Y-71.5
X228.25Y-95.75
X228.25Y-95.75
X228.25Y-120.0
X228.25Y-120.0
X228.26Y-38.75
X228.26Y-63.0
X228.26Y-63.0
X228.26Y-87.25
X228.26Y-87.25
X228.26Y-111.5
X228.26Y-111.5
X229.1Y-47.25
X229.1Y-71.5
X229.1Y-71.5
X229.1Y-95.75
X229.1Y-95.75
X229.1Y-120.0
X229.1Y-120.0
X229.11Y-38.75
X229.11Y-63.0
X229.11Y-63.0
X229.11Y-87.25
X229.11Y-87.25
X229.11Y-111.5
X229.11Y-111.5
T2
X84.935Y-35.99
X84.935Y-38.53
X84.935Y-41.07
X84.935Y-43.61
X84.935Y-46.15
X84.935Y-48.69
X84.935Y-51.23
X84.935Y-53.77
X85.2Y-105.6
X85.2Y-108.14
X85.2Y-110.68
X87.475Y-35.99
X87.475Y-38.53
X87.475Y-41.07
X87.475Y-43.61
X87.475Y-46.15
X87.475Y-48.69
X87.475Y-51.23
X87.475Y-53.77
X96.28Y-92.92
X96.28Y-121.92
X110.5Y-33.21
X110.5Y-35.75
X113.04Y-33.21
X113.04Y-35.75
X115.58Y-33.21
X115.58Y-35.75
X118.12Y-33.21
X118.12Y-35.75
X120.66Y-33.21
X120.66Y-35.75
X123.2Y-33.21
X123.2Y-35.75
X125.74Y-33.21
X125.74Y-35.75
X127.28Y-92.92
X127.28Y-121.92
X128.28Y-33.21
X128.28Y-35.75
X130.82Y-33.21
X130.82Y-35.75
X133.36Y-33.21
X133.36Y-35.75
X135.9Y-33.21
X135.9Y-35.75
X138.44Y-33.21
X138.44Y-35.75
M30
