%TF.GenerationSoftware,KiCad,Pcbnew,9.0.5*%
%TF.CreationDate,2025-10-11T15:57:33-05:00*%
%TF.ProjectId,RFSA3713-EVAL,52465341-3337-4313-932d-4556414c2e6b,rev?*%
%TF.SameCoordinates,Original*%
%TF.FileFunction,Copper,L1,Top*%
%TF.FilePolarity,Positive*%
%FSLAX46Y46*%
G04 Gerber Fmt 4.6, Leading zero omitted, Abs format (unit mm)*
G04 Created by KiCad (PCBNEW 9.0.5) date 2025-10-11 15:57:33*
%MOMM*%
%LPD*%
G01*
G04 APERTURE LIST*
G04 Aperture macros list*
%AMRoundRect*
0 Rectangle with rounded corners*
0 $1 Rounding radius*
0 $2 $3 $4 $5 $6 $7 $8 $9 X,Y pos of 4 corners*
0 Add a 4 corners polygon primitive as box body*
4,1,4,$2,$3,$4,$5,$6,$7,$8,$9,$2,$3,0*
0 Add four circle primitives for the rounded corners*
1,1,$1+$1,$2,$3*
1,1,$1+$1,$4,$5*
1,1,$1+$1,$6,$7*
1,1,$1+$1,$8,$9*
0 Add four rect primitives between the rounded corners*
20,1,$1+$1,$2,$3,$4,$5,0*
20,1,$1+$1,$4,$5,$6,$7,0*
20,1,$1+$1,$6,$7,$8,$9,0*
20,1,$1+$1,$8,$9,$2,$3,0*%
G04 Aperture macros list end*
%TA.AperFunction,Conductor*%
%ADD10C,0.200000*%
%TD*%
%TA.AperFunction,SMDPad,CuDef*%
%ADD11RoundRect,0.135000X-0.135000X-0.185000X0.135000X-0.185000X0.135000X0.185000X-0.135000X0.185000X0*%
%TD*%
%TA.AperFunction,SMDPad,CuDef*%
%ADD12RoundRect,0.140000X0.170000X-0.140000X0.170000X0.140000X-0.170000X0.140000X-0.170000X-0.140000X0*%
%TD*%
%TA.AperFunction,SMDPad,CuDef*%
%ADD13R,5.080000X1.500000*%
%TD*%
%TA.AperFunction,SMDPad,CuDef*%
%ADD14RoundRect,0.140000X-0.140000X-0.170000X0.140000X-0.170000X0.140000X0.170000X-0.140000X0.170000X0*%
%TD*%
%TA.AperFunction,SMDPad,CuDef*%
%ADD15RoundRect,0.250000X0.375000X1.000000X-0.375000X1.000000X-0.375000X-1.000000X0.375000X-1.000000X0*%
%TD*%
%TA.AperFunction,SMDPad,CuDef*%
%ADD16RoundRect,0.135000X0.185000X-0.135000X0.185000X0.135000X-0.185000X0.135000X-0.185000X-0.135000X0*%
%TD*%
%TA.AperFunction,SMDPad,CuDef*%
%ADD17R,0.850000X0.300000*%
%TD*%
%TA.AperFunction,SMDPad,CuDef*%
%ADD18R,0.300000X0.850000*%
%TD*%
%TA.AperFunction,SMDPad,CuDef*%
%ADD19R,1.700000X1.700000*%
%TD*%
%TA.AperFunction,ComponentPad*%
%ADD20R,1.350000X1.350000*%
%TD*%
%TA.AperFunction,ComponentPad*%
%ADD21C,1.350000*%
%TD*%
%TA.AperFunction,SMDPad,CuDef*%
%ADD22RoundRect,0.140000X-0.170000X0.140000X-0.170000X-0.140000X0.170000X-0.140000X0.170000X0.140000X0*%
%TD*%
%TA.AperFunction,ViaPad*%
%ADD23C,0.600000*%
%TD*%
%TA.AperFunction,ViaPad*%
%ADD24C,0.457200*%
%TD*%
%TA.AperFunction,ViaPad*%
%ADD25C,0.450000*%
%TD*%
%TA.AperFunction,Conductor*%
%ADD26C,0.995680*%
%TD*%
G04 APERTURE END LIST*
D10*
%TO.N,Net-(AT1-RFOUT)*%
X200538139Y-61919009D02*
X199800000Y-61919009D01*
%TO.N,Net-(AT1-RFIN)*%
X196430000Y-61860000D02*
X196430000Y-61960000D01*
X195600000Y-62290000D01*
X195590000Y-61520000D01*
X196430000Y-61860000D01*
%TA.AperFunction,Conductor*%
G36*
X196430000Y-61860000D02*
G01*
X196430000Y-61960000D01*
X195600000Y-62290000D01*
X195590000Y-61520000D01*
X196430000Y-61860000D01*
G37*
%TD.AperFunction*%
%TO.N,VDD*%
X193760000Y-55200000D02*
X188800000Y-50600000D01*
X188800000Y-50600000D02*
X188800000Y-48000000D01*
%TO.N,Net-(AT1-RFOUT)*%
X200958139Y-62304009D02*
X200118139Y-61964009D01*
X200118139Y-61864009D01*
X200948139Y-61534009D01*
X200958139Y-62304009D01*
%TA.AperFunction,Conductor*%
G36*
X200958139Y-62304009D02*
G01*
X200118139Y-61964009D01*
X200118139Y-61864009D01*
X200948139Y-61534009D01*
X200958139Y-62304009D01*
G37*
%TD.AperFunction*%
%TD*%
D11*
%TO.P,R3,1*%
%TO.N,Net-(AT1-LE)*%
X205140000Y-59420000D03*
%TO.P,R3,2*%
%TO.N,LE*%
X206160000Y-59420000D03*
%TD*%
D12*
%TO.P,C2,1*%
%TO.N,GND*%
X194860000Y-56120000D03*
%TO.P,C2,2*%
%TO.N,VDD*%
X194860000Y-55160000D03*
%TD*%
D13*
%TO.P,J1,1,In*%
%TO.N,Net-(AT1-RFIN)*%
X177082500Y-61910000D03*
%TO.P,J1,2,Ext*%
%TO.N,GND*%
X177082500Y-66160000D03*
X177082500Y-57660000D03*
%TD*%
D14*
%TO.P,C3,1*%
%TO.N,Net-(AT1-SI)*%
X198750000Y-57460000D03*
%TO.P,C3,2*%
%TO.N,GND*%
X199710000Y-57460000D03*
%TD*%
D15*
%TO.P,SW1,1,A*%
%TO.N,VDD*%
X188740000Y-48090000D03*
%TO.P,SW1,2,B*%
%TO.N,A0*%
X186240000Y-48090000D03*
%TO.P,SW1,3,C*%
%TO.N,GND*%
X183740000Y-48090000D03*
%TD*%
%TO.P,SW3,1,A*%
%TO.N,VDD*%
X199320000Y-48020000D03*
%TO.P,SW3,2,B*%
%TO.N,A2*%
X196820000Y-48020000D03*
%TO.P,SW3,3,C*%
%TO.N,GND*%
X194320000Y-48020000D03*
%TD*%
D16*
%TO.P,R2,1*%
%TO.N,Net-(AT1-SI)*%
X198790000Y-56520000D03*
%TO.P,R2,2*%
%TO.N,SI*%
X198790000Y-55500000D03*
%TD*%
D13*
%TO.P,J2,1,In*%
%TO.N,Net-(AT1-RFOUT)*%
X224607500Y-61910000D03*
%TO.P,J2,2,Ext*%
%TO.N,GND*%
X224607500Y-57660000D03*
X224607500Y-66160000D03*
%TD*%
%TO.P,J5,1,In*%
%TO.N,Net-(J4-In)*%
X224607500Y-77270000D03*
%TO.P,J5,2,Ext*%
%TO.N,GND*%
X224607500Y-73020000D03*
X224607500Y-81520000D03*
%TD*%
D17*
%TO.P,AT1,1,VDD*%
%TO.N,VDD*%
X196850000Y-60410000D03*
%TO.P,AT1,2,A0*%
%TO.N,A0*%
X196850000Y-60910000D03*
%TO.P,AT1,3,GND_1*%
%TO.N,GND*%
X196850000Y-61410000D03*
%TO.P,AT1,4,RFIN*%
%TO.N,Net-(AT1-RFIN)*%
X196850000Y-61910000D03*
D18*
%TO.P,AT1,5,GND_2*%
%TO.N,GND*%
X197550000Y-62610000D03*
%TO.P,AT1,6,GND_3*%
X198050000Y-62610000D03*
%TO.P,AT1,7,GND_4*%
X198550000Y-62610000D03*
%TO.P,AT1,8,GND_5*%
X199050000Y-62610000D03*
D17*
%TO.P,AT1,9,RFOUT*%
%TO.N,Net-(AT1-RFOUT)*%
X199750000Y-61910000D03*
%TO.P,AT1,10,GND_6*%
%TO.N,GND*%
X199750000Y-61410000D03*
%TO.P,AT1,11,GND_7*%
X199750000Y-60910000D03*
%TO.P,AT1,12,LE*%
%TO.N,Net-(AT1-LE)*%
X199750000Y-60410000D03*
D18*
%TO.P,AT1,13,CLK*%
%TO.N,Net-(AT1-CLK)*%
X199050000Y-59710000D03*
%TO.P,AT1,14,SI*%
%TO.N,Net-(AT1-SI)*%
X198550000Y-59710000D03*
%TO.P,AT1,15,A1*%
%TO.N,A1*%
X198050000Y-59710000D03*
%TO.P,AT1,16,A2*%
%TO.N,A2*%
X197550000Y-59710000D03*
D19*
%TO.P,AT1,17,EP*%
%TO.N,GND*%
X198300000Y-61160000D03*
%TD*%
D13*
%TO.P,J4,1,In*%
%TO.N,Net-(J4-In)*%
X177082500Y-77270000D03*
%TO.P,J4,2,Ext*%
%TO.N,GND*%
X177082500Y-81520000D03*
X177082500Y-73020000D03*
%TD*%
D11*
%TO.P,R1,1*%
%TO.N,Net-(AT1-CLK)*%
X201950000Y-58500000D03*
%TO.P,R1,2*%
%TO.N,CLK*%
X202970000Y-58500000D03*
%TD*%
D20*
%TO.P,J6,1,Pin_1*%
%TO.N,VDD*%
X216750000Y-45895000D03*
D21*
%TO.P,J6,2,Pin_2*%
X216750000Y-43895000D03*
%TO.P,J6,3,Pin_3*%
%TO.N,GND*%
X218750000Y-45895000D03*
%TO.P,J6,4,Pin_4*%
X218750000Y-43895000D03*
%TO.P,J6,5,Pin_5*%
%TO.N,SI*%
X220750000Y-45895000D03*
%TO.P,J6,6,Pin_6*%
X220750000Y-43895000D03*
%TO.P,J6,7,Pin_7*%
%TO.N,CLK*%
X222750000Y-45895000D03*
%TO.P,J6,8,Pin_8*%
X222750000Y-43895000D03*
%TO.P,J6,9,Pin_9*%
%TO.N,LE*%
X224750000Y-45895000D03*
%TO.P,J6,10,Pin_10*%
X224750000Y-43895000D03*
%TD*%
D12*
%TO.P,C1,1*%
%TO.N,GND*%
X193760000Y-56130000D03*
%TO.P,C1,2*%
%TO.N,VDD*%
X193760000Y-55170000D03*
%TD*%
D15*
%TO.P,SW2,1,A*%
%TO.N,VDD*%
X210000000Y-48020000D03*
%TO.P,SW2,2,B*%
%TO.N,A1*%
X207500000Y-48020000D03*
%TO.P,SW2,3,C*%
%TO.N,GND*%
X205000000Y-48020000D03*
%TD*%
D12*
%TO.P,C4,1*%
%TO.N,GND*%
X200940000Y-59430000D03*
%TO.P,C4,2*%
%TO.N,Net-(AT1-CLK)*%
X200940000Y-58470000D03*
%TD*%
D22*
%TO.P,C5,1*%
%TO.N,GND*%
X204140000Y-58470000D03*
%TO.P,C5,2*%
%TO.N,Net-(AT1-LE)*%
X204140000Y-59430000D03*
%TD*%
D23*
%TO.N,GND*%
X186184000Y-60800000D03*
X209004000Y-63050000D03*
D24*
X198300000Y-60652000D03*
D23*
X214084000Y-63050000D03*
X213146000Y-60800000D03*
X177000000Y-73000000D03*
X198618000Y-78400000D03*
X202908000Y-63050000D03*
X223100000Y-66200000D03*
X186154000Y-63050000D03*
X226100000Y-57600000D03*
D24*
X197792000Y-61160000D03*
X198300000Y-61160000D03*
D23*
X218938000Y-78400000D03*
X210098000Y-60800000D03*
X200940000Y-59430000D03*
X215100000Y-63050000D03*
X209794000Y-76000000D03*
X190218000Y-63050000D03*
X176250000Y-66200000D03*
X196586000Y-78400000D03*
X182362000Y-76000000D03*
X200650000Y-78400000D03*
X204940000Y-63050000D03*
X219954000Y-76000000D03*
X183136000Y-60800000D03*
X203698000Y-76000000D03*
X203924000Y-63050000D03*
X205018000Y-60800000D03*
X216194000Y-60800000D03*
X204714000Y-78400000D03*
X209794000Y-78400000D03*
X198618000Y-76000000D03*
X210810000Y-78400000D03*
X215890000Y-76000000D03*
X223850000Y-66200000D03*
X223100000Y-57600000D03*
X204714000Y-76000000D03*
X213858000Y-78400000D03*
D25*
X197550000Y-62550000D03*
D23*
X225350000Y-81600000D03*
X193296000Y-60800000D03*
X207988000Y-63050000D03*
D24*
X198808000Y-60652000D03*
D23*
X212842000Y-76000000D03*
X183378000Y-78400000D03*
X216116000Y-63050000D03*
X208066000Y-60800000D03*
X217922000Y-76000000D03*
X218226000Y-60800000D03*
X211114000Y-60800000D03*
X194860000Y-56120000D03*
X207762000Y-78400000D03*
D24*
X198300000Y-61668000D03*
D23*
X178500000Y-66200000D03*
X190490000Y-78400000D03*
X225350000Y-66200000D03*
X191506000Y-76000000D03*
X184394000Y-78400000D03*
X204140000Y-58470000D03*
X189202000Y-63050000D03*
D25*
X198550000Y-62550000D03*
D23*
X175582500Y-57660000D03*
X183378000Y-76000000D03*
X218148000Y-63050000D03*
X193538000Y-78400000D03*
X193760000Y-56130000D03*
X225350000Y-73000000D03*
X190490000Y-76000000D03*
X192280000Y-60800000D03*
X224600000Y-66200000D03*
X202682000Y-76000000D03*
X217922000Y-78400000D03*
X194554000Y-76000000D03*
X206746000Y-76000000D03*
X206034000Y-60800000D03*
D24*
X198808000Y-61668000D03*
D23*
X184152000Y-60800000D03*
X214874000Y-76000000D03*
X188458000Y-76000000D03*
X177000000Y-81400000D03*
X203698000Y-78400000D03*
X188216000Y-60800000D03*
X177750000Y-81400000D03*
X192250000Y-63050000D03*
X207762000Y-76000000D03*
X191264000Y-60800000D03*
X184122000Y-63050000D03*
X194282000Y-63050000D03*
X217210000Y-60800000D03*
X178500000Y-73000000D03*
X182120000Y-60800000D03*
X185410000Y-78400000D03*
X212842000Y-78400000D03*
X187442000Y-76000000D03*
D25*
X199800000Y-61400000D03*
D23*
X211826000Y-78400000D03*
X175500000Y-73000000D03*
X192522000Y-76000000D03*
X205000000Y-48020000D03*
X213068000Y-63050000D03*
X223100000Y-81600000D03*
X193266000Y-63050000D03*
D24*
X198808000Y-61160000D03*
D23*
X177000000Y-66200000D03*
X181074000Y-63050000D03*
X195298000Y-63050000D03*
X185410000Y-76000000D03*
X224600000Y-73000000D03*
X189232000Y-60800000D03*
X208778000Y-76000000D03*
X209082000Y-60800000D03*
X178582500Y-57660000D03*
X188186000Y-63050000D03*
X184394000Y-76000000D03*
X183740000Y-48090000D03*
X224600000Y-81600000D03*
X196586000Y-76000000D03*
X175500000Y-81400000D03*
X215178000Y-60800000D03*
X191234000Y-63050000D03*
X181346000Y-78400000D03*
X176332500Y-57660000D03*
X191506000Y-78400000D03*
X201666000Y-76000000D03*
D25*
X196800000Y-61400000D03*
D23*
X199634000Y-76000000D03*
X187170000Y-63050000D03*
D25*
X198050000Y-62550000D03*
D23*
X225350000Y-57600000D03*
X220180000Y-63050000D03*
D24*
X197792000Y-60652000D03*
D23*
X190248000Y-60800000D03*
X219242000Y-60800000D03*
X219164000Y-63050000D03*
X186426000Y-78400000D03*
X210810000Y-76000000D03*
X223850000Y-57600000D03*
D25*
X199050000Y-62550000D03*
D23*
X176250000Y-73000000D03*
X197602000Y-78400000D03*
X212052000Y-63050000D03*
X226100000Y-66200000D03*
X177832500Y-57660000D03*
X177750000Y-73000000D03*
X176250000Y-81400000D03*
X206972000Y-63050000D03*
X211826000Y-76000000D03*
X202682000Y-78400000D03*
X208778000Y-78400000D03*
X199634000Y-78400000D03*
X223100000Y-73000000D03*
X226100000Y-81600000D03*
X193538000Y-76000000D03*
X205956000Y-63050000D03*
X181346000Y-76000000D03*
D24*
X197792000Y-61668000D03*
D23*
X210020000Y-63050000D03*
X223850000Y-73000000D03*
X201892000Y-63050000D03*
X181104000Y-60800000D03*
X226100000Y-73000000D03*
X214162000Y-60800000D03*
X215890000Y-78400000D03*
X218938000Y-76000000D03*
X223850000Y-81600000D03*
X194320000Y-48020000D03*
X187442000Y-78400000D03*
X185168000Y-60800000D03*
X197602000Y-76000000D03*
X186426000Y-76000000D03*
X217132000Y-63050000D03*
X194554000Y-78400000D03*
X195570000Y-76000000D03*
X216906000Y-78400000D03*
X175500000Y-66200000D03*
X206746000Y-78400000D03*
X189474000Y-78400000D03*
X183106000Y-63050000D03*
X177082500Y-57660000D03*
X178500000Y-81400000D03*
X224600000Y-57600000D03*
X189474000Y-76000000D03*
X207050000Y-60800000D03*
X205730000Y-78400000D03*
D25*
X199800000Y-60900000D03*
D23*
X200650000Y-76000000D03*
X182362000Y-78400000D03*
X187200000Y-60800000D03*
X177750000Y-66200000D03*
X216906000Y-76000000D03*
X219954000Y-78400000D03*
X211036000Y-63050000D03*
X212130000Y-60800000D03*
X201666000Y-78400000D03*
X205730000Y-76000000D03*
X188458000Y-78400000D03*
X185138000Y-63050000D03*
X214874000Y-78400000D03*
X213858000Y-76000000D03*
X195570000Y-78400000D03*
X199710000Y-57460000D03*
X192522000Y-78400000D03*
X182090000Y-63050000D03*
%TD*%
D10*
%TO.N,Net-(AT1-SI)*%
X198550000Y-59710000D02*
X198550000Y-57660000D01*
X198550000Y-57660000D02*
X198750000Y-57460000D01*
%TO.N,Net-(AT1-RFIN)*%
X196850000Y-61910000D02*
X195490000Y-61910000D01*
D26*
X177082500Y-61910000D02*
X195490000Y-61910000D01*
D10*
%TO.N,GND*%
X218750000Y-45895000D02*
X218750000Y-46439660D01*
%TO.N,Net-(AT1-SI)*%
X198790000Y-57420000D02*
X198750000Y-57460000D01*
X198790000Y-56520000D02*
X198790000Y-57420000D01*
%TO.N,VDD*%
X196419000Y-56719000D02*
X196419000Y-59146100D01*
X196850000Y-59577100D02*
X196850000Y-60410000D01*
X213551000Y-44469000D02*
X202871000Y-44469000D01*
X213551000Y-44469000D02*
X210000000Y-48020000D01*
X213651000Y-44469000D02*
X214225000Y-43895000D01*
X194860000Y-55160000D02*
X196419000Y-56719000D01*
X202871000Y-44469000D02*
X199320000Y-48020000D01*
X193760000Y-55170000D02*
X194850000Y-55170000D01*
X213551000Y-44469000D02*
X213651000Y-44469000D01*
X196419000Y-59146100D02*
X196850000Y-59577100D01*
X202871000Y-44469000D02*
X192361000Y-44469000D01*
X216750000Y-45895000D02*
X216750000Y-43895000D01*
X214225000Y-43895000D02*
X216750000Y-43895000D01*
X192361000Y-44469000D02*
X188740000Y-48090000D01*
X194850000Y-55170000D02*
X194860000Y-55160000D01*
%TO.N,Net-(AT1-CLK)*%
X200940000Y-58470000D02*
X201840000Y-58470000D01*
X201840000Y-58470000D02*
X201880000Y-58510000D01*
X200940000Y-58470000D02*
X200290000Y-58470000D01*
X200290000Y-58470000D02*
X199050000Y-59710000D01*
%TO.N,A2*%
X196820000Y-58980000D02*
X197550000Y-59710000D01*
X196820000Y-48020000D02*
X196820000Y-58980000D01*
%TO.N,Net-(AT1-RFOUT)*%
X199750000Y-61910000D02*
X199759009Y-61919009D01*
X224598491Y-61919009D02*
X224607500Y-61910000D01*
X200547148Y-61910000D02*
X200538139Y-61919009D01*
D26*
X224607500Y-61910000D02*
X201070000Y-61910000D01*
D10*
%TO.N,A1*%
X198050000Y-59710000D02*
X198050000Y-52610000D01*
X198050000Y-52610000D02*
X200530000Y-50130000D01*
X200530000Y-50130000D02*
X205390000Y-50130000D01*
X205390000Y-50130000D02*
X207500000Y-48020000D01*
%TO.N,Net-(AT1-LE)*%
X203160000Y-60410000D02*
X199750000Y-60410000D01*
X205140000Y-59420000D02*
X204150000Y-59420000D01*
X204150000Y-59420000D02*
X204140000Y-59430000D01*
X204140000Y-59430000D02*
X203160000Y-60410000D01*
%TO.N,A0*%
X196124000Y-60861000D02*
X196850000Y-60861000D01*
X186240000Y-48090000D02*
X186240000Y-50110000D01*
X196124000Y-59994000D02*
X196124000Y-60861000D01*
X196850000Y-60861000D02*
X196850000Y-60910000D01*
X186240000Y-50110000D02*
X196124000Y-59994000D01*
D26*
%TO.N,Net-(J4-In)*%
X177082500Y-77270000D02*
X224607500Y-77270000D01*
D10*
%TO.N,CLK*%
X222750000Y-43895000D02*
X222750000Y-45895000D01*
X210434170Y-50975830D02*
X217669170Y-50975830D01*
X202900000Y-58510000D02*
X210434170Y-50975830D01*
X217669170Y-50975830D02*
X222750000Y-45895000D01*
%TO.N,SI*%
X203715170Y-50574830D02*
X216070170Y-50574830D01*
X216070170Y-50574830D02*
X220750000Y-45895000D01*
X198790000Y-55500000D02*
X203715170Y-50574830D01*
X220750000Y-45895000D02*
X220750000Y-46063140D01*
X220750000Y-43895000D02*
X220750000Y-45895000D01*
%TO.N,LE*%
X206160000Y-59420000D02*
X211225000Y-59420000D01*
X224750000Y-43895000D02*
X224750000Y-45895000D01*
X211225000Y-59420000D02*
X224750000Y-45895000D01*
%TD*%
%TA.AperFunction,Conductor*%
%TO.N,GND*%
G36*
X220995764Y-77970905D02*
G01*
X221041519Y-78023709D01*
X221052725Y-78075220D01*
X221052725Y-81286000D01*
X221033040Y-81353039D01*
X220980236Y-81398794D01*
X220928725Y-81410000D01*
X180716725Y-81410000D01*
X180649686Y-81390315D01*
X180603931Y-81337511D01*
X180592725Y-81286000D01*
X180592725Y-78075220D01*
X180612410Y-78008181D01*
X180665214Y-77962426D01*
X180716725Y-77951220D01*
X220928725Y-77951220D01*
X220995764Y-77970905D01*
G37*
%TD.AperFunction*%
%TD*%
%TA.AperFunction,Conductor*%
%TO.N,GND*%
G36*
X220991112Y-73209685D02*
G01*
X221036867Y-73262489D01*
X221048073Y-73314000D01*
X221048073Y-76464780D01*
X221028388Y-76531819D01*
X220975584Y-76577574D01*
X220924073Y-76588780D01*
X180712073Y-76588780D01*
X180645034Y-76569095D01*
X180599279Y-76516291D01*
X180588073Y-76464780D01*
X180588073Y-73314000D01*
X180607758Y-73246961D01*
X180660562Y-73201206D01*
X180712073Y-73190000D01*
X220924073Y-73190000D01*
X220991112Y-73209685D01*
G37*
%TD.AperFunction*%
%TD*%
%TA.AperFunction,Conductor*%
%TO.N,GND*%
G36*
X200794937Y-62549058D02*
G01*
X200849941Y-62571322D01*
X200882829Y-62582382D01*
X200988474Y-62590789D01*
X200988475Y-62590788D01*
X200996813Y-62591452D01*
X200996813Y-62591220D01*
X220988725Y-62591220D01*
X221055764Y-62610905D01*
X221101519Y-62663709D01*
X221112725Y-62715220D01*
X221112725Y-65996000D01*
X221093040Y-66063039D01*
X221040236Y-66108794D01*
X220988725Y-66120000D01*
X180776725Y-66120000D01*
X180709686Y-66100315D01*
X180663931Y-66047511D01*
X180652725Y-65996000D01*
X180652725Y-63082844D01*
X196900000Y-63082844D01*
X196906401Y-63142372D01*
X196906403Y-63142379D01*
X196956645Y-63277086D01*
X196956649Y-63277093D01*
X197042809Y-63392187D01*
X197042812Y-63392190D01*
X197157906Y-63478350D01*
X197157913Y-63478354D01*
X197292620Y-63528596D01*
X197292627Y-63528598D01*
X197352155Y-63534999D01*
X197352172Y-63535000D01*
X197400000Y-63535000D01*
X197700000Y-63535000D01*
X197747821Y-63535000D01*
X197747831Y-63534999D01*
X197786742Y-63530815D01*
X197813258Y-63530815D01*
X197852168Y-63534999D01*
X197852179Y-63535000D01*
X197900000Y-63535000D01*
X198200000Y-63535000D01*
X198247821Y-63535000D01*
X198247831Y-63534999D01*
X198286742Y-63530815D01*
X198313258Y-63530815D01*
X198352168Y-63534999D01*
X198352179Y-63535000D01*
X198400000Y-63535000D01*
X198700000Y-63535000D01*
X198747821Y-63535000D01*
X198747831Y-63534999D01*
X198786742Y-63530815D01*
X198813258Y-63530815D01*
X198852168Y-63534999D01*
X198852179Y-63535000D01*
X198900000Y-63535000D01*
X199200000Y-63535000D01*
X199247828Y-63535000D01*
X199247844Y-63534999D01*
X199307372Y-63528598D01*
X199307379Y-63528596D01*
X199442086Y-63478354D01*
X199442093Y-63478350D01*
X199557187Y-63392190D01*
X199557190Y-63392187D01*
X199643350Y-63277093D01*
X199643354Y-63277086D01*
X199693596Y-63142379D01*
X199693598Y-63142372D01*
X199699999Y-63082844D01*
X199700000Y-63082827D01*
X199700000Y-62760000D01*
X199200000Y-62760000D01*
X199200000Y-63535000D01*
X198900000Y-63535000D01*
X198900000Y-62760000D01*
X198700000Y-62760000D01*
X198700000Y-63535000D01*
X198400000Y-63535000D01*
X198400000Y-62760000D01*
X198200000Y-62760000D01*
X198200000Y-63535000D01*
X197900000Y-63535000D01*
X197900000Y-62760000D01*
X197700000Y-62760000D01*
X197700000Y-63535000D01*
X197400000Y-63535000D01*
X197400000Y-62760000D01*
X196900000Y-62760000D01*
X196900000Y-63082844D01*
X180652725Y-63082844D01*
X180652725Y-62715220D01*
X180672410Y-62648181D01*
X180725214Y-62602426D01*
X180776725Y-62591220D01*
X195557095Y-62591220D01*
X195557096Y-62591219D01*
X195688705Y-62565041D01*
X195697762Y-62561288D01*
X195699982Y-62560394D01*
X195705780Y-62558125D01*
X195706545Y-62557976D01*
X195730119Y-62548602D01*
X195730324Y-62548523D01*
X195731566Y-62548414D01*
X195775503Y-62540000D01*
X196770000Y-62540000D01*
X199830000Y-62540000D01*
X200748414Y-62540000D01*
X200794937Y-62549058D01*
G37*
%TD.AperFunction*%
%TD*%
%TA.AperFunction,Conductor*%
%TO.N,GND*%
G36*
X204805419Y-59859685D02*
G01*
X204810536Y-59863809D01*
X204810681Y-59863603D01*
X204819565Y-59869823D01*
X204819567Y-59869825D01*
X204921326Y-59917276D01*
X204967690Y-59923380D01*
X204967697Y-59923380D01*
X205312303Y-59923380D01*
X205312310Y-59923380D01*
X205358674Y-59917276D01*
X205460433Y-59869825D01*
X205460437Y-59869820D01*
X205469319Y-59863603D01*
X205471506Y-59866726D01*
X205480866Y-59861615D01*
X205506685Y-59845023D01*
X205512885Y-59844131D01*
X205515262Y-59842834D01*
X205541620Y-59840000D01*
X205758380Y-59840000D01*
X205825419Y-59859685D01*
X205830536Y-59863809D01*
X205830681Y-59863603D01*
X205839565Y-59869823D01*
X205839567Y-59869825D01*
X205941326Y-59917276D01*
X205987690Y-59923380D01*
X205987697Y-59923380D01*
X206332303Y-59923380D01*
X206332310Y-59923380D01*
X206378674Y-59917276D01*
X206480433Y-59869825D01*
X206480437Y-59869820D01*
X206489319Y-59863603D01*
X206491506Y-59866726D01*
X206535262Y-59842834D01*
X206561620Y-59840000D01*
X221066891Y-59840000D01*
X221133930Y-59859685D01*
X221179685Y-59912489D01*
X221190891Y-59964000D01*
X221190891Y-61104780D01*
X221171206Y-61171819D01*
X221118402Y-61217574D01*
X221066891Y-61228780D01*
X201002906Y-61228780D01*
X200979081Y-61233519D01*
X200909489Y-61227290D01*
X200854312Y-61184427D01*
X200831069Y-61118536D01*
X200830891Y-61111901D01*
X200830891Y-60817380D01*
X200850576Y-60750341D01*
X200903380Y-60704586D01*
X200954891Y-60693380D01*
X203197306Y-60693380D01*
X203197308Y-60693380D01*
X203254138Y-60678151D01*
X203254146Y-60678151D01*
X203254146Y-60678149D01*
X203258232Y-60677054D01*
X203269381Y-60674068D01*
X203333999Y-60636761D01*
X204041060Y-59929697D01*
X204102383Y-59896213D01*
X204128741Y-59893379D01*
X204347896Y-59893379D01*
X204363592Y-59891312D01*
X204394988Y-59887180D01*
X204471251Y-59851617D01*
X204482254Y-59849178D01*
X204488721Y-59845023D01*
X204523656Y-59840000D01*
X204738380Y-59840000D01*
X204805419Y-59859685D01*
G37*
%TD.AperFunction*%
%TD*%
%TA.AperFunction,Conductor*%
%TO.N,GND*%
G36*
X195203930Y-59789685D02*
G01*
X195249685Y-59842489D01*
X195260891Y-59894000D01*
X195260891Y-61104780D01*
X195241206Y-61171819D01*
X195188402Y-61217574D01*
X195136891Y-61228780D01*
X180794891Y-61228780D01*
X180727852Y-61209095D01*
X180682097Y-61156291D01*
X180670891Y-61104780D01*
X180670891Y-59894000D01*
X180690576Y-59826961D01*
X180743380Y-59781206D01*
X180794891Y-59770000D01*
X195136891Y-59770000D01*
X195203930Y-59789685D01*
G37*
%TD.AperFunction*%
%TD*%
M02*
