%TF.GenerationSoftware,KiCad,Pcbnew,9.0.5*%
%TF.CreationDate,2025-10-11T15:57:34-05:00*%
%TF.ProjectId,RFSA3713-EVAL,52465341-3337-4313-932d-4556414c2e6b,rev?*%
%TF.SameCoordinates,Original*%
%TF.FileFunction,Legend,Top*%
%TF.FilePolarity,Positive*%
%FSLAX46Y46*%
G04 Gerber Fmt 4.6, Leading zero omitted, Abs format (unit mm)*
G04 Created by KiCad (PCBNEW 9.0.5) date 2025-10-11 15:57:34*
%MOMM*%
%LPD*%
G01*
G04 APERTURE LIST*
G04 Aperture macros list*
%AMRoundRect*
0 Rectangle with rounded corners*
0 $1 Rounding radius*
0 $2 $3 $4 $5 $6 $7 $8 $9 X,Y pos of 4 corners*
0 Add a 4 corners polygon primitive as box body*
4,1,4,$2,$3,$4,$5,$6,$7,$8,$9,$2,$3,0*
0 Add four circle primitives for the rounded corners*
1,1,$1+$1,$2,$3*
1,1,$1+$1,$4,$5*
1,1,$1+$1,$6,$7*
1,1,$1+$1,$8,$9*
0 Add four rect primitives between the rounded corners*
20,1,$1+$1,$2,$3,$4,$5,0*
20,1,$1+$1,$4,$5,$6,$7,0*
20,1,$1+$1,$6,$7,$8,$9,0*
20,1,$1+$1,$8,$9,$2,$3,0*%
G04 Aperture macros list end*
%ADD10C,0.100000*%
%ADD11C,0.150000*%
%ADD12C,0.254000*%
%ADD13C,0.120000*%
%ADD14C,0.250000*%
%ADD15RoundRect,0.135000X-0.135000X-0.185000X0.135000X-0.185000X0.135000X0.185000X-0.135000X0.185000X0*%
%ADD16RoundRect,0.140000X0.170000X-0.140000X0.170000X0.140000X-0.170000X0.140000X-0.170000X-0.140000X0*%
%ADD17R,5.080000X1.500000*%
%ADD18RoundRect,0.140000X-0.140000X-0.170000X0.140000X-0.170000X0.140000X0.170000X-0.140000X0.170000X0*%
%ADD19C,0.900000*%
%ADD20RoundRect,0.250000X0.375000X1.000000X-0.375000X1.000000X-0.375000X-1.000000X0.375000X-1.000000X0*%
%ADD21RoundRect,0.135000X0.185000X-0.135000X0.185000X0.135000X-0.185000X0.135000X-0.185000X-0.135000X0*%
%ADD22R,0.850000X0.300000*%
%ADD23R,0.300000X0.850000*%
%ADD24R,1.700000X1.700000*%
%ADD25R,1.350000X1.350000*%
%ADD26C,1.350000*%
%ADD27RoundRect,0.140000X-0.170000X0.140000X-0.170000X-0.140000X0.170000X-0.140000X0.170000X0.140000X0*%
G04 APERTURE END LIST*
D10*
X206496265Y-42216704D02*
X206972455Y-42216704D01*
X206401027Y-42502419D02*
X206734360Y-41502419D01*
X206734360Y-41502419D02*
X207067693Y-42502419D01*
X207924836Y-42502419D02*
X207353408Y-42502419D01*
X207639122Y-42502419D02*
X207639122Y-41502419D01*
X207639122Y-41502419D02*
X207543884Y-41645276D01*
X207543884Y-41645276D02*
X207448646Y-41740514D01*
X207448646Y-41740514D02*
X207353408Y-41788133D01*
X197731027Y-81942419D02*
X198302455Y-81942419D01*
X198016741Y-82942419D02*
X198016741Y-81942419D01*
X198635789Y-82942419D02*
X198635789Y-81942419D01*
X199064360Y-82942419D02*
X199064360Y-82418609D01*
X199064360Y-82418609D02*
X199016741Y-82323371D01*
X199016741Y-82323371D02*
X198921503Y-82275752D01*
X198921503Y-82275752D02*
X198778646Y-82275752D01*
X198778646Y-82275752D02*
X198683408Y-82323371D01*
X198683408Y-82323371D02*
X198635789Y-82370990D01*
X199540551Y-82942419D02*
X199540551Y-82275752D01*
X199540551Y-82466228D02*
X199588170Y-82370990D01*
X199588170Y-82370990D02*
X199635789Y-82323371D01*
X199635789Y-82323371D02*
X199731027Y-82275752D01*
X199731027Y-82275752D02*
X199826265Y-82275752D01*
X200588170Y-82275752D02*
X200588170Y-82942419D01*
X200159599Y-82275752D02*
X200159599Y-82799561D01*
X200159599Y-82799561D02*
X200207218Y-82894800D01*
X200207218Y-82894800D02*
X200302456Y-82942419D01*
X200302456Y-82942419D02*
X200445313Y-82942419D01*
X200445313Y-82942419D02*
X200540551Y-82894800D01*
X200540551Y-82894800D02*
X200588170Y-82847180D01*
X201064361Y-82561466D02*
X201826266Y-82561466D01*
X202778646Y-82942419D02*
X202302456Y-82942419D01*
X202302456Y-82942419D02*
X202302456Y-81942419D01*
X203111980Y-82942419D02*
X203111980Y-82275752D01*
X203111980Y-81942419D02*
X203064361Y-81990038D01*
X203064361Y-81990038D02*
X203111980Y-82037657D01*
X203111980Y-82037657D02*
X203159599Y-81990038D01*
X203159599Y-81990038D02*
X203111980Y-81942419D01*
X203111980Y-81942419D02*
X203111980Y-82037657D01*
X203588170Y-82275752D02*
X203588170Y-82942419D01*
X203588170Y-82370990D02*
X203635789Y-82323371D01*
X203635789Y-82323371D02*
X203731027Y-82275752D01*
X203731027Y-82275752D02*
X203873884Y-82275752D01*
X203873884Y-82275752D02*
X203969122Y-82323371D01*
X203969122Y-82323371D02*
X204016741Y-82418609D01*
X204016741Y-82418609D02*
X204016741Y-82942419D01*
X204873884Y-82894800D02*
X204778646Y-82942419D01*
X204778646Y-82942419D02*
X204588170Y-82942419D01*
X204588170Y-82942419D02*
X204492932Y-82894800D01*
X204492932Y-82894800D02*
X204445313Y-82799561D01*
X204445313Y-82799561D02*
X204445313Y-82418609D01*
X204445313Y-82418609D02*
X204492932Y-82323371D01*
X204492932Y-82323371D02*
X204588170Y-82275752D01*
X204588170Y-82275752D02*
X204778646Y-82275752D01*
X204778646Y-82275752D02*
X204873884Y-82323371D01*
X204873884Y-82323371D02*
X204921503Y-82418609D01*
X204921503Y-82418609D02*
X204921503Y-82513847D01*
X204921503Y-82513847D02*
X204445313Y-82609085D01*
X182325312Y-67872419D02*
X181991979Y-67396228D01*
X181753884Y-67872419D02*
X181753884Y-66872419D01*
X181753884Y-66872419D02*
X182134836Y-66872419D01*
X182134836Y-66872419D02*
X182230074Y-66920038D01*
X182230074Y-66920038D02*
X182277693Y-66967657D01*
X182277693Y-66967657D02*
X182325312Y-67062895D01*
X182325312Y-67062895D02*
X182325312Y-67205752D01*
X182325312Y-67205752D02*
X182277693Y-67300990D01*
X182277693Y-67300990D02*
X182230074Y-67348609D01*
X182230074Y-67348609D02*
X182134836Y-67396228D01*
X182134836Y-67396228D02*
X181753884Y-67396228D01*
X183087217Y-67348609D02*
X182753884Y-67348609D01*
X182753884Y-67872419D02*
X182753884Y-66872419D01*
X182753884Y-66872419D02*
X183230074Y-66872419D01*
X183563408Y-67824800D02*
X183706265Y-67872419D01*
X183706265Y-67872419D02*
X183944360Y-67872419D01*
X183944360Y-67872419D02*
X184039598Y-67824800D01*
X184039598Y-67824800D02*
X184087217Y-67777180D01*
X184087217Y-67777180D02*
X184134836Y-67681942D01*
X184134836Y-67681942D02*
X184134836Y-67586704D01*
X184134836Y-67586704D02*
X184087217Y-67491466D01*
X184087217Y-67491466D02*
X184039598Y-67443847D01*
X184039598Y-67443847D02*
X183944360Y-67396228D01*
X183944360Y-67396228D02*
X183753884Y-67348609D01*
X183753884Y-67348609D02*
X183658646Y-67300990D01*
X183658646Y-67300990D02*
X183611027Y-67253371D01*
X183611027Y-67253371D02*
X183563408Y-67158133D01*
X183563408Y-67158133D02*
X183563408Y-67062895D01*
X183563408Y-67062895D02*
X183611027Y-66967657D01*
X183611027Y-66967657D02*
X183658646Y-66920038D01*
X183658646Y-66920038D02*
X183753884Y-66872419D01*
X183753884Y-66872419D02*
X183991979Y-66872419D01*
X183991979Y-66872419D02*
X184134836Y-66920038D01*
X184515789Y-67586704D02*
X184991979Y-67586704D01*
X184420551Y-67872419D02*
X184753884Y-66872419D01*
X184753884Y-66872419D02*
X185087217Y-67872419D01*
X185325313Y-66872419D02*
X185944360Y-66872419D01*
X185944360Y-66872419D02*
X185611027Y-67253371D01*
X185611027Y-67253371D02*
X185753884Y-67253371D01*
X185753884Y-67253371D02*
X185849122Y-67300990D01*
X185849122Y-67300990D02*
X185896741Y-67348609D01*
X185896741Y-67348609D02*
X185944360Y-67443847D01*
X185944360Y-67443847D02*
X185944360Y-67681942D01*
X185944360Y-67681942D02*
X185896741Y-67777180D01*
X185896741Y-67777180D02*
X185849122Y-67824800D01*
X185849122Y-67824800D02*
X185753884Y-67872419D01*
X185753884Y-67872419D02*
X185468170Y-67872419D01*
X185468170Y-67872419D02*
X185372932Y-67824800D01*
X185372932Y-67824800D02*
X185325313Y-67777180D01*
X186277694Y-66872419D02*
X186944360Y-66872419D01*
X186944360Y-66872419D02*
X186515789Y-67872419D01*
X187849122Y-67872419D02*
X187277694Y-67872419D01*
X187563408Y-67872419D02*
X187563408Y-66872419D01*
X187563408Y-66872419D02*
X187468170Y-67015276D01*
X187468170Y-67015276D02*
X187372932Y-67110514D01*
X187372932Y-67110514D02*
X187277694Y-67158133D01*
X188182456Y-66872419D02*
X188801503Y-66872419D01*
X188801503Y-66872419D02*
X188468170Y-67253371D01*
X188468170Y-67253371D02*
X188611027Y-67253371D01*
X188611027Y-67253371D02*
X188706265Y-67300990D01*
X188706265Y-67300990D02*
X188753884Y-67348609D01*
X188753884Y-67348609D02*
X188801503Y-67443847D01*
X188801503Y-67443847D02*
X188801503Y-67681942D01*
X188801503Y-67681942D02*
X188753884Y-67777180D01*
X188753884Y-67777180D02*
X188706265Y-67824800D01*
X188706265Y-67824800D02*
X188611027Y-67872419D01*
X188611027Y-67872419D02*
X188325313Y-67872419D01*
X188325313Y-67872419D02*
X188230075Y-67824800D01*
X188230075Y-67824800D02*
X188182456Y-67777180D01*
X189230075Y-67491466D02*
X189991980Y-67491466D01*
X190468170Y-67348609D02*
X190801503Y-67348609D01*
X190944360Y-67872419D02*
X190468170Y-67872419D01*
X190468170Y-67872419D02*
X190468170Y-66872419D01*
X190468170Y-66872419D02*
X190944360Y-66872419D01*
X191230075Y-66872419D02*
X191563408Y-67872419D01*
X191563408Y-67872419D02*
X191896741Y-66872419D01*
X192182456Y-67586704D02*
X192658646Y-67586704D01*
X192087218Y-67872419D02*
X192420551Y-66872419D01*
X192420551Y-66872419D02*
X192753884Y-67872419D01*
X193563408Y-67872419D02*
X193087218Y-67872419D01*
X193087218Y-67872419D02*
X193087218Y-66872419D01*
X184936265Y-42306704D02*
X185412455Y-42306704D01*
X184841027Y-42592419D02*
X185174360Y-41592419D01*
X185174360Y-41592419D02*
X185507693Y-42592419D01*
X186031503Y-41592419D02*
X186126741Y-41592419D01*
X186126741Y-41592419D02*
X186221979Y-41640038D01*
X186221979Y-41640038D02*
X186269598Y-41687657D01*
X186269598Y-41687657D02*
X186317217Y-41782895D01*
X186317217Y-41782895D02*
X186364836Y-41973371D01*
X186364836Y-41973371D02*
X186364836Y-42211466D01*
X186364836Y-42211466D02*
X186317217Y-42401942D01*
X186317217Y-42401942D02*
X186269598Y-42497180D01*
X186269598Y-42497180D02*
X186221979Y-42544800D01*
X186221979Y-42544800D02*
X186126741Y-42592419D01*
X186126741Y-42592419D02*
X186031503Y-42592419D01*
X186031503Y-42592419D02*
X185936265Y-42544800D01*
X185936265Y-42544800D02*
X185888646Y-42497180D01*
X185888646Y-42497180D02*
X185841027Y-42401942D01*
X185841027Y-42401942D02*
X185793408Y-42211466D01*
X185793408Y-42211466D02*
X185793408Y-41973371D01*
X185793408Y-41973371D02*
X185841027Y-41782895D01*
X185841027Y-41782895D02*
X185888646Y-41687657D01*
X185888646Y-41687657D02*
X185936265Y-41640038D01*
X185936265Y-41640038D02*
X186031503Y-41592419D01*
X182235312Y-69522475D02*
X181901979Y-69046284D01*
X181663884Y-69522475D02*
X181663884Y-68522475D01*
X181663884Y-68522475D02*
X182044836Y-68522475D01*
X182044836Y-68522475D02*
X182140074Y-68570094D01*
X182140074Y-68570094D02*
X182187693Y-68617713D01*
X182187693Y-68617713D02*
X182235312Y-68712951D01*
X182235312Y-68712951D02*
X182235312Y-68855808D01*
X182235312Y-68855808D02*
X182187693Y-68951046D01*
X182187693Y-68951046D02*
X182140074Y-68998665D01*
X182140074Y-68998665D02*
X182044836Y-69046284D01*
X182044836Y-69046284D02*
X181663884Y-69046284D01*
X182663884Y-69522475D02*
X182663884Y-68522475D01*
X183711502Y-69427236D02*
X183663883Y-69474856D01*
X183663883Y-69474856D02*
X183521026Y-69522475D01*
X183521026Y-69522475D02*
X183425788Y-69522475D01*
X183425788Y-69522475D02*
X183282931Y-69474856D01*
X183282931Y-69474856D02*
X183187693Y-69379617D01*
X183187693Y-69379617D02*
X183140074Y-69284379D01*
X183140074Y-69284379D02*
X183092455Y-69093903D01*
X183092455Y-69093903D02*
X183092455Y-68951046D01*
X183092455Y-68951046D02*
X183140074Y-68760570D01*
X183140074Y-68760570D02*
X183187693Y-68665332D01*
X183187693Y-68665332D02*
X183282931Y-68570094D01*
X183282931Y-68570094D02*
X183425788Y-68522475D01*
X183425788Y-68522475D02*
X183521026Y-68522475D01*
X183521026Y-68522475D02*
X183663883Y-68570094D01*
X183663883Y-68570094D02*
X183711502Y-68617713D01*
X184140074Y-68998665D02*
X184473407Y-68998665D01*
X184616264Y-69522475D02*
X184140074Y-69522475D01*
X184140074Y-69522475D02*
X184140074Y-68522475D01*
X184140074Y-68522475D02*
X184616264Y-68522475D01*
X185806741Y-68998665D02*
X186140074Y-68998665D01*
X186282931Y-69522475D02*
X185806741Y-69522475D01*
X185806741Y-69522475D02*
X185806741Y-68522475D01*
X185806741Y-68522475D02*
X186282931Y-68522475D01*
X187282931Y-69427236D02*
X187235312Y-69474856D01*
X187235312Y-69474856D02*
X187092455Y-69522475D01*
X187092455Y-69522475D02*
X186997217Y-69522475D01*
X186997217Y-69522475D02*
X186854360Y-69474856D01*
X186854360Y-69474856D02*
X186759122Y-69379617D01*
X186759122Y-69379617D02*
X186711503Y-69284379D01*
X186711503Y-69284379D02*
X186663884Y-69093903D01*
X186663884Y-69093903D02*
X186663884Y-68951046D01*
X186663884Y-68951046D02*
X186711503Y-68760570D01*
X186711503Y-68760570D02*
X186759122Y-68665332D01*
X186759122Y-68665332D02*
X186854360Y-68570094D01*
X186854360Y-68570094D02*
X186997217Y-68522475D01*
X186997217Y-68522475D02*
X187092455Y-68522475D01*
X187092455Y-68522475D02*
X187235312Y-68570094D01*
X187235312Y-68570094D02*
X187282931Y-68617713D01*
X187711503Y-68998665D02*
X188044836Y-68998665D01*
X188187693Y-69522475D02*
X187711503Y-69522475D01*
X187711503Y-69522475D02*
X187711503Y-68522475D01*
X187711503Y-68522475D02*
X188187693Y-68522475D01*
X189949598Y-69427236D02*
X189901979Y-69474856D01*
X189901979Y-69474856D02*
X189759122Y-69522475D01*
X189759122Y-69522475D02*
X189663884Y-69522475D01*
X189663884Y-69522475D02*
X189521027Y-69474856D01*
X189521027Y-69474856D02*
X189425789Y-69379617D01*
X189425789Y-69379617D02*
X189378170Y-69284379D01*
X189378170Y-69284379D02*
X189330551Y-69093903D01*
X189330551Y-69093903D02*
X189330551Y-68951046D01*
X189330551Y-68951046D02*
X189378170Y-68760570D01*
X189378170Y-68760570D02*
X189425789Y-68665332D01*
X189425789Y-68665332D02*
X189521027Y-68570094D01*
X189521027Y-68570094D02*
X189663884Y-68522475D01*
X189663884Y-68522475D02*
X189759122Y-68522475D01*
X189759122Y-68522475D02*
X189901979Y-68570094D01*
X189901979Y-68570094D02*
X189949598Y-68617713D01*
X190330551Y-69236760D02*
X190806741Y-69236760D01*
X190235313Y-69522475D02*
X190568646Y-68522475D01*
X190568646Y-68522475D02*
X190901979Y-69522475D01*
X191235313Y-69522475D02*
X191235313Y-68522475D01*
X191235313Y-68522475D02*
X191616265Y-68522475D01*
X191616265Y-68522475D02*
X191711503Y-68570094D01*
X191711503Y-68570094D02*
X191759122Y-68617713D01*
X191759122Y-68617713D02*
X191806741Y-68712951D01*
X191806741Y-68712951D02*
X191806741Y-68855808D01*
X191806741Y-68855808D02*
X191759122Y-68951046D01*
X191759122Y-68951046D02*
X191711503Y-68998665D01*
X191711503Y-68998665D02*
X191616265Y-69046284D01*
X191616265Y-69046284D02*
X191235313Y-69046284D01*
X192187694Y-69474856D02*
X192330551Y-69522475D01*
X192330551Y-69522475D02*
X192568646Y-69522475D01*
X192568646Y-69522475D02*
X192663884Y-69474856D01*
X192663884Y-69474856D02*
X192711503Y-69427236D01*
X192711503Y-69427236D02*
X192759122Y-69331998D01*
X192759122Y-69331998D02*
X192759122Y-69236760D01*
X192759122Y-69236760D02*
X192711503Y-69141522D01*
X192711503Y-69141522D02*
X192663884Y-69093903D01*
X192663884Y-69093903D02*
X192568646Y-69046284D01*
X192568646Y-69046284D02*
X192378170Y-68998665D01*
X192378170Y-68998665D02*
X192282932Y-68951046D01*
X192282932Y-68951046D02*
X192235313Y-68903427D01*
X192235313Y-68903427D02*
X192187694Y-68808189D01*
X192187694Y-68808189D02*
X192187694Y-68712951D01*
X192187694Y-68712951D02*
X192235313Y-68617713D01*
X192235313Y-68617713D02*
X192282932Y-68570094D01*
X192282932Y-68570094D02*
X192378170Y-68522475D01*
X192378170Y-68522475D02*
X192616265Y-68522475D01*
X192616265Y-68522475D02*
X192759122Y-68570094D01*
X193044837Y-68522475D02*
X193616265Y-68522475D01*
X193330551Y-69522475D02*
X193330551Y-68522475D01*
X194140075Y-68522475D02*
X194330551Y-68522475D01*
X194330551Y-68522475D02*
X194425789Y-68570094D01*
X194425789Y-68570094D02*
X194521027Y-68665332D01*
X194521027Y-68665332D02*
X194568646Y-68855808D01*
X194568646Y-68855808D02*
X194568646Y-69189141D01*
X194568646Y-69189141D02*
X194521027Y-69379617D01*
X194521027Y-69379617D02*
X194425789Y-69474856D01*
X194425789Y-69474856D02*
X194330551Y-69522475D01*
X194330551Y-69522475D02*
X194140075Y-69522475D01*
X194140075Y-69522475D02*
X194044837Y-69474856D01*
X194044837Y-69474856D02*
X193949599Y-69379617D01*
X193949599Y-69379617D02*
X193901980Y-69189141D01*
X193901980Y-69189141D02*
X193901980Y-68855808D01*
X193901980Y-68855808D02*
X193949599Y-68665332D01*
X193949599Y-68665332D02*
X194044837Y-68570094D01*
X194044837Y-68570094D02*
X194140075Y-68522475D01*
X194997218Y-69522475D02*
X194997218Y-68522475D01*
X194997218Y-68522475D02*
X195568646Y-69522475D01*
X195568646Y-69522475D02*
X195568646Y-68522475D01*
X196044837Y-68998665D02*
X196378170Y-68998665D01*
X196521027Y-69522475D02*
X196044837Y-69522475D01*
X196044837Y-69522475D02*
X196044837Y-68522475D01*
X196044837Y-68522475D02*
X196521027Y-68522475D01*
X181521027Y-70132419D02*
X182092455Y-70132419D01*
X181806741Y-71132419D02*
X181806741Y-70132419D01*
X182425789Y-70608609D02*
X182759122Y-70608609D01*
X182901979Y-71132419D02*
X182425789Y-71132419D01*
X182425789Y-71132419D02*
X182425789Y-70132419D01*
X182425789Y-70132419D02*
X182901979Y-70132419D01*
X183282932Y-70846704D02*
X183759122Y-70846704D01*
X183187694Y-71132419D02*
X183521027Y-70132419D01*
X183521027Y-70132419D02*
X183854360Y-71132419D01*
X184187694Y-71132419D02*
X184187694Y-70132419D01*
X184187694Y-70132419D02*
X184521027Y-70846704D01*
X184521027Y-70846704D02*
X184854360Y-70132419D01*
X184854360Y-70132419D02*
X184854360Y-71132419D01*
X186425789Y-70608609D02*
X186568646Y-70656228D01*
X186568646Y-70656228D02*
X186616265Y-70703847D01*
X186616265Y-70703847D02*
X186663884Y-70799085D01*
X186663884Y-70799085D02*
X186663884Y-70941942D01*
X186663884Y-70941942D02*
X186616265Y-71037180D01*
X186616265Y-71037180D02*
X186568646Y-71084800D01*
X186568646Y-71084800D02*
X186473408Y-71132419D01*
X186473408Y-71132419D02*
X186092456Y-71132419D01*
X186092456Y-71132419D02*
X186092456Y-70132419D01*
X186092456Y-70132419D02*
X186425789Y-70132419D01*
X186425789Y-70132419D02*
X186521027Y-70180038D01*
X186521027Y-70180038D02*
X186568646Y-70227657D01*
X186568646Y-70227657D02*
X186616265Y-70322895D01*
X186616265Y-70322895D02*
X186616265Y-70418133D01*
X186616265Y-70418133D02*
X186568646Y-70513371D01*
X186568646Y-70513371D02*
X186521027Y-70560990D01*
X186521027Y-70560990D02*
X186425789Y-70608609D01*
X186425789Y-70608609D02*
X186092456Y-70608609D01*
X187092456Y-70608609D02*
X187425789Y-70608609D01*
X187568646Y-71132419D02*
X187092456Y-71132419D01*
X187092456Y-71132419D02*
X187092456Y-70132419D01*
X187092456Y-70132419D02*
X187568646Y-70132419D01*
X187949599Y-70846704D02*
X188425789Y-70846704D01*
X187854361Y-71132419D02*
X188187694Y-70132419D01*
X188187694Y-70132419D02*
X188521027Y-71132419D01*
X188854361Y-71132419D02*
X188854361Y-70132419D01*
X188854361Y-70132419D02*
X189187694Y-70846704D01*
X189187694Y-70846704D02*
X189521027Y-70132419D01*
X189521027Y-70132419D02*
X189521027Y-71132419D01*
X190330551Y-70608609D02*
X189997218Y-70608609D01*
X189997218Y-71132419D02*
X189997218Y-70132419D01*
X189997218Y-70132419D02*
X190473408Y-70132419D01*
X191044837Y-70132419D02*
X191235313Y-70132419D01*
X191235313Y-70132419D02*
X191330551Y-70180038D01*
X191330551Y-70180038D02*
X191425789Y-70275276D01*
X191425789Y-70275276D02*
X191473408Y-70465752D01*
X191473408Y-70465752D02*
X191473408Y-70799085D01*
X191473408Y-70799085D02*
X191425789Y-70989561D01*
X191425789Y-70989561D02*
X191330551Y-71084800D01*
X191330551Y-71084800D02*
X191235313Y-71132419D01*
X191235313Y-71132419D02*
X191044837Y-71132419D01*
X191044837Y-71132419D02*
X190949599Y-71084800D01*
X190949599Y-71084800D02*
X190854361Y-70989561D01*
X190854361Y-70989561D02*
X190806742Y-70799085D01*
X190806742Y-70799085D02*
X190806742Y-70465752D01*
X190806742Y-70465752D02*
X190854361Y-70275276D01*
X190854361Y-70275276D02*
X190949599Y-70180038D01*
X190949599Y-70180038D02*
X191044837Y-70132419D01*
X192473408Y-71132419D02*
X192140075Y-70656228D01*
X191901980Y-71132419D02*
X191901980Y-70132419D01*
X191901980Y-70132419D02*
X192282932Y-70132419D01*
X192282932Y-70132419D02*
X192378170Y-70180038D01*
X192378170Y-70180038D02*
X192425789Y-70227657D01*
X192425789Y-70227657D02*
X192473408Y-70322895D01*
X192473408Y-70322895D02*
X192473408Y-70465752D01*
X192473408Y-70465752D02*
X192425789Y-70560990D01*
X192425789Y-70560990D02*
X192378170Y-70608609D01*
X192378170Y-70608609D02*
X192282932Y-70656228D01*
X192282932Y-70656228D02*
X191901980Y-70656228D01*
X192901980Y-71132419D02*
X192901980Y-70132419D01*
X192901980Y-70132419D02*
X193235313Y-70846704D01*
X193235313Y-70846704D02*
X193568646Y-70132419D01*
X193568646Y-70132419D02*
X193568646Y-71132419D01*
X195946265Y-42186704D02*
X196422455Y-42186704D01*
X195851027Y-42472419D02*
X196184360Y-41472419D01*
X196184360Y-41472419D02*
X196517693Y-42472419D01*
X196803408Y-41567657D02*
X196851027Y-41520038D01*
X196851027Y-41520038D02*
X196946265Y-41472419D01*
X196946265Y-41472419D02*
X197184360Y-41472419D01*
X197184360Y-41472419D02*
X197279598Y-41520038D01*
X197279598Y-41520038D02*
X197327217Y-41567657D01*
X197327217Y-41567657D02*
X197374836Y-41662895D01*
X197374836Y-41662895D02*
X197374836Y-41758133D01*
X197374836Y-41758133D02*
X197327217Y-41900990D01*
X197327217Y-41900990D02*
X196755789Y-42472419D01*
X196755789Y-42472419D02*
X197374836Y-42472419D01*
D11*
X205483333Y-58704819D02*
X205150000Y-58228628D01*
X204911905Y-58704819D02*
X204911905Y-57704819D01*
X204911905Y-57704819D02*
X205292857Y-57704819D01*
X205292857Y-57704819D02*
X205388095Y-57752438D01*
X205388095Y-57752438D02*
X205435714Y-57800057D01*
X205435714Y-57800057D02*
X205483333Y-57895295D01*
X205483333Y-57895295D02*
X205483333Y-58038152D01*
X205483333Y-58038152D02*
X205435714Y-58133390D01*
X205435714Y-58133390D02*
X205388095Y-58181009D01*
X205388095Y-58181009D02*
X205292857Y-58228628D01*
X205292857Y-58228628D02*
X204911905Y-58228628D01*
X205816667Y-57704819D02*
X206435714Y-57704819D01*
X206435714Y-57704819D02*
X206102381Y-58085771D01*
X206102381Y-58085771D02*
X206245238Y-58085771D01*
X206245238Y-58085771D02*
X206340476Y-58133390D01*
X206340476Y-58133390D02*
X206388095Y-58181009D01*
X206388095Y-58181009D02*
X206435714Y-58276247D01*
X206435714Y-58276247D02*
X206435714Y-58514342D01*
X206435714Y-58514342D02*
X206388095Y-58609580D01*
X206388095Y-58609580D02*
X206340476Y-58657200D01*
X206340476Y-58657200D02*
X206245238Y-58704819D01*
X206245238Y-58704819D02*
X205959524Y-58704819D01*
X205959524Y-58704819D02*
X205864286Y-58657200D01*
X205864286Y-58657200D02*
X205816667Y-58609580D01*
X195219580Y-53576666D02*
X195267200Y-53624285D01*
X195267200Y-53624285D02*
X195314819Y-53767142D01*
X195314819Y-53767142D02*
X195314819Y-53862380D01*
X195314819Y-53862380D02*
X195267200Y-54005237D01*
X195267200Y-54005237D02*
X195171961Y-54100475D01*
X195171961Y-54100475D02*
X195076723Y-54148094D01*
X195076723Y-54148094D02*
X194886247Y-54195713D01*
X194886247Y-54195713D02*
X194743390Y-54195713D01*
X194743390Y-54195713D02*
X194552914Y-54148094D01*
X194552914Y-54148094D02*
X194457676Y-54100475D01*
X194457676Y-54100475D02*
X194362438Y-54005237D01*
X194362438Y-54005237D02*
X194314819Y-53862380D01*
X194314819Y-53862380D02*
X194314819Y-53767142D01*
X194314819Y-53767142D02*
X194362438Y-53624285D01*
X194362438Y-53624285D02*
X194410057Y-53576666D01*
X194410057Y-53195713D02*
X194362438Y-53148094D01*
X194362438Y-53148094D02*
X194314819Y-53052856D01*
X194314819Y-53052856D02*
X194314819Y-52814761D01*
X194314819Y-52814761D02*
X194362438Y-52719523D01*
X194362438Y-52719523D02*
X194410057Y-52671904D01*
X194410057Y-52671904D02*
X194505295Y-52624285D01*
X194505295Y-52624285D02*
X194600533Y-52624285D01*
X194600533Y-52624285D02*
X194743390Y-52671904D01*
X194743390Y-52671904D02*
X195314819Y-53243332D01*
X195314819Y-53243332D02*
X195314819Y-52624285D01*
X178506666Y-67854819D02*
X178506666Y-68569104D01*
X178506666Y-68569104D02*
X178459047Y-68711961D01*
X178459047Y-68711961D02*
X178363809Y-68807200D01*
X178363809Y-68807200D02*
X178220952Y-68854819D01*
X178220952Y-68854819D02*
X178125714Y-68854819D01*
X179506666Y-68854819D02*
X178935238Y-68854819D01*
X179220952Y-68854819D02*
X179220952Y-67854819D01*
X179220952Y-67854819D02*
X179125714Y-67997676D01*
X179125714Y-67997676D02*
X179030476Y-68092914D01*
X179030476Y-68092914D02*
X178935238Y-68140533D01*
X202083333Y-57459580D02*
X202035714Y-57507200D01*
X202035714Y-57507200D02*
X201892857Y-57554819D01*
X201892857Y-57554819D02*
X201797619Y-57554819D01*
X201797619Y-57554819D02*
X201654762Y-57507200D01*
X201654762Y-57507200D02*
X201559524Y-57411961D01*
X201559524Y-57411961D02*
X201511905Y-57316723D01*
X201511905Y-57316723D02*
X201464286Y-57126247D01*
X201464286Y-57126247D02*
X201464286Y-56983390D01*
X201464286Y-56983390D02*
X201511905Y-56792914D01*
X201511905Y-56792914D02*
X201559524Y-56697676D01*
X201559524Y-56697676D02*
X201654762Y-56602438D01*
X201654762Y-56602438D02*
X201797619Y-56554819D01*
X201797619Y-56554819D02*
X201892857Y-56554819D01*
X201892857Y-56554819D02*
X202035714Y-56602438D01*
X202035714Y-56602438D02*
X202083333Y-56650057D01*
X202416667Y-56554819D02*
X203035714Y-56554819D01*
X203035714Y-56554819D02*
X202702381Y-56935771D01*
X202702381Y-56935771D02*
X202845238Y-56935771D01*
X202845238Y-56935771D02*
X202940476Y-56983390D01*
X202940476Y-56983390D02*
X202988095Y-57031009D01*
X202988095Y-57031009D02*
X203035714Y-57126247D01*
X203035714Y-57126247D02*
X203035714Y-57364342D01*
X203035714Y-57364342D02*
X202988095Y-57459580D01*
X202988095Y-57459580D02*
X202940476Y-57507200D01*
X202940476Y-57507200D02*
X202845238Y-57554819D01*
X202845238Y-57554819D02*
X202559524Y-57554819D01*
X202559524Y-57554819D02*
X202464286Y-57507200D01*
X202464286Y-57507200D02*
X202416667Y-57459580D01*
X182866667Y-51027200D02*
X183009524Y-51074819D01*
X183009524Y-51074819D02*
X183247619Y-51074819D01*
X183247619Y-51074819D02*
X183342857Y-51027200D01*
X183342857Y-51027200D02*
X183390476Y-50979580D01*
X183390476Y-50979580D02*
X183438095Y-50884342D01*
X183438095Y-50884342D02*
X183438095Y-50789104D01*
X183438095Y-50789104D02*
X183390476Y-50693866D01*
X183390476Y-50693866D02*
X183342857Y-50646247D01*
X183342857Y-50646247D02*
X183247619Y-50598628D01*
X183247619Y-50598628D02*
X183057143Y-50551009D01*
X183057143Y-50551009D02*
X182961905Y-50503390D01*
X182961905Y-50503390D02*
X182914286Y-50455771D01*
X182914286Y-50455771D02*
X182866667Y-50360533D01*
X182866667Y-50360533D02*
X182866667Y-50265295D01*
X182866667Y-50265295D02*
X182914286Y-50170057D01*
X182914286Y-50170057D02*
X182961905Y-50122438D01*
X182961905Y-50122438D02*
X183057143Y-50074819D01*
X183057143Y-50074819D02*
X183295238Y-50074819D01*
X183295238Y-50074819D02*
X183438095Y-50122438D01*
X183771429Y-50074819D02*
X184009524Y-51074819D01*
X184009524Y-51074819D02*
X184200000Y-50360533D01*
X184200000Y-50360533D02*
X184390476Y-51074819D01*
X184390476Y-51074819D02*
X184628572Y-50074819D01*
X185533333Y-51074819D02*
X184961905Y-51074819D01*
X185247619Y-51074819D02*
X185247619Y-50074819D01*
X185247619Y-50074819D02*
X185152381Y-50217676D01*
X185152381Y-50217676D02*
X185057143Y-50312914D01*
X185057143Y-50312914D02*
X184961905Y-50360533D01*
X195486667Y-50477200D02*
X195629524Y-50524819D01*
X195629524Y-50524819D02*
X195867619Y-50524819D01*
X195867619Y-50524819D02*
X195962857Y-50477200D01*
X195962857Y-50477200D02*
X196010476Y-50429580D01*
X196010476Y-50429580D02*
X196058095Y-50334342D01*
X196058095Y-50334342D02*
X196058095Y-50239104D01*
X196058095Y-50239104D02*
X196010476Y-50143866D01*
X196010476Y-50143866D02*
X195962857Y-50096247D01*
X195962857Y-50096247D02*
X195867619Y-50048628D01*
X195867619Y-50048628D02*
X195677143Y-50001009D01*
X195677143Y-50001009D02*
X195581905Y-49953390D01*
X195581905Y-49953390D02*
X195534286Y-49905771D01*
X195534286Y-49905771D02*
X195486667Y-49810533D01*
X195486667Y-49810533D02*
X195486667Y-49715295D01*
X195486667Y-49715295D02*
X195534286Y-49620057D01*
X195534286Y-49620057D02*
X195581905Y-49572438D01*
X195581905Y-49572438D02*
X195677143Y-49524819D01*
X195677143Y-49524819D02*
X195915238Y-49524819D01*
X195915238Y-49524819D02*
X196058095Y-49572438D01*
X196391429Y-49524819D02*
X196629524Y-50524819D01*
X196629524Y-50524819D02*
X196820000Y-49810533D01*
X196820000Y-49810533D02*
X197010476Y-50524819D01*
X197010476Y-50524819D02*
X197248572Y-49524819D01*
X197534286Y-49524819D02*
X198153333Y-49524819D01*
X198153333Y-49524819D02*
X197820000Y-49905771D01*
X197820000Y-49905771D02*
X197962857Y-49905771D01*
X197962857Y-49905771D02*
X198058095Y-49953390D01*
X198058095Y-49953390D02*
X198105714Y-50001009D01*
X198105714Y-50001009D02*
X198153333Y-50096247D01*
X198153333Y-50096247D02*
X198153333Y-50334342D01*
X198153333Y-50334342D02*
X198105714Y-50429580D01*
X198105714Y-50429580D02*
X198058095Y-50477200D01*
X198058095Y-50477200D02*
X197962857Y-50524819D01*
X197962857Y-50524819D02*
X197677143Y-50524819D01*
X197677143Y-50524819D02*
X197581905Y-50477200D01*
X197581905Y-50477200D02*
X197534286Y-50429580D01*
X201044819Y-55676666D02*
X200568628Y-56009999D01*
X201044819Y-56248094D02*
X200044819Y-56248094D01*
X200044819Y-56248094D02*
X200044819Y-55867142D01*
X200044819Y-55867142D02*
X200092438Y-55771904D01*
X200092438Y-55771904D02*
X200140057Y-55724285D01*
X200140057Y-55724285D02*
X200235295Y-55676666D01*
X200235295Y-55676666D02*
X200378152Y-55676666D01*
X200378152Y-55676666D02*
X200473390Y-55724285D01*
X200473390Y-55724285D02*
X200521009Y-55771904D01*
X200521009Y-55771904D02*
X200568628Y-55867142D01*
X200568628Y-55867142D02*
X200568628Y-56248094D01*
X200140057Y-55295713D02*
X200092438Y-55248094D01*
X200092438Y-55248094D02*
X200044819Y-55152856D01*
X200044819Y-55152856D02*
X200044819Y-54914761D01*
X200044819Y-54914761D02*
X200092438Y-54819523D01*
X200092438Y-54819523D02*
X200140057Y-54771904D01*
X200140057Y-54771904D02*
X200235295Y-54724285D01*
X200235295Y-54724285D02*
X200330533Y-54724285D01*
X200330533Y-54724285D02*
X200473390Y-54771904D01*
X200473390Y-54771904D02*
X201044819Y-55343332D01*
X201044819Y-55343332D02*
X201044819Y-54724285D01*
X222486666Y-54704819D02*
X222486666Y-55419104D01*
X222486666Y-55419104D02*
X222439047Y-55561961D01*
X222439047Y-55561961D02*
X222343809Y-55657200D01*
X222343809Y-55657200D02*
X222200952Y-55704819D01*
X222200952Y-55704819D02*
X222105714Y-55704819D01*
X222915238Y-54800057D02*
X222962857Y-54752438D01*
X222962857Y-54752438D02*
X223058095Y-54704819D01*
X223058095Y-54704819D02*
X223296190Y-54704819D01*
X223296190Y-54704819D02*
X223391428Y-54752438D01*
X223391428Y-54752438D02*
X223439047Y-54800057D01*
X223439047Y-54800057D02*
X223486666Y-54895295D01*
X223486666Y-54895295D02*
X223486666Y-54990533D01*
X223486666Y-54990533D02*
X223439047Y-55133390D01*
X223439047Y-55133390D02*
X222867619Y-55704819D01*
X222867619Y-55704819D02*
X223486666Y-55704819D01*
X222486666Y-70174819D02*
X222486666Y-70889104D01*
X222486666Y-70889104D02*
X222439047Y-71031961D01*
X222439047Y-71031961D02*
X222343809Y-71127200D01*
X222343809Y-71127200D02*
X222200952Y-71174819D01*
X222200952Y-71174819D02*
X222105714Y-71174819D01*
X223439047Y-70174819D02*
X222962857Y-70174819D01*
X222962857Y-70174819D02*
X222915238Y-70651009D01*
X222915238Y-70651009D02*
X222962857Y-70603390D01*
X222962857Y-70603390D02*
X223058095Y-70555771D01*
X223058095Y-70555771D02*
X223296190Y-70555771D01*
X223296190Y-70555771D02*
X223391428Y-70603390D01*
X223391428Y-70603390D02*
X223439047Y-70651009D01*
X223439047Y-70651009D02*
X223486666Y-70746247D01*
X223486666Y-70746247D02*
X223486666Y-70984342D01*
X223486666Y-70984342D02*
X223439047Y-71079580D01*
X223439047Y-71079580D02*
X223391428Y-71127200D01*
X223391428Y-71127200D02*
X223296190Y-71174819D01*
X223296190Y-71174819D02*
X223058095Y-71174819D01*
X223058095Y-71174819D02*
X222962857Y-71127200D01*
X222962857Y-71127200D02*
X222915238Y-71079580D01*
D12*
X190849047Y-58831461D02*
X191453809Y-58831461D01*
X190728095Y-59194318D02*
X191151428Y-57924318D01*
X191151428Y-57924318D02*
X191574762Y-59194318D01*
X191816666Y-57924318D02*
X192542380Y-57924318D01*
X192179523Y-59194318D02*
X192179523Y-57924318D01*
X193630952Y-59194318D02*
X192905237Y-59194318D01*
X193268094Y-59194318D02*
X193268094Y-57924318D01*
X193268094Y-57924318D02*
X193147142Y-58105746D01*
X193147142Y-58105746D02*
X193026190Y-58226699D01*
X193026190Y-58226699D02*
X192905237Y-58287175D01*
D11*
X178506666Y-70284819D02*
X178506666Y-70999104D01*
X178506666Y-70999104D02*
X178459047Y-71141961D01*
X178459047Y-71141961D02*
X178363809Y-71237200D01*
X178363809Y-71237200D02*
X178220952Y-71284819D01*
X178220952Y-71284819D02*
X178125714Y-71284819D01*
X179411428Y-70618152D02*
X179411428Y-71284819D01*
X179173333Y-70237200D02*
X178935238Y-70951485D01*
X178935238Y-70951485D02*
X179554285Y-70951485D01*
X202733333Y-55554819D02*
X202400000Y-55078628D01*
X202161905Y-55554819D02*
X202161905Y-54554819D01*
X202161905Y-54554819D02*
X202542857Y-54554819D01*
X202542857Y-54554819D02*
X202638095Y-54602438D01*
X202638095Y-54602438D02*
X202685714Y-54650057D01*
X202685714Y-54650057D02*
X202733333Y-54745295D01*
X202733333Y-54745295D02*
X202733333Y-54888152D01*
X202733333Y-54888152D02*
X202685714Y-54983390D01*
X202685714Y-54983390D02*
X202638095Y-55031009D01*
X202638095Y-55031009D02*
X202542857Y-55078628D01*
X202542857Y-55078628D02*
X202161905Y-55078628D01*
X203685714Y-55554819D02*
X203114286Y-55554819D01*
X203400000Y-55554819D02*
X203400000Y-54554819D01*
X203400000Y-54554819D02*
X203304762Y-54697676D01*
X203304762Y-54697676D02*
X203209524Y-54792914D01*
X203209524Y-54792914D02*
X203114286Y-54840533D01*
X214094819Y-45228333D02*
X214809104Y-45228333D01*
X214809104Y-45228333D02*
X214951961Y-45275952D01*
X214951961Y-45275952D02*
X215047200Y-45371190D01*
X215047200Y-45371190D02*
X215094819Y-45514047D01*
X215094819Y-45514047D02*
X215094819Y-45609285D01*
X214094819Y-44323571D02*
X214094819Y-44514047D01*
X214094819Y-44514047D02*
X214142438Y-44609285D01*
X214142438Y-44609285D02*
X214190057Y-44656904D01*
X214190057Y-44656904D02*
X214332914Y-44752142D01*
X214332914Y-44752142D02*
X214523390Y-44799761D01*
X214523390Y-44799761D02*
X214904342Y-44799761D01*
X214904342Y-44799761D02*
X214999580Y-44752142D01*
X214999580Y-44752142D02*
X215047200Y-44704523D01*
X215047200Y-44704523D02*
X215094819Y-44609285D01*
X215094819Y-44609285D02*
X215094819Y-44418809D01*
X215094819Y-44418809D02*
X215047200Y-44323571D01*
X215047200Y-44323571D02*
X214999580Y-44275952D01*
X214999580Y-44275952D02*
X214904342Y-44228333D01*
X214904342Y-44228333D02*
X214666247Y-44228333D01*
X214666247Y-44228333D02*
X214571009Y-44275952D01*
X214571009Y-44275952D02*
X214523390Y-44323571D01*
X214523390Y-44323571D02*
X214475771Y-44418809D01*
X214475771Y-44418809D02*
X214475771Y-44609285D01*
X214475771Y-44609285D02*
X214523390Y-44704523D01*
X214523390Y-44704523D02*
X214571009Y-44752142D01*
X214571009Y-44752142D02*
X214666247Y-44799761D01*
X192949580Y-54626666D02*
X192997200Y-54674285D01*
X192997200Y-54674285D02*
X193044819Y-54817142D01*
X193044819Y-54817142D02*
X193044819Y-54912380D01*
X193044819Y-54912380D02*
X192997200Y-55055237D01*
X192997200Y-55055237D02*
X192901961Y-55150475D01*
X192901961Y-55150475D02*
X192806723Y-55198094D01*
X192806723Y-55198094D02*
X192616247Y-55245713D01*
X192616247Y-55245713D02*
X192473390Y-55245713D01*
X192473390Y-55245713D02*
X192282914Y-55198094D01*
X192282914Y-55198094D02*
X192187676Y-55150475D01*
X192187676Y-55150475D02*
X192092438Y-55055237D01*
X192092438Y-55055237D02*
X192044819Y-54912380D01*
X192044819Y-54912380D02*
X192044819Y-54817142D01*
X192044819Y-54817142D02*
X192092438Y-54674285D01*
X192092438Y-54674285D02*
X192140057Y-54626666D01*
X193044819Y-53674285D02*
X193044819Y-54245713D01*
X193044819Y-53959999D02*
X192044819Y-53959999D01*
X192044819Y-53959999D02*
X192187676Y-54055237D01*
X192187676Y-54055237D02*
X192282914Y-54150475D01*
X192282914Y-54150475D02*
X192330533Y-54245713D01*
X206166667Y-50477200D02*
X206309524Y-50524819D01*
X206309524Y-50524819D02*
X206547619Y-50524819D01*
X206547619Y-50524819D02*
X206642857Y-50477200D01*
X206642857Y-50477200D02*
X206690476Y-50429580D01*
X206690476Y-50429580D02*
X206738095Y-50334342D01*
X206738095Y-50334342D02*
X206738095Y-50239104D01*
X206738095Y-50239104D02*
X206690476Y-50143866D01*
X206690476Y-50143866D02*
X206642857Y-50096247D01*
X206642857Y-50096247D02*
X206547619Y-50048628D01*
X206547619Y-50048628D02*
X206357143Y-50001009D01*
X206357143Y-50001009D02*
X206261905Y-49953390D01*
X206261905Y-49953390D02*
X206214286Y-49905771D01*
X206214286Y-49905771D02*
X206166667Y-49810533D01*
X206166667Y-49810533D02*
X206166667Y-49715295D01*
X206166667Y-49715295D02*
X206214286Y-49620057D01*
X206214286Y-49620057D02*
X206261905Y-49572438D01*
X206261905Y-49572438D02*
X206357143Y-49524819D01*
X206357143Y-49524819D02*
X206595238Y-49524819D01*
X206595238Y-49524819D02*
X206738095Y-49572438D01*
X207071429Y-49524819D02*
X207309524Y-50524819D01*
X207309524Y-50524819D02*
X207500000Y-49810533D01*
X207500000Y-49810533D02*
X207690476Y-50524819D01*
X207690476Y-50524819D02*
X207928572Y-49524819D01*
X208261905Y-49620057D02*
X208309524Y-49572438D01*
X208309524Y-49572438D02*
X208404762Y-49524819D01*
X208404762Y-49524819D02*
X208642857Y-49524819D01*
X208642857Y-49524819D02*
X208738095Y-49572438D01*
X208738095Y-49572438D02*
X208785714Y-49620057D01*
X208785714Y-49620057D02*
X208833333Y-49715295D01*
X208833333Y-49715295D02*
X208833333Y-49810533D01*
X208833333Y-49810533D02*
X208785714Y-49953390D01*
X208785714Y-49953390D02*
X208214286Y-50524819D01*
X208214286Y-50524819D02*
X208833333Y-50524819D01*
X202153333Y-60049580D02*
X202105714Y-60097200D01*
X202105714Y-60097200D02*
X201962857Y-60144819D01*
X201962857Y-60144819D02*
X201867619Y-60144819D01*
X201867619Y-60144819D02*
X201724762Y-60097200D01*
X201724762Y-60097200D02*
X201629524Y-60001961D01*
X201629524Y-60001961D02*
X201581905Y-59906723D01*
X201581905Y-59906723D02*
X201534286Y-59716247D01*
X201534286Y-59716247D02*
X201534286Y-59573390D01*
X201534286Y-59573390D02*
X201581905Y-59382914D01*
X201581905Y-59382914D02*
X201629524Y-59287676D01*
X201629524Y-59287676D02*
X201724762Y-59192438D01*
X201724762Y-59192438D02*
X201867619Y-59144819D01*
X201867619Y-59144819D02*
X201962857Y-59144819D01*
X201962857Y-59144819D02*
X202105714Y-59192438D01*
X202105714Y-59192438D02*
X202153333Y-59240057D01*
X203010476Y-59478152D02*
X203010476Y-60144819D01*
X202772381Y-59097200D02*
X202534286Y-59811485D01*
X202534286Y-59811485D02*
X203153333Y-59811485D01*
X205733333Y-57259580D02*
X205685714Y-57307200D01*
X205685714Y-57307200D02*
X205542857Y-57354819D01*
X205542857Y-57354819D02*
X205447619Y-57354819D01*
X205447619Y-57354819D02*
X205304762Y-57307200D01*
X205304762Y-57307200D02*
X205209524Y-57211961D01*
X205209524Y-57211961D02*
X205161905Y-57116723D01*
X205161905Y-57116723D02*
X205114286Y-56926247D01*
X205114286Y-56926247D02*
X205114286Y-56783390D01*
X205114286Y-56783390D02*
X205161905Y-56592914D01*
X205161905Y-56592914D02*
X205209524Y-56497676D01*
X205209524Y-56497676D02*
X205304762Y-56402438D01*
X205304762Y-56402438D02*
X205447619Y-56354819D01*
X205447619Y-56354819D02*
X205542857Y-56354819D01*
X205542857Y-56354819D02*
X205685714Y-56402438D01*
X205685714Y-56402438D02*
X205733333Y-56450057D01*
X206638095Y-56354819D02*
X206161905Y-56354819D01*
X206161905Y-56354819D02*
X206114286Y-56831009D01*
X206114286Y-56831009D02*
X206161905Y-56783390D01*
X206161905Y-56783390D02*
X206257143Y-56735771D01*
X206257143Y-56735771D02*
X206495238Y-56735771D01*
X206495238Y-56735771D02*
X206590476Y-56783390D01*
X206590476Y-56783390D02*
X206638095Y-56831009D01*
X206638095Y-56831009D02*
X206685714Y-56926247D01*
X206685714Y-56926247D02*
X206685714Y-57164342D01*
X206685714Y-57164342D02*
X206638095Y-57259580D01*
X206638095Y-57259580D02*
X206590476Y-57307200D01*
X206590476Y-57307200D02*
X206495238Y-57354819D01*
X206495238Y-57354819D02*
X206257143Y-57354819D01*
X206257143Y-57354819D02*
X206161905Y-57307200D01*
X206161905Y-57307200D02*
X206114286Y-57259580D01*
D13*
%TO.C,R3*%
X205496359Y-59040000D02*
X205803641Y-59040000D01*
X205496359Y-59800000D02*
X205803641Y-59800000D01*
%TO.C,C2*%
X194500000Y-55747836D02*
X194500000Y-55532164D01*
X195220000Y-55747836D02*
X195220000Y-55532164D01*
%TO.C,J1*%
X180292500Y-61910000D02*
X180792500Y-62160000D01*
X180792500Y-61660000D02*
X180292500Y-61910000D01*
X180792500Y-62160000D02*
X180792500Y-61660000D01*
%TO.C,C3*%
X199122164Y-57100000D02*
X199337836Y-57100000D01*
X199122164Y-57820000D02*
X199337836Y-57820000D01*
%TO.C,SW1*%
X181640000Y-47240000D02*
X181640000Y-44940000D01*
X182840000Y-47240000D02*
X181640000Y-47240000D01*
X184640000Y-47240000D02*
X185340000Y-47240000D01*
X187140000Y-47240000D02*
X187840000Y-47240000D01*
X190840000Y-44940000D02*
X190840000Y-47240000D01*
X190840000Y-47240000D02*
X189640000Y-47240000D01*
%TO.C,SW3*%
X192220000Y-47170000D02*
X192220000Y-44870000D01*
X193420000Y-47170000D02*
X192220000Y-47170000D01*
X195220000Y-47170000D02*
X195920000Y-47170000D01*
X197720000Y-47170000D02*
X198420000Y-47170000D01*
X201420000Y-44870000D02*
X201420000Y-47170000D01*
X201420000Y-47170000D02*
X200220000Y-47170000D01*
%TO.C,R2*%
X198410000Y-56163641D02*
X198410000Y-55856359D01*
X199170000Y-56163641D02*
X199170000Y-55856359D01*
%TO.C,J2*%
X220897500Y-61660000D02*
X220897500Y-62160000D01*
X220897500Y-62160000D02*
X221397500Y-61910000D01*
X221397500Y-61910000D02*
X220897500Y-61660000D01*
%TO.C,J5*%
X220897500Y-77020000D02*
X220897500Y-77520000D01*
X220897500Y-77520000D02*
X221397500Y-77270000D01*
X221397500Y-77270000D02*
X220897500Y-77020000D01*
D14*
%TO.C,AT1*%
X196550000Y-59660000D02*
G75*
G02*
X196300000Y-59660000I-125000J0D01*
G01*
X196300000Y-59660000D02*
G75*
G02*
X196550000Y-59660000I125000J0D01*
G01*
D13*
%TO.C,J4*%
X180292500Y-77270000D02*
X180792500Y-77520000D01*
X180792500Y-77020000D02*
X180292500Y-77270000D01*
X180792500Y-77520000D02*
X180792500Y-77020000D01*
%TO.C,R1*%
X202306359Y-58120000D02*
X202613641Y-58120000D01*
X202306359Y-58880000D02*
X202613641Y-58880000D01*
%TO.C,J6*%
X215640000Y-42785000D02*
X225860000Y-42785000D01*
X215640000Y-44895000D02*
X215640000Y-42785000D01*
X215640000Y-47005000D02*
X215640000Y-45895000D01*
X216750000Y-47005000D02*
X215640000Y-47005000D01*
X217750000Y-44895000D02*
X215640000Y-44895000D01*
X217750000Y-47005000D02*
X217750000Y-44895000D01*
X217750000Y-47005000D02*
X225860000Y-47005000D01*
X225860000Y-47005000D02*
X225860000Y-42785000D01*
%TO.C,C1*%
X193400000Y-55757836D02*
X193400000Y-55542164D01*
X194120000Y-55757836D02*
X194120000Y-55542164D01*
%TO.C,SW2*%
X202900000Y-47170000D02*
X202900000Y-44870000D01*
X204100000Y-47170000D02*
X202900000Y-47170000D01*
X205900000Y-47170000D02*
X206600000Y-47170000D01*
X208400000Y-47170000D02*
X209100000Y-47170000D01*
X212100000Y-44870000D02*
X212100000Y-47170000D01*
X212100000Y-47170000D02*
X210900000Y-47170000D01*
%TO.C,C4*%
X200580000Y-59057836D02*
X200580000Y-58842164D01*
X201300000Y-59057836D02*
X201300000Y-58842164D01*
%TO.C,C5*%
X203780000Y-58842164D02*
X203780000Y-59057836D01*
X204500000Y-58842164D02*
X204500000Y-59057836D01*
%TD*%
%LPC*%
D15*
%TO.C,R3*%
X205140000Y-59420000D03*
X206160000Y-59420000D03*
%TD*%
D16*
%TO.C,C2*%
X194860000Y-56120000D03*
X194860000Y-55160000D03*
%TD*%
D17*
%TO.C,J1*%
X177082500Y-61910000D03*
X177082500Y-66160000D03*
X177082500Y-57660000D03*
%TD*%
D18*
%TO.C,C3*%
X198750000Y-57460000D03*
X199710000Y-57460000D03*
%TD*%
D19*
%TO.C,SW1*%
X189640000Y-45340000D03*
X182840000Y-45340000D03*
D20*
X188740000Y-48090000D03*
X186240000Y-48090000D03*
X183740000Y-48090000D03*
%TD*%
D19*
%TO.C,SW3*%
X200220000Y-45270000D03*
X193420000Y-45270000D03*
D20*
X199320000Y-48020000D03*
X196820000Y-48020000D03*
X194320000Y-48020000D03*
%TD*%
D21*
%TO.C,R2*%
X198790000Y-56520000D03*
X198790000Y-55500000D03*
%TD*%
D17*
%TO.C,J2*%
X224607500Y-61910000D03*
X224607500Y-57660000D03*
X224607500Y-66160000D03*
%TD*%
%TO.C,J5*%
X224607500Y-77270000D03*
X224607500Y-73020000D03*
X224607500Y-81520000D03*
%TD*%
D22*
%TO.C,AT1*%
X196850000Y-60410000D03*
X196850000Y-60910000D03*
X196850000Y-61410000D03*
X196850000Y-61910000D03*
D23*
X197550000Y-62610000D03*
X198050000Y-62610000D03*
X198550000Y-62610000D03*
X199050000Y-62610000D03*
D22*
X199750000Y-61910000D03*
X199750000Y-61410000D03*
X199750000Y-60910000D03*
X199750000Y-60410000D03*
D23*
X199050000Y-59710000D03*
X198550000Y-59710000D03*
X198050000Y-59710000D03*
X197550000Y-59710000D03*
D24*
X198300000Y-61160000D03*
%TD*%
D17*
%TO.C,J4*%
X177082500Y-77270000D03*
X177082500Y-81520000D03*
X177082500Y-73020000D03*
%TD*%
D15*
%TO.C,R1*%
X201950000Y-58500000D03*
X202970000Y-58500000D03*
%TD*%
D25*
%TO.C,J6*%
X216750000Y-45895000D03*
D26*
X216750000Y-43895000D03*
X218750000Y-45895000D03*
X218750000Y-43895000D03*
X220750000Y-45895000D03*
X220750000Y-43895000D03*
X222750000Y-45895000D03*
X222750000Y-43895000D03*
X224750000Y-45895000D03*
X224750000Y-43895000D03*
%TD*%
D16*
%TO.C,C1*%
X193760000Y-56130000D03*
X193760000Y-55170000D03*
%TD*%
D19*
%TO.C,SW2*%
X210900000Y-45270000D03*
X204100000Y-45270000D03*
D20*
X210000000Y-48020000D03*
X207500000Y-48020000D03*
X205000000Y-48020000D03*
%TD*%
D16*
%TO.C,C4*%
X200940000Y-59430000D03*
X200940000Y-58470000D03*
%TD*%
D27*
%TO.C,C5*%
X204140000Y-58470000D03*
X204140000Y-59430000D03*
%TD*%
%LPD*%
M02*
