%TF.GenerationSoftware,KiCad,Pcbnew,9.0.5*%
%TF.CreationDate,2025-10-11T15:57:41-05:00*%
%TF.ProjectId,RFSA3713-EVAL,52465341-3337-4313-932d-4556414c2e6b,rev?*%
%TF.SameCoordinates,Original*%
%TF.FileFunction,Drillmap*%
%TF.FilePolarity,Positive*%
%FSLAX45Y45*%
G04 Gerber Fmt 4.5, Leading zero omitted, Abs format (unit mm)*
G04 Created by KiCad (PCBNEW 9.0.5) date 2025-10-11 15:57:41*
%MOMM*%
%LPD*%
G01*
G04 APERTURE LIST*
%ADD10C,0.200000*%
%ADD11C,0.100000*%
G04 APERTURE END LIST*
D10*
D11*
X19670000Y-6130000D02*
X19690000Y-6150000D01*
X19690000Y-6130000D02*
X19670000Y-6150000D01*
X19745000Y-6245000D02*
X19765000Y-6265000D01*
X19765000Y-6245000D02*
X19745000Y-6265000D01*
X19795000Y-6245000D02*
X19815000Y-6265000D01*
X19815000Y-6245000D02*
X19795000Y-6265000D01*
X19845000Y-6245000D02*
X19865000Y-6265000D01*
X19865000Y-6245000D02*
X19845000Y-6265000D01*
X19895000Y-6245000D02*
X19915000Y-6265000D01*
X19915000Y-6245000D02*
X19895000Y-6265000D01*
X19970000Y-6080000D02*
X19990000Y-6100000D01*
X19990000Y-6080000D02*
X19970000Y-6100000D01*
X19970000Y-6130000D02*
X19990000Y-6150000D01*
X19990000Y-6130000D02*
X19970000Y-6150000D01*
X19789360Y-6065200D02*
G75*
G02*
X19769040Y-6065200I-10160J0D01*
G01*
X19769040Y-6065200D02*
G75*
G02*
X19789360Y-6065200I10160J0D01*
G01*
X19789360Y-6116000D02*
G75*
G02*
X19769040Y-6116000I-10160J0D01*
G01*
X19769040Y-6116000D02*
G75*
G02*
X19789360Y-6116000I10160J0D01*
G01*
X19789360Y-6166800D02*
G75*
G02*
X19769040Y-6166800I-10160J0D01*
G01*
X19769040Y-6166800D02*
G75*
G02*
X19789360Y-6166800I10160J0D01*
G01*
X19840160Y-6065200D02*
G75*
G02*
X19819840Y-6065200I-10160J0D01*
G01*
X19819840Y-6065200D02*
G75*
G02*
X19840160Y-6065200I10160J0D01*
G01*
X19840160Y-6116000D02*
G75*
G02*
X19819840Y-6116000I-10160J0D01*
G01*
X19819840Y-6116000D02*
G75*
G02*
X19840160Y-6116000I10160J0D01*
G01*
X19840160Y-6166800D02*
G75*
G02*
X19819840Y-6166800I-10160J0D01*
G01*
X19819840Y-6166800D02*
G75*
G02*
X19840160Y-6166800I10160J0D01*
G01*
X19890960Y-6065200D02*
G75*
G02*
X19870640Y-6065200I-10160J0D01*
G01*
X19870640Y-6065200D02*
G75*
G02*
X19890960Y-6065200I10160J0D01*
G01*
X19890960Y-6116000D02*
G75*
G02*
X19870640Y-6116000I-10160J0D01*
G01*
X19870640Y-6116000D02*
G75*
G02*
X19890960Y-6116000I10160J0D01*
G01*
X19890960Y-6166800D02*
G75*
G02*
X19870640Y-6166800I-10160J0D01*
G01*
X19870640Y-6166800D02*
G75*
G02*
X19890960Y-6166800I10160J0D01*
G01*
X17550000Y-6605000D02*
X17550000Y-6635000D01*
X17535000Y-6620000D02*
X17565000Y-6620000D01*
X17550000Y-7285000D02*
X17550000Y-7315000D01*
X17535000Y-7300000D02*
X17565000Y-7300000D01*
X17550000Y-8125000D02*
X17550000Y-8155000D01*
X17535000Y-8140000D02*
X17565000Y-8140000D01*
X17558250Y-5751000D02*
X17558250Y-5781000D01*
X17543250Y-5766000D02*
X17573250Y-5766000D01*
X17625000Y-6605000D02*
X17625000Y-6635000D01*
X17610000Y-6620000D02*
X17640000Y-6620000D01*
X17625000Y-7285000D02*
X17625000Y-7315000D01*
X17610000Y-7300000D02*
X17640000Y-7300000D01*
X17625000Y-8125000D02*
X17625000Y-8155000D01*
X17610000Y-8140000D02*
X17640000Y-8140000D01*
X17633250Y-5751000D02*
X17633250Y-5781000D01*
X17618250Y-5766000D02*
X17648250Y-5766000D01*
X17700000Y-6605000D02*
X17700000Y-6635000D01*
X17685000Y-6620000D02*
X17715000Y-6620000D01*
X17700000Y-7285000D02*
X17700000Y-7315000D01*
X17685000Y-7300000D02*
X17715000Y-7300000D01*
X17700000Y-8125000D02*
X17700000Y-8155000D01*
X17685000Y-8140000D02*
X17715000Y-8140000D01*
X17708250Y-5751000D02*
X17708250Y-5781000D01*
X17693250Y-5766000D02*
X17723250Y-5766000D01*
X17775000Y-6605000D02*
X17775000Y-6635000D01*
X17760000Y-6620000D02*
X17790000Y-6620000D01*
X17775000Y-7285000D02*
X17775000Y-7315000D01*
X17760000Y-7300000D02*
X17790000Y-7300000D01*
X17775000Y-8125000D02*
X17775000Y-8155000D01*
X17760000Y-8140000D02*
X17790000Y-8140000D01*
X17783250Y-5751000D02*
X17783250Y-5781000D01*
X17768250Y-5766000D02*
X17798250Y-5766000D01*
X17850000Y-6605000D02*
X17850000Y-6635000D01*
X17835000Y-6620000D02*
X17865000Y-6620000D01*
X17850000Y-7285000D02*
X17850000Y-7315000D01*
X17835000Y-7300000D02*
X17865000Y-7300000D01*
X17850000Y-8125000D02*
X17850000Y-8155000D01*
X17835000Y-8140000D02*
X17865000Y-8140000D01*
X17858250Y-5751000D02*
X17858250Y-5781000D01*
X17843250Y-5766000D02*
X17873250Y-5766000D01*
X18107400Y-6290000D02*
X18107400Y-6320000D01*
X18092400Y-6305000D02*
X18122400Y-6305000D01*
X18110400Y-6065000D02*
X18110400Y-6095000D01*
X18095400Y-6080000D02*
X18125400Y-6080000D01*
X18134600Y-7585000D02*
X18134600Y-7615000D01*
X18119600Y-7600000D02*
X18149600Y-7600000D01*
X18134600Y-7825000D02*
X18134600Y-7855000D01*
X18119600Y-7840000D02*
X18149600Y-7840000D01*
X18209000Y-6290000D02*
X18209000Y-6320000D01*
X18194000Y-6305000D02*
X18224000Y-6305000D01*
X18212000Y-6065000D02*
X18212000Y-6095000D01*
X18197000Y-6080000D02*
X18227000Y-6080000D01*
X18236200Y-7585000D02*
X18236200Y-7615000D01*
X18221200Y-7600000D02*
X18251200Y-7600000D01*
X18236200Y-7825000D02*
X18236200Y-7855000D01*
X18221200Y-7840000D02*
X18251200Y-7840000D01*
X18310600Y-6290000D02*
X18310600Y-6320000D01*
X18295600Y-6305000D02*
X18325600Y-6305000D01*
X18313600Y-6065000D02*
X18313600Y-6095000D01*
X18298600Y-6080000D02*
X18328600Y-6080000D01*
X18337800Y-7585000D02*
X18337800Y-7615000D01*
X18322800Y-7600000D02*
X18352800Y-7600000D01*
X18337800Y-7825000D02*
X18337800Y-7855000D01*
X18322800Y-7840000D02*
X18352800Y-7840000D01*
X18374000Y-4794000D02*
X18374000Y-4824000D01*
X18359000Y-4809000D02*
X18389000Y-4809000D01*
X18412200Y-6290000D02*
X18412200Y-6320000D01*
X18397200Y-6305000D02*
X18427200Y-6305000D01*
X18415200Y-6065000D02*
X18415200Y-6095000D01*
X18400200Y-6080000D02*
X18430200Y-6080000D01*
X18439400Y-7585000D02*
X18439400Y-7615000D01*
X18424400Y-7600000D02*
X18454400Y-7600000D01*
X18439400Y-7825000D02*
X18439400Y-7855000D01*
X18424400Y-7840000D02*
X18454400Y-7840000D01*
X18513800Y-6290000D02*
X18513800Y-6320000D01*
X18498800Y-6305000D02*
X18528800Y-6305000D01*
X18516800Y-6065000D02*
X18516800Y-6095000D01*
X18501800Y-6080000D02*
X18531800Y-6080000D01*
X18541000Y-7585000D02*
X18541000Y-7615000D01*
X18526000Y-7600000D02*
X18556000Y-7600000D01*
X18541000Y-7825000D02*
X18541000Y-7855000D01*
X18526000Y-7840000D02*
X18556000Y-7840000D01*
X18615400Y-6290000D02*
X18615400Y-6320000D01*
X18600400Y-6305000D02*
X18630400Y-6305000D01*
X18618400Y-6065000D02*
X18618400Y-6095000D01*
X18603400Y-6080000D02*
X18633400Y-6080000D01*
X18642600Y-7585000D02*
X18642600Y-7615000D01*
X18627600Y-7600000D02*
X18657600Y-7600000D01*
X18642600Y-7825000D02*
X18642600Y-7855000D01*
X18627600Y-7840000D02*
X18657600Y-7840000D01*
X18717000Y-6290000D02*
X18717000Y-6320000D01*
X18702000Y-6305000D02*
X18732000Y-6305000D01*
X18720000Y-6065000D02*
X18720000Y-6095000D01*
X18705000Y-6080000D02*
X18735000Y-6080000D01*
X18744200Y-7585000D02*
X18744200Y-7615000D01*
X18729200Y-7600000D02*
X18759200Y-7600000D01*
X18744200Y-7825000D02*
X18744200Y-7855000D01*
X18729200Y-7840000D02*
X18759200Y-7840000D01*
X18818600Y-6290000D02*
X18818600Y-6320000D01*
X18803600Y-6305000D02*
X18833600Y-6305000D01*
X18821600Y-6065000D02*
X18821600Y-6095000D01*
X18806600Y-6080000D02*
X18836600Y-6080000D01*
X18845800Y-7585000D02*
X18845800Y-7615000D01*
X18830800Y-7600000D02*
X18860800Y-7600000D01*
X18845800Y-7825000D02*
X18845800Y-7855000D01*
X18830800Y-7840000D02*
X18860800Y-7840000D01*
X18920200Y-6290000D02*
X18920200Y-6320000D01*
X18905200Y-6305000D02*
X18935200Y-6305000D01*
X18923200Y-6065000D02*
X18923200Y-6095000D01*
X18908200Y-6080000D02*
X18938200Y-6080000D01*
X18947400Y-7585000D02*
X18947400Y-7615000D01*
X18932400Y-7600000D02*
X18962400Y-7600000D01*
X18947400Y-7825000D02*
X18947400Y-7855000D01*
X18932400Y-7840000D02*
X18962400Y-7840000D01*
X19021800Y-6290000D02*
X19021800Y-6320000D01*
X19006800Y-6305000D02*
X19036800Y-6305000D01*
X19024800Y-6065000D02*
X19024800Y-6095000D01*
X19009800Y-6080000D02*
X19039800Y-6080000D01*
X19049000Y-7585000D02*
X19049000Y-7615000D01*
X19034000Y-7600000D02*
X19064000Y-7600000D01*
X19049000Y-7825000D02*
X19049000Y-7855000D01*
X19034000Y-7840000D02*
X19064000Y-7840000D01*
X19123400Y-6290000D02*
X19123400Y-6320000D01*
X19108400Y-6305000D02*
X19138400Y-6305000D01*
X19126400Y-6065000D02*
X19126400Y-6095000D01*
X19111400Y-6080000D02*
X19141400Y-6080000D01*
X19150600Y-7585000D02*
X19150600Y-7615000D01*
X19135600Y-7600000D02*
X19165600Y-7600000D01*
X19150600Y-7825000D02*
X19150600Y-7855000D01*
X19135600Y-7840000D02*
X19165600Y-7840000D01*
X19225000Y-6290000D02*
X19225000Y-6320000D01*
X19210000Y-6305000D02*
X19240000Y-6305000D01*
X19228000Y-6065000D02*
X19228000Y-6095000D01*
X19213000Y-6080000D02*
X19243000Y-6080000D01*
X19252200Y-7585000D02*
X19252200Y-7615000D01*
X19237200Y-7600000D02*
X19267200Y-7600000D01*
X19252200Y-7825000D02*
X19252200Y-7855000D01*
X19237200Y-7840000D02*
X19267200Y-7840000D01*
X19326600Y-6290000D02*
X19326600Y-6320000D01*
X19311600Y-6305000D02*
X19341600Y-6305000D01*
X19329600Y-6065000D02*
X19329600Y-6095000D01*
X19314600Y-6080000D02*
X19344600Y-6080000D01*
X19353800Y-7585000D02*
X19353800Y-7615000D01*
X19338800Y-7600000D02*
X19368800Y-7600000D01*
X19353800Y-7825000D02*
X19353800Y-7855000D01*
X19338800Y-7840000D02*
X19368800Y-7840000D01*
X19376000Y-5598000D02*
X19376000Y-5628000D01*
X19361000Y-5613000D02*
X19391000Y-5613000D01*
X19428200Y-6290000D02*
X19428200Y-6320000D01*
X19413200Y-6305000D02*
X19443200Y-6305000D01*
X19432000Y-4787000D02*
X19432000Y-4817000D01*
X19417000Y-4802000D02*
X19447000Y-4802000D01*
X19455400Y-7585000D02*
X19455400Y-7615000D01*
X19440400Y-7600000D02*
X19470400Y-7600000D01*
X19455400Y-7825000D02*
X19455400Y-7855000D01*
X19440400Y-7840000D02*
X19470400Y-7840000D01*
X19486000Y-5597000D02*
X19486000Y-5627000D01*
X19471000Y-5612000D02*
X19501000Y-5612000D01*
X19529800Y-6290000D02*
X19529800Y-6320000D01*
X19514800Y-6305000D02*
X19544800Y-6305000D01*
X19557000Y-7585000D02*
X19557000Y-7615000D01*
X19542000Y-7600000D02*
X19572000Y-7600000D01*
X19557000Y-7825000D02*
X19557000Y-7855000D01*
X19542000Y-7840000D02*
X19572000Y-7840000D01*
X19658600Y-7585000D02*
X19658600Y-7615000D01*
X19643600Y-7600000D02*
X19673600Y-7600000D01*
X19658600Y-7825000D02*
X19658600Y-7855000D01*
X19643600Y-7840000D02*
X19673600Y-7840000D01*
X19760200Y-7585000D02*
X19760200Y-7615000D01*
X19745200Y-7600000D02*
X19775200Y-7600000D01*
X19760200Y-7825000D02*
X19760200Y-7855000D01*
X19745200Y-7840000D02*
X19775200Y-7840000D01*
X19861800Y-7585000D02*
X19861800Y-7615000D01*
X19846800Y-7600000D02*
X19876800Y-7600000D01*
X19861800Y-7825000D02*
X19861800Y-7855000D01*
X19846800Y-7840000D02*
X19876800Y-7840000D01*
X19963400Y-7585000D02*
X19963400Y-7615000D01*
X19948400Y-7600000D02*
X19978400Y-7600000D01*
X19963400Y-7825000D02*
X19963400Y-7855000D01*
X19948400Y-7840000D02*
X19978400Y-7840000D01*
X19971000Y-5731000D02*
X19971000Y-5761000D01*
X19956000Y-5746000D02*
X19986000Y-5746000D01*
X20065000Y-7585000D02*
X20065000Y-7615000D01*
X20050000Y-7600000D02*
X20080000Y-7600000D01*
X20065000Y-7825000D02*
X20065000Y-7855000D01*
X20050000Y-7840000D02*
X20080000Y-7840000D01*
X20094000Y-5928000D02*
X20094000Y-5958000D01*
X20079000Y-5943000D02*
X20109000Y-5943000D01*
X20166600Y-7585000D02*
X20166600Y-7615000D01*
X20151600Y-7600000D02*
X20181600Y-7600000D01*
X20166600Y-7825000D02*
X20166600Y-7855000D01*
X20151600Y-7840000D02*
X20181600Y-7840000D01*
X20189200Y-6290000D02*
X20189200Y-6320000D01*
X20174200Y-6305000D02*
X20204200Y-6305000D01*
X20268200Y-7585000D02*
X20268200Y-7615000D01*
X20253200Y-7600000D02*
X20283200Y-7600000D01*
X20268200Y-7825000D02*
X20268200Y-7855000D01*
X20253200Y-7840000D02*
X20283200Y-7840000D01*
X20290800Y-6290000D02*
X20290800Y-6320000D01*
X20275800Y-6305000D02*
X20305800Y-6305000D01*
X20369800Y-7585000D02*
X20369800Y-7615000D01*
X20354800Y-7600000D02*
X20384800Y-7600000D01*
X20369800Y-7825000D02*
X20369800Y-7855000D01*
X20354800Y-7840000D02*
X20384800Y-7840000D01*
X20392400Y-6290000D02*
X20392400Y-6320000D01*
X20377400Y-6305000D02*
X20407400Y-6305000D01*
X20414000Y-5832000D02*
X20414000Y-5862000D01*
X20399000Y-5847000D02*
X20429000Y-5847000D01*
X20471400Y-7585000D02*
X20471400Y-7615000D01*
X20456400Y-7600000D02*
X20486400Y-7600000D01*
X20471400Y-7825000D02*
X20471400Y-7855000D01*
X20456400Y-7840000D02*
X20486400Y-7840000D01*
X20494000Y-6290000D02*
X20494000Y-6320000D01*
X20479000Y-6305000D02*
X20509000Y-6305000D01*
X20500000Y-4787000D02*
X20500000Y-4817000D01*
X20485000Y-4802000D02*
X20515000Y-4802000D01*
X20501800Y-6065000D02*
X20501800Y-6095000D01*
X20486800Y-6080000D02*
X20516800Y-6080000D01*
X20573000Y-7585000D02*
X20573000Y-7615000D01*
X20558000Y-7600000D02*
X20588000Y-7600000D01*
X20573000Y-7825000D02*
X20573000Y-7855000D01*
X20558000Y-7840000D02*
X20588000Y-7840000D01*
X20595600Y-6290000D02*
X20595600Y-6320000D01*
X20580600Y-6305000D02*
X20610600Y-6305000D01*
X20603400Y-6065000D02*
X20603400Y-6095000D01*
X20588400Y-6080000D02*
X20618400Y-6080000D01*
X20674600Y-7585000D02*
X20674600Y-7615000D01*
X20659600Y-7600000D02*
X20689600Y-7600000D01*
X20674600Y-7825000D02*
X20674600Y-7855000D01*
X20659600Y-7840000D02*
X20689600Y-7840000D01*
X20697200Y-6290000D02*
X20697200Y-6320000D01*
X20682200Y-6305000D02*
X20712200Y-6305000D01*
X20705000Y-6065000D02*
X20705000Y-6095000D01*
X20690000Y-6080000D02*
X20720000Y-6080000D01*
X20776200Y-7585000D02*
X20776200Y-7615000D01*
X20761200Y-7600000D02*
X20791200Y-7600000D01*
X20776200Y-7825000D02*
X20776200Y-7855000D01*
X20761200Y-7840000D02*
X20791200Y-7840000D01*
X20798800Y-6290000D02*
X20798800Y-6320000D01*
X20783800Y-6305000D02*
X20813800Y-6305000D01*
X20806600Y-6065000D02*
X20806600Y-6095000D01*
X20791600Y-6080000D02*
X20821600Y-6080000D01*
X20877800Y-7585000D02*
X20877800Y-7615000D01*
X20862800Y-7600000D02*
X20892800Y-7600000D01*
X20877800Y-7825000D02*
X20877800Y-7855000D01*
X20862800Y-7840000D02*
X20892800Y-7840000D01*
X20900400Y-6290000D02*
X20900400Y-6320000D01*
X20885400Y-6305000D02*
X20915400Y-6305000D01*
X20908200Y-6065000D02*
X20908200Y-6095000D01*
X20893200Y-6080000D02*
X20923200Y-6080000D01*
X20979400Y-7585000D02*
X20979400Y-7615000D01*
X20964400Y-7600000D02*
X20994400Y-7600000D01*
X20979400Y-7825000D02*
X20979400Y-7855000D01*
X20964400Y-7840000D02*
X20994400Y-7840000D01*
X21002000Y-6290000D02*
X21002000Y-6320000D01*
X20987000Y-6305000D02*
X21017000Y-6305000D01*
X21009800Y-6065000D02*
X21009800Y-6095000D01*
X20994800Y-6080000D02*
X21024800Y-6080000D01*
X21081000Y-7585000D02*
X21081000Y-7615000D01*
X21066000Y-7600000D02*
X21096000Y-7600000D01*
X21081000Y-7825000D02*
X21081000Y-7855000D01*
X21066000Y-7840000D02*
X21096000Y-7840000D01*
X21103600Y-6290000D02*
X21103600Y-6320000D01*
X21088600Y-6305000D02*
X21118600Y-6305000D01*
X21111400Y-6065000D02*
X21111400Y-6095000D01*
X21096400Y-6080000D02*
X21126400Y-6080000D01*
X21182600Y-7585000D02*
X21182600Y-7615000D01*
X21167600Y-7600000D02*
X21197600Y-7600000D01*
X21182600Y-7825000D02*
X21182600Y-7855000D01*
X21167600Y-7840000D02*
X21197600Y-7840000D01*
X21205200Y-6290000D02*
X21205200Y-6320000D01*
X21190200Y-6305000D02*
X21220200Y-6305000D01*
X21213000Y-6065000D02*
X21213000Y-6095000D01*
X21198000Y-6080000D02*
X21228000Y-6080000D01*
X21284200Y-7585000D02*
X21284200Y-7615000D01*
X21269200Y-7600000D02*
X21299200Y-7600000D01*
X21284200Y-7825000D02*
X21284200Y-7855000D01*
X21269200Y-7840000D02*
X21299200Y-7840000D01*
X21306800Y-6290000D02*
X21306800Y-6320000D01*
X21291800Y-6305000D02*
X21321800Y-6305000D01*
X21314600Y-6065000D02*
X21314600Y-6095000D01*
X21299600Y-6080000D02*
X21329600Y-6080000D01*
X21385800Y-7585000D02*
X21385800Y-7615000D01*
X21370800Y-7600000D02*
X21400800Y-7600000D01*
X21385800Y-7825000D02*
X21385800Y-7855000D01*
X21370800Y-7840000D02*
X21400800Y-7840000D01*
X21408400Y-6290000D02*
X21408400Y-6320000D01*
X21393400Y-6305000D02*
X21423400Y-6305000D01*
X21416200Y-6065000D02*
X21416200Y-6095000D01*
X21401200Y-6080000D02*
X21431200Y-6080000D01*
X21487400Y-7585000D02*
X21487400Y-7615000D01*
X21472400Y-7600000D02*
X21502400Y-7600000D01*
X21487400Y-7825000D02*
X21487400Y-7855000D01*
X21472400Y-7840000D02*
X21502400Y-7840000D01*
X21510000Y-6290000D02*
X21510000Y-6320000D01*
X21495000Y-6305000D02*
X21525000Y-6305000D01*
X21517800Y-6065000D02*
X21517800Y-6095000D01*
X21502800Y-6080000D02*
X21532800Y-6080000D01*
X21589000Y-7585000D02*
X21589000Y-7615000D01*
X21574000Y-7600000D02*
X21604000Y-7600000D01*
X21589000Y-7825000D02*
X21589000Y-7855000D01*
X21574000Y-7840000D02*
X21604000Y-7840000D01*
X21611600Y-6290000D02*
X21611600Y-6320000D01*
X21596600Y-6305000D02*
X21626600Y-6305000D01*
X21619400Y-6065000D02*
X21619400Y-6095000D01*
X21604400Y-6080000D02*
X21634400Y-6080000D01*
X21690600Y-7585000D02*
X21690600Y-7615000D01*
X21675600Y-7600000D02*
X21705600Y-7600000D01*
X21690600Y-7825000D02*
X21690600Y-7855000D01*
X21675600Y-7840000D02*
X21705600Y-7840000D01*
X21713200Y-6290000D02*
X21713200Y-6320000D01*
X21698200Y-6305000D02*
X21728200Y-6305000D01*
X21721000Y-6065000D02*
X21721000Y-6095000D01*
X21706000Y-6080000D02*
X21736000Y-6080000D01*
X21792200Y-7585000D02*
X21792200Y-7615000D01*
X21777200Y-7600000D02*
X21807200Y-7600000D01*
X21792200Y-7825000D02*
X21792200Y-7855000D01*
X21777200Y-7840000D02*
X21807200Y-7840000D01*
X21814800Y-6290000D02*
X21814800Y-6320000D01*
X21799800Y-6305000D02*
X21829800Y-6305000D01*
X21822600Y-6065000D02*
X21822600Y-6095000D01*
X21807600Y-6080000D02*
X21837600Y-6080000D01*
X21893800Y-7585000D02*
X21893800Y-7615000D01*
X21878800Y-7600000D02*
X21908800Y-7600000D01*
X21893800Y-7825000D02*
X21893800Y-7855000D01*
X21878800Y-7840000D02*
X21908800Y-7840000D01*
X21916400Y-6290000D02*
X21916400Y-6320000D01*
X21901400Y-6305000D02*
X21931400Y-6305000D01*
X21924200Y-6065000D02*
X21924200Y-6095000D01*
X21909200Y-6080000D02*
X21939200Y-6080000D01*
X21995400Y-7585000D02*
X21995400Y-7615000D01*
X21980400Y-7600000D02*
X22010400Y-7600000D01*
X21995400Y-7825000D02*
X21995400Y-7855000D01*
X21980400Y-7840000D02*
X22010400Y-7840000D01*
X22018000Y-6290000D02*
X22018000Y-6320000D01*
X22003000Y-6305000D02*
X22033000Y-6305000D01*
X22310000Y-5745000D02*
X22310000Y-5775000D01*
X22295000Y-5760000D02*
X22325000Y-5760000D01*
X22310000Y-6605000D02*
X22310000Y-6635000D01*
X22295000Y-6620000D02*
X22325000Y-6620000D01*
X22310000Y-7285000D02*
X22310000Y-7315000D01*
X22295000Y-7300000D02*
X22325000Y-7300000D01*
X22310000Y-8145000D02*
X22310000Y-8175000D01*
X22295000Y-8160000D02*
X22325000Y-8160000D01*
X22385000Y-5745000D02*
X22385000Y-5775000D01*
X22370000Y-5760000D02*
X22400000Y-5760000D01*
X22385000Y-6605000D02*
X22385000Y-6635000D01*
X22370000Y-6620000D02*
X22400000Y-6620000D01*
X22385000Y-7285000D02*
X22385000Y-7315000D01*
X22370000Y-7300000D02*
X22400000Y-7300000D01*
X22385000Y-8145000D02*
X22385000Y-8175000D01*
X22370000Y-8160000D02*
X22400000Y-8160000D01*
X22460000Y-5745000D02*
X22460000Y-5775000D01*
X22445000Y-5760000D02*
X22475000Y-5760000D01*
X22460000Y-6605000D02*
X22460000Y-6635000D01*
X22445000Y-6620000D02*
X22475000Y-6620000D01*
X22460000Y-7285000D02*
X22460000Y-7315000D01*
X22445000Y-7300000D02*
X22475000Y-7300000D01*
X22460000Y-8145000D02*
X22460000Y-8175000D01*
X22445000Y-8160000D02*
X22475000Y-8160000D01*
X22535000Y-5745000D02*
X22535000Y-5775000D01*
X22520000Y-5760000D02*
X22550000Y-5760000D01*
X22535000Y-6605000D02*
X22535000Y-6635000D01*
X22520000Y-6620000D02*
X22550000Y-6620000D01*
X22535000Y-7285000D02*
X22535000Y-7315000D01*
X22520000Y-7300000D02*
X22550000Y-7300000D01*
X22535000Y-8145000D02*
X22535000Y-8175000D01*
X22520000Y-8160000D02*
X22550000Y-8160000D01*
X22610000Y-5745000D02*
X22610000Y-5775000D01*
X22595000Y-5760000D02*
X22625000Y-5760000D01*
X22610000Y-6605000D02*
X22610000Y-6635000D01*
X22595000Y-6620000D02*
X22625000Y-6620000D01*
X22610000Y-7285000D02*
X22610000Y-7315000D01*
X22595000Y-7300000D02*
X22625000Y-7300000D01*
X22610000Y-8145000D02*
X22610000Y-8175000D01*
X22595000Y-8160000D02*
X22625000Y-8160000D01*
X21703285Y-4417785D02*
X21703285Y-4361216D01*
X21646716Y-4361216D01*
X21646716Y-4417785D01*
X21703285Y-4417785D01*
X21703285Y-4617785D02*
X21703285Y-4561216D01*
X21646716Y-4561216D01*
X21646716Y-4617785D01*
X21703285Y-4617785D01*
X21903285Y-4417785D02*
X21903285Y-4361216D01*
X21846716Y-4361216D01*
X21846716Y-4417785D01*
X21903285Y-4417785D01*
X21903285Y-4617785D02*
X21903285Y-4561216D01*
X21846716Y-4561216D01*
X21846716Y-4617785D01*
X21903285Y-4617785D01*
X22103285Y-4417785D02*
X22103285Y-4361216D01*
X22046716Y-4361216D01*
X22046716Y-4417785D01*
X22103285Y-4417785D01*
X22103285Y-4617785D02*
X22103285Y-4561216D01*
X22046716Y-4561216D01*
X22046716Y-4617785D01*
X22103285Y-4617785D01*
X22303285Y-4417785D02*
X22303285Y-4361216D01*
X22246716Y-4361216D01*
X22246716Y-4417785D01*
X22303285Y-4417785D01*
X22303285Y-4617785D02*
X22303285Y-4561216D01*
X22246716Y-4561216D01*
X22246716Y-4617785D01*
X22303285Y-4617785D01*
X22503284Y-4417785D02*
X22503284Y-4361216D01*
X22446715Y-4361216D01*
X22446715Y-4417785D01*
X22503284Y-4417785D01*
X22503284Y-4617785D02*
X22503284Y-4561216D01*
X22446715Y-4561216D01*
X22446715Y-4617785D01*
X22503284Y-4617785D01*
D10*
X260777Y-311484D02*
X260777Y-111484D01*
X260777Y-111484D02*
X308396Y-111484D01*
X308396Y-111484D02*
X336967Y-121008D01*
X336967Y-121008D02*
X356015Y-140055D01*
X356015Y-140055D02*
X365539Y-159103D01*
X365539Y-159103D02*
X375062Y-197198D01*
X375062Y-197198D02*
X375062Y-225769D01*
X375062Y-225769D02*
X365539Y-263865D01*
X365539Y-263865D02*
X356015Y-282912D01*
X356015Y-282912D02*
X336967Y-301960D01*
X336967Y-301960D02*
X308396Y-311484D01*
X308396Y-311484D02*
X260777Y-311484D01*
X460777Y-311484D02*
X460777Y-178150D01*
X460777Y-216246D02*
X470301Y-197198D01*
X470301Y-197198D02*
X479824Y-187674D01*
X479824Y-187674D02*
X498872Y-178150D01*
X498872Y-178150D02*
X517920Y-178150D01*
X584586Y-311484D02*
X584586Y-178150D01*
X584586Y-111484D02*
X575063Y-121008D01*
X575063Y-121008D02*
X584586Y-130531D01*
X584586Y-130531D02*
X594110Y-121008D01*
X594110Y-121008D02*
X584586Y-111484D01*
X584586Y-111484D02*
X584586Y-130531D01*
X708396Y-311484D02*
X689348Y-301960D01*
X689348Y-301960D02*
X679824Y-282912D01*
X679824Y-282912D02*
X679824Y-111484D01*
X813158Y-311484D02*
X794110Y-301960D01*
X794110Y-301960D02*
X784586Y-282912D01*
X784586Y-282912D02*
X784586Y-111484D01*
X1041729Y-311484D02*
X1041729Y-111484D01*
X1041729Y-111484D02*
X1108396Y-254341D01*
X1108396Y-254341D02*
X1175063Y-111484D01*
X1175063Y-111484D02*
X1175063Y-311484D01*
X1356015Y-311484D02*
X1356015Y-206722D01*
X1356015Y-206722D02*
X1346491Y-187674D01*
X1346491Y-187674D02*
X1327444Y-178150D01*
X1327444Y-178150D02*
X1289348Y-178150D01*
X1289348Y-178150D02*
X1270301Y-187674D01*
X1356015Y-301960D02*
X1336967Y-311484D01*
X1336967Y-311484D02*
X1289348Y-311484D01*
X1289348Y-311484D02*
X1270301Y-301960D01*
X1270301Y-301960D02*
X1260777Y-282912D01*
X1260777Y-282912D02*
X1260777Y-263865D01*
X1260777Y-263865D02*
X1270301Y-244817D01*
X1270301Y-244817D02*
X1289348Y-235293D01*
X1289348Y-235293D02*
X1336967Y-235293D01*
X1336967Y-235293D02*
X1356015Y-225769D01*
X1451253Y-178150D02*
X1451253Y-378150D01*
X1451253Y-187674D02*
X1470301Y-178150D01*
X1470301Y-178150D02*
X1508396Y-178150D01*
X1508396Y-178150D02*
X1527443Y-187674D01*
X1527443Y-187674D02*
X1536967Y-197198D01*
X1536967Y-197198D02*
X1546491Y-216246D01*
X1546491Y-216246D02*
X1546491Y-273389D01*
X1546491Y-273389D02*
X1536967Y-292436D01*
X1536967Y-292436D02*
X1527443Y-301960D01*
X1527443Y-301960D02*
X1508396Y-311484D01*
X1508396Y-311484D02*
X1470301Y-311484D01*
X1470301Y-311484D02*
X1451253Y-301960D01*
X1632205Y-292436D02*
X1641729Y-301960D01*
X1641729Y-301960D02*
X1632205Y-311484D01*
X1632205Y-311484D02*
X1622682Y-301960D01*
X1622682Y-301960D02*
X1632205Y-292436D01*
X1632205Y-292436D02*
X1632205Y-311484D01*
X1632205Y-187674D02*
X1641729Y-197198D01*
X1641729Y-197198D02*
X1632205Y-206722D01*
X1632205Y-206722D02*
X1622682Y-197198D01*
X1622682Y-197198D02*
X1632205Y-187674D01*
X1632205Y-187674D02*
X1632205Y-206722D01*
D11*
X-20000Y-630000D02*
X0Y-650000D01*
X0Y-630000D02*
X-20000Y-650000D01*
D10*
X298872Y-531484D02*
X317920Y-531484D01*
X317920Y-531484D02*
X336967Y-541008D01*
X336967Y-541008D02*
X346491Y-550531D01*
X346491Y-550531D02*
X356015Y-569579D01*
X356015Y-569579D02*
X365539Y-607674D01*
X365539Y-607674D02*
X365539Y-655293D01*
X365539Y-655293D02*
X356015Y-693389D01*
X356015Y-693389D02*
X346491Y-712436D01*
X346491Y-712436D02*
X336967Y-721960D01*
X336967Y-721960D02*
X317920Y-731484D01*
X317920Y-731484D02*
X298872Y-731484D01*
X298872Y-731484D02*
X279824Y-721960D01*
X279824Y-721960D02*
X270301Y-712436D01*
X270301Y-712436D02*
X260777Y-693389D01*
X260777Y-693389D02*
X251253Y-655293D01*
X251253Y-655293D02*
X251253Y-607674D01*
X251253Y-607674D02*
X260777Y-569579D01*
X260777Y-569579D02*
X270301Y-550531D01*
X270301Y-550531D02*
X279824Y-541008D01*
X279824Y-541008D02*
X298872Y-531484D01*
X451253Y-712436D02*
X460777Y-721960D01*
X460777Y-721960D02*
X451253Y-731484D01*
X451253Y-731484D02*
X441729Y-721960D01*
X441729Y-721960D02*
X451253Y-712436D01*
X451253Y-712436D02*
X451253Y-731484D01*
X536967Y-550531D02*
X546491Y-541008D01*
X546491Y-541008D02*
X565539Y-531484D01*
X565539Y-531484D02*
X613158Y-531484D01*
X613158Y-531484D02*
X632205Y-541008D01*
X632205Y-541008D02*
X641729Y-550531D01*
X641729Y-550531D02*
X651253Y-569579D01*
X651253Y-569579D02*
X651253Y-588627D01*
X651253Y-588627D02*
X641729Y-617198D01*
X641729Y-617198D02*
X527444Y-731484D01*
X527444Y-731484D02*
X651253Y-731484D01*
X775062Y-531484D02*
X794110Y-531484D01*
X794110Y-531484D02*
X813158Y-541008D01*
X813158Y-541008D02*
X822682Y-550531D01*
X822682Y-550531D02*
X832205Y-569579D01*
X832205Y-569579D02*
X841729Y-607674D01*
X841729Y-607674D02*
X841729Y-655293D01*
X841729Y-655293D02*
X832205Y-693389D01*
X832205Y-693389D02*
X822682Y-712436D01*
X822682Y-712436D02*
X813158Y-721960D01*
X813158Y-721960D02*
X794110Y-731484D01*
X794110Y-731484D02*
X775062Y-731484D01*
X775062Y-731484D02*
X756015Y-721960D01*
X756015Y-721960D02*
X746491Y-712436D01*
X746491Y-712436D02*
X736967Y-693389D01*
X736967Y-693389D02*
X727443Y-655293D01*
X727443Y-655293D02*
X727443Y-607674D01*
X727443Y-607674D02*
X736967Y-569579D01*
X736967Y-569579D02*
X746491Y-550531D01*
X746491Y-550531D02*
X756015Y-541008D01*
X756015Y-541008D02*
X775062Y-531484D01*
X965539Y-531484D02*
X984586Y-531484D01*
X984586Y-531484D02*
X1003634Y-541008D01*
X1003634Y-541008D02*
X1013158Y-550531D01*
X1013158Y-550531D02*
X1022682Y-569579D01*
X1022682Y-569579D02*
X1032205Y-607674D01*
X1032205Y-607674D02*
X1032205Y-655293D01*
X1032205Y-655293D02*
X1022682Y-693389D01*
X1022682Y-693389D02*
X1013158Y-712436D01*
X1013158Y-712436D02*
X1003634Y-721960D01*
X1003634Y-721960D02*
X984586Y-731484D01*
X984586Y-731484D02*
X965539Y-731484D01*
X965539Y-731484D02*
X946491Y-721960D01*
X946491Y-721960D02*
X936967Y-712436D01*
X936967Y-712436D02*
X927443Y-693389D01*
X927443Y-693389D02*
X917920Y-655293D01*
X917920Y-655293D02*
X917920Y-607674D01*
X917920Y-607674D02*
X927443Y-569579D01*
X927443Y-569579D02*
X936967Y-550531D01*
X936967Y-550531D02*
X946491Y-541008D01*
X946491Y-541008D02*
X965539Y-531484D01*
X1117920Y-731484D02*
X1117920Y-598150D01*
X1117920Y-617198D02*
X1127444Y-607674D01*
X1127444Y-607674D02*
X1146491Y-598150D01*
X1146491Y-598150D02*
X1175063Y-598150D01*
X1175063Y-598150D02*
X1194110Y-607674D01*
X1194110Y-607674D02*
X1203634Y-626722D01*
X1203634Y-626722D02*
X1203634Y-731484D01*
X1203634Y-626722D02*
X1213158Y-607674D01*
X1213158Y-607674D02*
X1232205Y-598150D01*
X1232205Y-598150D02*
X1260777Y-598150D01*
X1260777Y-598150D02*
X1279825Y-607674D01*
X1279825Y-607674D02*
X1289348Y-626722D01*
X1289348Y-626722D02*
X1289348Y-731484D01*
X1384586Y-731484D02*
X1384586Y-598150D01*
X1384586Y-617198D02*
X1394110Y-607674D01*
X1394110Y-607674D02*
X1413158Y-598150D01*
X1413158Y-598150D02*
X1441729Y-598150D01*
X1441729Y-598150D02*
X1460777Y-607674D01*
X1460777Y-607674D02*
X1470301Y-626722D01*
X1470301Y-626722D02*
X1470301Y-731484D01*
X1470301Y-626722D02*
X1479824Y-607674D01*
X1479824Y-607674D02*
X1498872Y-598150D01*
X1498872Y-598150D02*
X1527443Y-598150D01*
X1527443Y-598150D02*
X1546491Y-607674D01*
X1546491Y-607674D02*
X1556015Y-626722D01*
X1556015Y-626722D02*
X1556015Y-731484D01*
X1946491Y-521960D02*
X1775063Y-779103D01*
X2203634Y-531484D02*
X2222682Y-531484D01*
X2222682Y-531484D02*
X2241729Y-541008D01*
X2241729Y-541008D02*
X2251253Y-550531D01*
X2251253Y-550531D02*
X2260777Y-569579D01*
X2260777Y-569579D02*
X2270301Y-607674D01*
X2270301Y-607674D02*
X2270301Y-655293D01*
X2270301Y-655293D02*
X2260777Y-693389D01*
X2260777Y-693389D02*
X2251253Y-712436D01*
X2251253Y-712436D02*
X2241729Y-721960D01*
X2241729Y-721960D02*
X2222682Y-731484D01*
X2222682Y-731484D02*
X2203634Y-731484D01*
X2203634Y-731484D02*
X2184587Y-721960D01*
X2184587Y-721960D02*
X2175063Y-712436D01*
X2175063Y-712436D02*
X2165539Y-693389D01*
X2165539Y-693389D02*
X2156015Y-655293D01*
X2156015Y-655293D02*
X2156015Y-607674D01*
X2156015Y-607674D02*
X2165539Y-569579D01*
X2165539Y-569579D02*
X2175063Y-550531D01*
X2175063Y-550531D02*
X2184587Y-541008D01*
X2184587Y-541008D02*
X2203634Y-531484D01*
X2356015Y-712436D02*
X2365539Y-721960D01*
X2365539Y-721960D02*
X2356015Y-731484D01*
X2356015Y-731484D02*
X2346491Y-721960D01*
X2346491Y-721960D02*
X2356015Y-712436D01*
X2356015Y-712436D02*
X2356015Y-731484D01*
X2489348Y-531484D02*
X2508396Y-531484D01*
X2508396Y-531484D02*
X2527444Y-541008D01*
X2527444Y-541008D02*
X2536968Y-550531D01*
X2536968Y-550531D02*
X2546491Y-569579D01*
X2546491Y-569579D02*
X2556015Y-607674D01*
X2556015Y-607674D02*
X2556015Y-655293D01*
X2556015Y-655293D02*
X2546491Y-693389D01*
X2546491Y-693389D02*
X2536968Y-712436D01*
X2536968Y-712436D02*
X2527444Y-721960D01*
X2527444Y-721960D02*
X2508396Y-731484D01*
X2508396Y-731484D02*
X2489348Y-731484D01*
X2489348Y-731484D02*
X2470301Y-721960D01*
X2470301Y-721960D02*
X2460777Y-712436D01*
X2460777Y-712436D02*
X2451253Y-693389D01*
X2451253Y-693389D02*
X2441729Y-655293D01*
X2441729Y-655293D02*
X2441729Y-607674D01*
X2441729Y-607674D02*
X2451253Y-569579D01*
X2451253Y-569579D02*
X2460777Y-550531D01*
X2460777Y-550531D02*
X2470301Y-541008D01*
X2470301Y-541008D02*
X2489348Y-531484D01*
X2679825Y-531484D02*
X2698872Y-531484D01*
X2698872Y-531484D02*
X2717920Y-541008D01*
X2717920Y-541008D02*
X2727444Y-550531D01*
X2727444Y-550531D02*
X2736968Y-569579D01*
X2736968Y-569579D02*
X2746491Y-607674D01*
X2746491Y-607674D02*
X2746491Y-655293D01*
X2746491Y-655293D02*
X2736968Y-693389D01*
X2736968Y-693389D02*
X2727444Y-712436D01*
X2727444Y-712436D02*
X2717920Y-721960D01*
X2717920Y-721960D02*
X2698872Y-731484D01*
X2698872Y-731484D02*
X2679825Y-731484D01*
X2679825Y-731484D02*
X2660777Y-721960D01*
X2660777Y-721960D02*
X2651253Y-712436D01*
X2651253Y-712436D02*
X2641729Y-693389D01*
X2641729Y-693389D02*
X2632206Y-655293D01*
X2632206Y-655293D02*
X2632206Y-607674D01*
X2632206Y-607674D02*
X2641729Y-569579D01*
X2641729Y-569579D02*
X2651253Y-550531D01*
X2651253Y-550531D02*
X2660777Y-541008D01*
X2660777Y-541008D02*
X2679825Y-531484D01*
X2813158Y-531484D02*
X2946491Y-531484D01*
X2946491Y-531484D02*
X2860777Y-731484D01*
X3032206Y-731484D02*
X3070301Y-731484D01*
X3070301Y-731484D02*
X3089348Y-721960D01*
X3089348Y-721960D02*
X3098872Y-712436D01*
X3098872Y-712436D02*
X3117920Y-683865D01*
X3117920Y-683865D02*
X3127444Y-645770D01*
X3127444Y-645770D02*
X3127444Y-569579D01*
X3127444Y-569579D02*
X3117920Y-550531D01*
X3117920Y-550531D02*
X3108396Y-541008D01*
X3108396Y-541008D02*
X3089348Y-531484D01*
X3089348Y-531484D02*
X3051253Y-531484D01*
X3051253Y-531484D02*
X3032206Y-541008D01*
X3032206Y-541008D02*
X3022682Y-550531D01*
X3022682Y-550531D02*
X3013158Y-569579D01*
X3013158Y-569579D02*
X3013158Y-617198D01*
X3013158Y-617198D02*
X3022682Y-636246D01*
X3022682Y-636246D02*
X3032206Y-645770D01*
X3032206Y-645770D02*
X3051253Y-655293D01*
X3051253Y-655293D02*
X3089348Y-655293D01*
X3089348Y-655293D02*
X3108396Y-645770D01*
X3108396Y-645770D02*
X3117920Y-636246D01*
X3117920Y-636246D02*
X3127444Y-617198D01*
X3203634Y-531484D02*
X3203634Y-569579D01*
X3279825Y-531484D02*
X3279825Y-569579D01*
X3575063Y-807674D02*
X3565539Y-798150D01*
X3565539Y-798150D02*
X3546491Y-769579D01*
X3546491Y-769579D02*
X3536968Y-750531D01*
X3536968Y-750531D02*
X3527444Y-721960D01*
X3527444Y-721960D02*
X3517920Y-674341D01*
X3517920Y-674341D02*
X3517920Y-636246D01*
X3517920Y-636246D02*
X3527444Y-588627D01*
X3527444Y-588627D02*
X3536968Y-560055D01*
X3536968Y-560055D02*
X3546491Y-541008D01*
X3546491Y-541008D02*
X3565539Y-512436D01*
X3565539Y-512436D02*
X3575063Y-502912D01*
X3632206Y-531484D02*
X3765539Y-531484D01*
X3765539Y-531484D02*
X3679825Y-731484D01*
X3994110Y-731484D02*
X3994110Y-531484D01*
X4079825Y-731484D02*
X4079825Y-626722D01*
X4079825Y-626722D02*
X4070301Y-607674D01*
X4070301Y-607674D02*
X4051253Y-598150D01*
X4051253Y-598150D02*
X4022682Y-598150D01*
X4022682Y-598150D02*
X4003634Y-607674D01*
X4003634Y-607674D02*
X3994110Y-617198D01*
X4203634Y-731484D02*
X4184587Y-721960D01*
X4184587Y-721960D02*
X4175063Y-712436D01*
X4175063Y-712436D02*
X4165539Y-693389D01*
X4165539Y-693389D02*
X4165539Y-636246D01*
X4165539Y-636246D02*
X4175063Y-617198D01*
X4175063Y-617198D02*
X4184587Y-607674D01*
X4184587Y-607674D02*
X4203634Y-598150D01*
X4203634Y-598150D02*
X4232206Y-598150D01*
X4232206Y-598150D02*
X4251253Y-607674D01*
X4251253Y-607674D02*
X4260777Y-617198D01*
X4260777Y-617198D02*
X4270301Y-636246D01*
X4270301Y-636246D02*
X4270301Y-693389D01*
X4270301Y-693389D02*
X4260777Y-712436D01*
X4260777Y-712436D02*
X4251253Y-721960D01*
X4251253Y-721960D02*
X4232206Y-731484D01*
X4232206Y-731484D02*
X4203634Y-731484D01*
X4384587Y-731484D02*
X4365539Y-721960D01*
X4365539Y-721960D02*
X4356015Y-702912D01*
X4356015Y-702912D02*
X4356015Y-531484D01*
X4536968Y-721960D02*
X4517920Y-731484D01*
X4517920Y-731484D02*
X4479825Y-731484D01*
X4479825Y-731484D02*
X4460777Y-721960D01*
X4460777Y-721960D02*
X4451253Y-702912D01*
X4451253Y-702912D02*
X4451253Y-626722D01*
X4451253Y-626722D02*
X4460777Y-607674D01*
X4460777Y-607674D02*
X4479825Y-598150D01*
X4479825Y-598150D02*
X4517920Y-598150D01*
X4517920Y-598150D02*
X4536968Y-607674D01*
X4536968Y-607674D02*
X4546492Y-626722D01*
X4546492Y-626722D02*
X4546492Y-645770D01*
X4546492Y-645770D02*
X4451253Y-664817D01*
X4622682Y-721960D02*
X4641730Y-731484D01*
X4641730Y-731484D02*
X4679825Y-731484D01*
X4679825Y-731484D02*
X4698873Y-721960D01*
X4698873Y-721960D02*
X4708396Y-702912D01*
X4708396Y-702912D02*
X4708396Y-693389D01*
X4708396Y-693389D02*
X4698873Y-674341D01*
X4698873Y-674341D02*
X4679825Y-664817D01*
X4679825Y-664817D02*
X4651253Y-664817D01*
X4651253Y-664817D02*
X4632206Y-655293D01*
X4632206Y-655293D02*
X4622682Y-636246D01*
X4622682Y-636246D02*
X4622682Y-626722D01*
X4622682Y-626722D02*
X4632206Y-607674D01*
X4632206Y-607674D02*
X4651253Y-598150D01*
X4651253Y-598150D02*
X4679825Y-598150D01*
X4679825Y-598150D02*
X4698873Y-607674D01*
X4775063Y-807674D02*
X4784587Y-798150D01*
X4784587Y-798150D02*
X4803634Y-769579D01*
X4803634Y-769579D02*
X4813158Y-750531D01*
X4813158Y-750531D02*
X4822682Y-721960D01*
X4822682Y-721960D02*
X4832206Y-674341D01*
X4832206Y-674341D02*
X4832206Y-636246D01*
X4832206Y-636246D02*
X4822682Y-588627D01*
X4822682Y-588627D02*
X4813158Y-560055D01*
X4813158Y-560055D02*
X4803634Y-541008D01*
X4803634Y-541008D02*
X4784587Y-512436D01*
X4784587Y-512436D02*
X4775063Y-502912D01*
D11*
X0Y-904000D02*
G75*
G02*
X-20320Y-904000I-10160J0D01*
G01*
X-20320Y-904000D02*
G75*
G02*
X0Y-904000I10160J0D01*
G01*
D10*
X298872Y-795484D02*
X317920Y-795484D01*
X317920Y-795484D02*
X336967Y-805008D01*
X336967Y-805008D02*
X346491Y-814531D01*
X346491Y-814531D02*
X356015Y-833579D01*
X356015Y-833579D02*
X365539Y-871674D01*
X365539Y-871674D02*
X365539Y-919293D01*
X365539Y-919293D02*
X356015Y-957388D01*
X356015Y-957388D02*
X346491Y-976436D01*
X346491Y-976436D02*
X336967Y-985960D01*
X336967Y-985960D02*
X317920Y-995484D01*
X317920Y-995484D02*
X298872Y-995484D01*
X298872Y-995484D02*
X279824Y-985960D01*
X279824Y-985960D02*
X270301Y-976436D01*
X270301Y-976436D02*
X260777Y-957388D01*
X260777Y-957388D02*
X251253Y-919293D01*
X251253Y-919293D02*
X251253Y-871674D01*
X251253Y-871674D02*
X260777Y-833579D01*
X260777Y-833579D02*
X270301Y-814531D01*
X270301Y-814531D02*
X279824Y-805008D01*
X279824Y-805008D02*
X298872Y-795484D01*
X451253Y-976436D02*
X460777Y-985960D01*
X460777Y-985960D02*
X451253Y-995484D01*
X451253Y-995484D02*
X441729Y-985960D01*
X441729Y-985960D02*
X451253Y-976436D01*
X451253Y-976436D02*
X451253Y-995484D01*
X536967Y-814531D02*
X546491Y-805008D01*
X546491Y-805008D02*
X565539Y-795484D01*
X565539Y-795484D02*
X613158Y-795484D01*
X613158Y-795484D02*
X632205Y-805008D01*
X632205Y-805008D02*
X641729Y-814531D01*
X641729Y-814531D02*
X651253Y-833579D01*
X651253Y-833579D02*
X651253Y-852627D01*
X651253Y-852627D02*
X641729Y-881198D01*
X641729Y-881198D02*
X527444Y-995484D01*
X527444Y-995484D02*
X651253Y-995484D01*
X775062Y-795484D02*
X794110Y-795484D01*
X794110Y-795484D02*
X813158Y-805008D01*
X813158Y-805008D02*
X822682Y-814531D01*
X822682Y-814531D02*
X832205Y-833579D01*
X832205Y-833579D02*
X841729Y-871674D01*
X841729Y-871674D02*
X841729Y-919293D01*
X841729Y-919293D02*
X832205Y-957388D01*
X832205Y-957388D02*
X822682Y-976436D01*
X822682Y-976436D02*
X813158Y-985960D01*
X813158Y-985960D02*
X794110Y-995484D01*
X794110Y-995484D02*
X775062Y-995484D01*
X775062Y-995484D02*
X756015Y-985960D01*
X756015Y-985960D02*
X746491Y-976436D01*
X746491Y-976436D02*
X736967Y-957388D01*
X736967Y-957388D02*
X727443Y-919293D01*
X727443Y-919293D02*
X727443Y-871674D01*
X727443Y-871674D02*
X736967Y-833579D01*
X736967Y-833579D02*
X746491Y-814531D01*
X746491Y-814531D02*
X756015Y-805008D01*
X756015Y-805008D02*
X775062Y-795484D01*
X908396Y-795484D02*
X1032205Y-795484D01*
X1032205Y-795484D02*
X965539Y-871674D01*
X965539Y-871674D02*
X994110Y-871674D01*
X994110Y-871674D02*
X1013158Y-881198D01*
X1013158Y-881198D02*
X1022682Y-890722D01*
X1022682Y-890722D02*
X1032205Y-909769D01*
X1032205Y-909769D02*
X1032205Y-957388D01*
X1032205Y-957388D02*
X1022682Y-976436D01*
X1022682Y-976436D02*
X1013158Y-985960D01*
X1013158Y-985960D02*
X994110Y-995484D01*
X994110Y-995484D02*
X936967Y-995484D01*
X936967Y-995484D02*
X917920Y-985960D01*
X917920Y-985960D02*
X908396Y-976436D01*
X1117920Y-995484D02*
X1117920Y-862150D01*
X1117920Y-881198D02*
X1127444Y-871674D01*
X1127444Y-871674D02*
X1146491Y-862150D01*
X1146491Y-862150D02*
X1175063Y-862150D01*
X1175063Y-862150D02*
X1194110Y-871674D01*
X1194110Y-871674D02*
X1203634Y-890722D01*
X1203634Y-890722D02*
X1203634Y-995484D01*
X1203634Y-890722D02*
X1213158Y-871674D01*
X1213158Y-871674D02*
X1232205Y-862150D01*
X1232205Y-862150D02*
X1260777Y-862150D01*
X1260777Y-862150D02*
X1279825Y-871674D01*
X1279825Y-871674D02*
X1289348Y-890722D01*
X1289348Y-890722D02*
X1289348Y-995484D01*
X1384586Y-995484D02*
X1384586Y-862150D01*
X1384586Y-881198D02*
X1394110Y-871674D01*
X1394110Y-871674D02*
X1413158Y-862150D01*
X1413158Y-862150D02*
X1441729Y-862150D01*
X1441729Y-862150D02*
X1460777Y-871674D01*
X1460777Y-871674D02*
X1470301Y-890722D01*
X1470301Y-890722D02*
X1470301Y-995484D01*
X1470301Y-890722D02*
X1479824Y-871674D01*
X1479824Y-871674D02*
X1498872Y-862150D01*
X1498872Y-862150D02*
X1527443Y-862150D01*
X1527443Y-862150D02*
X1546491Y-871674D01*
X1546491Y-871674D02*
X1556015Y-890722D01*
X1556015Y-890722D02*
X1556015Y-995484D01*
X1946491Y-785960D02*
X1775063Y-1043103D01*
X2203634Y-795484D02*
X2222682Y-795484D01*
X2222682Y-795484D02*
X2241729Y-805008D01*
X2241729Y-805008D02*
X2251253Y-814531D01*
X2251253Y-814531D02*
X2260777Y-833579D01*
X2260777Y-833579D02*
X2270301Y-871674D01*
X2270301Y-871674D02*
X2270301Y-919293D01*
X2270301Y-919293D02*
X2260777Y-957388D01*
X2260777Y-957388D02*
X2251253Y-976436D01*
X2251253Y-976436D02*
X2241729Y-985960D01*
X2241729Y-985960D02*
X2222682Y-995484D01*
X2222682Y-995484D02*
X2203634Y-995484D01*
X2203634Y-995484D02*
X2184587Y-985960D01*
X2184587Y-985960D02*
X2175063Y-976436D01*
X2175063Y-976436D02*
X2165539Y-957388D01*
X2165539Y-957388D02*
X2156015Y-919293D01*
X2156015Y-919293D02*
X2156015Y-871674D01*
X2156015Y-871674D02*
X2165539Y-833579D01*
X2165539Y-833579D02*
X2175063Y-814531D01*
X2175063Y-814531D02*
X2184587Y-805008D01*
X2184587Y-805008D02*
X2203634Y-795484D01*
X2356015Y-976436D02*
X2365539Y-985960D01*
X2365539Y-985960D02*
X2356015Y-995484D01*
X2356015Y-995484D02*
X2346491Y-985960D01*
X2346491Y-985960D02*
X2356015Y-976436D01*
X2356015Y-976436D02*
X2356015Y-995484D01*
X2489348Y-795484D02*
X2508396Y-795484D01*
X2508396Y-795484D02*
X2527444Y-805008D01*
X2527444Y-805008D02*
X2536968Y-814531D01*
X2536968Y-814531D02*
X2546491Y-833579D01*
X2546491Y-833579D02*
X2556015Y-871674D01*
X2556015Y-871674D02*
X2556015Y-919293D01*
X2556015Y-919293D02*
X2546491Y-957388D01*
X2546491Y-957388D02*
X2536968Y-976436D01*
X2536968Y-976436D02*
X2527444Y-985960D01*
X2527444Y-985960D02*
X2508396Y-995484D01*
X2508396Y-995484D02*
X2489348Y-995484D01*
X2489348Y-995484D02*
X2470301Y-985960D01*
X2470301Y-985960D02*
X2460777Y-976436D01*
X2460777Y-976436D02*
X2451253Y-957388D01*
X2451253Y-957388D02*
X2441729Y-919293D01*
X2441729Y-919293D02*
X2441729Y-871674D01*
X2441729Y-871674D02*
X2451253Y-833579D01*
X2451253Y-833579D02*
X2460777Y-814531D01*
X2460777Y-814531D02*
X2470301Y-805008D01*
X2470301Y-805008D02*
X2489348Y-795484D01*
X2679825Y-795484D02*
X2698872Y-795484D01*
X2698872Y-795484D02*
X2717920Y-805008D01*
X2717920Y-805008D02*
X2727444Y-814531D01*
X2727444Y-814531D02*
X2736968Y-833579D01*
X2736968Y-833579D02*
X2746491Y-871674D01*
X2746491Y-871674D02*
X2746491Y-919293D01*
X2746491Y-919293D02*
X2736968Y-957388D01*
X2736968Y-957388D02*
X2727444Y-976436D01*
X2727444Y-976436D02*
X2717920Y-985960D01*
X2717920Y-985960D02*
X2698872Y-995484D01*
X2698872Y-995484D02*
X2679825Y-995484D01*
X2679825Y-995484D02*
X2660777Y-985960D01*
X2660777Y-985960D02*
X2651253Y-976436D01*
X2651253Y-976436D02*
X2641729Y-957388D01*
X2641729Y-957388D02*
X2632206Y-919293D01*
X2632206Y-919293D02*
X2632206Y-871674D01*
X2632206Y-871674D02*
X2641729Y-833579D01*
X2641729Y-833579D02*
X2651253Y-814531D01*
X2651253Y-814531D02*
X2660777Y-805008D01*
X2660777Y-805008D02*
X2679825Y-795484D01*
X2860777Y-881198D02*
X2841729Y-871674D01*
X2841729Y-871674D02*
X2832206Y-862150D01*
X2832206Y-862150D02*
X2822682Y-843103D01*
X2822682Y-843103D02*
X2822682Y-833579D01*
X2822682Y-833579D02*
X2832206Y-814531D01*
X2832206Y-814531D02*
X2841729Y-805008D01*
X2841729Y-805008D02*
X2860777Y-795484D01*
X2860777Y-795484D02*
X2898872Y-795484D01*
X2898872Y-795484D02*
X2917920Y-805008D01*
X2917920Y-805008D02*
X2927444Y-814531D01*
X2927444Y-814531D02*
X2936967Y-833579D01*
X2936967Y-833579D02*
X2936967Y-843103D01*
X2936967Y-843103D02*
X2927444Y-862150D01*
X2927444Y-862150D02*
X2917920Y-871674D01*
X2917920Y-871674D02*
X2898872Y-881198D01*
X2898872Y-881198D02*
X2860777Y-881198D01*
X2860777Y-881198D02*
X2841729Y-890722D01*
X2841729Y-890722D02*
X2832206Y-900246D01*
X2832206Y-900246D02*
X2822682Y-919293D01*
X2822682Y-919293D02*
X2822682Y-957388D01*
X2822682Y-957388D02*
X2832206Y-976436D01*
X2832206Y-976436D02*
X2841729Y-985960D01*
X2841729Y-985960D02*
X2860777Y-995484D01*
X2860777Y-995484D02*
X2898872Y-995484D01*
X2898872Y-995484D02*
X2917920Y-985960D01*
X2917920Y-985960D02*
X2927444Y-976436D01*
X2927444Y-976436D02*
X2936967Y-957388D01*
X2936967Y-957388D02*
X2936967Y-919293D01*
X2936967Y-919293D02*
X2927444Y-900246D01*
X2927444Y-900246D02*
X2917920Y-890722D01*
X2917920Y-890722D02*
X2898872Y-881198D01*
X3060777Y-795484D02*
X3079825Y-795484D01*
X3079825Y-795484D02*
X3098872Y-805008D01*
X3098872Y-805008D02*
X3108396Y-814531D01*
X3108396Y-814531D02*
X3117920Y-833579D01*
X3117920Y-833579D02*
X3127444Y-871674D01*
X3127444Y-871674D02*
X3127444Y-919293D01*
X3127444Y-919293D02*
X3117920Y-957388D01*
X3117920Y-957388D02*
X3108396Y-976436D01*
X3108396Y-976436D02*
X3098872Y-985960D01*
X3098872Y-985960D02*
X3079825Y-995484D01*
X3079825Y-995484D02*
X3060777Y-995484D01*
X3060777Y-995484D02*
X3041729Y-985960D01*
X3041729Y-985960D02*
X3032206Y-976436D01*
X3032206Y-976436D02*
X3022682Y-957388D01*
X3022682Y-957388D02*
X3013158Y-919293D01*
X3013158Y-919293D02*
X3013158Y-871674D01*
X3013158Y-871674D02*
X3022682Y-833579D01*
X3022682Y-833579D02*
X3032206Y-814531D01*
X3032206Y-814531D02*
X3041729Y-805008D01*
X3041729Y-805008D02*
X3060777Y-795484D01*
X3203634Y-795484D02*
X3203634Y-833579D01*
X3279825Y-795484D02*
X3279825Y-833579D01*
X3575063Y-1071674D02*
X3565539Y-1062150D01*
X3565539Y-1062150D02*
X3546491Y-1033579D01*
X3546491Y-1033579D02*
X3536968Y-1014531D01*
X3536968Y-1014531D02*
X3527444Y-985960D01*
X3527444Y-985960D02*
X3517920Y-938341D01*
X3517920Y-938341D02*
X3517920Y-900246D01*
X3517920Y-900246D02*
X3527444Y-852627D01*
X3527444Y-852627D02*
X3536968Y-824055D01*
X3536968Y-824055D02*
X3546491Y-805008D01*
X3546491Y-805008D02*
X3565539Y-776436D01*
X3565539Y-776436D02*
X3575063Y-766912D01*
X3660777Y-995484D02*
X3698872Y-995484D01*
X3698872Y-995484D02*
X3717920Y-985960D01*
X3717920Y-985960D02*
X3727444Y-976436D01*
X3727444Y-976436D02*
X3746491Y-947865D01*
X3746491Y-947865D02*
X3756015Y-909769D01*
X3756015Y-909769D02*
X3756015Y-833579D01*
X3756015Y-833579D02*
X3746491Y-814531D01*
X3746491Y-814531D02*
X3736968Y-805008D01*
X3736968Y-805008D02*
X3717920Y-795484D01*
X3717920Y-795484D02*
X3679825Y-795484D01*
X3679825Y-795484D02*
X3660777Y-805008D01*
X3660777Y-805008D02*
X3651253Y-814531D01*
X3651253Y-814531D02*
X3641729Y-833579D01*
X3641729Y-833579D02*
X3641729Y-881198D01*
X3641729Y-881198D02*
X3651253Y-900246D01*
X3651253Y-900246D02*
X3660777Y-909769D01*
X3660777Y-909769D02*
X3679825Y-919293D01*
X3679825Y-919293D02*
X3717920Y-919293D01*
X3717920Y-919293D02*
X3736968Y-909769D01*
X3736968Y-909769D02*
X3746491Y-900246D01*
X3746491Y-900246D02*
X3756015Y-881198D01*
X3994110Y-995484D02*
X3994110Y-795484D01*
X4079825Y-995484D02*
X4079825Y-890722D01*
X4079825Y-890722D02*
X4070301Y-871674D01*
X4070301Y-871674D02*
X4051253Y-862150D01*
X4051253Y-862150D02*
X4022682Y-862150D01*
X4022682Y-862150D02*
X4003634Y-871674D01*
X4003634Y-871674D02*
X3994110Y-881198D01*
X4203634Y-995484D02*
X4184587Y-985960D01*
X4184587Y-985960D02*
X4175063Y-976436D01*
X4175063Y-976436D02*
X4165539Y-957388D01*
X4165539Y-957388D02*
X4165539Y-900246D01*
X4165539Y-900246D02*
X4175063Y-881198D01*
X4175063Y-881198D02*
X4184587Y-871674D01*
X4184587Y-871674D02*
X4203634Y-862150D01*
X4203634Y-862150D02*
X4232206Y-862150D01*
X4232206Y-862150D02*
X4251253Y-871674D01*
X4251253Y-871674D02*
X4260777Y-881198D01*
X4260777Y-881198D02*
X4270301Y-900246D01*
X4270301Y-900246D02*
X4270301Y-957388D01*
X4270301Y-957388D02*
X4260777Y-976436D01*
X4260777Y-976436D02*
X4251253Y-985960D01*
X4251253Y-985960D02*
X4232206Y-995484D01*
X4232206Y-995484D02*
X4203634Y-995484D01*
X4384587Y-995484D02*
X4365539Y-985960D01*
X4365539Y-985960D02*
X4356015Y-966912D01*
X4356015Y-966912D02*
X4356015Y-795484D01*
X4536968Y-985960D02*
X4517920Y-995484D01*
X4517920Y-995484D02*
X4479825Y-995484D01*
X4479825Y-995484D02*
X4460777Y-985960D01*
X4460777Y-985960D02*
X4451253Y-966912D01*
X4451253Y-966912D02*
X4451253Y-890722D01*
X4451253Y-890722D02*
X4460777Y-871674D01*
X4460777Y-871674D02*
X4479825Y-862150D01*
X4479825Y-862150D02*
X4517920Y-862150D01*
X4517920Y-862150D02*
X4536968Y-871674D01*
X4536968Y-871674D02*
X4546492Y-890722D01*
X4546492Y-890722D02*
X4546492Y-909769D01*
X4546492Y-909769D02*
X4451253Y-928817D01*
X4622682Y-985960D02*
X4641730Y-995484D01*
X4641730Y-995484D02*
X4679825Y-995484D01*
X4679825Y-995484D02*
X4698873Y-985960D01*
X4698873Y-985960D02*
X4708396Y-966912D01*
X4708396Y-966912D02*
X4708396Y-957388D01*
X4708396Y-957388D02*
X4698873Y-938341D01*
X4698873Y-938341D02*
X4679825Y-928817D01*
X4679825Y-928817D02*
X4651253Y-928817D01*
X4651253Y-928817D02*
X4632206Y-919293D01*
X4632206Y-919293D02*
X4622682Y-900246D01*
X4622682Y-900246D02*
X4622682Y-890722D01*
X4622682Y-890722D02*
X4632206Y-871674D01*
X4632206Y-871674D02*
X4651253Y-862150D01*
X4651253Y-862150D02*
X4679825Y-862150D01*
X4679825Y-862150D02*
X4698873Y-871674D01*
X4775063Y-1071674D02*
X4784587Y-1062150D01*
X4784587Y-1062150D02*
X4803634Y-1033579D01*
X4803634Y-1033579D02*
X4813158Y-1014531D01*
X4813158Y-1014531D02*
X4822682Y-985960D01*
X4822682Y-985960D02*
X4832206Y-938341D01*
X4832206Y-938341D02*
X4832206Y-900246D01*
X4832206Y-900246D02*
X4822682Y-852627D01*
X4822682Y-852627D02*
X4813158Y-824055D01*
X4813158Y-824055D02*
X4803634Y-805008D01*
X4803634Y-805008D02*
X4784587Y-776436D01*
X4784587Y-776436D02*
X4775063Y-766912D01*
D11*
X-15000Y-1153000D02*
X-15000Y-1183000D01*
X-30000Y-1168000D02*
X0Y-1168000D01*
D10*
X298872Y-1059484D02*
X317920Y-1059484D01*
X317920Y-1059484D02*
X336967Y-1069008D01*
X336967Y-1069008D02*
X346491Y-1078531D01*
X346491Y-1078531D02*
X356015Y-1097579D01*
X356015Y-1097579D02*
X365539Y-1135674D01*
X365539Y-1135674D02*
X365539Y-1183293D01*
X365539Y-1183293D02*
X356015Y-1221389D01*
X356015Y-1221389D02*
X346491Y-1240436D01*
X346491Y-1240436D02*
X336967Y-1249960D01*
X336967Y-1249960D02*
X317920Y-1259484D01*
X317920Y-1259484D02*
X298872Y-1259484D01*
X298872Y-1259484D02*
X279824Y-1249960D01*
X279824Y-1249960D02*
X270301Y-1240436D01*
X270301Y-1240436D02*
X260777Y-1221389D01*
X260777Y-1221389D02*
X251253Y-1183293D01*
X251253Y-1183293D02*
X251253Y-1135674D01*
X251253Y-1135674D02*
X260777Y-1097579D01*
X260777Y-1097579D02*
X270301Y-1078531D01*
X270301Y-1078531D02*
X279824Y-1069008D01*
X279824Y-1069008D02*
X298872Y-1059484D01*
X451253Y-1240436D02*
X460777Y-1249960D01*
X460777Y-1249960D02*
X451253Y-1259484D01*
X451253Y-1259484D02*
X441729Y-1249960D01*
X441729Y-1249960D02*
X451253Y-1240436D01*
X451253Y-1240436D02*
X451253Y-1259484D01*
X527444Y-1059484D02*
X651253Y-1059484D01*
X651253Y-1059484D02*
X584586Y-1135674D01*
X584586Y-1135674D02*
X613158Y-1135674D01*
X613158Y-1135674D02*
X632205Y-1145198D01*
X632205Y-1145198D02*
X641729Y-1154722D01*
X641729Y-1154722D02*
X651253Y-1173770D01*
X651253Y-1173770D02*
X651253Y-1221389D01*
X651253Y-1221389D02*
X641729Y-1240436D01*
X641729Y-1240436D02*
X632205Y-1249960D01*
X632205Y-1249960D02*
X613158Y-1259484D01*
X613158Y-1259484D02*
X556015Y-1259484D01*
X556015Y-1259484D02*
X536967Y-1249960D01*
X536967Y-1249960D02*
X527444Y-1240436D01*
X775062Y-1059484D02*
X794110Y-1059484D01*
X794110Y-1059484D02*
X813158Y-1069008D01*
X813158Y-1069008D02*
X822682Y-1078531D01*
X822682Y-1078531D02*
X832205Y-1097579D01*
X832205Y-1097579D02*
X841729Y-1135674D01*
X841729Y-1135674D02*
X841729Y-1183293D01*
X841729Y-1183293D02*
X832205Y-1221389D01*
X832205Y-1221389D02*
X822682Y-1240436D01*
X822682Y-1240436D02*
X813158Y-1249960D01*
X813158Y-1249960D02*
X794110Y-1259484D01*
X794110Y-1259484D02*
X775062Y-1259484D01*
X775062Y-1259484D02*
X756015Y-1249960D01*
X756015Y-1249960D02*
X746491Y-1240436D01*
X746491Y-1240436D02*
X736967Y-1221389D01*
X736967Y-1221389D02*
X727443Y-1183293D01*
X727443Y-1183293D02*
X727443Y-1135674D01*
X727443Y-1135674D02*
X736967Y-1097579D01*
X736967Y-1097579D02*
X746491Y-1078531D01*
X746491Y-1078531D02*
X756015Y-1069008D01*
X756015Y-1069008D02*
X775062Y-1059484D01*
X965539Y-1059484D02*
X984586Y-1059484D01*
X984586Y-1059484D02*
X1003634Y-1069008D01*
X1003634Y-1069008D02*
X1013158Y-1078531D01*
X1013158Y-1078531D02*
X1022682Y-1097579D01*
X1022682Y-1097579D02*
X1032205Y-1135674D01*
X1032205Y-1135674D02*
X1032205Y-1183293D01*
X1032205Y-1183293D02*
X1022682Y-1221389D01*
X1022682Y-1221389D02*
X1013158Y-1240436D01*
X1013158Y-1240436D02*
X1003634Y-1249960D01*
X1003634Y-1249960D02*
X984586Y-1259484D01*
X984586Y-1259484D02*
X965539Y-1259484D01*
X965539Y-1259484D02*
X946491Y-1249960D01*
X946491Y-1249960D02*
X936967Y-1240436D01*
X936967Y-1240436D02*
X927443Y-1221389D01*
X927443Y-1221389D02*
X917920Y-1183293D01*
X917920Y-1183293D02*
X917920Y-1135674D01*
X917920Y-1135674D02*
X927443Y-1097579D01*
X927443Y-1097579D02*
X936967Y-1078531D01*
X936967Y-1078531D02*
X946491Y-1069008D01*
X946491Y-1069008D02*
X965539Y-1059484D01*
X1117920Y-1259484D02*
X1117920Y-1126150D01*
X1117920Y-1145198D02*
X1127444Y-1135674D01*
X1127444Y-1135674D02*
X1146491Y-1126150D01*
X1146491Y-1126150D02*
X1175063Y-1126150D01*
X1175063Y-1126150D02*
X1194110Y-1135674D01*
X1194110Y-1135674D02*
X1203634Y-1154722D01*
X1203634Y-1154722D02*
X1203634Y-1259484D01*
X1203634Y-1154722D02*
X1213158Y-1135674D01*
X1213158Y-1135674D02*
X1232205Y-1126150D01*
X1232205Y-1126150D02*
X1260777Y-1126150D01*
X1260777Y-1126150D02*
X1279825Y-1135674D01*
X1279825Y-1135674D02*
X1289348Y-1154722D01*
X1289348Y-1154722D02*
X1289348Y-1259484D01*
X1384586Y-1259484D02*
X1384586Y-1126150D01*
X1384586Y-1145198D02*
X1394110Y-1135674D01*
X1394110Y-1135674D02*
X1413158Y-1126150D01*
X1413158Y-1126150D02*
X1441729Y-1126150D01*
X1441729Y-1126150D02*
X1460777Y-1135674D01*
X1460777Y-1135674D02*
X1470301Y-1154722D01*
X1470301Y-1154722D02*
X1470301Y-1259484D01*
X1470301Y-1154722D02*
X1479824Y-1135674D01*
X1479824Y-1135674D02*
X1498872Y-1126150D01*
X1498872Y-1126150D02*
X1527443Y-1126150D01*
X1527443Y-1126150D02*
X1546491Y-1135674D01*
X1546491Y-1135674D02*
X1556015Y-1154722D01*
X1556015Y-1154722D02*
X1556015Y-1259484D01*
X1946491Y-1049960D02*
X1775063Y-1307103D01*
X2203634Y-1059484D02*
X2222682Y-1059484D01*
X2222682Y-1059484D02*
X2241729Y-1069008D01*
X2241729Y-1069008D02*
X2251253Y-1078531D01*
X2251253Y-1078531D02*
X2260777Y-1097579D01*
X2260777Y-1097579D02*
X2270301Y-1135674D01*
X2270301Y-1135674D02*
X2270301Y-1183293D01*
X2270301Y-1183293D02*
X2260777Y-1221389D01*
X2260777Y-1221389D02*
X2251253Y-1240436D01*
X2251253Y-1240436D02*
X2241729Y-1249960D01*
X2241729Y-1249960D02*
X2222682Y-1259484D01*
X2222682Y-1259484D02*
X2203634Y-1259484D01*
X2203634Y-1259484D02*
X2184587Y-1249960D01*
X2184587Y-1249960D02*
X2175063Y-1240436D01*
X2175063Y-1240436D02*
X2165539Y-1221389D01*
X2165539Y-1221389D02*
X2156015Y-1183293D01*
X2156015Y-1183293D02*
X2156015Y-1135674D01*
X2156015Y-1135674D02*
X2165539Y-1097579D01*
X2165539Y-1097579D02*
X2175063Y-1078531D01*
X2175063Y-1078531D02*
X2184587Y-1069008D01*
X2184587Y-1069008D02*
X2203634Y-1059484D01*
X2356015Y-1240436D02*
X2365539Y-1249960D01*
X2365539Y-1249960D02*
X2356015Y-1259484D01*
X2356015Y-1259484D02*
X2346491Y-1249960D01*
X2346491Y-1249960D02*
X2356015Y-1240436D01*
X2356015Y-1240436D02*
X2356015Y-1259484D01*
X2489348Y-1059484D02*
X2508396Y-1059484D01*
X2508396Y-1059484D02*
X2527444Y-1069008D01*
X2527444Y-1069008D02*
X2536968Y-1078531D01*
X2536968Y-1078531D02*
X2546491Y-1097579D01*
X2546491Y-1097579D02*
X2556015Y-1135674D01*
X2556015Y-1135674D02*
X2556015Y-1183293D01*
X2556015Y-1183293D02*
X2546491Y-1221389D01*
X2546491Y-1221389D02*
X2536968Y-1240436D01*
X2536968Y-1240436D02*
X2527444Y-1249960D01*
X2527444Y-1249960D02*
X2508396Y-1259484D01*
X2508396Y-1259484D02*
X2489348Y-1259484D01*
X2489348Y-1259484D02*
X2470301Y-1249960D01*
X2470301Y-1249960D02*
X2460777Y-1240436D01*
X2460777Y-1240436D02*
X2451253Y-1221389D01*
X2451253Y-1221389D02*
X2441729Y-1183293D01*
X2441729Y-1183293D02*
X2441729Y-1135674D01*
X2441729Y-1135674D02*
X2451253Y-1097579D01*
X2451253Y-1097579D02*
X2460777Y-1078531D01*
X2460777Y-1078531D02*
X2470301Y-1069008D01*
X2470301Y-1069008D02*
X2489348Y-1059484D01*
X2746491Y-1259484D02*
X2632206Y-1259484D01*
X2689348Y-1259484D02*
X2689348Y-1059484D01*
X2689348Y-1059484D02*
X2670301Y-1088055D01*
X2670301Y-1088055D02*
X2651253Y-1107103D01*
X2651253Y-1107103D02*
X2632206Y-1116627D01*
X2936967Y-1259484D02*
X2822682Y-1259484D01*
X2879825Y-1259484D02*
X2879825Y-1059484D01*
X2879825Y-1059484D02*
X2860777Y-1088055D01*
X2860777Y-1088055D02*
X2841729Y-1107103D01*
X2841729Y-1107103D02*
X2822682Y-1116627D01*
X3051253Y-1145198D02*
X3032206Y-1135674D01*
X3032206Y-1135674D02*
X3022682Y-1126150D01*
X3022682Y-1126150D02*
X3013158Y-1107103D01*
X3013158Y-1107103D02*
X3013158Y-1097579D01*
X3013158Y-1097579D02*
X3022682Y-1078531D01*
X3022682Y-1078531D02*
X3032206Y-1069008D01*
X3032206Y-1069008D02*
X3051253Y-1059484D01*
X3051253Y-1059484D02*
X3089348Y-1059484D01*
X3089348Y-1059484D02*
X3108396Y-1069008D01*
X3108396Y-1069008D02*
X3117920Y-1078531D01*
X3117920Y-1078531D02*
X3127444Y-1097579D01*
X3127444Y-1097579D02*
X3127444Y-1107103D01*
X3127444Y-1107103D02*
X3117920Y-1126150D01*
X3117920Y-1126150D02*
X3108396Y-1135674D01*
X3108396Y-1135674D02*
X3089348Y-1145198D01*
X3089348Y-1145198D02*
X3051253Y-1145198D01*
X3051253Y-1145198D02*
X3032206Y-1154722D01*
X3032206Y-1154722D02*
X3022682Y-1164246D01*
X3022682Y-1164246D02*
X3013158Y-1183293D01*
X3013158Y-1183293D02*
X3013158Y-1221389D01*
X3013158Y-1221389D02*
X3022682Y-1240436D01*
X3022682Y-1240436D02*
X3032206Y-1249960D01*
X3032206Y-1249960D02*
X3051253Y-1259484D01*
X3051253Y-1259484D02*
X3089348Y-1259484D01*
X3089348Y-1259484D02*
X3108396Y-1249960D01*
X3108396Y-1249960D02*
X3117920Y-1240436D01*
X3117920Y-1240436D02*
X3127444Y-1221389D01*
X3127444Y-1221389D02*
X3127444Y-1183293D01*
X3127444Y-1183293D02*
X3117920Y-1164246D01*
X3117920Y-1164246D02*
X3108396Y-1154722D01*
X3108396Y-1154722D02*
X3089348Y-1145198D01*
X3203634Y-1059484D02*
X3203634Y-1097579D01*
X3279825Y-1059484D02*
X3279825Y-1097579D01*
X3575063Y-1335674D02*
X3565539Y-1326150D01*
X3565539Y-1326150D02*
X3546491Y-1297579D01*
X3546491Y-1297579D02*
X3536968Y-1278531D01*
X3536968Y-1278531D02*
X3527444Y-1249960D01*
X3527444Y-1249960D02*
X3517920Y-1202341D01*
X3517920Y-1202341D02*
X3517920Y-1164246D01*
X3517920Y-1164246D02*
X3527444Y-1116627D01*
X3527444Y-1116627D02*
X3536968Y-1088055D01*
X3536968Y-1088055D02*
X3546491Y-1069008D01*
X3546491Y-1069008D02*
X3565539Y-1040436D01*
X3565539Y-1040436D02*
X3575063Y-1030912D01*
X3756015Y-1259484D02*
X3641729Y-1259484D01*
X3698872Y-1259484D02*
X3698872Y-1059484D01*
X3698872Y-1059484D02*
X3679825Y-1088055D01*
X3679825Y-1088055D02*
X3660777Y-1107103D01*
X3660777Y-1107103D02*
X3641729Y-1116627D01*
X3870301Y-1145198D02*
X3851253Y-1135674D01*
X3851253Y-1135674D02*
X3841729Y-1126150D01*
X3841729Y-1126150D02*
X3832206Y-1107103D01*
X3832206Y-1107103D02*
X3832206Y-1097579D01*
X3832206Y-1097579D02*
X3841729Y-1078531D01*
X3841729Y-1078531D02*
X3851253Y-1069008D01*
X3851253Y-1069008D02*
X3870301Y-1059484D01*
X3870301Y-1059484D02*
X3908396Y-1059484D01*
X3908396Y-1059484D02*
X3927444Y-1069008D01*
X3927444Y-1069008D02*
X3936968Y-1078531D01*
X3936968Y-1078531D02*
X3946491Y-1097579D01*
X3946491Y-1097579D02*
X3946491Y-1107103D01*
X3946491Y-1107103D02*
X3936968Y-1126150D01*
X3936968Y-1126150D02*
X3927444Y-1135674D01*
X3927444Y-1135674D02*
X3908396Y-1145198D01*
X3908396Y-1145198D02*
X3870301Y-1145198D01*
X3870301Y-1145198D02*
X3851253Y-1154722D01*
X3851253Y-1154722D02*
X3841729Y-1164246D01*
X3841729Y-1164246D02*
X3832206Y-1183293D01*
X3832206Y-1183293D02*
X3832206Y-1221389D01*
X3832206Y-1221389D02*
X3841729Y-1240436D01*
X3841729Y-1240436D02*
X3851253Y-1249960D01*
X3851253Y-1249960D02*
X3870301Y-1259484D01*
X3870301Y-1259484D02*
X3908396Y-1259484D01*
X3908396Y-1259484D02*
X3927444Y-1249960D01*
X3927444Y-1249960D02*
X3936968Y-1240436D01*
X3936968Y-1240436D02*
X3946491Y-1221389D01*
X3946491Y-1221389D02*
X3946491Y-1183293D01*
X3946491Y-1183293D02*
X3936968Y-1164246D01*
X3936968Y-1164246D02*
X3927444Y-1154722D01*
X3927444Y-1154722D02*
X3908396Y-1145198D01*
X4060777Y-1145198D02*
X4041729Y-1135674D01*
X4041729Y-1135674D02*
X4032206Y-1126150D01*
X4032206Y-1126150D02*
X4022682Y-1107103D01*
X4022682Y-1107103D02*
X4022682Y-1097579D01*
X4022682Y-1097579D02*
X4032206Y-1078531D01*
X4032206Y-1078531D02*
X4041729Y-1069008D01*
X4041729Y-1069008D02*
X4060777Y-1059484D01*
X4060777Y-1059484D02*
X4098872Y-1059484D01*
X4098872Y-1059484D02*
X4117920Y-1069008D01*
X4117920Y-1069008D02*
X4127444Y-1078531D01*
X4127444Y-1078531D02*
X4136968Y-1097579D01*
X4136968Y-1097579D02*
X4136968Y-1107103D01*
X4136968Y-1107103D02*
X4127444Y-1126150D01*
X4127444Y-1126150D02*
X4117920Y-1135674D01*
X4117920Y-1135674D02*
X4098872Y-1145198D01*
X4098872Y-1145198D02*
X4060777Y-1145198D01*
X4060777Y-1145198D02*
X4041729Y-1154722D01*
X4041729Y-1154722D02*
X4032206Y-1164246D01*
X4032206Y-1164246D02*
X4022682Y-1183293D01*
X4022682Y-1183293D02*
X4022682Y-1221389D01*
X4022682Y-1221389D02*
X4032206Y-1240436D01*
X4032206Y-1240436D02*
X4041729Y-1249960D01*
X4041729Y-1249960D02*
X4060777Y-1259484D01*
X4060777Y-1259484D02*
X4098872Y-1259484D01*
X4098872Y-1259484D02*
X4117920Y-1249960D01*
X4117920Y-1249960D02*
X4127444Y-1240436D01*
X4127444Y-1240436D02*
X4136968Y-1221389D01*
X4136968Y-1221389D02*
X4136968Y-1183293D01*
X4136968Y-1183293D02*
X4127444Y-1164246D01*
X4127444Y-1164246D02*
X4117920Y-1154722D01*
X4117920Y-1154722D02*
X4098872Y-1145198D01*
X4375063Y-1259484D02*
X4375063Y-1059484D01*
X4460777Y-1259484D02*
X4460777Y-1154722D01*
X4460777Y-1154722D02*
X4451253Y-1135674D01*
X4451253Y-1135674D02*
X4432206Y-1126150D01*
X4432206Y-1126150D02*
X4403634Y-1126150D01*
X4403634Y-1126150D02*
X4384587Y-1135674D01*
X4384587Y-1135674D02*
X4375063Y-1145198D01*
X4584587Y-1259484D02*
X4565539Y-1249960D01*
X4565539Y-1249960D02*
X4556015Y-1240436D01*
X4556015Y-1240436D02*
X4546492Y-1221389D01*
X4546492Y-1221389D02*
X4546492Y-1164246D01*
X4546492Y-1164246D02*
X4556015Y-1145198D01*
X4556015Y-1145198D02*
X4565539Y-1135674D01*
X4565539Y-1135674D02*
X4584587Y-1126150D01*
X4584587Y-1126150D02*
X4613158Y-1126150D01*
X4613158Y-1126150D02*
X4632206Y-1135674D01*
X4632206Y-1135674D02*
X4641730Y-1145198D01*
X4641730Y-1145198D02*
X4651253Y-1164246D01*
X4651253Y-1164246D02*
X4651253Y-1221389D01*
X4651253Y-1221389D02*
X4641730Y-1240436D01*
X4641730Y-1240436D02*
X4632206Y-1249960D01*
X4632206Y-1249960D02*
X4613158Y-1259484D01*
X4613158Y-1259484D02*
X4584587Y-1259484D01*
X4765539Y-1259484D02*
X4746492Y-1249960D01*
X4746492Y-1249960D02*
X4736968Y-1230912D01*
X4736968Y-1230912D02*
X4736968Y-1059484D01*
X4917920Y-1249960D02*
X4898873Y-1259484D01*
X4898873Y-1259484D02*
X4860777Y-1259484D01*
X4860777Y-1259484D02*
X4841730Y-1249960D01*
X4841730Y-1249960D02*
X4832206Y-1230912D01*
X4832206Y-1230912D02*
X4832206Y-1154722D01*
X4832206Y-1154722D02*
X4841730Y-1135674D01*
X4841730Y-1135674D02*
X4860777Y-1126150D01*
X4860777Y-1126150D02*
X4898873Y-1126150D01*
X4898873Y-1126150D02*
X4917920Y-1135674D01*
X4917920Y-1135674D02*
X4927444Y-1154722D01*
X4927444Y-1154722D02*
X4927444Y-1173770D01*
X4927444Y-1173770D02*
X4832206Y-1192817D01*
X5003634Y-1249960D02*
X5022682Y-1259484D01*
X5022682Y-1259484D02*
X5060777Y-1259484D01*
X5060777Y-1259484D02*
X5079825Y-1249960D01*
X5079825Y-1249960D02*
X5089349Y-1230912D01*
X5089349Y-1230912D02*
X5089349Y-1221389D01*
X5089349Y-1221389D02*
X5079825Y-1202341D01*
X5079825Y-1202341D02*
X5060777Y-1192817D01*
X5060777Y-1192817D02*
X5032206Y-1192817D01*
X5032206Y-1192817D02*
X5013158Y-1183293D01*
X5013158Y-1183293D02*
X5003634Y-1164246D01*
X5003634Y-1164246D02*
X5003634Y-1154722D01*
X5003634Y-1154722D02*
X5013158Y-1135674D01*
X5013158Y-1135674D02*
X5032206Y-1126150D01*
X5032206Y-1126150D02*
X5060777Y-1126150D01*
X5060777Y-1126150D02*
X5079825Y-1135674D01*
X5156015Y-1335674D02*
X5165539Y-1326150D01*
X5165539Y-1326150D02*
X5184587Y-1297579D01*
X5184587Y-1297579D02*
X5194111Y-1278531D01*
X5194111Y-1278531D02*
X5203634Y-1249960D01*
X5203634Y-1249960D02*
X5213158Y-1202341D01*
X5213158Y-1202341D02*
X5213158Y-1164246D01*
X5213158Y-1164246D02*
X5203634Y-1116627D01*
X5203634Y-1116627D02*
X5194111Y-1088055D01*
X5194111Y-1088055D02*
X5184587Y-1069008D01*
X5184587Y-1069008D02*
X5165539Y-1040436D01*
X5165539Y-1040436D02*
X5156015Y-1030912D01*
D11*
X-11715Y-1460284D02*
X-11715Y-1403715D01*
X-68285Y-1403715D01*
X-68285Y-1460284D01*
X-11715Y-1460284D01*
D10*
X298872Y-1323484D02*
X317920Y-1323484D01*
X317920Y-1323484D02*
X336967Y-1333008D01*
X336967Y-1333008D02*
X346491Y-1342531D01*
X346491Y-1342531D02*
X356015Y-1361579D01*
X356015Y-1361579D02*
X365539Y-1399674D01*
X365539Y-1399674D02*
X365539Y-1447293D01*
X365539Y-1447293D02*
X356015Y-1485388D01*
X356015Y-1485388D02*
X346491Y-1504436D01*
X346491Y-1504436D02*
X336967Y-1513960D01*
X336967Y-1513960D02*
X317920Y-1523484D01*
X317920Y-1523484D02*
X298872Y-1523484D01*
X298872Y-1523484D02*
X279824Y-1513960D01*
X279824Y-1513960D02*
X270301Y-1504436D01*
X270301Y-1504436D02*
X260777Y-1485388D01*
X260777Y-1485388D02*
X251253Y-1447293D01*
X251253Y-1447293D02*
X251253Y-1399674D01*
X251253Y-1399674D02*
X260777Y-1361579D01*
X260777Y-1361579D02*
X270301Y-1342531D01*
X270301Y-1342531D02*
X279824Y-1333008D01*
X279824Y-1333008D02*
X298872Y-1323484D01*
X451253Y-1504436D02*
X460777Y-1513960D01*
X460777Y-1513960D02*
X451253Y-1523484D01*
X451253Y-1523484D02*
X441729Y-1513960D01*
X441729Y-1513960D02*
X451253Y-1504436D01*
X451253Y-1504436D02*
X451253Y-1523484D01*
X575063Y-1409198D02*
X556015Y-1399674D01*
X556015Y-1399674D02*
X546491Y-1390150D01*
X546491Y-1390150D02*
X536967Y-1371103D01*
X536967Y-1371103D02*
X536967Y-1361579D01*
X536967Y-1361579D02*
X546491Y-1342531D01*
X546491Y-1342531D02*
X556015Y-1333008D01*
X556015Y-1333008D02*
X575063Y-1323484D01*
X575063Y-1323484D02*
X613158Y-1323484D01*
X613158Y-1323484D02*
X632205Y-1333008D01*
X632205Y-1333008D02*
X641729Y-1342531D01*
X641729Y-1342531D02*
X651253Y-1361579D01*
X651253Y-1361579D02*
X651253Y-1371103D01*
X651253Y-1371103D02*
X641729Y-1390150D01*
X641729Y-1390150D02*
X632205Y-1399674D01*
X632205Y-1399674D02*
X613158Y-1409198D01*
X613158Y-1409198D02*
X575063Y-1409198D01*
X575063Y-1409198D02*
X556015Y-1418722D01*
X556015Y-1418722D02*
X546491Y-1428246D01*
X546491Y-1428246D02*
X536967Y-1447293D01*
X536967Y-1447293D02*
X536967Y-1485388D01*
X536967Y-1485388D02*
X546491Y-1504436D01*
X546491Y-1504436D02*
X556015Y-1513960D01*
X556015Y-1513960D02*
X575063Y-1523484D01*
X575063Y-1523484D02*
X613158Y-1523484D01*
X613158Y-1523484D02*
X632205Y-1513960D01*
X632205Y-1513960D02*
X641729Y-1504436D01*
X641729Y-1504436D02*
X651253Y-1485388D01*
X651253Y-1485388D02*
X651253Y-1447293D01*
X651253Y-1447293D02*
X641729Y-1428246D01*
X641729Y-1428246D02*
X632205Y-1418722D01*
X632205Y-1418722D02*
X613158Y-1409198D01*
X775062Y-1323484D02*
X794110Y-1323484D01*
X794110Y-1323484D02*
X813158Y-1333008D01*
X813158Y-1333008D02*
X822682Y-1342531D01*
X822682Y-1342531D02*
X832205Y-1361579D01*
X832205Y-1361579D02*
X841729Y-1399674D01*
X841729Y-1399674D02*
X841729Y-1447293D01*
X841729Y-1447293D02*
X832205Y-1485388D01*
X832205Y-1485388D02*
X822682Y-1504436D01*
X822682Y-1504436D02*
X813158Y-1513960D01*
X813158Y-1513960D02*
X794110Y-1523484D01*
X794110Y-1523484D02*
X775062Y-1523484D01*
X775062Y-1523484D02*
X756015Y-1513960D01*
X756015Y-1513960D02*
X746491Y-1504436D01*
X746491Y-1504436D02*
X736967Y-1485388D01*
X736967Y-1485388D02*
X727443Y-1447293D01*
X727443Y-1447293D02*
X727443Y-1399674D01*
X727443Y-1399674D02*
X736967Y-1361579D01*
X736967Y-1361579D02*
X746491Y-1342531D01*
X746491Y-1342531D02*
X756015Y-1333008D01*
X756015Y-1333008D02*
X775062Y-1323484D01*
X965539Y-1323484D02*
X984586Y-1323484D01*
X984586Y-1323484D02*
X1003634Y-1333008D01*
X1003634Y-1333008D02*
X1013158Y-1342531D01*
X1013158Y-1342531D02*
X1022682Y-1361579D01*
X1022682Y-1361579D02*
X1032205Y-1399674D01*
X1032205Y-1399674D02*
X1032205Y-1447293D01*
X1032205Y-1447293D02*
X1022682Y-1485388D01*
X1022682Y-1485388D02*
X1013158Y-1504436D01*
X1013158Y-1504436D02*
X1003634Y-1513960D01*
X1003634Y-1513960D02*
X984586Y-1523484D01*
X984586Y-1523484D02*
X965539Y-1523484D01*
X965539Y-1523484D02*
X946491Y-1513960D01*
X946491Y-1513960D02*
X936967Y-1504436D01*
X936967Y-1504436D02*
X927443Y-1485388D01*
X927443Y-1485388D02*
X917920Y-1447293D01*
X917920Y-1447293D02*
X917920Y-1399674D01*
X917920Y-1399674D02*
X927443Y-1361579D01*
X927443Y-1361579D02*
X936967Y-1342531D01*
X936967Y-1342531D02*
X946491Y-1333008D01*
X946491Y-1333008D02*
X965539Y-1323484D01*
X1117920Y-1523484D02*
X1117920Y-1390150D01*
X1117920Y-1409198D02*
X1127444Y-1399674D01*
X1127444Y-1399674D02*
X1146491Y-1390150D01*
X1146491Y-1390150D02*
X1175063Y-1390150D01*
X1175063Y-1390150D02*
X1194110Y-1399674D01*
X1194110Y-1399674D02*
X1203634Y-1418722D01*
X1203634Y-1418722D02*
X1203634Y-1523484D01*
X1203634Y-1418722D02*
X1213158Y-1399674D01*
X1213158Y-1399674D02*
X1232205Y-1390150D01*
X1232205Y-1390150D02*
X1260777Y-1390150D01*
X1260777Y-1390150D02*
X1279825Y-1399674D01*
X1279825Y-1399674D02*
X1289348Y-1418722D01*
X1289348Y-1418722D02*
X1289348Y-1523484D01*
X1384586Y-1523484D02*
X1384586Y-1390150D01*
X1384586Y-1409198D02*
X1394110Y-1399674D01*
X1394110Y-1399674D02*
X1413158Y-1390150D01*
X1413158Y-1390150D02*
X1441729Y-1390150D01*
X1441729Y-1390150D02*
X1460777Y-1399674D01*
X1460777Y-1399674D02*
X1470301Y-1418722D01*
X1470301Y-1418722D02*
X1470301Y-1523484D01*
X1470301Y-1418722D02*
X1479824Y-1399674D01*
X1479824Y-1399674D02*
X1498872Y-1390150D01*
X1498872Y-1390150D02*
X1527443Y-1390150D01*
X1527443Y-1390150D02*
X1546491Y-1399674D01*
X1546491Y-1399674D02*
X1556015Y-1418722D01*
X1556015Y-1418722D02*
X1556015Y-1523484D01*
X1946491Y-1313960D02*
X1775063Y-1571103D01*
X2203634Y-1323484D02*
X2222682Y-1323484D01*
X2222682Y-1323484D02*
X2241729Y-1333008D01*
X2241729Y-1333008D02*
X2251253Y-1342531D01*
X2251253Y-1342531D02*
X2260777Y-1361579D01*
X2260777Y-1361579D02*
X2270301Y-1399674D01*
X2270301Y-1399674D02*
X2270301Y-1447293D01*
X2270301Y-1447293D02*
X2260777Y-1485388D01*
X2260777Y-1485388D02*
X2251253Y-1504436D01*
X2251253Y-1504436D02*
X2241729Y-1513960D01*
X2241729Y-1513960D02*
X2222682Y-1523484D01*
X2222682Y-1523484D02*
X2203634Y-1523484D01*
X2203634Y-1523484D02*
X2184587Y-1513960D01*
X2184587Y-1513960D02*
X2175063Y-1504436D01*
X2175063Y-1504436D02*
X2165539Y-1485388D01*
X2165539Y-1485388D02*
X2156015Y-1447293D01*
X2156015Y-1447293D02*
X2156015Y-1399674D01*
X2156015Y-1399674D02*
X2165539Y-1361579D01*
X2165539Y-1361579D02*
X2175063Y-1342531D01*
X2175063Y-1342531D02*
X2184587Y-1333008D01*
X2184587Y-1333008D02*
X2203634Y-1323484D01*
X2356015Y-1504436D02*
X2365539Y-1513960D01*
X2365539Y-1513960D02*
X2356015Y-1523484D01*
X2356015Y-1523484D02*
X2346491Y-1513960D01*
X2346491Y-1513960D02*
X2356015Y-1504436D01*
X2356015Y-1504436D02*
X2356015Y-1523484D01*
X2489348Y-1323484D02*
X2508396Y-1323484D01*
X2508396Y-1323484D02*
X2527444Y-1333008D01*
X2527444Y-1333008D02*
X2536968Y-1342531D01*
X2536968Y-1342531D02*
X2546491Y-1361579D01*
X2546491Y-1361579D02*
X2556015Y-1399674D01*
X2556015Y-1399674D02*
X2556015Y-1447293D01*
X2556015Y-1447293D02*
X2546491Y-1485388D01*
X2546491Y-1485388D02*
X2536968Y-1504436D01*
X2536968Y-1504436D02*
X2527444Y-1513960D01*
X2527444Y-1513960D02*
X2508396Y-1523484D01*
X2508396Y-1523484D02*
X2489348Y-1523484D01*
X2489348Y-1523484D02*
X2470301Y-1513960D01*
X2470301Y-1513960D02*
X2460777Y-1504436D01*
X2460777Y-1504436D02*
X2451253Y-1485388D01*
X2451253Y-1485388D02*
X2441729Y-1447293D01*
X2441729Y-1447293D02*
X2441729Y-1399674D01*
X2441729Y-1399674D02*
X2451253Y-1361579D01*
X2451253Y-1361579D02*
X2460777Y-1342531D01*
X2460777Y-1342531D02*
X2470301Y-1333008D01*
X2470301Y-1333008D02*
X2489348Y-1323484D01*
X2622682Y-1323484D02*
X2746491Y-1323484D01*
X2746491Y-1323484D02*
X2679825Y-1399674D01*
X2679825Y-1399674D02*
X2708396Y-1399674D01*
X2708396Y-1399674D02*
X2727444Y-1409198D01*
X2727444Y-1409198D02*
X2736968Y-1418722D01*
X2736968Y-1418722D02*
X2746491Y-1437769D01*
X2746491Y-1437769D02*
X2746491Y-1485388D01*
X2746491Y-1485388D02*
X2736968Y-1504436D01*
X2736968Y-1504436D02*
X2727444Y-1513960D01*
X2727444Y-1513960D02*
X2708396Y-1523484D01*
X2708396Y-1523484D02*
X2651253Y-1523484D01*
X2651253Y-1523484D02*
X2632206Y-1513960D01*
X2632206Y-1513960D02*
X2622682Y-1504436D01*
X2936967Y-1523484D02*
X2822682Y-1523484D01*
X2879825Y-1523484D02*
X2879825Y-1323484D01*
X2879825Y-1323484D02*
X2860777Y-1352055D01*
X2860777Y-1352055D02*
X2841729Y-1371103D01*
X2841729Y-1371103D02*
X2822682Y-1380627D01*
X3117920Y-1323484D02*
X3022682Y-1323484D01*
X3022682Y-1323484D02*
X3013158Y-1418722D01*
X3013158Y-1418722D02*
X3022682Y-1409198D01*
X3022682Y-1409198D02*
X3041729Y-1399674D01*
X3041729Y-1399674D02*
X3089348Y-1399674D01*
X3089348Y-1399674D02*
X3108396Y-1409198D01*
X3108396Y-1409198D02*
X3117920Y-1418722D01*
X3117920Y-1418722D02*
X3127444Y-1437769D01*
X3127444Y-1437769D02*
X3127444Y-1485388D01*
X3127444Y-1485388D02*
X3117920Y-1504436D01*
X3117920Y-1504436D02*
X3108396Y-1513960D01*
X3108396Y-1513960D02*
X3089348Y-1523484D01*
X3089348Y-1523484D02*
X3041729Y-1523484D01*
X3041729Y-1523484D02*
X3022682Y-1513960D01*
X3022682Y-1513960D02*
X3013158Y-1504436D01*
X3203634Y-1323484D02*
X3203634Y-1361579D01*
X3279825Y-1323484D02*
X3279825Y-1361579D01*
X3575063Y-1599674D02*
X3565539Y-1590150D01*
X3565539Y-1590150D02*
X3546491Y-1561579D01*
X3546491Y-1561579D02*
X3536968Y-1542531D01*
X3536968Y-1542531D02*
X3527444Y-1513960D01*
X3527444Y-1513960D02*
X3517920Y-1466341D01*
X3517920Y-1466341D02*
X3517920Y-1428246D01*
X3517920Y-1428246D02*
X3527444Y-1380627D01*
X3527444Y-1380627D02*
X3536968Y-1352055D01*
X3536968Y-1352055D02*
X3546491Y-1333008D01*
X3546491Y-1333008D02*
X3565539Y-1304436D01*
X3565539Y-1304436D02*
X3575063Y-1294912D01*
X3756015Y-1523484D02*
X3641729Y-1523484D01*
X3698872Y-1523484D02*
X3698872Y-1323484D01*
X3698872Y-1323484D02*
X3679825Y-1352055D01*
X3679825Y-1352055D02*
X3660777Y-1371103D01*
X3660777Y-1371103D02*
X3641729Y-1380627D01*
X3879825Y-1323484D02*
X3898872Y-1323484D01*
X3898872Y-1323484D02*
X3917920Y-1333008D01*
X3917920Y-1333008D02*
X3927444Y-1342531D01*
X3927444Y-1342531D02*
X3936968Y-1361579D01*
X3936968Y-1361579D02*
X3946491Y-1399674D01*
X3946491Y-1399674D02*
X3946491Y-1447293D01*
X3946491Y-1447293D02*
X3936968Y-1485388D01*
X3936968Y-1485388D02*
X3927444Y-1504436D01*
X3927444Y-1504436D02*
X3917920Y-1513960D01*
X3917920Y-1513960D02*
X3898872Y-1523484D01*
X3898872Y-1523484D02*
X3879825Y-1523484D01*
X3879825Y-1523484D02*
X3860777Y-1513960D01*
X3860777Y-1513960D02*
X3851253Y-1504436D01*
X3851253Y-1504436D02*
X3841729Y-1485388D01*
X3841729Y-1485388D02*
X3832206Y-1447293D01*
X3832206Y-1447293D02*
X3832206Y-1399674D01*
X3832206Y-1399674D02*
X3841729Y-1361579D01*
X3841729Y-1361579D02*
X3851253Y-1342531D01*
X3851253Y-1342531D02*
X3860777Y-1333008D01*
X3860777Y-1333008D02*
X3879825Y-1323484D01*
X4184587Y-1523484D02*
X4184587Y-1323484D01*
X4270301Y-1523484D02*
X4270301Y-1418722D01*
X4270301Y-1418722D02*
X4260777Y-1399674D01*
X4260777Y-1399674D02*
X4241730Y-1390150D01*
X4241730Y-1390150D02*
X4213158Y-1390150D01*
X4213158Y-1390150D02*
X4194110Y-1399674D01*
X4194110Y-1399674D02*
X4184587Y-1409198D01*
X4394111Y-1523484D02*
X4375063Y-1513960D01*
X4375063Y-1513960D02*
X4365539Y-1504436D01*
X4365539Y-1504436D02*
X4356015Y-1485388D01*
X4356015Y-1485388D02*
X4356015Y-1428246D01*
X4356015Y-1428246D02*
X4365539Y-1409198D01*
X4365539Y-1409198D02*
X4375063Y-1399674D01*
X4375063Y-1399674D02*
X4394111Y-1390150D01*
X4394111Y-1390150D02*
X4422682Y-1390150D01*
X4422682Y-1390150D02*
X4441730Y-1399674D01*
X4441730Y-1399674D02*
X4451253Y-1409198D01*
X4451253Y-1409198D02*
X4460777Y-1428246D01*
X4460777Y-1428246D02*
X4460777Y-1485388D01*
X4460777Y-1485388D02*
X4451253Y-1504436D01*
X4451253Y-1504436D02*
X4441730Y-1513960D01*
X4441730Y-1513960D02*
X4422682Y-1523484D01*
X4422682Y-1523484D02*
X4394111Y-1523484D01*
X4575063Y-1523484D02*
X4556015Y-1513960D01*
X4556015Y-1513960D02*
X4546492Y-1494912D01*
X4546492Y-1494912D02*
X4546492Y-1323484D01*
X4727444Y-1513960D02*
X4708396Y-1523484D01*
X4708396Y-1523484D02*
X4670301Y-1523484D01*
X4670301Y-1523484D02*
X4651253Y-1513960D01*
X4651253Y-1513960D02*
X4641730Y-1494912D01*
X4641730Y-1494912D02*
X4641730Y-1418722D01*
X4641730Y-1418722D02*
X4651253Y-1399674D01*
X4651253Y-1399674D02*
X4670301Y-1390150D01*
X4670301Y-1390150D02*
X4708396Y-1390150D01*
X4708396Y-1390150D02*
X4727444Y-1399674D01*
X4727444Y-1399674D02*
X4736968Y-1418722D01*
X4736968Y-1418722D02*
X4736968Y-1437769D01*
X4736968Y-1437769D02*
X4641730Y-1456817D01*
X4813158Y-1513960D02*
X4832206Y-1523484D01*
X4832206Y-1523484D02*
X4870301Y-1523484D01*
X4870301Y-1523484D02*
X4889349Y-1513960D01*
X4889349Y-1513960D02*
X4898873Y-1494912D01*
X4898873Y-1494912D02*
X4898873Y-1485388D01*
X4898873Y-1485388D02*
X4889349Y-1466341D01*
X4889349Y-1466341D02*
X4870301Y-1456817D01*
X4870301Y-1456817D02*
X4841730Y-1456817D01*
X4841730Y-1456817D02*
X4822682Y-1447293D01*
X4822682Y-1447293D02*
X4813158Y-1428246D01*
X4813158Y-1428246D02*
X4813158Y-1418722D01*
X4813158Y-1418722D02*
X4822682Y-1399674D01*
X4822682Y-1399674D02*
X4841730Y-1390150D01*
X4841730Y-1390150D02*
X4870301Y-1390150D01*
X4870301Y-1390150D02*
X4889349Y-1399674D01*
X4965539Y-1599674D02*
X4975063Y-1590150D01*
X4975063Y-1590150D02*
X4994111Y-1561579D01*
X4994111Y-1561579D02*
X5003634Y-1542531D01*
X5003634Y-1542531D02*
X5013158Y-1513960D01*
X5013158Y-1513960D02*
X5022682Y-1466341D01*
X5022682Y-1466341D02*
X5022682Y-1428246D01*
X5022682Y-1428246D02*
X5013158Y-1380627D01*
X5013158Y-1380627D02*
X5003634Y-1352055D01*
X5003634Y-1352055D02*
X4994111Y-1333008D01*
X4994111Y-1333008D02*
X4975063Y-1304436D01*
X4975063Y-1304436D02*
X4965539Y-1294912D01*
M02*
